<?xml version="1.0" encoding="utf-8" standalone="no"?>
<!DOCTYPE svg PUBLIC "-//W3C//DTD SVG 1.1//EN"
  "http://www.w3.org/Graphics/SVG/1.1/DTD/svg11.dtd">
<svg xmlns:xlink="http://www.w3.org/1999/xlink" width="862.171609pt" height="441.7475pt" viewBox="0 0 862.171609 441.7475" xmlns="http://www.w3.org/2000/svg" version="1.1">
 <metadata>
  <rdf:RDF xmlns:dc="http://purl.org/dc/elements/1.1/" xmlns:cc="http://creativecommons.org/ns#" xmlns:rdf="http://www.w3.org/1999/02/22-rdf-syntax-ns#">
   <cc:Work>
    <dc:type rdf:resource="http://purl.org/dc/dcmitype/StillImage"/>
    <dc:date>2026-03-18T22:53:43.816237</dc:date>
    <dc:format>image/svg+xml</dc:format>
    <dc:creator>
     <cc:Agent>
      <dc:title>Matplotlib v3.10.7, https://matplotlib.org/</dc:title>
     </cc:Agent>
    </dc:creator>
   </cc:Work>
  </rdf:RDF>
 </metadata>
 <defs>
  <style type="text/css">*{stroke-linejoin: round; stroke-linecap: butt}</style>
 </defs>
 <g id="figure_1">
  <g id="patch_1">
   <path d="M 0 441.7475 
L 862.171609 441.7475 
L 862.171609 0 
L 0 0 
z
" style="fill: #1a1a2e"/>
  </g>
  <g id="axes_1">
   <g id="patch_2">
    <path d="M 47.504375 400.32 
L 379.929907 400.32 
L 379.929907 67.68 
L 47.504375 67.68 
z
" style="fill: #16213e"/>
   </g>
   <g id="matplotlib.axis_1">
    <g id="xtick_1">
     <g id="line2d_1">
      <path d="M 47.504375 400.32 
L 47.504375 67.68 
" clip-path="url(#p09ac525467)" style="fill: none; stroke: #2a2a4a; stroke-opacity: 0.3; stroke-width: 0.8; stroke-linecap: square"/>
     </g>
     <g id="line2d_2">
      <defs>
       <path id="mc5438b584b" d="M 0 0 
L 0 3.5 
" style="stroke: #eaeaea; stroke-width: 0.8"/>
      </defs>
      <g>
       <use xlink:href="#mc5438b584b" x="47.504375" y="400.32" style="fill: #eaeaea; stroke: #eaeaea; stroke-width: 0.8"/>
      </g>
     </g>
     <g id="text_1">
      <!-- 0 -->
      <g style="fill: #eaeaea" transform="translate(43.686875 416.438125) scale(0.12 -0.12)">
       <defs>
        <path id="DejaVuSans-30" d="M 2034 4250 
Q 1547 4250 1301 3770 
Q 1056 3291 1056 2328 
Q 1056 1369 1301 889 
Q 1547 409 2034 409 
Q 2525 409 2770 889 
Q 3016 1369 3016 2328 
Q 3016 3291 2770 3770 
Q 2525 4250 2034 4250 
z
M 2034 4750 
Q 2819 4750 3233 4129 
Q 3647 3509 3647 2328 
Q 3647 1150 3233 529 
Q 2819 -91 2034 -91 
Q 1250 -91 836 529 
Q 422 1150 422 2328 
Q 422 3509 836 4129 
Q 1250 4750 2034 4750 
z
" transform="scale(0.015625)"/>
       </defs>
       <use xlink:href="#DejaVuSans-30"/>
      </g>
     </g>
    </g>
    <g id="xtick_2">
     <g id="line2d_3">
      <path d="M 111.432362 400.32 
L 111.432362 67.68 
" clip-path="url(#p09ac525467)" style="fill: none; stroke: #2a2a4a; stroke-opacity: 0.3; stroke-width: 0.8; stroke-linecap: square"/>
     </g>
     <g id="line2d_4">
      <g>
       <use xlink:href="#mc5438b584b" x="111.432362" y="400.32" style="fill: #eaeaea; stroke: #eaeaea; stroke-width: 0.8"/>
      </g>
     </g>
     <g id="text_2">
      <!-- 1 -->
      <g style="fill: #eaeaea" transform="translate(107.614862 416.438125) scale(0.12 -0.12)">
       <defs>
        <path id="DejaVuSans-31" d="M 794 531 
L 1825 531 
L 1825 4091 
L 703 3866 
L 703 4441 
L 1819 4666 
L 2450 4666 
L 2450 531 
L 3481 531 
L 3481 0 
L 794 0 
L 794 531 
z
" transform="scale(0.015625)"/>
       </defs>
       <use xlink:href="#DejaVuSans-31"/>
      </g>
     </g>
    </g>
    <g id="xtick_3">
     <g id="line2d_5">
      <path d="M 175.360349 400.32 
L 175.360349 67.68 
" clip-path="url(#p09ac525467)" style="fill: none; stroke: #2a2a4a; stroke-opacity: 0.3; stroke-width: 0.8; stroke-linecap: square"/>
     </g>
     <g id="line2d_6">
      <g>
       <use xlink:href="#mc5438b584b" x="175.360349" y="400.32" style="fill: #eaeaea; stroke: #eaeaea; stroke-width: 0.8"/>
      </g>
     </g>
     <g id="text_3">
      <!-- 2 -->
      <g style="fill: #eaeaea" transform="translate(171.542849 416.438125) scale(0.12 -0.12)">
       <defs>
        <path id="DejaVuSans-32" d="M 1228 531 
L 3431 531 
L 3431 0 
L 469 0 
L 469 531 
Q 828 903 1448 1529 
Q 2069 2156 2228 2338 
Q 2531 2678 2651 2914 
Q 2772 3150 2772 3378 
Q 2772 3750 2511 3984 
Q 2250 4219 1831 4219 
Q 1534 4219 1204 4116 
Q 875 4013 500 3803 
L 500 4441 
Q 881 4594 1212 4672 
Q 1544 4750 1819 4750 
Q 2544 4750 2975 4387 
Q 3406 4025 3406 3419 
Q 3406 3131 3298 2873 
Q 3191 2616 2906 2266 
Q 2828 2175 2409 1742 
Q 1991 1309 1228 531 
z
" transform="scale(0.015625)"/>
       </defs>
       <use xlink:href="#DejaVuSans-32"/>
      </g>
     </g>
    </g>
    <g id="xtick_4">
     <g id="line2d_7">
      <path d="M 239.288336 400.32 
L 239.288336 67.68 
" clip-path="url(#p09ac525467)" style="fill: none; stroke: #2a2a4a; stroke-opacity: 0.3; stroke-width: 0.8; stroke-linecap: square"/>
     </g>
     <g id="line2d_8">
      <g>
       <use xlink:href="#mc5438b584b" x="239.288336" y="400.32" style="fill: #eaeaea; stroke: #eaeaea; stroke-width: 0.8"/>
      </g>
     </g>
     <g id="text_4">
      <!-- 3 -->
      <g style="fill: #eaeaea" transform="translate(235.470836 416.438125) scale(0.12 -0.12)">
       <defs>
        <path id="DejaVuSans-33" d="M 2597 2516 
Q 3050 2419 3304 2112 
Q 3559 1806 3559 1356 
Q 3559 666 3084 287 
Q 2609 -91 1734 -91 
Q 1441 -91 1130 -33 
Q 819 25 488 141 
L 488 750 
Q 750 597 1062 519 
Q 1375 441 1716 441 
Q 2309 441 2620 675 
Q 2931 909 2931 1356 
Q 2931 1769 2642 2001 
Q 2353 2234 1838 2234 
L 1294 2234 
L 1294 2753 
L 1863 2753 
Q 2328 2753 2575 2939 
Q 2822 3125 2822 3475 
Q 2822 3834 2567 4026 
Q 2313 4219 1838 4219 
Q 1578 4219 1281 4162 
Q 984 4106 628 3988 
L 628 4550 
Q 988 4650 1302 4700 
Q 1616 4750 1894 4750 
Q 2613 4750 3031 4423 
Q 3450 4097 3450 3541 
Q 3450 3153 3228 2886 
Q 3006 2619 2597 2516 
z
" transform="scale(0.015625)"/>
       </defs>
       <use xlink:href="#DejaVuSans-33"/>
      </g>
     </g>
    </g>
    <g id="xtick_5">
     <g id="line2d_9">
      <path d="M 303.216323 400.32 
L 303.216323 67.68 
" clip-path="url(#p09ac525467)" style="fill: none; stroke: #2a2a4a; stroke-opacity: 0.3; stroke-width: 0.8; stroke-linecap: square"/>
     </g>
     <g id="line2d_10">
      <g>
       <use xlink:href="#mc5438b584b" x="303.216323" y="400.32" style="fill: #eaeaea; stroke: #eaeaea; stroke-width: 0.8"/>
      </g>
     </g>
     <g id="text_5">
      <!-- 4 -->
      <g style="fill: #eaeaea" transform="translate(299.398823 416.438125) scale(0.12 -0.12)">
       <defs>
        <path id="DejaVuSans-34" d="M 2419 4116 
L 825 1625 
L 2419 1625 
L 2419 4116 
z
M 2253 4666 
L 3047 4666 
L 3047 1625 
L 3713 1625 
L 3713 1100 
L 3047 1100 
L 3047 0 
L 2419 0 
L 2419 1100 
L 313 1100 
L 313 1709 
L 2253 4666 
z
" transform="scale(0.015625)"/>
       </defs>
       <use xlink:href="#DejaVuSans-34"/>
      </g>
     </g>
    </g>
    <g id="xtick_6">
     <g id="line2d_11">
      <path d="M 367.14431 400.32 
L 367.14431 67.68 
" clip-path="url(#p09ac525467)" style="fill: none; stroke: #2a2a4a; stroke-opacity: 0.3; stroke-width: 0.8; stroke-linecap: square"/>
     </g>
     <g id="line2d_12">
      <g>
       <use xlink:href="#mc5438b584b" x="367.14431" y="400.32" style="fill: #eaeaea; stroke: #eaeaea; stroke-width: 0.8"/>
      </g>
     </g>
     <g id="text_6">
      <!-- 5 -->
      <g style="fill: #eaeaea" transform="translate(363.32681 416.438125) scale(0.12 -0.12)">
       <defs>
        <path id="DejaVuSans-35" d="M 691 4666 
L 3169 4666 
L 3169 4134 
L 1269 4134 
L 1269 2991 
Q 1406 3038 1543 3061 
Q 1681 3084 1819 3084 
Q 2600 3084 3056 2656 
Q 3513 2228 3513 1497 
Q 3513 744 3044 326 
Q 2575 -91 1722 -91 
Q 1428 -91 1123 -41 
Q 819 9 494 109 
L 494 744 
Q 775 591 1075 516 
Q 1375 441 1709 441 
Q 2250 441 2565 725 
Q 2881 1009 2881 1497 
Q 2881 1984 2565 2268 
Q 2250 2553 1709 2553 
Q 1456 2553 1204 2497 
Q 953 2441 691 2322 
L 691 4666 
z
" transform="scale(0.015625)"/>
       </defs>
       <use xlink:href="#DejaVuSans-35"/>
      </g>
     </g>
    </g>
    <g id="text_7">
     <!-- $x$ -->
     <g style="fill: #eaeaea" transform="translate(210.117141 432.051875) scale(0.12 -0.12)">
      <defs>
       <path id="DejaVuSans-Oblique-78" d="M 3841 3500 
L 2234 1784 
L 3219 0 
L 2559 0 
L 1819 1388 
L 531 0 
L -166 0 
L 1556 1844 
L 641 3500 
L 1300 3500 
L 1972 2234 
L 3144 3500 
L 3841 3500 
z
" transform="scale(0.015625)"/>
      </defs>
      <use xlink:href="#DejaVuSans-Oblique-78" transform="translate(0 0.3125)"/>
     </g>
    </g>
   </g>
   <g id="matplotlib.axis_2">
    <g id="ytick_1">
     <g id="line2d_13">
      <path d="M 47.504375 400.32 
L 379.929907 400.32 
" clip-path="url(#p09ac525467)" style="fill: none; stroke: #2a2a4a; stroke-opacity: 0.3; stroke-width: 0.8; stroke-linecap: square"/>
     </g>
     <g id="line2d_14">
      <defs>
       <path id="m1de1d5bf80" d="M 0 0 
L -3.5 0 
" style="stroke: #eaeaea; stroke-width: 0.8"/>
      </defs>
      <g>
       <use xlink:href="#m1de1d5bf80" x="47.504375" y="400.32" style="fill: #eaeaea; stroke: #eaeaea; stroke-width: 0.8"/>
      </g>
     </g>
     <g id="text_8">
      <!-- −3 -->
      <g style="fill: #eaeaea" transform="translate(22.81375 404.879062) scale(0.12 -0.12)">
       <defs>
        <path id="DejaVuSans-2212" d="M 678 2272 
L 4684 2272 
L 4684 1741 
L 678 1741 
L 678 2272 
z
" transform="scale(0.015625)"/>
       </defs>
       <use xlink:href="#DejaVuSans-2212"/>
       <use xlink:href="#DejaVuSans-33" transform="translate(83.789062 0)"/>
      </g>
     </g>
    </g>
    <g id="ytick_2">
     <g id="line2d_15">
      <path d="M 47.504375 339.84 
L 379.929907 339.84 
" clip-path="url(#p09ac525467)" style="fill: none; stroke: #2a2a4a; stroke-opacity: 0.3; stroke-width: 0.8; stroke-linecap: square"/>
     </g>
     <g id="line2d_16">
      <g>
       <use xlink:href="#m1de1d5bf80" x="47.504375" y="339.84" style="fill: #eaeaea; stroke: #eaeaea; stroke-width: 0.8"/>
      </g>
     </g>
     <g id="text_9">
      <!-- −2 -->
      <g style="fill: #eaeaea" transform="translate(22.81375 344.399062) scale(0.12 -0.12)">
       <use xlink:href="#DejaVuSans-2212"/>
       <use xlink:href="#DejaVuSans-32" transform="translate(83.789062 0)"/>
      </g>
     </g>
    </g>
    <g id="ytick_3">
     <g id="line2d_17">
      <path d="M 47.504375 279.36 
L 379.929907 279.36 
" clip-path="url(#p09ac525467)" style="fill: none; stroke: #2a2a4a; stroke-opacity: 0.3; stroke-width: 0.8; stroke-linecap: square"/>
     </g>
     <g id="line2d_18">
      <g>
       <use xlink:href="#m1de1d5bf80" x="47.504375" y="279.36" style="fill: #eaeaea; stroke: #eaeaea; stroke-width: 0.8"/>
      </g>
     </g>
     <g id="text_10">
      <!-- −1 -->
      <g style="fill: #eaeaea" transform="translate(22.81375 283.919062) scale(0.12 -0.12)">
       <use xlink:href="#DejaVuSans-2212"/>
       <use xlink:href="#DejaVuSans-31" transform="translate(83.789062 0)"/>
      </g>
     </g>
    </g>
    <g id="ytick_4">
     <g id="line2d_19">
      <path d="M 47.504375 218.88 
L 379.929907 218.88 
" clip-path="url(#p09ac525467)" style="fill: none; stroke: #2a2a4a; stroke-opacity: 0.3; stroke-width: 0.8; stroke-linecap: square"/>
     </g>
     <g id="line2d_20">
      <g>
       <use xlink:href="#m1de1d5bf80" x="47.504375" y="218.88" style="fill: #eaeaea; stroke: #eaeaea; stroke-width: 0.8"/>
      </g>
     </g>
     <g id="text_11">
      <!-- 0 -->
      <g style="fill: #eaeaea" transform="translate(32.869375 223.439062) scale(0.12 -0.12)">
       <use xlink:href="#DejaVuSans-30"/>
      </g>
     </g>
    </g>
    <g id="ytick_5">
     <g id="line2d_21">
      <path d="M 47.504375 158.4 
L 379.929907 158.4 
" clip-path="url(#p09ac525467)" style="fill: none; stroke: #2a2a4a; stroke-opacity: 0.3; stroke-width: 0.8; stroke-linecap: square"/>
     </g>
     <g id="line2d_22">
      <g>
       <use xlink:href="#m1de1d5bf80" x="47.504375" y="158.4" style="fill: #eaeaea; stroke: #eaeaea; stroke-width: 0.8"/>
      </g>
     </g>
     <g id="text_12">
      <!-- 1 -->
      <g style="fill: #eaeaea" transform="translate(32.869375 162.959062) scale(0.12 -0.12)">
       <use xlink:href="#DejaVuSans-31"/>
      </g>
     </g>
    </g>
    <g id="ytick_6">
     <g id="line2d_23">
      <path d="M 47.504375 97.92 
L 379.929907 97.92 
" clip-path="url(#p09ac525467)" style="fill: none; stroke: #2a2a4a; stroke-opacity: 0.3; stroke-width: 0.8; stroke-linecap: square"/>
     </g>
     <g id="line2d_24">
      <g>
       <use xlink:href="#m1de1d5bf80" x="47.504375" y="97.92" style="fill: #eaeaea; stroke: #eaeaea; stroke-width: 0.8"/>
      </g>
     </g>
     <g id="text_13">
      <!-- 2 -->
      <g style="fill: #eaeaea" transform="translate(32.869375 102.479062) scale(0.12 -0.12)">
       <use xlink:href="#DejaVuSans-32"/>
      </g>
     </g>
    </g>
    <g id="text_14">
     <!-- $\ln x$ -->
     <g style="fill: #eaeaea" transform="translate(16.318125 244.02) rotate(-90) scale(0.12 -0.12)">
      <defs>
       <path id="DejaVuSans-6c" d="M 603 4863 
L 1178 4863 
L 1178 0 
L 603 0 
L 603 4863 
z
" transform="scale(0.015625)"/>
       <path id="DejaVuSans-6e" d="M 3513 2113 
L 3513 0 
L 2938 0 
L 2938 2094 
Q 2938 2591 2744 2837 
Q 2550 3084 2163 3084 
Q 1697 3084 1428 2787 
Q 1159 2491 1159 1978 
L 1159 0 
L 581 0 
L 581 3500 
L 1159 3500 
L 1159 2956 
Q 1366 3272 1645 3428 
Q 1925 3584 2291 3584 
Q 2894 3584 3203 3211 
Q 3513 2838 3513 2113 
z
" transform="scale(0.015625)"/>
      </defs>
      <use xlink:href="#DejaVuSans-6c" transform="translate(0 0.015625)"/>
      <use xlink:href="#DejaVuSans-6e" transform="translate(27.783203 0.015625)"/>
      <use xlink:href="#DejaVuSans-Oblique-78" transform="translate(107.397786 0.015625)"/>
     </g>
    </g>
   </g>
   <g id="line2d_25">
    <path d="M 47.504375 218.88 
L 379.929907 218.88 
" clip-path="url(#p09ac525467)" style="fill: none; stroke: #2a2a4a; stroke-opacity: 0.5; stroke-width: 0.8; stroke-linecap: square"/>
   </g>
   <g id="line2d_26">
    <path d="M 111.432362 400.32 
L 111.432362 67.68 
" clip-path="url(#p09ac525467)" style="fill: none; stroke-dasharray: 1.5,2.475; stroke-dashoffset: 0; stroke: #2ecc71; stroke-opacity: 0.7; stroke-width: 1.5"/>
   </g>
   <g id="line2d_27">
    <path d="M 41.111576 333.377541 
L 42.67716 330.415256 
L 44.242743 327.45297 
L 45.808326 324.490684 
L 47.37391 321.528399 
L 48.939493 318.566113 
L 50.505076 315.603827 
L 52.07066 312.641541 
L 53.636243 309.679256 
L 55.201826 306.71697 
L 56.76741 303.754684 
L 58.332993 300.792399 
L 59.898577 297.830113 
L 61.46416 294.867827 
L 63.029743 291.905541 
L 64.595327 288.943256 
L 66.16091 285.98097 
L 67.726493 283.018684 
L 69.292077 280.056399 
L 70.85766 277.094113 
L 72.423243 274.131827 
L 73.988827 271.169541 
L 75.55441 268.207256 
L 77.119993 265.24497 
L 78.685577 262.282684 
L 80.25116 259.320399 
L 81.816743 256.358113 
L 83.382327 253.395827 
L 84.94791 250.433541 
L 86.513494 247.471256 
L 88.079077 244.50897 
L 89.64466 241.546684 
L 91.210244 238.584399 
L 92.775827 235.622113 
L 94.34141 232.659827 
L 95.906994 229.697541 
L 97.472577 226.735256 
L 99.03816 223.77297 
L 100.603744 220.810684 
L 102.169327 217.848399 
L 103.73491 214.886113 
L 105.300494 211.923827 
L 106.866077 208.961541 
L 108.43166 205.999256 
L 109.997244 203.03697 
L 111.562827 200.074684 
L 113.128411 197.112399 
L 114.693994 194.150113 
L 116.259577 191.187827 
L 117.825161 188.225541 
" clip-path="url(#p09ac525467)" style="fill: none; stroke-dasharray: 6.66,2.88; stroke-dashoffset: 0; stroke: #e74c3c; stroke-opacity: 0.8; stroke-width: 1.8"/>
   </g>
   <g id="line2d_28">
    <path d="M 73.07557 255.168 
L 74.641153 253.686857 
L 76.206736 252.205714 
L 77.77232 250.724571 
L 79.337903 249.243429 
L 80.903487 247.762286 
L 82.46907 246.281143 
L 84.034653 244.8 
L 85.600237 243.318857 
L 87.16582 241.837714 
L 88.731403 240.356571 
L 90.296987 238.875429 
L 91.86257 237.394286 
L 93.428153 235.913143 
L 94.993737 234.432 
L 96.55932 232.950857 
L 98.124903 231.469714 
L 99.690487 229.988571 
L 101.25607 228.507429 
L 102.821653 227.026286 
L 104.387237 225.545143 
L 105.95282 224.064 
L 107.518404 222.582857 
L 109.083987 221.101714 
L 110.64957 219.620571 
L 112.215154 218.139429 
L 113.780737 216.658286 
L 115.34632 215.177143 
L 116.911904 213.696 
L 118.477487 212.214857 
L 120.04307 210.733714 
L 121.608654 209.252571 
L 123.174237 207.771429 
L 124.73982 206.290286 
L 126.305404 204.809143 
L 127.870987 203.328 
L 129.43657 201.846857 
L 131.002154 200.365714 
L 132.567737 198.884571 
L 134.133321 197.403429 
L 135.698904 195.922286 
L 137.264487 194.441143 
L 138.830071 192.96 
L 140.395654 191.478857 
L 141.961237 189.997714 
L 143.526821 188.516571 
L 145.092404 187.035429 
L 146.657987 185.554286 
L 148.223571 184.073143 
L 149.789154 182.592 
" clip-path="url(#p09ac525467)" style="fill: none; stroke-dasharray: 6.66,2.88; stroke-dashoffset: 0; stroke: #00d2ff; stroke-opacity: 0.8; stroke-width: 1.8"/>
   </g>
   <g id="line2d_29">
    <path d="M 137.003557 195.102459 
L 138.56914 194.361887 
L 140.134723 193.621316 
L 141.700307 192.880744 
L 143.26589 192.140173 
L 144.831473 191.399601 
L 146.397057 190.65903 
L 147.96264 189.918459 
L 149.528223 189.177887 
L 151.093807 188.437316 
L 152.65939 187.696744 
L 154.224974 186.956173 
L 155.790557 186.215601 
L 157.35614 185.47503 
L 158.921724 184.734459 
L 160.487307 183.993887 
L 162.05289 183.253316 
L 163.618474 182.512744 
L 165.184057 181.772173 
L 166.74964 181.031601 
L 168.315224 180.29103 
L 169.880807 179.550459 
L 171.44639 178.809887 
L 173.011974 178.069316 
L 174.577557 177.328744 
L 176.14314 176.588173 
L 177.708724 175.847601 
L 179.274307 175.10703 
L 180.839891 174.366459 
L 182.405474 173.625887 
L 183.971057 172.885316 
L 185.536641 172.144744 
L 187.102224 171.404173 
L 188.667807 170.663601 
L 190.233391 169.92303 
L 191.798974 169.182459 
L 193.364557 168.441887 
L 194.930141 167.701316 
L 196.495724 166.960744 
L 198.061307 166.220173 
L 199.626891 165.479601 
L 201.192474 164.73903 
L 202.758057 163.998459 
L 204.323641 163.257887 
L 205.889224 162.517316 
L 207.454808 161.776744 
L 209.020391 161.036173 
L 210.585974 160.295601 
L 212.151558 159.55503 
L 213.717141 158.814459 
" clip-path="url(#p09ac525467)" style="fill: none; stroke-dasharray: 6.66,2.88; stroke-dashoffset: 0; stroke: #9b59b6; stroke-opacity: 0.8; stroke-width: 1.8"/>
   </g>
   <g id="line2d_30">
    <path d="M 232.895537 153.480896 
L 234.46112 153.057712 
L 236.026704 152.634528 
L 237.592287 152.211345 
L 239.15787 151.788161 
L 240.723454 151.364977 
L 242.289037 150.941794 
L 243.85462 150.51861 
L 245.420204 150.095426 
L 246.985787 149.672243 
L 248.551371 149.249059 
L 250.116954 148.825875 
L 251.682537 148.402692 
L 253.248121 147.979508 
L 254.813704 147.556324 
L 256.379287 147.133141 
L 257.944871 146.709957 
L 259.510454 146.286773 
L 261.076037 145.86359 
L 262.641621 145.440406 
L 264.207204 145.017222 
L 265.772787 144.594039 
L 267.338371 144.170855 
L 268.903954 143.747671 
L 270.469537 143.324488 
L 272.035121 142.901304 
L 273.600704 142.47812 
L 275.166288 142.054936 
L 276.731871 141.631753 
L 278.297454 141.208569 
L 279.863038 140.785385 
L 281.428621 140.362202 
L 282.994204 139.939018 
L 284.559788 139.515834 
L 286.125371 139.092651 
L 287.690954 138.669467 
L 289.256538 138.246283 
L 290.822121 137.8231 
L 292.387704 137.399916 
L 293.953288 136.976732 
L 295.518871 136.553549 
L 297.084454 136.130365 
L 298.650038 135.707181 
L 300.215621 135.283998 
L 301.781205 134.860814 
L 303.346788 134.43763 
L 304.912371 134.014447 
L 306.477955 133.591263 
L 308.043538 133.168079 
L 309.609121 132.744896 
" clip-path="url(#p09ac525467)" style="fill: none; stroke-dasharray: 6.66,2.88; stroke-dashoffset: 0; stroke: #f39c12; stroke-opacity: 0.8; stroke-width: 1.8"/>
   </g>
   <g id="patch_3">
    <path d="M 47.504375 400.32 
L 47.504375 67.68 
" style="fill: none; stroke: #2a2a4a; stroke-width: 0.8; stroke-linejoin: miter; stroke-linecap: square"/>
   </g>
   <g id="patch_4">
    <path d="M 379.929907 400.32 
L 379.929907 67.68 
" style="fill: none; stroke: #2a2a4a; stroke-width: 0.8; stroke-linejoin: miter; stroke-linecap: square"/>
   </g>
   <g id="patch_5">
    <path d="M 47.504375 400.32 
L 379.929907 400.32 
" style="fill: none; stroke: #2a2a4a; stroke-width: 0.8; stroke-linejoin: miter; stroke-linecap: square"/>
   </g>
   <g id="patch_6">
    <path d="M 47.504375 67.68 
L 379.929907 67.68 
" style="fill: none; stroke: #2a2a4a; stroke-width: 0.8; stroke-linejoin: miter; stroke-linecap: square"/>
   </g>
   <g id="text_15">
    <g id="patch_7">
     <path d="M 92.253966 288.273541 
L 174.093966 288.273541 
Q 175.693966 288.273541 175.693966 286.673541 
L 175.693966 278.913541 
Q 175.693966 277.313541 174.093966 277.313541 
L 92.253966 277.313541 
Q 90.653966 277.313541 90.653966 278.913541 
L 90.653966 286.673541 
Q 90.653966 288.273541 92.253966 288.273541 
z
" style="fill: #1a1a2e; opacity: 0.7; stroke: #ffffff; stroke-linejoin: miter"/>
    </g>
    <!-- slope $= 1/0.5 = 2.00$ -->
    <g style="fill: #e74c3c" transform="translate(92.253966 284.993541) scale(0.08 -0.08)">
     <defs>
      <path id="DejaVuSans-73" d="M 2834 3397 
L 2834 2853 
Q 2591 2978 2328 3040 
Q 2066 3103 1784 3103 
Q 1356 3103 1142 2972 
Q 928 2841 928 2578 
Q 928 2378 1081 2264 
Q 1234 2150 1697 2047 
L 1894 2003 
Q 2506 1872 2764 1633 
Q 3022 1394 3022 966 
Q 3022 478 2636 193 
Q 2250 -91 1575 -91 
Q 1294 -91 989 -36 
Q 684 19 347 128 
L 347 722 
Q 666 556 975 473 
Q 1284 391 1588 391 
Q 1994 391 2212 530 
Q 2431 669 2431 922 
Q 2431 1156 2273 1281 
Q 2116 1406 1581 1522 
L 1381 1569 
Q 847 1681 609 1914 
Q 372 2147 372 2553 
Q 372 3047 722 3315 
Q 1072 3584 1716 3584 
Q 2034 3584 2315 3537 
Q 2597 3491 2834 3397 
z
" transform="scale(0.015625)"/>
      <path id="DejaVuSans-6f" d="M 1959 3097 
Q 1497 3097 1228 2736 
Q 959 2375 959 1747 
Q 959 1119 1226 758 
Q 1494 397 1959 397 
Q 2419 397 2687 759 
Q 2956 1122 2956 1747 
Q 2956 2369 2687 2733 
Q 2419 3097 1959 3097 
z
M 1959 3584 
Q 2709 3584 3137 3096 
Q 3566 2609 3566 1747 
Q 3566 888 3137 398 
Q 2709 -91 1959 -91 
Q 1206 -91 779 398 
Q 353 888 353 1747 
Q 353 2609 779 3096 
Q 1206 3584 1959 3584 
z
" transform="scale(0.015625)"/>
      <path id="DejaVuSans-70" d="M 1159 525 
L 1159 -1331 
L 581 -1331 
L 581 3500 
L 1159 3500 
L 1159 2969 
Q 1341 3281 1617 3432 
Q 1894 3584 2278 3584 
Q 2916 3584 3314 3078 
Q 3713 2572 3713 1747 
Q 3713 922 3314 415 
Q 2916 -91 2278 -91 
Q 1894 -91 1617 61 
Q 1341 213 1159 525 
z
M 3116 1747 
Q 3116 2381 2855 2742 
Q 2594 3103 2138 3103 
Q 1681 3103 1420 2742 
Q 1159 2381 1159 1747 
Q 1159 1113 1420 752 
Q 1681 391 2138 391 
Q 2594 391 2855 752 
Q 3116 1113 3116 1747 
z
" transform="scale(0.015625)"/>
      <path id="DejaVuSans-65" d="M 3597 1894 
L 3597 1613 
L 953 1613 
Q 991 1019 1311 708 
Q 1631 397 2203 397 
Q 2534 397 2845 478 
Q 3156 559 3463 722 
L 3463 178 
Q 3153 47 2828 -22 
Q 2503 -91 2169 -91 
Q 1331 -91 842 396 
Q 353 884 353 1716 
Q 353 2575 817 3079 
Q 1281 3584 2069 3584 
Q 2775 3584 3186 3129 
Q 3597 2675 3597 1894 
z
M 3022 2063 
Q 3016 2534 2758 2815 
Q 2500 3097 2075 3097 
Q 1594 3097 1305 2825 
Q 1016 2553 972 2059 
L 3022 2063 
z
" transform="scale(0.015625)"/>
      <path id="DejaVuSans-20" transform="scale(0.015625)"/>
      <path id="DejaVuSans-3d" d="M 678 2906 
L 4684 2906 
L 4684 2381 
L 678 2381 
L 678 2906 
z
M 678 1631 
L 4684 1631 
L 4684 1100 
L 678 1100 
L 678 1631 
z
" transform="scale(0.015625)"/>
      <path id="DejaVuSans-2f" d="M 1625 4666 
L 2156 4666 
L 531 -594 
L 0 -594 
L 1625 4666 
z
" transform="scale(0.015625)"/>
      <path id="DejaVuSans-2e" d="M 684 794 
L 1344 794 
L 1344 0 
L 684 0 
L 684 794 
z
" transform="scale(0.015625)"/>
     </defs>
     <use xlink:href="#DejaVuSans-73" transform="translate(0 0.015625)"/>
     <use xlink:href="#DejaVuSans-6c" transform="translate(52.099609 0.015625)"/>
     <use xlink:href="#DejaVuSans-6f" transform="translate(79.882812 0.015625)"/>
     <use xlink:href="#DejaVuSans-70" transform="translate(141.064453 0.015625)"/>
     <use xlink:href="#DejaVuSans-65" transform="translate(204.541016 0.015625)"/>
     <use xlink:href="#DejaVuSans-20" transform="translate(266.064453 0.015625)"/>
     <use xlink:href="#DejaVuSans-3d" transform="translate(317.333984 0.015625)"/>
     <use xlink:href="#DejaVuSans-31" transform="translate(420.605469 0.015625)"/>
     <use xlink:href="#DejaVuSans-2f" transform="translate(484.228516 0.015625)"/>
     <use xlink:href="#DejaVuSans-30" transform="translate(517.919922 0.015625)"/>
     <use xlink:href="#DejaVuSans-2e" transform="translate(581.542969 0.015625)"/>
     <use xlink:href="#DejaVuSans-35" transform="translate(613.330078 0.015625)"/>
     <use xlink:href="#DejaVuSans-3d" transform="translate(696.435547 0.015625)"/>
     <use xlink:href="#DejaVuSans-32" transform="translate(799.707031 0.015625)"/>
     <use xlink:href="#DejaVuSans-2e" transform="translate(863.330078 0.015625)"/>
     <use xlink:href="#DejaVuSans-30" transform="translate(895.117188 0.015625)"/>
     <use xlink:href="#DejaVuSans-30" transform="translate(958.740234 0.015625)"/>
    </g>
   </g>
   <g id="text_16">
    <g id="patch_8">
     <path d="M 124.217959 246.352 
L 206.057959 246.352 
Q 207.657959 246.352 207.657959 244.752 
L 207.657959 236.992 
Q 207.657959 235.392 206.057959 235.392 
L 124.217959 235.392 
Q 122.617959 235.392 122.617959 236.992 
L 122.617959 244.752 
Q 122.617959 246.352 124.217959 246.352 
z
" style="fill: #1a1a2e; opacity: 0.7; stroke: #ffffff; stroke-linejoin: miter"/>
    </g>
    <!-- slope $= 1/1.0 = 1.00$ -->
    <g style="fill: #00d2ff" transform="translate(124.217959 243.072) scale(0.08 -0.08)">
     <use xlink:href="#DejaVuSans-73" transform="translate(0 0.015625)"/>
     <use xlink:href="#DejaVuSans-6c" transform="translate(52.099609 0.015625)"/>
     <use xlink:href="#DejaVuSans-6f" transform="translate(79.882812 0.015625)"/>
     <use xlink:href="#DejaVuSans-70" transform="translate(141.064453 0.015625)"/>
     <use xlink:href="#DejaVuSans-65" transform="translate(204.541016 0.015625)"/>
     <use xlink:href="#DejaVuSans-20" transform="translate(266.064453 0.015625)"/>
     <use xlink:href="#DejaVuSans-3d" transform="translate(317.333984 0.015625)"/>
     <use xlink:href="#DejaVuSans-31" transform="translate(420.605469 0.015625)"/>
     <use xlink:href="#DejaVuSans-2f" transform="translate(484.228516 0.015625)"/>
     <use xlink:href="#DejaVuSans-31" transform="translate(517.919922 0.015625)"/>
     <use xlink:href="#DejaVuSans-2e" transform="translate(581.542969 0.015625)"/>
     <use xlink:href="#DejaVuSans-30" transform="translate(613.330078 0.015625)"/>
     <use xlink:href="#DejaVuSans-3d" transform="translate(696.435547 0.015625)"/>
     <use xlink:href="#DejaVuSans-31" transform="translate(799.707031 0.015625)"/>
     <use xlink:href="#DejaVuSans-2e" transform="translate(863.330078 0.015625)"/>
     <use xlink:href="#DejaVuSans-30" transform="translate(895.117188 0.015625)"/>
     <use xlink:href="#DejaVuSans-30" transform="translate(958.740234 0.015625)"/>
    </g>
   </g>
   <g id="text_17">
    <g id="patch_9">
     <path d="M 188.145946 204.430459 
L 269.665946 204.430459 
Q 271.265946 204.430459 271.265946 202.830459 
L 271.265946 195.070459 
Q 271.265946 193.470459 269.665946 193.470459 
L 188.145946 193.470459 
Q 186.545946 193.470459 186.545946 195.070459 
L 186.545946 202.830459 
Q 186.545946 204.430459 188.145946 204.430459 
z
" style="fill: #1a1a2e; opacity: 0.7; stroke: #ffffff; stroke-linejoin: miter"/>
    </g>
    <!-- slope $= 1/2.0 = 0.50$ -->
    <g style="fill: #9b59b6" transform="translate(188.145946 201.150459) scale(0.08 -0.08)">
     <use xlink:href="#DejaVuSans-73" transform="translate(0 0.015625)"/>
     <use xlink:href="#DejaVuSans-6c" transform="translate(52.099609 0.015625)"/>
     <use xlink:href="#DejaVuSans-6f" transform="translate(79.882812 0.015625)"/>
     <use xlink:href="#DejaVuSans-70" transform="translate(141.064453 0.015625)"/>
     <use xlink:href="#DejaVuSans-65" transform="translate(204.541016 0.015625)"/>
     <use xlink:href="#DejaVuSans-20" transform="translate(266.064453 0.015625)"/>
     <use xlink:href="#DejaVuSans-3d" transform="translate(317.333984 0.015625)"/>
     <use xlink:href="#DejaVuSans-31" transform="translate(420.605469 0.015625)"/>
     <use xlink:href="#DejaVuSans-2f" transform="translate(484.228516 0.015625)"/>
     <use xlink:href="#DejaVuSans-32" transform="translate(514.294922 0.015625)"/>
     <use xlink:href="#DejaVuSans-2e" transform="translate(577.917969 0.015625)"/>
     <use xlink:href="#DejaVuSans-30" transform="translate(609.705078 0.015625)"/>
     <use xlink:href="#DejaVuSans-3d" transform="translate(692.810547 0.015625)"/>
     <use xlink:href="#DejaVuSans-30" transform="translate(796.082031 0.015625)"/>
     <use xlink:href="#DejaVuSans-2e" transform="translate(859.705078 0.015625)"/>
     <use xlink:href="#DejaVuSans-35" transform="translate(891.492188 0.015625)"/>
     <use xlink:href="#DejaVuSans-30" transform="translate(955.115234 0.015625)"/>
    </g>
   </g>
   <g id="text_18">
    <g id="patch_10">
     <path d="M 284.037927 170.584896 
L 365.317927 170.584896 
Q 366.917927 170.584896 366.917927 168.984896 
L 366.917927 161.224896 
Q 366.917927 159.624896 365.317927 159.624896 
L 284.037927 159.624896 
Q 282.437927 159.624896 282.437927 161.224896 
L 282.437927 168.984896 
Q 282.437927 170.584896 284.037927 170.584896 
z
" style="fill: #1a1a2e; opacity: 0.7; stroke: #ffffff; stroke-linejoin: miter"/>
    </g>
    <!-- slope $= 1/3.5 = 0.29$ -->
    <g style="fill: #f39c12" transform="translate(284.037927 167.304896) scale(0.08 -0.08)">
     <defs>
      <path id="DejaVuSans-39" d="M 703 97 
L 703 672 
Q 941 559 1184 500 
Q 1428 441 1663 441 
Q 2288 441 2617 861 
Q 2947 1281 2994 2138 
Q 2813 1869 2534 1725 
Q 2256 1581 1919 1581 
Q 1219 1581 811 2004 
Q 403 2428 403 3163 
Q 403 3881 828 4315 
Q 1253 4750 1959 4750 
Q 2769 4750 3195 4129 
Q 3622 3509 3622 2328 
Q 3622 1225 3098 567 
Q 2575 -91 1691 -91 
Q 1453 -91 1209 -44 
Q 966 3 703 97 
z
M 1959 2075 
Q 2384 2075 2632 2365 
Q 2881 2656 2881 3163 
Q 2881 3666 2632 3958 
Q 2384 4250 1959 4250 
Q 1534 4250 1286 3958 
Q 1038 3666 1038 3163 
Q 1038 2656 1286 2365 
Q 1534 2075 1959 2075 
z
" transform="scale(0.015625)"/>
     </defs>
     <use xlink:href="#DejaVuSans-73" transform="translate(0 0.015625)"/>
     <use xlink:href="#DejaVuSans-6c" transform="translate(52.099609 0.015625)"/>
     <use xlink:href="#DejaVuSans-6f" transform="translate(79.882812 0.015625)"/>
     <use xlink:href="#DejaVuSans-70" transform="translate(141.064453 0.015625)"/>
     <use xlink:href="#DejaVuSans-65" transform="translate(204.541016 0.015625)"/>
     <use xlink:href="#DejaVuSans-20" transform="translate(266.064453 0.015625)"/>
     <use xlink:href="#DejaVuSans-3d" transform="translate(317.333984 0.015625)"/>
     <use xlink:href="#DejaVuSans-31" transform="translate(420.605469 0.015625)"/>
     <use xlink:href="#DejaVuSans-2f" transform="translate(484.228516 0.015625)"/>
     <use xlink:href="#DejaVuSans-33" transform="translate(517.919922 0.015625)"/>
     <use xlink:href="#DejaVuSans-2e" transform="translate(581.542969 0.015625)"/>
     <use xlink:href="#DejaVuSans-35" transform="translate(613.330078 0.015625)"/>
     <use xlink:href="#DejaVuSans-3d" transform="translate(696.435547 0.015625)"/>
     <use xlink:href="#DejaVuSans-30" transform="translate(799.707031 0.015625)"/>
     <use xlink:href="#DejaVuSans-2e" transform="translate(863.330078 0.015625)"/>
     <use xlink:href="#DejaVuSans-32" transform="translate(889.617188 0.015625)"/>
     <use xlink:href="#DejaVuSans-39" transform="translate(951.490234 0.015625)"/>
    </g>
   </g>
   <g id="text_19">
    <g id="patch_11">
     <path d="M 57.477141 104.6592 
L 124.227141 104.6592 
Q 130.227141 104.6592 130.227141 98.6592 
L 130.227141 77.6592 
Q 130.227141 71.6592 124.227141 71.6592 
L 57.477141 71.6592 
Q 51.477141 71.6592 51.477141 77.6592 
L 51.477141 98.6592 
Q 51.477141 104.6592 57.477141 104.6592 
z
" style="fill: #1a1a2e; opacity: 0.85; stroke: #ffffff; stroke-linejoin: miter"/>
    </g>
    <!-- $\frac{d}{dx}\ln x = \frac{1}{x}$ -->
    <g style="fill: #2ecc71" transform="translate(57.477141 92.3592) scale(0.15 -0.15)">
     <defs>
      <path id="DejaVuSans-Oblique-64" d="M 2675 525 
Q 2444 222 2128 65 
Q 1813 -91 1428 -91 
Q 903 -91 598 267 
Q 294 625 294 1247 
Q 294 1766 478 2236 
Q 663 2706 1013 3078 
Q 1244 3325 1534 3454 
Q 1825 3584 2144 3584 
Q 2481 3584 2739 3421 
Q 2997 3259 3138 2956 
L 3513 4863 
L 4091 4863 
L 3144 0 
L 2566 0 
L 2675 525 
z
M 891 1350 
Q 891 897 1095 644 
Q 1300 391 1663 391 
Q 1931 391 2161 520 
Q 2391 650 2566 903 
Q 2750 1166 2856 1509 
Q 2963 1853 2963 2188 
Q 2963 2622 2758 2865 
Q 2553 3109 2194 3109 
Q 1922 3109 1687 2981 
Q 1453 2853 1288 2613 
Q 1106 2353 998 2009 
Q 891 1666 891 1350 
z
" transform="scale(0.015625)"/>
     </defs>
     <use xlink:href="#DejaVuSans-Oblique-64" transform="translate(21 44.810938) scale(0.7)"/>
     <use xlink:href="#DejaVuSans-Oblique-64" transform="translate(0 -40.623437) scale(0.7)"/>
     <use xlink:href="#DejaVuSans-Oblique-78" transform="translate(44.433594 -40.623437) scale(0.7)"/>
     <use xlink:href="#DejaVuSans-6c" transform="translate(98.359375 0.01875)"/>
     <use xlink:href="#DejaVuSans-6e" transform="translate(126.142578 0.01875)"/>
     <use xlink:href="#DejaVuSans-Oblique-78" transform="translate(205.757161 0.01875)"/>
     <use xlink:href="#DejaVuSans-3d" transform="translate(284.41927 0.01875)"/>
     <use xlink:href="#DejaVuSans-31" transform="translate(387.690754 43.815625) scale(0.7)"/>
     <use xlink:href="#DejaVuSans-Oblique-78" transform="translate(389.690754 -25.715625) scale(0.7)"/>
     <path d="M 0 18.815625 
L 0 25.065625 
L 85.859375 25.065625 
L 85.859375 18.815625 
L 0 18.815625 
z
"/>
     <path d="M 387.690754 18.815625 
L 387.690754 25.065625 
L 432.226887 25.065625 
L 432.226887 18.815625 
L 387.690754 18.815625 
z
"/>
    </g>
   </g>
   <g id="text_20">
    <!-- $\ln x$ — Tangent Slopes Equal $1/x$ -->
    <g style="fill: #eaeaea" transform="translate(85.397141 57.68) scale(0.16 -0.16)">
     <defs>
      <path id="DejaVuSansDisplay-2014" d="M 313 1978 
L 6088 1978 
L 6088 1528 
L 313 1528 
L 313 1978 
z
" transform="scale(0.015625)"/>
      <path id="DejaVuSans-54" d="M -19 4666 
L 3928 4666 
L 3928 4134 
L 2272 4134 
L 2272 0 
L 1638 0 
L 1638 4134 
L -19 4134 
L -19 4666 
z
" transform="scale(0.015625)"/>
      <path id="DejaVuSans-61" d="M 2194 1759 
Q 1497 1759 1228 1600 
Q 959 1441 959 1056 
Q 959 750 1161 570 
Q 1363 391 1709 391 
Q 2188 391 2477 730 
Q 2766 1069 2766 1631 
L 2766 1759 
L 2194 1759 
z
M 3341 1997 
L 3341 0 
L 2766 0 
L 2766 531 
Q 2569 213 2275 61 
Q 1981 -91 1556 -91 
Q 1019 -91 701 211 
Q 384 513 384 1019 
Q 384 1609 779 1909 
Q 1175 2209 1959 2209 
L 2766 2209 
L 2766 2266 
Q 2766 2663 2505 2880 
Q 2244 3097 1772 3097 
Q 1472 3097 1187 3025 
Q 903 2953 641 2809 
L 641 3341 
Q 956 3463 1253 3523 
Q 1550 3584 1831 3584 
Q 2591 3584 2966 3190 
Q 3341 2797 3341 1997 
z
" transform="scale(0.015625)"/>
      <path id="DejaVuSans-67" d="M 2906 1791 
Q 2906 2416 2648 2759 
Q 2391 3103 1925 3103 
Q 1463 3103 1205 2759 
Q 947 2416 947 1791 
Q 947 1169 1205 825 
Q 1463 481 1925 481 
Q 2391 481 2648 825 
Q 2906 1169 2906 1791 
z
M 3481 434 
Q 3481 -459 3084 -895 
Q 2688 -1331 1869 -1331 
Q 1566 -1331 1297 -1286 
Q 1028 -1241 775 -1147 
L 775 -588 
Q 1028 -725 1275 -790 
Q 1522 -856 1778 -856 
Q 2344 -856 2625 -561 
Q 2906 -266 2906 331 
L 2906 616 
Q 2728 306 2450 153 
Q 2172 0 1784 0 
Q 1141 0 747 490 
Q 353 981 353 1791 
Q 353 2603 747 3093 
Q 1141 3584 1784 3584 
Q 2172 3584 2450 3431 
Q 2728 3278 2906 2969 
L 2906 3500 
L 3481 3500 
L 3481 434 
z
" transform="scale(0.015625)"/>
      <path id="DejaVuSans-74" d="M 1172 4494 
L 1172 3500 
L 2356 3500 
L 2356 3053 
L 1172 3053 
L 1172 1153 
Q 1172 725 1289 603 
Q 1406 481 1766 481 
L 2356 481 
L 2356 0 
L 1766 0 
Q 1100 0 847 248 
Q 594 497 594 1153 
L 594 3053 
L 172 3053 
L 172 3500 
L 594 3500 
L 594 4494 
L 1172 4494 
z
" transform="scale(0.015625)"/>
      <path id="DejaVuSans-53" d="M 3425 4513 
L 3425 3897 
Q 3066 4069 2747 4153 
Q 2428 4238 2131 4238 
Q 1616 4238 1336 4038 
Q 1056 3838 1056 3469 
Q 1056 3159 1242 3001 
Q 1428 2844 1947 2747 
L 2328 2669 
Q 3034 2534 3370 2195 
Q 3706 1856 3706 1288 
Q 3706 609 3251 259 
Q 2797 -91 1919 -91 
Q 1588 -91 1214 -16 
Q 841 59 441 206 
L 441 856 
Q 825 641 1194 531 
Q 1563 422 1919 422 
Q 2459 422 2753 634 
Q 3047 847 3047 1241 
Q 3047 1584 2836 1778 
Q 2625 1972 2144 2069 
L 1759 2144 
Q 1053 2284 737 2584 
Q 422 2884 422 3419 
Q 422 4038 858 4394 
Q 1294 4750 2059 4750 
Q 2388 4750 2728 4690 
Q 3069 4631 3425 4513 
z
" transform="scale(0.015625)"/>
      <path id="DejaVuSans-45" d="M 628 4666 
L 3578 4666 
L 3578 4134 
L 1259 4134 
L 1259 2753 
L 3481 2753 
L 3481 2222 
L 1259 2222 
L 1259 531 
L 3634 531 
L 3634 0 
L 628 0 
L 628 4666 
z
" transform="scale(0.015625)"/>
      <path id="DejaVuSans-71" d="M 947 1747 
Q 947 1113 1208 752 
Q 1469 391 1925 391 
Q 2381 391 2643 752 
Q 2906 1113 2906 1747 
Q 2906 2381 2643 2742 
Q 2381 3103 1925 3103 
Q 1469 3103 1208 2742 
Q 947 2381 947 1747 
z
M 2906 525 
Q 2725 213 2448 61 
Q 2172 -91 1784 -91 
Q 1150 -91 751 415 
Q 353 922 353 1747 
Q 353 2572 751 3078 
Q 1150 3584 1784 3584 
Q 2172 3584 2448 3432 
Q 2725 3281 2906 2969 
L 2906 3500 
L 3481 3500 
L 3481 -1331 
L 2906 -1331 
L 2906 525 
z
" transform="scale(0.015625)"/>
      <path id="DejaVuSans-75" d="M 544 1381 
L 544 3500 
L 1119 3500 
L 1119 1403 
Q 1119 906 1312 657 
Q 1506 409 1894 409 
Q 2359 409 2629 706 
Q 2900 1003 2900 1516 
L 2900 3500 
L 3475 3500 
L 3475 0 
L 2900 0 
L 2900 538 
Q 2691 219 2414 64 
Q 2138 -91 1772 -91 
Q 1169 -91 856 284 
Q 544 659 544 1381 
z
M 1991 3584 
L 1991 3584 
z
" transform="scale(0.015625)"/>
     </defs>
     <use xlink:href="#DejaVuSans-6c" transform="translate(0 0.015625)"/>
     <use xlink:href="#DejaVuSans-6e" transform="translate(27.783203 0.015625)"/>
     <use xlink:href="#DejaVuSans-Oblique-78" transform="translate(107.397786 0.015625)"/>
     <use xlink:href="#DejaVuSans-20" transform="translate(166.577473 0.015625)"/>
     <use xlink:href="#DejaVuSansDisplay-2014" transform="translate(198.364583 0.015625)"/>
     <use xlink:href="#DejaVuSans-20" transform="translate(298.364583 0.015625)"/>
     <use xlink:href="#DejaVuSans-54" transform="translate(330.151692 0.015625)"/>
     <use xlink:href="#DejaVuSans-61" transform="translate(391.235676 0.015625)"/>
     <use xlink:href="#DejaVuSans-6e" transform="translate(452.514973 0.015625)"/>
     <use xlink:href="#DejaVuSans-67" transform="translate(515.893879 0.015625)"/>
     <use xlink:href="#DejaVuSans-65" transform="translate(579.370442 0.015625)"/>
     <use xlink:href="#DejaVuSans-6e" transform="translate(640.893879 0.015625)"/>
     <use xlink:href="#DejaVuSans-74" transform="translate(704.272786 0.015625)"/>
     <use xlink:href="#DejaVuSans-20" transform="translate(743.48177 0.015625)"/>
     <use xlink:href="#DejaVuSans-53" transform="translate(775.268879 0.015625)"/>
     <use xlink:href="#DejaVuSans-6c" transform="translate(838.745442 0.015625)"/>
     <use xlink:href="#DejaVuSans-6f" transform="translate(866.528645 0.015625)"/>
     <use xlink:href="#DejaVuSans-70" transform="translate(927.710286 0.015625)"/>
     <use xlink:href="#DejaVuSans-65" transform="translate(991.186848 0.015625)"/>
     <use xlink:href="#DejaVuSans-73" transform="translate(1052.710286 0.015625)"/>
     <use xlink:href="#DejaVuSans-20" transform="translate(1104.809895 0.015625)"/>
     <use xlink:href="#DejaVuSans-45" transform="translate(1136.597004 0.015625)"/>
     <use xlink:href="#DejaVuSans-71" transform="translate(1199.780598 0.015625)"/>
     <use xlink:href="#DejaVuSans-75" transform="translate(1263.257161 0.015625)"/>
     <use xlink:href="#DejaVuSans-61" transform="translate(1326.636067 0.015625)"/>
     <use xlink:href="#DejaVuSans-6c" transform="translate(1387.915364 0.015625)"/>
     <use xlink:href="#DejaVuSans-20" transform="translate(1415.698567 0.015625)"/>
     <use xlink:href="#DejaVuSans-31" transform="translate(1447.485676 0.015625)"/>
     <use xlink:href="#DejaVuSans-2f" transform="translate(1511.108723 0.015625)"/>
     <use xlink:href="#DejaVuSans-Oblique-78" transform="translate(1544.800129 0.015625)"/>
    </g>
   </g>
   <g id="line2d_31">
    <path d="M 50.700774 400.061888 
L 51.757347 382.789218 
L 52.81392 369.369429 
L 53.870493 358.393295 
L 55.455352 344.94829 
L 57.040211 333.955318 
L 58.62507 324.656464 
L 60.209929 316.598626 
L 61.794788 309.489222 
L 63.907934 301.148461 
L 66.021079 293.8198 
L 68.134225 287.283981 
L 70.24737 281.386084 
L 72.888802 274.740621 
L 75.530234 268.7536 
L 78.171666 263.306226 
L 80.813097 258.309207 
L 83.982816 252.811447 
L 87.152534 247.772066 
L 90.322252 243.120477 
L 94.020257 238.110429 
L 97.718261 233.483842 
L 101.416266 229.186166 
L 105.642557 224.621646 
L 109.868848 220.377574 
L 114.623425 215.933979 
L 119.378002 211.794638 
L 124.660866 207.505014 
L 129.94373 203.499592 
L 135.75488 199.379907 
L 141.56603 195.523034 
L 147.905466 191.578371 
L 154.773189 187.576718 
L 162.169198 183.544194 
L 169.565207 179.763816 
L 177.489503 175.959594 
L 185.942085 172.149328 
L 194.922953 168.347825 
L 204.432108 164.567257 
L 214.469549 160.817506 
L 225.035276 157.106488 
L 236.12929 153.440445 
L 248.279876 149.664866 
L 260.958749 145.961329 
L 274.694195 142.189628 
L 288.957927 138.506926 
L 304.278232 134.786279 
L 320.655109 131.04692 
L 337.560273 127.415104 
L 355.522009 123.781261 
L 367.14431 121.541195 
L 367.14431 121.541195 
" clip-path="url(#p09ac525467)" style="fill: none; stroke: #ffd700; stroke-width: 3; stroke-linecap: square"/>
   </g>
   <g id="line2d_32">
    <defs>
     <path id="m8fbcab9bbb" d="M 0 4 
C 1.060812 4 2.078319 3.578535 2.828427 2.828427 
C 3.578535 2.078319 4 1.060812 4 0 
C 4 -1.060812 3.578535 -2.078319 2.828427 -2.828427 
C 2.078319 -3.578535 1.060812 -4 0 -4 
C -1.060812 -4 -2.078319 -3.578535 -2.828427 -2.828427 
C -3.578535 -2.078319 -4 -1.060812 -4 0 
C -4 1.060812 -3.578535 2.078319 -2.828427 2.828427 
C -2.078319 3.578535 -1.060812 4 0 4 
z
" style="stroke: #e74c3c"/>
    </defs>
    <g clip-path="url(#p09ac525467)">
     <use xlink:href="#m8fbcab9bbb" x="79.468368" y="260.801541" style="fill: #e74c3c; stroke: #e74c3c"/>
    </g>
   </g>
   <g id="line2d_33">
    <defs>
     <path id="m4e3c463598" d="M 0 4 
C 1.060812 4 2.078319 3.578535 2.828427 2.828427 
C 3.578535 2.078319 4 1.060812 4 0 
C 4 -1.060812 3.578535 -2.078319 2.828427 -2.828427 
C 2.078319 -3.578535 1.060812 -4 0 -4 
C -1.060812 -4 -2.078319 -3.578535 -2.828427 -2.828427 
C -3.578535 -2.078319 -4 -1.060812 -4 0 
C -4 1.060812 -3.578535 2.078319 -2.828427 2.828427 
C -2.078319 3.578535 -1.060812 4 0 4 
z
" style="stroke: #00d2ff"/>
    </defs>
    <g clip-path="url(#p09ac525467)">
     <use xlink:href="#m4e3c463598" x="111.432362" y="218.88" style="fill: #00d2ff; stroke: #00d2ff"/>
    </g>
   </g>
   <g id="line2d_34">
    <defs>
     <path id="m5a36609ee9" d="M 0 4 
C 1.060812 4 2.078319 3.578535 2.828427 2.828427 
C 3.578535 2.078319 4 1.060812 4 0 
C 4 -1.060812 3.578535 -2.078319 2.828427 -2.828427 
C 2.078319 -3.578535 1.060812 -4 0 -4 
C -1.060812 -4 -2.078319 -3.578535 -2.828427 -2.828427 
C -3.578535 -2.078319 -4 -1.060812 -4 0 
C -4 1.060812 -3.578535 2.078319 -2.828427 2.828427 
C -2.078319 3.578535 -1.060812 4 0 4 
z
" style="stroke: #9b59b6"/>
    </defs>
    <g clip-path="url(#p09ac525467)">
     <use xlink:href="#m5a36609ee9" x="175.360349" y="176.958459" style="fill: #9b59b6; stroke: #9b59b6"/>
    </g>
   </g>
   <g id="line2d_35">
    <defs>
     <path id="m298a40b764" d="M 0 4 
C 1.060812 4 2.078319 3.578535 2.828427 2.828427 
C 3.578535 2.078319 4 1.060812 4 0 
C 4 -1.060812 3.578535 -2.078319 2.828427 -2.828427 
C 2.078319 -3.578535 1.060812 -4 0 -4 
C -1.060812 -4 -2.078319 -3.578535 -2.828427 -2.828427 
C -3.578535 -2.078319 -4 -1.060812 -4 0 
C -4 1.060812 -3.578535 2.078319 -2.828427 2.828427 
C -2.078319 3.578535 -1.060812 4 0 4 
z
" style="stroke: #f39c12"/>
    </defs>
    <g clip-path="url(#p09ac525467)">
     <use xlink:href="#m298a40b764" x="271.252329" y="143.112896" style="fill: #f39c12; stroke: #f39c12"/>
    </g>
   </g>
   <g id="legend_1">
    <g id="patch_12">
     <path d="M 277.689907 94.89375 
L 371.529907 94.89375 
Q 373.929907 94.89375 373.929907 92.49375 
L 373.929907 76.08 
Q 373.929907 73.68 371.529907 73.68 
L 277.689907 73.68 
Q 275.289907 73.68 275.289907 76.08 
L 275.289907 92.49375 
Q 275.289907 94.89375 277.689907 94.89375 
z
" style="fill: #16213e; opacity: 0.8; stroke: #2a2a4a; stroke-linejoin: miter"/>
    </g>
    <g id="line2d_36">
     <path d="M 280.089907 83.398125 
L 292.089907 83.398125 
L 304.089907 83.398125 
" style="fill: none; stroke: #ffd700; stroke-width: 3; stroke-linecap: square"/>
    </g>
    <g id="text_21">
     <!-- $f(x) = \ln x$ -->
     <g style="fill: #eaeaea" transform="translate(313.689907 87.598125) scale(0.12 -0.12)">
      <defs>
       <path id="DejaVuSans-Oblique-66" d="M 3059 4863 
L 2969 4384 
L 2419 4384 
Q 2106 4384 1964 4261 
Q 1822 4138 1753 3809 
L 1691 3500 
L 2638 3500 
L 2553 3053 
L 1606 3053 
L 1013 0 
L 434 0 
L 1031 3053 
L 481 3053 
L 563 3500 
L 1113 3500 
L 1159 3744 
Q 1278 4363 1576 4613 
Q 1875 4863 2516 4863 
L 3059 4863 
z
" transform="scale(0.015625)"/>
       <path id="DejaVuSans-28" d="M 1984 4856 
Q 1566 4138 1362 3434 
Q 1159 2731 1159 2009 
Q 1159 1288 1364 580 
Q 1569 -128 1984 -844 
L 1484 -844 
Q 1016 -109 783 600 
Q 550 1309 550 2009 
Q 550 2706 781 3412 
Q 1013 4119 1484 4856 
L 1984 4856 
z
" transform="scale(0.015625)"/>
       <path id="DejaVuSans-29" d="M 513 4856 
L 1013 4856 
Q 1481 4119 1714 3412 
Q 1947 2706 1947 2009 
Q 1947 1309 1714 600 
Q 1481 -109 1013 -844 
L 513 -844 
Q 928 -128 1133 580 
Q 1338 1288 1338 2009 
Q 1338 2731 1133 3434 
Q 928 4138 513 4856 
z
" transform="scale(0.015625)"/>
      </defs>
      <use xlink:href="#DejaVuSans-Oblique-66" transform="translate(0 0.015625)"/>
      <use xlink:href="#DejaVuSans-28" transform="translate(35.205078 0.015625)"/>
      <use xlink:href="#DejaVuSans-Oblique-78" transform="translate(74.21875 0.015625)"/>
      <use xlink:href="#DejaVuSans-29" transform="translate(133.398438 0.015625)"/>
      <use xlink:href="#DejaVuSans-3d" transform="translate(191.894531 0.015625)"/>
      <use xlink:href="#DejaVuSans-6c" transform="translate(295.166016 0.015625)"/>
      <use xlink:href="#DejaVuSans-6e" transform="translate(322.949219 0.015625)"/>
      <use xlink:href="#DejaVuSans-Oblique-78" transform="translate(402.563801 0.015625)"/>
     </g>
    </g>
   </g>
  </g>
  <g id="axes_2">
   <g id="patch_13">
    <path d="M 496.278843 400.32 
L 828.704375 400.32 
L 828.704375 67.68 
L 496.278843 67.68 
z
" style="fill: #16213e"/>
   </g>
   <g id="matplotlib.axis_3">
    <g id="xtick_7">
     <g id="line2d_37">
      <path d="M 557.336594 400.32 
L 557.336594 67.68 
" clip-path="url(#p751ac31437)" style="fill: none; stroke: #2a2a4a; stroke-opacity: 0.3; stroke-width: 0.8; stroke-linecap: square"/>
     </g>
     <g id="line2d_38">
      <g>
       <use xlink:href="#mc5438b584b" x="557.336594" y="400.32" style="fill: #eaeaea; stroke: #eaeaea; stroke-width: 0.8"/>
      </g>
     </g>
     <g id="text_22">
      <!-- 1 -->
      <g style="fill: #eaeaea" transform="translate(553.519094 416.438125) scale(0.12 -0.12)">
       <use xlink:href="#DejaVuSans-31"/>
      </g>
     </g>
    </g>
    <g id="xtick_8">
     <g id="line2d_39">
      <path d="M 625.178539 400.32 
L 625.178539 67.68 
" clip-path="url(#p751ac31437)" style="fill: none; stroke: #2a2a4a; stroke-opacity: 0.3; stroke-width: 0.8; stroke-linecap: square"/>
     </g>
     <g id="line2d_40">
      <g>
       <use xlink:href="#mc5438b584b" x="625.178539" y="400.32" style="fill: #eaeaea; stroke: #eaeaea; stroke-width: 0.8"/>
      </g>
     </g>
     <g id="text_23">
      <!-- 2 -->
      <g style="fill: #eaeaea" transform="translate(621.361039 416.438125) scale(0.12 -0.12)">
       <use xlink:href="#DejaVuSans-32"/>
      </g>
     </g>
    </g>
    <g id="xtick_9">
     <g id="line2d_41">
      <path d="M 693.020484 400.32 
L 693.020484 67.68 
" clip-path="url(#p751ac31437)" style="fill: none; stroke: #2a2a4a; stroke-opacity: 0.3; stroke-width: 0.8; stroke-linecap: square"/>
     </g>
     <g id="line2d_42">
      <g>
       <use xlink:href="#mc5438b584b" x="693.020484" y="400.32" style="fill: #eaeaea; stroke: #eaeaea; stroke-width: 0.8"/>
      </g>
     </g>
     <g id="text_24">
      <!-- 3 -->
      <g style="fill: #eaeaea" transform="translate(689.202984 416.438125) scale(0.12 -0.12)">
       <use xlink:href="#DejaVuSans-33"/>
      </g>
     </g>
    </g>
    <g id="xtick_10">
     <g id="line2d_43">
      <path d="M 760.86243 400.32 
L 760.86243 67.68 
" clip-path="url(#p751ac31437)" style="fill: none; stroke: #2a2a4a; stroke-opacity: 0.3; stroke-width: 0.8; stroke-linecap: square"/>
     </g>
     <g id="line2d_44">
      <g>
       <use xlink:href="#mc5438b584b" x="760.86243" y="400.32" style="fill: #eaeaea; stroke: #eaeaea; stroke-width: 0.8"/>
      </g>
     </g>
     <g id="text_25">
      <!-- 4 -->
      <g style="fill: #eaeaea" transform="translate(757.04493 416.438125) scale(0.12 -0.12)">
       <use xlink:href="#DejaVuSans-34"/>
      </g>
     </g>
    </g>
    <g id="xtick_11">
     <g id="line2d_45">
      <path d="M 828.704375 400.32 
L 828.704375 67.68 
" clip-path="url(#p751ac31437)" style="fill: none; stroke: #2a2a4a; stroke-opacity: 0.3; stroke-width: 0.8; stroke-linecap: square"/>
     </g>
     <g id="line2d_46">
      <g>
       <use xlink:href="#mc5438b584b" x="828.704375" y="400.32" style="fill: #eaeaea; stroke: #eaeaea; stroke-width: 0.8"/>
      </g>
     </g>
     <g id="text_26">
      <!-- 5 -->
      <g style="fill: #eaeaea" transform="translate(824.886875 416.438125) scale(0.12 -0.12)">
       <use xlink:href="#DejaVuSans-35"/>
      </g>
     </g>
    </g>
    <g id="text_27">
     <!-- $x$ -->
     <g style="fill: #eaeaea" transform="translate(658.891609 432.051875) scale(0.12 -0.12)">
      <use xlink:href="#DejaVuSans-Oblique-78" transform="translate(0 0.3125)"/>
     </g>
    </g>
   </g>
   <g id="matplotlib.axis_4">
    <g id="ytick_7">
     <g id="line2d_47">
      <path d="M 496.278843 387.526154 
L 828.704375 387.526154 
" clip-path="url(#p751ac31437)" style="fill: none; stroke: #2a2a4a; stroke-opacity: 0.3; stroke-width: 0.8; stroke-linecap: square"/>
     </g>
     <g id="line2d_48">
      <g>
       <use xlink:href="#m1de1d5bf80" x="496.278843" y="387.526154" style="fill: #eaeaea; stroke: #eaeaea; stroke-width: 0.8"/>
      </g>
     </g>
     <g id="text_28">
      <!-- 0 -->
      <g style="fill: #eaeaea" transform="translate(481.643843 392.085216) scale(0.12 -0.12)">
       <use xlink:href="#DejaVuSans-30"/>
      </g>
     </g>
    </g>
    <g id="ytick_8">
     <g id="line2d_49">
      <path d="M 496.278843 323.556923 
L 828.704375 323.556923 
" clip-path="url(#p751ac31437)" style="fill: none; stroke: #2a2a4a; stroke-opacity: 0.3; stroke-width: 0.8; stroke-linecap: square"/>
     </g>
     <g id="line2d_50">
      <g>
       <use xlink:href="#m1de1d5bf80" x="496.278843" y="323.556923" style="fill: #eaeaea; stroke: #eaeaea; stroke-width: 0.8"/>
      </g>
     </g>
     <g id="text_29">
      <!-- 1 -->
      <g style="fill: #eaeaea" transform="translate(481.643843 328.115986) scale(0.12 -0.12)">
       <use xlink:href="#DejaVuSans-31"/>
      </g>
     </g>
    </g>
    <g id="ytick_9">
     <g id="line2d_51">
      <path d="M 496.278843 259.587692 
L 828.704375 259.587692 
" clip-path="url(#p751ac31437)" style="fill: none; stroke: #2a2a4a; stroke-opacity: 0.3; stroke-width: 0.8; stroke-linecap: square"/>
     </g>
     <g id="line2d_52">
      <g>
       <use xlink:href="#m1de1d5bf80" x="496.278843" y="259.587692" style="fill: #eaeaea; stroke: #eaeaea; stroke-width: 0.8"/>
      </g>
     </g>
     <g id="text_30">
      <!-- 2 -->
      <g style="fill: #eaeaea" transform="translate(481.643843 264.146755) scale(0.12 -0.12)">
       <use xlink:href="#DejaVuSans-32"/>
      </g>
     </g>
    </g>
    <g id="ytick_10">
     <g id="line2d_53">
      <path d="M 496.278843 195.618462 
L 828.704375 195.618462 
" clip-path="url(#p751ac31437)" style="fill: none; stroke: #2a2a4a; stroke-opacity: 0.3; stroke-width: 0.8; stroke-linecap: square"/>
     </g>
     <g id="line2d_54">
      <g>
       <use xlink:href="#m1de1d5bf80" x="496.278843" y="195.618462" style="fill: #eaeaea; stroke: #eaeaea; stroke-width: 0.8"/>
      </g>
     </g>
     <g id="text_31">
      <!-- 3 -->
      <g style="fill: #eaeaea" transform="translate(481.643843 200.177524) scale(0.12 -0.12)">
       <use xlink:href="#DejaVuSans-33"/>
      </g>
     </g>
    </g>
    <g id="ytick_11">
     <g id="line2d_55">
      <path d="M 496.278843 131.649231 
L 828.704375 131.649231 
" clip-path="url(#p751ac31437)" style="fill: none; stroke: #2a2a4a; stroke-opacity: 0.3; stroke-width: 0.8; stroke-linecap: square"/>
     </g>
     <g id="line2d_56">
      <g>
       <use xlink:href="#m1de1d5bf80" x="496.278843" y="131.649231" style="fill: #eaeaea; stroke: #eaeaea; stroke-width: 0.8"/>
      </g>
     </g>
     <g id="text_32">
      <!-- 4 -->
      <g style="fill: #eaeaea" transform="translate(481.643843 136.208293) scale(0.12 -0.12)">
       <use xlink:href="#DejaVuSans-34"/>
      </g>
     </g>
    </g>
    <g id="ytick_12">
     <g id="line2d_57">
      <path d="M 496.278843 67.68 
L 828.704375 67.68 
" clip-path="url(#p751ac31437)" style="fill: none; stroke: #2a2a4a; stroke-opacity: 0.3; stroke-width: 0.8; stroke-linecap: square"/>
     </g>
     <g id="line2d_58">
      <g>
       <use xlink:href="#m1de1d5bf80" x="496.278843" y="67.68" style="fill: #eaeaea; stroke: #eaeaea; stroke-width: 0.8"/>
      </g>
     </g>
     <g id="text_33">
      <!-- 5 -->
      <g style="fill: #eaeaea" transform="translate(481.643843 72.239062) scale(0.12 -0.12)">
       <use xlink:href="#DejaVuSans-35"/>
      </g>
     </g>
    </g>
    <g id="text_34">
     <!-- $1/x$ -->
     <g style="fill: #eaeaea" transform="translate(475.148218 243.42) rotate(-90) scale(0.12 -0.12)">
      <use xlink:href="#DejaVuSans-31" transform="translate(0 0.09375)"/>
      <use xlink:href="#DejaVuSans-2f" transform="translate(63.623047 0.09375)"/>
      <use xlink:href="#DejaVuSans-Oblique-78" transform="translate(97.314453 0.09375)"/>
     </g>
    </g>
   </g>
   <g id="line2d_59">
    <path d="M 496.278843 387.526154 
L 828.704375 387.526154 
" clip-path="url(#p751ac31437)" style="fill: none; stroke: #2a2a4a; stroke-opacity: 0.5; stroke-width: 0.8; stroke-linecap: square"/>
   </g>
   <g id="patch_14">
    <path d="M 496.278843 400.32 
L 496.278843 67.68 
" style="fill: none; stroke: #2a2a4a; stroke-width: 0.8; stroke-linejoin: miter; stroke-linecap: square"/>
   </g>
   <g id="patch_15">
    <path d="M 828.704375 400.32 
L 828.704375 67.68 
" style="fill: none; stroke: #2a2a4a; stroke-width: 0.8; stroke-linejoin: miter; stroke-linecap: square"/>
   </g>
   <g id="patch_16">
    <path d="M 496.278843 400.32 
L 828.704375 400.32 
" style="fill: none; stroke: #2a2a4a; stroke-width: 0.8; stroke-linejoin: miter; stroke-linecap: square"/>
   </g>
   <g id="patch_17">
    <path d="M 496.278843 67.68 
L 828.704375 67.68 
" style="fill: none; stroke: #2a2a4a; stroke-width: 0.8; stroke-linejoin: miter; stroke-linecap: square"/>
   </g>
   <g id="line2d_60">
    <path d="M 500.674202 -1 
L 501.608311 29.269744 
L 502.940677 64.769368 
L 504.273044 93.867956 
L 505.605411 118.153612 
L 506.937778 138.729224 
L 508.270145 156.384618 
L 509.602512 171.700284 
L 510.934879 185.112418 
L 512.267245 196.955132 
L 514.265796 212.330511 
L 516.264346 225.410125 
L 518.262896 236.672439 
L 520.261447 246.471597 
L 522.259997 255.07534 
L 524.258547 262.689837 
L 526.257097 269.476427 
L 528.255648 275.563172 
L 530.254198 281.053018 
L 532.252748 286.029664 
L 534.917482 291.983962 
L 537.582216 297.278356 
L 540.24695 302.016788 
L 542.911683 306.282463 
L 545.576417 310.142769 
L 548.241151 313.65287 
L 550.905884 316.858352 
L 554.236802 320.494138 
L 557.567719 323.774114 
L 560.898636 326.748077 
L 564.229553 329.456941 
L 568.226654 332.405024 
L 572.223754 335.068231 
L 576.220855 337.48595 
L 580.884139 340.039325 
L 585.547423 342.344772 
L 590.87689 344.71987 
L 596.206358 346.85773 
L 602.202009 349.021152 
L 608.863843 351.170065 
L 615.525677 353.0918 
L 622.853695 354.983952 
L 630.847896 356.824369 
L 639.508281 358.596803 
L 649.501032 360.403504 
L 660.159967 362.097455 
L 672.151269 363.766834 
L 685.474937 365.382105 
L 700.130973 366.922884 
L 716.119375 368.376447 
L 734.106328 369.784576 
L 754.091831 371.12463 
L 776.742067 372.417934 
L 802.723221 373.671105 
L 828.704375 374.732308 
L 828.704375 374.732308 
" clip-path="url(#p751ac31437)" style="fill: none; stroke-dasharray: 7.4,3.2; stroke-dashoffset: 0; stroke: #ff6b9d; stroke-width: 2"/>
   </g>
   <g id="text_35">
    <g id="patch_18">
     <path d="M 679.112886 105.800344 
L 768.376011 105.800344 
Q 771.076011 105.800344 771.076011 103.100344 
L 771.076011 84.312 
Q 771.076011 81.612 768.376011 81.612 
L 679.112886 81.612 
Q 676.412886 81.612 676.412886 84.312 
L 676.412886 103.100344 
Q 676.412886 105.800344 679.112886 105.800344 
z
" style="fill: #1a1a2e; opacity: 0.8; stroke: #ffffff; stroke-linejoin: miter"/>
    </g>
    <!-- Max error: 2.88e-10 -->
    <g style="fill: #f39c12" transform="translate(679.112886 91.150594) scale(0.09 -0.09)">
     <defs>
      <path id="DejaVuSans-4d" d="M 628 4666 
L 1569 4666 
L 2759 1491 
L 3956 4666 
L 4897 4666 
L 4897 0 
L 4281 0 
L 4281 4097 
L 3078 897 
L 2444 897 
L 1241 4097 
L 1241 0 
L 628 0 
L 628 4666 
z
" transform="scale(0.015625)"/>
      <path id="DejaVuSans-78" d="M 3513 3500 
L 2247 1797 
L 3578 0 
L 2900 0 
L 1881 1375 
L 863 0 
L 184 0 
L 1544 1831 
L 300 3500 
L 978 3500 
L 1906 2253 
L 2834 3500 
L 3513 3500 
z
" transform="scale(0.015625)"/>
      <path id="DejaVuSans-72" d="M 2631 2963 
Q 2534 3019 2420 3045 
Q 2306 3072 2169 3072 
Q 1681 3072 1420 2755 
Q 1159 2438 1159 1844 
L 1159 0 
L 581 0 
L 581 3500 
L 1159 3500 
L 1159 2956 
Q 1341 3275 1631 3429 
Q 1922 3584 2338 3584 
Q 2397 3584 2469 3576 
Q 2541 3569 2628 3553 
L 2631 2963 
z
" transform="scale(0.015625)"/>
      <path id="DejaVuSans-3a" d="M 750 794 
L 1409 794 
L 1409 0 
L 750 0 
L 750 794 
z
M 750 3309 
L 1409 3309 
L 1409 2516 
L 750 2516 
L 750 3309 
z
" transform="scale(0.015625)"/>
      <path id="DejaVuSans-38" d="M 2034 2216 
Q 1584 2216 1326 1975 
Q 1069 1734 1069 1313 
Q 1069 891 1326 650 
Q 1584 409 2034 409 
Q 2484 409 2743 651 
Q 3003 894 3003 1313 
Q 3003 1734 2745 1975 
Q 2488 2216 2034 2216 
z
M 1403 2484 
Q 997 2584 770 2862 
Q 544 3141 544 3541 
Q 544 4100 942 4425 
Q 1341 4750 2034 4750 
Q 2731 4750 3128 4425 
Q 3525 4100 3525 3541 
Q 3525 3141 3298 2862 
Q 3072 2584 2669 2484 
Q 3125 2378 3379 2068 
Q 3634 1759 3634 1313 
Q 3634 634 3220 271 
Q 2806 -91 2034 -91 
Q 1263 -91 848 271 
Q 434 634 434 1313 
Q 434 1759 690 2068 
Q 947 2378 1403 2484 
z
M 1172 3481 
Q 1172 3119 1398 2916 
Q 1625 2713 2034 2713 
Q 2441 2713 2670 2916 
Q 2900 3119 2900 3481 
Q 2900 3844 2670 4047 
Q 2441 4250 2034 4250 
Q 1625 4250 1398 4047 
Q 1172 3844 1172 3481 
z
" transform="scale(0.015625)"/>
      <path id="DejaVuSans-2d" d="M 313 2009 
L 1997 2009 
L 1997 1497 
L 313 1497 
L 313 2009 
z
" transform="scale(0.015625)"/>
     </defs>
     <use xlink:href="#DejaVuSans-4d"/>
     <use xlink:href="#DejaVuSans-61" transform="translate(86.279297 0)"/>
     <use xlink:href="#DejaVuSans-78" transform="translate(147.558594 0)"/>
     <use xlink:href="#DejaVuSans-20" transform="translate(206.738281 0)"/>
     <use xlink:href="#DejaVuSans-65" transform="translate(238.525391 0)"/>
     <use xlink:href="#DejaVuSans-72" transform="translate(300.048828 0)"/>
     <use xlink:href="#DejaVuSans-72" transform="translate(339.412109 0)"/>
     <use xlink:href="#DejaVuSans-6f" transform="translate(378.275391 0)"/>
     <use xlink:href="#DejaVuSans-72" transform="translate(439.457031 0)"/>
     <use xlink:href="#DejaVuSans-3a" transform="translate(478.820312 0)"/>
     <use xlink:href="#DejaVuSans-20" transform="translate(512.511719 0)"/>
     <use xlink:href="#DejaVuSans-32" transform="translate(544.298828 0)"/>
     <use xlink:href="#DejaVuSans-2e" transform="translate(607.921875 0)"/>
     <use xlink:href="#DejaVuSans-38" transform="translate(639.708984 0)"/>
     <use xlink:href="#DejaVuSans-38" transform="translate(703.332031 0)"/>
     <use xlink:href="#DejaVuSans-65" transform="translate(766.955078 0)"/>
     <use xlink:href="#DejaVuSans-2d" transform="translate(828.478516 0)"/>
     <use xlink:href="#DejaVuSans-31" transform="translate(864.5625 0)"/>
     <use xlink:href="#DejaVuSans-30" transform="translate(928.185547 0)"/>
    </g>
    <!-- (floating-point only) -->
    <g style="fill: #f39c12" transform="translate(679.112886 101.228625) scale(0.09 -0.09)">
     <defs>
      <path id="DejaVuSans-66" d="M 2375 4863 
L 2375 4384 
L 1825 4384 
Q 1516 4384 1395 4259 
Q 1275 4134 1275 3809 
L 1275 3500 
L 2222 3500 
L 2222 3053 
L 1275 3053 
L 1275 0 
L 697 0 
L 697 3053 
L 147 3053 
L 147 3500 
L 697 3500 
L 697 3744 
Q 697 4328 969 4595 
Q 1241 4863 1831 4863 
L 2375 4863 
z
" transform="scale(0.015625)"/>
      <path id="DejaVuSans-69" d="M 603 3500 
L 1178 3500 
L 1178 0 
L 603 0 
L 603 3500 
z
M 603 4863 
L 1178 4863 
L 1178 4134 
L 603 4134 
L 603 4863 
z
" transform="scale(0.015625)"/>
      <path id="DejaVuSans-79" d="M 2059 -325 
Q 1816 -950 1584 -1140 
Q 1353 -1331 966 -1331 
L 506 -1331 
L 506 -850 
L 844 -850 
Q 1081 -850 1212 -737 
Q 1344 -625 1503 -206 
L 1606 56 
L 191 3500 
L 800 3500 
L 1894 763 
L 2988 3500 
L 3597 3500 
L 2059 -325 
z
" transform="scale(0.015625)"/>
     </defs>
     <use xlink:href="#DejaVuSans-28"/>
     <use xlink:href="#DejaVuSans-66" transform="translate(39.013672 0)"/>
     <use xlink:href="#DejaVuSans-6c" transform="translate(74.21875 0)"/>
     <use xlink:href="#DejaVuSans-6f" transform="translate(102.001953 0)"/>
     <use xlink:href="#DejaVuSans-61" transform="translate(163.183594 0)"/>
     <use xlink:href="#DejaVuSans-74" transform="translate(224.462891 0)"/>
     <use xlink:href="#DejaVuSans-69" transform="translate(263.671875 0)"/>
     <use xlink:href="#DejaVuSans-6e" transform="translate(291.455078 0)"/>
     <use xlink:href="#DejaVuSans-67" transform="translate(354.833984 0)"/>
     <use xlink:href="#DejaVuSans-2d" transform="translate(418.310547 0)"/>
     <use xlink:href="#DejaVuSans-70" transform="translate(454.394531 0)"/>
     <use xlink:href="#DejaVuSans-6f" transform="translate(517.871094 0)"/>
     <use xlink:href="#DejaVuSans-69" transform="translate(579.052734 0)"/>
     <use xlink:href="#DejaVuSans-6e" transform="translate(606.835938 0)"/>
     <use xlink:href="#DejaVuSans-74" transform="translate(670.214844 0)"/>
     <use xlink:href="#DejaVuSans-20" transform="translate(709.423828 0)"/>
     <use xlink:href="#DejaVuSans-6f" transform="translate(741.210938 0)"/>
     <use xlink:href="#DejaVuSans-6e" transform="translate(802.392578 0)"/>
     <use xlink:href="#DejaVuSans-6c" transform="translate(865.771484 0)"/>
     <use xlink:href="#DejaVuSans-79" transform="translate(893.554688 0)"/>
     <use xlink:href="#DejaVuSans-29" transform="translate(952.734375 0)"/>
    </g>
   </g>
   <g id="text_36">
    <g id="patch_19">
     <path d="M 506.251609 113.846794 
L 609.211609 113.846794 
Q 613.611609 113.846794 613.611609 109.446794 
L 613.611609 74.226856 
Q 613.611609 69.826856 609.211609 69.826856 
L 506.251609 69.826856 
Q 501.851609 69.826856 501.851609 74.226856 
L 501.851609 109.446794 
Q 501.851609 113.846794 506.251609 113.846794 
z
" style="fill: #1a1a2e; opacity: 0.85; stroke: #ffffff; stroke-linejoin: miter"/>
    </g>
    <!-- $\int_1^e \frac{1}{t}\,dt = 1$ -->
    <g style="fill: #ffd700" transform="translate(506.251609 91.4092) scale(0.11 -0.11)">
     <defs>
      <path id="DejaVuSansDisplay-222b" d="M 2134 5525 
Q 2172 6263 2528 6556 
Q 2884 6850 3218 6850 
Q 3553 6850 3833 6575 
Q 4113 6300 4200 5678 
L 3544 5613 
Q 3469 6188 3219 6188 
Q 2906 6188 2869 5413 
L 2581 -597 
Q 2547 -1334 2187 -1628 
Q 1828 -1922 1497 -1922 
Q 1163 -1922 883 -1647 
Q 603 -1372 516 -750 
L 1172 -684 
Q 1247 -1259 1497 -1259 
Q 1809 -1259 1847 -488 
L 2134 5525 
z
" transform="scale(0.015625)"/>
      <path id="DejaVuSans-Oblique-65" d="M 3078 2063 
Q 3088 2113 3092 2166 
Q 3097 2219 3097 2272 
Q 3097 2653 2873 2875 
Q 2650 3097 2266 3097 
Q 1838 3097 1509 2826 
Q 1181 2556 1013 2059 
L 3078 2063 
z
M 3578 1613 
L 903 1613 
Q 884 1494 878 1425 
Q 872 1356 872 1306 
Q 872 872 1139 634 
Q 1406 397 1894 397 
Q 2269 397 2603 481 
Q 2938 566 3225 728 
L 3116 159 
Q 2806 34 2476 -28 
Q 2147 -91 1806 -91 
Q 1078 -91 686 257 
Q 294 606 294 1247 
Q 294 1794 489 2264 
Q 684 2734 1063 3103 
Q 1306 3334 1642 3459 
Q 1978 3584 2356 3584 
Q 2950 3584 3301 3228 
Q 3653 2872 3653 2272 
Q 3653 2128 3634 1964 
Q 3616 1800 3578 1613 
z
" transform="scale(0.015625)"/>
      <path id="DejaVuSans-Oblique-74" d="M 2706 3500 
L 2619 3053 
L 1472 3053 
L 1100 1153 
Q 1081 1047 1072 975 
Q 1063 903 1063 863 
Q 1063 663 1183 572 
Q 1303 481 1569 481 
L 2150 481 
L 2053 0 
L 1503 0 
Q 991 0 739 200 
Q 488 400 488 806 
Q 488 878 497 964 
Q 506 1050 525 1153 
L 897 3053 
L 409 3053 
L 500 3500 
L 978 3500 
L 1172 4494 
L 1747 4494 
L 1556 3500 
L 2706 3500 
z
" transform="scale(0.015625)"/>
     </defs>
     <use xlink:href="#DejaVuSansDisplay-222b" transform="translate(0 0.64375)"/>
     <use xlink:href="#DejaVuSans-Oblique-65" transform="translate(86.744141 85.8) scale(0.7)"/>
     <use xlink:href="#DejaVuSans-31" transform="translate(71.759766 -51.2625) scale(0.7)"/>
     <use xlink:href="#DejaVuSans-31" transform="translate(129.810547 44.440625) scale(0.7)"/>
     <use xlink:href="#DejaVuSans-Oblique-74" transform="translate(138.810547 -35.9625) scale(0.7)"/>
     <use xlink:href="#DejaVuSans-Oblique-64" transform="translate(203.082356 0.64375)"/>
     <use xlink:href="#DejaVuSans-Oblique-74" transform="translate(266.558918 0.64375)"/>
     <use xlink:href="#DejaVuSans-3d" transform="translate(325.250325 0.64375)"/>
     <use xlink:href="#DejaVuSans-31" transform="translate(428.521809 0.64375)"/>
     <path d="M 129.810547 19.440625 
L 129.810547 25.690625 
L 174.34668 25.690625 
L 174.34668 19.440625 
L 129.810547 19.440625 
z
"/>
    </g>
    <!-- (defines $\ln$ and $e$!) -->
    <g style="fill: #ffd700" transform="translate(506.251609 107.159137) scale(0.11 -0.11)">
     <defs>
      <path id="DejaVuSans-64" d="M 2906 2969 
L 2906 4863 
L 3481 4863 
L 3481 0 
L 2906 0 
L 2906 525 
Q 2725 213 2448 61 
Q 2172 -91 1784 -91 
Q 1150 -91 751 415 
Q 353 922 353 1747 
Q 353 2572 751 3078 
Q 1150 3584 1784 3584 
Q 2172 3584 2448 3432 
Q 2725 3281 2906 2969 
z
M 947 1747 
Q 947 1113 1208 752 
Q 1469 391 1925 391 
Q 2381 391 2643 752 
Q 2906 1113 2906 1747 
Q 2906 2381 2643 2742 
Q 2381 3103 1925 3103 
Q 1469 3103 1208 2742 
Q 947 2381 947 1747 
z
" transform="scale(0.015625)"/>
      <path id="DejaVuSans-21" d="M 966 794 
L 1600 794 
L 1600 0 
L 966 0 
L 966 794 
z
M 966 4666 
L 1600 4666 
L 1600 2619 
L 1538 1503 
L 1031 1503 
L 966 2619 
L 966 4666 
z
" transform="scale(0.015625)"/>
     </defs>
     <use xlink:href="#DejaVuSans-28" transform="translate(0 0.015625)"/>
     <use xlink:href="#DejaVuSans-64" transform="translate(39.013672 0.015625)"/>
     <use xlink:href="#DejaVuSans-65" transform="translate(102.490234 0.015625)"/>
     <use xlink:href="#DejaVuSans-66" transform="translate(164.013672 0.015625)"/>
     <use xlink:href="#DejaVuSans-69" transform="translate(199.21875 0.015625)"/>
     <use xlink:href="#DejaVuSans-6e" transform="translate(227.001953 0.015625)"/>
     <use xlink:href="#DejaVuSans-65" transform="translate(290.380859 0.015625)"/>
     <use xlink:href="#DejaVuSans-73" transform="translate(351.904297 0.015625)"/>
     <use xlink:href="#DejaVuSans-20" transform="translate(404.003906 0.015625)"/>
     <use xlink:href="#DejaVuSans-6c" transform="translate(435.791016 0.015625)"/>
     <use xlink:href="#DejaVuSans-6e" transform="translate(463.574219 0.015625)"/>
     <use xlink:href="#DejaVuSans-20" transform="translate(543.188801 0.015625)"/>
     <use xlink:href="#DejaVuSans-61" transform="translate(574.975911 0.015625)"/>
     <use xlink:href="#DejaVuSans-6e" transform="translate(636.255208 0.015625)"/>
     <use xlink:href="#DejaVuSans-64" transform="translate(699.634114 0.015625)"/>
     <use xlink:href="#DejaVuSans-20" transform="translate(763.110676 0.015625)"/>
     <use xlink:href="#DejaVuSans-Oblique-65" transform="translate(794.897786 0.015625)"/>
     <use xlink:href="#DejaVuSans-21" transform="translate(856.421223 0.015625)"/>
     <use xlink:href="#DejaVuSans-29" transform="translate(896.509114 0.015625)"/>
    </g>
   </g>
   <g id="text_37">
    <!-- $1/x$ = Derivative of $\ln x$ (Confirmed Numerically) -->
    <g style="fill: #eaeaea" transform="translate(470.011609 57.68) scale(0.16 -0.16)">
     <defs>
      <path id="DejaVuSans-44" d="M 1259 4147 
L 1259 519 
L 2022 519 
Q 2988 519 3436 956 
Q 3884 1394 3884 2338 
Q 3884 3275 3436 3711 
Q 2988 4147 2022 4147 
L 1259 4147 
z
M 628 4666 
L 1925 4666 
Q 3281 4666 3915 4102 
Q 4550 3538 4550 2338 
Q 4550 1131 3912 565 
Q 3275 0 1925 0 
L 628 0 
L 628 4666 
z
" transform="scale(0.015625)"/>
      <path id="DejaVuSans-76" d="M 191 3500 
L 800 3500 
L 1894 563 
L 2988 3500 
L 3597 3500 
L 2284 0 
L 1503 0 
L 191 3500 
z
" transform="scale(0.015625)"/>
      <path id="DejaVuSans-43" d="M 4122 4306 
L 4122 3641 
Q 3803 3938 3442 4084 
Q 3081 4231 2675 4231 
Q 1875 4231 1450 3742 
Q 1025 3253 1025 2328 
Q 1025 1406 1450 917 
Q 1875 428 2675 428 
Q 3081 428 3442 575 
Q 3803 722 4122 1019 
L 4122 359 
Q 3791 134 3420 21 
Q 3050 -91 2638 -91 
Q 1578 -91 968 557 
Q 359 1206 359 2328 
Q 359 3453 968 4101 
Q 1578 4750 2638 4750 
Q 3056 4750 3426 4639 
Q 3797 4528 4122 4306 
z
" transform="scale(0.015625)"/>
      <path id="DejaVuSans-6d" d="M 3328 2828 
Q 3544 3216 3844 3400 
Q 4144 3584 4550 3584 
Q 5097 3584 5394 3201 
Q 5691 2819 5691 2113 
L 5691 0 
L 5113 0 
L 5113 2094 
Q 5113 2597 4934 2840 
Q 4756 3084 4391 3084 
Q 3944 3084 3684 2787 
Q 3425 2491 3425 1978 
L 3425 0 
L 2847 0 
L 2847 2094 
Q 2847 2600 2669 2842 
Q 2491 3084 2119 3084 
Q 1678 3084 1418 2786 
Q 1159 2488 1159 1978 
L 1159 0 
L 581 0 
L 581 3500 
L 1159 3500 
L 1159 2956 
Q 1356 3278 1631 3431 
Q 1906 3584 2284 3584 
Q 2666 3584 2933 3390 
Q 3200 3197 3328 2828 
z
" transform="scale(0.015625)"/>
      <path id="DejaVuSans-4e" d="M 628 4666 
L 1478 4666 
L 3547 763 
L 3547 4666 
L 4159 4666 
L 4159 0 
L 3309 0 
L 1241 3903 
L 1241 0 
L 628 0 
L 628 4666 
z
" transform="scale(0.015625)"/>
      <path id="DejaVuSans-63" d="M 3122 3366 
L 3122 2828 
Q 2878 2963 2633 3030 
Q 2388 3097 2138 3097 
Q 1578 3097 1268 2742 
Q 959 2388 959 1747 
Q 959 1106 1268 751 
Q 1578 397 2138 397 
Q 2388 397 2633 464 
Q 2878 531 3122 666 
L 3122 134 
Q 2881 22 2623 -34 
Q 2366 -91 2075 -91 
Q 1284 -91 818 406 
Q 353 903 353 1747 
Q 353 2603 823 3093 
Q 1294 3584 2113 3584 
Q 2378 3584 2631 3529 
Q 2884 3475 3122 3366 
z
" transform="scale(0.015625)"/>
     </defs>
     <use xlink:href="#DejaVuSans-31" transform="translate(0 0.015625)"/>
     <use xlink:href="#DejaVuSans-2f" transform="translate(63.623047 0.015625)"/>
     <use xlink:href="#DejaVuSans-Oblique-78" transform="translate(97.314453 0.015625)"/>
     <use xlink:href="#DejaVuSans-20" transform="translate(156.494141 0.015625)"/>
     <use xlink:href="#DejaVuSans-3d" transform="translate(188.28125 0.015625)"/>
     <use xlink:href="#DejaVuSans-20" transform="translate(272.070312 0.015625)"/>
     <use xlink:href="#DejaVuSans-44" transform="translate(303.857422 0.015625)"/>
     <use xlink:href="#DejaVuSans-65" transform="translate(380.859375 0.015625)"/>
     <use xlink:href="#DejaVuSans-72" transform="translate(442.382812 0.015625)"/>
     <use xlink:href="#DejaVuSans-69" transform="translate(483.496094 0.015625)"/>
     <use xlink:href="#DejaVuSans-76" transform="translate(511.279297 0.015625)"/>
     <use xlink:href="#DejaVuSans-61" transform="translate(570.458984 0.015625)"/>
     <use xlink:href="#DejaVuSans-74" transform="translate(631.738281 0.015625)"/>
     <use xlink:href="#DejaVuSans-69" transform="translate(670.947266 0.015625)"/>
     <use xlink:href="#DejaVuSans-76" transform="translate(698.730469 0.015625)"/>
     <use xlink:href="#DejaVuSans-65" transform="translate(757.910156 0.015625)"/>
     <use xlink:href="#DejaVuSans-20" transform="translate(819.433594 0.015625)"/>
     <use xlink:href="#DejaVuSans-6f" transform="translate(851.220703 0.015625)"/>
     <use xlink:href="#DejaVuSans-66" transform="translate(912.402344 0.015625)"/>
     <use xlink:href="#DejaVuSans-20" transform="translate(947.607422 0.015625)"/>
     <use xlink:href="#DejaVuSans-6c" transform="translate(979.394531 0.015625)"/>
     <use xlink:href="#DejaVuSans-6e" transform="translate(1007.177734 0.015625)"/>
     <use xlink:href="#DejaVuSans-Oblique-78" transform="translate(1086.792317 0.015625)"/>
     <use xlink:href="#DejaVuSans-20" transform="translate(1145.972004 0.015625)"/>
     <use xlink:href="#DejaVuSans-28" transform="translate(1177.759114 0.015625)"/>
     <use xlink:href="#DejaVuSans-43" transform="translate(1216.772786 0.015625)"/>
     <use xlink:href="#DejaVuSans-6f" transform="translate(1286.597004 0.015625)"/>
     <use xlink:href="#DejaVuSans-6e" transform="translate(1347.778645 0.015625)"/>
     <use xlink:href="#DejaVuSans-66" transform="translate(1411.157551 0.015625)"/>
     <use xlink:href="#DejaVuSans-69" transform="translate(1446.362629 0.015625)"/>
     <use xlink:href="#DejaVuSans-72" transform="translate(1474.145833 0.015625)"/>
     <use xlink:href="#DejaVuSans-6d" transform="translate(1515.259114 0.015625)"/>
     <use xlink:href="#DejaVuSans-65" transform="translate(1612.671223 0.015625)"/>
     <use xlink:href="#DejaVuSans-64" transform="translate(1674.194661 0.015625)"/>
     <use xlink:href="#DejaVuSans-20" transform="translate(1737.671223 0.015625)"/>
     <use xlink:href="#DejaVuSans-4e" transform="translate(1769.458333 0.015625)"/>
     <use xlink:href="#DejaVuSans-75" transform="translate(1844.26302 0.015625)"/>
     <use xlink:href="#DejaVuSans-6d" transform="translate(1907.641926 0.015625)"/>
     <use xlink:href="#DejaVuSans-65" transform="translate(2005.054036 0.015625)"/>
     <use xlink:href="#DejaVuSans-72" transform="translate(2066.577473 0.015625)"/>
     <use xlink:href="#DejaVuSans-69" transform="translate(2107.690754 0.015625)"/>
     <use xlink:href="#DejaVuSans-63" transform="translate(2135.473958 0.015625)"/>
     <use xlink:href="#DejaVuSans-61" transform="translate(2190.454426 0.015625)"/>
     <use xlink:href="#DejaVuSans-6c" transform="translate(2251.733723 0.015625)"/>
     <use xlink:href="#DejaVuSans-6c" transform="translate(2279.516926 0.015625)"/>
     <use xlink:href="#DejaVuSans-79" transform="translate(2307.300129 0.015625)"/>
     <use xlink:href="#DejaVuSans-29" transform="translate(2366.479817 0.015625)"/>
    </g>
   </g>
   <g id="line2d_61">
    <path d="M 500.674202 -1 
L 501.608311 29.269744 
L 502.940677 64.769368 
L 504.273044 93.867956 
L 505.605411 118.153612 
L 506.937778 138.729224 
L 508.270145 156.384618 
L 509.602512 171.700284 
L 510.934879 185.112418 
L 512.267245 196.955132 
L 514.265796 212.330511 
L 516.264346 225.410125 
L 518.262896 236.672439 
L 520.261447 246.471597 
L 522.259997 255.07534 
L 524.258547 262.689837 
L 526.257097 269.476427 
L 528.255648 275.563172 
L 530.254198 281.053018 
L 532.252748 286.029664 
L 534.917482 291.983962 
L 537.582216 297.278356 
L 540.24695 302.016788 
L 542.911683 306.282463 
L 545.576417 310.142769 
L 548.241151 313.65287 
L 550.905884 316.858352 
L 554.236802 320.494138 
L 557.567719 323.774114 
L 560.898636 326.748077 
L 564.229553 329.456941 
L 568.226654 332.405024 
L 572.223754 335.068231 
L 576.220855 337.48595 
L 580.884139 340.039325 
L 585.547423 342.344772 
L 590.87689 344.71987 
L 596.206358 346.85773 
L 602.202009 349.021152 
L 608.863843 351.170065 
L 615.525677 353.0918 
L 622.853695 354.983952 
L 630.847896 356.824369 
L 639.508281 358.596803 
L 649.501032 360.403504 
L 660.159967 362.097455 
L 672.151269 363.766834 
L 685.474937 365.382105 
L 700.130973 366.922884 
L 716.119375 368.376447 
L 734.106328 369.784576 
L 754.091831 371.12463 
L 776.742067 372.417934 
L 802.723221 373.671105 
L 828.704375 374.732308 
L 828.704375 374.732308 
" clip-path="url(#p751ac31437)" style="fill: none; stroke: #4a90d9; stroke-width: 3; stroke-linecap: square"/>
   </g>
   <g id="legend_2">
    <g id="patch_20">
     <path d="M 652.664375 256.006875 
L 820.304375 256.006875 
Q 822.704375 256.006875 822.704375 253.606875 
L 822.704375 214.393125 
Q 822.704375 211.993125 820.304375 211.993125 
L 652.664375 211.993125 
Q 650.264375 211.993125 650.264375 214.393125 
L 650.264375 253.606875 
Q 650.264375 256.006875 652.664375 256.006875 
z
" style="fill: #16213e; opacity: 0.8; stroke: #2a2a4a; stroke-linejoin: miter"/>
    </g>
    <g id="line2d_62">
     <path d="M 655.064375 221.71125 
L 667.064375 221.71125 
L 679.064375 221.71125 
" style="fill: none; stroke: #4a90d9; stroke-width: 3; stroke-linecap: square"/>
    </g>
    <g id="text_38">
     <!-- $1/x$ (exact derivative) -->
     <g style="fill: #eaeaea" transform="translate(688.664375 225.91125) scale(0.12 -0.12)">
      <use xlink:href="#DejaVuSans-31" transform="translate(0 0.015625)"/>
      <use xlink:href="#DejaVuSans-2f" transform="translate(63.623047 0.015625)"/>
      <use xlink:href="#DejaVuSans-Oblique-78" transform="translate(97.314453 0.015625)"/>
      <use xlink:href="#DejaVuSans-20" transform="translate(156.494141 0.015625)"/>
      <use xlink:href="#DejaVuSans-28" transform="translate(188.28125 0.015625)"/>
      <use xlink:href="#DejaVuSans-65" transform="translate(227.294922 0.015625)"/>
      <use xlink:href="#DejaVuSans-78" transform="translate(288.818359 0.015625)"/>
      <use xlink:href="#DejaVuSans-61" transform="translate(347.998047 0.015625)"/>
      <use xlink:href="#DejaVuSans-63" transform="translate(409.277344 0.015625)"/>
      <use xlink:href="#DejaVuSans-74" transform="translate(464.257812 0.015625)"/>
      <use xlink:href="#DejaVuSans-20" transform="translate(503.466797 0.015625)"/>
      <use xlink:href="#DejaVuSans-64" transform="translate(535.253906 0.015625)"/>
      <use xlink:href="#DejaVuSans-65" transform="translate(598.730469 0.015625)"/>
      <use xlink:href="#DejaVuSans-72" transform="translate(660.253906 0.015625)"/>
      <use xlink:href="#DejaVuSans-69" transform="translate(701.367188 0.015625)"/>
      <use xlink:href="#DejaVuSans-76" transform="translate(729.150391 0.015625)"/>
      <use xlink:href="#DejaVuSans-61" transform="translate(788.330078 0.015625)"/>
      <use xlink:href="#DejaVuSans-74" transform="translate(849.609375 0.015625)"/>
      <use xlink:href="#DejaVuSans-69" transform="translate(888.818359 0.015625)"/>
      <use xlink:href="#DejaVuSans-76" transform="translate(916.601562 0.015625)"/>
      <use xlink:href="#DejaVuSans-65" transform="translate(975.78125 0.015625)"/>
      <use xlink:href="#DejaVuSans-29" transform="translate(1037.304688 0.015625)"/>
     </g>
    </g>
    <g id="line2d_63">
     <path d="M 655.064375 241.966875 
L 667.064375 241.966875 
L 679.064375 241.966875 
" style="fill: none; stroke-dasharray: 7.4,3.2; stroke-dashoffset: 0; stroke: #ff6b9d; stroke-width: 2"/>
    </g>
    <g id="text_39">
     <!-- Numerical $\frac{d}{dx}\ln x$ -->
     <g style="fill: #eaeaea" transform="translate(688.664375 246.166875) scale(0.12 -0.12)">
      <use xlink:href="#DejaVuSans-4e" transform="translate(0 0.01875)"/>
      <use xlink:href="#DejaVuSans-75" transform="translate(74.804688 0.01875)"/>
      <use xlink:href="#DejaVuSans-6d" transform="translate(138.183594 0.01875)"/>
      <use xlink:href="#DejaVuSans-65" transform="translate(235.595703 0.01875)"/>
      <use xlink:href="#DejaVuSans-72" transform="translate(297.119141 0.01875)"/>
      <use xlink:href="#DejaVuSans-69" transform="translate(338.232422 0.01875)"/>
      <use xlink:href="#DejaVuSans-63" transform="translate(366.015625 0.01875)"/>
      <use xlink:href="#DejaVuSans-61" transform="translate(420.996094 0.01875)"/>
      <use xlink:href="#DejaVuSans-6c" transform="translate(482.275391 0.01875)"/>
      <use xlink:href="#DejaVuSans-20" transform="translate(510.058594 0.01875)"/>
      <use xlink:href="#DejaVuSans-Oblique-64" transform="translate(562.845703 44.810938) scale(0.7)"/>
      <use xlink:href="#DejaVuSans-Oblique-64" transform="translate(541.845703 -40.623437) scale(0.7)"/>
      <use xlink:href="#DejaVuSans-Oblique-78" transform="translate(586.279297 -40.623437) scale(0.7)"/>
      <use xlink:href="#DejaVuSans-6c" transform="translate(640.205078 0.01875)"/>
      <use xlink:href="#DejaVuSans-6e" transform="translate(667.988281 0.01875)"/>
      <use xlink:href="#DejaVuSans-Oblique-78" transform="translate(747.602864 0.01875)"/>
      <path d="M 541.845703 18.815625 
L 541.845703 25.065625 
L 627.705078 25.065625 
L 627.705078 18.815625 
L 541.845703 18.815625 
z
"/>
     </g>
    </g>
   </g>
  </g>
  <g id="text_40">
   <!-- $\frac{d}{dx}\ln x = \frac{1}{x}$ — The Natural Logarithm Derivative -->
   <g style="fill: #ffd700" transform="translate(212.324375 23.86) scale(0.17 -0.17)">
    <defs>
     <path id="DejaVuSans-Bold-20" transform="scale(0.015625)"/>
     <path id="DejaVuSans-Bold-54" d="M 31 4666 
L 4331 4666 
L 4331 3756 
L 2784 3756 
L 2784 0 
L 1581 0 
L 1581 3756 
L 31 3756 
L 31 4666 
z
" transform="scale(0.015625)"/>
     <path id="DejaVuSans-Bold-68" d="M 4056 2131 
L 4056 0 
L 2931 0 
L 2931 347 
L 2931 1625 
Q 2931 2084 2911 2256 
Q 2891 2428 2841 2509 
Q 2775 2619 2662 2680 
Q 2550 2741 2406 2741 
Q 2056 2741 1856 2470 
Q 1656 2200 1656 1722 
L 1656 0 
L 538 0 
L 538 4863 
L 1656 4863 
L 1656 2988 
Q 1909 3294 2193 3439 
Q 2478 3584 2822 3584 
Q 3428 3584 3742 3212 
Q 4056 2841 4056 2131 
z
" transform="scale(0.015625)"/>
     <path id="DejaVuSans-Bold-65" d="M 4031 1759 
L 4031 1441 
L 1416 1441 
Q 1456 1047 1700 850 
Q 1944 653 2381 653 
Q 2734 653 3104 758 
Q 3475 863 3866 1075 
L 3866 213 
Q 3469 63 3072 -14 
Q 2675 -91 2278 -91 
Q 1328 -91 801 392 
Q 275 875 275 1747 
Q 275 2603 792 3093 
Q 1309 3584 2216 3584 
Q 3041 3584 3536 3087 
Q 4031 2591 4031 1759 
z
M 2881 2131 
Q 2881 2450 2695 2645 
Q 2509 2841 2209 2841 
Q 1884 2841 1681 2658 
Q 1478 2475 1428 2131 
L 2881 2131 
z
" transform="scale(0.015625)"/>
     <path id="DejaVuSans-Bold-4e" d="M 588 4666 
L 1931 4666 
L 3628 1466 
L 3628 4666 
L 4769 4666 
L 4769 0 
L 3425 0 
L 1728 3200 
L 1728 0 
L 588 0 
L 588 4666 
z
" transform="scale(0.015625)"/>
     <path id="DejaVuSans-Bold-61" d="M 2106 1575 
Q 1756 1575 1579 1456 
Q 1403 1338 1403 1106 
Q 1403 894 1545 773 
Q 1688 653 1941 653 
Q 2256 653 2472 879 
Q 2688 1106 2688 1447 
L 2688 1575 
L 2106 1575 
z
M 3816 1997 
L 3816 0 
L 2688 0 
L 2688 519 
Q 2463 200 2181 54 
Q 1900 -91 1497 -91 
Q 953 -91 614 226 
Q 275 544 275 1050 
Q 275 1666 698 1953 
Q 1122 2241 2028 2241 
L 2688 2241 
L 2688 2328 
Q 2688 2594 2478 2717 
Q 2269 2841 1825 2841 
Q 1466 2841 1156 2769 
Q 847 2697 581 2553 
L 581 3406 
Q 941 3494 1303 3539 
Q 1666 3584 2028 3584 
Q 2975 3584 3395 3211 
Q 3816 2838 3816 1997 
z
" transform="scale(0.015625)"/>
     <path id="DejaVuSans-Bold-74" d="M 1759 4494 
L 1759 3500 
L 2913 3500 
L 2913 2700 
L 1759 2700 
L 1759 1216 
Q 1759 972 1856 886 
Q 1953 800 2241 800 
L 2816 800 
L 2816 0 
L 1856 0 
Q 1194 0 917 276 
Q 641 553 641 1216 
L 641 2700 
L 84 2700 
L 84 3500 
L 641 3500 
L 641 4494 
L 1759 4494 
z
" transform="scale(0.015625)"/>
     <path id="DejaVuSans-Bold-75" d="M 500 1363 
L 500 3500 
L 1625 3500 
L 1625 3150 
Q 1625 2866 1622 2436 
Q 1619 2006 1619 1863 
Q 1619 1441 1641 1255 
Q 1663 1069 1716 984 
Q 1784 875 1895 815 
Q 2006 756 2150 756 
Q 2500 756 2700 1025 
Q 2900 1294 2900 1772 
L 2900 3500 
L 4019 3500 
L 4019 0 
L 2900 0 
L 2900 506 
Q 2647 200 2364 54 
Q 2081 -91 1741 -91 
Q 1134 -91 817 281 
Q 500 653 500 1363 
z
" transform="scale(0.015625)"/>
     <path id="DejaVuSans-Bold-72" d="M 3138 2547 
Q 2991 2616 2845 2648 
Q 2700 2681 2553 2681 
Q 2122 2681 1889 2404 
Q 1656 2128 1656 1613 
L 1656 0 
L 538 0 
L 538 3500 
L 1656 3500 
L 1656 2925 
Q 1872 3269 2151 3426 
Q 2431 3584 2822 3584 
Q 2878 3584 2943 3579 
Q 3009 3575 3134 3559 
L 3138 2547 
z
" transform="scale(0.015625)"/>
     <path id="DejaVuSans-Bold-6c" d="M 538 4863 
L 1656 4863 
L 1656 0 
L 538 0 
L 538 4863 
z
" transform="scale(0.015625)"/>
     <path id="DejaVuSans-Bold-4c" d="M 588 4666 
L 1791 4666 
L 1791 909 
L 3903 909 
L 3903 0 
L 588 0 
L 588 4666 
z
" transform="scale(0.015625)"/>
     <path id="DejaVuSans-Bold-6f" d="M 2203 2784 
Q 1831 2784 1636 2517 
Q 1441 2250 1441 1747 
Q 1441 1244 1636 976 
Q 1831 709 2203 709 
Q 2569 709 2762 976 
Q 2956 1244 2956 1747 
Q 2956 2250 2762 2517 
Q 2569 2784 2203 2784 
z
M 2203 3584 
Q 3106 3584 3614 3096 
Q 4122 2609 4122 1747 
Q 4122 884 3614 396 
Q 3106 -91 2203 -91 
Q 1297 -91 786 396 
Q 275 884 275 1747 
Q 275 2609 786 3096 
Q 1297 3584 2203 3584 
z
" transform="scale(0.015625)"/>
     <path id="DejaVuSans-Bold-67" d="M 2919 594 
Q 2688 288 2409 144 
Q 2131 0 1766 0 
Q 1125 0 706 504 
Q 288 1009 288 1791 
Q 288 2575 706 3076 
Q 1125 3578 1766 3578 
Q 2131 3578 2409 3434 
Q 2688 3291 2919 2981 
L 2919 3500 
L 4044 3500 
L 4044 353 
Q 4044 -491 3511 -936 
Q 2978 -1381 1966 -1381 
Q 1638 -1381 1331 -1331 
Q 1025 -1281 716 -1178 
L 716 -306 
Q 1009 -475 1290 -558 
Q 1572 -641 1856 -641 
Q 2406 -641 2662 -400 
Q 2919 -159 2919 353 
L 2919 594 
z
M 2181 2772 
Q 1834 2772 1640 2515 
Q 1447 2259 1447 1791 
Q 1447 1309 1634 1061 
Q 1822 813 2181 813 
Q 2531 813 2725 1069 
Q 2919 1325 2919 1791 
Q 2919 2259 2725 2515 
Q 2531 2772 2181 2772 
z
" transform="scale(0.015625)"/>
     <path id="DejaVuSans-Bold-69" d="M 538 3500 
L 1656 3500 
L 1656 0 
L 538 0 
L 538 3500 
z
M 538 4863 
L 1656 4863 
L 1656 3950 
L 538 3950 
L 538 4863 
z
" transform="scale(0.015625)"/>
     <path id="DejaVuSans-Bold-6d" d="M 3781 2919 
Q 3994 3244 4286 3414 
Q 4578 3584 4928 3584 
Q 5531 3584 5847 3212 
Q 6163 2841 6163 2131 
L 6163 0 
L 5038 0 
L 5038 1825 
Q 5041 1866 5042 1909 
Q 5044 1953 5044 2034 
Q 5044 2406 4934 2573 
Q 4825 2741 4581 2741 
Q 4263 2741 4089 2478 
Q 3916 2216 3909 1719 
L 3909 0 
L 2784 0 
L 2784 1825 
Q 2784 2406 2684 2573 
Q 2584 2741 2328 2741 
Q 2006 2741 1831 2477 
Q 1656 2213 1656 1722 
L 1656 0 
L 531 0 
L 531 3500 
L 1656 3500 
L 1656 2988 
Q 1863 3284 2130 3434 
Q 2397 3584 2719 3584 
Q 3081 3584 3359 3409 
Q 3638 3234 3781 2919 
z
" transform="scale(0.015625)"/>
     <path id="DejaVuSans-Bold-44" d="M 1791 3756 
L 1791 909 
L 2222 909 
Q 2959 909 3348 1275 
Q 3738 1641 3738 2338 
Q 3738 3031 3350 3393 
Q 2963 3756 2222 3756 
L 1791 3756 
z
M 588 4666 
L 1856 4666 
Q 2919 4666 3439 4514 
Q 3959 4363 4331 4000 
Q 4659 3684 4818 3271 
Q 4978 2859 4978 2338 
Q 4978 1809 4818 1395 
Q 4659 981 4331 666 
Q 3956 303 3431 151 
Q 2906 0 1856 0 
L 588 0 
L 588 4666 
z
" transform="scale(0.015625)"/>
     <path id="DejaVuSans-Bold-76" d="M 97 3500 
L 1216 3500 
L 2088 1081 
L 2956 3500 
L 4078 3500 
L 2700 0 
L 1472 0 
L 97 3500 
z
" transform="scale(0.015625)"/>
    </defs>
    <use xlink:href="#DejaVuSans-Oblique-64" transform="translate(21 44.810938) scale(0.7)"/>
    <use xlink:href="#DejaVuSans-Oblique-64" transform="translate(0 -40.623437) scale(0.7)"/>
    <use xlink:href="#DejaVuSans-Oblique-78" transform="translate(44.433594 -40.623437) scale(0.7)"/>
    <use xlink:href="#DejaVuSans-6c" transform="translate(98.359375 0.01875)"/>
    <use xlink:href="#DejaVuSans-6e" transform="translate(126.142578 0.01875)"/>
    <use xlink:href="#DejaVuSans-Oblique-78" transform="translate(205.757161 0.01875)"/>
    <use xlink:href="#DejaVuSans-3d" transform="translate(284.41927 0.01875)"/>
    <use xlink:href="#DejaVuSans-31" transform="translate(387.690754 43.815625) scale(0.7)"/>
    <use xlink:href="#DejaVuSans-Oblique-78" transform="translate(389.690754 -25.715625) scale(0.7)"/>
    <use xlink:href="#DejaVuSans-Bold-20" transform="translate(444.726887 0.01875)"/>
    <use xlink:href="#DejaVuSansDisplay-2014" transform="translate(479.54134 0.01875)"/>
    <use xlink:href="#DejaVuSans-Bold-20" transform="translate(579.54134 0.01875)"/>
    <use xlink:href="#DejaVuSans-Bold-54" transform="translate(614.355793 0.01875)"/>
    <use xlink:href="#DejaVuSans-Bold-68" transform="translate(682.568684 0.01875)"/>
    <use xlink:href="#DejaVuSans-Bold-65" transform="translate(753.76009 0.01875)"/>
    <use xlink:href="#DejaVuSans-Bold-20" transform="translate(821.582356 0.01875)"/>
    <use xlink:href="#DejaVuSans-Bold-4e" transform="translate(856.396809 0.01875)"/>
    <use xlink:href="#DejaVuSans-Bold-61" transform="translate(940.088215 0.01875)"/>
    <use xlink:href="#DejaVuSans-Bold-74" transform="translate(1007.568684 0.01875)"/>
    <use xlink:href="#DejaVuSans-Bold-75" transform="translate(1055.371418 0.01875)"/>
    <use xlink:href="#DejaVuSans-Bold-72" transform="translate(1126.562825 0.01875)"/>
    <use xlink:href="#DejaVuSans-Bold-61" transform="translate(1175.879231 0.01875)"/>
    <use xlink:href="#DejaVuSans-Bold-6c" transform="translate(1243.3597 0.01875)"/>
    <use xlink:href="#DejaVuSans-Bold-20" transform="translate(1277.637043 0.01875)"/>
    <use xlink:href="#DejaVuSans-Bold-4c" transform="translate(1312.451497 0.01875)"/>
    <use xlink:href="#DejaVuSans-Bold-6f" transform="translate(1376.1722 0.01875)"/>
    <use xlink:href="#DejaVuSans-Bold-67" transform="translate(1444.873372 0.01875)"/>
    <use xlink:href="#DejaVuSans-Bold-61" transform="translate(1516.455403 0.01875)"/>
    <use xlink:href="#DejaVuSans-Bold-72" transform="translate(1583.935872 0.01875)"/>
    <use xlink:href="#DejaVuSans-Bold-69" transform="translate(1633.252278 0.01875)"/>
    <use xlink:href="#DejaVuSans-Bold-74" transform="translate(1667.529622 0.01875)"/>
    <use xlink:href="#DejaVuSans-Bold-68" transform="translate(1715.332356 0.01875)"/>
    <use xlink:href="#DejaVuSans-Bold-6d" transform="translate(1786.523762 0.01875)"/>
    <use xlink:href="#DejaVuSans-Bold-20" transform="translate(1890.722981 0.01875)"/>
    <use xlink:href="#DejaVuSans-Bold-44" transform="translate(1925.537434 0.01875)"/>
    <use xlink:href="#DejaVuSans-Bold-65" transform="translate(2008.545247 0.01875)"/>
    <use xlink:href="#DejaVuSans-Bold-72" transform="translate(2076.367512 0.01875)"/>
    <use xlink:href="#DejaVuSans-Bold-69" transform="translate(2125.683918 0.01875)"/>
    <use xlink:href="#DejaVuSans-Bold-76" transform="translate(2159.961262 0.01875)"/>
    <use xlink:href="#DejaVuSans-Bold-61" transform="translate(2225.146809 0.01875)"/>
    <use xlink:href="#DejaVuSans-Bold-74" transform="translate(2292.627278 0.01875)"/>
    <use xlink:href="#DejaVuSans-Bold-69" transform="translate(2340.430012 0.01875)"/>
    <use xlink:href="#DejaVuSans-Bold-76" transform="translate(2374.707356 0.01875)"/>
    <use xlink:href="#DejaVuSans-Bold-65" transform="translate(2439.892903 0.01875)"/>
    <path d="M 0 18.815625 
L 0 25.065625 
L 85.859375 25.065625 
L 85.859375 18.815625 
L 0 18.815625 
z
"/>
    <path d="M 387.690754 18.815625 
L 387.690754 25.065625 
L 432.226887 25.065625 
L 432.226887 18.815625 
L 387.690754 18.815625 
z
"/>
   </g>
  </g>
 </g>
 <defs>
  <clipPath id="p09ac525467">
   <rect x="47.504375" y="67.68" width="332.425532" height="332.64"/>
  </clipPath>
  <clipPath id="p751ac31437">
   <rect x="496.278843" y="67.68" width="332.425532" height="332.64"/>
  </clipPath>
 </defs>
</svg>
