<?xml version="1.0" encoding="utf-8" standalone="no"?>
<!DOCTYPE svg PUBLIC "-//W3C//DTD SVG 1.1//EN"
  "http://www.w3.org/Graphics/SVG/1.1/DTD/svg11.dtd">
<svg xmlns:xlink="http://www.w3.org/1999/xlink" width="970.227568pt" height="675.995312pt" viewBox="0 0 970.227568 675.995312" xmlns="http://www.w3.org/2000/svg" version="1.1">
 <metadata>
  <rdf:RDF xmlns:dc="http://purl.org/dc/elements/1.1/" xmlns:cc="http://creativecommons.org/ns#" xmlns:rdf="http://www.w3.org/1999/02/22-rdf-syntax-ns#">
   <cc:Work>
    <dc:type rdf:resource="http://purl.org/dc/dcmitype/StillImage"/>
    <dc:date>2026-03-18T22:55:58.054207</dc:date>
    <dc:format>image/svg+xml</dc:format>
    <dc:creator>
     <cc:Agent>
      <dc:title>Matplotlib v3.10.7, https://matplotlib.org/</dc:title>
     </cc:Agent>
    </dc:creator>
   </cc:Work>
  </rdf:RDF>
 </metadata>
 <defs>
  <style type="text/css">*{stroke-linejoin: round; stroke-linecap: butt}</style>
 </defs>
 <g id="figure_1">
  <g id="patch_1">
   <path d="M 0 675.995312 
L 970.227568 675.995312 
L 970.227568 0 
L 0 0 
z
" style="fill: #1a1a2e"/>
  </g>
  <g id="axes_1">
   <g id="patch_2">
    <path d="M 46.051563 633.6 
L 425.966456 633.6 
L 425.966456 79.2 
L 46.051563 79.2 
z
" style="fill: #16213e"/>
   </g>
   <g id="matplotlib.axis_1">
    <g id="xtick_1">
     <g id="line2d_1">
      <path d="M 46.051563 633.6 
L 46.051563 79.2 
" clip-path="url(#p63ee7fd13c)" style="fill: none; stroke: #2a2a4a; stroke-opacity: 0.25; stroke-width: 0.8; stroke-linecap: square"/>
     </g>
     <g id="line2d_2">
      <defs>
       <path id="m5b9c64c2df" d="M 0 0 
L 0 3.5 
" style="stroke: #eaeaea; stroke-width: 0.8"/>
      </defs>
      <g>
       <use xlink:href="#m5b9c64c2df" x="46.051563" y="633.6" style="fill: #eaeaea; stroke: #eaeaea; stroke-width: 0.8"/>
      </g>
     </g>
     <g id="text_1">
      <!-- −6 -->
      <g style="fill: #eaeaea" transform="translate(37.20625 649.718125) scale(0.12 -0.12)">
       <defs>
        <path id="DejaVuSans-2212" d="M 678 2272 
L 4684 2272 
L 4684 1741 
L 678 1741 
L 678 2272 
z
" transform="scale(0.015625)"/>
        <path id="DejaVuSans-36" d="M 2113 2584 
Q 1688 2584 1439 2293 
Q 1191 2003 1191 1497 
Q 1191 994 1439 701 
Q 1688 409 2113 409 
Q 2538 409 2786 701 
Q 3034 994 3034 1497 
Q 3034 2003 2786 2293 
Q 2538 2584 2113 2584 
z
M 3366 4563 
L 3366 3988 
Q 3128 4100 2886 4159 
Q 2644 4219 2406 4219 
Q 1781 4219 1451 3797 
Q 1122 3375 1075 2522 
Q 1259 2794 1537 2939 
Q 1816 3084 2150 3084 
Q 2853 3084 3261 2657 
Q 3669 2231 3669 1497 
Q 3669 778 3244 343 
Q 2819 -91 2113 -91 
Q 1303 -91 875 529 
Q 447 1150 447 2328 
Q 447 3434 972 4092 
Q 1497 4750 2381 4750 
Q 2619 4750 2861 4703 
Q 3103 4656 3366 4563 
z
" transform="scale(0.015625)"/>
       </defs>
       <use xlink:href="#DejaVuSans-2212"/>
       <use xlink:href="#DejaVuSans-36" transform="translate(83.789062 0)"/>
      </g>
     </g>
    </g>
    <g id="xtick_2">
     <g id="line2d_3">
      <path d="M 109.370711 633.6 
L 109.370711 79.2 
" clip-path="url(#p63ee7fd13c)" style="fill: none; stroke: #2a2a4a; stroke-opacity: 0.25; stroke-width: 0.8; stroke-linecap: square"/>
     </g>
     <g id="line2d_4">
      <g>
       <use xlink:href="#m5b9c64c2df" x="109.370711" y="633.6" style="fill: #eaeaea; stroke: #eaeaea; stroke-width: 0.8"/>
      </g>
     </g>
     <g id="text_2">
      <!-- −4 -->
      <g style="fill: #eaeaea" transform="translate(100.525399 649.718125) scale(0.12 -0.12)">
       <defs>
        <path id="DejaVuSans-34" d="M 2419 4116 
L 825 1625 
L 2419 1625 
L 2419 4116 
z
M 2253 4666 
L 3047 4666 
L 3047 1625 
L 3713 1625 
L 3713 1100 
L 3047 1100 
L 3047 0 
L 2419 0 
L 2419 1100 
L 313 1100 
L 313 1709 
L 2253 4666 
z
" transform="scale(0.015625)"/>
       </defs>
       <use xlink:href="#DejaVuSans-2212"/>
       <use xlink:href="#DejaVuSans-34" transform="translate(83.789062 0)"/>
      </g>
     </g>
    </g>
    <g id="xtick_3">
     <g id="line2d_5">
      <path d="M 172.68986 633.6 
L 172.68986 79.2 
" clip-path="url(#p63ee7fd13c)" style="fill: none; stroke: #2a2a4a; stroke-opacity: 0.25; stroke-width: 0.8; stroke-linecap: square"/>
     </g>
     <g id="line2d_6">
      <g>
       <use xlink:href="#m5b9c64c2df" x="172.68986" y="633.6" style="fill: #eaeaea; stroke: #eaeaea; stroke-width: 0.8"/>
      </g>
     </g>
     <g id="text_3">
      <!-- −2 -->
      <g style="fill: #eaeaea" transform="translate(163.844548 649.718125) scale(0.12 -0.12)">
       <defs>
        <path id="DejaVuSans-32" d="M 1228 531 
L 3431 531 
L 3431 0 
L 469 0 
L 469 531 
Q 828 903 1448 1529 
Q 2069 2156 2228 2338 
Q 2531 2678 2651 2914 
Q 2772 3150 2772 3378 
Q 2772 3750 2511 3984 
Q 2250 4219 1831 4219 
Q 1534 4219 1204 4116 
Q 875 4013 500 3803 
L 500 4441 
Q 881 4594 1212 4672 
Q 1544 4750 1819 4750 
Q 2544 4750 2975 4387 
Q 3406 4025 3406 3419 
Q 3406 3131 3298 2873 
Q 3191 2616 2906 2266 
Q 2828 2175 2409 1742 
Q 1991 1309 1228 531 
z
" transform="scale(0.015625)"/>
       </defs>
       <use xlink:href="#DejaVuSans-2212"/>
       <use xlink:href="#DejaVuSans-32" transform="translate(83.789062 0)"/>
      </g>
     </g>
    </g>
    <g id="xtick_4">
     <g id="line2d_7">
      <path d="M 236.009009 633.6 
L 236.009009 79.2 
" clip-path="url(#p63ee7fd13c)" style="fill: none; stroke: #2a2a4a; stroke-opacity: 0.25; stroke-width: 0.8; stroke-linecap: square"/>
     </g>
     <g id="line2d_8">
      <g>
       <use xlink:href="#m5b9c64c2df" x="236.009009" y="633.6" style="fill: #eaeaea; stroke: #eaeaea; stroke-width: 0.8"/>
      </g>
     </g>
     <g id="text_4">
      <!-- 0 -->
      <g style="fill: #eaeaea" transform="translate(232.191509 649.718125) scale(0.12 -0.12)">
       <defs>
        <path id="DejaVuSans-30" d="M 2034 4250 
Q 1547 4250 1301 3770 
Q 1056 3291 1056 2328 
Q 1056 1369 1301 889 
Q 1547 409 2034 409 
Q 2525 409 2770 889 
Q 3016 1369 3016 2328 
Q 3016 3291 2770 3770 
Q 2525 4250 2034 4250 
z
M 2034 4750 
Q 2819 4750 3233 4129 
Q 3647 3509 3647 2328 
Q 3647 1150 3233 529 
Q 2819 -91 2034 -91 
Q 1250 -91 836 529 
Q 422 1150 422 2328 
Q 422 3509 836 4129 
Q 1250 4750 2034 4750 
z
" transform="scale(0.015625)"/>
       </defs>
       <use xlink:href="#DejaVuSans-30"/>
      </g>
     </g>
    </g>
    <g id="xtick_5">
     <g id="line2d_9">
      <path d="M 299.328158 633.6 
L 299.328158 79.2 
" clip-path="url(#p63ee7fd13c)" style="fill: none; stroke: #2a2a4a; stroke-opacity: 0.25; stroke-width: 0.8; stroke-linecap: square"/>
     </g>
     <g id="line2d_10">
      <g>
       <use xlink:href="#m5b9c64c2df" x="299.328158" y="633.6" style="fill: #eaeaea; stroke: #eaeaea; stroke-width: 0.8"/>
      </g>
     </g>
     <g id="text_5">
      <!-- 2 -->
      <g style="fill: #eaeaea" transform="translate(295.510658 649.718125) scale(0.12 -0.12)">
       <use xlink:href="#DejaVuSans-32"/>
      </g>
     </g>
    </g>
    <g id="xtick_6">
     <g id="line2d_11">
      <path d="M 362.647307 633.6 
L 362.647307 79.2 
" clip-path="url(#p63ee7fd13c)" style="fill: none; stroke: #2a2a4a; stroke-opacity: 0.25; stroke-width: 0.8; stroke-linecap: square"/>
     </g>
     <g id="line2d_12">
      <g>
       <use xlink:href="#m5b9c64c2df" x="362.647307" y="633.6" style="fill: #eaeaea; stroke: #eaeaea; stroke-width: 0.8"/>
      </g>
     </g>
     <g id="text_6">
      <!-- 4 -->
      <g style="fill: #eaeaea" transform="translate(358.829807 649.718125) scale(0.12 -0.12)">
       <use xlink:href="#DejaVuSans-34"/>
      </g>
     </g>
    </g>
    <g id="xtick_7">
     <g id="line2d_13">
      <path d="M 425.966456 633.6 
L 425.966456 79.2 
" clip-path="url(#p63ee7fd13c)" style="fill: none; stroke: #2a2a4a; stroke-opacity: 0.25; stroke-width: 0.8; stroke-linecap: square"/>
     </g>
     <g id="line2d_14">
      <g>
       <use xlink:href="#m5b9c64c2df" x="425.966456" y="633.6" style="fill: #eaeaea; stroke: #eaeaea; stroke-width: 0.8"/>
      </g>
     </g>
     <g id="text_7">
      <!-- 6 -->
      <g style="fill: #eaeaea" transform="translate(422.148956 649.718125) scale(0.12 -0.12)">
       <use xlink:href="#DejaVuSans-36"/>
      </g>
     </g>
    </g>
    <g id="text_8">
     <!-- x -->
     <g style="fill: #eaeaea" transform="translate(232.161822 666.091719) scale(0.13 -0.13)">
      <defs>
       <path id="DejaVuSans-78" d="M 3513 3500 
L 2247 1797 
L 3578 0 
L 2900 0 
L 1881 1375 
L 863 0 
L 184 0 
L 1544 1831 
L 300 3500 
L 978 3500 
L 1906 2253 
L 2834 3500 
L 3513 3500 
z
" transform="scale(0.015625)"/>
      </defs>
      <use xlink:href="#DejaVuSans-78"/>
     </g>
    </g>
   </g>
   <g id="matplotlib.axis_2">
    <g id="ytick_1">
     <g id="line2d_15">
      <path d="M 46.051563 633.6 
L 425.966456 633.6 
" clip-path="url(#p63ee7fd13c)" style="fill: none; stroke: #2a2a4a; stroke-opacity: 0.25; stroke-width: 0.8; stroke-linecap: square"/>
     </g>
     <g id="line2d_16">
      <defs>
       <path id="mf60be09395" d="M 0 0 
L -3.5 0 
" style="stroke: #eaeaea; stroke-width: 0.8"/>
      </defs>
      <g>
       <use xlink:href="#mf60be09395" x="46.051563" y="633.6" style="fill: #eaeaea; stroke: #eaeaea; stroke-width: 0.8"/>
      </g>
     </g>
     <g id="text_9">
      <!-- 0 -->
      <g style="fill: #eaeaea" transform="translate(31.416563 638.159062) scale(0.12 -0.12)">
       <use xlink:href="#DejaVuSans-30"/>
      </g>
     </g>
    </g>
    <g id="ytick_2">
     <g id="line2d_17">
      <path d="M 46.051563 554.4 
L 425.966456 554.4 
" clip-path="url(#p63ee7fd13c)" style="fill: none; stroke: #2a2a4a; stroke-opacity: 0.25; stroke-width: 0.8; stroke-linecap: square"/>
     </g>
     <g id="line2d_18">
      <g>
       <use xlink:href="#mf60be09395" x="46.051563" y="554.4" style="fill: #eaeaea; stroke: #eaeaea; stroke-width: 0.8"/>
      </g>
     </g>
     <g id="text_10">
      <!-- 2 -->
      <g style="fill: #eaeaea" transform="translate(31.416563 558.959062) scale(0.12 -0.12)">
       <use xlink:href="#DejaVuSans-32"/>
      </g>
     </g>
    </g>
    <g id="ytick_3">
     <g id="line2d_19">
      <path d="M 46.051563 475.2 
L 425.966456 475.2 
" clip-path="url(#p63ee7fd13c)" style="fill: none; stroke: #2a2a4a; stroke-opacity: 0.25; stroke-width: 0.8; stroke-linecap: square"/>
     </g>
     <g id="line2d_20">
      <g>
       <use xlink:href="#mf60be09395" x="46.051563" y="475.2" style="fill: #eaeaea; stroke: #eaeaea; stroke-width: 0.8"/>
      </g>
     </g>
     <g id="text_11">
      <!-- 4 -->
      <g style="fill: #eaeaea" transform="translate(31.416563 479.759063) scale(0.12 -0.12)">
       <use xlink:href="#DejaVuSans-34"/>
      </g>
     </g>
    </g>
    <g id="ytick_4">
     <g id="line2d_21">
      <path d="M 46.051563 396 
L 425.966456 396 
" clip-path="url(#p63ee7fd13c)" style="fill: none; stroke: #2a2a4a; stroke-opacity: 0.25; stroke-width: 0.8; stroke-linecap: square"/>
     </g>
     <g id="line2d_22">
      <g>
       <use xlink:href="#mf60be09395" x="46.051563" y="396" style="fill: #eaeaea; stroke: #eaeaea; stroke-width: 0.8"/>
      </g>
     </g>
     <g id="text_12">
      <!-- 6 -->
      <g style="fill: #eaeaea" transform="translate(31.416563 400.559062) scale(0.12 -0.12)">
       <use xlink:href="#DejaVuSans-36"/>
      </g>
     </g>
    </g>
    <g id="ytick_5">
     <g id="line2d_23">
      <path d="M 46.051563 316.8 
L 425.966456 316.8 
" clip-path="url(#p63ee7fd13c)" style="fill: none; stroke: #2a2a4a; stroke-opacity: 0.25; stroke-width: 0.8; stroke-linecap: square"/>
     </g>
     <g id="line2d_24">
      <g>
       <use xlink:href="#mf60be09395" x="46.051563" y="316.8" style="fill: #eaeaea; stroke: #eaeaea; stroke-width: 0.8"/>
      </g>
     </g>
     <g id="text_13">
      <!-- 8 -->
      <g style="fill: #eaeaea" transform="translate(31.416563 321.359062) scale(0.12 -0.12)">
       <defs>
        <path id="DejaVuSans-38" d="M 2034 2216 
Q 1584 2216 1326 1975 
Q 1069 1734 1069 1313 
Q 1069 891 1326 650 
Q 1584 409 2034 409 
Q 2484 409 2743 651 
Q 3003 894 3003 1313 
Q 3003 1734 2745 1975 
Q 2488 2216 2034 2216 
z
M 1403 2484 
Q 997 2584 770 2862 
Q 544 3141 544 3541 
Q 544 4100 942 4425 
Q 1341 4750 2034 4750 
Q 2731 4750 3128 4425 
Q 3525 4100 3525 3541 
Q 3525 3141 3298 2862 
Q 3072 2584 2669 2484 
Q 3125 2378 3379 2068 
Q 3634 1759 3634 1313 
Q 3634 634 3220 271 
Q 2806 -91 2034 -91 
Q 1263 -91 848 271 
Q 434 634 434 1313 
Q 434 1759 690 2068 
Q 947 2378 1403 2484 
z
M 1172 3481 
Q 1172 3119 1398 2916 
Q 1625 2713 2034 2713 
Q 2441 2713 2670 2916 
Q 2900 3119 2900 3481 
Q 2900 3844 2670 4047 
Q 2441 4250 2034 4250 
Q 1625 4250 1398 4047 
Q 1172 3844 1172 3481 
z
" transform="scale(0.015625)"/>
       </defs>
       <use xlink:href="#DejaVuSans-38"/>
      </g>
     </g>
    </g>
    <g id="ytick_6">
     <g id="line2d_25">
      <path d="M 46.051563 237.6 
L 425.966456 237.6 
" clip-path="url(#p63ee7fd13c)" style="fill: none; stroke: #2a2a4a; stroke-opacity: 0.25; stroke-width: 0.8; stroke-linecap: square"/>
     </g>
     <g id="line2d_26">
      <g>
       <use xlink:href="#mf60be09395" x="46.051563" y="237.6" style="fill: #eaeaea; stroke: #eaeaea; stroke-width: 0.8"/>
      </g>
     </g>
     <g id="text_14">
      <!-- 10 -->
      <g style="fill: #eaeaea" transform="translate(23.781563 242.159063) scale(0.12 -0.12)">
       <defs>
        <path id="DejaVuSans-31" d="M 794 531 
L 1825 531 
L 1825 4091 
L 703 3866 
L 703 4441 
L 1819 4666 
L 2450 4666 
L 2450 531 
L 3481 531 
L 3481 0 
L 794 0 
L 794 531 
z
" transform="scale(0.015625)"/>
       </defs>
       <use xlink:href="#DejaVuSans-31"/>
       <use xlink:href="#DejaVuSans-30" transform="translate(63.623047 0)"/>
      </g>
     </g>
    </g>
    <g id="ytick_7">
     <g id="line2d_27">
      <path d="M 46.051563 158.4 
L 425.966456 158.4 
" clip-path="url(#p63ee7fd13c)" style="fill: none; stroke: #2a2a4a; stroke-opacity: 0.25; stroke-width: 0.8; stroke-linecap: square"/>
     </g>
     <g id="line2d_28">
      <g>
       <use xlink:href="#mf60be09395" x="46.051563" y="158.4" style="fill: #eaeaea; stroke: #eaeaea; stroke-width: 0.8"/>
      </g>
     </g>
     <g id="text_15">
      <!-- 12 -->
      <g style="fill: #eaeaea" transform="translate(23.781563 162.959062) scale(0.12 -0.12)">
       <use xlink:href="#DejaVuSans-31"/>
       <use xlink:href="#DejaVuSans-32" transform="translate(63.623047 0)"/>
      </g>
     </g>
    </g>
    <g id="ytick_8">
     <g id="line2d_29">
      <path d="M 46.051563 79.2 
L 425.966456 79.2 
" clip-path="url(#p63ee7fd13c)" style="fill: none; stroke: #2a2a4a; stroke-opacity: 0.25; stroke-width: 0.8; stroke-linecap: square"/>
     </g>
     <g id="line2d_30">
      <g>
       <use xlink:href="#mf60be09395" x="46.051563" y="79.2" style="fill: #eaeaea; stroke: #eaeaea; stroke-width: 0.8"/>
      </g>
     </g>
     <g id="text_16">
      <!-- 14 -->
      <g style="fill: #eaeaea" transform="translate(23.781563 83.759063) scale(0.12 -0.12)">
       <use xlink:href="#DejaVuSans-31"/>
       <use xlink:href="#DejaVuSans-34" transform="translate(63.623047 0)"/>
      </g>
     </g>
    </g>
    <g id="text_17">
     <!-- y -->
     <g style="fill: #eaeaea" transform="translate(17.077969 360.247187) rotate(-90) scale(0.13 -0.13)">
      <defs>
       <path id="DejaVuSans-79" d="M 2059 -325 
Q 1816 -950 1584 -1140 
Q 1353 -1331 966 -1331 
L 506 -1331 
L 506 -850 
L 844 -850 
Q 1081 -850 1212 -737 
Q 1344 -625 1503 -206 
L 1606 56 
L 191 3500 
L 800 3500 
L 1894 763 
L 2988 3500 
L 3597 3500 
L 2059 -325 
z
" transform="scale(0.015625)"/>
      </defs>
      <use xlink:href="#DejaVuSans-79"/>
     </g>
    </g>
   </g>
   <g id="line2d_31">
    <path d="M 171.548975 52.5149 
L 173.450451 118.245022 
L 175.351927 176.530224 
L 177.253403 228.212503 
L 179.154879 274.038473 
L 181.056355 314.670145 
L 182.95783 350.694493 
L 184.859306 382.63193 
L 186.760782 410.943833 
L 188.662258 436.039199 
L 190.563734 458.280563 
L 192.46521 477.989227 
L 194.366686 495.449906 
L 196.268162 510.914842 
L 198.169638 524.607443 
L 200.071114 536.725515 
L 201.97259 547.44412 
L 203.874066 556.918099 
L 205.775542 565.284316 
L 207.677018 572.663631 
L 209.578494 579.162646 
L 211.47997 584.875249 
L 213.381446 589.883965 
L 215.282922 594.26115 
L 217.184397 598.070037 
L 219.085873 601.365652 
L 220.987349 604.195603 
L 222.888825 606.600772 
L 224.790301 608.615905 
L 226.691777 610.270113 
L 228.593253 611.587292 
L 230.494729 612.586472 
L 232.396205 613.282085 
L 233.917386 613.626905 
L 235.438567 613.787143 
L 236.959747 613.764278 
L 238.480928 613.5581 
L 240.002109 613.166704 
L 241.52329 612.586472 
L 243.04447 611.812042 
L 244.945946 610.559834 
L 246.847422 608.974783 
L 248.748898 607.033992 
L 250.650374 604.709423 
L 252.55185 601.967494 
L 254.453326 598.768597 
L 256.354802 595.066517 
L 258.256278 590.807775 
L 260.157754 585.930849 
L 262.05923 580.365284 
L 263.960706 574.030679 
L 265.862182 566.835525 
L 267.763658 558.675877 
L 269.665134 549.43386 
L 271.566609 538.975963 
L 273.468085 527.151107 
L 275.369561 513.788469 
L 277.271037 498.69501 
L 279.172513 481.652687 
L 281.073989 462.415302 
L 282.975465 440.704948 
L 284.876941 416.207994 
L 286.778417 388.570551 
L 288.679893 357.393363 
L 290.581369 322.226039 
L 292.482845 282.560545 
L 294.384321 237.823863 
L 296.285797 187.36972 
L 298.187273 130.469245 
L 300.088749 66.300442 
L 300.469044 52.5149 
L 300.469044 52.5149 
" clip-path="url(#p63ee7fd13c)" style="fill: none; stroke: #00d2ff; stroke-width: 2.5; stroke-linecap: square"/>
   </g>
   <g id="line2d_32">
    <path d="M 128.575618 43.552357 
L 131.237685 91.025377 
L 133.899751 134.660061 
L 136.561817 174.765094 
L 139.223884 211.624191 
L 141.88595 245.498105 
L 144.548016 276.62647 
L 147.210083 305.229498 
L 149.872149 331.509534 
L 152.534215 355.652491 
L 155.196282 377.829165 
L 157.858348 398.196439 
L 160.520414 416.898397 
L 163.182481 434.067343 
L 165.844547 449.824736 
L 168.506613 464.282047 
L 171.16868 477.541553 
L 173.830746 489.697054 
L 176.492812 500.834542 
L 179.154879 511.032808 
L 181.816945 520.363997 
L 184.479011 528.894121 
L 187.141078 536.683523 
L 189.803144 543.78731 
L 192.46521 550.255734 
L 195.127277 556.134557 
L 197.789343 561.465365 
L 200.451409 566.285872 
L 203.113475 570.630178 
L 205.775542 574.529016 
L 208.437608 578.009969 
L 211.099674 581.097662 
L 213.761741 583.813937 
L 216.423807 586.17801 
L 219.085873 588.206606 
L 221.367645 589.689331 
L 223.649416 590.943868 
L 225.931187 591.976736 
L 228.212958 592.793304 
L 230.494729 593.397814 
L 232.7765 593.793409 
L 235.058271 593.982143 
L 237.340042 593.964998 
L 239.621814 593.741884 
L 241.903585 593.311642 
L 244.185356 592.672036 
L 246.467127 591.819743 
L 248.748898 590.750334 
L 251.030669 589.45825 
L 253.31244 587.936778 
L 255.594212 586.17801 
L 257.875983 584.172808 
L 260.538049 581.507965 
L 263.200115 578.474607 
L 265.862182 575.051275 
L 268.524248 571.213752 
L 271.186314 566.93489 
L 273.848381 562.184419 
L 276.510447 556.928732 
L 279.172513 551.130651 
L 281.83458 544.749156 
L 284.496646 537.739104 
L 287.158712 530.050903 
L 289.820779 521.630164 
L 292.482845 512.417318 
L 295.144911 502.347189 
L 297.806977 491.348538 
L 300.469044 479.343558 
L 303.13111 466.247321 
L 305.793176 451.967182 
L 308.455243 436.402117 
L 311.117309 419.442015 
L 313.779375 400.966896 
L 316.441442 380.84606 
L 319.103508 358.937168 
L 321.765574 335.085228 
L 324.427641 309.121505 
L 327.089707 280.862324 
L 329.751773 250.107771 
L 332.41384 216.640279 
L 335.075906 180.223088 
L 337.737972 140.598574 
L 340.400039 97.48642 
L 343.062105 50.581638 
L 343.4424 43.552357 
L 343.4424 43.552357 
" clip-path="url(#p63ee7fd13c)" style="fill: none; stroke: #ffd700; stroke-width: 2.5; stroke-linecap: square"/>
   </g>
   <g id="line2d_33">
    <path d="M 65.066322 41.877408 
L 68.869274 76.050149 
L 72.672226 108.211085 
L 76.475178 138.476263 
L 80.278129 166.954888 
L 84.081081 193.74972 
L 87.884033 218.957443 
L 91.686985 242.669012 
L 95.489937 264.969987 
L 99.292889 285.940836 
L 103.095841 305.657229 
L 106.898793 324.190307 
L 110.701745 341.606943 
L 114.504696 357.969982 
L 118.307648 373.338467 
L 122.1106 387.767851 
L 125.913552 401.3102 
L 129.716504 414.014379 
L 133.519456 425.926229 
L 137.322408 437.08873 
L 141.12536 447.54216 
L 144.928312 457.324239 
L 148.731263 466.470263 
L 152.534215 475.013233 
L 156.337167 482.983975 
L 160.140119 490.411251 
L 163.943071 497.321859 
L 167.746023 503.740735 
L 171.548975 509.691041 
L 175.351927 515.194246 
L 179.154879 520.270209 
L 182.577535 524.488451 
L 186.000192 528.387809 
L 189.422849 531.979679 
L 192.845505 535.274558 
L 196.268162 538.282076 
L 199.690819 541.011023 
L 203.113475 543.469373 
L 206.536132 545.664312 
L 209.958789 547.602254 
L 213.381446 549.288863 
L 216.804102 550.729069 
L 220.226759 551.92708 
L 223.649416 552.886397 
L 227.072072 553.609825 
L 230.494729 554.099477 
L 233.917386 554.356785 
L 237.340042 554.382501 
L 240.762699 554.176699 
L 244.185356 553.738778 
L 247.608013 553.067459 
L 251.030669 552.16078 
L 254.453326 551.01609 
L 257.875983 549.630044 
L 261.298639 547.998591 
L 264.721296 546.116964 
L 268.143953 543.979663 
L 271.566609 541.580442 
L 274.989266 538.91229 
L 278.411923 535.967407 
L 281.83458 532.737188 
L 285.257236 529.212192 
L 288.679893 525.382117 
L 292.10255 521.23577 
L 295.525206 516.761033 
L 298.947863 511.944827 
L 302.37052 506.773078 
L 305.793176 501.230671 
L 309.215833 495.301408 
L 312.63849 488.967959 
L 316.441442 481.434196 
L 320.244394 473.351373 
L 324.047346 464.690326 
L 327.850297 455.419803 
L 331.653249 445.506354 
L 335.456201 434.914206 
L 339.259153 423.605142 
L 343.062105 411.538355 
L 346.865057 398.670303 
L 350.668009 384.954556 
L 354.470961 370.341622 
L 358.273913 354.778775 
L 362.076864 338.209858 
L 365.879816 320.575087 
L 369.682768 301.810829 
L 373.48572 281.849378 
L 377.288672 260.618706 
L 381.091624 238.042208 
L 384.894576 214.038421 
L 388.697528 188.520732 
L 392.50048 161.397065 
L 396.303431 132.569551 
L 400.106383 101.934171 
L 403.909335 69.380383 
L 406.951697 41.877408 
L 406.951697 41.877408 
" clip-path="url(#p63ee7fd13c)" style="fill: none; stroke: #2ecc71; stroke-width: 2.5; stroke-linecap: square"/>
   </g>
   <g id="line2d_34">
    <path d="M 46.051563 186.651152 
L 50.615105 206.845614 
L 55.178647 226.054675 
L 59.742189 244.32269 
L 64.305732 261.691841 
L 68.869274 278.202234 
L 73.432816 293.891992 
L 77.996358 308.797344 
L 82.559901 322.952708 
L 87.123443 336.390769 
L 91.686985 349.142556 
L 96.250527 361.237514 
L 100.81407 372.703571 
L 105.377612 383.567203 
L 109.941154 393.853494 
L 114.504696 403.586197 
L 119.068239 412.787784 
L 123.631781 421.479502 
L 128.195323 429.681422 
L 132.758866 437.412482 
L 137.322408 444.690533 
L 141.88595 451.532381 
L 146.449492 457.953824 
L 151.013035 463.96969 
L 155.576577 469.593869 
L 160.140119 474.839349 
L 164.323366 479.325388 
L 168.506613 483.512104 
L 172.68986 487.407621 
L 176.873107 491.019497 
L 181.056355 494.354739 
L 185.239602 497.419819 
L 189.422849 500.220684 
L 193.606096 502.762767 
L 197.789343 505.051001 
L 201.97259 507.089825 
L 206.155837 508.883195 
L 210.339084 510.43459 
L 214.522331 511.747021 
L 218.705578 512.823034 
L 222.888825 513.664717 
L 227.072072 514.273702 
L 231.255319 514.651171 
L 235.438567 514.797857 
L 239.621814 514.714044 
L 243.805061 514.39957 
L 247.988308 513.853823 
L 252.171555 513.075747 
L 256.354802 512.06383 
L 260.538049 510.816109 
L 264.721296 509.330165 
L 268.904543 507.603113 
L 273.08779 505.631603 
L 277.271037 503.41181 
L 281.454284 500.939427 
L 285.637531 498.209657 
L 289.820779 495.217204 
L 294.004026 491.956261 
L 298.187273 488.420503 
L 302.37052 484.603069 
L 306.553767 480.496552 
L 310.737014 476.092985 
L 314.920261 471.383824 
L 319.103508 466.359933 
L 323.286755 461.011565 
L 327.470002 455.328341 
L 332.033544 448.733586 
L 336.597087 441.711964 
L 341.160629 434.247261 
L 345.724171 426.32224 
L 350.287714 417.918603 
L 354.851256 409.016945 
L 359.414798 399.596711 
L 363.97834 389.63615 
L 368.541883 379.112261 
L 373.105425 368.000746 
L 377.668967 356.275946 
L 382.232509 343.910789 
L 386.796052 330.876722 
L 391.359594 317.143649 
L 395.923136 302.67986 
L 400.486678 287.451957 
L 405.050221 271.424777 
L 409.613763 254.561313 
L 414.177305 236.822627 
L 418.740848 218.167758 
L 423.30439 198.553632 
L 425.966456 186.651152 
L 425.966456 186.651152 
" clip-path="url(#p63ee7fd13c)" style="fill: none; stroke: #ff6b9d; stroke-width: 2.5; stroke-linecap: square"/>
   </g>
   <g id="line2d_35">
    <path d="M 68.488979 39.644282 
L 74.573702 79.18393 
L 80.658425 117.260839 
L 86.743148 153.87501 
L 92.447576 186.872332 
L 98.152003 218.584044 
L 103.856431 249.010145 
L 109.180564 276.247934 
L 114.504696 302.365814 
L 119.828829 327.363785 
L 125.152962 351.241847 
L 130.096799 372.411558 
L 135.040637 392.615632 
L 139.984474 411.85407 
L 144.548016 428.755556 
L 149.111559 444.83425 
L 153.675101 460.090155 
L 158.238643 474.523269 
L 162.42189 487.030825 
L 166.605137 498.847009 
L 170.788384 509.97182 
L 174.591336 519.485334 
L 178.394288 528.427465 
L 182.19724 536.798214 
L 186.000192 544.597581 
L 189.422849 551.12848 
L 192.845505 557.196559 
L 196.268162 562.801818 
L 199.690819 567.944258 
L 202.73318 572.126775 
L 205.775542 575.943608 
L 208.817903 579.394757 
L 211.860265 582.480221 
L 214.522331 584.880026 
L 217.184397 586.999854 
L 219.846464 588.839705 
L 222.50853 590.399578 
L 225.170596 591.679474 
L 227.832663 592.679393 
L 230.114434 593.313627 
L 232.396205 593.742164 
L 234.677976 593.965003 
L 236.959747 593.982144 
L 239.241518 593.793588 
L 241.52329 593.399334 
L 243.805061 592.799383 
L 246.086832 591.993734 
L 248.368603 590.982388 
L 251.030669 589.542505 
L 253.692736 587.822644 
L 256.354802 585.822807 
L 259.016868 583.542992 
L 261.678935 580.983199 
L 264.341001 578.14343 
L 267.383362 574.55515 
L 270.425724 570.601185 
L 273.468085 566.281536 
L 276.510447 561.596202 
L 279.933104 555.888093 
L 283.35576 549.717166 
L 286.778417 543.083419 
L 290.201074 535.986852 
L 294.004026 527.558964 
L 297.806977 518.559695 
L 301.609929 508.989043 
L 305.412881 498.847009 
L 309.596128 487.030825 
L 313.779375 474.523269 
L 317.962622 461.324341 
L 322.526165 446.137002 
L 327.089707 430.126873 
L 331.653249 413.293953 
L 336.216792 395.638244 
L 341.160629 375.582729 
L 346.104466 354.561578 
L 351.048304 332.574791 
L 355.992141 309.622368 
L 361.316274 283.824462 
L 366.640407 256.906647 
L 371.964539 228.868923 
L 377.668967 197.585748 
L 383.373395 165.016963 
L 389.077823 131.162568 
L 394.782251 96.022563 
L 400.866974 57.122863 
L 403.52904 39.644282 
L 403.52904 39.644282 
" clip-path="url(#p63ee7fd13c)" style="fill: none; stroke-dasharray: 7.4,3.2; stroke-dashoffset: 0; stroke: #e74c3c; stroke-width: 2"/>
   </g>
   <g id="patch_3">
    <path d="M 46.051563 633.6 
L 46.051563 79.2 
" style="fill: none; stroke: #2a2a4a; stroke-width: 0.8; stroke-linejoin: miter; stroke-linecap: square"/>
   </g>
   <g id="patch_4">
    <path d="M 425.966456 633.6 
L 425.966456 79.2 
" style="fill: none; stroke: #2a2a4a; stroke-width: 0.8; stroke-linejoin: miter; stroke-linecap: square"/>
   </g>
   <g id="patch_5">
    <path d="M 46.051563 633.6 
L 425.966456 633.6 
" style="fill: none; stroke: #2a2a4a; stroke-width: 0.8; stroke-linejoin: miter; stroke-linecap: square"/>
   </g>
   <g id="patch_6">
    <path d="M 46.051563 79.2 
L 425.966456 79.2 
" style="fill: none; stroke: #2a2a4a; stroke-width: 0.8; stroke-linejoin: miter; stroke-linecap: square"/>
   </g>
   <g id="patch_7">
    <path d="M 285.394445 568.315751 
Q 261.589423 580.696205 239.272262 592.302856 
" style="fill: none; stroke: #ffd700; stroke-width: 1.5; stroke-linecap: round"/>
    <path d="M 243.296673 592.238731 
L 239.272262 592.302856 
L 241.635609 589.044852 
" style="fill: none; stroke: #ffd700; stroke-width: 1.5; stroke-linecap: round"/>
   </g>
   <g id="text_18">
    <g id="patch_8">
     <path d="M 283.498371 566.891719 
L 339.275871 566.891719 
Q 341.975871 566.891719 341.975871 564.191719 
L 341.975871 545.403375 
Q 341.975871 542.703375 339.275871 542.703375 
L 283.498371 542.703375 
Q 280.798371 542.703375 280.798371 545.403375 
L 280.798371 564.191719 
Q 280.798371 566.891719 283.498371 566.891719 
z
" style="fill: #1a1a2e; opacity: 0.8; stroke: #ffffff; stroke-linejoin: miter"/>
    </g>
    <!-- Vertex (0, a) -->
    <g style="fill: #ffd700" transform="translate(283.498371 552.241969) scale(0.09 -0.09)">
     <defs>
      <path id="DejaVuSans-56" d="M 1831 0 
L 50 4666 
L 709 4666 
L 2188 738 
L 3669 4666 
L 4325 4666 
L 2547 0 
L 1831 0 
z
" transform="scale(0.015625)"/>
      <path id="DejaVuSans-65" d="M 3597 1894 
L 3597 1613 
L 953 1613 
Q 991 1019 1311 708 
Q 1631 397 2203 397 
Q 2534 397 2845 478 
Q 3156 559 3463 722 
L 3463 178 
Q 3153 47 2828 -22 
Q 2503 -91 2169 -91 
Q 1331 -91 842 396 
Q 353 884 353 1716 
Q 353 2575 817 3079 
Q 1281 3584 2069 3584 
Q 2775 3584 3186 3129 
Q 3597 2675 3597 1894 
z
M 3022 2063 
Q 3016 2534 2758 2815 
Q 2500 3097 2075 3097 
Q 1594 3097 1305 2825 
Q 1016 2553 972 2059 
L 3022 2063 
z
" transform="scale(0.015625)"/>
      <path id="DejaVuSans-72" d="M 2631 2963 
Q 2534 3019 2420 3045 
Q 2306 3072 2169 3072 
Q 1681 3072 1420 2755 
Q 1159 2438 1159 1844 
L 1159 0 
L 581 0 
L 581 3500 
L 1159 3500 
L 1159 2956 
Q 1341 3275 1631 3429 
Q 1922 3584 2338 3584 
Q 2397 3584 2469 3576 
Q 2541 3569 2628 3553 
L 2631 2963 
z
" transform="scale(0.015625)"/>
      <path id="DejaVuSans-74" d="M 1172 4494 
L 1172 3500 
L 2356 3500 
L 2356 3053 
L 1172 3053 
L 1172 1153 
Q 1172 725 1289 603 
Q 1406 481 1766 481 
L 2356 481 
L 2356 0 
L 1766 0 
Q 1100 0 847 248 
Q 594 497 594 1153 
L 594 3053 
L 172 3053 
L 172 3500 
L 594 3500 
L 594 4494 
L 1172 4494 
z
" transform="scale(0.015625)"/>
      <path id="DejaVuSans-20" transform="scale(0.015625)"/>
      <path id="DejaVuSans-28" d="M 1984 4856 
Q 1566 4138 1362 3434 
Q 1159 2731 1159 2009 
Q 1159 1288 1364 580 
Q 1569 -128 1984 -844 
L 1484 -844 
Q 1016 -109 783 600 
Q 550 1309 550 2009 
Q 550 2706 781 3412 
Q 1013 4119 1484 4856 
L 1984 4856 
z
" transform="scale(0.015625)"/>
      <path id="DejaVuSans-2c" d="M 750 794 
L 1409 794 
L 1409 256 
L 897 -744 
L 494 -744 
L 750 256 
L 750 794 
z
" transform="scale(0.015625)"/>
      <path id="DejaVuSans-61" d="M 2194 1759 
Q 1497 1759 1228 1600 
Q 959 1441 959 1056 
Q 959 750 1161 570 
Q 1363 391 1709 391 
Q 2188 391 2477 730 
Q 2766 1069 2766 1631 
L 2766 1759 
L 2194 1759 
z
M 3341 1997 
L 3341 0 
L 2766 0 
L 2766 531 
Q 2569 213 2275 61 
Q 1981 -91 1556 -91 
Q 1019 -91 701 211 
Q 384 513 384 1019 
Q 384 1609 779 1909 
Q 1175 2209 1959 2209 
L 2766 2209 
L 2766 2266 
Q 2766 2663 2505 2880 
Q 2244 3097 1772 3097 
Q 1472 3097 1187 3025 
Q 903 2953 641 2809 
L 641 3341 
Q 956 3463 1253 3523 
Q 1550 3584 1831 3584 
Q 2591 3584 2966 3190 
Q 3341 2797 3341 1997 
z
" transform="scale(0.015625)"/>
      <path id="DejaVuSans-29" d="M 513 4856 
L 1013 4856 
Q 1481 4119 1714 3412 
Q 1947 2706 1947 2009 
Q 1947 1309 1714 600 
Q 1481 -109 1013 -844 
L 513 -844 
Q 928 -128 1133 580 
Q 1338 1288 1338 2009 
Q 1338 2731 1133 3434 
Q 928 4138 513 4856 
z
" transform="scale(0.015625)"/>
     </defs>
     <use xlink:href="#DejaVuSans-56"/>
     <use xlink:href="#DejaVuSans-65" transform="translate(60.658203 0)"/>
     <use xlink:href="#DejaVuSans-72" transform="translate(122.181641 0)"/>
     <use xlink:href="#DejaVuSans-74" transform="translate(163.294922 0)"/>
     <use xlink:href="#DejaVuSans-65" transform="translate(202.503906 0)"/>
     <use xlink:href="#DejaVuSans-78" transform="translate(262.277344 0)"/>
     <use xlink:href="#DejaVuSans-20" transform="translate(321.457031 0)"/>
     <use xlink:href="#DejaVuSans-28" transform="translate(353.244141 0)"/>
     <use xlink:href="#DejaVuSans-30" transform="translate(392.257812 0)"/>
     <use xlink:href="#DejaVuSans-2c" transform="translate(455.880859 0)"/>
     <use xlink:href="#DejaVuSans-20" transform="translate(487.667969 0)"/>
     <use xlink:href="#DejaVuSans-61" transform="translate(519.455078 0)"/>
     <use xlink:href="#DejaVuSans-29" transform="translate(580.734375 0)"/>
    </g>
    <!-- lowest point -->
    <g style="fill: #ffd700" transform="translate(283.498371 562.32) scale(0.09 -0.09)">
     <defs>
      <path id="DejaVuSans-6c" d="M 603 4863 
L 1178 4863 
L 1178 0 
L 603 0 
L 603 4863 
z
" transform="scale(0.015625)"/>
      <path id="DejaVuSans-6f" d="M 1959 3097 
Q 1497 3097 1228 2736 
Q 959 2375 959 1747 
Q 959 1119 1226 758 
Q 1494 397 1959 397 
Q 2419 397 2687 759 
Q 2956 1122 2956 1747 
Q 2956 2369 2687 2733 
Q 2419 3097 1959 3097 
z
M 1959 3584 
Q 2709 3584 3137 3096 
Q 3566 2609 3566 1747 
Q 3566 888 3137 398 
Q 2709 -91 1959 -91 
Q 1206 -91 779 398 
Q 353 888 353 1747 
Q 353 2609 779 3096 
Q 1206 3584 1959 3584 
z
" transform="scale(0.015625)"/>
      <path id="DejaVuSans-77" d="M 269 3500 
L 844 3500 
L 1563 769 
L 2278 3500 
L 2956 3500 
L 3675 769 
L 4391 3500 
L 4966 3500 
L 4050 0 
L 3372 0 
L 2619 2869 
L 1863 0 
L 1184 0 
L 269 3500 
z
" transform="scale(0.015625)"/>
      <path id="DejaVuSans-73" d="M 2834 3397 
L 2834 2853 
Q 2591 2978 2328 3040 
Q 2066 3103 1784 3103 
Q 1356 3103 1142 2972 
Q 928 2841 928 2578 
Q 928 2378 1081 2264 
Q 1234 2150 1697 2047 
L 1894 2003 
Q 2506 1872 2764 1633 
Q 3022 1394 3022 966 
Q 3022 478 2636 193 
Q 2250 -91 1575 -91 
Q 1294 -91 989 -36 
Q 684 19 347 128 
L 347 722 
Q 666 556 975 473 
Q 1284 391 1588 391 
Q 1994 391 2212 530 
Q 2431 669 2431 922 
Q 2431 1156 2273 1281 
Q 2116 1406 1581 1522 
L 1381 1569 
Q 847 1681 609 1914 
Q 372 2147 372 2553 
Q 372 3047 722 3315 
Q 1072 3584 1716 3584 
Q 2034 3584 2315 3537 
Q 2597 3491 2834 3397 
z
" transform="scale(0.015625)"/>
      <path id="DejaVuSans-70" d="M 1159 525 
L 1159 -1331 
L 581 -1331 
L 581 3500 
L 1159 3500 
L 1159 2969 
Q 1341 3281 1617 3432 
Q 1894 3584 2278 3584 
Q 2916 3584 3314 3078 
Q 3713 2572 3713 1747 
Q 3713 922 3314 415 
Q 2916 -91 2278 -91 
Q 1894 -91 1617 61 
Q 1341 213 1159 525 
z
M 3116 1747 
Q 3116 2381 2855 2742 
Q 2594 3103 2138 3103 
Q 1681 3103 1420 2742 
Q 1159 2381 1159 1747 
Q 1159 1113 1420 752 
Q 1681 391 2138 391 
Q 2594 391 2855 752 
Q 3116 1113 3116 1747 
z
" transform="scale(0.015625)"/>
      <path id="DejaVuSans-69" d="M 603 3500 
L 1178 3500 
L 1178 0 
L 603 0 
L 603 3500 
z
M 603 4863 
L 1178 4863 
L 1178 4134 
L 603 4134 
L 603 4863 
z
" transform="scale(0.015625)"/>
      <path id="DejaVuSans-6e" d="M 3513 2113 
L 3513 0 
L 2938 0 
L 2938 2094 
Q 2938 2591 2744 2837 
Q 2550 3084 2163 3084 
Q 1697 3084 1428 2787 
Q 1159 2491 1159 1978 
L 1159 0 
L 581 0 
L 581 3500 
L 1159 3500 
L 1159 2956 
Q 1366 3272 1645 3428 
Q 1925 3584 2291 3584 
Q 2894 3584 3203 3211 
Q 3513 2838 3513 2113 
z
" transform="scale(0.015625)"/>
     </defs>
     <use xlink:href="#DejaVuSans-6c"/>
     <use xlink:href="#DejaVuSans-6f" transform="translate(27.783203 0)"/>
     <use xlink:href="#DejaVuSans-77" transform="translate(88.964844 0)"/>
     <use xlink:href="#DejaVuSans-65" transform="translate(170.751953 0)"/>
     <use xlink:href="#DejaVuSans-73" transform="translate(232.275391 0)"/>
     <use xlink:href="#DejaVuSans-74" transform="translate(284.375 0)"/>
     <use xlink:href="#DejaVuSans-20" transform="translate(323.583984 0)"/>
     <use xlink:href="#DejaVuSans-70" transform="translate(355.371094 0)"/>
     <use xlink:href="#DejaVuSans-6f" transform="translate(418.847656 0)"/>
     <use xlink:href="#DejaVuSans-69" transform="translate(480.029297 0)"/>
     <use xlink:href="#DejaVuSans-6e" transform="translate(507.8125 0)"/>
     <use xlink:href="#DejaVuSans-74" transform="translate(571.191406 0)"/>
    </g>
   </g>
   <g id="text_19">
    <!-- Catenary Curves for Various a -->
    <g style="fill: #eaeaea" transform="translate(131.197134 73.2) scale(0.14 -0.14)">
     <defs>
      <path id="DejaVuSans-43" d="M 4122 4306 
L 4122 3641 
Q 3803 3938 3442 4084 
Q 3081 4231 2675 4231 
Q 1875 4231 1450 3742 
Q 1025 3253 1025 2328 
Q 1025 1406 1450 917 
Q 1875 428 2675 428 
Q 3081 428 3442 575 
Q 3803 722 4122 1019 
L 4122 359 
Q 3791 134 3420 21 
Q 3050 -91 2638 -91 
Q 1578 -91 968 557 
Q 359 1206 359 2328 
Q 359 3453 968 4101 
Q 1578 4750 2638 4750 
Q 3056 4750 3426 4639 
Q 3797 4528 4122 4306 
z
" transform="scale(0.015625)"/>
      <path id="DejaVuSans-75" d="M 544 1381 
L 544 3500 
L 1119 3500 
L 1119 1403 
Q 1119 906 1312 657 
Q 1506 409 1894 409 
Q 2359 409 2629 706 
Q 2900 1003 2900 1516 
L 2900 3500 
L 3475 3500 
L 3475 0 
L 2900 0 
L 2900 538 
Q 2691 219 2414 64 
Q 2138 -91 1772 -91 
Q 1169 -91 856 284 
Q 544 659 544 1381 
z
M 1991 3584 
L 1991 3584 
z
" transform="scale(0.015625)"/>
      <path id="DejaVuSans-76" d="M 191 3500 
L 800 3500 
L 1894 563 
L 2988 3500 
L 3597 3500 
L 2284 0 
L 1503 0 
L 191 3500 
z
" transform="scale(0.015625)"/>
      <path id="DejaVuSans-66" d="M 2375 4863 
L 2375 4384 
L 1825 4384 
Q 1516 4384 1395 4259 
Q 1275 4134 1275 3809 
L 1275 3500 
L 2222 3500 
L 2222 3053 
L 1275 3053 
L 1275 0 
L 697 0 
L 697 3053 
L 147 3053 
L 147 3500 
L 697 3500 
L 697 3744 
Q 697 4328 969 4595 
Q 1241 4863 1831 4863 
L 2375 4863 
z
" transform="scale(0.015625)"/>
     </defs>
     <use xlink:href="#DejaVuSans-43"/>
     <use xlink:href="#DejaVuSans-61" transform="translate(69.824219 0)"/>
     <use xlink:href="#DejaVuSans-74" transform="translate(131.103516 0)"/>
     <use xlink:href="#DejaVuSans-65" transform="translate(170.3125 0)"/>
     <use xlink:href="#DejaVuSans-6e" transform="translate(231.835938 0)"/>
     <use xlink:href="#DejaVuSans-61" transform="translate(295.214844 0)"/>
     <use xlink:href="#DejaVuSans-72" transform="translate(356.494141 0)"/>
     <use xlink:href="#DejaVuSans-79" transform="translate(397.607422 0)"/>
     <use xlink:href="#DejaVuSans-20" transform="translate(456.787109 0)"/>
     <use xlink:href="#DejaVuSans-43" transform="translate(488.574219 0)"/>
     <use xlink:href="#DejaVuSans-75" transform="translate(558.398438 0)"/>
     <use xlink:href="#DejaVuSans-72" transform="translate(621.777344 0)"/>
     <use xlink:href="#DejaVuSans-76" transform="translate(662.890625 0)"/>
     <use xlink:href="#DejaVuSans-65" transform="translate(722.070312 0)"/>
     <use xlink:href="#DejaVuSans-73" transform="translate(783.59375 0)"/>
     <use xlink:href="#DejaVuSans-20" transform="translate(835.693359 0)"/>
     <use xlink:href="#DejaVuSans-66" transform="translate(867.480469 0)"/>
     <use xlink:href="#DejaVuSans-6f" transform="translate(902.685547 0)"/>
     <use xlink:href="#DejaVuSans-72" transform="translate(963.867188 0)"/>
     <use xlink:href="#DejaVuSans-20" transform="translate(1004.980469 0)"/>
     <use xlink:href="#DejaVuSans-56" transform="translate(1036.767578 0)"/>
     <use xlink:href="#DejaVuSans-61" transform="translate(1097.425781 0)"/>
     <use xlink:href="#DejaVuSans-72" transform="translate(1158.705078 0)"/>
     <use xlink:href="#DejaVuSans-69" transform="translate(1199.818359 0)"/>
     <use xlink:href="#DejaVuSans-6f" transform="translate(1227.601562 0)"/>
     <use xlink:href="#DejaVuSans-75" transform="translate(1288.783203 0)"/>
     <use xlink:href="#DejaVuSans-73" transform="translate(1352.162109 0)"/>
     <use xlink:href="#DejaVuSans-20" transform="translate(1404.261719 0)"/>
     <use xlink:href="#DejaVuSans-61" transform="translate(1436.048828 0)"/>
    </g>
   </g>
   <g id="line2d_36">
    <defs>
     <path id="m1ed199872a" d="M 0 3.5 
C 0.928211 3.5 1.81853 3.131218 2.474874 2.474874 
C 3.131218 1.81853 3.5 0.928211 3.5 0 
C 3.5 -0.928211 3.131218 -1.81853 2.474874 -2.474874 
C 1.81853 -3.131218 0.928211 -3.5 0 -3.5 
C -0.928211 -3.5 -1.81853 -3.131218 -2.474874 -2.474874 
C -3.131218 -1.81853 -3.5 -0.928211 -3.5 0 
C -3.5 0.928211 -3.131218 1.81853 -2.474874 2.474874 
C -1.81853 3.131218 -0.928211 3.5 0 3.5 
z
" style="stroke: #00d2ff"/>
    </defs>
    <g clip-path="url(#p63ee7fd13c)">
     <use xlink:href="#m1ed199872a" x="236.009009" y="613.8" style="fill: #00d2ff; stroke: #00d2ff"/>
    </g>
   </g>
   <g id="line2d_37">
    <defs>
     <path id="m017bfaa080" d="M 0 3.5 
C 0.928211 3.5 1.81853 3.131218 2.474874 2.474874 
C 3.131218 1.81853 3.5 0.928211 3.5 0 
C 3.5 -0.928211 3.131218 -1.81853 2.474874 -2.474874 
C 1.81853 -3.131218 0.928211 -3.5 0 -3.5 
C -0.928211 -3.5 -1.81853 -3.131218 -2.474874 -2.474874 
C -3.131218 -1.81853 -3.5 -0.928211 -3.5 0 
C -3.5 0.928211 -3.131218 1.81853 -2.474874 2.474874 
C -1.81853 3.131218 -0.928211 3.5 0 3.5 
z
" style="stroke: #ffd700"/>
    </defs>
    <g clip-path="url(#p63ee7fd13c)">
     <use xlink:href="#m017bfaa080" x="236.009009" y="594" style="fill: #ffd700; stroke: #ffd700"/>
    </g>
   </g>
   <g id="line2d_38">
    <defs>
     <path id="m7365aa42c2" d="M 0 3.5 
C 0.928211 3.5 1.81853 3.131218 2.474874 2.474874 
C 3.131218 1.81853 3.5 0.928211 3.5 0 
C 3.5 -0.928211 3.131218 -1.81853 2.474874 -2.474874 
C 1.81853 -3.131218 0.928211 -3.5 0 -3.5 
C -0.928211 -3.5 -1.81853 -3.131218 -2.474874 -2.474874 
C -3.131218 -1.81853 -3.5 -0.928211 -3.5 0 
C -3.5 0.928211 -3.131218 1.81853 -2.474874 2.474874 
C -1.81853 3.131218 -0.928211 3.5 0 3.5 
z
" style="stroke: #2ecc71"/>
    </defs>
    <g clip-path="url(#p63ee7fd13c)">
     <use xlink:href="#m7365aa42c2" x="236.009009" y="554.4" style="fill: #2ecc71; stroke: #2ecc71"/>
    </g>
   </g>
   <g id="line2d_39">
    <defs>
     <path id="mbe85aea24c" d="M 0 3.5 
C 0.928211 3.5 1.81853 3.131218 2.474874 2.474874 
C 3.131218 1.81853 3.5 0.928211 3.5 0 
C 3.5 -0.928211 3.131218 -1.81853 2.474874 -2.474874 
C 1.81853 -3.131218 0.928211 -3.5 0 -3.5 
C -0.928211 -3.5 -1.81853 -3.131218 -2.474874 -2.474874 
C -3.131218 -1.81853 -3.5 -0.928211 -3.5 0 
C -3.5 0.928211 -3.131218 1.81853 -2.474874 2.474874 
C -1.81853 3.131218 -0.928211 3.5 0 3.5 
z
" style="stroke: #ff6b9d"/>
    </defs>
    <g clip-path="url(#p63ee7fd13c)">
     <use xlink:href="#mbe85aea24c" x="236.009009" y="514.8" style="fill: #ff6b9d; stroke: #ff6b9d"/>
    </g>
   </g>
   <g id="legend_1">
    <g id="patch_9">
     <path d="M 53.051563 628.6 
L 189.351563 628.6 
Q 191.351563 628.6 191.351563 626.6 
L 191.351563 552.6875 
Q 191.351563 550.6875 189.351563 550.6875 
L 53.051563 550.6875 
Q 51.051563 550.6875 51.051563 552.6875 
L 51.051563 626.6 
Q 51.051563 628.6 53.051563 628.6 
z
" style="fill: #1a1a2e; opacity: 0.8; stroke: #2a2a4a; stroke-linejoin: miter"/>
    </g>
    <g id="line2d_40">
     <path d="M 55.051563 558.785937 
L 65.051563 558.785937 
L 75.051563 558.785937 
" style="fill: none; stroke: #00d2ff; stroke-width: 2.5; stroke-linecap: square"/>
    </g>
    <g id="text_20">
     <!-- a = 0.5 -->
     <g style="fill: #eaeaea" transform="translate(83.051563 562.285937) scale(0.1 -0.1)">
      <defs>
       <path id="DejaVuSans-3d" d="M 678 2906 
L 4684 2906 
L 4684 2381 
L 678 2381 
L 678 2906 
z
M 678 1631 
L 4684 1631 
L 4684 1100 
L 678 1100 
L 678 1631 
z
" transform="scale(0.015625)"/>
       <path id="DejaVuSans-2e" d="M 684 794 
L 1344 794 
L 1344 0 
L 684 0 
L 684 794 
z
" transform="scale(0.015625)"/>
       <path id="DejaVuSans-35" d="M 691 4666 
L 3169 4666 
L 3169 4134 
L 1269 4134 
L 1269 2991 
Q 1406 3038 1543 3061 
Q 1681 3084 1819 3084 
Q 2600 3084 3056 2656 
Q 3513 2228 3513 1497 
Q 3513 744 3044 326 
Q 2575 -91 1722 -91 
Q 1428 -91 1123 -41 
Q 819 9 494 109 
L 494 744 
Q 775 591 1075 516 
Q 1375 441 1709 441 
Q 2250 441 2565 725 
Q 2881 1009 2881 1497 
Q 2881 1984 2565 2268 
Q 2250 2553 1709 2553 
Q 1456 2553 1204 2497 
Q 953 2441 691 2322 
L 691 4666 
z
" transform="scale(0.015625)"/>
      </defs>
      <use xlink:href="#DejaVuSans-61"/>
      <use xlink:href="#DejaVuSans-20" transform="translate(61.279297 0)"/>
      <use xlink:href="#DejaVuSans-3d" transform="translate(93.066406 0)"/>
      <use xlink:href="#DejaVuSans-20" transform="translate(176.855469 0)"/>
      <use xlink:href="#DejaVuSans-30" transform="translate(208.642578 0)"/>
      <use xlink:href="#DejaVuSans-2e" transform="translate(272.265625 0)"/>
      <use xlink:href="#DejaVuSans-35" transform="translate(304.052734 0)"/>
     </g>
    </g>
    <g id="line2d_41">
     <path d="M 55.051563 573.464062 
L 65.051563 573.464062 
L 75.051563 573.464062 
" style="fill: none; stroke: #ffd700; stroke-width: 2.5; stroke-linecap: square"/>
    </g>
    <g id="text_21">
     <!-- a = 1.0 -->
     <g style="fill: #eaeaea" transform="translate(83.051563 576.964062) scale(0.1 -0.1)">
      <use xlink:href="#DejaVuSans-61"/>
      <use xlink:href="#DejaVuSans-20" transform="translate(61.279297 0)"/>
      <use xlink:href="#DejaVuSans-3d" transform="translate(93.066406 0)"/>
      <use xlink:href="#DejaVuSans-20" transform="translate(176.855469 0)"/>
      <use xlink:href="#DejaVuSans-31" transform="translate(208.642578 0)"/>
      <use xlink:href="#DejaVuSans-2e" transform="translate(272.265625 0)"/>
      <use xlink:href="#DejaVuSans-30" transform="translate(304.052734 0)"/>
     </g>
    </g>
    <g id="line2d_42">
     <path d="M 55.051563 588.142187 
L 65.051563 588.142187 
L 75.051563 588.142187 
" style="fill: none; stroke: #2ecc71; stroke-width: 2.5; stroke-linecap: square"/>
    </g>
    <g id="text_22">
     <!-- a = 2.0 -->
     <g style="fill: #eaeaea" transform="translate(83.051563 591.642187) scale(0.1 -0.1)">
      <use xlink:href="#DejaVuSans-61"/>
      <use xlink:href="#DejaVuSans-20" transform="translate(61.279297 0)"/>
      <use xlink:href="#DejaVuSans-3d" transform="translate(93.066406 0)"/>
      <use xlink:href="#DejaVuSans-20" transform="translate(176.855469 0)"/>
      <use xlink:href="#DejaVuSans-32" transform="translate(208.642578 0)"/>
      <use xlink:href="#DejaVuSans-2e" transform="translate(272.265625 0)"/>
      <use xlink:href="#DejaVuSans-30" transform="translate(304.052734 0)"/>
     </g>
    </g>
    <g id="line2d_43">
     <path d="M 55.051563 602.820312 
L 65.051563 602.820312 
L 75.051563 602.820312 
" style="fill: none; stroke: #ff6b9d; stroke-width: 2.5; stroke-linecap: square"/>
    </g>
    <g id="text_23">
     <!-- a = 3.0 -->
     <g style="fill: #eaeaea" transform="translate(83.051563 606.320312) scale(0.1 -0.1)">
      <defs>
       <path id="DejaVuSans-33" d="M 2597 2516 
Q 3050 2419 3304 2112 
Q 3559 1806 3559 1356 
Q 3559 666 3084 287 
Q 2609 -91 1734 -91 
Q 1441 -91 1130 -33 
Q 819 25 488 141 
L 488 750 
Q 750 597 1062 519 
Q 1375 441 1716 441 
Q 2309 441 2620 675 
Q 2931 909 2931 1356 
Q 2931 1769 2642 2001 
Q 2353 2234 1838 2234 
L 1294 2234 
L 1294 2753 
L 1863 2753 
Q 2328 2753 2575 2939 
Q 2822 3125 2822 3475 
Q 2822 3834 2567 4026 
Q 2313 4219 1838 4219 
Q 1578 4219 1281 4162 
Q 984 4106 628 3988 
L 628 4550 
Q 988 4650 1302 4700 
Q 1616 4750 1894 4750 
Q 2613 4750 3031 4423 
Q 3450 4097 3450 3541 
Q 3450 3153 3228 2886 
Q 3006 2619 2597 2516 
z
" transform="scale(0.015625)"/>
      </defs>
      <use xlink:href="#DejaVuSans-61"/>
      <use xlink:href="#DejaVuSans-20" transform="translate(61.279297 0)"/>
      <use xlink:href="#DejaVuSans-3d" transform="translate(93.066406 0)"/>
      <use xlink:href="#DejaVuSans-20" transform="translate(176.855469 0)"/>
      <use xlink:href="#DejaVuSans-33" transform="translate(208.642578 0)"/>
      <use xlink:href="#DejaVuSans-2e" transform="translate(272.265625 0)"/>
      <use xlink:href="#DejaVuSans-30" transform="translate(304.052734 0)"/>
     </g>
    </g>
    <g id="line2d_44">
     <path d="M 55.051563 619 
L 65.051563 619 
L 75.051563 619 
" style="fill: none; stroke-dasharray: 7.4,3.2; stroke-dashoffset: 0; stroke: #e74c3c; stroke-width: 2"/>
    </g>
    <g id="text_24">
     <!-- Parabola $y=x^2/2+1$ -->
     <g style="fill: #eaeaea" transform="translate(83.051563 622.5) scale(0.1 -0.1)">
      <defs>
       <path id="DejaVuSans-50" d="M 1259 4147 
L 1259 2394 
L 2053 2394 
Q 2494 2394 2734 2622 
Q 2975 2850 2975 3272 
Q 2975 3691 2734 3919 
Q 2494 4147 2053 4147 
L 1259 4147 
z
M 628 4666 
L 2053 4666 
Q 2838 4666 3239 4311 
Q 3641 3956 3641 3272 
Q 3641 2581 3239 2228 
Q 2838 1875 2053 1875 
L 1259 1875 
L 1259 0 
L 628 0 
L 628 4666 
z
" transform="scale(0.015625)"/>
       <path id="DejaVuSans-62" d="M 3116 1747 
Q 3116 2381 2855 2742 
Q 2594 3103 2138 3103 
Q 1681 3103 1420 2742 
Q 1159 2381 1159 1747 
Q 1159 1113 1420 752 
Q 1681 391 2138 391 
Q 2594 391 2855 752 
Q 3116 1113 3116 1747 
z
M 1159 2969 
Q 1341 3281 1617 3432 
Q 1894 3584 2278 3584 
Q 2916 3584 3314 3078 
Q 3713 2572 3713 1747 
Q 3713 922 3314 415 
Q 2916 -91 2278 -91 
Q 1894 -91 1617 61 
Q 1341 213 1159 525 
L 1159 0 
L 581 0 
L 581 4863 
L 1159 4863 
L 1159 2969 
z
" transform="scale(0.015625)"/>
       <path id="DejaVuSans-Oblique-79" d="M 1588 -325 
Q 1188 -997 936 -1164 
Q 684 -1331 294 -1331 
L -159 -1331 
L -63 -850 
L 269 -850 
Q 509 -850 678 -719 
Q 847 -588 1056 -206 
L 1234 128 
L 459 3500 
L 1069 3500 
L 1650 819 
L 3256 3500 
L 3859 3500 
L 1588 -325 
z
" transform="scale(0.015625)"/>
       <path id="DejaVuSans-Oblique-78" d="M 3841 3500 
L 2234 1784 
L 3219 0 
L 2559 0 
L 1819 1388 
L 531 0 
L -166 0 
L 1556 1844 
L 641 3500 
L 1300 3500 
L 1972 2234 
L 3144 3500 
L 3841 3500 
z
" transform="scale(0.015625)"/>
       <path id="DejaVuSans-2f" d="M 1625 4666 
L 2156 4666 
L 531 -594 
L 0 -594 
L 1625 4666 
z
" transform="scale(0.015625)"/>
       <path id="DejaVuSans-2b" d="M 2944 4013 
L 2944 2272 
L 4684 2272 
L 4684 1741 
L 2944 1741 
L 2944 0 
L 2419 0 
L 2419 1741 
L 678 1741 
L 678 2272 
L 2419 2272 
L 2419 4013 
L 2944 4013 
z
" transform="scale(0.015625)"/>
      </defs>
      <use xlink:href="#DejaVuSans-50" transform="translate(0 0.765625)"/>
      <use xlink:href="#DejaVuSans-61" transform="translate(60.302734 0.765625)"/>
      <use xlink:href="#DejaVuSans-72" transform="translate(121.582031 0.765625)"/>
      <use xlink:href="#DejaVuSans-61" transform="translate(162.695312 0.765625)"/>
      <use xlink:href="#DejaVuSans-62" transform="translate(223.974609 0.765625)"/>
      <use xlink:href="#DejaVuSans-6f" transform="translate(287.451172 0.765625)"/>
      <use xlink:href="#DejaVuSans-6c" transform="translate(348.632812 0.765625)"/>
      <use xlink:href="#DejaVuSans-61" transform="translate(376.416016 0.765625)"/>
      <use xlink:href="#DejaVuSans-20" transform="translate(437.695312 0.765625)"/>
      <use xlink:href="#DejaVuSans-Oblique-79" transform="translate(469.482422 0.765625)"/>
      <use xlink:href="#DejaVuSans-3d" transform="translate(548.144531 0.765625)"/>
      <use xlink:href="#DejaVuSans-Oblique-78" transform="translate(651.416016 0.765625)"/>
      <use xlink:href="#DejaVuSans-32" transform="translate(715.061849 39.046875) scale(0.7)"/>
      <use xlink:href="#DejaVuSans-2f" transform="translate(762.332357 0.765625)"/>
      <use xlink:href="#DejaVuSans-32" transform="translate(792.398763 0.765625)"/>
      <use xlink:href="#DejaVuSans-2b" transform="translate(875.504232 0.765625)"/>
      <use xlink:href="#DejaVuSans-31" transform="translate(978.775716 0.765625)"/>
     </g>
    </g>
   </g>
  </g>
  <g id="axes_2">
   <g id="patch_10">
    <path d="M 558.936669 633.6 
L 938.851562 633.6 
L 938.851562 79.2 
L 558.936669 79.2 
z
" style="fill: #16213e"/>
   </g>
   <g id="matplotlib.axis_3">
    <g id="xtick_8">
     <g id="line2d_45">
      <path d="M 576.205528 633.6 
L 576.205528 79.2 
" clip-path="url(#p6a2709ca9d)" style="fill: none; stroke: #2a2a4a; stroke-opacity: 0.25; stroke-width: 0.8; stroke-linecap: square"/>
     </g>
     <g id="line2d_46">
      <g>
       <use xlink:href="#m5b9c64c2df" x="576.205528" y="633.6" style="fill: #eaeaea; stroke: #eaeaea; stroke-width: 0.8"/>
      </g>
     </g>
     <g id="text_25">
      <!-- −4 -->
      <g style="fill: #eaeaea" transform="translate(567.360215 649.718125) scale(0.12 -0.12)">
       <use xlink:href="#DejaVuSans-2212"/>
       <use xlink:href="#DejaVuSans-34" transform="translate(83.789062 0)"/>
      </g>
     </g>
    </g>
    <g id="xtick_9">
     <g id="line2d_47">
      <path d="M 619.377675 633.6 
L 619.377675 79.2 
" clip-path="url(#p6a2709ca9d)" style="fill: none; stroke: #2a2a4a; stroke-opacity: 0.25; stroke-width: 0.8; stroke-linecap: square"/>
     </g>
     <g id="line2d_48">
      <g>
       <use xlink:href="#m5b9c64c2df" x="619.377675" y="633.6" style="fill: #eaeaea; stroke: #eaeaea; stroke-width: 0.8"/>
      </g>
     </g>
     <g id="text_26">
      <!-- −3 -->
      <g style="fill: #eaeaea" transform="translate(610.532362 649.718125) scale(0.12 -0.12)">
       <use xlink:href="#DejaVuSans-2212"/>
       <use xlink:href="#DejaVuSans-33" transform="translate(83.789062 0)"/>
      </g>
     </g>
    </g>
    <g id="xtick_10">
     <g id="line2d_49">
      <path d="M 662.549822 633.6 
L 662.549822 79.2 
" clip-path="url(#p6a2709ca9d)" style="fill: none; stroke: #2a2a4a; stroke-opacity: 0.25; stroke-width: 0.8; stroke-linecap: square"/>
     </g>
     <g id="line2d_50">
      <g>
       <use xlink:href="#m5b9c64c2df" x="662.549822" y="633.6" style="fill: #eaeaea; stroke: #eaeaea; stroke-width: 0.8"/>
      </g>
     </g>
     <g id="text_27">
      <!-- −2 -->
      <g style="fill: #eaeaea" transform="translate(653.704509 649.718125) scale(0.12 -0.12)">
       <use xlink:href="#DejaVuSans-2212"/>
       <use xlink:href="#DejaVuSans-32" transform="translate(83.789062 0)"/>
      </g>
     </g>
    </g>
    <g id="xtick_11">
     <g id="line2d_51">
      <path d="M 705.721969 633.6 
L 705.721969 79.2 
" clip-path="url(#p6a2709ca9d)" style="fill: none; stroke: #2a2a4a; stroke-opacity: 0.25; stroke-width: 0.8; stroke-linecap: square"/>
     </g>
     <g id="line2d_52">
      <g>
       <use xlink:href="#m5b9c64c2df" x="705.721969" y="633.6" style="fill: #eaeaea; stroke: #eaeaea; stroke-width: 0.8"/>
      </g>
     </g>
     <g id="text_28">
      <!-- −1 -->
      <g style="fill: #eaeaea" transform="translate(696.876656 649.718125) scale(0.12 -0.12)">
       <use xlink:href="#DejaVuSans-2212"/>
       <use xlink:href="#DejaVuSans-31" transform="translate(83.789062 0)"/>
      </g>
     </g>
    </g>
    <g id="xtick_12">
     <g id="line2d_53">
      <path d="M 748.894116 633.6 
L 748.894116 79.2 
" clip-path="url(#p6a2709ca9d)" style="fill: none; stroke: #2a2a4a; stroke-opacity: 0.25; stroke-width: 0.8; stroke-linecap: square"/>
     </g>
     <g id="line2d_54">
      <g>
       <use xlink:href="#m5b9c64c2df" x="748.894116" y="633.6" style="fill: #eaeaea; stroke: #eaeaea; stroke-width: 0.8"/>
      </g>
     </g>
     <g id="text_29">
      <!-- 0 -->
      <g style="fill: #eaeaea" transform="translate(745.076616 649.718125) scale(0.12 -0.12)">
       <use xlink:href="#DejaVuSans-30"/>
      </g>
     </g>
    </g>
    <g id="xtick_13">
     <g id="line2d_55">
      <path d="M 792.066263 633.6 
L 792.066263 79.2 
" clip-path="url(#p6a2709ca9d)" style="fill: none; stroke: #2a2a4a; stroke-opacity: 0.25; stroke-width: 0.8; stroke-linecap: square"/>
     </g>
     <g id="line2d_56">
      <g>
       <use xlink:href="#m5b9c64c2df" x="792.066263" y="633.6" style="fill: #eaeaea; stroke: #eaeaea; stroke-width: 0.8"/>
      </g>
     </g>
     <g id="text_30">
      <!-- 1 -->
      <g style="fill: #eaeaea" transform="translate(788.248763 649.718125) scale(0.12 -0.12)">
       <use xlink:href="#DejaVuSans-31"/>
      </g>
     </g>
    </g>
    <g id="xtick_14">
     <g id="line2d_57">
      <path d="M 835.23841 633.6 
L 835.23841 79.2 
" clip-path="url(#p6a2709ca9d)" style="fill: none; stroke: #2a2a4a; stroke-opacity: 0.25; stroke-width: 0.8; stroke-linecap: square"/>
     </g>
     <g id="line2d_58">
      <g>
       <use xlink:href="#m5b9c64c2df" x="835.23841" y="633.6" style="fill: #eaeaea; stroke: #eaeaea; stroke-width: 0.8"/>
      </g>
     </g>
     <g id="text_31">
      <!-- 2 -->
      <g style="fill: #eaeaea" transform="translate(831.42091 649.718125) scale(0.12 -0.12)">
       <use xlink:href="#DejaVuSans-32"/>
      </g>
     </g>
    </g>
    <g id="xtick_15">
     <g id="line2d_59">
      <path d="M 878.410557 633.6 
L 878.410557 79.2 
" clip-path="url(#p6a2709ca9d)" style="fill: none; stroke: #2a2a4a; stroke-opacity: 0.25; stroke-width: 0.8; stroke-linecap: square"/>
     </g>
     <g id="line2d_60">
      <g>
       <use xlink:href="#m5b9c64c2df" x="878.410557" y="633.6" style="fill: #eaeaea; stroke: #eaeaea; stroke-width: 0.8"/>
      </g>
     </g>
     <g id="text_32">
      <!-- 3 -->
      <g style="fill: #eaeaea" transform="translate(874.593057 649.718125) scale(0.12 -0.12)">
       <use xlink:href="#DejaVuSans-33"/>
      </g>
     </g>
    </g>
    <g id="xtick_16">
     <g id="line2d_61">
      <path d="M 921.582704 633.6 
L 921.582704 79.2 
" clip-path="url(#p6a2709ca9d)" style="fill: none; stroke: #2a2a4a; stroke-opacity: 0.25; stroke-width: 0.8; stroke-linecap: square"/>
     </g>
     <g id="line2d_62">
      <g>
       <use xlink:href="#m5b9c64c2df" x="921.582704" y="633.6" style="fill: #eaeaea; stroke: #eaeaea; stroke-width: 0.8"/>
      </g>
     </g>
     <g id="text_33">
      <!-- 4 -->
      <g style="fill: #eaeaea" transform="translate(917.765204 649.718125) scale(0.12 -0.12)">
       <use xlink:href="#DejaVuSans-34"/>
      </g>
     </g>
    </g>
    <g id="text_34">
     <!-- x -->
     <g style="fill: #eaeaea" transform="translate(745.046928 666.091719) scale(0.13 -0.13)">
      <use xlink:href="#DejaVuSans-78"/>
     </g>
    </g>
   </g>
   <g id="matplotlib.axis_4">
    <g id="ytick_9">
     <g id="line2d_63">
      <path d="M 558.936669 539.4993 
L 938.851562 539.4993 
" clip-path="url(#p6a2709ca9d)" style="fill: none; stroke: #2a2a4a; stroke-opacity: 0.25; stroke-width: 0.8; stroke-linecap: square"/>
     </g>
     <g id="line2d_64">
      <g>
       <use xlink:href="#mf60be09395" x="558.936669" y="539.4993" style="fill: #eaeaea; stroke: #eaeaea; stroke-width: 0.8"/>
      </g>
     </g>
     <g id="text_35">
      <!-- −8 -->
      <g style="fill: #eaeaea" transform="translate(534.246044 544.058363) scale(0.12 -0.12)">
       <use xlink:href="#DejaVuSans-2212"/>
       <use xlink:href="#DejaVuSans-38" transform="translate(83.789062 0)"/>
      </g>
     </g>
    </g>
    <g id="ytick_10">
     <g id="line2d_65">
      <path d="M 558.936669 437.122994 
L 938.851562 437.122994 
" clip-path="url(#p6a2709ca9d)" style="fill: none; stroke: #2a2a4a; stroke-opacity: 0.25; stroke-width: 0.8; stroke-linecap: square"/>
     </g>
     <g id="line2d_66">
      <g>
       <use xlink:href="#mf60be09395" x="558.936669" y="437.122994" style="fill: #eaeaea; stroke: #eaeaea; stroke-width: 0.8"/>
      </g>
     </g>
     <g id="text_36">
      <!-- −6 -->
      <g style="fill: #eaeaea" transform="translate(534.246044 441.682057) scale(0.12 -0.12)">
       <use xlink:href="#DejaVuSans-2212"/>
       <use xlink:href="#DejaVuSans-36" transform="translate(83.789062 0)"/>
      </g>
     </g>
    </g>
    <g id="ytick_11">
     <g id="line2d_67">
      <path d="M 558.936669 334.746688 
L 938.851562 334.746688 
" clip-path="url(#p6a2709ca9d)" style="fill: none; stroke: #2a2a4a; stroke-opacity: 0.25; stroke-width: 0.8; stroke-linecap: square"/>
     </g>
     <g id="line2d_68">
      <g>
       <use xlink:href="#mf60be09395" x="558.936669" y="334.746688" style="fill: #eaeaea; stroke: #eaeaea; stroke-width: 0.8"/>
      </g>
     </g>
     <g id="text_37">
      <!-- −4 -->
      <g style="fill: #eaeaea" transform="translate(534.246044 339.305751) scale(0.12 -0.12)">
       <use xlink:href="#DejaVuSans-2212"/>
       <use xlink:href="#DejaVuSans-34" transform="translate(83.789062 0)"/>
      </g>
     </g>
    </g>
    <g id="ytick_12">
     <g id="line2d_69">
      <path d="M 558.936669 232.370382 
L 938.851562 232.370382 
" clip-path="url(#p6a2709ca9d)" style="fill: none; stroke: #2a2a4a; stroke-opacity: 0.25; stroke-width: 0.8; stroke-linecap: square"/>
     </g>
     <g id="line2d_70">
      <g>
       <use xlink:href="#mf60be09395" x="558.936669" y="232.370382" style="fill: #eaeaea; stroke: #eaeaea; stroke-width: 0.8"/>
      </g>
     </g>
     <g id="text_38">
      <!-- −2 -->
      <g style="fill: #eaeaea" transform="translate(534.246044 236.929445) scale(0.12 -0.12)">
       <use xlink:href="#DejaVuSans-2212"/>
       <use xlink:href="#DejaVuSans-32" transform="translate(83.789062 0)"/>
      </g>
     </g>
    </g>
    <g id="ytick_13">
     <g id="line2d_71">
      <path d="M 558.936669 129.994076 
L 938.851562 129.994076 
" clip-path="url(#p6a2709ca9d)" style="fill: none; stroke: #2a2a4a; stroke-opacity: 0.25; stroke-width: 0.8; stroke-linecap: square"/>
     </g>
     <g id="line2d_72">
      <g>
       <use xlink:href="#mf60be09395" x="558.936669" y="129.994076" style="fill: #eaeaea; stroke: #eaeaea; stroke-width: 0.8"/>
      </g>
     </g>
     <g id="text_39">
      <!-- 0 -->
      <g style="fill: #eaeaea" transform="translate(544.301669 134.553139) scale(0.12 -0.12)">
       <use xlink:href="#DejaVuSans-30"/>
      </g>
     </g>
    </g>
    <g id="text_40">
     <!-- y -->
     <g style="fill: #eaeaea" transform="translate(527.54245 360.247187) rotate(-90) scale(0.13 -0.13)">
      <use xlink:href="#DejaVuSans-79"/>
     </g>
    </g>
   </g>
   <g id="line2d_73">
    <path d="M 576.205528 129.994076 
L 580.358359 164.137457 
L 584.511191 196.137337 
L 588.664023 226.125359 
L 592.816855 254.224888 
L 596.969687 280.551523 
L 601.122518 305.213565 
L 605.27535 328.312472 
L 609.428182 349.943268 
L 613.581014 370.194939 
L 617.733845 389.150797 
L 621.886677 406.888824 
L 626.039509 423.481991 
L 630.192341 438.99856 
L 634.345173 453.502364 
L 638.498004 467.053069 
L 642.650836 479.70642 
L 646.111529 489.603061 
L 649.572222 498.94102 
L 653.032916 507.746971 
L 656.493609 516.046068 
L 659.954302 523.862019 
L 663.414995 531.21715 
L 666.875688 538.132471 
L 670.336381 544.627736 
L 673.797074 550.721499 
L 677.257768 556.431166 
L 680.718461 561.773048 
L 684.179154 566.762405 
L 687.639847 571.413488 
L 691.10054 575.739583 
L 694.561233 579.753048 
L 698.021926 583.465348 
L 701.48262 586.887087 
L 704.943313 590.028038 
L 708.404006 592.897176 
L 711.864699 595.502694 
L 715.325392 597.852037 
L 718.786085 599.951915 
L 722.246778 601.808326 
L 725.707472 603.426573 
L 729.168165 604.81128 
L 732.628858 605.9664 
L 736.089551 606.895235 
L 739.550244 607.600437 
L 743.010937 608.08402 
L 746.47163 608.347367 
L 749.932324 608.391229 
L 753.393017 608.215731 
L 756.85371 607.820373 
L 760.314403 607.204024 
L 763.775096 606.364925 
L 767.235789 605.300679 
L 770.696483 604.008244 
L 774.157176 602.483931 
L 777.617869 600.723383 
L 781.078562 598.721572 
L 784.539255 596.472781 
L 787.999948 593.970584 
L 791.460641 591.207835 
L 794.921335 588.176642 
L 798.382028 584.868345 
L 801.842721 581.273495 
L 805.303414 577.381823 
L 808.764107 573.182212 
L 812.2248 568.662666 
L 815.685493 563.810274 
L 819.146187 558.611176 
L 822.60688 553.05052 
L 826.067573 547.112421 
L 829.528266 540.779918 
L 832.988959 534.034922 
L 836.449652 526.858165 
L 839.910345 519.229146 
L 843.371039 511.126073 
L 846.831732 502.525799 
L 850.292425 493.403758 
L 853.753118 483.733891 
L 857.213811 473.488576 
L 860.674504 462.638548 
L 864.135197 451.152813 
L 867.595891 438.99856 
L 871.056584 426.141073 
L 874.517277 412.543621 
L 877.97797 398.167365 
L 881.438663 382.971237 
L 884.899356 366.911829 
L 888.360049 349.943268 
L 891.820743 332.017081 
L 895.281436 313.082061 
L 898.742129 293.084121 
L 902.202822 271.966136 
L 905.663515 249.66778 
L 909.124208 226.125359 
L 912.584902 201.271622 
L 916.045595 175.035574 
L 919.506288 147.34227 
L 921.582704 129.994076 
L 921.582704 129.994076 
" clip-path="url(#p6a2709ca9d)" style="fill: none; stroke: #00d2ff; stroke-width: 3.5; stroke-linecap: square"/>
   </g>
   <g id="patch_11">
    <path d="M 558.936669 633.6 
L 558.936669 79.2 
" style="fill: none; stroke: #2a2a4a; stroke-width: 0.8; stroke-linejoin: miter; stroke-linecap: square"/>
   </g>
   <g id="patch_12">
    <path d="M 938.851562 633.6 
L 938.851562 79.2 
" style="fill: none; stroke: #2a2a4a; stroke-width: 0.8; stroke-linejoin: miter; stroke-linecap: square"/>
   </g>
   <g id="patch_13">
    <path d="M 558.936669 633.6 
L 938.851562 633.6 
" style="fill: none; stroke: #2a2a4a; stroke-width: 0.8; stroke-linejoin: miter; stroke-linecap: square"/>
   </g>
   <g id="patch_14">
    <path d="M 558.936669 79.2 
L 938.851562 79.2 
" style="fill: none; stroke: #2a2a4a; stroke-width: 0.8; stroke-linejoin: miter; stroke-linecap: square"/>
   </g>
   <g id="patch_15">
    <path d="M 619.377675 398.316214 
Q 619.377675 409.111187 619.377675 418.22911 
" style="fill: none; stroke: #9b59b6; stroke-width: 1.5; stroke-linecap: round"/>
    <path d="M 621.777675 413.42911 
L 619.377675 418.22911 
L 616.977675 413.42911 
" style="fill: none; stroke: #9b59b6; stroke-width: 1.5; stroke-linecap: round"/>
   </g>
   <g id="patch_16">
    <path d="M 662.549822 531.42306 
Q 662.549822 542.218033 662.549822 551.335955 
" style="fill: none; stroke: #9b59b6; stroke-width: 1.5; stroke-linecap: round"/>
    <path d="M 664.949822 546.535955 
L 662.549822 551.335955 
L 660.149822 546.535955 
" style="fill: none; stroke: #9b59b6; stroke-width: 1.5; stroke-linecap: round"/>
   </g>
   <g id="patch_17">
    <path d="M 705.721969 592.699651 
Q 705.721969 603.494624 705.721969 612.612546 
" style="fill: none; stroke: #9b59b6; stroke-width: 1.5; stroke-linecap: round"/>
    <path d="M 708.121969 607.812546 
L 705.721969 612.612546 
L 703.321969 607.812546 
" style="fill: none; stroke: #9b59b6; stroke-width: 1.5; stroke-linecap: round"/>
   </g>
   <g id="patch_18">
    <path d="M 748.894116 610.403758 
Q 748.894116 621.198731 748.894116 630.316653 
" style="fill: none; stroke: #9b59b6; stroke-width: 1.5; stroke-linecap: round"/>
    <path d="M 751.294116 625.516653 
L 748.894116 630.316653 
L 746.494116 625.516653 
" style="fill: none; stroke: #9b59b6; stroke-width: 1.5; stroke-linecap: round"/>
   </g>
   <g id="patch_19">
    <path d="M 792.066263 592.699651 
Q 792.066263 603.494624 792.066263 612.612546 
" style="fill: none; stroke: #9b59b6; stroke-width: 1.5; stroke-linecap: round"/>
    <path d="M 794.466263 607.812546 
L 792.066263 612.612546 
L 789.666263 607.812546 
" style="fill: none; stroke: #9b59b6; stroke-width: 1.5; stroke-linecap: round"/>
   </g>
   <g id="patch_20">
    <path d="M 835.23841 531.42306 
Q 835.23841 542.218033 835.23841 551.335955 
" style="fill: none; stroke: #9b59b6; stroke-width: 1.5; stroke-linecap: round"/>
    <path d="M 837.63841 546.535955 
L 835.23841 551.335955 
L 832.83841 546.535955 
" style="fill: none; stroke: #9b59b6; stroke-width: 1.5; stroke-linecap: round"/>
   </g>
   <g id="patch_21">
    <path d="M 878.410557 398.316214 
Q 878.410557 409.111187 878.410557 418.22911 
" style="fill: none; stroke: #9b59b6; stroke-width: 1.5; stroke-linecap: round"/>
    <path d="M 880.810557 413.42911 
L 878.410557 418.22911 
L 876.010557 413.42911 
" style="fill: none; stroke: #9b59b6; stroke-width: 1.5; stroke-linecap: round"/>
   </g>
   <g id="patch_22">
    <path d="M 900.809624 458.510487 
Q 881.710375 466.843042 864.148259 474.504982 
" style="fill: none; stroke: #ffd700; stroke-width: 1.5; stroke-linecap: round"/>
    <path d="M 868.167686 474.715247 
L 864.148259 474.504982 
L 866.728127 471.4156 
" style="fill: none; stroke: #ffd700; stroke-width: 1.5; stroke-linecap: round"/>
   </g>
   <g id="text_41">
    <g id="patch_23">
     <path d="M 899.99663 457.209888 
L 963.027568 457.209888 
Q 965.727568 457.209888 965.727568 454.509888 
L 965.727568 435.721544 
Q 965.727568 433.021544 963.027568 433.021544 
L 899.99663 433.021544 
Q 897.29663 433.021544 897.29663 435.721544 
L 897.29663 454.509888 
Q 897.29663 457.209888 899.99663 457.209888 
z
" style="fill: #1a1a2e; opacity: 0.8; stroke: #ffffff; stroke-linejoin: miter"/>
    </g>
    <!-- Tension -->
    <g style="fill: #ffd700" transform="translate(899.99663 442.560138) scale(0.09 -0.09)">
     <defs>
      <path id="DejaVuSans-54" d="M -19 4666 
L 3928 4666 
L 3928 4134 
L 2272 4134 
L 2272 0 
L 1638 0 
L 1638 4134 
L -19 4134 
L -19 4666 
z
" transform="scale(0.015625)"/>
     </defs>
     <use xlink:href="#DejaVuSans-54"/>
     <use xlink:href="#DejaVuSans-65" transform="translate(44.083984 0)"/>
     <use xlink:href="#DejaVuSans-6e" transform="translate(105.607422 0)"/>
     <use xlink:href="#DejaVuSans-73" transform="translate(168.986328 0)"/>
     <use xlink:href="#DejaVuSans-69" transform="translate(221.085938 0)"/>
     <use xlink:href="#DejaVuSans-6f" transform="translate(248.869141 0)"/>
     <use xlink:href="#DejaVuSans-6e" transform="translate(310.050781 0)"/>
    </g>
    <!-- along tangent -->
    <g style="fill: #ffd700" transform="translate(899.99663 452.638169) scale(0.09 -0.09)">
     <defs>
      <path id="DejaVuSans-67" d="M 2906 1791 
Q 2906 2416 2648 2759 
Q 2391 3103 1925 3103 
Q 1463 3103 1205 2759 
Q 947 2416 947 1791 
Q 947 1169 1205 825 
Q 1463 481 1925 481 
Q 2391 481 2648 825 
Q 2906 1169 2906 1791 
z
M 3481 434 
Q 3481 -459 3084 -895 
Q 2688 -1331 1869 -1331 
Q 1566 -1331 1297 -1286 
Q 1028 -1241 775 -1147 
L 775 -588 
Q 1028 -725 1275 -790 
Q 1522 -856 1778 -856 
Q 2344 -856 2625 -561 
Q 2906 -266 2906 331 
L 2906 616 
Q 2728 306 2450 153 
Q 2172 0 1784 0 
Q 1141 0 747 490 
Q 353 981 353 1791 
Q 353 2603 747 3093 
Q 1141 3584 1784 3584 
Q 2172 3584 2450 3431 
Q 2728 3278 2906 2969 
L 2906 3500 
L 3481 3500 
L 3481 434 
z
" transform="scale(0.015625)"/>
     </defs>
     <use xlink:href="#DejaVuSans-61"/>
     <use xlink:href="#DejaVuSans-6c" transform="translate(61.279297 0)"/>
     <use xlink:href="#DejaVuSans-6f" transform="translate(89.0625 0)"/>
     <use xlink:href="#DejaVuSans-6e" transform="translate(150.244141 0)"/>
     <use xlink:href="#DejaVuSans-67" transform="translate(213.623047 0)"/>
     <use xlink:href="#DejaVuSans-20" transform="translate(277.099609 0)"/>
     <use xlink:href="#DejaVuSans-74" transform="translate(308.886719 0)"/>
     <use xlink:href="#DejaVuSans-61" transform="translate(348.095703 0)"/>
     <use xlink:href="#DejaVuSans-6e" transform="translate(409.375 0)"/>
     <use xlink:href="#DejaVuSans-67" transform="translate(472.753906 0)"/>
     <use xlink:href="#DejaVuSans-65" transform="translate(536.230469 0)"/>
     <use xlink:href="#DejaVuSans-6e" transform="translate(597.753906 0)"/>
     <use xlink:href="#DejaVuSans-74" transform="translate(661.132812 0)"/>
    </g>
   </g>
   <g id="text_42">
    <g id="patch_24">
     <path d="M 697.154116 166.483655 
L 800.634116 166.483655 
Q 808.434116 166.483655 808.434116 158.683655 
L 808.434116 103.514498 
Q 808.434116 95.714498 800.634116 95.714498 
L 697.154116 95.714498 
Q 689.354116 95.714498 689.354116 103.514498 
L 689.354116 158.683655 
Q 689.354116 166.483655 697.154116 166.483655 
z
" style="fill: #1a1a2e; opacity: 0.9; stroke: #00d2ff; stroke-linejoin: miter"/>
    </g>
    <!-- $y = a\cosh\!\left(\dfrac{x}{a}\right)$ -->
    <g style="fill: #00d2ff" transform="translate(707.164116 114.304498) scale(0.13 -0.13)">
     <defs>
      <path id="DejaVuSans-Oblique-61" d="M 3438 1997 
L 3047 0 
L 2472 0 
L 2578 531 
Q 2325 219 2001 64 
Q 1678 -91 1281 -91 
Q 834 -91 548 182 
Q 263 456 263 884 
Q 263 1497 752 1853 
Q 1241 2209 2100 2209 
L 2900 2209 
L 2931 2363 
Q 2938 2388 2941 2417 
Q 2944 2447 2944 2509 
Q 2944 2788 2717 2942 
Q 2491 3097 2081 3097 
Q 1800 3097 1504 3025 
Q 1209 2953 897 2809 
L 997 3341 
Q 1322 3463 1633 3523 
Q 1944 3584 2234 3584 
Q 2853 3584 3176 3315 
Q 3500 3047 3500 2534 
Q 3500 2431 3484 2292 
Q 3469 2153 3438 1997 
z
M 2816 1759 
L 2241 1759 
Q 1534 1759 1195 1570 
Q 856 1381 856 984 
Q 856 709 1029 553 
Q 1203 397 1509 397 
Q 1978 397 2328 733 
Q 2678 1069 2791 1631 
L 2816 1759 
z
" transform="scale(0.015625)"/>
      <path id="DejaVuSans-63" d="M 3122 3366 
L 3122 2828 
Q 2878 2963 2633 3030 
Q 2388 3097 2138 3097 
Q 1578 3097 1268 2742 
Q 959 2388 959 1747 
Q 959 1106 1268 751 
Q 1578 397 2138 397 
Q 2388 397 2633 464 
Q 2878 531 3122 666 
L 3122 134 
Q 2881 22 2623 -34 
Q 2366 -91 2075 -91 
Q 1284 -91 818 406 
Q 353 903 353 1747 
Q 353 2603 823 3093 
Q 1294 3584 2113 3584 
Q 2378 3584 2631 3529 
Q 2884 3475 3122 3366 
z
" transform="scale(0.015625)"/>
      <path id="DejaVuSans-68" d="M 3513 2113 
L 3513 0 
L 2938 0 
L 2938 2094 
Q 2938 2591 2744 2837 
Q 2550 3084 2163 3084 
Q 1697 3084 1428 2787 
Q 1159 2491 1159 1978 
L 1159 0 
L 581 0 
L 581 4863 
L 1159 4863 
L 1159 2956 
Q 1366 3272 1645 3428 
Q 1925 3584 2291 3584 
Q 2894 3584 3203 3211 
Q 3513 2838 3513 2113 
z
" transform="scale(0.015625)"/>
      <path id="STIXSizeTwoSym-Regular-28" d="M 3219 -1555 
L 3219 -1786 
Q 2144 -774 1517 730 
Q 890 2234 890 4115 
Q 890 6003 1533 7593 
Q 2176 9184 3219 10022 
L 3219 9811 
Q 2490 9062 1994 7606 
Q 1498 6150 1498 4115 
Q 1498 563 3219 -1555 
z
" transform="scale(0.015625)"/>
      <path id="STIXSizeTwoSym-Regular-29" d="M 730 9792 
L 730 10022 
Q 1805 9011 2432 7507 
Q 3059 6003 3059 4115 
Q 3059 2234 2416 643 
Q 1773 -947 730 -1786 
L 730 -1574 
Q 1459 -826 1955 633 
Q 2451 2093 2451 4115 
Q 2451 7674 730 9792 
z
" transform="scale(0.015625)"/>
     </defs>
     <use xlink:href="#DejaVuSans-Oblique-79" transform="translate(0 0.96875)"/>
     <use xlink:href="#DejaVuSans-3d" transform="translate(78.662109 0.96875)"/>
     <use xlink:href="#DejaVuSans-Oblique-61" transform="translate(181.933594 0.96875)"/>
     <use xlink:href="#DejaVuSans-63" transform="translate(243.212891 0.96875)"/>
     <use xlink:href="#DejaVuSans-6f" transform="translate(298.193359 0.96875)"/>
     <use xlink:href="#DejaVuSans-73" transform="translate(359.375 0.96875)"/>
     <use xlink:href="#DejaVuSans-68" transform="translate(411.474609 0.96875)"/>
     <use xlink:href="#STIXSizeTwoSym-Regular-28" transform="translate(474.853516 -22.140625) scale(0.777016)"/>
     <use xlink:href="#DejaVuSans-Oblique-78" transform="translate(521.648254 44.765625)"/>
     <use xlink:href="#DejaVuSans-Oblique-61" transform="translate(520.648254 -42.484375)"/>
     <use xlink:href="#STIXSizeTwoSym-Regular-29" transform="translate(594.427551 -22.140625) scale(0.777016)"/>
     <path d="M 520.648254 19.765625 
L 520.648254 26.015625 
L 581.927551 26.015625 
L 581.927551 19.765625 
L 520.648254 19.765625 
z
"/>
    </g>
    <!--  -->
    <g style="fill: #00d2ff" transform="translate(748.894116 132.008061) scale(0.13 -0.13)"/>
    <!-- $= \dfrac{a}{2}\!\left(e^{x/a}+e^{-x/a}\right)$ -->
    <g style="fill: #00d2ff" transform="translate(697.154116 150.623655) scale(0.13 -0.13)">
     <defs>
      <path id="DejaVuSans-Oblique-65" d="M 3078 2063 
Q 3088 2113 3092 2166 
Q 3097 2219 3097 2272 
Q 3097 2653 2873 2875 
Q 2650 3097 2266 3097 
Q 1838 3097 1509 2826 
Q 1181 2556 1013 2059 
L 3078 2063 
z
M 3578 1613 
L 903 1613 
Q 884 1494 878 1425 
Q 872 1356 872 1306 
Q 872 872 1139 634 
Q 1406 397 1894 397 
Q 2269 397 2603 481 
Q 2938 566 3225 728 
L 3116 159 
Q 2806 34 2476 -28 
Q 2147 -91 1806 -91 
Q 1078 -91 686 257 
Q 294 606 294 1247 
Q 294 1794 489 2264 
Q 684 2734 1063 3103 
Q 1306 3334 1642 3459 
Q 1978 3584 2356 3584 
Q 2950 3584 3301 3228 
Q 3653 2872 3653 2272 
Q 3653 2128 3634 1964 
Q 3616 1800 3578 1613 
z
" transform="scale(0.015625)"/>
     </defs>
     <use xlink:href="#DejaVuSans-3d" transform="translate(19.482422 0.78125)"/>
     <use xlink:href="#DejaVuSans-Oblique-61" transform="translate(123.753906 46)"/>
     <use xlink:href="#DejaVuSans-32" transform="translate(122.753906 -60.890625)"/>
     <use xlink:href="#DejaVuSans-28" transform="translate(182.641277 0.78125)"/>
     <use xlink:href="#DejaVuSans-Oblique-65" transform="translate(221.654949 0.78125)"/>
     <use xlink:href="#DejaVuSans-Oblique-78" transform="translate(287.828282 39.0625) scale(0.7)"/>
     <use xlink:href="#DejaVuSans-2f" transform="translate(329.254063 39.0625) scale(0.7)"/>
     <use xlink:href="#DejaVuSans-Oblique-61" transform="translate(352.838048 39.0625) scale(0.7)"/>
     <use xlink:href="#DejaVuSans-2b" transform="translate(417.950352 0.78125)"/>
     <use xlink:href="#DejaVuSans-Oblique-65" transform="translate(521.221837 0.78125)"/>
     <use xlink:href="#DejaVuSans-2212" transform="translate(587.39517 39.0625) scale(0.7)"/>
     <use xlink:href="#DejaVuSans-Oblique-78" transform="translate(646.047514 39.0625) scale(0.7)"/>
     <use xlink:href="#DejaVuSans-2f" transform="translate(687.473295 39.0625) scale(0.7)"/>
     <use xlink:href="#DejaVuSans-Oblique-61" transform="translate(711.057279 39.0625) scale(0.7)"/>
     <use xlink:href="#DejaVuSans-29" transform="translate(756.687162 0.78125)"/>
     <path d="M 122.753906 19.578125 
L 122.753906 25.828125 
L 186.376953 25.828125 
L 186.376953 19.578125 
L 122.753906 19.578125 
z
"/>
    </g>
   </g>
   <g id="text_43">
    <!-- Hanging Chain — Catenary in Nature -->
    <g style="fill: #eaeaea" transform="translate(619.425834 73.2) scale(0.14 -0.14)">
     <defs>
      <path id="DejaVuSans-48" d="M 628 4666 
L 1259 4666 
L 1259 2753 
L 3553 2753 
L 3553 4666 
L 4184 4666 
L 4184 0 
L 3553 0 
L 3553 2222 
L 1259 2222 
L 1259 0 
L 628 0 
L 628 4666 
z
" transform="scale(0.015625)"/>
      <path id="DejaVuSans-2014" d="M 313 1978 
L 6088 1978 
L 6088 1528 
L 313 1528 
L 313 1978 
z
" transform="scale(0.015625)"/>
      <path id="DejaVuSans-4e" d="M 628 4666 
L 1478 4666 
L 3547 763 
L 3547 4666 
L 4159 4666 
L 4159 0 
L 3309 0 
L 1241 3903 
L 1241 0 
L 628 0 
L 628 4666 
z
" transform="scale(0.015625)"/>
     </defs>
     <use xlink:href="#DejaVuSans-48"/>
     <use xlink:href="#DejaVuSans-61" transform="translate(75.195312 0)"/>
     <use xlink:href="#DejaVuSans-6e" transform="translate(136.474609 0)"/>
     <use xlink:href="#DejaVuSans-67" transform="translate(199.853516 0)"/>
     <use xlink:href="#DejaVuSans-69" transform="translate(263.330078 0)"/>
     <use xlink:href="#DejaVuSans-6e" transform="translate(291.113281 0)"/>
     <use xlink:href="#DejaVuSans-67" transform="translate(354.492188 0)"/>
     <use xlink:href="#DejaVuSans-20" transform="translate(417.96875 0)"/>
     <use xlink:href="#DejaVuSans-43" transform="translate(449.755859 0)"/>
     <use xlink:href="#DejaVuSans-68" transform="translate(519.580078 0)"/>
     <use xlink:href="#DejaVuSans-61" transform="translate(582.958984 0)"/>
     <use xlink:href="#DejaVuSans-69" transform="translate(644.238281 0)"/>
     <use xlink:href="#DejaVuSans-6e" transform="translate(672.021484 0)"/>
     <use xlink:href="#DejaVuSans-20" transform="translate(735.400391 0)"/>
     <use xlink:href="#DejaVuSans-2014" transform="translate(767.1875 0)"/>
     <use xlink:href="#DejaVuSans-20" transform="translate(867.1875 0)"/>
     <use xlink:href="#DejaVuSans-43" transform="translate(898.974609 0)"/>
     <use xlink:href="#DejaVuSans-61" transform="translate(968.798828 0)"/>
     <use xlink:href="#DejaVuSans-74" transform="translate(1030.078125 0)"/>
     <use xlink:href="#DejaVuSans-65" transform="translate(1069.287109 0)"/>
     <use xlink:href="#DejaVuSans-6e" transform="translate(1130.810547 0)"/>
     <use xlink:href="#DejaVuSans-61" transform="translate(1194.189453 0)"/>
     <use xlink:href="#DejaVuSans-72" transform="translate(1255.46875 0)"/>
     <use xlink:href="#DejaVuSans-79" transform="translate(1296.582031 0)"/>
     <use xlink:href="#DejaVuSans-20" transform="translate(1355.761719 0)"/>
     <use xlink:href="#DejaVuSans-69" transform="translate(1387.548828 0)"/>
     <use xlink:href="#DejaVuSans-6e" transform="translate(1415.332031 0)"/>
     <use xlink:href="#DejaVuSans-20" transform="translate(1478.710938 0)"/>
     <use xlink:href="#DejaVuSans-4e" transform="translate(1510.498047 0)"/>
     <use xlink:href="#DejaVuSans-61" transform="translate(1585.302734 0)"/>
     <use xlink:href="#DejaVuSans-74" transform="translate(1646.582031 0)"/>
     <use xlink:href="#DejaVuSans-75" transform="translate(1685.791016 0)"/>
     <use xlink:href="#DejaVuSans-72" transform="translate(1749.169922 0)"/>
     <use xlink:href="#DejaVuSans-65" transform="translate(1788.033203 0)"/>
    </g>
   </g>
   <g id="line2d_74">
    <path d="M 576.205528 155.588153 
L 576.205528 104.4 
" clip-path="url(#p6a2709ca9d)" style="fill: none; stroke: #f39c12; stroke-width: 6; stroke-linecap: round"/>
   </g>
   <g id="line2d_75">
    <path d="M 921.582704 155.588153 
L 921.582704 104.4 
" clip-path="url(#p6a2709ca9d)" style="fill: none; stroke: #f39c12; stroke-width: 6; stroke-linecap: round"/>
   </g>
   <g id="legend_2">
    <g id="patch_25">
     <path d="M 820.582813 101.878125 
L 931.851562 101.878125 
Q 933.851562 101.878125 933.851562 99.878125 
L 933.851562 86.2 
Q 933.851562 84.2 931.851562 84.2 
L 820.582813 84.2 
Q 818.582813 84.2 818.582813 86.2 
L 818.582813 99.878125 
Q 818.582813 101.878125 820.582813 101.878125 
z
" style="fill: #1a1a2e; opacity: 0.8; stroke: #2a2a4a; stroke-linejoin: miter"/>
    </g>
    <g id="line2d_76">
     <path d="M 822.582813 92.298437 
L 832.582813 92.298437 
L 842.582813 92.298437 
" style="fill: none; stroke: #00d2ff; stroke-width: 3.5; stroke-linecap: square"/>
    </g>
    <g id="text_44">
     <!-- Catenary a=1.5 -->
     <g style="fill: #eaeaea" transform="translate(850.582813 95.798437) scale(0.1 -0.1)">
      <use xlink:href="#DejaVuSans-43"/>
      <use xlink:href="#DejaVuSans-61" transform="translate(69.824219 0)"/>
      <use xlink:href="#DejaVuSans-74" transform="translate(131.103516 0)"/>
      <use xlink:href="#DejaVuSans-65" transform="translate(170.3125 0)"/>
      <use xlink:href="#DejaVuSans-6e" transform="translate(231.835938 0)"/>
      <use xlink:href="#DejaVuSans-61" transform="translate(295.214844 0)"/>
      <use xlink:href="#DejaVuSans-72" transform="translate(356.494141 0)"/>
      <use xlink:href="#DejaVuSans-79" transform="translate(397.607422 0)"/>
      <use xlink:href="#DejaVuSans-20" transform="translate(456.787109 0)"/>
      <use xlink:href="#DejaVuSans-61" transform="translate(488.574219 0)"/>
      <use xlink:href="#DejaVuSans-3d" transform="translate(549.853516 0)"/>
      <use xlink:href="#DejaVuSans-31" transform="translate(633.642578 0)"/>
      <use xlink:href="#DejaVuSans-2e" transform="translate(697.265625 0)"/>
      <use xlink:href="#DejaVuSans-35" transform="translate(729.052734 0)"/>
     </g>
    </g>
   </g>
   <g id="line2d_77">
    <defs>
     <path id="m3e76bd984b" d="M 0 5 
C 1.326016 5 2.597899 4.473168 3.535534 3.535534 
C 4.473168 2.597899 5 1.326016 5 0 
C 5 -1.326016 4.473168 -2.597899 3.535534 -3.535534 
C 2.597899 -4.473168 1.326016 -5 0 -5 
C -1.326016 -5 -2.597899 -4.473168 -3.535534 -3.535534 
C -4.473168 -2.597899 -5 -1.326016 -5 0 
C -5 1.326016 -4.473168 2.597899 -3.535534 3.535534 
C -2.597899 4.473168 -1.326016 5 0 5 
z
" style="stroke: #ffd700"/>
    </defs>
    <g clip-path="url(#p6a2709ca9d)">
     <use xlink:href="#m3e76bd984b" x="576.205528" y="129.994076" style="fill: #ffd700; stroke: #ffd700"/>
    </g>
   </g>
   <g id="line2d_78">
    <g clip-path="url(#p6a2709ca9d)">
     <use xlink:href="#m3e76bd984b" x="921.582704" y="129.994076" style="fill: #ffd700; stroke: #ffd700"/>
    </g>
   </g>
  </g>
  <g id="text_45">
   <!-- The Catenary:  $y = a\cosh\!\left(\frac{x}{a}\right) = \frac{a}{2}\!\left(e^{x/a}+e^{-x/a}\right)$ -->
   <g style="fill: #ffd700" transform="translate(275.371563 23.4) scale(0.18 -0.18)">
    <defs>
     <path id="DejaVuSans-Bold-54" d="M 31 4666 
L 4331 4666 
L 4331 3756 
L 2784 3756 
L 2784 0 
L 1581 0 
L 1581 3756 
L 31 3756 
L 31 4666 
z
" transform="scale(0.015625)"/>
     <path id="DejaVuSans-Bold-68" d="M 4056 2131 
L 4056 0 
L 2931 0 
L 2931 347 
L 2931 1625 
Q 2931 2084 2911 2256 
Q 2891 2428 2841 2509 
Q 2775 2619 2662 2680 
Q 2550 2741 2406 2741 
Q 2056 2741 1856 2470 
Q 1656 2200 1656 1722 
L 1656 0 
L 538 0 
L 538 4863 
L 1656 4863 
L 1656 2988 
Q 1909 3294 2193 3439 
Q 2478 3584 2822 3584 
Q 3428 3584 3742 3212 
Q 4056 2841 4056 2131 
z
" transform="scale(0.015625)"/>
     <path id="DejaVuSans-Bold-65" d="M 4031 1759 
L 4031 1441 
L 1416 1441 
Q 1456 1047 1700 850 
Q 1944 653 2381 653 
Q 2734 653 3104 758 
Q 3475 863 3866 1075 
L 3866 213 
Q 3469 63 3072 -14 
Q 2675 -91 2278 -91 
Q 1328 -91 801 392 
Q 275 875 275 1747 
Q 275 2603 792 3093 
Q 1309 3584 2216 3584 
Q 3041 3584 3536 3087 
Q 4031 2591 4031 1759 
z
M 2881 2131 
Q 2881 2450 2695 2645 
Q 2509 2841 2209 2841 
Q 1884 2841 1681 2658 
Q 1478 2475 1428 2131 
L 2881 2131 
z
" transform="scale(0.015625)"/>
     <path id="DejaVuSans-Bold-20" transform="scale(0.015625)"/>
     <path id="DejaVuSans-Bold-43" d="M 4288 256 
Q 3956 84 3597 -3 
Q 3238 -91 2847 -91 
Q 1681 -91 1000 561 
Q 319 1213 319 2328 
Q 319 3447 1000 4098 
Q 1681 4750 2847 4750 
Q 3238 4750 3597 4662 
Q 3956 4575 4288 4403 
L 4288 3438 
Q 3953 3666 3628 3772 
Q 3303 3878 2944 3878 
Q 2300 3878 1931 3465 
Q 1563 3053 1563 2328 
Q 1563 1606 1931 1193 
Q 2300 781 2944 781 
Q 3303 781 3628 887 
Q 3953 994 4288 1222 
L 4288 256 
z
" transform="scale(0.015625)"/>
     <path id="DejaVuSans-Bold-61" d="M 2106 1575 
Q 1756 1575 1579 1456 
Q 1403 1338 1403 1106 
Q 1403 894 1545 773 
Q 1688 653 1941 653 
Q 2256 653 2472 879 
Q 2688 1106 2688 1447 
L 2688 1575 
L 2106 1575 
z
M 3816 1997 
L 3816 0 
L 2688 0 
L 2688 519 
Q 2463 200 2181 54 
Q 1900 -91 1497 -91 
Q 953 -91 614 226 
Q 275 544 275 1050 
Q 275 1666 698 1953 
Q 1122 2241 2028 2241 
L 2688 2241 
L 2688 2328 
Q 2688 2594 2478 2717 
Q 2269 2841 1825 2841 
Q 1466 2841 1156 2769 
Q 847 2697 581 2553 
L 581 3406 
Q 941 3494 1303 3539 
Q 1666 3584 2028 3584 
Q 2975 3584 3395 3211 
Q 3816 2838 3816 1997 
z
" transform="scale(0.015625)"/>
     <path id="DejaVuSans-Bold-74" d="M 1759 4494 
L 1759 3500 
L 2913 3500 
L 2913 2700 
L 1759 2700 
L 1759 1216 
Q 1759 972 1856 886 
Q 1953 800 2241 800 
L 2816 800 
L 2816 0 
L 1856 0 
Q 1194 0 917 276 
Q 641 553 641 1216 
L 641 2700 
L 84 2700 
L 84 3500 
L 641 3500 
L 641 4494 
L 1759 4494 
z
" transform="scale(0.015625)"/>
     <path id="DejaVuSans-Bold-6e" d="M 4056 2131 
L 4056 0 
L 2931 0 
L 2931 347 
L 2931 1631 
Q 2931 2084 2911 2256 
Q 2891 2428 2841 2509 
Q 2775 2619 2662 2680 
Q 2550 2741 2406 2741 
Q 2056 2741 1856 2470 
Q 1656 2200 1656 1722 
L 1656 0 
L 538 0 
L 538 3500 
L 1656 3500 
L 1656 2988 
Q 1909 3294 2193 3439 
Q 2478 3584 2822 3584 
Q 3428 3584 3742 3212 
Q 4056 2841 4056 2131 
z
" transform="scale(0.015625)"/>
     <path id="DejaVuSans-Bold-72" d="M 3138 2547 
Q 2991 2616 2845 2648 
Q 2700 2681 2553 2681 
Q 2122 2681 1889 2404 
Q 1656 2128 1656 1613 
L 1656 0 
L 538 0 
L 538 3500 
L 1656 3500 
L 1656 2925 
Q 1872 3269 2151 3426 
Q 2431 3584 2822 3584 
Q 2878 3584 2943 3579 
Q 3009 3575 3134 3559 
L 3138 2547 
z
" transform="scale(0.015625)"/>
     <path id="DejaVuSans-Bold-79" d="M 78 3500 
L 1197 3500 
L 2138 1125 
L 2938 3500 
L 4056 3500 
L 2584 -331 
Q 2363 -916 2067 -1148 
Q 1772 -1381 1288 -1381 
L 641 -1381 
L 641 -647 
L 991 -647 
Q 1275 -647 1404 -556 
Q 1534 -466 1606 -231 
L 1638 -134 
L 78 3500 
z
" transform="scale(0.015625)"/>
     <path id="DejaVuSans-Bold-3a" d="M 716 3500 
L 1844 3500 
L 1844 2291 
L 716 2291 
L 716 3500 
z
M 716 1209 
L 1844 1209 
L 1844 0 
L 716 0 
L 716 1209 
z
" transform="scale(0.015625)"/>
     <path id="STIXSizeOneSym-Regular-28" d="M 2445 -858 
L 2445 -1050 
Q 1728 -371 1309 630 
Q 890 1632 890 2886 
Q 890 4122 1309 5136 
Q 1728 6150 2445 6822 
L 2445 6630 
Q 1408 5363 1408 2886 
Q 1408 410 2445 -858 
z
" transform="scale(0.015625)"/>
     <path id="STIXSizeOneSym-Regular-29" d="M 550 6630 
L 550 6822 
Q 1267 6144 1686 5142 
Q 2106 4141 2106 2886 
Q 2106 1651 1686 636 
Q 1267 -378 550 -1050 
L 550 -858 
Q 1587 410 1587 2886 
Q 1587 5363 550 6630 
z
" transform="scale(0.015625)"/>
    </defs>
    <use xlink:href="#DejaVuSans-Bold-54" transform="translate(0 0.684375)"/>
    <use xlink:href="#DejaVuSans-Bold-68" transform="translate(68.212891 0.684375)"/>
    <use xlink:href="#DejaVuSans-Bold-65" transform="translate(139.404297 0.684375)"/>
    <use xlink:href="#DejaVuSans-Bold-20" transform="translate(207.226562 0.684375)"/>
    <use xlink:href="#DejaVuSans-Bold-43" transform="translate(242.041016 0.684375)"/>
    <use xlink:href="#DejaVuSans-Bold-61" transform="translate(315.429688 0.684375)"/>
    <use xlink:href="#DejaVuSans-Bold-74" transform="translate(382.910156 0.684375)"/>
    <use xlink:href="#DejaVuSans-Bold-65" transform="translate(430.712891 0.684375)"/>
    <use xlink:href="#DejaVuSans-Bold-6e" transform="translate(498.535156 0.684375)"/>
    <use xlink:href="#DejaVuSans-Bold-61" transform="translate(569.726562 0.684375)"/>
    <use xlink:href="#DejaVuSans-Bold-72" transform="translate(637.207031 0.684375)"/>
    <use xlink:href="#DejaVuSans-Bold-79" transform="translate(686.523438 0.684375)"/>
    <use xlink:href="#DejaVuSans-Bold-3a" transform="translate(751.708984 0.684375)"/>
    <use xlink:href="#DejaVuSans-Bold-20" transform="translate(791.699219 0.684375)"/>
    <use xlink:href="#DejaVuSans-Bold-20" transform="translate(826.513672 0.684375)"/>
    <use xlink:href="#DejaVuSans-Oblique-79" transform="translate(861.328125 0.684375)"/>
    <use xlink:href="#DejaVuSans-3d" transform="translate(939.990234 0.684375)"/>
    <use xlink:href="#DejaVuSans-Oblique-61" transform="translate(1043.261719 0.684375)"/>
    <use xlink:href="#DejaVuSans-63" transform="translate(1104.541016 0.684375)"/>
    <use xlink:href="#DejaVuSans-6f" transform="translate(1159.521484 0.684375)"/>
    <use xlink:href="#DejaVuSans-73" transform="translate(1220.703125 0.684375)"/>
    <use xlink:href="#DejaVuSans-68" transform="translate(1272.802734 0.684375)"/>
    <use xlink:href="#STIXSizeOneSym-Regular-28" transform="translate(1336.181641 -12.370312) scale(0.892086)"/>
    <use xlink:href="#DejaVuSans-Oblique-78" transform="translate(1378.950638 44.48125) scale(0.7)"/>
    <use xlink:href="#DejaVuSans-Oblique-61" transform="translate(1377.950638 -25.96875) scale(0.7)"/>
    <use xlink:href="#STIXSizeOneSym-Regular-29" transform="translate(1433.346146 -12.370312) scale(0.892086)"/>
    <use xlink:href="#DejaVuSans-3d" transform="translate(1494.597565 0.684375)"/>
    <use xlink:href="#DejaVuSans-Oblique-61" transform="translate(1598.869049 45.476563) scale(0.7)"/>
    <use xlink:href="#DejaVuSans-32" transform="translate(1597.869049 -38.721875) scale(0.7)"/>
    <use xlink:href="#DejaVuSans-28" transform="translate(1638.669506 0.684375)"/>
    <use xlink:href="#DejaVuSans-Oblique-65" transform="translate(1677.683177 0.684375)"/>
    <use xlink:href="#DejaVuSans-Oblique-78" transform="translate(1743.856511 38.965625) scale(0.7)"/>
    <use xlink:href="#DejaVuSans-2f" transform="translate(1785.282292 38.965625) scale(0.7)"/>
    <use xlink:href="#DejaVuSans-Oblique-61" transform="translate(1808.866276 38.965625) scale(0.7)"/>
    <use xlink:href="#DejaVuSans-2b" transform="translate(1873.978581 0.684375)"/>
    <use xlink:href="#DejaVuSans-Oblique-65" transform="translate(1977.250066 0.684375)"/>
    <use xlink:href="#DejaVuSans-2212" transform="translate(2043.423399 38.965625) scale(0.7)"/>
    <use xlink:href="#DejaVuSans-Oblique-78" transform="translate(2102.075743 38.965625) scale(0.7)"/>
    <use xlink:href="#DejaVuSans-2f" transform="translate(2143.501524 38.965625) scale(0.7)"/>
    <use xlink:href="#DejaVuSans-Oblique-61" transform="translate(2167.085508 38.965625) scale(0.7)"/>
    <use xlink:href="#DejaVuSans-29" transform="translate(2212.715391 0.684375)"/>
    <path d="M 1377.950638 19.48125 
L 1377.950638 25.73125 
L 1420.846146 25.73125 
L 1420.846146 19.48125 
L 1377.950638 19.48125 
z
"/>
    <path d="M 1597.869049 19.48125 
L 1597.869049 25.73125 
L 1642.405182 25.73125 
L 1642.405182 19.48125 
L 1597.869049 19.48125 
z
"/>
   </g>
  </g>
 </g>
 <defs>
  <clipPath id="p63ee7fd13c">
   <rect x="46.051563" y="79.2" width="379.914894" height="554.4"/>
  </clipPath>
  <clipPath id="p6a2709ca9d">
   <rect x="558.936669" y="79.2" width="379.914894" height="554.4"/>
  </clipPath>
 </defs>
</svg>
