<?xml version="1.0" encoding="utf-8" standalone="no"?>
<!DOCTYPE svg PUBLIC "-//W3C//DTD SVG 1.1//EN"
  "http://www.w3.org/Graphics/SVG/1.1/DTD/svg11.dtd">
<svg xmlns:xlink="http://www.w3.org/1999/xlink" width="807.125pt" height="503.195312pt" viewBox="0 0 807.125 503.195312" xmlns="http://www.w3.org/2000/svg" version="1.1">
 <metadata>
  <rdf:RDF xmlns:dc="http://purl.org/dc/elements/1.1/" xmlns:cc="http://creativecommons.org/ns#" xmlns:rdf="http://www.w3.org/1999/02/22-rdf-syntax-ns#">
   <cc:Work>
    <dc:type rdf:resource="http://purl.org/dc/dcmitype/StillImage"/>
    <dc:date>2026-03-18T22:53:55.680766</dc:date>
    <dc:format>image/svg+xml</dc:format>
    <dc:creator>
     <cc:Agent>
      <dc:title>Matplotlib v3.10.7, https://matplotlib.org/</dc:title>
     </cc:Agent>
    </dc:creator>
   </cc:Work>
  </rdf:RDF>
 </metadata>
 <defs>
  <style type="text/css">*{stroke-linejoin: round; stroke-linecap: butt}</style>
 </defs>
 <g id="figure_1">
  <g id="patch_1">
   <path d="M 0 503.195312 
L 807.125 503.195312 
L 807.125 0 
L 0 0 
z
" style="fill: #1a1a2e"/>
  </g>
  <g id="axes_1">
   <g id="patch_2">
    <path d="M 66.89 460.8 
L 792.29 460.8 
L 792.29 72.72 
L 66.89 72.72 
z
" style="fill: #16213e"/>
   </g>
   <g id="matplotlib.axis_1">
    <g id="xtick_1">
     <g id="line2d_1">
      <path d="M 66.89 460.8 
L 66.89 72.72 
" clip-path="url(#pc69193186e)" style="fill: none; stroke: #2a2a4a; stroke-opacity: 0.3; stroke-width: 0.8; stroke-linecap: square"/>
     </g>
     <g id="line2d_2">
      <defs>
       <path id="m3da873b8ba" d="M 0 0 
L 0 3.5 
" style="stroke: #eaeaea; stroke-width: 0.8"/>
      </defs>
      <g>
       <use xlink:href="#m3da873b8ba" x="66.89" y="460.8" style="fill: #eaeaea; stroke: #eaeaea; stroke-width: 0.8"/>
      </g>
     </g>
     <g id="text_1">
      <!-- 0 -->
      <g style="fill: #eaeaea" transform="translate(63.0725 476.918125) scale(0.12 -0.12)">
       <defs>
        <path id="DejaVuSans-30" d="M 2034 4250 
Q 1547 4250 1301 3770 
Q 1056 3291 1056 2328 
Q 1056 1369 1301 889 
Q 1547 409 2034 409 
Q 2525 409 2770 889 
Q 3016 1369 3016 2328 
Q 3016 3291 2770 3770 
Q 2525 4250 2034 4250 
z
M 2034 4750 
Q 2819 4750 3233 4129 
Q 3647 3509 3647 2328 
Q 3647 1150 3233 529 
Q 2819 -91 2034 -91 
Q 1250 -91 836 529 
Q 422 1150 422 2328 
Q 422 3509 836 4129 
Q 1250 4750 2034 4750 
z
" transform="scale(0.015625)"/>
       </defs>
       <use xlink:href="#DejaVuSans-30"/>
      </g>
     </g>
    </g>
    <g id="xtick_2">
     <g id="line2d_3">
      <path d="M 157.565 460.8 
L 157.565 72.72 
" clip-path="url(#pc69193186e)" style="fill: none; stroke: #2a2a4a; stroke-opacity: 0.3; stroke-width: 0.8; stroke-linecap: square"/>
     </g>
     <g id="line2d_4">
      <g>
       <use xlink:href="#m3da873b8ba" x="157.565" y="460.8" style="fill: #eaeaea; stroke: #eaeaea; stroke-width: 0.8"/>
      </g>
     </g>
     <g id="text_2">
      <!-- 5 -->
      <g style="fill: #eaeaea" transform="translate(153.7475 476.918125) scale(0.12 -0.12)">
       <defs>
        <path id="DejaVuSans-35" d="M 691 4666 
L 3169 4666 
L 3169 4134 
L 1269 4134 
L 1269 2991 
Q 1406 3038 1543 3061 
Q 1681 3084 1819 3084 
Q 2600 3084 3056 2656 
Q 3513 2228 3513 1497 
Q 3513 744 3044 326 
Q 2575 -91 1722 -91 
Q 1428 -91 1123 -41 
Q 819 9 494 109 
L 494 744 
Q 775 591 1075 516 
Q 1375 441 1709 441 
Q 2250 441 2565 725 
Q 2881 1009 2881 1497 
Q 2881 1984 2565 2268 
Q 2250 2553 1709 2553 
Q 1456 2553 1204 2497 
Q 953 2441 691 2322 
L 691 4666 
z
" transform="scale(0.015625)"/>
       </defs>
       <use xlink:href="#DejaVuSans-35"/>
      </g>
     </g>
    </g>
    <g id="xtick_3">
     <g id="line2d_5">
      <path d="M 248.24 460.8 
L 248.24 72.72 
" clip-path="url(#pc69193186e)" style="fill: none; stroke: #2a2a4a; stroke-opacity: 0.3; stroke-width: 0.8; stroke-linecap: square"/>
     </g>
     <g id="line2d_6">
      <g>
       <use xlink:href="#m3da873b8ba" x="248.24" y="460.8" style="fill: #eaeaea; stroke: #eaeaea; stroke-width: 0.8"/>
      </g>
     </g>
     <g id="text_3">
      <!-- 10 -->
      <g style="fill: #eaeaea" transform="translate(240.605 476.918125) scale(0.12 -0.12)">
       <defs>
        <path id="DejaVuSans-31" d="M 794 531 
L 1825 531 
L 1825 4091 
L 703 3866 
L 703 4441 
L 1819 4666 
L 2450 4666 
L 2450 531 
L 3481 531 
L 3481 0 
L 794 0 
L 794 531 
z
" transform="scale(0.015625)"/>
       </defs>
       <use xlink:href="#DejaVuSans-31"/>
       <use xlink:href="#DejaVuSans-30" transform="translate(63.623047 0)"/>
      </g>
     </g>
    </g>
    <g id="xtick_4">
     <g id="line2d_7">
      <path d="M 338.915 460.8 
L 338.915 72.72 
" clip-path="url(#pc69193186e)" style="fill: none; stroke: #2a2a4a; stroke-opacity: 0.3; stroke-width: 0.8; stroke-linecap: square"/>
     </g>
     <g id="line2d_8">
      <g>
       <use xlink:href="#m3da873b8ba" x="338.915" y="460.8" style="fill: #eaeaea; stroke: #eaeaea; stroke-width: 0.8"/>
      </g>
     </g>
     <g id="text_4">
      <!-- 15 -->
      <g style="fill: #eaeaea" transform="translate(331.28 476.918125) scale(0.12 -0.12)">
       <use xlink:href="#DejaVuSans-31"/>
       <use xlink:href="#DejaVuSans-35" transform="translate(63.623047 0)"/>
      </g>
     </g>
    </g>
    <g id="xtick_5">
     <g id="line2d_9">
      <path d="M 429.59 460.8 
L 429.59 72.72 
" clip-path="url(#pc69193186e)" style="fill: none; stroke: #2a2a4a; stroke-opacity: 0.3; stroke-width: 0.8; stroke-linecap: square"/>
     </g>
     <g id="line2d_10">
      <g>
       <use xlink:href="#m3da873b8ba" x="429.59" y="460.8" style="fill: #eaeaea; stroke: #eaeaea; stroke-width: 0.8"/>
      </g>
     </g>
     <g id="text_5">
      <!-- 20 -->
      <g style="fill: #eaeaea" transform="translate(421.955 476.918125) scale(0.12 -0.12)">
       <defs>
        <path id="DejaVuSans-32" d="M 1228 531 
L 3431 531 
L 3431 0 
L 469 0 
L 469 531 
Q 828 903 1448 1529 
Q 2069 2156 2228 2338 
Q 2531 2678 2651 2914 
Q 2772 3150 2772 3378 
Q 2772 3750 2511 3984 
Q 2250 4219 1831 4219 
Q 1534 4219 1204 4116 
Q 875 4013 500 3803 
L 500 4441 
Q 881 4594 1212 4672 
Q 1544 4750 1819 4750 
Q 2544 4750 2975 4387 
Q 3406 4025 3406 3419 
Q 3406 3131 3298 2873 
Q 3191 2616 2906 2266 
Q 2828 2175 2409 1742 
Q 1991 1309 1228 531 
z
" transform="scale(0.015625)"/>
       </defs>
       <use xlink:href="#DejaVuSans-32"/>
       <use xlink:href="#DejaVuSans-30" transform="translate(63.623047 0)"/>
      </g>
     </g>
    </g>
    <g id="xtick_6">
     <g id="line2d_11">
      <path d="M 520.265 460.8 
L 520.265 72.72 
" clip-path="url(#pc69193186e)" style="fill: none; stroke: #2a2a4a; stroke-opacity: 0.3; stroke-width: 0.8; stroke-linecap: square"/>
     </g>
     <g id="line2d_12">
      <g>
       <use xlink:href="#m3da873b8ba" x="520.265" y="460.8" style="fill: #eaeaea; stroke: #eaeaea; stroke-width: 0.8"/>
      </g>
     </g>
     <g id="text_6">
      <!-- 25 -->
      <g style="fill: #eaeaea" transform="translate(512.63 476.918125) scale(0.12 -0.12)">
       <use xlink:href="#DejaVuSans-32"/>
       <use xlink:href="#DejaVuSans-35" transform="translate(63.623047 0)"/>
      </g>
     </g>
    </g>
    <g id="xtick_7">
     <g id="line2d_13">
      <path d="M 610.94 460.8 
L 610.94 72.72 
" clip-path="url(#pc69193186e)" style="fill: none; stroke: #2a2a4a; stroke-opacity: 0.3; stroke-width: 0.8; stroke-linecap: square"/>
     </g>
     <g id="line2d_14">
      <g>
       <use xlink:href="#m3da873b8ba" x="610.94" y="460.8" style="fill: #eaeaea; stroke: #eaeaea; stroke-width: 0.8"/>
      </g>
     </g>
     <g id="text_7">
      <!-- 30 -->
      <g style="fill: #eaeaea" transform="translate(603.305 476.918125) scale(0.12 -0.12)">
       <defs>
        <path id="DejaVuSans-33" d="M 2597 2516 
Q 3050 2419 3304 2112 
Q 3559 1806 3559 1356 
Q 3559 666 3084 287 
Q 2609 -91 1734 -91 
Q 1441 -91 1130 -33 
Q 819 25 488 141 
L 488 750 
Q 750 597 1062 519 
Q 1375 441 1716 441 
Q 2309 441 2620 675 
Q 2931 909 2931 1356 
Q 2931 1769 2642 2001 
Q 2353 2234 1838 2234 
L 1294 2234 
L 1294 2753 
L 1863 2753 
Q 2328 2753 2575 2939 
Q 2822 3125 2822 3475 
Q 2822 3834 2567 4026 
Q 2313 4219 1838 4219 
Q 1578 4219 1281 4162 
Q 984 4106 628 3988 
L 628 4550 
Q 988 4650 1302 4700 
Q 1616 4750 1894 4750 
Q 2613 4750 3031 4423 
Q 3450 4097 3450 3541 
Q 3450 3153 3228 2886 
Q 3006 2619 2597 2516 
z
" transform="scale(0.015625)"/>
       </defs>
       <use xlink:href="#DejaVuSans-33"/>
       <use xlink:href="#DejaVuSans-30" transform="translate(63.623047 0)"/>
      </g>
     </g>
    </g>
    <g id="xtick_8">
     <g id="line2d_15">
      <path d="M 701.615 460.8 
L 701.615 72.72 
" clip-path="url(#pc69193186e)" style="fill: none; stroke: #2a2a4a; stroke-opacity: 0.3; stroke-width: 0.8; stroke-linecap: square"/>
     </g>
     <g id="line2d_16">
      <g>
       <use xlink:href="#m3da873b8ba" x="701.615" y="460.8" style="fill: #eaeaea; stroke: #eaeaea; stroke-width: 0.8"/>
      </g>
     </g>
     <g id="text_8">
      <!-- 35 -->
      <g style="fill: #eaeaea" transform="translate(693.98 476.918125) scale(0.12 -0.12)">
       <use xlink:href="#DejaVuSans-33"/>
       <use xlink:href="#DejaVuSans-35" transform="translate(63.623047 0)"/>
      </g>
     </g>
    </g>
    <g id="xtick_9">
     <g id="line2d_17">
      <path d="M 792.29 460.8 
L 792.29 72.72 
" clip-path="url(#pc69193186e)" style="fill: none; stroke: #2a2a4a; stroke-opacity: 0.3; stroke-width: 0.8; stroke-linecap: square"/>
     </g>
     <g id="line2d_18">
      <g>
       <use xlink:href="#m3da873b8ba" x="792.29" y="460.8" style="fill: #eaeaea; stroke: #eaeaea; stroke-width: 0.8"/>
      </g>
     </g>
     <g id="text_9">
      <!-- 40 -->
      <g style="fill: #eaeaea" transform="translate(784.655 476.918125) scale(0.12 -0.12)">
       <defs>
        <path id="DejaVuSans-34" d="M 2419 4116 
L 825 1625 
L 2419 1625 
L 2419 4116 
z
M 2253 4666 
L 3047 4666 
L 3047 1625 
L 3713 1625 
L 3713 1100 
L 3047 1100 
L 3047 0 
L 2419 0 
L 2419 1100 
L 313 1100 
L 313 1709 
L 2253 4666 
z
" transform="scale(0.015625)"/>
       </defs>
       <use xlink:href="#DejaVuSans-34"/>
       <use xlink:href="#DejaVuSans-30" transform="translate(63.623047 0)"/>
      </g>
     </g>
    </g>
    <g id="text_10">
     <!-- Iteration Index -->
     <g style="fill: #eaeaea" transform="translate(382.056719 493.291719) scale(0.13 -0.13)">
      <defs>
       <path id="DejaVuSans-49" d="M 628 4666 
L 1259 4666 
L 1259 0 
L 628 0 
L 628 4666 
z
" transform="scale(0.015625)"/>
       <path id="DejaVuSans-74" d="M 1172 4494 
L 1172 3500 
L 2356 3500 
L 2356 3053 
L 1172 3053 
L 1172 1153 
Q 1172 725 1289 603 
Q 1406 481 1766 481 
L 2356 481 
L 2356 0 
L 1766 0 
Q 1100 0 847 248 
Q 594 497 594 1153 
L 594 3053 
L 172 3053 
L 172 3500 
L 594 3500 
L 594 4494 
L 1172 4494 
z
" transform="scale(0.015625)"/>
       <path id="DejaVuSans-65" d="M 3597 1894 
L 3597 1613 
L 953 1613 
Q 991 1019 1311 708 
Q 1631 397 2203 397 
Q 2534 397 2845 478 
Q 3156 559 3463 722 
L 3463 178 
Q 3153 47 2828 -22 
Q 2503 -91 2169 -91 
Q 1331 -91 842 396 
Q 353 884 353 1716 
Q 353 2575 817 3079 
Q 1281 3584 2069 3584 
Q 2775 3584 3186 3129 
Q 3597 2675 3597 1894 
z
M 3022 2063 
Q 3016 2534 2758 2815 
Q 2500 3097 2075 3097 
Q 1594 3097 1305 2825 
Q 1016 2553 972 2059 
L 3022 2063 
z
" transform="scale(0.015625)"/>
       <path id="DejaVuSans-72" d="M 2631 2963 
Q 2534 3019 2420 3045 
Q 2306 3072 2169 3072 
Q 1681 3072 1420 2755 
Q 1159 2438 1159 1844 
L 1159 0 
L 581 0 
L 581 3500 
L 1159 3500 
L 1159 2956 
Q 1341 3275 1631 3429 
Q 1922 3584 2338 3584 
Q 2397 3584 2469 3576 
Q 2541 3569 2628 3553 
L 2631 2963 
z
" transform="scale(0.015625)"/>
       <path id="DejaVuSans-61" d="M 2194 1759 
Q 1497 1759 1228 1600 
Q 959 1441 959 1056 
Q 959 750 1161 570 
Q 1363 391 1709 391 
Q 2188 391 2477 730 
Q 2766 1069 2766 1631 
L 2766 1759 
L 2194 1759 
z
M 3341 1997 
L 3341 0 
L 2766 0 
L 2766 531 
Q 2569 213 2275 61 
Q 1981 -91 1556 -91 
Q 1019 -91 701 211 
Q 384 513 384 1019 
Q 384 1609 779 1909 
Q 1175 2209 1959 2209 
L 2766 2209 
L 2766 2266 
Q 2766 2663 2505 2880 
Q 2244 3097 1772 3097 
Q 1472 3097 1187 3025 
Q 903 2953 641 2809 
L 641 3341 
Q 956 3463 1253 3523 
Q 1550 3584 1831 3584 
Q 2591 3584 2966 3190 
Q 3341 2797 3341 1997 
z
" transform="scale(0.015625)"/>
       <path id="DejaVuSans-69" d="M 603 3500 
L 1178 3500 
L 1178 0 
L 603 0 
L 603 3500 
z
M 603 4863 
L 1178 4863 
L 1178 4134 
L 603 4134 
L 603 4863 
z
" transform="scale(0.015625)"/>
       <path id="DejaVuSans-6f" d="M 1959 3097 
Q 1497 3097 1228 2736 
Q 959 2375 959 1747 
Q 959 1119 1226 758 
Q 1494 397 1959 397 
Q 2419 397 2687 759 
Q 2956 1122 2956 1747 
Q 2956 2369 2687 2733 
Q 2419 3097 1959 3097 
z
M 1959 3584 
Q 2709 3584 3137 3096 
Q 3566 2609 3566 1747 
Q 3566 888 3137 398 
Q 2709 -91 1959 -91 
Q 1206 -91 779 398 
Q 353 888 353 1747 
Q 353 2609 779 3096 
Q 1206 3584 1959 3584 
z
" transform="scale(0.015625)"/>
       <path id="DejaVuSans-6e" d="M 3513 2113 
L 3513 0 
L 2938 0 
L 2938 2094 
Q 2938 2591 2744 2837 
Q 2550 3084 2163 3084 
Q 1697 3084 1428 2787 
Q 1159 2491 1159 1978 
L 1159 0 
L 581 0 
L 581 3500 
L 1159 3500 
L 1159 2956 
Q 1366 3272 1645 3428 
Q 1925 3584 2291 3584 
Q 2894 3584 3203 3211 
Q 3513 2838 3513 2113 
z
" transform="scale(0.015625)"/>
       <path id="DejaVuSans-20" transform="scale(0.015625)"/>
       <path id="DejaVuSans-64" d="M 2906 2969 
L 2906 4863 
L 3481 4863 
L 3481 0 
L 2906 0 
L 2906 525 
Q 2725 213 2448 61 
Q 2172 -91 1784 -91 
Q 1150 -91 751 415 
Q 353 922 353 1747 
Q 353 2572 751 3078 
Q 1150 3584 1784 3584 
Q 2172 3584 2448 3432 
Q 2725 3281 2906 2969 
z
M 947 1747 
Q 947 1113 1208 752 
Q 1469 391 1925 391 
Q 2381 391 2643 752 
Q 2906 1113 2906 1747 
Q 2906 2381 2643 2742 
Q 2381 3103 1925 3103 
Q 1469 3103 1208 2742 
Q 947 2381 947 1747 
z
" transform="scale(0.015625)"/>
       <path id="DejaVuSans-78" d="M 3513 3500 
L 2247 1797 
L 3578 0 
L 2900 0 
L 1881 1375 
L 863 0 
L 184 0 
L 1544 1831 
L 300 3500 
L 978 3500 
L 1906 2253 
L 2834 3500 
L 3513 3500 
z
" transform="scale(0.015625)"/>
      </defs>
      <use xlink:href="#DejaVuSans-49"/>
      <use xlink:href="#DejaVuSans-74" transform="translate(29.492188 0)"/>
      <use xlink:href="#DejaVuSans-65" transform="translate(68.701172 0)"/>
      <use xlink:href="#DejaVuSans-72" transform="translate(130.224609 0)"/>
      <use xlink:href="#DejaVuSans-61" transform="translate(171.337891 0)"/>
      <use xlink:href="#DejaVuSans-74" transform="translate(232.617188 0)"/>
      <use xlink:href="#DejaVuSans-69" transform="translate(271.826172 0)"/>
      <use xlink:href="#DejaVuSans-6f" transform="translate(299.609375 0)"/>
      <use xlink:href="#DejaVuSans-6e" transform="translate(360.791016 0)"/>
      <use xlink:href="#DejaVuSans-20" transform="translate(424.169922 0)"/>
      <use xlink:href="#DejaVuSans-49" transform="translate(455.957031 0)"/>
      <use xlink:href="#DejaVuSans-6e" transform="translate(485.449219 0)"/>
      <use xlink:href="#DejaVuSans-64" transform="translate(548.828125 0)"/>
      <use xlink:href="#DejaVuSans-65" transform="translate(612.304688 0)"/>
      <use xlink:href="#DejaVuSans-78" transform="translate(672.078125 0)"/>
     </g>
    </g>
   </g>
   <g id="matplotlib.axis_2">
    <g id="ytick_1">
     <g id="line2d_19">
      <path d="M 66.89 435.181074 
L 792.29 435.181074 
" clip-path="url(#pc69193186e)" style="fill: none; stroke: #2a2a4a; stroke-opacity: 0.3; stroke-width: 0.8; stroke-linecap: square"/>
     </g>
     <g id="line2d_20">
      <defs>
       <path id="mfbcd2685e3" d="M 0 0 
L -3.5 0 
" style="stroke: #eaeaea; stroke-width: 0.8"/>
      </defs>
      <g>
       <use xlink:href="#mfbcd2685e3" x="66.89" y="435.181074" style="fill: #eaeaea; stroke: #eaeaea; stroke-width: 0.8"/>
      </g>
     </g>
     <g id="text_11">
      <!-- $\mathdefault{10^{-15}}$ -->
      <g style="fill: #eaeaea" transform="translate(26.41 439.740136) scale(0.12 -0.12)">
       <defs>
        <path id="DejaVuSans-2212" d="M 678 2272 
L 4684 2272 
L 4684 1741 
L 678 1741 
L 678 2272 
z
" transform="scale(0.015625)"/>
       </defs>
       <use xlink:href="#DejaVuSans-31" transform="translate(0 0.684375)"/>
       <use xlink:href="#DejaVuSans-30" transform="translate(63.623047 0.684375)"/>
       <use xlink:href="#DejaVuSans-2212" transform="translate(128.203125 38.965625) scale(0.7)"/>
       <use xlink:href="#DejaVuSans-31" transform="translate(186.855469 38.965625) scale(0.7)"/>
       <use xlink:href="#DejaVuSans-35" transform="translate(231.391602 38.965625) scale(0.7)"/>
      </g>
     </g>
    </g>
    <g id="ytick_2">
     <g id="line2d_21">
      <path d="M 66.89 389.914393 
L 792.29 389.914393 
" clip-path="url(#pc69193186e)" style="fill: none; stroke: #2a2a4a; stroke-opacity: 0.3; stroke-width: 0.8; stroke-linecap: square"/>
     </g>
     <g id="line2d_22">
      <g>
       <use xlink:href="#mfbcd2685e3" x="66.89" y="389.914393" style="fill: #eaeaea; stroke: #eaeaea; stroke-width: 0.8"/>
      </g>
     </g>
     <g id="text_12">
      <!-- $\mathdefault{10^{-13}}$ -->
      <g style="fill: #eaeaea" transform="translate(26.41 394.473456) scale(0.12 -0.12)">
       <use xlink:href="#DejaVuSans-31" transform="translate(0 0.765625)"/>
       <use xlink:href="#DejaVuSans-30" transform="translate(63.623047 0.765625)"/>
       <use xlink:href="#DejaVuSans-2212" transform="translate(128.203125 39.046875) scale(0.7)"/>
       <use xlink:href="#DejaVuSans-31" transform="translate(186.855469 39.046875) scale(0.7)"/>
       <use xlink:href="#DejaVuSans-33" transform="translate(231.391602 39.046875) scale(0.7)"/>
      </g>
     </g>
    </g>
    <g id="ytick_3">
     <g id="line2d_23">
      <path d="M 66.89 344.647713 
L 792.29 344.647713 
" clip-path="url(#pc69193186e)" style="fill: none; stroke: #2a2a4a; stroke-opacity: 0.3; stroke-width: 0.8; stroke-linecap: square"/>
     </g>
     <g id="line2d_24">
      <g>
       <use xlink:href="#mfbcd2685e3" x="66.89" y="344.647713" style="fill: #eaeaea; stroke: #eaeaea; stroke-width: 0.8"/>
      </g>
     </g>
     <g id="text_13">
      <!-- $\mathdefault{10^{-11}}$ -->
      <g style="fill: #eaeaea" transform="translate(26.41 349.206776) scale(0.12 -0.12)">
       <use xlink:href="#DejaVuSans-31" transform="translate(0 0.684375)"/>
       <use xlink:href="#DejaVuSans-30" transform="translate(63.623047 0.684375)"/>
       <use xlink:href="#DejaVuSans-2212" transform="translate(128.203125 38.965625) scale(0.7)"/>
       <use xlink:href="#DejaVuSans-31" transform="translate(186.855469 38.965625) scale(0.7)"/>
       <use xlink:href="#DejaVuSans-31" transform="translate(231.391602 38.965625) scale(0.7)"/>
      </g>
     </g>
    </g>
    <g id="ytick_4">
     <g id="line2d_25">
      <path d="M 66.89 299.381033 
L 792.29 299.381033 
" clip-path="url(#pc69193186e)" style="fill: none; stroke: #2a2a4a; stroke-opacity: 0.3; stroke-width: 0.8; stroke-linecap: square"/>
     </g>
     <g id="line2d_26">
      <g>
       <use xlink:href="#mfbcd2685e3" x="66.89" y="299.381033" style="fill: #eaeaea; stroke: #eaeaea; stroke-width: 0.8"/>
      </g>
     </g>
     <g id="text_14">
      <!-- $\mathdefault{10^{-9}}$ -->
      <g style="fill: #eaeaea" transform="translate(31.69 303.940095) scale(0.12 -0.12)">
       <defs>
        <path id="DejaVuSans-39" d="M 703 97 
L 703 672 
Q 941 559 1184 500 
Q 1428 441 1663 441 
Q 2288 441 2617 861 
Q 2947 1281 2994 2138 
Q 2813 1869 2534 1725 
Q 2256 1581 1919 1581 
Q 1219 1581 811 2004 
Q 403 2428 403 3163 
Q 403 3881 828 4315 
Q 1253 4750 1959 4750 
Q 2769 4750 3195 4129 
Q 3622 3509 3622 2328 
Q 3622 1225 3098 567 
Q 2575 -91 1691 -91 
Q 1453 -91 1209 -44 
Q 966 3 703 97 
z
M 1959 2075 
Q 2384 2075 2632 2365 
Q 2881 2656 2881 3163 
Q 2881 3666 2632 3958 
Q 2384 4250 1959 4250 
Q 1534 4250 1286 3958 
Q 1038 3666 1038 3163 
Q 1038 2656 1286 2365 
Q 1534 2075 1959 2075 
z
" transform="scale(0.015625)"/>
       </defs>
       <use xlink:href="#DejaVuSans-31" transform="translate(0 0.765625)"/>
       <use xlink:href="#DejaVuSans-30" transform="translate(63.623047 0.765625)"/>
       <use xlink:href="#DejaVuSans-2212" transform="translate(128.203125 39.046875) scale(0.7)"/>
       <use xlink:href="#DejaVuSans-39" transform="translate(186.855469 39.046875) scale(0.7)"/>
      </g>
     </g>
    </g>
    <g id="ytick_5">
     <g id="line2d_27">
      <path d="M 66.89 254.114352 
L 792.29 254.114352 
" clip-path="url(#pc69193186e)" style="fill: none; stroke: #2a2a4a; stroke-opacity: 0.3; stroke-width: 0.8; stroke-linecap: square"/>
     </g>
     <g id="line2d_28">
      <g>
       <use xlink:href="#mfbcd2685e3" x="66.89" y="254.114352" style="fill: #eaeaea; stroke: #eaeaea; stroke-width: 0.8"/>
      </g>
     </g>
     <g id="text_15">
      <!-- $\mathdefault{10^{-7}}$ -->
      <g style="fill: #eaeaea" transform="translate(31.69 258.673415) scale(0.12 -0.12)">
       <defs>
        <path id="DejaVuSans-37" d="M 525 4666 
L 3525 4666 
L 3525 4397 
L 1831 0 
L 1172 0 
L 2766 4134 
L 525 4134 
L 525 4666 
z
" transform="scale(0.015625)"/>
       </defs>
       <use xlink:href="#DejaVuSans-31" transform="translate(0 0.684375)"/>
       <use xlink:href="#DejaVuSans-30" transform="translate(63.623047 0.684375)"/>
       <use xlink:href="#DejaVuSans-2212" transform="translate(128.203125 38.965625) scale(0.7)"/>
       <use xlink:href="#DejaVuSans-37" transform="translate(186.855469 38.965625) scale(0.7)"/>
      </g>
     </g>
    </g>
    <g id="ytick_6">
     <g id="line2d_29">
      <path d="M 66.89 208.847672 
L 792.29 208.847672 
" clip-path="url(#pc69193186e)" style="fill: none; stroke: #2a2a4a; stroke-opacity: 0.3; stroke-width: 0.8; stroke-linecap: square"/>
     </g>
     <g id="line2d_30">
      <g>
       <use xlink:href="#mfbcd2685e3" x="66.89" y="208.847672" style="fill: #eaeaea; stroke: #eaeaea; stroke-width: 0.8"/>
      </g>
     </g>
     <g id="text_16">
      <!-- $\mathdefault{10^{-5}}$ -->
      <g style="fill: #eaeaea" transform="translate(31.69 213.406735) scale(0.12 -0.12)">
       <use xlink:href="#DejaVuSans-31" transform="translate(0 0.684375)"/>
       <use xlink:href="#DejaVuSans-30" transform="translate(63.623047 0.684375)"/>
       <use xlink:href="#DejaVuSans-2212" transform="translate(128.203125 38.965625) scale(0.7)"/>
       <use xlink:href="#DejaVuSans-35" transform="translate(186.855469 38.965625) scale(0.7)"/>
      </g>
     </g>
    </g>
    <g id="ytick_7">
     <g id="line2d_31">
      <path d="M 66.89 163.580992 
L 792.29 163.580992 
" clip-path="url(#pc69193186e)" style="fill: none; stroke: #2a2a4a; stroke-opacity: 0.3; stroke-width: 0.8; stroke-linecap: square"/>
     </g>
     <g id="line2d_32">
      <g>
       <use xlink:href="#mfbcd2685e3" x="66.89" y="163.580992" style="fill: #eaeaea; stroke: #eaeaea; stroke-width: 0.8"/>
      </g>
     </g>
     <g id="text_17">
      <!-- $\mathdefault{10^{-3}}$ -->
      <g style="fill: #eaeaea" transform="translate(31.69 168.140054) scale(0.12 -0.12)">
       <use xlink:href="#DejaVuSans-31" transform="translate(0 0.765625)"/>
       <use xlink:href="#DejaVuSans-30" transform="translate(63.623047 0.765625)"/>
       <use xlink:href="#DejaVuSans-2212" transform="translate(128.203125 39.046875) scale(0.7)"/>
       <use xlink:href="#DejaVuSans-33" transform="translate(186.855469 39.046875) scale(0.7)"/>
      </g>
     </g>
    </g>
    <g id="ytick_8">
     <g id="line2d_33">
      <path d="M 66.89 118.314312 
L 792.29 118.314312 
" clip-path="url(#pc69193186e)" style="fill: none; stroke: #2a2a4a; stroke-opacity: 0.3; stroke-width: 0.8; stroke-linecap: square"/>
     </g>
     <g id="line2d_34">
      <g>
       <use xlink:href="#mfbcd2685e3" x="66.89" y="118.314312" style="fill: #eaeaea; stroke: #eaeaea; stroke-width: 0.8"/>
      </g>
     </g>
     <g id="text_18">
      <!-- $\mathdefault{10^{-1}}$ -->
      <g style="fill: #eaeaea" transform="translate(31.69 122.873374) scale(0.12 -0.12)">
       <use xlink:href="#DejaVuSans-31" transform="translate(0 0.684375)"/>
       <use xlink:href="#DejaVuSans-30" transform="translate(63.623047 0.684375)"/>
       <use xlink:href="#DejaVuSans-2212" transform="translate(128.203125 38.965625) scale(0.7)"/>
       <use xlink:href="#DejaVuSans-31" transform="translate(186.855469 38.965625) scale(0.7)"/>
      </g>
     </g>
    </g>
    <g id="ytick_9">
     <g id="line2d_35">
      <path d="M 66.89 73.047631 
L 792.29 73.047631 
" clip-path="url(#pc69193186e)" style="fill: none; stroke: #2a2a4a; stroke-opacity: 0.3; stroke-width: 0.8; stroke-linecap: square"/>
     </g>
     <g id="line2d_36">
      <g>
       <use xlink:href="#mfbcd2685e3" x="66.89" y="73.047631" style="fill: #eaeaea; stroke: #eaeaea; stroke-width: 0.8"/>
      </g>
     </g>
     <g id="text_19">
      <!-- $\mathdefault{10^{1}}$ -->
      <g style="fill: #eaeaea" transform="translate(38.77 77.606694) scale(0.12 -0.12)">
       <use xlink:href="#DejaVuSans-31" transform="translate(0 0.684375)"/>
       <use xlink:href="#DejaVuSans-30" transform="translate(63.623047 0.684375)"/>
       <use xlink:href="#DejaVuSans-31" transform="translate(128.203125 38.965625) scale(0.7)"/>
      </g>
     </g>
    </g>
    <g id="text_20">
     <!-- Absolute Error  $|\hat{e} - e|$  (log scale) -->
     <g style="fill: #eaeaea" transform="translate(19.29 375.765) rotate(-90) scale(0.13 -0.13)">
      <defs>
       <path id="DejaVuSans-41" d="M 2188 4044 
L 1331 1722 
L 3047 1722 
L 2188 4044 
z
M 1831 4666 
L 2547 4666 
L 4325 0 
L 3669 0 
L 3244 1197 
L 1141 1197 
L 716 0 
L 50 0 
L 1831 4666 
z
" transform="scale(0.015625)"/>
       <path id="DejaVuSans-62" d="M 3116 1747 
Q 3116 2381 2855 2742 
Q 2594 3103 2138 3103 
Q 1681 3103 1420 2742 
Q 1159 2381 1159 1747 
Q 1159 1113 1420 752 
Q 1681 391 2138 391 
Q 2594 391 2855 752 
Q 3116 1113 3116 1747 
z
M 1159 2969 
Q 1341 3281 1617 3432 
Q 1894 3584 2278 3584 
Q 2916 3584 3314 3078 
Q 3713 2572 3713 1747 
Q 3713 922 3314 415 
Q 2916 -91 2278 -91 
Q 1894 -91 1617 61 
Q 1341 213 1159 525 
L 1159 0 
L 581 0 
L 581 4863 
L 1159 4863 
L 1159 2969 
z
" transform="scale(0.015625)"/>
       <path id="DejaVuSans-73" d="M 2834 3397 
L 2834 2853 
Q 2591 2978 2328 3040 
Q 2066 3103 1784 3103 
Q 1356 3103 1142 2972 
Q 928 2841 928 2578 
Q 928 2378 1081 2264 
Q 1234 2150 1697 2047 
L 1894 2003 
Q 2506 1872 2764 1633 
Q 3022 1394 3022 966 
Q 3022 478 2636 193 
Q 2250 -91 1575 -91 
Q 1294 -91 989 -36 
Q 684 19 347 128 
L 347 722 
Q 666 556 975 473 
Q 1284 391 1588 391 
Q 1994 391 2212 530 
Q 2431 669 2431 922 
Q 2431 1156 2273 1281 
Q 2116 1406 1581 1522 
L 1381 1569 
Q 847 1681 609 1914 
Q 372 2147 372 2553 
Q 372 3047 722 3315 
Q 1072 3584 1716 3584 
Q 2034 3584 2315 3537 
Q 2597 3491 2834 3397 
z
" transform="scale(0.015625)"/>
       <path id="DejaVuSans-6c" d="M 603 4863 
L 1178 4863 
L 1178 0 
L 603 0 
L 603 4863 
z
" transform="scale(0.015625)"/>
       <path id="DejaVuSans-75" d="M 544 1381 
L 544 3500 
L 1119 3500 
L 1119 1403 
Q 1119 906 1312 657 
Q 1506 409 1894 409 
Q 2359 409 2629 706 
Q 2900 1003 2900 1516 
L 2900 3500 
L 3475 3500 
L 3475 0 
L 2900 0 
L 2900 538 
Q 2691 219 2414 64 
Q 2138 -91 1772 -91 
Q 1169 -91 856 284 
Q 544 659 544 1381 
z
M 1991 3584 
L 1991 3584 
z
" transform="scale(0.015625)"/>
       <path id="DejaVuSans-45" d="M 628 4666 
L 3578 4666 
L 3578 4134 
L 1259 4134 
L 1259 2753 
L 3481 2753 
L 3481 2222 
L 1259 2222 
L 1259 531 
L 3634 531 
L 3634 0 
L 628 0 
L 628 4666 
z
" transform="scale(0.015625)"/>
       <path id="DejaVuSans-7c" d="M 1344 4891 
L 1344 -1509 
L 813 -1509 
L 813 4891 
L 1344 4891 
z
" transform="scale(0.015625)"/>
       <path id="DejaVuSans-302" d="M -1831 5119 
L -1369 5119 
L -603 3944 
L -1038 3944 
L -1600 4709 
L -2163 3944 
L -2597 3944 
L -1831 5119 
z
M -1600 3584 
L -1600 3584 
z
" transform="scale(0.015625)"/>
       <path id="DejaVuSans-Oblique-65" d="M 3078 2063 
Q 3088 2113 3092 2166 
Q 3097 2219 3097 2272 
Q 3097 2653 2873 2875 
Q 2650 3097 2266 3097 
Q 1838 3097 1509 2826 
Q 1181 2556 1013 2059 
L 3078 2063 
z
M 3578 1613 
L 903 1613 
Q 884 1494 878 1425 
Q 872 1356 872 1306 
Q 872 872 1139 634 
Q 1406 397 1894 397 
Q 2269 397 2603 481 
Q 2938 566 3225 728 
L 3116 159 
Q 2806 34 2476 -28 
Q 2147 -91 1806 -91 
Q 1078 -91 686 257 
Q 294 606 294 1247 
Q 294 1794 489 2264 
Q 684 2734 1063 3103 
Q 1306 3334 1642 3459 
Q 1978 3584 2356 3584 
Q 2950 3584 3301 3228 
Q 3653 2872 3653 2272 
Q 3653 2128 3634 1964 
Q 3616 1800 3578 1613 
z
" transform="scale(0.015625)"/>
       <path id="DejaVuSans-28" d="M 1984 4856 
Q 1566 4138 1362 3434 
Q 1159 2731 1159 2009 
Q 1159 1288 1364 580 
Q 1569 -128 1984 -844 
L 1484 -844 
Q 1016 -109 783 600 
Q 550 1309 550 2009 
Q 550 2706 781 3412 
Q 1013 4119 1484 4856 
L 1984 4856 
z
" transform="scale(0.015625)"/>
       <path id="DejaVuSans-67" d="M 2906 1791 
Q 2906 2416 2648 2759 
Q 2391 3103 1925 3103 
Q 1463 3103 1205 2759 
Q 947 2416 947 1791 
Q 947 1169 1205 825 
Q 1463 481 1925 481 
Q 2391 481 2648 825 
Q 2906 1169 2906 1791 
z
M 3481 434 
Q 3481 -459 3084 -895 
Q 2688 -1331 1869 -1331 
Q 1566 -1331 1297 -1286 
Q 1028 -1241 775 -1147 
L 775 -588 
Q 1028 -725 1275 -790 
Q 1522 -856 1778 -856 
Q 2344 -856 2625 -561 
Q 2906 -266 2906 331 
L 2906 616 
Q 2728 306 2450 153 
Q 2172 0 1784 0 
Q 1141 0 747 490 
Q 353 981 353 1791 
Q 353 2603 747 3093 
Q 1141 3584 1784 3584 
Q 2172 3584 2450 3431 
Q 2728 3278 2906 2969 
L 2906 3500 
L 3481 3500 
L 3481 434 
z
" transform="scale(0.015625)"/>
       <path id="DejaVuSans-63" d="M 3122 3366 
L 3122 2828 
Q 2878 2963 2633 3030 
Q 2388 3097 2138 3097 
Q 1578 3097 1268 2742 
Q 959 2388 959 1747 
Q 959 1106 1268 751 
Q 1578 397 2138 397 
Q 2388 397 2633 464 
Q 2878 531 3122 666 
L 3122 134 
Q 2881 22 2623 -34 
Q 2366 -91 2075 -91 
Q 1284 -91 818 406 
Q 353 903 353 1747 
Q 353 2603 823 3093 
Q 1294 3584 2113 3584 
Q 2378 3584 2631 3529 
Q 2884 3475 3122 3366 
z
" transform="scale(0.015625)"/>
       <path id="DejaVuSans-29" d="M 513 4856 
L 1013 4856 
Q 1481 4119 1714 3412 
Q 1947 2706 1947 2009 
Q 1947 1309 1714 600 
Q 1481 -109 1013 -844 
L 513 -844 
Q 928 -128 1133 580 
Q 1338 1288 1338 2009 
Q 1338 2731 1133 3434 
Q 928 4138 513 4856 
z
" transform="scale(0.015625)"/>
      </defs>
      <use xlink:href="#DejaVuSans-41" transform="translate(0 0.515625)"/>
      <use xlink:href="#DejaVuSans-62" transform="translate(68.408203 0.515625)"/>
      <use xlink:href="#DejaVuSans-73" transform="translate(131.884766 0.515625)"/>
      <use xlink:href="#DejaVuSans-6f" transform="translate(183.984375 0.515625)"/>
      <use xlink:href="#DejaVuSans-6c" transform="translate(245.166016 0.515625)"/>
      <use xlink:href="#DejaVuSans-75" transform="translate(272.949219 0.515625)"/>
      <use xlink:href="#DejaVuSans-74" transform="translate(336.328125 0.515625)"/>
      <use xlink:href="#DejaVuSans-65" transform="translate(375.537109 0.515625)"/>
      <use xlink:href="#DejaVuSans-20" transform="translate(437.060547 0.515625)"/>
      <use xlink:href="#DejaVuSans-45" transform="translate(468.847656 0.515625)"/>
      <use xlink:href="#DejaVuSans-72" transform="translate(532.03125 0.515625)"/>
      <use xlink:href="#DejaVuSans-72" transform="translate(573.144531 0.515625)"/>
      <use xlink:href="#DejaVuSans-6f" transform="translate(614.257812 0.515625)"/>
      <use xlink:href="#DejaVuSans-72" transform="translate(675.439453 0.515625)"/>
      <use xlink:href="#DejaVuSans-20" transform="translate(716.552734 0.515625)"/>
      <use xlink:href="#DejaVuSans-20" transform="translate(748.339844 0.515625)"/>
      <use xlink:href="#DejaVuSans-7c" transform="translate(780.126953 0.515625)"/>
      <use xlink:href="#DejaVuSans-302" transform="translate(876.777344 13.015625)"/>
      <use xlink:href="#DejaVuSans-Oblique-65" transform="translate(813.818359 0.515625)"/>
      <use xlink:href="#DejaVuSans-2212" transform="translate(894.824219 0.515625)"/>
      <use xlink:href="#DejaVuSans-Oblique-65" transform="translate(998.095703 0.515625)"/>
      <use xlink:href="#DejaVuSans-7c" transform="translate(1059.619141 0.515625)"/>
      <use xlink:href="#DejaVuSans-20" transform="translate(1093.310547 0.515625)"/>
      <use xlink:href="#DejaVuSans-20" transform="translate(1125.097656 0.515625)"/>
      <use xlink:href="#DejaVuSans-28" transform="translate(1156.884766 0.515625)"/>
      <use xlink:href="#DejaVuSans-6c" transform="translate(1195.898438 0.515625)"/>
      <use xlink:href="#DejaVuSans-6f" transform="translate(1223.681641 0.515625)"/>
      <use xlink:href="#DejaVuSans-67" transform="translate(1284.863281 0.515625)"/>
      <use xlink:href="#DejaVuSans-20" transform="translate(1348.339844 0.515625)"/>
      <use xlink:href="#DejaVuSans-73" transform="translate(1380.126953 0.515625)"/>
      <use xlink:href="#DejaVuSans-63" transform="translate(1432.226562 0.515625)"/>
      <use xlink:href="#DejaVuSans-61" transform="translate(1487.207031 0.515625)"/>
      <use xlink:href="#DejaVuSans-6c" transform="translate(1548.486328 0.515625)"/>
      <use xlink:href="#DejaVuSans-65" transform="translate(1576.269531 0.515625)"/>
      <use xlink:href="#DejaVuSans-29" transform="translate(1637.792969 0.515625)"/>
     </g>
    </g>
   </g>
   <g id="line2d_37">
    <path d="M 85.025 98.323086 
L 103.16 103.981421 
L 121.295 109.639756 
L 139.43 115.298091 
L 157.565 120.956426 
L 175.7 126.614761 
L 193.835 132.273096 
L 211.97 137.931431 
L 230.105 143.589766 
L 248.24 149.248101 
L 266.375 154.906436 
L 284.51 160.564771 
L 302.645 166.223106 
L 320.78 171.881442 
L 338.915 177.539777 
L 357.05 183.198112 
L 375.185 188.856447 
L 393.32 194.514782 
L 411.455 200.173117 
L 429.59 205.831452 
L 447.725 211.489787 
L 465.86 217.148122 
L 483.995 222.806457 
L 502.13 228.464792 
L 520.265 234.123127 
L 538.4 239.781462 
L 556.535 245.439797 
L 574.67 251.098132 
L 592.805 256.756467 
L 610.94 262.414802 
L 629.075 268.073137 
L 647.21 273.731472 
L 665.345 279.389807 
L 683.48 285.048142 
L 701.615 290.706477 
L 719.75 296.364812 
L 737.885 302.023147 
L 756.02 307.681482 
L 774.155 313.339817 
L 792.29 318.998152 
" clip-path="url(#pc69193186e)" style="fill: none; stroke-dasharray: 1.2,1.98; stroke-dashoffset: 0; stroke: #f39c12; stroke-opacity: 0.7; stroke-width: 1.2"/>
   </g>
   <g id="patch_3">
    <path d="M 66.89 460.8 
L 66.89 72.72 
" style="fill: none; stroke: #2a2a4a; stroke-width: 0.8; stroke-linejoin: miter; stroke-linecap: square"/>
   </g>
   <g id="patch_4">
    <path d="M 792.29 460.8 
L 792.29 72.72 
" style="fill: none; stroke: #2a2a4a; stroke-width: 0.8; stroke-linejoin: miter; stroke-linecap: square"/>
   </g>
   <g id="patch_5">
    <path d="M 66.89 460.8 
L 792.29 460.8 
" style="fill: none; stroke: #2a2a4a; stroke-width: 0.8; stroke-linejoin: miter; stroke-linecap: square"/>
   </g>
   <g id="patch_6">
    <path d="M 66.89 72.72 
L 792.29 72.72 
" style="fill: none; stroke: #2a2a4a; stroke-width: 0.8; stroke-linejoin: miter; stroke-linecap: square"/>
   </g>
   <g id="line2d_38">
    <path d="M 85.025 102.352064 
L 103.16 106.460231 
L 121.295 111.115517 
L 139.43 116.157204 
L 157.565 121.44949 
L 175.7 126.895317 
L 193.835 132.431929 
L 211.97 138.021091 
L 230.105 143.640295 
L 248.24 149.27655 
L 266.375 154.922445 
L 284.51 160.573777 
L 302.645 166.228172 
L 320.78 171.88429 
L 338.915 177.541379 
L 357.05 183.199013 
L 375.185 188.856953 
L 393.32 194.515068 
L 411.455 200.173275 
L 429.59 205.831555 
L 447.725 211.489862 
L 465.86 217.148161 
L 483.995 222.805904 
L 502.13 228.463184 
L 520.265 234.1289 
L 538.4 239.772841 
L 556.535 245.461745 
L 574.67 251.213591 
L 592.805 256.406321 
L 610.94 262.771442 
L 629.075 269.81901 
L 647.21 265.912318 
L 665.345 275.764476 
L 683.48 254.292809 
L 701.615 249.003585 
L 719.75 246.206726 
L 737.885 247.46278 
L 756.02 238.776398 
L 774.155 238.045505 
L 792.29 246.153088 
" clip-path="url(#pc69193186e)" style="fill: none; stroke: #ffd700; stroke-width: 2.5; stroke-linecap: square"/>
    <defs>
     <path id="m82b1d59111" d="M -3.5 3.5 
L 3.5 3.5 
L 3.5 -3.5 
L -3.5 -3.5 
z
" style="stroke: #ffd700; stroke-width: 1.5; stroke-linejoin: miter"/>
    </defs>
    <g clip-path="url(#pc69193186e)">
     <use xlink:href="#m82b1d59111" x="85.025" y="102.352064" style="fill: #ffffff; stroke: #ffd700; stroke-width: 1.5; stroke-linejoin: miter"/>
     <use xlink:href="#m82b1d59111" x="103.16" y="106.460231" style="fill: #ffffff; stroke: #ffd700; stroke-width: 1.5; stroke-linejoin: miter"/>
     <use xlink:href="#m82b1d59111" x="121.295" y="111.115517" style="fill: #ffffff; stroke: #ffd700; stroke-width: 1.5; stroke-linejoin: miter"/>
     <use xlink:href="#m82b1d59111" x="139.43" y="116.157204" style="fill: #ffffff; stroke: #ffd700; stroke-width: 1.5; stroke-linejoin: miter"/>
     <use xlink:href="#m82b1d59111" x="157.565" y="121.44949" style="fill: #ffffff; stroke: #ffd700; stroke-width: 1.5; stroke-linejoin: miter"/>
     <use xlink:href="#m82b1d59111" x="175.7" y="126.895317" style="fill: #ffffff; stroke: #ffd700; stroke-width: 1.5; stroke-linejoin: miter"/>
     <use xlink:href="#m82b1d59111" x="193.835" y="132.431929" style="fill: #ffffff; stroke: #ffd700; stroke-width: 1.5; stroke-linejoin: miter"/>
     <use xlink:href="#m82b1d59111" x="211.97" y="138.021091" style="fill: #ffffff; stroke: #ffd700; stroke-width: 1.5; stroke-linejoin: miter"/>
     <use xlink:href="#m82b1d59111" x="230.105" y="143.640295" style="fill: #ffffff; stroke: #ffd700; stroke-width: 1.5; stroke-linejoin: miter"/>
     <use xlink:href="#m82b1d59111" x="248.24" y="149.27655" style="fill: #ffffff; stroke: #ffd700; stroke-width: 1.5; stroke-linejoin: miter"/>
     <use xlink:href="#m82b1d59111" x="266.375" y="154.922445" style="fill: #ffffff; stroke: #ffd700; stroke-width: 1.5; stroke-linejoin: miter"/>
     <use xlink:href="#m82b1d59111" x="284.51" y="160.573777" style="fill: #ffffff; stroke: #ffd700; stroke-width: 1.5; stroke-linejoin: miter"/>
     <use xlink:href="#m82b1d59111" x="302.645" y="166.228172" style="fill: #ffffff; stroke: #ffd700; stroke-width: 1.5; stroke-linejoin: miter"/>
     <use xlink:href="#m82b1d59111" x="320.78" y="171.88429" style="fill: #ffffff; stroke: #ffd700; stroke-width: 1.5; stroke-linejoin: miter"/>
     <use xlink:href="#m82b1d59111" x="338.915" y="177.541379" style="fill: #ffffff; stroke: #ffd700; stroke-width: 1.5; stroke-linejoin: miter"/>
     <use xlink:href="#m82b1d59111" x="357.05" y="183.199013" style="fill: #ffffff; stroke: #ffd700; stroke-width: 1.5; stroke-linejoin: miter"/>
     <use xlink:href="#m82b1d59111" x="375.185" y="188.856953" style="fill: #ffffff; stroke: #ffd700; stroke-width: 1.5; stroke-linejoin: miter"/>
     <use xlink:href="#m82b1d59111" x="393.32" y="194.515068" style="fill: #ffffff; stroke: #ffd700; stroke-width: 1.5; stroke-linejoin: miter"/>
     <use xlink:href="#m82b1d59111" x="411.455" y="200.173275" style="fill: #ffffff; stroke: #ffd700; stroke-width: 1.5; stroke-linejoin: miter"/>
     <use xlink:href="#m82b1d59111" x="429.59" y="205.831555" style="fill: #ffffff; stroke: #ffd700; stroke-width: 1.5; stroke-linejoin: miter"/>
     <use xlink:href="#m82b1d59111" x="447.725" y="211.489862" style="fill: #ffffff; stroke: #ffd700; stroke-width: 1.5; stroke-linejoin: miter"/>
     <use xlink:href="#m82b1d59111" x="465.86" y="217.148161" style="fill: #ffffff; stroke: #ffd700; stroke-width: 1.5; stroke-linejoin: miter"/>
     <use xlink:href="#m82b1d59111" x="483.995" y="222.805904" style="fill: #ffffff; stroke: #ffd700; stroke-width: 1.5; stroke-linejoin: miter"/>
     <use xlink:href="#m82b1d59111" x="502.13" y="228.463184" style="fill: #ffffff; stroke: #ffd700; stroke-width: 1.5; stroke-linejoin: miter"/>
     <use xlink:href="#m82b1d59111" x="520.265" y="234.1289" style="fill: #ffffff; stroke: #ffd700; stroke-width: 1.5; stroke-linejoin: miter"/>
     <use xlink:href="#m82b1d59111" x="538.4" y="239.772841" style="fill: #ffffff; stroke: #ffd700; stroke-width: 1.5; stroke-linejoin: miter"/>
     <use xlink:href="#m82b1d59111" x="556.535" y="245.461745" style="fill: #ffffff; stroke: #ffd700; stroke-width: 1.5; stroke-linejoin: miter"/>
     <use xlink:href="#m82b1d59111" x="574.67" y="251.213591" style="fill: #ffffff; stroke: #ffd700; stroke-width: 1.5; stroke-linejoin: miter"/>
     <use xlink:href="#m82b1d59111" x="592.805" y="256.406321" style="fill: #ffffff; stroke: #ffd700; stroke-width: 1.5; stroke-linejoin: miter"/>
     <use xlink:href="#m82b1d59111" x="610.94" y="262.771442" style="fill: #ffffff; stroke: #ffd700; stroke-width: 1.5; stroke-linejoin: miter"/>
     <use xlink:href="#m82b1d59111" x="629.075" y="269.81901" style="fill: #ffffff; stroke: #ffd700; stroke-width: 1.5; stroke-linejoin: miter"/>
     <use xlink:href="#m82b1d59111" x="647.21" y="265.912318" style="fill: #ffffff; stroke: #ffd700; stroke-width: 1.5; stroke-linejoin: miter"/>
     <use xlink:href="#m82b1d59111" x="665.345" y="275.764476" style="fill: #ffffff; stroke: #ffd700; stroke-width: 1.5; stroke-linejoin: miter"/>
     <use xlink:href="#m82b1d59111" x="683.48" y="254.292809" style="fill: #ffffff; stroke: #ffd700; stroke-width: 1.5; stroke-linejoin: miter"/>
     <use xlink:href="#m82b1d59111" x="701.615" y="249.003585" style="fill: #ffffff; stroke: #ffd700; stroke-width: 1.5; stroke-linejoin: miter"/>
     <use xlink:href="#m82b1d59111" x="719.75" y="246.206726" style="fill: #ffffff; stroke: #ffd700; stroke-width: 1.5; stroke-linejoin: miter"/>
     <use xlink:href="#m82b1d59111" x="737.885" y="247.46278" style="fill: #ffffff; stroke: #ffd700; stroke-width: 1.5; stroke-linejoin: miter"/>
     <use xlink:href="#m82b1d59111" x="756.02" y="238.776398" style="fill: #ffffff; stroke: #ffd700; stroke-width: 1.5; stroke-linejoin: miter"/>
     <use xlink:href="#m82b1d59111" x="774.155" y="238.045505" style="fill: #ffffff; stroke: #ffd700; stroke-width: 1.5; stroke-linejoin: miter"/>
     <use xlink:href="#m82b1d59111" x="792.29" y="246.153088" style="fill: #ffffff; stroke: #ffd700; stroke-width: 1.5; stroke-linejoin: miter"/>
    </g>
   </g>
   <g id="line2d_39">
    <path d="M 66.89 90.36 
L 85.025 98.933498 
L 103.16 110.641211 
L 121.295 124.815121 
L 139.43 140.998409 
L 157.565 158.868368 
L 175.7 178.187813 
L 193.835 198.776191 
L 211.97 220.491955 
L 230.105 243.221401 
L 248.24 266.871318 
L 266.375 291.363975 
L 284.51 316.633621 
L 302.645 342.624272 
L 320.78 369.293015 
L 338.915 396.691977 
L 357.05 427.339974 
L 375.185 443.16 
L 393.32 443.16 
L 411.455 443.16 
L 429.59 443.16 
L 447.725 443.16 
L 465.86 443.16 
L 483.995 443.16 
L 502.13 443.16 
L 520.265 443.16 
L 538.4 443.16 
L 556.535 443.16 
L 574.67 443.16 
L 592.805 443.16 
L 610.94 443.16 
L 629.075 443.16 
L 647.21 443.16 
L 665.345 443.16 
L 683.48 443.16 
L 701.615 443.16 
L 719.75 443.16 
L 737.885 443.16 
L 756.02 443.16 
L 774.155 443.16 
" clip-path="url(#pc69193186e)" style="fill: none; stroke: #2ecc71; stroke-width: 2.5; stroke-linecap: square"/>
    <defs>
     <path id="m3548874fe1" d="M 0 3.5 
C 0.928211 3.5 1.81853 3.131218 2.474874 2.474874 
C 3.131218 1.81853 3.5 0.928211 3.5 0 
C 3.5 -0.928211 3.131218 -1.81853 2.474874 -2.474874 
C 1.81853 -3.131218 0.928211 -3.5 0 -3.5 
C -0.928211 -3.5 -1.81853 -3.131218 -2.474874 -2.474874 
C -3.131218 -1.81853 -3.5 -0.928211 -3.5 0 
C -3.5 0.928211 -3.131218 1.81853 -2.474874 2.474874 
C -1.81853 3.131218 -0.928211 3.5 0 3.5 
z
" style="stroke: #2ecc71; stroke-width: 1.5"/>
    </defs>
    <g clip-path="url(#pc69193186e)">
     <use xlink:href="#m3548874fe1" x="66.89" y="90.36" style="fill: #ffffff; stroke: #2ecc71; stroke-width: 1.5"/>
     <use xlink:href="#m3548874fe1" x="85.025" y="98.933498" style="fill: #ffffff; stroke: #2ecc71; stroke-width: 1.5"/>
     <use xlink:href="#m3548874fe1" x="103.16" y="110.641211" style="fill: #ffffff; stroke: #2ecc71; stroke-width: 1.5"/>
     <use xlink:href="#m3548874fe1" x="121.295" y="124.815121" style="fill: #ffffff; stroke: #2ecc71; stroke-width: 1.5"/>
     <use xlink:href="#m3548874fe1" x="139.43" y="140.998409" style="fill: #ffffff; stroke: #2ecc71; stroke-width: 1.5"/>
     <use xlink:href="#m3548874fe1" x="157.565" y="158.868368" style="fill: #ffffff; stroke: #2ecc71; stroke-width: 1.5"/>
     <use xlink:href="#m3548874fe1" x="175.7" y="178.187813" style="fill: #ffffff; stroke: #2ecc71; stroke-width: 1.5"/>
     <use xlink:href="#m3548874fe1" x="193.835" y="198.776191" style="fill: #ffffff; stroke: #2ecc71; stroke-width: 1.5"/>
     <use xlink:href="#m3548874fe1" x="211.97" y="220.491955" style="fill: #ffffff; stroke: #2ecc71; stroke-width: 1.5"/>
     <use xlink:href="#m3548874fe1" x="230.105" y="243.221401" style="fill: #ffffff; stroke: #2ecc71; stroke-width: 1.5"/>
     <use xlink:href="#m3548874fe1" x="248.24" y="266.871318" style="fill: #ffffff; stroke: #2ecc71; stroke-width: 1.5"/>
     <use xlink:href="#m3548874fe1" x="266.375" y="291.363975" style="fill: #ffffff; stroke: #2ecc71; stroke-width: 1.5"/>
     <use xlink:href="#m3548874fe1" x="284.51" y="316.633621" style="fill: #ffffff; stroke: #2ecc71; stroke-width: 1.5"/>
     <use xlink:href="#m3548874fe1" x="302.645" y="342.624272" style="fill: #ffffff; stroke: #2ecc71; stroke-width: 1.5"/>
     <use xlink:href="#m3548874fe1" x="320.78" y="369.293015" style="fill: #ffffff; stroke: #2ecc71; stroke-width: 1.5"/>
     <use xlink:href="#m3548874fe1" x="338.915" y="396.691977" style="fill: #ffffff; stroke: #2ecc71; stroke-width: 1.5"/>
     <use xlink:href="#m3548874fe1" x="357.05" y="427.339974" style="fill: #ffffff; stroke: #2ecc71; stroke-width: 1.5"/>
     <use xlink:href="#m3548874fe1" x="375.185" y="443.16" style="fill: #ffffff; stroke: #2ecc71; stroke-width: 1.5"/>
     <use xlink:href="#m3548874fe1" x="393.32" y="443.16" style="fill: #ffffff; stroke: #2ecc71; stroke-width: 1.5"/>
     <use xlink:href="#m3548874fe1" x="411.455" y="443.16" style="fill: #ffffff; stroke: #2ecc71; stroke-width: 1.5"/>
     <use xlink:href="#m3548874fe1" x="429.59" y="443.16" style="fill: #ffffff; stroke: #2ecc71; stroke-width: 1.5"/>
     <use xlink:href="#m3548874fe1" x="447.725" y="443.16" style="fill: #ffffff; stroke: #2ecc71; stroke-width: 1.5"/>
     <use xlink:href="#m3548874fe1" x="465.86" y="443.16" style="fill: #ffffff; stroke: #2ecc71; stroke-width: 1.5"/>
     <use xlink:href="#m3548874fe1" x="483.995" y="443.16" style="fill: #ffffff; stroke: #2ecc71; stroke-width: 1.5"/>
     <use xlink:href="#m3548874fe1" x="502.13" y="443.16" style="fill: #ffffff; stroke: #2ecc71; stroke-width: 1.5"/>
     <use xlink:href="#m3548874fe1" x="520.265" y="443.16" style="fill: #ffffff; stroke: #2ecc71; stroke-width: 1.5"/>
     <use xlink:href="#m3548874fe1" x="538.4" y="443.16" style="fill: #ffffff; stroke: #2ecc71; stroke-width: 1.5"/>
     <use xlink:href="#m3548874fe1" x="556.535" y="443.16" style="fill: #ffffff; stroke: #2ecc71; stroke-width: 1.5"/>
     <use xlink:href="#m3548874fe1" x="574.67" y="443.16" style="fill: #ffffff; stroke: #2ecc71; stroke-width: 1.5"/>
     <use xlink:href="#m3548874fe1" x="592.805" y="443.16" style="fill: #ffffff; stroke: #2ecc71; stroke-width: 1.5"/>
     <use xlink:href="#m3548874fe1" x="610.94" y="443.16" style="fill: #ffffff; stroke: #2ecc71; stroke-width: 1.5"/>
     <use xlink:href="#m3548874fe1" x="629.075" y="443.16" style="fill: #ffffff; stroke: #2ecc71; stroke-width: 1.5"/>
     <use xlink:href="#m3548874fe1" x="647.21" y="443.16" style="fill: #ffffff; stroke: #2ecc71; stroke-width: 1.5"/>
     <use xlink:href="#m3548874fe1" x="665.345" y="443.16" style="fill: #ffffff; stroke: #2ecc71; stroke-width: 1.5"/>
     <use xlink:href="#m3548874fe1" x="683.48" y="443.16" style="fill: #ffffff; stroke: #2ecc71; stroke-width: 1.5"/>
     <use xlink:href="#m3548874fe1" x="701.615" y="443.16" style="fill: #ffffff; stroke: #2ecc71; stroke-width: 1.5"/>
     <use xlink:href="#m3548874fe1" x="719.75" y="443.16" style="fill: #ffffff; stroke: #2ecc71; stroke-width: 1.5"/>
     <use xlink:href="#m3548874fe1" x="737.885" y="443.16" style="fill: #ffffff; stroke: #2ecc71; stroke-width: 1.5"/>
     <use xlink:href="#m3548874fe1" x="756.02" y="443.16" style="fill: #ffffff; stroke: #2ecc71; stroke-width: 1.5"/>
     <use xlink:href="#m3548874fe1" x="774.155" y="443.16" style="fill: #ffffff; stroke: #2ecc71; stroke-width: 1.5"/>
    </g>
   </g>
   <g id="line2d_40">
    <path d="M 66.89 98.933498 
L 85.025 108.133499 
L 103.16 124.815121 
L 121.295 129.601374 
L 139.43 149.963917 
L 157.565 171.040827 
L 175.7 174.386412 
L 193.835 198.716222 
L 211.97 223.472592 
L 230.105 225.959879 
L 248.24 253.161665 
L 266.375 280.615565 
L 284.51 282.597211 
L 302.645 312.011981 
L 320.78 341.593709 
L 338.915 343.240836 
L 357.05 374.458086 
L 375.185 405.742279 
L 393.32 407.404221 
L 411.455 436.346686 
" clip-path="url(#pc69193186e)" style="fill: none; stroke: #9b59b6; stroke-width: 2.5; stroke-linecap: square"/>
    <defs>
     <path id="mcb8bb5fa9b" d="M -0 4.949747 
L 4.949747 0 
L 0 -4.949747 
L -4.949747 -0 
z
" style="stroke: #9b59b6; stroke-width: 1.5; stroke-linejoin: miter"/>
    </defs>
    <g clip-path="url(#pc69193186e)">
     <use xlink:href="#mcb8bb5fa9b" x="66.89" y="98.933498" style="fill: #ffffff; stroke: #9b59b6; stroke-width: 1.5; stroke-linejoin: miter"/>
     <use xlink:href="#mcb8bb5fa9b" x="85.025" y="108.133499" style="fill: #ffffff; stroke: #9b59b6; stroke-width: 1.5; stroke-linejoin: miter"/>
     <use xlink:href="#mcb8bb5fa9b" x="103.16" y="124.815121" style="fill: #ffffff; stroke: #9b59b6; stroke-width: 1.5; stroke-linejoin: miter"/>
     <use xlink:href="#mcb8bb5fa9b" x="121.295" y="129.601374" style="fill: #ffffff; stroke: #9b59b6; stroke-width: 1.5; stroke-linejoin: miter"/>
     <use xlink:href="#mcb8bb5fa9b" x="139.43" y="149.963917" style="fill: #ffffff; stroke: #9b59b6; stroke-width: 1.5; stroke-linejoin: miter"/>
     <use xlink:href="#mcb8bb5fa9b" x="157.565" y="171.040827" style="fill: #ffffff; stroke: #9b59b6; stroke-width: 1.5; stroke-linejoin: miter"/>
     <use xlink:href="#mcb8bb5fa9b" x="175.7" y="174.386412" style="fill: #ffffff; stroke: #9b59b6; stroke-width: 1.5; stroke-linejoin: miter"/>
     <use xlink:href="#mcb8bb5fa9b" x="193.835" y="198.716222" style="fill: #ffffff; stroke: #9b59b6; stroke-width: 1.5; stroke-linejoin: miter"/>
     <use xlink:href="#mcb8bb5fa9b" x="211.97" y="223.472592" style="fill: #ffffff; stroke: #9b59b6; stroke-width: 1.5; stroke-linejoin: miter"/>
     <use xlink:href="#mcb8bb5fa9b" x="230.105" y="225.959879" style="fill: #ffffff; stroke: #9b59b6; stroke-width: 1.5; stroke-linejoin: miter"/>
     <use xlink:href="#mcb8bb5fa9b" x="248.24" y="253.161665" style="fill: #ffffff; stroke: #9b59b6; stroke-width: 1.5; stroke-linejoin: miter"/>
     <use xlink:href="#mcb8bb5fa9b" x="266.375" y="280.615565" style="fill: #ffffff; stroke: #9b59b6; stroke-width: 1.5; stroke-linejoin: miter"/>
     <use xlink:href="#mcb8bb5fa9b" x="284.51" y="282.597211" style="fill: #ffffff; stroke: #9b59b6; stroke-width: 1.5; stroke-linejoin: miter"/>
     <use xlink:href="#mcb8bb5fa9b" x="302.645" y="312.011981" style="fill: #ffffff; stroke: #9b59b6; stroke-width: 1.5; stroke-linejoin: miter"/>
     <use xlink:href="#mcb8bb5fa9b" x="320.78" y="341.593709" style="fill: #ffffff; stroke: #9b59b6; stroke-width: 1.5; stroke-linejoin: miter"/>
     <use xlink:href="#mcb8bb5fa9b" x="338.915" y="343.240836" style="fill: #ffffff; stroke: #9b59b6; stroke-width: 1.5; stroke-linejoin: miter"/>
     <use xlink:href="#mcb8bb5fa9b" x="357.05" y="374.458086" style="fill: #ffffff; stroke: #9b59b6; stroke-width: 1.5; stroke-linejoin: miter"/>
     <use xlink:href="#mcb8bb5fa9b" x="375.185" y="405.742279" style="fill: #ffffff; stroke: #9b59b6; stroke-width: 1.5; stroke-linejoin: miter"/>
     <use xlink:href="#mcb8bb5fa9b" x="393.32" y="407.404221" style="fill: #ffffff; stroke: #9b59b6; stroke-width: 1.5; stroke-linejoin: miter"/>
     <use xlink:href="#mcb8bb5fa9b" x="411.455" y="436.346686" style="fill: #ffffff; stroke: #9b59b6; stroke-width: 1.5; stroke-linejoin: miter"/>
    </g>
   </g>
   <g id="text_21">
    <g id="patch_7">
     <path d="M 81.398 437.541256 
L 304.084406 437.541256 
Q 309.584406 437.541256 309.584406 432.041256 
L 309.584406 396.760131 
Q 309.584406 391.260131 304.084406 391.260131 
L 81.398 391.260131 
Q 75.898 391.260131 75.898 396.760131 
L 75.898 432.041256 
Q 75.898 437.541256 81.398 437.541256 
z
" style="fill: #1a1a2e; opacity: 0.85; stroke: #ffffff; stroke-linejoin: miter"/>
    </g>
    <!-- Factorial series wins! -->
    <g style="fill: #2ecc71" transform="translate(81.398 405.118412) scale(0.11 -0.11)">
     <defs>
      <path id="DejaVuSans-46" d="M 628 4666 
L 3309 4666 
L 3309 4134 
L 1259 4134 
L 1259 2759 
L 3109 2759 
L 3109 2228 
L 1259 2228 
L 1259 0 
L 628 0 
L 628 4666 
z
" transform="scale(0.015625)"/>
      <path id="DejaVuSans-77" d="M 269 3500 
L 844 3500 
L 1563 769 
L 2278 3500 
L 2956 3500 
L 3675 769 
L 4391 3500 
L 4966 3500 
L 4050 0 
L 3372 0 
L 2619 2869 
L 1863 0 
L 1184 0 
L 269 3500 
z
" transform="scale(0.015625)"/>
      <path id="DejaVuSans-21" d="M 966 794 
L 1600 794 
L 1600 0 
L 966 0 
L 966 794 
z
M 966 4666 
L 1600 4666 
L 1600 2619 
L 1538 1503 
L 1031 1503 
L 966 2619 
L 966 4666 
z
" transform="scale(0.015625)"/>
     </defs>
     <use xlink:href="#DejaVuSans-46"/>
     <use xlink:href="#DejaVuSans-61" transform="translate(48.394531 0)"/>
     <use xlink:href="#DejaVuSans-63" transform="translate(109.673828 0)"/>
     <use xlink:href="#DejaVuSans-74" transform="translate(164.654297 0)"/>
     <use xlink:href="#DejaVuSans-6f" transform="translate(203.863281 0)"/>
     <use xlink:href="#DejaVuSans-72" transform="translate(265.044922 0)"/>
     <use xlink:href="#DejaVuSans-69" transform="translate(306.158203 0)"/>
     <use xlink:href="#DejaVuSans-61" transform="translate(333.941406 0)"/>
     <use xlink:href="#DejaVuSans-6c" transform="translate(395.220703 0)"/>
     <use xlink:href="#DejaVuSans-20" transform="translate(423.003906 0)"/>
     <use xlink:href="#DejaVuSans-73" transform="translate(454.791016 0)"/>
     <use xlink:href="#DejaVuSans-65" transform="translate(506.890625 0)"/>
     <use xlink:href="#DejaVuSans-72" transform="translate(568.414062 0)"/>
     <use xlink:href="#DejaVuSans-69" transform="translate(609.527344 0)"/>
     <use xlink:href="#DejaVuSans-65" transform="translate(637.310547 0)"/>
     <use xlink:href="#DejaVuSans-73" transform="translate(698.833984 0)"/>
     <use xlink:href="#DejaVuSans-20" transform="translate(750.933594 0)"/>
     <use xlink:href="#DejaVuSans-77" transform="translate(782.720703 0)"/>
     <use xlink:href="#DejaVuSans-69" transform="translate(864.507812 0)"/>
     <use xlink:href="#DejaVuSans-6e" transform="translate(892.291016 0)"/>
     <use xlink:href="#DejaVuSans-73" transform="translate(955.669922 0)"/>
     <use xlink:href="#DejaVuSans-21" transform="translate(1007.769531 0)"/>
    </g>
    <!-- Reaches machine epsilon in ~17 terms. -->
    <g style="fill: #2ecc71" transform="translate(81.398 417.436006) scale(0.11 -0.11)">
     <defs>
      <path id="DejaVuSans-52" d="M 2841 2188 
Q 3044 2119 3236 1894 
Q 3428 1669 3622 1275 
L 4263 0 
L 3584 0 
L 2988 1197 
Q 2756 1666 2539 1819 
Q 2322 1972 1947 1972 
L 1259 1972 
L 1259 0 
L 628 0 
L 628 4666 
L 2053 4666 
Q 2853 4666 3247 4331 
Q 3641 3997 3641 3322 
Q 3641 2881 3436 2590 
Q 3231 2300 2841 2188 
z
M 1259 4147 
L 1259 2491 
L 2053 2491 
Q 2509 2491 2742 2702 
Q 2975 2913 2975 3322 
Q 2975 3731 2742 3939 
Q 2509 4147 2053 4147 
L 1259 4147 
z
" transform="scale(0.015625)"/>
      <path id="DejaVuSans-68" d="M 3513 2113 
L 3513 0 
L 2938 0 
L 2938 2094 
Q 2938 2591 2744 2837 
Q 2550 3084 2163 3084 
Q 1697 3084 1428 2787 
Q 1159 2491 1159 1978 
L 1159 0 
L 581 0 
L 581 4863 
L 1159 4863 
L 1159 2956 
Q 1366 3272 1645 3428 
Q 1925 3584 2291 3584 
Q 2894 3584 3203 3211 
Q 3513 2838 3513 2113 
z
" transform="scale(0.015625)"/>
      <path id="DejaVuSans-6d" d="M 3328 2828 
Q 3544 3216 3844 3400 
Q 4144 3584 4550 3584 
Q 5097 3584 5394 3201 
Q 5691 2819 5691 2113 
L 5691 0 
L 5113 0 
L 5113 2094 
Q 5113 2597 4934 2840 
Q 4756 3084 4391 3084 
Q 3944 3084 3684 2787 
Q 3425 2491 3425 1978 
L 3425 0 
L 2847 0 
L 2847 2094 
Q 2847 2600 2669 2842 
Q 2491 3084 2119 3084 
Q 1678 3084 1418 2786 
Q 1159 2488 1159 1978 
L 1159 0 
L 581 0 
L 581 3500 
L 1159 3500 
L 1159 2956 
Q 1356 3278 1631 3431 
Q 1906 3584 2284 3584 
Q 2666 3584 2933 3390 
Q 3200 3197 3328 2828 
z
" transform="scale(0.015625)"/>
      <path id="DejaVuSans-70" d="M 1159 525 
L 1159 -1331 
L 581 -1331 
L 581 3500 
L 1159 3500 
L 1159 2969 
Q 1341 3281 1617 3432 
Q 1894 3584 2278 3584 
Q 2916 3584 3314 3078 
Q 3713 2572 3713 1747 
Q 3713 922 3314 415 
Q 2916 -91 2278 -91 
Q 1894 -91 1617 61 
Q 1341 213 1159 525 
z
M 3116 1747 
Q 3116 2381 2855 2742 
Q 2594 3103 2138 3103 
Q 1681 3103 1420 2742 
Q 1159 2381 1159 1747 
Q 1159 1113 1420 752 
Q 1681 391 2138 391 
Q 2594 391 2855 752 
Q 3116 1113 3116 1747 
z
" transform="scale(0.015625)"/>
      <path id="DejaVuSans-7e" d="M 4684 2553 
L 4684 1997 
Q 4356 1750 4076 1644 
Q 3797 1538 3494 1538 
Q 3150 1538 2694 1722 
Q 2659 1734 2644 1741 
Q 2622 1750 2575 1766 
Q 2091 1959 1797 1959 
Q 1522 1959 1253 1839 
Q 984 1719 678 1459 
L 678 2016 
Q 1006 2263 1286 2370 
Q 1566 2478 1869 2478 
Q 2213 2478 2672 2291 
Q 2703 2278 2719 2272 
Q 2744 2263 2788 2247 
Q 3272 2053 3566 2053 
Q 3834 2053 4098 2172 
Q 4363 2291 4684 2553 
z
" transform="scale(0.015625)"/>
      <path id="DejaVuSans-2e" d="M 684 794 
L 1344 794 
L 1344 0 
L 684 0 
L 684 794 
z
" transform="scale(0.015625)"/>
     </defs>
     <use xlink:href="#DejaVuSans-52"/>
     <use xlink:href="#DejaVuSans-65" transform="translate(64.982422 0)"/>
     <use xlink:href="#DejaVuSans-61" transform="translate(126.505859 0)"/>
     <use xlink:href="#DejaVuSans-63" transform="translate(187.785156 0)"/>
     <use xlink:href="#DejaVuSans-68" transform="translate(242.765625 0)"/>
     <use xlink:href="#DejaVuSans-65" transform="translate(306.144531 0)"/>
     <use xlink:href="#DejaVuSans-73" transform="translate(367.667969 0)"/>
     <use xlink:href="#DejaVuSans-20" transform="translate(419.767578 0)"/>
     <use xlink:href="#DejaVuSans-6d" transform="translate(451.554688 0)"/>
     <use xlink:href="#DejaVuSans-61" transform="translate(548.966797 0)"/>
     <use xlink:href="#DejaVuSans-63" transform="translate(610.246094 0)"/>
     <use xlink:href="#DejaVuSans-68" transform="translate(665.226562 0)"/>
     <use xlink:href="#DejaVuSans-69" transform="translate(728.605469 0)"/>
     <use xlink:href="#DejaVuSans-6e" transform="translate(756.388672 0)"/>
     <use xlink:href="#DejaVuSans-65" transform="translate(819.767578 0)"/>
     <use xlink:href="#DejaVuSans-20" transform="translate(881.291016 0)"/>
     <use xlink:href="#DejaVuSans-65" transform="translate(913.078125 0)"/>
     <use xlink:href="#DejaVuSans-70" transform="translate(974.601562 0)"/>
     <use xlink:href="#DejaVuSans-73" transform="translate(1038.078125 0)"/>
     <use xlink:href="#DejaVuSans-69" transform="translate(1090.177734 0)"/>
     <use xlink:href="#DejaVuSans-6c" transform="translate(1117.960938 0)"/>
     <use xlink:href="#DejaVuSans-6f" transform="translate(1145.744141 0)"/>
     <use xlink:href="#DejaVuSans-6e" transform="translate(1206.925781 0)"/>
     <use xlink:href="#DejaVuSans-20" transform="translate(1270.304688 0)"/>
     <use xlink:href="#DejaVuSans-69" transform="translate(1302.091797 0)"/>
     <use xlink:href="#DejaVuSans-6e" transform="translate(1329.875 0)"/>
     <use xlink:href="#DejaVuSans-20" transform="translate(1393.253906 0)"/>
     <use xlink:href="#DejaVuSans-7e" transform="translate(1425.041016 0)"/>
     <use xlink:href="#DejaVuSans-31" transform="translate(1508.830078 0)"/>
     <use xlink:href="#DejaVuSans-37" transform="translate(1572.453125 0)"/>
     <use xlink:href="#DejaVuSans-20" transform="translate(1636.076172 0)"/>
     <use xlink:href="#DejaVuSans-74" transform="translate(1667.863281 0)"/>
     <use xlink:href="#DejaVuSans-65" transform="translate(1707.072266 0)"/>
     <use xlink:href="#DejaVuSans-72" transform="translate(1768.595703 0)"/>
     <use xlink:href="#DejaVuSans-6d" transform="translate(1807.958984 0)"/>
     <use xlink:href="#DejaVuSans-73" transform="translate(1905.371094 0)"/>
     <use xlink:href="#DejaVuSans-2e" transform="translate(1957.470703 0)"/>
    </g>
    <!-- Continued fraction beats limit definition. -->
    <g style="fill: #2ecc71" transform="translate(81.398 429.7536) scale(0.11 -0.11)">
     <defs>
      <path id="DejaVuSans-43" d="M 4122 4306 
L 4122 3641 
Q 3803 3938 3442 4084 
Q 3081 4231 2675 4231 
Q 1875 4231 1450 3742 
Q 1025 3253 1025 2328 
Q 1025 1406 1450 917 
Q 1875 428 2675 428 
Q 3081 428 3442 575 
Q 3803 722 4122 1019 
L 4122 359 
Q 3791 134 3420 21 
Q 3050 -91 2638 -91 
Q 1578 -91 968 557 
Q 359 1206 359 2328 
Q 359 3453 968 4101 
Q 1578 4750 2638 4750 
Q 3056 4750 3426 4639 
Q 3797 4528 4122 4306 
z
" transform="scale(0.015625)"/>
      <path id="DejaVuSans-66" d="M 2375 4863 
L 2375 4384 
L 1825 4384 
Q 1516 4384 1395 4259 
Q 1275 4134 1275 3809 
L 1275 3500 
L 2222 3500 
L 2222 3053 
L 1275 3053 
L 1275 0 
L 697 0 
L 697 3053 
L 147 3053 
L 147 3500 
L 697 3500 
L 697 3744 
Q 697 4328 969 4595 
Q 1241 4863 1831 4863 
L 2375 4863 
z
" transform="scale(0.015625)"/>
     </defs>
     <use xlink:href="#DejaVuSans-43"/>
     <use xlink:href="#DejaVuSans-6f" transform="translate(69.824219 0)"/>
     <use xlink:href="#DejaVuSans-6e" transform="translate(131.005859 0)"/>
     <use xlink:href="#DejaVuSans-74" transform="translate(194.384766 0)"/>
     <use xlink:href="#DejaVuSans-69" transform="translate(233.59375 0)"/>
     <use xlink:href="#DejaVuSans-6e" transform="translate(261.376953 0)"/>
     <use xlink:href="#DejaVuSans-75" transform="translate(324.755859 0)"/>
     <use xlink:href="#DejaVuSans-65" transform="translate(388.134766 0)"/>
     <use xlink:href="#DejaVuSans-64" transform="translate(449.658203 0)"/>
     <use xlink:href="#DejaVuSans-20" transform="translate(513.134766 0)"/>
     <use xlink:href="#DejaVuSans-66" transform="translate(544.921875 0)"/>
     <use xlink:href="#DejaVuSans-72" transform="translate(580.126953 0)"/>
     <use xlink:href="#DejaVuSans-61" transform="translate(621.240234 0)"/>
     <use xlink:href="#DejaVuSans-63" transform="translate(682.519531 0)"/>
     <use xlink:href="#DejaVuSans-74" transform="translate(737.5 0)"/>
     <use xlink:href="#DejaVuSans-69" transform="translate(776.708984 0)"/>
     <use xlink:href="#DejaVuSans-6f" transform="translate(804.492188 0)"/>
     <use xlink:href="#DejaVuSans-6e" transform="translate(865.673828 0)"/>
     <use xlink:href="#DejaVuSans-20" transform="translate(929.052734 0)"/>
     <use xlink:href="#DejaVuSans-62" transform="translate(960.839844 0)"/>
     <use xlink:href="#DejaVuSans-65" transform="translate(1024.316406 0)"/>
     <use xlink:href="#DejaVuSans-61" transform="translate(1085.839844 0)"/>
     <use xlink:href="#DejaVuSans-74" transform="translate(1147.119141 0)"/>
     <use xlink:href="#DejaVuSans-73" transform="translate(1186.328125 0)"/>
     <use xlink:href="#DejaVuSans-20" transform="translate(1238.427734 0)"/>
     <use xlink:href="#DejaVuSans-6c" transform="translate(1270.214844 0)"/>
     <use xlink:href="#DejaVuSans-69" transform="translate(1297.998047 0)"/>
     <use xlink:href="#DejaVuSans-6d" transform="translate(1325.78125 0)"/>
     <use xlink:href="#DejaVuSans-69" transform="translate(1423.193359 0)"/>
     <use xlink:href="#DejaVuSans-74" transform="translate(1450.976562 0)"/>
     <use xlink:href="#DejaVuSans-20" transform="translate(1490.185547 0)"/>
     <use xlink:href="#DejaVuSans-64" transform="translate(1521.972656 0)"/>
     <use xlink:href="#DejaVuSans-65" transform="translate(1585.449219 0)"/>
     <use xlink:href="#DejaVuSans-66" transform="translate(1646.972656 0)"/>
     <use xlink:href="#DejaVuSans-69" transform="translate(1682.177734 0)"/>
     <use xlink:href="#DejaVuSans-6e" transform="translate(1709.960938 0)"/>
     <use xlink:href="#DejaVuSans-69" transform="translate(1773.339844 0)"/>
     <use xlink:href="#DejaVuSans-74" transform="translate(1801.123047 0)"/>
     <use xlink:href="#DejaVuSans-69" transform="translate(1840.332031 0)"/>
     <use xlink:href="#DejaVuSans-6f" transform="translate(1868.115234 0)"/>
     <use xlink:href="#DejaVuSans-6e" transform="translate(1929.296875 0)"/>
     <use xlink:href="#DejaVuSans-2e" transform="translate(1992.675781 0)"/>
    </g>
   </g>
   <g id="text_22">
    <!-- Convergence Race: Three Methods for Computing $e$ -->
    <g style="fill: #eaeaea" transform="translate(221.83 58.72) scale(0.16 -0.16)">
     <defs>
      <path id="DejaVuSans-76" d="M 191 3500 
L 800 3500 
L 1894 563 
L 2988 3500 
L 3597 3500 
L 2284 0 
L 1503 0 
L 191 3500 
z
" transform="scale(0.015625)"/>
      <path id="DejaVuSans-3a" d="M 750 794 
L 1409 794 
L 1409 0 
L 750 0 
L 750 794 
z
M 750 3309 
L 1409 3309 
L 1409 2516 
L 750 2516 
L 750 3309 
z
" transform="scale(0.015625)"/>
      <path id="DejaVuSans-54" d="M -19 4666 
L 3928 4666 
L 3928 4134 
L 2272 4134 
L 2272 0 
L 1638 0 
L 1638 4134 
L -19 4134 
L -19 4666 
z
" transform="scale(0.015625)"/>
      <path id="DejaVuSans-4d" d="M 628 4666 
L 1569 4666 
L 2759 1491 
L 3956 4666 
L 4897 4666 
L 4897 0 
L 4281 0 
L 4281 4097 
L 3078 897 
L 2444 897 
L 1241 4097 
L 1241 0 
L 628 0 
L 628 4666 
z
" transform="scale(0.015625)"/>
     </defs>
     <use xlink:href="#DejaVuSans-43" transform="translate(0 0.015625)"/>
     <use xlink:href="#DejaVuSans-6f" transform="translate(69.824219 0.015625)"/>
     <use xlink:href="#DejaVuSans-6e" transform="translate(131.005859 0.015625)"/>
     <use xlink:href="#DejaVuSans-76" transform="translate(194.384766 0.015625)"/>
     <use xlink:href="#DejaVuSans-65" transform="translate(253.564453 0.015625)"/>
     <use xlink:href="#DejaVuSans-72" transform="translate(315.087891 0.015625)"/>
     <use xlink:href="#DejaVuSans-67" transform="translate(356.201172 0.015625)"/>
     <use xlink:href="#DejaVuSans-65" transform="translate(419.677734 0.015625)"/>
     <use xlink:href="#DejaVuSans-6e" transform="translate(481.201172 0.015625)"/>
     <use xlink:href="#DejaVuSans-63" transform="translate(544.580078 0.015625)"/>
     <use xlink:href="#DejaVuSans-65" transform="translate(599.560547 0.015625)"/>
     <use xlink:href="#DejaVuSans-20" transform="translate(661.083984 0.015625)"/>
     <use xlink:href="#DejaVuSans-52" transform="translate(692.871094 0.015625)"/>
     <use xlink:href="#DejaVuSans-61" transform="translate(762.353516 0.015625)"/>
     <use xlink:href="#DejaVuSans-63" transform="translate(823.632812 0.015625)"/>
     <use xlink:href="#DejaVuSans-65" transform="translate(878.613281 0.015625)"/>
     <use xlink:href="#DejaVuSans-3a" transform="translate(940.136719 0.015625)"/>
     <use xlink:href="#DejaVuSans-20" transform="translate(973.828125 0.015625)"/>
     <use xlink:href="#DejaVuSans-54" transform="translate(1005.615234 0.015625)"/>
     <use xlink:href="#DejaVuSans-68" transform="translate(1066.699219 0.015625)"/>
     <use xlink:href="#DejaVuSans-72" transform="translate(1130.078125 0.015625)"/>
     <use xlink:href="#DejaVuSans-65" transform="translate(1171.191406 0.015625)"/>
     <use xlink:href="#DejaVuSans-65" transform="translate(1232.714844 0.015625)"/>
     <use xlink:href="#DejaVuSans-20" transform="translate(1294.238281 0.015625)"/>
     <use xlink:href="#DejaVuSans-4d" transform="translate(1326.025391 0.015625)"/>
     <use xlink:href="#DejaVuSans-65" transform="translate(1412.304688 0.015625)"/>
     <use xlink:href="#DejaVuSans-74" transform="translate(1473.828125 0.015625)"/>
     <use xlink:href="#DejaVuSans-68" transform="translate(1513.037109 0.015625)"/>
     <use xlink:href="#DejaVuSans-6f" transform="translate(1576.416016 0.015625)"/>
     <use xlink:href="#DejaVuSans-64" transform="translate(1637.597656 0.015625)"/>
     <use xlink:href="#DejaVuSans-73" transform="translate(1701.074219 0.015625)"/>
     <use xlink:href="#DejaVuSans-20" transform="translate(1753.173828 0.015625)"/>
     <use xlink:href="#DejaVuSans-66" transform="translate(1784.960938 0.015625)"/>
     <use xlink:href="#DejaVuSans-6f" transform="translate(1820.166016 0.015625)"/>
     <use xlink:href="#DejaVuSans-72" transform="translate(1881.347656 0.015625)"/>
     <use xlink:href="#DejaVuSans-20" transform="translate(1922.460938 0.015625)"/>
     <use xlink:href="#DejaVuSans-43" transform="translate(1954.248047 0.015625)"/>
     <use xlink:href="#DejaVuSans-6f" transform="translate(2024.072266 0.015625)"/>
     <use xlink:href="#DejaVuSans-6d" transform="translate(2085.253906 0.015625)"/>
     <use xlink:href="#DejaVuSans-70" transform="translate(2182.666016 0.015625)"/>
     <use xlink:href="#DejaVuSans-75" transform="translate(2246.142578 0.015625)"/>
     <use xlink:href="#DejaVuSans-74" transform="translate(2309.521484 0.015625)"/>
     <use xlink:href="#DejaVuSans-69" transform="translate(2348.730469 0.015625)"/>
     <use xlink:href="#DejaVuSans-6e" transform="translate(2376.513672 0.015625)"/>
     <use xlink:href="#DejaVuSans-67" transform="translate(2439.892578 0.015625)"/>
     <use xlink:href="#DejaVuSans-20" transform="translate(2503.369141 0.015625)"/>
     <use xlink:href="#DejaVuSans-Oblique-65" transform="translate(2535.15625 0.015625)"/>
    </g>
   </g>
   <g id="legend_1">
    <g id="patch_8">
     <path d="M 507.989844 149.757813 
L 784.59 149.757813 
Q 786.79 149.757813 786.79 147.557813 
L 786.79 80.42 
Q 786.79 78.22 784.59 78.22 
L 507.989844 78.22 
Q 505.789844 78.22 505.789844 80.42 
L 505.789844 147.557813 
Q 505.789844 149.757813 507.989844 149.757813 
z
" style="fill: #16213e; opacity: 0.8; stroke: #2a2a4a; stroke-linejoin: miter"/>
    </g>
    <g id="line2d_41">
     <path d="M 510.189844 87.128281 
L 521.189844 87.128281 
L 532.189844 87.128281 
" style="fill: none; stroke: #ffd700; stroke-width: 2.5; stroke-linecap: square"/>
     <g>
      <use xlink:href="#m82b1d59111" x="521.189844" y="87.128281" style="fill: #ffffff; stroke: #ffd700; stroke-width: 1.5; stroke-linejoin: miter"/>
     </g>
    </g>
    <g id="text_23">
     <!-- Method 1: $(1+1/n)^n$  [slow, $O(1/n)$] -->
     <g style="fill: #eaeaea" transform="translate(540.989844 90.978281) scale(0.11 -0.11)">
      <defs>
       <path id="DejaVuSans-2b" d="M 2944 4013 
L 2944 2272 
L 4684 2272 
L 4684 1741 
L 2944 1741 
L 2944 0 
L 2419 0 
L 2419 1741 
L 678 1741 
L 678 2272 
L 2419 2272 
L 2419 4013 
L 2944 4013 
z
" transform="scale(0.015625)"/>
       <path id="DejaVuSans-2f" d="M 1625 4666 
L 2156 4666 
L 531 -594 
L 0 -594 
L 1625 4666 
z
" transform="scale(0.015625)"/>
       <path id="DejaVuSans-Oblique-6e" d="M 3566 2113 
L 3156 0 
L 2578 0 
L 2988 2091 
Q 3016 2238 3031 2350 
Q 3047 2463 3047 2528 
Q 3047 2791 2881 2937 
Q 2716 3084 2419 3084 
Q 1956 3084 1622 2776 
Q 1288 2469 1184 1941 
L 800 0 
L 225 0 
L 903 3500 
L 1478 3500 
L 1363 2950 
Q 1603 3253 1940 3418 
Q 2278 3584 2650 3584 
Q 3113 3584 3367 3334 
Q 3622 3084 3622 2631 
Q 3622 2519 3608 2391 
Q 3594 2263 3566 2113 
z
" transform="scale(0.015625)"/>
       <path id="DejaVuSans-5b" d="M 550 4863 
L 1875 4863 
L 1875 4416 
L 1125 4416 
L 1125 -397 
L 1875 -397 
L 1875 -844 
L 550 -844 
L 550 4863 
z
" transform="scale(0.015625)"/>
       <path id="DejaVuSans-2c" d="M 750 794 
L 1409 794 
L 1409 256 
L 897 -744 
L 494 -744 
L 750 256 
L 750 794 
z
" transform="scale(0.015625)"/>
       <path id="DejaVuSans-Oblique-4f" d="M 2919 4238 
Q 2400 4238 2003 3986 
Q 1606 3734 1313 3219 
Q 1125 2891 1026 2522 
Q 928 2153 928 1778 
Q 928 1128 1239 775 
Q 1550 422 2119 422 
Q 2631 422 3032 676 
Q 3434 931 3719 1434 
Q 3909 1772 4009 2142 
Q 4109 2513 4109 2881 
Q 4109 3528 3796 3883 
Q 3484 4238 2919 4238 
z
M 2100 -91 
Q 1241 -91 748 418 
Q 256 928 256 1813 
Q 256 2319 448 2847 
Q 641 3375 978 3788 
Q 1375 4272 1862 4511 
Q 2350 4750 2938 4750 
Q 3794 4750 4287 4245 
Q 4781 3741 4781 2869 
Q 4781 2331 4593 1812 
Q 4406 1294 4056 872 
Q 3656 384 3173 146 
Q 2691 -91 2100 -91 
z
" transform="scale(0.015625)"/>
       <path id="DejaVuSans-5d" d="M 1947 4863 
L 1947 -844 
L 622 -844 
L 622 -397 
L 1369 -397 
L 1369 4416 
L 622 4416 
L 622 4863 
L 1947 4863 
z
" transform="scale(0.015625)"/>
      </defs>
      <use xlink:href="#DejaVuSans-4d" transform="translate(0 0.51875)"/>
      <use xlink:href="#DejaVuSans-65" transform="translate(86.279297 0.51875)"/>
      <use xlink:href="#DejaVuSans-74" transform="translate(147.802734 0.51875)"/>
      <use xlink:href="#DejaVuSans-68" transform="translate(187.011719 0.51875)"/>
      <use xlink:href="#DejaVuSans-6f" transform="translate(250.390625 0.51875)"/>
      <use xlink:href="#DejaVuSans-64" transform="translate(311.572266 0.51875)"/>
      <use xlink:href="#DejaVuSans-20" transform="translate(375.048828 0.51875)"/>
      <use xlink:href="#DejaVuSans-31" transform="translate(406.835938 0.51875)"/>
      <use xlink:href="#DejaVuSans-3a" transform="translate(470.458984 0.51875)"/>
      <use xlink:href="#DejaVuSans-20" transform="translate(504.150391 0.51875)"/>
      <use xlink:href="#DejaVuSans-28" transform="translate(535.9375 0.51875)"/>
      <use xlink:href="#DejaVuSans-31" transform="translate(574.951172 0.51875)"/>
      <use xlink:href="#DejaVuSans-2b" transform="translate(658.056641 0.51875)"/>
      <use xlink:href="#DejaVuSans-31" transform="translate(761.328125 0.51875)"/>
      <use xlink:href="#DejaVuSans-2f" transform="translate(824.951172 0.51875)"/>
      <use xlink:href="#DejaVuSans-Oblique-6e" transform="translate(858.642578 0.51875)"/>
      <use xlink:href="#DejaVuSans-29" transform="translate(922.021484 0.51875)"/>
      <use xlink:href="#DejaVuSans-Oblique-6e" transform="translate(961.992188 38.8) scale(0.7)"/>
      <use xlink:href="#DejaVuSans-20" transform="translate(1009.091797 0.51875)"/>
      <use xlink:href="#DejaVuSans-20" transform="translate(1040.878906 0.51875)"/>
      <use xlink:href="#DejaVuSans-5b" transform="translate(1072.666016 0.51875)"/>
      <use xlink:href="#DejaVuSans-73" transform="translate(1111.679688 0.51875)"/>
      <use xlink:href="#DejaVuSans-6c" transform="translate(1163.779297 0.51875)"/>
      <use xlink:href="#DejaVuSans-6f" transform="translate(1191.5625 0.51875)"/>
      <use xlink:href="#DejaVuSans-77" transform="translate(1252.744141 0.51875)"/>
      <use xlink:href="#DejaVuSans-2c" transform="translate(1334.53125 0.51875)"/>
      <use xlink:href="#DejaVuSans-20" transform="translate(1366.318359 0.51875)"/>
      <use xlink:href="#DejaVuSans-Oblique-4f" transform="translate(1398.105469 0.51875)"/>
      <use xlink:href="#DejaVuSans-28" transform="translate(1476.816406 0.51875)"/>
      <use xlink:href="#DejaVuSans-31" transform="translate(1515.830078 0.51875)"/>
      <use xlink:href="#DejaVuSans-2f" transform="translate(1579.453125 0.51875)"/>
      <use xlink:href="#DejaVuSans-Oblique-6e" transform="translate(1613.144531 0.51875)"/>
      <use xlink:href="#DejaVuSans-29" transform="translate(1676.523438 0.51875)"/>
      <use xlink:href="#DejaVuSans-5d" transform="translate(1715.537109 0.51875)"/>
     </g>
    </g>
    <g id="line2d_42">
     <path d="M 510.189844 106.135938 
L 521.189844 106.135938 
L 532.189844 106.135938 
" style="fill: none; stroke: #2ecc71; stroke-width: 2.5; stroke-linecap: square"/>
     <g>
      <use xlink:href="#m3548874fe1" x="521.189844" y="106.135938" style="fill: #ffffff; stroke: #2ecc71; stroke-width: 1.5"/>
     </g>
    </g>
    <g id="text_24">
     <!-- Method 2: $\sum 1/k!$  [super-exponential] -->
     <g style="fill: #eaeaea" transform="translate(540.989844 109.985938) scale(0.11 -0.11)">
      <defs>
       <path id="DejaVuSansDisplay-2211" d="M 244 6509 
L 5803 6509 
L 5803 5656 
L 1566 5656 
L 4534 2488 
L 1469 -888 
L 5919 -888 
L 5919 -1738 
L 109 -1738 
L 109 -1078 
L 3316 2463 
L 244 5728 
L 244 6509 
z
" transform="scale(0.015625)"/>
       <path id="DejaVuSans-Oblique-6b" d="M 1172 4863 
L 1747 4863 
L 1197 2028 
L 3169 3500 
L 3916 3500 
L 1716 1825 
L 3322 0 
L 2625 0 
L 1131 1709 
L 800 0 
L 225 0 
L 1172 4863 
z
" transform="scale(0.015625)"/>
       <path id="DejaVuSans-2d" d="M 313 2009 
L 1997 2009 
L 1997 1497 
L 313 1497 
L 313 2009 
z
" transform="scale(0.015625)"/>
      </defs>
      <use xlink:href="#DejaVuSans-4d" transform="translate(0 0.296875)"/>
      <use xlink:href="#DejaVuSans-65" transform="translate(86.279297 0.296875)"/>
      <use xlink:href="#DejaVuSans-74" transform="translate(147.802734 0.296875)"/>
      <use xlink:href="#DejaVuSans-68" transform="translate(187.011719 0.296875)"/>
      <use xlink:href="#DejaVuSans-6f" transform="translate(250.390625 0.296875)"/>
      <use xlink:href="#DejaVuSans-64" transform="translate(311.572266 0.296875)"/>
      <use xlink:href="#DejaVuSans-20" transform="translate(375.048828 0.296875)"/>
      <use xlink:href="#DejaVuSans-32" transform="translate(406.835938 0.296875)"/>
      <use xlink:href="#DejaVuSans-3a" transform="translate(470.458984 0.296875)"/>
      <use xlink:href="#DejaVuSans-20" transform="translate(504.150391 0.296875)"/>
      <use xlink:href="#DejaVuSansDisplay-2211" transform="translate(535.9375 0.296875)"/>
      <use xlink:href="#DejaVuSans-31" transform="translate(631.201172 0.296875)"/>
      <use xlink:href="#DejaVuSans-2f" transform="translate(694.824219 0.296875)"/>
      <use xlink:href="#DejaVuSans-Oblique-6b" transform="translate(728.515625 0.296875)"/>
      <use xlink:href="#DejaVuSans-21" transform="translate(786.425781 0.296875)"/>
      <use xlink:href="#DejaVuSans-20" transform="translate(845.996094 0.296875)"/>
      <use xlink:href="#DejaVuSans-20" transform="translate(877.783203 0.296875)"/>
      <use xlink:href="#DejaVuSans-5b" transform="translate(909.570312 0.296875)"/>
      <use xlink:href="#DejaVuSans-73" transform="translate(948.583984 0.296875)"/>
      <use xlink:href="#DejaVuSans-75" transform="translate(1000.683594 0.296875)"/>
      <use xlink:href="#DejaVuSans-70" transform="translate(1064.0625 0.296875)"/>
      <use xlink:href="#DejaVuSans-65" transform="translate(1127.539062 0.296875)"/>
      <use xlink:href="#DejaVuSans-72" transform="translate(1189.0625 0.296875)"/>
      <use xlink:href="#DejaVuSans-2d" transform="translate(1230.175781 0.296875)"/>
      <use xlink:href="#DejaVuSans-65" transform="translate(1266.259766 0.296875)"/>
      <use xlink:href="#DejaVuSans-78" transform="translate(1327.783203 0.296875)"/>
      <use xlink:href="#DejaVuSans-70" transform="translate(1386.962891 0.296875)"/>
      <use xlink:href="#DejaVuSans-6f" transform="translate(1450.439453 0.296875)"/>
      <use xlink:href="#DejaVuSans-6e" transform="translate(1511.621094 0.296875)"/>
      <use xlink:href="#DejaVuSans-65" transform="translate(1575 0.296875)"/>
      <use xlink:href="#DejaVuSans-6e" transform="translate(1636.523438 0.296875)"/>
      <use xlink:href="#DejaVuSans-74" transform="translate(1699.902344 0.296875)"/>
      <use xlink:href="#DejaVuSans-69" transform="translate(1739.111328 0.296875)"/>
      <use xlink:href="#DejaVuSans-61" transform="translate(1766.894531 0.296875)"/>
      <use xlink:href="#DejaVuSans-6c" transform="translate(1828.173828 0.296875)"/>
      <use xlink:href="#DejaVuSans-5d" transform="translate(1855.957031 0.296875)"/>
     </g>
    </g>
    <g id="line2d_43">
     <path d="M 510.189844 123.074219 
L 521.189844 123.074219 
L 532.189844 123.074219 
" style="fill: none; stroke: #9b59b6; stroke-width: 2.5; stroke-linecap: square"/>
     <g>
      <use xlink:href="#mcb8bb5fa9b" x="521.189844" y="123.074219" style="fill: #ffffff; stroke: #9b59b6; stroke-width: 1.5; stroke-linejoin: miter"/>
     </g>
    </g>
    <g id="text_25">
     <!-- Method 3: Continued fraction  [exponential] -->
     <g style="fill: #eaeaea" transform="translate(540.989844 126.924219) scale(0.11 -0.11)">
      <use xlink:href="#DejaVuSans-4d"/>
      <use xlink:href="#DejaVuSans-65" transform="translate(86.279297 0)"/>
      <use xlink:href="#DejaVuSans-74" transform="translate(147.802734 0)"/>
      <use xlink:href="#DejaVuSans-68" transform="translate(187.011719 0)"/>
      <use xlink:href="#DejaVuSans-6f" transform="translate(250.390625 0)"/>
      <use xlink:href="#DejaVuSans-64" transform="translate(311.572266 0)"/>
      <use xlink:href="#DejaVuSans-20" transform="translate(375.048828 0)"/>
      <use xlink:href="#DejaVuSans-33" transform="translate(406.835938 0)"/>
      <use xlink:href="#DejaVuSans-3a" transform="translate(470.458984 0)"/>
      <use xlink:href="#DejaVuSans-20" transform="translate(504.150391 0)"/>
      <use xlink:href="#DejaVuSans-43" transform="translate(535.9375 0)"/>
      <use xlink:href="#DejaVuSans-6f" transform="translate(605.761719 0)"/>
      <use xlink:href="#DejaVuSans-6e" transform="translate(666.943359 0)"/>
      <use xlink:href="#DejaVuSans-74" transform="translate(730.322266 0)"/>
      <use xlink:href="#DejaVuSans-69" transform="translate(769.53125 0)"/>
      <use xlink:href="#DejaVuSans-6e" transform="translate(797.314453 0)"/>
      <use xlink:href="#DejaVuSans-75" transform="translate(860.693359 0)"/>
      <use xlink:href="#DejaVuSans-65" transform="translate(924.072266 0)"/>
      <use xlink:href="#DejaVuSans-64" transform="translate(985.595703 0)"/>
      <use xlink:href="#DejaVuSans-20" transform="translate(1049.072266 0)"/>
      <use xlink:href="#DejaVuSans-66" transform="translate(1080.859375 0)"/>
      <use xlink:href="#DejaVuSans-72" transform="translate(1116.064453 0)"/>
      <use xlink:href="#DejaVuSans-61" transform="translate(1157.177734 0)"/>
      <use xlink:href="#DejaVuSans-63" transform="translate(1218.457031 0)"/>
      <use xlink:href="#DejaVuSans-74" transform="translate(1273.4375 0)"/>
      <use xlink:href="#DejaVuSans-69" transform="translate(1312.646484 0)"/>
      <use xlink:href="#DejaVuSans-6f" transform="translate(1340.429688 0)"/>
      <use xlink:href="#DejaVuSans-6e" transform="translate(1401.611328 0)"/>
      <use xlink:href="#DejaVuSans-20" transform="translate(1464.990234 0)"/>
      <use xlink:href="#DejaVuSans-20" transform="translate(1496.777344 0)"/>
      <use xlink:href="#DejaVuSans-5b" transform="translate(1528.564453 0)"/>
      <use xlink:href="#DejaVuSans-65" transform="translate(1567.578125 0)"/>
      <use xlink:href="#DejaVuSans-78" transform="translate(1627.351562 0)"/>
      <use xlink:href="#DejaVuSans-70" transform="translate(1686.53125 0)"/>
      <use xlink:href="#DejaVuSans-6f" transform="translate(1750.007812 0)"/>
      <use xlink:href="#DejaVuSans-6e" transform="translate(1811.189453 0)"/>
      <use xlink:href="#DejaVuSans-65" transform="translate(1874.568359 0)"/>
      <use xlink:href="#DejaVuSans-6e" transform="translate(1936.091797 0)"/>
      <use xlink:href="#DejaVuSans-74" transform="translate(1999.470703 0)"/>
      <use xlink:href="#DejaVuSans-69" transform="translate(2038.679688 0)"/>
      <use xlink:href="#DejaVuSans-61" transform="translate(2066.462891 0)"/>
      <use xlink:href="#DejaVuSans-6c" transform="translate(2127.742188 0)"/>
      <use xlink:href="#DejaVuSans-5d" transform="translate(2155.525391 0)"/>
     </g>
    </g>
    <g id="line2d_44">
     <path d="M 510.189844 139.220156 
L 521.189844 139.220156 
L 532.189844 139.220156 
" style="fill: none; stroke-dasharray: 1.2,1.98; stroke-dashoffset: 0; stroke: #f39c12; stroke-opacity: 0.7; stroke-width: 1.2"/>
    </g>
    <g id="text_26">
     <!-- $\sim e/(2n)$ reference (limit) -->
     <g style="fill: #eaeaea" transform="translate(540.989844 143.070156) scale(0.11 -0.11)">
      <defs>
       <path id="DejaVuSans-223c" d="M 4684 2556 
L 4684 1997 
Q 4356 1753 4076 1645 
Q 3797 1538 3494 1538 
Q 3150 1538 2694 1722 
Q 2663 1734 2641 1744 
Q 2622 1750 2575 1769 
Q 2091 1959 1797 1959 
Q 1522 1959 1253 1840 
Q 984 1722 678 1459 
L 678 2019 
Q 1006 2263 1286 2370 
Q 1566 2478 1869 2478 
Q 2213 2478 2672 2294 
Q 2706 2278 2722 2272 
Q 2741 2266 2788 2247 
Q 3272 2056 3566 2056 
Q 3834 2056 4098 2173 
Q 4363 2291 4684 2556 
z
" transform="scale(0.015625)"/>
      </defs>
      <use xlink:href="#DejaVuSans-223c" transform="translate(19.482422 0.015625)"/>
      <use xlink:href="#DejaVuSans-Oblique-65" transform="translate(122.753906 0.015625)"/>
      <use xlink:href="#DejaVuSans-2f" transform="translate(184.277344 0.015625)"/>
      <use xlink:href="#DejaVuSans-28" transform="translate(217.96875 0.015625)"/>
      <use xlink:href="#DejaVuSans-32" transform="translate(256.982422 0.015625)"/>
      <use xlink:href="#DejaVuSans-Oblique-6e" transform="translate(320.605469 0.015625)"/>
      <use xlink:href="#DejaVuSans-29" transform="translate(383.984375 0.015625)"/>
      <use xlink:href="#DejaVuSans-20" transform="translate(422.998047 0.015625)"/>
      <use xlink:href="#DejaVuSans-72" transform="translate(454.785156 0.015625)"/>
      <use xlink:href="#DejaVuSans-65" transform="translate(495.898438 0.015625)"/>
      <use xlink:href="#DejaVuSans-66" transform="translate(557.421875 0.015625)"/>
      <use xlink:href="#DejaVuSans-65" transform="translate(592.626953 0.015625)"/>
      <use xlink:href="#DejaVuSans-72" transform="translate(654.150391 0.015625)"/>
      <use xlink:href="#DejaVuSans-65" transform="translate(695.263672 0.015625)"/>
      <use xlink:href="#DejaVuSans-6e" transform="translate(756.787109 0.015625)"/>
      <use xlink:href="#DejaVuSans-63" transform="translate(820.166016 0.015625)"/>
      <use xlink:href="#DejaVuSans-65" transform="translate(875.146484 0.015625)"/>
      <use xlink:href="#DejaVuSans-20" transform="translate(936.669922 0.015625)"/>
      <use xlink:href="#DejaVuSans-28" transform="translate(968.457031 0.015625)"/>
      <use xlink:href="#DejaVuSans-6c" transform="translate(1007.470703 0.015625)"/>
      <use xlink:href="#DejaVuSans-69" transform="translate(1035.253906 0.015625)"/>
      <use xlink:href="#DejaVuSans-6d" transform="translate(1063.037109 0.015625)"/>
      <use xlink:href="#DejaVuSans-69" transform="translate(1160.449219 0.015625)"/>
      <use xlink:href="#DejaVuSans-74" transform="translate(1188.232422 0.015625)"/>
      <use xlink:href="#DejaVuSans-29" transform="translate(1227.441406 0.015625)"/>
     </g>
    </g>
   </g>
  </g>
  <g id="text_27">
   <!-- Convergence Race — Computing Euler's $e$ -->
   <g style="fill: #ffd700" transform="translate(207.65 20.88) scale(0.18 -0.18)">
    <defs>
     <path id="DejaVuSans-Bold-43" d="M 4288 256 
Q 3956 84 3597 -3 
Q 3238 -91 2847 -91 
Q 1681 -91 1000 561 
Q 319 1213 319 2328 
Q 319 3447 1000 4098 
Q 1681 4750 2847 4750 
Q 3238 4750 3597 4662 
Q 3956 4575 4288 4403 
L 4288 3438 
Q 3953 3666 3628 3772 
Q 3303 3878 2944 3878 
Q 2300 3878 1931 3465 
Q 1563 3053 1563 2328 
Q 1563 1606 1931 1193 
Q 2300 781 2944 781 
Q 3303 781 3628 887 
Q 3953 994 4288 1222 
L 4288 256 
z
" transform="scale(0.015625)"/>
     <path id="DejaVuSans-Bold-6f" d="M 2203 2784 
Q 1831 2784 1636 2517 
Q 1441 2250 1441 1747 
Q 1441 1244 1636 976 
Q 1831 709 2203 709 
Q 2569 709 2762 976 
Q 2956 1244 2956 1747 
Q 2956 2250 2762 2517 
Q 2569 2784 2203 2784 
z
M 2203 3584 
Q 3106 3584 3614 3096 
Q 4122 2609 4122 1747 
Q 4122 884 3614 396 
Q 3106 -91 2203 -91 
Q 1297 -91 786 396 
Q 275 884 275 1747 
Q 275 2609 786 3096 
Q 1297 3584 2203 3584 
z
" transform="scale(0.015625)"/>
     <path id="DejaVuSans-Bold-6e" d="M 4056 2131 
L 4056 0 
L 2931 0 
L 2931 347 
L 2931 1631 
Q 2931 2084 2911 2256 
Q 2891 2428 2841 2509 
Q 2775 2619 2662 2680 
Q 2550 2741 2406 2741 
Q 2056 2741 1856 2470 
Q 1656 2200 1656 1722 
L 1656 0 
L 538 0 
L 538 3500 
L 1656 3500 
L 1656 2988 
Q 1909 3294 2193 3439 
Q 2478 3584 2822 3584 
Q 3428 3584 3742 3212 
Q 4056 2841 4056 2131 
z
" transform="scale(0.015625)"/>
     <path id="DejaVuSans-Bold-76" d="M 97 3500 
L 1216 3500 
L 2088 1081 
L 2956 3500 
L 4078 3500 
L 2700 0 
L 1472 0 
L 97 3500 
z
" transform="scale(0.015625)"/>
     <path id="DejaVuSans-Bold-65" d="M 4031 1759 
L 4031 1441 
L 1416 1441 
Q 1456 1047 1700 850 
Q 1944 653 2381 653 
Q 2734 653 3104 758 
Q 3475 863 3866 1075 
L 3866 213 
Q 3469 63 3072 -14 
Q 2675 -91 2278 -91 
Q 1328 -91 801 392 
Q 275 875 275 1747 
Q 275 2603 792 3093 
Q 1309 3584 2216 3584 
Q 3041 3584 3536 3087 
Q 4031 2591 4031 1759 
z
M 2881 2131 
Q 2881 2450 2695 2645 
Q 2509 2841 2209 2841 
Q 1884 2841 1681 2658 
Q 1478 2475 1428 2131 
L 2881 2131 
z
" transform="scale(0.015625)"/>
     <path id="DejaVuSans-Bold-72" d="M 3138 2547 
Q 2991 2616 2845 2648 
Q 2700 2681 2553 2681 
Q 2122 2681 1889 2404 
Q 1656 2128 1656 1613 
L 1656 0 
L 538 0 
L 538 3500 
L 1656 3500 
L 1656 2925 
Q 1872 3269 2151 3426 
Q 2431 3584 2822 3584 
Q 2878 3584 2943 3579 
Q 3009 3575 3134 3559 
L 3138 2547 
z
" transform="scale(0.015625)"/>
     <path id="DejaVuSans-Bold-67" d="M 2919 594 
Q 2688 288 2409 144 
Q 2131 0 1766 0 
Q 1125 0 706 504 
Q 288 1009 288 1791 
Q 288 2575 706 3076 
Q 1125 3578 1766 3578 
Q 2131 3578 2409 3434 
Q 2688 3291 2919 2981 
L 2919 3500 
L 4044 3500 
L 4044 353 
Q 4044 -491 3511 -936 
Q 2978 -1381 1966 -1381 
Q 1638 -1381 1331 -1331 
Q 1025 -1281 716 -1178 
L 716 -306 
Q 1009 -475 1290 -558 
Q 1572 -641 1856 -641 
Q 2406 -641 2662 -400 
Q 2919 -159 2919 353 
L 2919 594 
z
M 2181 2772 
Q 1834 2772 1640 2515 
Q 1447 2259 1447 1791 
Q 1447 1309 1634 1061 
Q 1822 813 2181 813 
Q 2531 813 2725 1069 
Q 2919 1325 2919 1791 
Q 2919 2259 2725 2515 
Q 2531 2772 2181 2772 
z
" transform="scale(0.015625)"/>
     <path id="DejaVuSans-Bold-63" d="M 3366 3391 
L 3366 2478 
Q 3138 2634 2908 2709 
Q 2678 2784 2431 2784 
Q 1963 2784 1702 2511 
Q 1441 2238 1441 1747 
Q 1441 1256 1702 982 
Q 1963 709 2431 709 
Q 2694 709 2930 787 
Q 3166 866 3366 1019 
L 3366 103 
Q 3103 6 2833 -42 
Q 2563 -91 2291 -91 
Q 1344 -91 809 395 
Q 275 881 275 1747 
Q 275 2613 809 3098 
Q 1344 3584 2291 3584 
Q 2566 3584 2833 3536 
Q 3100 3488 3366 3391 
z
" transform="scale(0.015625)"/>
     <path id="DejaVuSans-Bold-20" transform="scale(0.015625)"/>
     <path id="DejaVuSans-Bold-52" d="M 2297 2597 
Q 2675 2597 2839 2737 
Q 3003 2878 3003 3200 
Q 3003 3519 2839 3656 
Q 2675 3794 2297 3794 
L 1791 3794 
L 1791 2597 
L 2297 2597 
z
M 1791 1766 
L 1791 0 
L 588 0 
L 588 4666 
L 2425 4666 
Q 3347 4666 3776 4356 
Q 4206 4047 4206 3378 
Q 4206 2916 3982 2619 
Q 3759 2322 3309 2181 
Q 3556 2125 3751 1926 
Q 3947 1728 4147 1325 
L 4800 0 
L 3519 0 
L 2950 1159 
Q 2778 1509 2601 1637 
Q 2425 1766 2131 1766 
L 1791 1766 
z
" transform="scale(0.015625)"/>
     <path id="DejaVuSans-Bold-61" d="M 2106 1575 
Q 1756 1575 1579 1456 
Q 1403 1338 1403 1106 
Q 1403 894 1545 773 
Q 1688 653 1941 653 
Q 2256 653 2472 879 
Q 2688 1106 2688 1447 
L 2688 1575 
L 2106 1575 
z
M 3816 1997 
L 3816 0 
L 2688 0 
L 2688 519 
Q 2463 200 2181 54 
Q 1900 -91 1497 -91 
Q 953 -91 614 226 
Q 275 544 275 1050 
Q 275 1666 698 1953 
Q 1122 2241 2028 2241 
L 2688 2241 
L 2688 2328 
Q 2688 2594 2478 2717 
Q 2269 2841 1825 2841 
Q 1466 2841 1156 2769 
Q 847 2697 581 2553 
L 581 3406 
Q 941 3494 1303 3539 
Q 1666 3584 2028 3584 
Q 2975 3584 3395 3211 
Q 3816 2838 3816 1997 
z
" transform="scale(0.015625)"/>
     <path id="DejaVuSansDisplay-2014" d="M 313 1978 
L 6088 1978 
L 6088 1528 
L 313 1528 
L 313 1978 
z
" transform="scale(0.015625)"/>
     <path id="DejaVuSans-Bold-6d" d="M 3781 2919 
Q 3994 3244 4286 3414 
Q 4578 3584 4928 3584 
Q 5531 3584 5847 3212 
Q 6163 2841 6163 2131 
L 6163 0 
L 5038 0 
L 5038 1825 
Q 5041 1866 5042 1909 
Q 5044 1953 5044 2034 
Q 5044 2406 4934 2573 
Q 4825 2741 4581 2741 
Q 4263 2741 4089 2478 
Q 3916 2216 3909 1719 
L 3909 0 
L 2784 0 
L 2784 1825 
Q 2784 2406 2684 2573 
Q 2584 2741 2328 2741 
Q 2006 2741 1831 2477 
Q 1656 2213 1656 1722 
L 1656 0 
L 531 0 
L 531 3500 
L 1656 3500 
L 1656 2988 
Q 1863 3284 2130 3434 
Q 2397 3584 2719 3584 
Q 3081 3584 3359 3409 
Q 3638 3234 3781 2919 
z
" transform="scale(0.015625)"/>
     <path id="DejaVuSans-Bold-70" d="M 1656 506 
L 1656 -1331 
L 538 -1331 
L 538 3500 
L 1656 3500 
L 1656 2988 
Q 1888 3294 2169 3439 
Q 2450 3584 2816 3584 
Q 3463 3584 3878 3070 
Q 4294 2556 4294 1747 
Q 4294 938 3878 423 
Q 3463 -91 2816 -91 
Q 2450 -91 2169 54 
Q 1888 200 1656 506 
z
M 2400 2772 
Q 2041 2772 1848 2508 
Q 1656 2244 1656 1747 
Q 1656 1250 1848 986 
Q 2041 722 2400 722 
Q 2759 722 2948 984 
Q 3138 1247 3138 1747 
Q 3138 2247 2948 2509 
Q 2759 2772 2400 2772 
z
" transform="scale(0.015625)"/>
     <path id="DejaVuSans-Bold-75" d="M 500 1363 
L 500 3500 
L 1625 3500 
L 1625 3150 
Q 1625 2866 1622 2436 
Q 1619 2006 1619 1863 
Q 1619 1441 1641 1255 
Q 1663 1069 1716 984 
Q 1784 875 1895 815 
Q 2006 756 2150 756 
Q 2500 756 2700 1025 
Q 2900 1294 2900 1772 
L 2900 3500 
L 4019 3500 
L 4019 0 
L 2900 0 
L 2900 506 
Q 2647 200 2364 54 
Q 2081 -91 1741 -91 
Q 1134 -91 817 281 
Q 500 653 500 1363 
z
" transform="scale(0.015625)"/>
     <path id="DejaVuSans-Bold-74" d="M 1759 4494 
L 1759 3500 
L 2913 3500 
L 2913 2700 
L 1759 2700 
L 1759 1216 
Q 1759 972 1856 886 
Q 1953 800 2241 800 
L 2816 800 
L 2816 0 
L 1856 0 
Q 1194 0 917 276 
Q 641 553 641 1216 
L 641 2700 
L 84 2700 
L 84 3500 
L 641 3500 
L 641 4494 
L 1759 4494 
z
" transform="scale(0.015625)"/>
     <path id="DejaVuSans-Bold-69" d="M 538 3500 
L 1656 3500 
L 1656 0 
L 538 0 
L 538 3500 
z
M 538 4863 
L 1656 4863 
L 1656 3950 
L 538 3950 
L 538 4863 
z
" transform="scale(0.015625)"/>
     <path id="DejaVuSans-Bold-45" d="M 588 4666 
L 3834 4666 
L 3834 3756 
L 1791 3756 
L 1791 2888 
L 3713 2888 
L 3713 1978 
L 1791 1978 
L 1791 909 
L 3903 909 
L 3903 0 
L 588 0 
L 588 4666 
z
" transform="scale(0.015625)"/>
     <path id="DejaVuSans-Bold-6c" d="M 538 4863 
L 1656 4863 
L 1656 0 
L 538 0 
L 538 4863 
z
" transform="scale(0.015625)"/>
     <path id="DejaVuSans-Bold-27" d="M 1350 4666 
L 1350 2931 
L 609 2931 
L 609 4666 
L 1350 4666 
z
" transform="scale(0.015625)"/>
     <path id="DejaVuSans-Bold-73" d="M 3272 3391 
L 3272 2541 
Q 2913 2691 2578 2766 
Q 2244 2841 1947 2841 
Q 1628 2841 1473 2761 
Q 1319 2681 1319 2516 
Q 1319 2381 1436 2309 
Q 1553 2238 1856 2203 
L 2053 2175 
Q 2913 2066 3209 1816 
Q 3506 1566 3506 1031 
Q 3506 472 3093 190 
Q 2681 -91 1863 -91 
Q 1516 -91 1145 -36 
Q 775 19 384 128 
L 384 978 
Q 719 816 1070 734 
Q 1422 653 1784 653 
Q 2113 653 2278 743 
Q 2444 834 2444 1013 
Q 2444 1163 2330 1236 
Q 2216 1309 1875 1350 
L 1678 1375 
Q 931 1469 631 1722 
Q 331 1975 331 2491 
Q 331 3047 712 3315 
Q 1094 3584 1881 3584 
Q 2191 3584 2531 3537 
Q 2872 3491 3272 3391 
z
" transform="scale(0.015625)"/>
    </defs>
    <use xlink:href="#DejaVuSans-Bold-43" transform="translate(0 0.015625)"/>
    <use xlink:href="#DejaVuSans-Bold-6f" transform="translate(73.388672 0.015625)"/>
    <use xlink:href="#DejaVuSans-Bold-6e" transform="translate(142.089844 0.015625)"/>
    <use xlink:href="#DejaVuSans-Bold-76" transform="translate(213.28125 0.015625)"/>
    <use xlink:href="#DejaVuSans-Bold-65" transform="translate(278.466797 0.015625)"/>
    <use xlink:href="#DejaVuSans-Bold-72" transform="translate(346.289062 0.015625)"/>
    <use xlink:href="#DejaVuSans-Bold-67" transform="translate(395.605469 0.015625)"/>
    <use xlink:href="#DejaVuSans-Bold-65" transform="translate(467.1875 0.015625)"/>
    <use xlink:href="#DejaVuSans-Bold-6e" transform="translate(535.009766 0.015625)"/>
    <use xlink:href="#DejaVuSans-Bold-63" transform="translate(606.201172 0.015625)"/>
    <use xlink:href="#DejaVuSans-Bold-65" transform="translate(665.478516 0.015625)"/>
    <use xlink:href="#DejaVuSans-Bold-20" transform="translate(733.300781 0.015625)"/>
    <use xlink:href="#DejaVuSans-Bold-52" transform="translate(768.115234 0.015625)"/>
    <use xlink:href="#DejaVuSans-Bold-61" transform="translate(845.117188 0.015625)"/>
    <use xlink:href="#DejaVuSans-Bold-63" transform="translate(912.597656 0.015625)"/>
    <use xlink:href="#DejaVuSans-Bold-65" transform="translate(971.875 0.015625)"/>
    <use xlink:href="#DejaVuSans-Bold-20" transform="translate(1039.697266 0.015625)"/>
    <use xlink:href="#DejaVuSansDisplay-2014" transform="translate(1074.511719 0.015625)"/>
    <use xlink:href="#DejaVuSans-Bold-20" transform="translate(1174.511719 0.015625)"/>
    <use xlink:href="#DejaVuSans-Bold-43" transform="translate(1209.326172 0.015625)"/>
    <use xlink:href="#DejaVuSans-Bold-6f" transform="translate(1282.714844 0.015625)"/>
    <use xlink:href="#DejaVuSans-Bold-6d" transform="translate(1351.416016 0.015625)"/>
    <use xlink:href="#DejaVuSans-Bold-70" transform="translate(1455.615234 0.015625)"/>
    <use xlink:href="#DejaVuSans-Bold-75" transform="translate(1527.197266 0.015625)"/>
    <use xlink:href="#DejaVuSans-Bold-74" transform="translate(1598.388672 0.015625)"/>
    <use xlink:href="#DejaVuSans-Bold-69" transform="translate(1646.191406 0.015625)"/>
    <use xlink:href="#DejaVuSans-Bold-6e" transform="translate(1680.46875 0.015625)"/>
    <use xlink:href="#DejaVuSans-Bold-67" transform="translate(1751.660156 0.015625)"/>
    <use xlink:href="#DejaVuSans-Bold-20" transform="translate(1823.242188 0.015625)"/>
    <use xlink:href="#DejaVuSans-Bold-45" transform="translate(1858.056641 0.015625)"/>
    <use xlink:href="#DejaVuSans-Bold-75" transform="translate(1926.367188 0.015625)"/>
    <use xlink:href="#DejaVuSans-Bold-6c" transform="translate(1997.558594 0.015625)"/>
    <use xlink:href="#DejaVuSans-Bold-65" transform="translate(2031.835938 0.015625)"/>
    <use xlink:href="#DejaVuSans-Bold-72" transform="translate(2099.658203 0.015625)"/>
    <use xlink:href="#DejaVuSans-Bold-27" transform="translate(2148.974609 0.015625)"/>
    <use xlink:href="#DejaVuSans-Bold-73" transform="translate(2179.589844 0.015625)"/>
    <use xlink:href="#DejaVuSans-Bold-20" transform="translate(2239.111328 0.015625)"/>
    <use xlink:href="#DejaVuSans-Oblique-65" transform="translate(2273.925781 0.015625)"/>
   </g>
  </g>
 </g>
 <defs>
  <clipPath id="pc69193186e">
   <rect x="66.89" y="72.72" width="725.4" height="388.08"/>
  </clipPath>
 </defs>
</svg>
