<?xml version="1.0" encoding="utf-8" standalone="no"?>
<!DOCTYPE svg PUBLIC "-//W3C//DTD SVG 1.1//EN"
  "http://www.w3.org/Graphics/SVG/1.1/DTD/svg11.dtd">
<svg xmlns:xlink="http://www.w3.org/1999/xlink" width="844.9325pt" height="441.7475pt" viewBox="0 0 844.9325 441.7475" xmlns="http://www.w3.org/2000/svg" version="1.1">
 <metadata>
  <rdf:RDF xmlns:dc="http://purl.org/dc/elements/1.1/" xmlns:cc="http://creativecommons.org/ns#" xmlns:rdf="http://www.w3.org/1999/02/22-rdf-syntax-ns#">
   <cc:Work>
    <dc:type rdf:resource="http://purl.org/dc/dcmitype/StillImage"/>
    <dc:date>2026-03-18T22:53:54.321991</dc:date>
    <dc:format>image/svg+xml</dc:format>
    <dc:creator>
     <cc:Agent>
      <dc:title>Matplotlib v3.10.7, https://matplotlib.org/</dc:title>
     </cc:Agent>
    </dc:creator>
   </cc:Work>
  </rdf:RDF>
 </metadata>
 <defs>
  <style type="text/css">*{stroke-linejoin: round; stroke-linecap: butt}</style>
 </defs>
 <g id="figure_1">
  <g id="patch_1">
   <path d="M 0 441.7475 
L 844.9325 441.7475 
L 844.9325 0 
L 0 0 
z
" style="fill: #1a1a2e"/>
  </g>
  <g id="axes_1">
   <g id="patch_2">
    <path d="M 48.8975 400.32 
L 381.323032 400.32 
L 381.323032 67.68 
L 48.8975 67.68 
z
" style="fill: #16213e"/>
   </g>
   <g id="matplotlib.axis_1">
    <g id="xtick_1">
     <g id="line2d_1">
      <defs>
       <path id="m9c04942ac5" d="M 0 0 
L 0 3.5 
" style="stroke: #eaeaea; stroke-width: 0.8"/>
      </defs>
      <g>
       <use xlink:href="#m9c04942ac5" x="71.658512" y="400.32" style="fill: #eaeaea; stroke: #eaeaea; stroke-width: 0.8"/>
      </g>
     </g>
     <g id="text_1">
      <!-- 0 -->
      <g style="fill: #eaeaea" transform="translate(67.841012 416.438125) scale(0.12 -0.12)">
       <defs>
        <path id="DejaVuSans-30" d="M 2034 4250 
Q 1547 4250 1301 3770 
Q 1056 3291 1056 2328 
Q 1056 1369 1301 889 
Q 1547 409 2034 409 
Q 2525 409 2770 889 
Q 3016 1369 3016 2328 
Q 3016 3291 2770 3770 
Q 2525 4250 2034 4250 
z
M 2034 4750 
Q 2819 4750 3233 4129 
Q 3647 3509 3647 2328 
Q 3647 1150 3233 529 
Q 2819 -91 2034 -91 
Q 1250 -91 836 529 
Q 422 1150 422 2328 
Q 422 3509 836 4129 
Q 1250 4750 2034 4750 
z
" transform="scale(0.015625)"/>
       </defs>
       <use xlink:href="#DejaVuSans-30"/>
      </g>
     </g>
    </g>
    <g id="xtick_2">
     <g id="line2d_2">
      <g>
       <use xlink:href="#m9c04942ac5" x="90.785412" y="400.32" style="fill: #eaeaea; stroke: #eaeaea; stroke-width: 0.8"/>
      </g>
     </g>
     <g id="text_2">
      <!-- 1 -->
      <g style="fill: #eaeaea" transform="translate(86.967912 416.438125) scale(0.12 -0.12)">
       <defs>
        <path id="DejaVuSans-31" d="M 794 531 
L 1825 531 
L 1825 4091 
L 703 3866 
L 703 4441 
L 1819 4666 
L 2450 4666 
L 2450 531 
L 3481 531 
L 3481 0 
L 794 0 
L 794 531 
z
" transform="scale(0.015625)"/>
       </defs>
       <use xlink:href="#DejaVuSans-31"/>
      </g>
     </g>
    </g>
    <g id="xtick_3">
     <g id="line2d_3">
      <g>
       <use xlink:href="#m9c04942ac5" x="109.912313" y="400.32" style="fill: #eaeaea; stroke: #eaeaea; stroke-width: 0.8"/>
      </g>
     </g>
     <g id="text_3">
      <!-- 2 -->
      <g style="fill: #eaeaea" transform="translate(106.094813 416.438125) scale(0.12 -0.12)">
       <defs>
        <path id="DejaVuSans-32" d="M 1228 531 
L 3431 531 
L 3431 0 
L 469 0 
L 469 531 
Q 828 903 1448 1529 
Q 2069 2156 2228 2338 
Q 2531 2678 2651 2914 
Q 2772 3150 2772 3378 
Q 2772 3750 2511 3984 
Q 2250 4219 1831 4219 
Q 1534 4219 1204 4116 
Q 875 4013 500 3803 
L 500 4441 
Q 881 4594 1212 4672 
Q 1544 4750 1819 4750 
Q 2544 4750 2975 4387 
Q 3406 4025 3406 3419 
Q 3406 3131 3298 2873 
Q 3191 2616 2906 2266 
Q 2828 2175 2409 1742 
Q 1991 1309 1228 531 
z
" transform="scale(0.015625)"/>
       </defs>
       <use xlink:href="#DejaVuSans-32"/>
      </g>
     </g>
    </g>
    <g id="xtick_4">
     <g id="line2d_4">
      <g>
       <use xlink:href="#m9c04942ac5" x="129.039213" y="400.32" style="fill: #eaeaea; stroke: #eaeaea; stroke-width: 0.8"/>
      </g>
     </g>
     <g id="text_4">
      <!-- 3 -->
      <g style="fill: #eaeaea" transform="translate(125.221713 416.438125) scale(0.12 -0.12)">
       <defs>
        <path id="DejaVuSans-33" d="M 2597 2516 
Q 3050 2419 3304 2112 
Q 3559 1806 3559 1356 
Q 3559 666 3084 287 
Q 2609 -91 1734 -91 
Q 1441 -91 1130 -33 
Q 819 25 488 141 
L 488 750 
Q 750 597 1062 519 
Q 1375 441 1716 441 
Q 2309 441 2620 675 
Q 2931 909 2931 1356 
Q 2931 1769 2642 2001 
Q 2353 2234 1838 2234 
L 1294 2234 
L 1294 2753 
L 1863 2753 
Q 2328 2753 2575 2939 
Q 2822 3125 2822 3475 
Q 2822 3834 2567 4026 
Q 2313 4219 1838 4219 
Q 1578 4219 1281 4162 
Q 984 4106 628 3988 
L 628 4550 
Q 988 4650 1302 4700 
Q 1616 4750 1894 4750 
Q 2613 4750 3031 4423 
Q 3450 4097 3450 3541 
Q 3450 3153 3228 2886 
Q 3006 2619 2597 2516 
z
" transform="scale(0.015625)"/>
       </defs>
       <use xlink:href="#DejaVuSans-33"/>
      </g>
     </g>
    </g>
    <g id="xtick_5">
     <g id="line2d_5">
      <g>
       <use xlink:href="#m9c04942ac5" x="148.166114" y="400.32" style="fill: #eaeaea; stroke: #eaeaea; stroke-width: 0.8"/>
      </g>
     </g>
     <g id="text_5">
      <!-- 4 -->
      <g style="fill: #eaeaea" transform="translate(144.348614 416.438125) scale(0.12 -0.12)">
       <defs>
        <path id="DejaVuSans-34" d="M 2419 4116 
L 825 1625 
L 2419 1625 
L 2419 4116 
z
M 2253 4666 
L 3047 4666 
L 3047 1625 
L 3713 1625 
L 3713 1100 
L 3047 1100 
L 3047 0 
L 2419 0 
L 2419 1100 
L 313 1100 
L 313 1709 
L 2253 4666 
z
" transform="scale(0.015625)"/>
       </defs>
       <use xlink:href="#DejaVuSans-34"/>
      </g>
     </g>
    </g>
    <g id="xtick_6">
     <g id="line2d_6">
      <g>
       <use xlink:href="#m9c04942ac5" x="167.293015" y="400.32" style="fill: #eaeaea; stroke: #eaeaea; stroke-width: 0.8"/>
      </g>
     </g>
     <g id="text_6">
      <!-- 5 -->
      <g style="fill: #eaeaea" transform="translate(163.475515 416.438125) scale(0.12 -0.12)">
       <defs>
        <path id="DejaVuSans-35" d="M 691 4666 
L 3169 4666 
L 3169 4134 
L 1269 4134 
L 1269 2991 
Q 1406 3038 1543 3061 
Q 1681 3084 1819 3084 
Q 2600 3084 3056 2656 
Q 3513 2228 3513 1497 
Q 3513 744 3044 326 
Q 2575 -91 1722 -91 
Q 1428 -91 1123 -41 
Q 819 9 494 109 
L 494 744 
Q 775 591 1075 516 
Q 1375 441 1709 441 
Q 2250 441 2565 725 
Q 2881 1009 2881 1497 
Q 2881 1984 2565 2268 
Q 2250 2553 1709 2553 
Q 1456 2553 1204 2497 
Q 953 2441 691 2322 
L 691 4666 
z
" transform="scale(0.015625)"/>
       </defs>
       <use xlink:href="#DejaVuSans-35"/>
      </g>
     </g>
    </g>
    <g id="xtick_7">
     <g id="line2d_7">
      <g>
       <use xlink:href="#m9c04942ac5" x="186.419915" y="400.32" style="fill: #eaeaea; stroke: #eaeaea; stroke-width: 0.8"/>
      </g>
     </g>
     <g id="text_7">
      <!-- 6 -->
      <g style="fill: #eaeaea" transform="translate(182.602415 416.438125) scale(0.12 -0.12)">
       <defs>
        <path id="DejaVuSans-36" d="M 2113 2584 
Q 1688 2584 1439 2293 
Q 1191 2003 1191 1497 
Q 1191 994 1439 701 
Q 1688 409 2113 409 
Q 2538 409 2786 701 
Q 3034 994 3034 1497 
Q 3034 2003 2786 2293 
Q 2538 2584 2113 2584 
z
M 3366 4563 
L 3366 3988 
Q 3128 4100 2886 4159 
Q 2644 4219 2406 4219 
Q 1781 4219 1451 3797 
Q 1122 3375 1075 2522 
Q 1259 2794 1537 2939 
Q 1816 3084 2150 3084 
Q 2853 3084 3261 2657 
Q 3669 2231 3669 1497 
Q 3669 778 3244 343 
Q 2819 -91 2113 -91 
Q 1303 -91 875 529 
Q 447 1150 447 2328 
Q 447 3434 972 4092 
Q 1497 4750 2381 4750 
Q 2619 4750 2861 4703 
Q 3103 4656 3366 4563 
z
" transform="scale(0.015625)"/>
       </defs>
       <use xlink:href="#DejaVuSans-36"/>
      </g>
     </g>
    </g>
    <g id="xtick_8">
     <g id="line2d_8">
      <g>
       <use xlink:href="#m9c04942ac5" x="205.546816" y="400.32" style="fill: #eaeaea; stroke: #eaeaea; stroke-width: 0.8"/>
      </g>
     </g>
     <g id="text_8">
      <!-- 7 -->
      <g style="fill: #eaeaea" transform="translate(201.729316 416.438125) scale(0.12 -0.12)">
       <defs>
        <path id="DejaVuSans-37" d="M 525 4666 
L 3525 4666 
L 3525 4397 
L 1831 0 
L 1172 0 
L 2766 4134 
L 525 4134 
L 525 4666 
z
" transform="scale(0.015625)"/>
       </defs>
       <use xlink:href="#DejaVuSans-37"/>
      </g>
     </g>
    </g>
    <g id="xtick_9">
     <g id="line2d_9">
      <g>
       <use xlink:href="#m9c04942ac5" x="224.673716" y="400.32" style="fill: #eaeaea; stroke: #eaeaea; stroke-width: 0.8"/>
      </g>
     </g>
     <g id="text_9">
      <!-- 8 -->
      <g style="fill: #eaeaea" transform="translate(220.856216 416.438125) scale(0.12 -0.12)">
       <defs>
        <path id="DejaVuSans-38" d="M 2034 2216 
Q 1584 2216 1326 1975 
Q 1069 1734 1069 1313 
Q 1069 891 1326 650 
Q 1584 409 2034 409 
Q 2484 409 2743 651 
Q 3003 894 3003 1313 
Q 3003 1734 2745 1975 
Q 2488 2216 2034 2216 
z
M 1403 2484 
Q 997 2584 770 2862 
Q 544 3141 544 3541 
Q 544 4100 942 4425 
Q 1341 4750 2034 4750 
Q 2731 4750 3128 4425 
Q 3525 4100 3525 3541 
Q 3525 3141 3298 2862 
Q 3072 2584 2669 2484 
Q 3125 2378 3379 2068 
Q 3634 1759 3634 1313 
Q 3634 634 3220 271 
Q 2806 -91 2034 -91 
Q 1263 -91 848 271 
Q 434 634 434 1313 
Q 434 1759 690 2068 
Q 947 2378 1403 2484 
z
M 1172 3481 
Q 1172 3119 1398 2916 
Q 1625 2713 2034 2713 
Q 2441 2713 2670 2916 
Q 2900 3119 2900 3481 
Q 2900 3844 2670 4047 
Q 2441 4250 2034 4250 
Q 1625 4250 1398 4047 
Q 1172 3844 1172 3481 
z
" transform="scale(0.015625)"/>
       </defs>
       <use xlink:href="#DejaVuSans-38"/>
      </g>
     </g>
    </g>
    <g id="xtick_10">
     <g id="line2d_10">
      <g>
       <use xlink:href="#m9c04942ac5" x="243.800617" y="400.32" style="fill: #eaeaea; stroke: #eaeaea; stroke-width: 0.8"/>
      </g>
     </g>
     <g id="text_10">
      <!-- 9 -->
      <g style="fill: #eaeaea" transform="translate(239.983117 416.438125) scale(0.12 -0.12)">
       <defs>
        <path id="DejaVuSans-39" d="M 703 97 
L 703 672 
Q 941 559 1184 500 
Q 1428 441 1663 441 
Q 2288 441 2617 861 
Q 2947 1281 2994 2138 
Q 2813 1869 2534 1725 
Q 2256 1581 1919 1581 
Q 1219 1581 811 2004 
Q 403 2428 403 3163 
Q 403 3881 828 4315 
Q 1253 4750 1959 4750 
Q 2769 4750 3195 4129 
Q 3622 3509 3622 2328 
Q 3622 1225 3098 567 
Q 2575 -91 1691 -91 
Q 1453 -91 1209 -44 
Q 966 3 703 97 
z
M 1959 2075 
Q 2384 2075 2632 2365 
Q 2881 2656 2881 3163 
Q 2881 3666 2632 3958 
Q 2384 4250 1959 4250 
Q 1534 4250 1286 3958 
Q 1038 3666 1038 3163 
Q 1038 2656 1286 2365 
Q 1534 2075 1959 2075 
z
" transform="scale(0.015625)"/>
       </defs>
       <use xlink:href="#DejaVuSans-39"/>
      </g>
     </g>
    </g>
    <g id="xtick_11">
     <g id="line2d_11">
      <g>
       <use xlink:href="#m9c04942ac5" x="262.927517" y="400.32" style="fill: #eaeaea; stroke: #eaeaea; stroke-width: 0.8"/>
      </g>
     </g>
     <g id="text_11">
      <!-- 10 -->
      <g style="fill: #eaeaea" transform="translate(255.292517 416.438125) scale(0.12 -0.12)">
       <use xlink:href="#DejaVuSans-31"/>
       <use xlink:href="#DejaVuSans-30" transform="translate(63.623047 0)"/>
      </g>
     </g>
    </g>
    <g id="xtick_12">
     <g id="line2d_12">
      <g>
       <use xlink:href="#m9c04942ac5" x="282.054418" y="400.32" style="fill: #eaeaea; stroke: #eaeaea; stroke-width: 0.8"/>
      </g>
     </g>
     <g id="text_12">
      <!-- 11 -->
      <g style="fill: #eaeaea" transform="translate(274.419418 416.438125) scale(0.12 -0.12)">
       <use xlink:href="#DejaVuSans-31"/>
       <use xlink:href="#DejaVuSans-31" transform="translate(63.623047 0)"/>
      </g>
     </g>
    </g>
    <g id="xtick_13">
     <g id="line2d_13">
      <g>
       <use xlink:href="#m9c04942ac5" x="301.181319" y="400.32" style="fill: #eaeaea; stroke: #eaeaea; stroke-width: 0.8"/>
      </g>
     </g>
     <g id="text_13">
      <!-- 12 -->
      <g style="fill: #eaeaea" transform="translate(293.546319 416.438125) scale(0.12 -0.12)">
       <use xlink:href="#DejaVuSans-31"/>
       <use xlink:href="#DejaVuSans-32" transform="translate(63.623047 0)"/>
      </g>
     </g>
    </g>
    <g id="xtick_14">
     <g id="line2d_14">
      <g>
       <use xlink:href="#m9c04942ac5" x="320.308219" y="400.32" style="fill: #eaeaea; stroke: #eaeaea; stroke-width: 0.8"/>
      </g>
     </g>
     <g id="text_14">
      <!-- 13 -->
      <g style="fill: #eaeaea" transform="translate(312.673219 416.438125) scale(0.12 -0.12)">
       <use xlink:href="#DejaVuSans-31"/>
       <use xlink:href="#DejaVuSans-33" transform="translate(63.623047 0)"/>
      </g>
     </g>
    </g>
    <g id="xtick_15">
     <g id="line2d_15">
      <g>
       <use xlink:href="#m9c04942ac5" x="339.43512" y="400.32" style="fill: #eaeaea; stroke: #eaeaea; stroke-width: 0.8"/>
      </g>
     </g>
     <g id="text_15">
      <!-- 14 -->
      <g style="fill: #eaeaea" transform="translate(331.80012 416.438125) scale(0.12 -0.12)">
       <use xlink:href="#DejaVuSans-31"/>
       <use xlink:href="#DejaVuSans-34" transform="translate(63.623047 0)"/>
      </g>
     </g>
    </g>
    <g id="xtick_16">
     <g id="line2d_16">
      <g>
       <use xlink:href="#m9c04942ac5" x="358.56202" y="400.32" style="fill: #eaeaea; stroke: #eaeaea; stroke-width: 0.8"/>
      </g>
     </g>
     <g id="text_16">
      <!-- 15 -->
      <g style="fill: #eaeaea" transform="translate(350.92702 416.438125) scale(0.12 -0.12)">
       <use xlink:href="#DejaVuSans-31"/>
       <use xlink:href="#DejaVuSans-35" transform="translate(63.623047 0)"/>
      </g>
     </g>
    </g>
    <g id="text_17">
     <!-- Number of Terms  $n$ -->
     <g style="fill: #eaeaea" transform="translate(154.990266 432.051875) scale(0.12 -0.12)">
      <defs>
       <path id="DejaVuSans-4e" d="M 628 4666 
L 1478 4666 
L 3547 763 
L 3547 4666 
L 4159 4666 
L 4159 0 
L 3309 0 
L 1241 3903 
L 1241 0 
L 628 0 
L 628 4666 
z
" transform="scale(0.015625)"/>
       <path id="DejaVuSans-75" d="M 544 1381 
L 544 3500 
L 1119 3500 
L 1119 1403 
Q 1119 906 1312 657 
Q 1506 409 1894 409 
Q 2359 409 2629 706 
Q 2900 1003 2900 1516 
L 2900 3500 
L 3475 3500 
L 3475 0 
L 2900 0 
L 2900 538 
Q 2691 219 2414 64 
Q 2138 -91 1772 -91 
Q 1169 -91 856 284 
Q 544 659 544 1381 
z
M 1991 3584 
L 1991 3584 
z
" transform="scale(0.015625)"/>
       <path id="DejaVuSans-6d" d="M 3328 2828 
Q 3544 3216 3844 3400 
Q 4144 3584 4550 3584 
Q 5097 3584 5394 3201 
Q 5691 2819 5691 2113 
L 5691 0 
L 5113 0 
L 5113 2094 
Q 5113 2597 4934 2840 
Q 4756 3084 4391 3084 
Q 3944 3084 3684 2787 
Q 3425 2491 3425 1978 
L 3425 0 
L 2847 0 
L 2847 2094 
Q 2847 2600 2669 2842 
Q 2491 3084 2119 3084 
Q 1678 3084 1418 2786 
Q 1159 2488 1159 1978 
L 1159 0 
L 581 0 
L 581 3500 
L 1159 3500 
L 1159 2956 
Q 1356 3278 1631 3431 
Q 1906 3584 2284 3584 
Q 2666 3584 2933 3390 
Q 3200 3197 3328 2828 
z
" transform="scale(0.015625)"/>
       <path id="DejaVuSans-62" d="M 3116 1747 
Q 3116 2381 2855 2742 
Q 2594 3103 2138 3103 
Q 1681 3103 1420 2742 
Q 1159 2381 1159 1747 
Q 1159 1113 1420 752 
Q 1681 391 2138 391 
Q 2594 391 2855 752 
Q 3116 1113 3116 1747 
z
M 1159 2969 
Q 1341 3281 1617 3432 
Q 1894 3584 2278 3584 
Q 2916 3584 3314 3078 
Q 3713 2572 3713 1747 
Q 3713 922 3314 415 
Q 2916 -91 2278 -91 
Q 1894 -91 1617 61 
Q 1341 213 1159 525 
L 1159 0 
L 581 0 
L 581 4863 
L 1159 4863 
L 1159 2969 
z
" transform="scale(0.015625)"/>
       <path id="DejaVuSans-65" d="M 3597 1894 
L 3597 1613 
L 953 1613 
Q 991 1019 1311 708 
Q 1631 397 2203 397 
Q 2534 397 2845 478 
Q 3156 559 3463 722 
L 3463 178 
Q 3153 47 2828 -22 
Q 2503 -91 2169 -91 
Q 1331 -91 842 396 
Q 353 884 353 1716 
Q 353 2575 817 3079 
Q 1281 3584 2069 3584 
Q 2775 3584 3186 3129 
Q 3597 2675 3597 1894 
z
M 3022 2063 
Q 3016 2534 2758 2815 
Q 2500 3097 2075 3097 
Q 1594 3097 1305 2825 
Q 1016 2553 972 2059 
L 3022 2063 
z
" transform="scale(0.015625)"/>
       <path id="DejaVuSans-72" d="M 2631 2963 
Q 2534 3019 2420 3045 
Q 2306 3072 2169 3072 
Q 1681 3072 1420 2755 
Q 1159 2438 1159 1844 
L 1159 0 
L 581 0 
L 581 3500 
L 1159 3500 
L 1159 2956 
Q 1341 3275 1631 3429 
Q 1922 3584 2338 3584 
Q 2397 3584 2469 3576 
Q 2541 3569 2628 3553 
L 2631 2963 
z
" transform="scale(0.015625)"/>
       <path id="DejaVuSans-20" transform="scale(0.015625)"/>
       <path id="DejaVuSans-6f" d="M 1959 3097 
Q 1497 3097 1228 2736 
Q 959 2375 959 1747 
Q 959 1119 1226 758 
Q 1494 397 1959 397 
Q 2419 397 2687 759 
Q 2956 1122 2956 1747 
Q 2956 2369 2687 2733 
Q 2419 3097 1959 3097 
z
M 1959 3584 
Q 2709 3584 3137 3096 
Q 3566 2609 3566 1747 
Q 3566 888 3137 398 
Q 2709 -91 1959 -91 
Q 1206 -91 779 398 
Q 353 888 353 1747 
Q 353 2609 779 3096 
Q 1206 3584 1959 3584 
z
" transform="scale(0.015625)"/>
       <path id="DejaVuSans-66" d="M 2375 4863 
L 2375 4384 
L 1825 4384 
Q 1516 4384 1395 4259 
Q 1275 4134 1275 3809 
L 1275 3500 
L 2222 3500 
L 2222 3053 
L 1275 3053 
L 1275 0 
L 697 0 
L 697 3053 
L 147 3053 
L 147 3500 
L 697 3500 
L 697 3744 
Q 697 4328 969 4595 
Q 1241 4863 1831 4863 
L 2375 4863 
z
" transform="scale(0.015625)"/>
       <path id="DejaVuSans-54" d="M -19 4666 
L 3928 4666 
L 3928 4134 
L 2272 4134 
L 2272 0 
L 1638 0 
L 1638 4134 
L -19 4134 
L -19 4666 
z
" transform="scale(0.015625)"/>
       <path id="DejaVuSans-73" d="M 2834 3397 
L 2834 2853 
Q 2591 2978 2328 3040 
Q 2066 3103 1784 3103 
Q 1356 3103 1142 2972 
Q 928 2841 928 2578 
Q 928 2378 1081 2264 
Q 1234 2150 1697 2047 
L 1894 2003 
Q 2506 1872 2764 1633 
Q 3022 1394 3022 966 
Q 3022 478 2636 193 
Q 2250 -91 1575 -91 
Q 1294 -91 989 -36 
Q 684 19 347 128 
L 347 722 
Q 666 556 975 473 
Q 1284 391 1588 391 
Q 1994 391 2212 530 
Q 2431 669 2431 922 
Q 2431 1156 2273 1281 
Q 2116 1406 1581 1522 
L 1381 1569 
Q 847 1681 609 1914 
Q 372 2147 372 2553 
Q 372 3047 722 3315 
Q 1072 3584 1716 3584 
Q 2034 3584 2315 3537 
Q 2597 3491 2834 3397 
z
" transform="scale(0.015625)"/>
       <path id="DejaVuSans-Oblique-6e" d="M 3566 2113 
L 3156 0 
L 2578 0 
L 2988 2091 
Q 3016 2238 3031 2350 
Q 3047 2463 3047 2528 
Q 3047 2791 2881 2937 
Q 2716 3084 2419 3084 
Q 1956 3084 1622 2776 
Q 1288 2469 1184 1941 
L 800 0 
L 225 0 
L 903 3500 
L 1478 3500 
L 1363 2950 
Q 1603 3253 1940 3418 
Q 2278 3584 2650 3584 
Q 3113 3584 3367 3334 
Q 3622 3084 3622 2631 
Q 3622 2519 3608 2391 
Q 3594 2263 3566 2113 
z
" transform="scale(0.015625)"/>
      </defs>
      <use xlink:href="#DejaVuSans-4e" transform="translate(0 0.015625)"/>
      <use xlink:href="#DejaVuSans-75" transform="translate(74.804688 0.015625)"/>
      <use xlink:href="#DejaVuSans-6d" transform="translate(138.183594 0.015625)"/>
      <use xlink:href="#DejaVuSans-62" transform="translate(235.595703 0.015625)"/>
      <use xlink:href="#DejaVuSans-65" transform="translate(299.072266 0.015625)"/>
      <use xlink:href="#DejaVuSans-72" transform="translate(360.595703 0.015625)"/>
      <use xlink:href="#DejaVuSans-20" transform="translate(401.708984 0.015625)"/>
      <use xlink:href="#DejaVuSans-6f" transform="translate(433.496094 0.015625)"/>
      <use xlink:href="#DejaVuSans-66" transform="translate(494.677734 0.015625)"/>
      <use xlink:href="#DejaVuSans-20" transform="translate(529.882812 0.015625)"/>
      <use xlink:href="#DejaVuSans-54" transform="translate(561.669922 0.015625)"/>
      <use xlink:href="#DejaVuSans-65" transform="translate(622.753906 0.015625)"/>
      <use xlink:href="#DejaVuSans-72" transform="translate(684.277344 0.015625)"/>
      <use xlink:href="#DejaVuSans-6d" transform="translate(725.390625 0.015625)"/>
      <use xlink:href="#DejaVuSans-73" transform="translate(822.802734 0.015625)"/>
      <use xlink:href="#DejaVuSans-20" transform="translate(874.902344 0.015625)"/>
      <use xlink:href="#DejaVuSans-20" transform="translate(906.689453 0.015625)"/>
      <use xlink:href="#DejaVuSans-Oblique-6e" transform="translate(938.476562 0.015625)"/>
     </g>
    </g>
   </g>
   <g id="matplotlib.axis_2">
    <g id="ytick_1">
     <g id="line2d_17">
      <path d="M 48.8975 400.32 
L 381.323032 400.32 
" clip-path="url(#pa89d85749b)" style="fill: none; stroke: #2a2a4a; stroke-opacity: 0.3; stroke-width: 0.8; stroke-linecap: square"/>
     </g>
     <g id="line2d_18">
      <defs>
       <path id="m44783d537f" d="M 0 0 
L -3.5 0 
" style="stroke: #eaeaea; stroke-width: 0.8"/>
      </defs>
      <g>
       <use xlink:href="#m44783d537f" x="48.8975" y="400.32" style="fill: #eaeaea; stroke: #eaeaea; stroke-width: 0.8"/>
      </g>
     </g>
     <g id="text_18">
      <!-- 0.0 -->
      <g style="fill: #eaeaea" transform="translate(22.81375 404.879062) scale(0.12 -0.12)">
       <defs>
        <path id="DejaVuSans-2e" d="M 684 794 
L 1344 794 
L 1344 0 
L 684 0 
L 684 794 
z
" transform="scale(0.015625)"/>
       </defs>
       <use xlink:href="#DejaVuSans-30"/>
       <use xlink:href="#DejaVuSans-2e" transform="translate(63.623047 0)"/>
       <use xlink:href="#DejaVuSans-30" transform="translate(95.410156 0)"/>
      </g>
     </g>
    </g>
    <g id="ytick_2">
     <g id="line2d_19">
      <path d="M 48.8975 346.668387 
L 381.323032 346.668387 
" clip-path="url(#pa89d85749b)" style="fill: none; stroke: #2a2a4a; stroke-opacity: 0.3; stroke-width: 0.8; stroke-linecap: square"/>
     </g>
     <g id="line2d_20">
      <g>
       <use xlink:href="#m44783d537f" x="48.8975" y="346.668387" style="fill: #eaeaea; stroke: #eaeaea; stroke-width: 0.8"/>
      </g>
     </g>
     <g id="text_19">
      <!-- 0.5 -->
      <g style="fill: #eaeaea" transform="translate(22.81375 351.22745) scale(0.12 -0.12)">
       <use xlink:href="#DejaVuSans-30"/>
       <use xlink:href="#DejaVuSans-2e" transform="translate(63.623047 0)"/>
       <use xlink:href="#DejaVuSans-35" transform="translate(95.410156 0)"/>
      </g>
     </g>
    </g>
    <g id="ytick_3">
     <g id="line2d_21">
      <path d="M 48.8975 293.016774 
L 381.323032 293.016774 
" clip-path="url(#pa89d85749b)" style="fill: none; stroke: #2a2a4a; stroke-opacity: 0.3; stroke-width: 0.8; stroke-linecap: square"/>
     </g>
     <g id="line2d_22">
      <g>
       <use xlink:href="#m44783d537f" x="48.8975" y="293.016774" style="fill: #eaeaea; stroke: #eaeaea; stroke-width: 0.8"/>
      </g>
     </g>
     <g id="text_20">
      <!-- 1.0 -->
      <g style="fill: #eaeaea" transform="translate(22.81375 297.575837) scale(0.12 -0.12)">
       <use xlink:href="#DejaVuSans-31"/>
       <use xlink:href="#DejaVuSans-2e" transform="translate(63.623047 0)"/>
       <use xlink:href="#DejaVuSans-30" transform="translate(95.410156 0)"/>
      </g>
     </g>
    </g>
    <g id="ytick_4">
     <g id="line2d_23">
      <path d="M 48.8975 239.365161 
L 381.323032 239.365161 
" clip-path="url(#pa89d85749b)" style="fill: none; stroke: #2a2a4a; stroke-opacity: 0.3; stroke-width: 0.8; stroke-linecap: square"/>
     </g>
     <g id="line2d_24">
      <g>
       <use xlink:href="#m44783d537f" x="48.8975" y="239.365161" style="fill: #eaeaea; stroke: #eaeaea; stroke-width: 0.8"/>
      </g>
     </g>
     <g id="text_21">
      <!-- 1.5 -->
      <g style="fill: #eaeaea" transform="translate(22.81375 243.924224) scale(0.12 -0.12)">
       <use xlink:href="#DejaVuSans-31"/>
       <use xlink:href="#DejaVuSans-2e" transform="translate(63.623047 0)"/>
       <use xlink:href="#DejaVuSans-35" transform="translate(95.410156 0)"/>
      </g>
     </g>
    </g>
    <g id="ytick_5">
     <g id="line2d_25">
      <path d="M 48.8975 185.713548 
L 381.323032 185.713548 
" clip-path="url(#pa89d85749b)" style="fill: none; stroke: #2a2a4a; stroke-opacity: 0.3; stroke-width: 0.8; stroke-linecap: square"/>
     </g>
     <g id="line2d_26">
      <g>
       <use xlink:href="#m44783d537f" x="48.8975" y="185.713548" style="fill: #eaeaea; stroke: #eaeaea; stroke-width: 0.8"/>
      </g>
     </g>
     <g id="text_22">
      <!-- 2.0 -->
      <g style="fill: #eaeaea" transform="translate(22.81375 190.272611) scale(0.12 -0.12)">
       <use xlink:href="#DejaVuSans-32"/>
       <use xlink:href="#DejaVuSans-2e" transform="translate(63.623047 0)"/>
       <use xlink:href="#DejaVuSans-30" transform="translate(95.410156 0)"/>
      </g>
     </g>
    </g>
    <g id="ytick_6">
     <g id="line2d_27">
      <path d="M 48.8975 132.061935 
L 381.323032 132.061935 
" clip-path="url(#pa89d85749b)" style="fill: none; stroke: #2a2a4a; stroke-opacity: 0.3; stroke-width: 0.8; stroke-linecap: square"/>
     </g>
     <g id="line2d_28">
      <g>
       <use xlink:href="#m44783d537f" x="48.8975" y="132.061935" style="fill: #eaeaea; stroke: #eaeaea; stroke-width: 0.8"/>
      </g>
     </g>
     <g id="text_23">
      <!-- 2.5 -->
      <g style="fill: #eaeaea" transform="translate(22.81375 136.620998) scale(0.12 -0.12)">
       <use xlink:href="#DejaVuSans-32"/>
       <use xlink:href="#DejaVuSans-2e" transform="translate(63.623047 0)"/>
       <use xlink:href="#DejaVuSans-35" transform="translate(95.410156 0)"/>
      </g>
     </g>
    </g>
    <g id="ytick_7">
     <g id="line2d_29">
      <path d="M 48.8975 78.410323 
L 381.323032 78.410323 
" clip-path="url(#pa89d85749b)" style="fill: none; stroke: #2a2a4a; stroke-opacity: 0.3; stroke-width: 0.8; stroke-linecap: square"/>
     </g>
     <g id="line2d_30">
      <g>
       <use xlink:href="#m44783d537f" x="48.8975" y="78.410323" style="fill: #eaeaea; stroke: #eaeaea; stroke-width: 0.8"/>
      </g>
     </g>
     <g id="text_24">
      <!-- 3.0 -->
      <g style="fill: #eaeaea" transform="translate(22.81375 82.969385) scale(0.12 -0.12)">
       <use xlink:href="#DejaVuSans-33"/>
       <use xlink:href="#DejaVuSans-2e" transform="translate(63.623047 0)"/>
       <use xlink:href="#DejaVuSans-30" transform="translate(95.410156 0)"/>
      </g>
     </g>
    </g>
    <g id="text_25">
     <!-- Partial Sum -->
     <g style="fill: #eaeaea" transform="translate(16.318125 268.216875) rotate(-90) scale(0.12 -0.12)">
      <defs>
       <path id="DejaVuSans-50" d="M 1259 4147 
L 1259 2394 
L 2053 2394 
Q 2494 2394 2734 2622 
Q 2975 2850 2975 3272 
Q 2975 3691 2734 3919 
Q 2494 4147 2053 4147 
L 1259 4147 
z
M 628 4666 
L 2053 4666 
Q 2838 4666 3239 4311 
Q 3641 3956 3641 3272 
Q 3641 2581 3239 2228 
Q 2838 1875 2053 1875 
L 1259 1875 
L 1259 0 
L 628 0 
L 628 4666 
z
" transform="scale(0.015625)"/>
       <path id="DejaVuSans-61" d="M 2194 1759 
Q 1497 1759 1228 1600 
Q 959 1441 959 1056 
Q 959 750 1161 570 
Q 1363 391 1709 391 
Q 2188 391 2477 730 
Q 2766 1069 2766 1631 
L 2766 1759 
L 2194 1759 
z
M 3341 1997 
L 3341 0 
L 2766 0 
L 2766 531 
Q 2569 213 2275 61 
Q 1981 -91 1556 -91 
Q 1019 -91 701 211 
Q 384 513 384 1019 
Q 384 1609 779 1909 
Q 1175 2209 1959 2209 
L 2766 2209 
L 2766 2266 
Q 2766 2663 2505 2880 
Q 2244 3097 1772 3097 
Q 1472 3097 1187 3025 
Q 903 2953 641 2809 
L 641 3341 
Q 956 3463 1253 3523 
Q 1550 3584 1831 3584 
Q 2591 3584 2966 3190 
Q 3341 2797 3341 1997 
z
" transform="scale(0.015625)"/>
       <path id="DejaVuSans-74" d="M 1172 4494 
L 1172 3500 
L 2356 3500 
L 2356 3053 
L 1172 3053 
L 1172 1153 
Q 1172 725 1289 603 
Q 1406 481 1766 481 
L 2356 481 
L 2356 0 
L 1766 0 
Q 1100 0 847 248 
Q 594 497 594 1153 
L 594 3053 
L 172 3053 
L 172 3500 
L 594 3500 
L 594 4494 
L 1172 4494 
z
" transform="scale(0.015625)"/>
       <path id="DejaVuSans-69" d="M 603 3500 
L 1178 3500 
L 1178 0 
L 603 0 
L 603 3500 
z
M 603 4863 
L 1178 4863 
L 1178 4134 
L 603 4134 
L 603 4863 
z
" transform="scale(0.015625)"/>
       <path id="DejaVuSans-6c" d="M 603 4863 
L 1178 4863 
L 1178 0 
L 603 0 
L 603 4863 
z
" transform="scale(0.015625)"/>
       <path id="DejaVuSans-53" d="M 3425 4513 
L 3425 3897 
Q 3066 4069 2747 4153 
Q 2428 4238 2131 4238 
Q 1616 4238 1336 4038 
Q 1056 3838 1056 3469 
Q 1056 3159 1242 3001 
Q 1428 2844 1947 2747 
L 2328 2669 
Q 3034 2534 3370 2195 
Q 3706 1856 3706 1288 
Q 3706 609 3251 259 
Q 2797 -91 1919 -91 
Q 1588 -91 1214 -16 
Q 841 59 441 206 
L 441 856 
Q 825 641 1194 531 
Q 1563 422 1919 422 
Q 2459 422 2753 634 
Q 3047 847 3047 1241 
Q 3047 1584 2836 1778 
Q 2625 1972 2144 2069 
L 1759 2144 
Q 1053 2284 737 2584 
Q 422 2884 422 3419 
Q 422 4038 858 4394 
Q 1294 4750 2059 4750 
Q 2388 4750 2728 4690 
Q 3069 4631 3425 4513 
z
" transform="scale(0.015625)"/>
      </defs>
      <use xlink:href="#DejaVuSans-50"/>
      <use xlink:href="#DejaVuSans-61" transform="translate(55.802734 0)"/>
      <use xlink:href="#DejaVuSans-72" transform="translate(117.082031 0)"/>
      <use xlink:href="#DejaVuSans-74" transform="translate(158.195312 0)"/>
      <use xlink:href="#DejaVuSans-69" transform="translate(197.404297 0)"/>
      <use xlink:href="#DejaVuSans-61" transform="translate(225.1875 0)"/>
      <use xlink:href="#DejaVuSans-6c" transform="translate(286.466797 0)"/>
      <use xlink:href="#DejaVuSans-20" transform="translate(314.25 0)"/>
      <use xlink:href="#DejaVuSans-53" transform="translate(346.037109 0)"/>
      <use xlink:href="#DejaVuSans-75" transform="translate(409.513672 0)"/>
      <use xlink:href="#DejaVuSans-6d" transform="translate(472.892578 0)"/>
     </g>
    </g>
   </g>
   <g id="patch_3">
    <path d="M 48.8975 400.32 
L 48.8975 67.68 
" style="fill: none; stroke: #2a2a4a; stroke-width: 0.8; stroke-linejoin: miter; stroke-linecap: square"/>
   </g>
   <g id="patch_4">
    <path d="M 381.323032 400.32 
L 381.323032 67.68 
" style="fill: none; stroke: #2a2a4a; stroke-width: 0.8; stroke-linejoin: miter; stroke-linecap: square"/>
   </g>
   <g id="patch_5">
    <path d="M 48.8975 400.32 
L 381.323032 400.32 
" style="fill: none; stroke: #2a2a4a; stroke-width: 0.8; stroke-linejoin: miter; stroke-linecap: square"/>
   </g>
   <g id="patch_6">
    <path d="M 48.8975 67.68 
L 381.323032 67.68 
" style="fill: none; stroke: #2a2a4a; stroke-width: 0.8; stroke-linejoin: miter; stroke-linecap: square"/>
   </g>
   <g id="patch_7">
    <path d="M 64.007751 400.32 
L 79.309272 400.32 
L 79.309272 293.016774 
L 64.007751 293.016774 
z
" clip-path="url(#pa89d85749b)" style="fill: #8f0da4; stroke: #2a2a4a; stroke-width: 0.6; stroke-linejoin: miter"/>
   </g>
   <g id="patch_8">
    <path d="M 83.134652 400.32 
L 98.436172 400.32 
L 98.436172 185.713548 
L 83.134652 185.713548 
z
" clip-path="url(#pa89d85749b)" style="fill: #a01a9c; stroke: #2a2a4a; stroke-width: 0.6; stroke-linejoin: miter"/>
   </g>
   <g id="patch_9">
    <path d="M 102.261553 400.32 
L 117.563073 400.32 
L 117.563073 132.061935 
L 102.261553 132.061935 
z
" clip-path="url(#pa89d85749b)" style="fill: #ae2892; stroke: #2a2a4a; stroke-width: 0.6; stroke-linejoin: miter"/>
   </g>
   <g id="patch_10">
    <path d="M 121.388453 400.32 
L 136.689974 400.32 
L 136.689974 114.178065 
L 121.388453 114.178065 
z
" clip-path="url(#pa89d85749b)" style="fill: #bc3587; stroke: #2a2a4a; stroke-width: 0.6; stroke-linejoin: miter"/>
   </g>
   <g id="patch_11">
    <path d="M 140.515354 400.32 
L 155.816874 400.32 
L 155.816874 109.707097 
L 140.515354 109.707097 
z
" clip-path="url(#pa89d85749b)" style="fill: #c8437b; stroke: #2a2a4a; stroke-width: 0.6; stroke-linejoin: miter"/>
   </g>
   <g id="patch_12">
    <path d="M 159.642254 400.32 
L 174.943775 400.32 
L 174.943775 108.812903 
L 159.642254 108.812903 
z
" clip-path="url(#pa89d85749b)" style="fill: #d35171; stroke: #2a2a4a; stroke-width: 0.6; stroke-linejoin: miter"/>
   </g>
   <g id="patch_13">
    <path d="M 178.769155 400.32 
L 194.070675 400.32 
L 194.070675 108.663871 
L 178.769155 108.663871 
z
" clip-path="url(#pa89d85749b)" style="fill: #dd5e66; stroke: #2a2a4a; stroke-width: 0.6; stroke-linejoin: miter"/>
   </g>
   <g id="patch_14">
    <path d="M 197.896055 400.32 
L 213.197576 400.32 
L 213.197576 108.642581 
L 197.896055 108.642581 
z
" clip-path="url(#pa89d85749b)" style="fill: #e66c5c; stroke: #2a2a4a; stroke-width: 0.6; stroke-linejoin: miter"/>
   </g>
   <g id="patch_15">
    <path d="M 217.022956 400.32 
L 232.324476 400.32 
L 232.324476 108.639919 
L 217.022956 108.639919 
z
" clip-path="url(#pa89d85749b)" style="fill: #ee7b51; stroke: #2a2a4a; stroke-width: 0.6; stroke-linejoin: miter"/>
   </g>
   <g id="patch_16">
    <path d="M 236.149857 400.32 
L 251.451377 400.32 
L 251.451377 108.639624 
L 236.149857 108.639624 
z
" clip-path="url(#pa89d85749b)" style="fill: #f58b47; stroke: #2a2a4a; stroke-width: 0.6; stroke-linejoin: miter"/>
   </g>
   <g id="patch_17">
    <path d="M 255.276757 400.32 
L 270.578278 400.32 
L 270.578278 108.639594 
L 255.276757 108.639594 
z
" clip-path="url(#pa89d85749b)" style="fill: #fa9b3d; stroke: #2a2a4a; stroke-width: 0.6; stroke-linejoin: miter"/>
   </g>
   <g id="patch_18">
    <path d="M 274.403658 400.32 
L 289.705178 400.32 
L 289.705178 108.639591 
L 274.403658 108.639591 
z
" clip-path="url(#pa89d85749b)" style="fill: #fdac33; stroke: #2a2a4a; stroke-width: 0.6; stroke-linejoin: miter"/>
   </g>
   <g id="patch_19">
    <path d="M 293.530558 400.32 
L 308.832079 400.32 
L 308.832079 108.639591 
L 293.530558 108.639591 
z
" clip-path="url(#pa89d85749b)" style="fill: #febe2a; stroke: #2a2a4a; stroke-width: 0.6; stroke-linejoin: miter"/>
   </g>
   <g id="patch_20">
    <path d="M 312.657459 400.32 
L 327.958979 400.32 
L 327.958979 108.639591 
L 312.657459 108.639591 
z
" clip-path="url(#pa89d85749b)" style="fill: #fcd225; stroke: #2a2a4a; stroke-width: 0.6; stroke-linejoin: miter"/>
   </g>
   <g id="patch_21">
    <path d="M 331.784359 400.32 
L 347.08588 400.32 
L 347.08588 108.639591 
L 331.784359 108.639591 
z
" clip-path="url(#pa89d85749b)" style="fill: #f6e626; stroke: #2a2a4a; stroke-width: 0.6; stroke-linejoin: miter"/>
   </g>
   <g id="patch_22">
    <path d="M 350.91126 400.32 
L 366.21278 400.32 
L 366.21278 108.639591 
L 350.91126 108.639591 
z
" clip-path="url(#pa89d85749b)" style="fill: #f0f921; stroke: #2a2a4a; stroke-width: 0.6; stroke-linejoin: miter"/>
   </g>
   <g id="patch_23">
    <path d="M 309.545435 174.073169 
Q 333.453885 142.157127 356.557966 111.314858 
" style="fill: none; stroke: #00d2ff; stroke-width: 1.2; stroke-linecap: round"/>
    <path d="M 352.958998 113.116922 
L 356.557966 111.314858 
L 355.840236 115.275271 
" style="fill: none; stroke: #00d2ff; stroke-width: 1.2; stroke-linecap: round"/>
   </g>
   <g id="text_26">
    <g id="patch_24">
     <path d="M 243.800617 190.285267 
L 361.571242 190.285267 
Q 364.271242 190.285267 364.271242 187.585267 
L 364.271242 178.874955 
Q 364.271242 176.174955 361.571242 176.174955 
L 243.800617 176.174955 
Q 241.100617 176.174955 241.100617 178.874955 
L 241.100617 187.585267 
Q 241.100617 190.285267 243.800617 190.285267 
z
" style="fill: #1a1a2e; opacity: 0.8; stroke: #ffffff; stroke-linejoin: miter"/>
    </g>
    <!-- Sum(15) ≈ 2.7182818285 -->
    <g style="fill: #00d2ff" transform="translate(243.800617 185.713548) scale(0.09 -0.09)">
     <defs>
      <path id="DejaVuSans-28" d="M 1984 4856 
Q 1566 4138 1362 3434 
Q 1159 2731 1159 2009 
Q 1159 1288 1364 580 
Q 1569 -128 1984 -844 
L 1484 -844 
Q 1016 -109 783 600 
Q 550 1309 550 2009 
Q 550 2706 781 3412 
Q 1013 4119 1484 4856 
L 1984 4856 
z
" transform="scale(0.015625)"/>
      <path id="DejaVuSans-29" d="M 513 4856 
L 1013 4856 
Q 1481 4119 1714 3412 
Q 1947 2706 1947 2009 
Q 1947 1309 1714 600 
Q 1481 -109 1013 -844 
L 513 -844 
Q 928 -128 1133 580 
Q 1338 1288 1338 2009 
Q 1338 2731 1133 3434 
Q 928 4138 513 4856 
z
" transform="scale(0.015625)"/>
      <path id="DejaVuSans-2248" d="M 4684 1947 
L 4684 1388 
Q 4356 1144 4076 1036 
Q 3797 928 3494 928 
Q 3150 928 2694 1113 
Q 2663 1125 2641 1134 
Q 2622 1141 2575 1159 
Q 2091 1350 1797 1350 
Q 1522 1350 1253 1231 
Q 984 1113 678 850 
L 678 1409 
Q 1006 1653 1286 1761 
Q 1566 1869 1869 1869 
Q 2213 1869 2672 1684 
Q 2706 1669 2722 1663 
Q 2741 1656 2788 1638 
Q 3272 1447 3566 1447 
Q 3834 1447 4098 1564 
Q 4363 1681 4684 1947 
z
M 4684 3163 
L 4684 2606 
Q 4356 2359 4076 2251 
Q 3797 2144 3494 2144 
Q 3150 2144 2694 2328 
Q 2663 2341 2641 2350 
Q 2622 2356 2575 2375 
Q 2091 2566 1797 2566 
Q 1522 2566 1253 2447 
Q 984 2328 678 2069 
L 678 2625 
Q 1006 2869 1286 2976 
Q 1566 3084 1869 3084 
Q 2213 3084 2672 2900 
Q 2703 2888 2719 2881 
Q 2741 2872 2788 2853 
Q 3272 2663 3566 2663 
Q 3834 2663 4098 2780 
Q 4363 2897 4684 3163 
z
" transform="scale(0.015625)"/>
     </defs>
     <use xlink:href="#DejaVuSans-53"/>
     <use xlink:href="#DejaVuSans-75" transform="translate(63.476562 0)"/>
     <use xlink:href="#DejaVuSans-6d" transform="translate(126.855469 0)"/>
     <use xlink:href="#DejaVuSans-28" transform="translate(224.267578 0)"/>
     <use xlink:href="#DejaVuSans-31" transform="translate(263.28125 0)"/>
     <use xlink:href="#DejaVuSans-35" transform="translate(326.904297 0)"/>
     <use xlink:href="#DejaVuSans-29" transform="translate(390.527344 0)"/>
     <use xlink:href="#DejaVuSans-20" transform="translate(429.541016 0)"/>
     <use xlink:href="#DejaVuSans-2248" transform="translate(461.328125 0)"/>
     <use xlink:href="#DejaVuSans-20" transform="translate(545.117188 0)"/>
     <use xlink:href="#DejaVuSans-32" transform="translate(576.904297 0)"/>
     <use xlink:href="#DejaVuSans-2e" transform="translate(640.527344 0)"/>
     <use xlink:href="#DejaVuSans-37" transform="translate(672.314453 0)"/>
     <use xlink:href="#DejaVuSans-31" transform="translate(735.9375 0)"/>
     <use xlink:href="#DejaVuSans-38" transform="translate(799.560547 0)"/>
     <use xlink:href="#DejaVuSans-32" transform="translate(863.183594 0)"/>
     <use xlink:href="#DejaVuSans-38" transform="translate(926.806641 0)"/>
     <use xlink:href="#DejaVuSans-31" transform="translate(990.429688 0)"/>
     <use xlink:href="#DejaVuSans-38" transform="translate(1054.052734 0)"/>
     <use xlink:href="#DejaVuSans-32" transform="translate(1117.675781 0)"/>
     <use xlink:href="#DejaVuSans-38" transform="translate(1181.298828 0)"/>
     <use xlink:href="#DejaVuSans-35" transform="translate(1244.921875 0)"/>
    </g>
   </g>
   <g id="text_27">
    <!-- 1/0! -->
    <g style="fill: #ffffff; opacity: 0.7" transform="translate(64.622418 348.59995) scale(0.07 -0.07)">
     <defs>
      <path id="DejaVuSans-2f" d="M 1625 4666 
L 2156 4666 
L 531 -594 
L 0 -594 
L 1625 4666 
z
" transform="scale(0.015625)"/>
      <path id="DejaVuSans-21" d="M 966 794 
L 1600 794 
L 1600 0 
L 966 0 
L 966 794 
z
M 966 4666 
L 1600 4666 
L 1600 2619 
L 1538 1503 
L 1031 1503 
L 966 2619 
L 966 4666 
z
" transform="scale(0.015625)"/>
     </defs>
     <use xlink:href="#DejaVuSans-31"/>
     <use xlink:href="#DejaVuSans-2f" transform="translate(63.623047 0)"/>
     <use xlink:href="#DejaVuSans-30" transform="translate(97.314453 0)"/>
     <use xlink:href="#DejaVuSans-21" transform="translate(160.9375 0)"/>
    </g>
   </g>
   <g id="text_28">
    <!-- 1/1! -->
    <g style="fill: #ffffff; opacity: 0.7" transform="translate(83.749318 294.948337) scale(0.07 -0.07)">
     <use xlink:href="#DejaVuSans-31"/>
     <use xlink:href="#DejaVuSans-2f" transform="translate(63.623047 0)"/>
     <use xlink:href="#DejaVuSans-31" transform="translate(97.314453 0)"/>
     <use xlink:href="#DejaVuSans-21" transform="translate(160.9375 0)"/>
    </g>
   </g>
   <g id="text_29">
    <!-- 1/2! -->
    <g style="fill: #ffffff; opacity: 0.7" transform="translate(102.876219 268.12253) scale(0.07 -0.07)">
     <use xlink:href="#DejaVuSans-31"/>
     <use xlink:href="#DejaVuSans-2f" transform="translate(63.623047 0)"/>
     <use xlink:href="#DejaVuSans-32" transform="translate(97.314453 0)"/>
     <use xlink:href="#DejaVuSans-21" transform="translate(160.9375 0)"/>
    </g>
   </g>
   <g id="text_30">
    <!-- 1/3! -->
    <g style="fill: #ffffff; opacity: 0.7" transform="translate(122.00312 259.180595) scale(0.07 -0.07)">
     <use xlink:href="#DejaVuSans-31"/>
     <use xlink:href="#DejaVuSans-2f" transform="translate(63.623047 0)"/>
     <use xlink:href="#DejaVuSans-33" transform="translate(97.314453 0)"/>
     <use xlink:href="#DejaVuSans-21" transform="translate(160.9375 0)"/>
    </g>
   </g>
   <g id="text_31">
    <!-- 1/4! -->
    <g style="fill: #ffffff; opacity: 0.7" transform="translate(141.13002 256.945111) scale(0.07 -0.07)">
     <use xlink:href="#DejaVuSans-31"/>
     <use xlink:href="#DejaVuSans-2f" transform="translate(63.623047 0)"/>
     <use xlink:href="#DejaVuSans-34" transform="translate(97.314453 0)"/>
     <use xlink:href="#DejaVuSans-21" transform="translate(160.9375 0)"/>
    </g>
   </g>
   <g id="text_32">
    <!-- $e = \sum_{k=0}^{n} \frac{1}{k!}$ — Partial Sums -->
    <g style="fill: #eaeaea" transform="translate(115.830266 51.52) scale(0.16 -0.16)">
     <defs>
      <path id="DejaVuSans-Oblique-65" d="M 3078 2063 
Q 3088 2113 3092 2166 
Q 3097 2219 3097 2272 
Q 3097 2653 2873 2875 
Q 2650 3097 2266 3097 
Q 1838 3097 1509 2826 
Q 1181 2556 1013 2059 
L 3078 2063 
z
M 3578 1613 
L 903 1613 
Q 884 1494 878 1425 
Q 872 1356 872 1306 
Q 872 872 1139 634 
Q 1406 397 1894 397 
Q 2269 397 2603 481 
Q 2938 566 3225 728 
L 3116 159 
Q 2806 34 2476 -28 
Q 2147 -91 1806 -91 
Q 1078 -91 686 257 
Q 294 606 294 1247 
Q 294 1794 489 2264 
Q 684 2734 1063 3103 
Q 1306 3334 1642 3459 
Q 1978 3584 2356 3584 
Q 2950 3584 3301 3228 
Q 3653 2872 3653 2272 
Q 3653 2128 3634 1964 
Q 3616 1800 3578 1613 
z
" transform="scale(0.015625)"/>
      <path id="DejaVuSans-3d" d="M 678 2906 
L 4684 2906 
L 4684 2381 
L 678 2381 
L 678 2906 
z
M 678 1631 
L 4684 1631 
L 4684 1100 
L 678 1100 
L 678 1631 
z
" transform="scale(0.015625)"/>
      <path id="DejaVuSansDisplay-2211" d="M 244 6509 
L 5803 6509 
L 5803 5656 
L 1566 5656 
L 4534 2488 
L 1469 -888 
L 5919 -888 
L 5919 -1738 
L 109 -1738 
L 109 -1078 
L 3316 2463 
L 244 5728 
L 244 6509 
z
" transform="scale(0.015625)"/>
      <path id="DejaVuSans-Oblique-6b" d="M 1172 4863 
L 1747 4863 
L 1197 2028 
L 3169 3500 
L 3916 3500 
L 1716 1825 
L 3322 0 
L 2625 0 
L 1131 1709 
L 800 0 
L 225 0 
L 1172 4863 
z
" transform="scale(0.015625)"/>
      <path id="DejaVuSansDisplay-2014" d="M 313 1978 
L 6088 1978 
L 6088 1528 
L 313 1528 
L 313 1978 
z
" transform="scale(0.015625)"/>
     </defs>
     <use xlink:href="#DejaVuSans-Oblique-65" transform="translate(0 0.346875)"/>
     <use xlink:href="#DejaVuSans-3d" transform="translate(81.005859 0.346875)"/>
     <use xlink:href="#DejaVuSans-Oblique-6e" transform="translate(247.277344 120.8) scale(0.7)"/>
     <use xlink:href="#DejaVuSansDisplay-2211" transform="translate(224.277344 0.346875)"/>
     <use xlink:href="#DejaVuSans-Oblique-6b" transform="translate(184.277344 -98.748438) scale(0.7)"/>
     <use xlink:href="#DejaVuSans-3d" transform="translate(238.452148 -98.748438) scale(0.7)"/>
     <use xlink:href="#DejaVuSans-30" transform="translate(310.742188 -98.748438) scale(0.7)"/>
     <use xlink:href="#DejaVuSans-31" transform="translate(374.27832 44.14375) scale(0.7)"/>
     <use xlink:href="#DejaVuSans-Oblique-6b" transform="translate(355.27832 -40.295313) scale(0.7)"/>
     <use xlink:href="#DejaVuSans-21" transform="translate(395.81543 -40.295313) scale(0.7)"/>
     <use xlink:href="#DejaVuSans-20" transform="translate(450.014648 0.346875)"/>
     <use xlink:href="#DejaVuSansDisplay-2014" transform="translate(481.801758 0.346875)"/>
     <use xlink:href="#DejaVuSans-20" transform="translate(581.801758 0.346875)"/>
     <use xlink:href="#DejaVuSans-50" transform="translate(613.588867 0.346875)"/>
     <use xlink:href="#DejaVuSans-61" transform="translate(673.891602 0.346875)"/>
     <use xlink:href="#DejaVuSans-72" transform="translate(735.170898 0.346875)"/>
     <use xlink:href="#DejaVuSans-74" transform="translate(776.28418 0.346875)"/>
     <use xlink:href="#DejaVuSans-69" transform="translate(815.493164 0.346875)"/>
     <use xlink:href="#DejaVuSans-61" transform="translate(843.276367 0.346875)"/>
     <use xlink:href="#DejaVuSans-6c" transform="translate(904.555664 0.346875)"/>
     <use xlink:href="#DejaVuSans-20" transform="translate(932.338867 0.346875)"/>
     <use xlink:href="#DejaVuSans-53" transform="translate(964.125977 0.346875)"/>
     <use xlink:href="#DejaVuSans-75" transform="translate(1027.602539 0.346875)"/>
     <use xlink:href="#DejaVuSans-6d" transform="translate(1090.981445 0.346875)"/>
     <use xlink:href="#DejaVuSans-73" transform="translate(1188.393555 0.346875)"/>
     <path d="M 355.27832 19.14375 
L 355.27832 25.39375 
L 437.514648 25.39375 
L 437.514648 19.14375 
L 355.27832 19.14375 
z
"/>
    </g>
   </g>
   <g id="line2d_31">
    <path d="M 48.8975 108.639591 
L 381.323032 108.639591 
" clip-path="url(#pa89d85749b)" style="fill: none; stroke-dasharray: 7.4,3.2; stroke-dashoffset: 0; stroke: #e74c3c; stroke-width: 2"/>
   </g>
   <g id="legend_1">
    <g id="patch_25">
     <path d="M 222.323032 94.89375 
L 372.923032 94.89375 
Q 375.323032 94.89375 375.323032 92.49375 
L 375.323032 76.08 
Q 375.323032 73.68 372.923032 73.68 
L 222.323032 73.68 
Q 219.923032 73.68 219.923032 76.08 
L 219.923032 92.49375 
Q 219.923032 94.89375 222.323032 94.89375 
z
" style="fill: #16213e; opacity: 0.8; stroke: #2a2a4a; stroke-linejoin: miter"/>
    </g>
    <g id="line2d_32">
     <path d="M 224.723032 83.398125 
L 236.723032 83.398125 
L 248.723032 83.398125 
" style="fill: none; stroke-dasharray: 7.4,3.2; stroke-dashoffset: 0; stroke: #e74c3c; stroke-width: 2"/>
    </g>
    <g id="text_33">
     <!-- $e = 2.71828183...$ -->
     <g style="fill: #eaeaea" transform="translate(258.323032 87.598125) scale(0.12 -0.12)">
      <use xlink:href="#DejaVuSans-Oblique-65" transform="translate(0 0.78125)"/>
      <use xlink:href="#DejaVuSans-3d" transform="translate(81.005859 0.78125)"/>
      <use xlink:href="#DejaVuSans-32" transform="translate(184.277344 0.78125)"/>
      <use xlink:href="#DejaVuSans-2e" transform="translate(247.900391 0.78125)"/>
      <use xlink:href="#DejaVuSans-37" transform="translate(271.9375 0.78125)"/>
      <use xlink:href="#DejaVuSans-31" transform="translate(335.560547 0.78125)"/>
      <use xlink:href="#DejaVuSans-38" transform="translate(399.183594 0.78125)"/>
      <use xlink:href="#DejaVuSans-32" transform="translate(462.806641 0.78125)"/>
      <use xlink:href="#DejaVuSans-38" transform="translate(526.429688 0.78125)"/>
      <use xlink:href="#DejaVuSans-31" transform="translate(590.052734 0.78125)"/>
      <use xlink:href="#DejaVuSans-38" transform="translate(653.675781 0.78125)"/>
      <use xlink:href="#DejaVuSans-33" transform="translate(717.298828 0.78125)"/>
      <use xlink:href="#DejaVuSans-2e" transform="translate(780.921875 0.78125)"/>
      <use xlink:href="#DejaVuSans-2e" transform="translate(832.191406 0.78125)"/>
      <use xlink:href="#DejaVuSans-2e" transform="translate(883.460938 0.78125)"/>
     </g>
    </g>
   </g>
  </g>
  <g id="axes_2">
   <g id="patch_26">
    <path d="M 497.671968 400.32 
L 830.0975 400.32 
L 830.0975 67.68 
L 497.671968 67.68 
z
" style="fill: #16213e"/>
   </g>
   <g id="matplotlib.axis_3">
    <g id="xtick_17">
     <g id="line2d_33">
      <path d="M 512.556693 400.32 
L 512.556693 67.68 
" clip-path="url(#p1da6069546)" style="fill: none; stroke: #2a2a4a; stroke-opacity: 0.3; stroke-width: 0.8; stroke-linecap: square"/>
     </g>
     <g id="line2d_34">
      <g>
       <use xlink:href="#m9c04942ac5" x="512.556693" y="400.32" style="fill: #eaeaea; stroke: #eaeaea; stroke-width: 0.8"/>
      </g>
     </g>
     <g id="text_34">
      <!-- 0 -->
      <g style="fill: #eaeaea" transform="translate(508.739193 416.438125) scale(0.12 -0.12)">
       <use xlink:href="#DejaVuSans-30"/>
      </g>
     </g>
    </g>
    <g id="xtick_18">
     <g id="line2d_35">
      <path d="M 552.249294 400.32 
L 552.249294 67.68 
" clip-path="url(#p1da6069546)" style="fill: none; stroke: #2a2a4a; stroke-opacity: 0.3; stroke-width: 0.8; stroke-linecap: square"/>
     </g>
     <g id="line2d_36">
      <g>
       <use xlink:href="#m9c04942ac5" x="552.249294" y="400.32" style="fill: #eaeaea; stroke: #eaeaea; stroke-width: 0.8"/>
      </g>
     </g>
     <g id="text_35">
      <!-- 2 -->
      <g style="fill: #eaeaea" transform="translate(548.431794 416.438125) scale(0.12 -0.12)">
       <use xlink:href="#DejaVuSans-32"/>
      </g>
     </g>
    </g>
    <g id="xtick_19">
     <g id="line2d_37">
      <path d="M 591.941895 400.32 
L 591.941895 67.68 
" clip-path="url(#p1da6069546)" style="fill: none; stroke: #2a2a4a; stroke-opacity: 0.3; stroke-width: 0.8; stroke-linecap: square"/>
     </g>
     <g id="line2d_38">
      <g>
       <use xlink:href="#m9c04942ac5" x="591.941895" y="400.32" style="fill: #eaeaea; stroke: #eaeaea; stroke-width: 0.8"/>
      </g>
     </g>
     <g id="text_36">
      <!-- 4 -->
      <g style="fill: #eaeaea" transform="translate(588.124395 416.438125) scale(0.12 -0.12)">
       <use xlink:href="#DejaVuSans-34"/>
      </g>
     </g>
    </g>
    <g id="xtick_20">
     <g id="line2d_39">
      <path d="M 631.634496 400.32 
L 631.634496 67.68 
" clip-path="url(#p1da6069546)" style="fill: none; stroke: #2a2a4a; stroke-opacity: 0.3; stroke-width: 0.8; stroke-linecap: square"/>
     </g>
     <g id="line2d_40">
      <g>
       <use xlink:href="#m9c04942ac5" x="631.634496" y="400.32" style="fill: #eaeaea; stroke: #eaeaea; stroke-width: 0.8"/>
      </g>
     </g>
     <g id="text_37">
      <!-- 6 -->
      <g style="fill: #eaeaea" transform="translate(627.816996 416.438125) scale(0.12 -0.12)">
       <use xlink:href="#DejaVuSans-36"/>
      </g>
     </g>
    </g>
    <g id="xtick_21">
     <g id="line2d_41">
      <path d="M 671.327097 400.32 
L 671.327097 67.68 
" clip-path="url(#p1da6069546)" style="fill: none; stroke: #2a2a4a; stroke-opacity: 0.3; stroke-width: 0.8; stroke-linecap: square"/>
     </g>
     <g id="line2d_42">
      <g>
       <use xlink:href="#m9c04942ac5" x="671.327097" y="400.32" style="fill: #eaeaea; stroke: #eaeaea; stroke-width: 0.8"/>
      </g>
     </g>
     <g id="text_38">
      <!-- 8 -->
      <g style="fill: #eaeaea" transform="translate(667.509597 416.438125) scale(0.12 -0.12)">
       <use xlink:href="#DejaVuSans-38"/>
      </g>
     </g>
    </g>
    <g id="xtick_22">
     <g id="line2d_43">
      <path d="M 711.019698 400.32 
L 711.019698 67.68 
" clip-path="url(#p1da6069546)" style="fill: none; stroke: #2a2a4a; stroke-opacity: 0.3; stroke-width: 0.8; stroke-linecap: square"/>
     </g>
     <g id="line2d_44">
      <g>
       <use xlink:href="#m9c04942ac5" x="711.019698" y="400.32" style="fill: #eaeaea; stroke: #eaeaea; stroke-width: 0.8"/>
      </g>
     </g>
     <g id="text_39">
      <!-- 10 -->
      <g style="fill: #eaeaea" transform="translate(703.384698 416.438125) scale(0.12 -0.12)">
       <use xlink:href="#DejaVuSans-31"/>
       <use xlink:href="#DejaVuSans-30" transform="translate(63.623047 0)"/>
      </g>
     </g>
    </g>
    <g id="xtick_23">
     <g id="line2d_45">
      <path d="M 750.712298 400.32 
L 750.712298 67.68 
" clip-path="url(#p1da6069546)" style="fill: none; stroke: #2a2a4a; stroke-opacity: 0.3; stroke-width: 0.8; stroke-linecap: square"/>
     </g>
     <g id="line2d_46">
      <g>
       <use xlink:href="#m9c04942ac5" x="750.712298" y="400.32" style="fill: #eaeaea; stroke: #eaeaea; stroke-width: 0.8"/>
      </g>
     </g>
     <g id="text_40">
      <!-- 12 -->
      <g style="fill: #eaeaea" transform="translate(743.077298 416.438125) scale(0.12 -0.12)">
       <use xlink:href="#DejaVuSans-31"/>
       <use xlink:href="#DejaVuSans-32" transform="translate(63.623047 0)"/>
      </g>
     </g>
    </g>
    <g id="xtick_24">
     <g id="line2d_47">
      <path d="M 790.404899 400.32 
L 790.404899 67.68 
" clip-path="url(#p1da6069546)" style="fill: none; stroke: #2a2a4a; stroke-opacity: 0.3; stroke-width: 0.8; stroke-linecap: square"/>
     </g>
     <g id="line2d_48">
      <g>
       <use xlink:href="#m9c04942ac5" x="790.404899" y="400.32" style="fill: #eaeaea; stroke: #eaeaea; stroke-width: 0.8"/>
      </g>
     </g>
     <g id="text_41">
      <!-- 14 -->
      <g style="fill: #eaeaea" transform="translate(782.769899 416.438125) scale(0.12 -0.12)">
       <use xlink:href="#DejaVuSans-31"/>
       <use xlink:href="#DejaVuSans-34" transform="translate(63.623047 0)"/>
      </g>
     </g>
    </g>
    <g id="xtick_25">
     <g id="line2d_49">
      <path d="M 830.0975 400.32 
L 830.0975 67.68 
" clip-path="url(#p1da6069546)" style="fill: none; stroke: #2a2a4a; stroke-opacity: 0.3; stroke-width: 0.8; stroke-linecap: square"/>
     </g>
     <g id="line2d_50">
      <g>
       <use xlink:href="#m9c04942ac5" x="830.0975" y="400.32" style="fill: #eaeaea; stroke: #eaeaea; stroke-width: 0.8"/>
      </g>
     </g>
     <g id="text_42">
      <!-- 16 -->
      <g style="fill: #eaeaea" transform="translate(822.4625 416.438125) scale(0.12 -0.12)">
       <use xlink:href="#DejaVuSans-31"/>
       <use xlink:href="#DejaVuSans-36" transform="translate(63.623047 0)"/>
      </g>
     </g>
    </g>
    <g id="text_43">
     <!-- Number of Terms  $n$ -->
     <g style="fill: #eaeaea" transform="translate(603.764734 432.051875) scale(0.12 -0.12)">
      <use xlink:href="#DejaVuSans-4e" transform="translate(0 0.015625)"/>
      <use xlink:href="#DejaVuSans-75" transform="translate(74.804688 0.015625)"/>
      <use xlink:href="#DejaVuSans-6d" transform="translate(138.183594 0.015625)"/>
      <use xlink:href="#DejaVuSans-62" transform="translate(235.595703 0.015625)"/>
      <use xlink:href="#DejaVuSans-65" transform="translate(299.072266 0.015625)"/>
      <use xlink:href="#DejaVuSans-72" transform="translate(360.595703 0.015625)"/>
      <use xlink:href="#DejaVuSans-20" transform="translate(401.708984 0.015625)"/>
      <use xlink:href="#DejaVuSans-6f" transform="translate(433.496094 0.015625)"/>
      <use xlink:href="#DejaVuSans-66" transform="translate(494.677734 0.015625)"/>
      <use xlink:href="#DejaVuSans-20" transform="translate(529.882812 0.015625)"/>
      <use xlink:href="#DejaVuSans-54" transform="translate(561.669922 0.015625)"/>
      <use xlink:href="#DejaVuSans-65" transform="translate(622.753906 0.015625)"/>
      <use xlink:href="#DejaVuSans-72" transform="translate(684.277344 0.015625)"/>
      <use xlink:href="#DejaVuSans-6d" transform="translate(725.390625 0.015625)"/>
      <use xlink:href="#DejaVuSans-73" transform="translate(822.802734 0.015625)"/>
      <use xlink:href="#DejaVuSans-20" transform="translate(874.902344 0.015625)"/>
      <use xlink:href="#DejaVuSans-20" transform="translate(906.689453 0.015625)"/>
      <use xlink:href="#DejaVuSans-Oblique-6e" transform="translate(938.476562 0.015625)"/>
     </g>
    </g>
   </g>
   <g id="matplotlib.axis_4">
    <g id="ytick_8">
     <g id="line2d_51">
      <path d="M 497.671968 356.166585 
L 830.0975 356.166585 
" clip-path="url(#p1da6069546)" style="fill: none; stroke: #2a2a4a; stroke-opacity: 0.3; stroke-width: 0.8; stroke-linecap: square"/>
     </g>
     <g id="line2d_52">
      <g>
       <use xlink:href="#m44783d537f" x="497.671968" y="356.166585" style="fill: #eaeaea; stroke: #eaeaea; stroke-width: 0.8"/>
      </g>
     </g>
     <g id="text_44">
      <!-- $\mathdefault{10^{-12}}$ -->
      <g style="fill: #eaeaea" transform="translate(457.191968 360.725647) scale(0.12 -0.12)">
       <defs>
        <path id="DejaVuSans-2212" d="M 678 2272 
L 4684 2272 
L 4684 1741 
L 678 1741 
L 678 2272 
z
" transform="scale(0.015625)"/>
       </defs>
       <use xlink:href="#DejaVuSans-31" transform="translate(0 0.765625)"/>
       <use xlink:href="#DejaVuSans-30" transform="translate(63.623047 0.765625)"/>
       <use xlink:href="#DejaVuSans-2212" transform="translate(128.203125 39.046875) scale(0.7)"/>
       <use xlink:href="#DejaVuSans-31" transform="translate(186.855469 39.046875) scale(0.7)"/>
       <use xlink:href="#DejaVuSans-32" transform="translate(231.391602 39.046875) scale(0.7)"/>
      </g>
     </g>
    </g>
    <g id="ytick_9">
     <g id="line2d_53">
      <path d="M 497.671968 311.480933 
L 830.0975 311.480933 
" clip-path="url(#p1da6069546)" style="fill: none; stroke: #2a2a4a; stroke-opacity: 0.3; stroke-width: 0.8; stroke-linecap: square"/>
     </g>
     <g id="line2d_54">
      <g>
       <use xlink:href="#m44783d537f" x="497.671968" y="311.480933" style="fill: #eaeaea; stroke: #eaeaea; stroke-width: 0.8"/>
      </g>
     </g>
     <g id="text_45">
      <!-- $\mathdefault{10^{-10}}$ -->
      <g style="fill: #eaeaea" transform="translate(457.191968 316.039995) scale(0.12 -0.12)">
       <use xlink:href="#DejaVuSans-31" transform="translate(0 0.765625)"/>
       <use xlink:href="#DejaVuSans-30" transform="translate(63.623047 0.765625)"/>
       <use xlink:href="#DejaVuSans-2212" transform="translate(128.203125 39.046875) scale(0.7)"/>
       <use xlink:href="#DejaVuSans-31" transform="translate(186.855469 39.046875) scale(0.7)"/>
       <use xlink:href="#DejaVuSans-30" transform="translate(231.391602 39.046875) scale(0.7)"/>
      </g>
     </g>
    </g>
    <g id="ytick_10">
     <g id="line2d_55">
      <path d="M 497.671968 266.795281 
L 830.0975 266.795281 
" clip-path="url(#p1da6069546)" style="fill: none; stroke: #2a2a4a; stroke-opacity: 0.3; stroke-width: 0.8; stroke-linecap: square"/>
     </g>
     <g id="line2d_56">
      <g>
       <use xlink:href="#m44783d537f" x="497.671968" y="266.795281" style="fill: #eaeaea; stroke: #eaeaea; stroke-width: 0.8"/>
      </g>
     </g>
     <g id="text_46">
      <!-- $\mathdefault{10^{-8}}$ -->
      <g style="fill: #eaeaea" transform="translate(462.471968 271.354344) scale(0.12 -0.12)">
       <use xlink:href="#DejaVuSans-31" transform="translate(0 0.765625)"/>
       <use xlink:href="#DejaVuSans-30" transform="translate(63.623047 0.765625)"/>
       <use xlink:href="#DejaVuSans-2212" transform="translate(128.203125 39.046875) scale(0.7)"/>
       <use xlink:href="#DejaVuSans-38" transform="translate(186.855469 39.046875) scale(0.7)"/>
      </g>
     </g>
    </g>
    <g id="ytick_11">
     <g id="line2d_57">
      <path d="M 497.671968 222.109629 
L 830.0975 222.109629 
" clip-path="url(#p1da6069546)" style="fill: none; stroke: #2a2a4a; stroke-opacity: 0.3; stroke-width: 0.8; stroke-linecap: square"/>
     </g>
     <g id="line2d_58">
      <g>
       <use xlink:href="#m44783d537f" x="497.671968" y="222.109629" style="fill: #eaeaea; stroke: #eaeaea; stroke-width: 0.8"/>
      </g>
     </g>
     <g id="text_47">
      <!-- $\mathdefault{10^{-6}}$ -->
      <g style="fill: #eaeaea" transform="translate(462.471968 226.668692) scale(0.12 -0.12)">
       <use xlink:href="#DejaVuSans-31" transform="translate(0 0.765625)"/>
       <use xlink:href="#DejaVuSans-30" transform="translate(63.623047 0.765625)"/>
       <use xlink:href="#DejaVuSans-2212" transform="translate(128.203125 39.046875) scale(0.7)"/>
       <use xlink:href="#DejaVuSans-36" transform="translate(186.855469 39.046875) scale(0.7)"/>
      </g>
     </g>
    </g>
    <g id="ytick_12">
     <g id="line2d_59">
      <path d="M 497.671968 177.423977 
L 830.0975 177.423977 
" clip-path="url(#p1da6069546)" style="fill: none; stroke: #2a2a4a; stroke-opacity: 0.3; stroke-width: 0.8; stroke-linecap: square"/>
     </g>
     <g id="line2d_60">
      <g>
       <use xlink:href="#m44783d537f" x="497.671968" y="177.423977" style="fill: #eaeaea; stroke: #eaeaea; stroke-width: 0.8"/>
      </g>
     </g>
     <g id="text_48">
      <!-- $\mathdefault{10^{-4}}$ -->
      <g style="fill: #eaeaea" transform="translate(462.471968 181.98304) scale(0.12 -0.12)">
       <use xlink:href="#DejaVuSans-31" transform="translate(0 0.684375)"/>
       <use xlink:href="#DejaVuSans-30" transform="translate(63.623047 0.684375)"/>
       <use xlink:href="#DejaVuSans-2212" transform="translate(128.203125 38.965625) scale(0.7)"/>
       <use xlink:href="#DejaVuSans-34" transform="translate(186.855469 38.965625) scale(0.7)"/>
      </g>
     </g>
    </g>
    <g id="ytick_13">
     <g id="line2d_61">
      <path d="M 497.671968 132.738325 
L 830.0975 132.738325 
" clip-path="url(#p1da6069546)" style="fill: none; stroke: #2a2a4a; stroke-opacity: 0.3; stroke-width: 0.8; stroke-linecap: square"/>
     </g>
     <g id="line2d_62">
      <g>
       <use xlink:href="#m44783d537f" x="497.671968" y="132.738325" style="fill: #eaeaea; stroke: #eaeaea; stroke-width: 0.8"/>
      </g>
     </g>
     <g id="text_49">
      <!-- $\mathdefault{10^{-2}}$ -->
      <g style="fill: #eaeaea" transform="translate(462.471968 137.297388) scale(0.12 -0.12)">
       <use xlink:href="#DejaVuSans-31" transform="translate(0 0.765625)"/>
       <use xlink:href="#DejaVuSans-30" transform="translate(63.623047 0.765625)"/>
       <use xlink:href="#DejaVuSans-2212" transform="translate(128.203125 39.046875) scale(0.7)"/>
       <use xlink:href="#DejaVuSans-32" transform="translate(186.855469 39.046875) scale(0.7)"/>
      </g>
     </g>
    </g>
    <g id="ytick_14">
     <g id="line2d_63">
      <path d="M 497.671968 88.052673 
L 830.0975 88.052673 
" clip-path="url(#p1da6069546)" style="fill: none; stroke: #2a2a4a; stroke-opacity: 0.3; stroke-width: 0.8; stroke-linecap: square"/>
     </g>
     <g id="line2d_64">
      <g>
       <use xlink:href="#m44783d537f" x="497.671968" y="88.052673" style="fill: #eaeaea; stroke: #eaeaea; stroke-width: 0.8"/>
      </g>
     </g>
     <g id="text_50">
      <!-- $\mathdefault{10^{0}}$ -->
      <g style="fill: #eaeaea" transform="translate(469.551968 92.611736) scale(0.12 -0.12)">
       <use xlink:href="#DejaVuSans-31" transform="translate(0 0.765625)"/>
       <use xlink:href="#DejaVuSans-30" transform="translate(63.623047 0.765625)"/>
       <use xlink:href="#DejaVuSans-30" transform="translate(128.203125 39.046875) scale(0.7)"/>
      </g>
     </g>
    </g>
    <g id="text_51">
     <!-- Absolute Error  (log scale) -->
     <g style="fill: #eaeaea" transform="translate(450.696343 311.762812) rotate(-90) scale(0.12 -0.12)">
      <defs>
       <path id="DejaVuSans-41" d="M 2188 4044 
L 1331 1722 
L 3047 1722 
L 2188 4044 
z
M 1831 4666 
L 2547 4666 
L 4325 0 
L 3669 0 
L 3244 1197 
L 1141 1197 
L 716 0 
L 50 0 
L 1831 4666 
z
" transform="scale(0.015625)"/>
       <path id="DejaVuSans-45" d="M 628 4666 
L 3578 4666 
L 3578 4134 
L 1259 4134 
L 1259 2753 
L 3481 2753 
L 3481 2222 
L 1259 2222 
L 1259 531 
L 3634 531 
L 3634 0 
L 628 0 
L 628 4666 
z
" transform="scale(0.015625)"/>
       <path id="DejaVuSans-67" d="M 2906 1791 
Q 2906 2416 2648 2759 
Q 2391 3103 1925 3103 
Q 1463 3103 1205 2759 
Q 947 2416 947 1791 
Q 947 1169 1205 825 
Q 1463 481 1925 481 
Q 2391 481 2648 825 
Q 2906 1169 2906 1791 
z
M 3481 434 
Q 3481 -459 3084 -895 
Q 2688 -1331 1869 -1331 
Q 1566 -1331 1297 -1286 
Q 1028 -1241 775 -1147 
L 775 -588 
Q 1028 -725 1275 -790 
Q 1522 -856 1778 -856 
Q 2344 -856 2625 -561 
Q 2906 -266 2906 331 
L 2906 616 
Q 2728 306 2450 153 
Q 2172 0 1784 0 
Q 1141 0 747 490 
Q 353 981 353 1791 
Q 353 2603 747 3093 
Q 1141 3584 1784 3584 
Q 2172 3584 2450 3431 
Q 2728 3278 2906 2969 
L 2906 3500 
L 3481 3500 
L 3481 434 
z
" transform="scale(0.015625)"/>
       <path id="DejaVuSans-63" d="M 3122 3366 
L 3122 2828 
Q 2878 2963 2633 3030 
Q 2388 3097 2138 3097 
Q 1578 3097 1268 2742 
Q 959 2388 959 1747 
Q 959 1106 1268 751 
Q 1578 397 2138 397 
Q 2388 397 2633 464 
Q 2878 531 3122 666 
L 3122 134 
Q 2881 22 2623 -34 
Q 2366 -91 2075 -91 
Q 1284 -91 818 406 
Q 353 903 353 1747 
Q 353 2603 823 3093 
Q 1294 3584 2113 3584 
Q 2378 3584 2631 3529 
Q 2884 3475 3122 3366 
z
" transform="scale(0.015625)"/>
      </defs>
      <use xlink:href="#DejaVuSans-41"/>
      <use xlink:href="#DejaVuSans-62" transform="translate(68.408203 0)"/>
      <use xlink:href="#DejaVuSans-73" transform="translate(131.884766 0)"/>
      <use xlink:href="#DejaVuSans-6f" transform="translate(183.984375 0)"/>
      <use xlink:href="#DejaVuSans-6c" transform="translate(245.166016 0)"/>
      <use xlink:href="#DejaVuSans-75" transform="translate(272.949219 0)"/>
      <use xlink:href="#DejaVuSans-74" transform="translate(336.328125 0)"/>
      <use xlink:href="#DejaVuSans-65" transform="translate(375.537109 0)"/>
      <use xlink:href="#DejaVuSans-20" transform="translate(437.060547 0)"/>
      <use xlink:href="#DejaVuSans-45" transform="translate(468.847656 0)"/>
      <use xlink:href="#DejaVuSans-72" transform="translate(532.03125 0)"/>
      <use xlink:href="#DejaVuSans-72" transform="translate(571.394531 0)"/>
      <use xlink:href="#DejaVuSans-6f" transform="translate(610.257812 0)"/>
      <use xlink:href="#DejaVuSans-72" transform="translate(671.439453 0)"/>
      <use xlink:href="#DejaVuSans-20" transform="translate(712.552734 0)"/>
      <use xlink:href="#DejaVuSans-20" transform="translate(744.339844 0)"/>
      <use xlink:href="#DejaVuSans-28" transform="translate(776.126953 0)"/>
      <use xlink:href="#DejaVuSans-6c" transform="translate(815.140625 0)"/>
      <use xlink:href="#DejaVuSans-6f" transform="translate(842.923828 0)"/>
      <use xlink:href="#DejaVuSans-67" transform="translate(904.105469 0)"/>
      <use xlink:href="#DejaVuSans-20" transform="translate(967.582031 0)"/>
      <use xlink:href="#DejaVuSans-73" transform="translate(999.369141 0)"/>
      <use xlink:href="#DejaVuSans-63" transform="translate(1051.46875 0)"/>
      <use xlink:href="#DejaVuSans-61" transform="translate(1106.449219 0)"/>
      <use xlink:href="#DejaVuSans-6c" transform="translate(1167.728516 0)"/>
      <use xlink:href="#DejaVuSans-65" transform="translate(1195.511719 0)"/>
      <use xlink:href="#DejaVuSans-29" transform="translate(1257.035156 0)"/>
     </g>
    </g>
   </g>
   <g id="line2d_65">
    <path d="M 512.556693 82.8 
L 532.402994 91.263452 
L 552.249294 102.820888 
L 572.095595 116.812866 
L 591.941895 132.788431 
L 611.788195 150.429017 
L 631.634496 169.500484 
L 651.480796 189.824596 
L 671.327097 211.261624 
L 691.173397 233.699322 
L 711.019698 257.045676 
L 730.865998 281.223953 
L 750.712298 306.169247 
L 770.558599 331.82629 
L 790.404899 358.152722 
L 810.2512 385.2 
" clip-path="url(#p1da6069546)" style="fill: none; stroke: #2ecc71; stroke-width: 2; stroke-linecap: square"/>
    <defs>
     <path id="m2b41b22096" d="M 0 3 
C 0.795609 3 1.55874 2.683901 2.12132 2.12132 
C 2.683901 1.55874 3 0.795609 3 0 
C 3 -0.795609 2.683901 -1.55874 2.12132 -2.12132 
C 1.55874 -2.683901 0.795609 -3 0 -3 
C -0.795609 -3 -1.55874 -2.683901 -2.12132 -2.12132 
C -2.683901 -1.55874 -3 -0.795609 -3 0 
C -3 0.795609 -2.683901 1.55874 -2.12132 2.12132 
C -1.55874 2.683901 -0.795609 3 0 3 
z
" style="stroke: #1a1a2e"/>
    </defs>
    <g clip-path="url(#p1da6069546)">
     <use xlink:href="#m2b41b22096" x="512.556693" y="82.8" style="fill: #ffd700; stroke: #1a1a2e"/>
     <use xlink:href="#m2b41b22096" x="532.402994" y="91.263452" style="fill: #ffd700; stroke: #1a1a2e"/>
     <use xlink:href="#m2b41b22096" x="552.249294" y="102.820888" style="fill: #ffd700; stroke: #1a1a2e"/>
     <use xlink:href="#m2b41b22096" x="572.095595" y="116.812866" style="fill: #ffd700; stroke: #1a1a2e"/>
     <use xlink:href="#m2b41b22096" x="591.941895" y="132.788431" style="fill: #ffd700; stroke: #1a1a2e"/>
     <use xlink:href="#m2b41b22096" x="611.788195" y="150.429017" style="fill: #ffd700; stroke: #1a1a2e"/>
     <use xlink:href="#m2b41b22096" x="631.634496" y="169.500484" style="fill: #ffd700; stroke: #1a1a2e"/>
     <use xlink:href="#m2b41b22096" x="651.480796" y="189.824596" style="fill: #ffd700; stroke: #1a1a2e"/>
     <use xlink:href="#m2b41b22096" x="671.327097" y="211.261624" style="fill: #ffd700; stroke: #1a1a2e"/>
     <use xlink:href="#m2b41b22096" x="691.173397" y="233.699322" style="fill: #ffd700; stroke: #1a1a2e"/>
     <use xlink:href="#m2b41b22096" x="711.019698" y="257.045676" style="fill: #ffd700; stroke: #1a1a2e"/>
     <use xlink:href="#m2b41b22096" x="730.865998" y="281.223953" style="fill: #ffd700; stroke: #1a1a2e"/>
     <use xlink:href="#m2b41b22096" x="750.712298" y="306.169247" style="fill: #ffd700; stroke: #1a1a2e"/>
     <use xlink:href="#m2b41b22096" x="770.558599" y="331.82629" style="fill: #ffd700; stroke: #1a1a2e"/>
     <use xlink:href="#m2b41b22096" x="790.404899" y="358.152722" style="fill: #ffd700; stroke: #1a1a2e"/>
     <use xlink:href="#m2b41b22096" x="810.2512" y="385.2" style="fill: #ffd700; stroke: #1a1a2e"/>
    </g>
   </g>
   <g id="patch_27">
    <path d="M 497.671968 400.32 
L 497.671968 67.68 
" style="fill: none; stroke: #2a2a4a; stroke-width: 0.8; stroke-linejoin: miter; stroke-linecap: square"/>
   </g>
   <g id="patch_28">
    <path d="M 830.0975 400.32 
L 830.0975 67.68 
" style="fill: none; stroke: #2a2a4a; stroke-width: 0.8; stroke-linejoin: miter; stroke-linecap: square"/>
   </g>
   <g id="patch_29">
    <path d="M 497.671968 400.32 
L 830.0975 400.32 
" style="fill: none; stroke: #2a2a4a; stroke-width: 0.8; stroke-linejoin: miter; stroke-linecap: square"/>
   </g>
   <g id="patch_30">
    <path d="M 497.671968 67.68 
L 830.0975 67.68 
" style="fill: none; stroke: #2a2a4a; stroke-width: 0.8; stroke-linejoin: miter; stroke-linecap: square"/>
   </g>
   <g id="text_52">
    <g id="patch_31">
     <path d="M 680.506011 156.919687 
L 797.252886 156.919687 
Q 801.252886 156.919687 801.252886 152.919687 
L 801.252886 120.845937 
Q 801.252886 116.845937 797.252886 116.845937 
L 680.506011 116.845937 
Q 676.506011 116.845937 676.506011 120.845937 
L 676.506011 152.919687 
Q 676.506011 156.919687 680.506011 156.919687 
z
" style="fill: #1a1a2e; opacity: 0.8; stroke: #ffffff; stroke-linejoin: miter"/>
    </g>
    <!-- Super-exponential -->
    <g style="fill: #f39c12" transform="translate(680.506011 128.444375) scale(0.1 -0.1)">
     <defs>
      <path id="DejaVuSans-70" d="M 1159 525 
L 1159 -1331 
L 581 -1331 
L 581 3500 
L 1159 3500 
L 1159 2969 
Q 1341 3281 1617 3432 
Q 1894 3584 2278 3584 
Q 2916 3584 3314 3078 
Q 3713 2572 3713 1747 
Q 3713 922 3314 415 
Q 2916 -91 2278 -91 
Q 1894 -91 1617 61 
Q 1341 213 1159 525 
z
M 3116 1747 
Q 3116 2381 2855 2742 
Q 2594 3103 2138 3103 
Q 1681 3103 1420 2742 
Q 1159 2381 1159 1747 
Q 1159 1113 1420 752 
Q 1681 391 2138 391 
Q 2594 391 2855 752 
Q 3116 1113 3116 1747 
z
" transform="scale(0.015625)"/>
      <path id="DejaVuSans-2d" d="M 313 2009 
L 1997 2009 
L 1997 1497 
L 313 1497 
L 313 2009 
z
" transform="scale(0.015625)"/>
      <path id="DejaVuSans-78" d="M 3513 3500 
L 2247 1797 
L 3578 0 
L 2900 0 
L 1881 1375 
L 863 0 
L 184 0 
L 1544 1831 
L 300 3500 
L 978 3500 
L 1906 2253 
L 2834 3500 
L 3513 3500 
z
" transform="scale(0.015625)"/>
      <path id="DejaVuSans-6e" d="M 3513 2113 
L 3513 0 
L 2938 0 
L 2938 2094 
Q 2938 2591 2744 2837 
Q 2550 3084 2163 3084 
Q 1697 3084 1428 2787 
Q 1159 2491 1159 1978 
L 1159 0 
L 581 0 
L 581 3500 
L 1159 3500 
L 1159 2956 
Q 1366 3272 1645 3428 
Q 1925 3584 2291 3584 
Q 2894 3584 3203 3211 
Q 3513 2838 3513 2113 
z
" transform="scale(0.015625)"/>
     </defs>
     <use xlink:href="#DejaVuSans-53"/>
     <use xlink:href="#DejaVuSans-75" transform="translate(63.476562 0)"/>
     <use xlink:href="#DejaVuSans-70" transform="translate(126.855469 0)"/>
     <use xlink:href="#DejaVuSans-65" transform="translate(190.332031 0)"/>
     <use xlink:href="#DejaVuSans-72" transform="translate(251.855469 0)"/>
     <use xlink:href="#DejaVuSans-2d" transform="translate(286.59375 0)"/>
     <use xlink:href="#DejaVuSans-65" transform="translate(322.677734 0)"/>
     <use xlink:href="#DejaVuSans-78" transform="translate(382.451172 0)"/>
     <use xlink:href="#DejaVuSans-70" transform="translate(441.630859 0)"/>
     <use xlink:href="#DejaVuSans-6f" transform="translate(505.107422 0)"/>
     <use xlink:href="#DejaVuSans-6e" transform="translate(566.289062 0)"/>
     <use xlink:href="#DejaVuSans-65" transform="translate(629.667969 0)"/>
     <use xlink:href="#DejaVuSans-6e" transform="translate(691.191406 0)"/>
     <use xlink:href="#DejaVuSans-74" transform="translate(754.570312 0)"/>
     <use xlink:href="#DejaVuSans-69" transform="translate(793.779297 0)"/>
     <use xlink:href="#DejaVuSans-61" transform="translate(821.5625 0)"/>
     <use xlink:href="#DejaVuSans-6c" transform="translate(882.841797 0)"/>
    </g>
    <!-- convergence -->
    <g style="fill: #f39c12" transform="translate(680.506011 139.642187) scale(0.1 -0.1)">
     <defs>
      <path id="DejaVuSans-76" d="M 191 3500 
L 800 3500 
L 1894 563 
L 2988 3500 
L 3597 3500 
L 2284 0 
L 1503 0 
L 191 3500 
z
" transform="scale(0.015625)"/>
     </defs>
     <use xlink:href="#DejaVuSans-63"/>
     <use xlink:href="#DejaVuSans-6f" transform="translate(54.980469 0)"/>
     <use xlink:href="#DejaVuSans-6e" transform="translate(116.162109 0)"/>
     <use xlink:href="#DejaVuSans-76" transform="translate(179.541016 0)"/>
     <use xlink:href="#DejaVuSans-65" transform="translate(238.720703 0)"/>
     <use xlink:href="#DejaVuSans-72" transform="translate(300.244141 0)"/>
     <use xlink:href="#DejaVuSans-67" transform="translate(339.607422 0)"/>
     <use xlink:href="#DejaVuSans-65" transform="translate(403.083984 0)"/>
     <use xlink:href="#DejaVuSans-6e" transform="translate(464.607422 0)"/>
     <use xlink:href="#DejaVuSans-63" transform="translate(527.986328 0)"/>
     <use xlink:href="#DejaVuSans-65" transform="translate(582.966797 0)"/>
    </g>
    <!-- (faster than geometric) -->
    <g style="fill: #f39c12" transform="translate(680.506011 150.84) scale(0.1 -0.1)">
     <defs>
      <path id="DejaVuSans-68" d="M 3513 2113 
L 3513 0 
L 2938 0 
L 2938 2094 
Q 2938 2591 2744 2837 
Q 2550 3084 2163 3084 
Q 1697 3084 1428 2787 
Q 1159 2491 1159 1978 
L 1159 0 
L 581 0 
L 581 4863 
L 1159 4863 
L 1159 2956 
Q 1366 3272 1645 3428 
Q 1925 3584 2291 3584 
Q 2894 3584 3203 3211 
Q 3513 2838 3513 2113 
z
" transform="scale(0.015625)"/>
     </defs>
     <use xlink:href="#DejaVuSans-28"/>
     <use xlink:href="#DejaVuSans-66" transform="translate(39.013672 0)"/>
     <use xlink:href="#DejaVuSans-61" transform="translate(74.21875 0)"/>
     <use xlink:href="#DejaVuSans-73" transform="translate(135.498047 0)"/>
     <use xlink:href="#DejaVuSans-74" transform="translate(187.597656 0)"/>
     <use xlink:href="#DejaVuSans-65" transform="translate(226.806641 0)"/>
     <use xlink:href="#DejaVuSans-72" transform="translate(288.330078 0)"/>
     <use xlink:href="#DejaVuSans-20" transform="translate(329.443359 0)"/>
     <use xlink:href="#DejaVuSans-74" transform="translate(361.230469 0)"/>
     <use xlink:href="#DejaVuSans-68" transform="translate(400.439453 0)"/>
     <use xlink:href="#DejaVuSans-61" transform="translate(463.818359 0)"/>
     <use xlink:href="#DejaVuSans-6e" transform="translate(525.097656 0)"/>
     <use xlink:href="#DejaVuSans-20" transform="translate(588.476562 0)"/>
     <use xlink:href="#DejaVuSans-67" transform="translate(620.263672 0)"/>
     <use xlink:href="#DejaVuSans-65" transform="translate(683.740234 0)"/>
     <use xlink:href="#DejaVuSans-6f" transform="translate(745.263672 0)"/>
     <use xlink:href="#DejaVuSans-6d" transform="translate(806.445312 0)"/>
     <use xlink:href="#DejaVuSans-65" transform="translate(903.857422 0)"/>
     <use xlink:href="#DejaVuSans-74" transform="translate(965.380859 0)"/>
     <use xlink:href="#DejaVuSans-72" transform="translate(1004.589844 0)"/>
     <use xlink:href="#DejaVuSans-69" transform="translate(1045.703125 0)"/>
     <use xlink:href="#DejaVuSans-63" transform="translate(1073.486328 0)"/>
     <use xlink:href="#DejaVuSans-29" transform="translate(1128.466797 0)"/>
    </g>
   </g>
   <g id="text_53">
    <!-- Error $|\sum_{k=0}^{n} 1/k! - e|$ -->
    <g style="fill: #eaeaea" transform="translate(590.524734 51.52) scale(0.16 -0.16)">
     <defs>
      <path id="DejaVuSans-7c" d="M 1344 4891 
L 1344 -1509 
L 813 -1509 
L 813 4891 
L 1344 4891 
z
" transform="scale(0.015625)"/>
     </defs>
     <use xlink:href="#DejaVuSans-45" transform="translate(0 0.346875)"/>
     <use xlink:href="#DejaVuSans-72" transform="translate(63.183594 0.346875)"/>
     <use xlink:href="#DejaVuSans-72" transform="translate(104.296875 0.346875)"/>
     <use xlink:href="#DejaVuSans-6f" transform="translate(145.410156 0.346875)"/>
     <use xlink:href="#DejaVuSans-72" transform="translate(206.591797 0.346875)"/>
     <use xlink:href="#DejaVuSans-20" transform="translate(247.705078 0.346875)"/>
     <use xlink:href="#DejaVuSans-7c" transform="translate(279.492188 0.346875)"/>
     <use xlink:href="#DejaVuSans-Oblique-6e" transform="translate(376.183594 120.8) scale(0.7)"/>
     <use xlink:href="#DejaVuSansDisplay-2211" transform="translate(353.183594 0.346875)"/>
     <use xlink:href="#DejaVuSans-Oblique-6b" transform="translate(313.183594 -98.748438) scale(0.7)"/>
     <use xlink:href="#DejaVuSans-3d" transform="translate(367.358398 -98.748438) scale(0.7)"/>
     <use xlink:href="#DejaVuSans-30" transform="translate(439.648438 -98.748438) scale(0.7)"/>
     <use xlink:href="#DejaVuSans-31" transform="translate(484.18457 0.346875)"/>
     <use xlink:href="#DejaVuSans-2f" transform="translate(547.807617 0.346875)"/>
     <use xlink:href="#DejaVuSans-Oblique-6b" transform="translate(581.499023 0.346875)"/>
     <use xlink:href="#DejaVuSans-21" transform="translate(639.40918 0.346875)"/>
     <use xlink:href="#DejaVuSans-2212" transform="translate(718.461914 0.346875)"/>
     <use xlink:href="#DejaVuSans-Oblique-65" transform="translate(821.733398 0.346875)"/>
     <use xlink:href="#DejaVuSans-7c" transform="translate(883.256836 0.346875)"/>
    </g>
   </g>
   <g id="legend_2">
    <g id="patch_32">
     <path d="M 739.7375 95.4 
L 821.6975 95.4 
Q 824.0975 95.4 824.0975 93 
L 824.0975 76.08 
Q 824.0975 73.68 821.6975 73.68 
L 739.7375 73.68 
Q 737.3375 73.68 737.3375 76.08 
L 737.3375 93 
Q 737.3375 95.4 739.7375 95.4 
z
" style="fill: #16213e; opacity: 0.8; stroke: #2a2a4a; stroke-linejoin: miter"/>
    </g>
    <g id="line2d_66">
     <path d="M 742.1375 83.52 
L 754.1375 83.52 
L 766.1375 83.52 
" style="fill: none; stroke: #2ecc71; stroke-width: 2; stroke-linecap: square"/>
     <g>
      <use xlink:href="#m2b41b22096" x="754.1375" y="83.52" style="fill: #ffd700; stroke: #1a1a2e"/>
     </g>
    </g>
    <g id="text_54">
     <!-- $|S_n - e|$ -->
     <g style="fill: #eaeaea" transform="translate(775.7375 87.72) scale(0.12 -0.12)">
      <defs>
       <path id="DejaVuSans-Oblique-53" d="M 3859 4513 
L 3738 3897 
Q 3422 4066 3111 4152 
Q 2800 4238 2509 4238 
Q 1944 4238 1609 3991 
Q 1275 3744 1275 3334 
Q 1275 3109 1398 2989 
Q 1522 2869 2034 2731 
L 2413 2638 
Q 3053 2472 3303 2217 
Q 3553 1963 3553 1503 
Q 3553 797 2998 353 
Q 2444 -91 1538 -91 
Q 1166 -91 791 -17 
Q 416 56 38 206 
L 166 856 
Q 513 641 861 531 
Q 1209 422 1556 422 
Q 2147 422 2503 684 
Q 2859 947 2859 1369 
Q 2859 1650 2717 1795 
Q 2575 1941 2106 2059 
L 1728 2156 
Q 1081 2325 845 2545 
Q 609 2766 609 3163 
Q 609 3859 1145 4304 
Q 1681 4750 2541 4750 
Q 2875 4750 3203 4690 
Q 3531 4631 3859 4513 
z
" transform="scale(0.015625)"/>
      </defs>
      <use xlink:href="#DejaVuSans-7c" transform="translate(0 0.578125)"/>
      <use xlink:href="#DejaVuSans-Oblique-53" transform="translate(33.691406 0.578125)"/>
      <use xlink:href="#DejaVuSans-Oblique-6e" transform="translate(97.167969 -15.828125) scale(0.7)"/>
      <use xlink:href="#DejaVuSans-2212" transform="translate(163.75 0.578125)"/>
      <use xlink:href="#DejaVuSans-Oblique-65" transform="translate(267.021484 0.578125)"/>
      <use xlink:href="#DejaVuSans-7c" transform="translate(328.544922 0.578125)"/>
     </g>
    </g>
   </g>
  </g>
  <g id="text_55">
   <!-- Euler's Number via the Factorial Series -->
   <g style="fill: #ffd700" transform="translate(229.031094 20.877187) scale(0.18 -0.18)">
    <defs>
     <path id="DejaVuSans-Bold-45" d="M 588 4666 
L 3834 4666 
L 3834 3756 
L 1791 3756 
L 1791 2888 
L 3713 2888 
L 3713 1978 
L 1791 1978 
L 1791 909 
L 3903 909 
L 3903 0 
L 588 0 
L 588 4666 
z
" transform="scale(0.015625)"/>
     <path id="DejaVuSans-Bold-75" d="M 500 1363 
L 500 3500 
L 1625 3500 
L 1625 3150 
Q 1625 2866 1622 2436 
Q 1619 2006 1619 1863 
Q 1619 1441 1641 1255 
Q 1663 1069 1716 984 
Q 1784 875 1895 815 
Q 2006 756 2150 756 
Q 2500 756 2700 1025 
Q 2900 1294 2900 1772 
L 2900 3500 
L 4019 3500 
L 4019 0 
L 2900 0 
L 2900 506 
Q 2647 200 2364 54 
Q 2081 -91 1741 -91 
Q 1134 -91 817 281 
Q 500 653 500 1363 
z
" transform="scale(0.015625)"/>
     <path id="DejaVuSans-Bold-6c" d="M 538 4863 
L 1656 4863 
L 1656 0 
L 538 0 
L 538 4863 
z
" transform="scale(0.015625)"/>
     <path id="DejaVuSans-Bold-65" d="M 4031 1759 
L 4031 1441 
L 1416 1441 
Q 1456 1047 1700 850 
Q 1944 653 2381 653 
Q 2734 653 3104 758 
Q 3475 863 3866 1075 
L 3866 213 
Q 3469 63 3072 -14 
Q 2675 -91 2278 -91 
Q 1328 -91 801 392 
Q 275 875 275 1747 
Q 275 2603 792 3093 
Q 1309 3584 2216 3584 
Q 3041 3584 3536 3087 
Q 4031 2591 4031 1759 
z
M 2881 2131 
Q 2881 2450 2695 2645 
Q 2509 2841 2209 2841 
Q 1884 2841 1681 2658 
Q 1478 2475 1428 2131 
L 2881 2131 
z
" transform="scale(0.015625)"/>
     <path id="DejaVuSans-Bold-72" d="M 3138 2547 
Q 2991 2616 2845 2648 
Q 2700 2681 2553 2681 
Q 2122 2681 1889 2404 
Q 1656 2128 1656 1613 
L 1656 0 
L 538 0 
L 538 3500 
L 1656 3500 
L 1656 2925 
Q 1872 3269 2151 3426 
Q 2431 3584 2822 3584 
Q 2878 3584 2943 3579 
Q 3009 3575 3134 3559 
L 3138 2547 
z
" transform="scale(0.015625)"/>
     <path id="DejaVuSans-Bold-27" d="M 1350 4666 
L 1350 2931 
L 609 2931 
L 609 4666 
L 1350 4666 
z
" transform="scale(0.015625)"/>
     <path id="DejaVuSans-Bold-73" d="M 3272 3391 
L 3272 2541 
Q 2913 2691 2578 2766 
Q 2244 2841 1947 2841 
Q 1628 2841 1473 2761 
Q 1319 2681 1319 2516 
Q 1319 2381 1436 2309 
Q 1553 2238 1856 2203 
L 2053 2175 
Q 2913 2066 3209 1816 
Q 3506 1566 3506 1031 
Q 3506 472 3093 190 
Q 2681 -91 1863 -91 
Q 1516 -91 1145 -36 
Q 775 19 384 128 
L 384 978 
Q 719 816 1070 734 
Q 1422 653 1784 653 
Q 2113 653 2278 743 
Q 2444 834 2444 1013 
Q 2444 1163 2330 1236 
Q 2216 1309 1875 1350 
L 1678 1375 
Q 931 1469 631 1722 
Q 331 1975 331 2491 
Q 331 3047 712 3315 
Q 1094 3584 1881 3584 
Q 2191 3584 2531 3537 
Q 2872 3491 3272 3391 
z
" transform="scale(0.015625)"/>
     <path id="DejaVuSans-Bold-20" transform="scale(0.015625)"/>
     <path id="DejaVuSans-Bold-4e" d="M 588 4666 
L 1931 4666 
L 3628 1466 
L 3628 4666 
L 4769 4666 
L 4769 0 
L 3425 0 
L 1728 3200 
L 1728 0 
L 588 0 
L 588 4666 
z
" transform="scale(0.015625)"/>
     <path id="DejaVuSans-Bold-6d" d="M 3781 2919 
Q 3994 3244 4286 3414 
Q 4578 3584 4928 3584 
Q 5531 3584 5847 3212 
Q 6163 2841 6163 2131 
L 6163 0 
L 5038 0 
L 5038 1825 
Q 5041 1866 5042 1909 
Q 5044 1953 5044 2034 
Q 5044 2406 4934 2573 
Q 4825 2741 4581 2741 
Q 4263 2741 4089 2478 
Q 3916 2216 3909 1719 
L 3909 0 
L 2784 0 
L 2784 1825 
Q 2784 2406 2684 2573 
Q 2584 2741 2328 2741 
Q 2006 2741 1831 2477 
Q 1656 2213 1656 1722 
L 1656 0 
L 531 0 
L 531 3500 
L 1656 3500 
L 1656 2988 
Q 1863 3284 2130 3434 
Q 2397 3584 2719 3584 
Q 3081 3584 3359 3409 
Q 3638 3234 3781 2919 
z
" transform="scale(0.015625)"/>
     <path id="DejaVuSans-Bold-62" d="M 2400 722 
Q 2759 722 2948 984 
Q 3138 1247 3138 1747 
Q 3138 2247 2948 2509 
Q 2759 2772 2400 2772 
Q 2041 2772 1848 2508 
Q 1656 2244 1656 1747 
Q 1656 1250 1848 986 
Q 2041 722 2400 722 
z
M 1656 2988 
Q 1888 3294 2169 3439 
Q 2450 3584 2816 3584 
Q 3463 3584 3878 3070 
Q 4294 2556 4294 1747 
Q 4294 938 3878 423 
Q 3463 -91 2816 -91 
Q 2450 -91 2169 54 
Q 1888 200 1656 506 
L 1656 0 
L 538 0 
L 538 4863 
L 1656 4863 
L 1656 2988 
z
" transform="scale(0.015625)"/>
     <path id="DejaVuSans-Bold-76" d="M 97 3500 
L 1216 3500 
L 2088 1081 
L 2956 3500 
L 4078 3500 
L 2700 0 
L 1472 0 
L 97 3500 
z
" transform="scale(0.015625)"/>
     <path id="DejaVuSans-Bold-69" d="M 538 3500 
L 1656 3500 
L 1656 0 
L 538 0 
L 538 3500 
z
M 538 4863 
L 1656 4863 
L 1656 3950 
L 538 3950 
L 538 4863 
z
" transform="scale(0.015625)"/>
     <path id="DejaVuSans-Bold-61" d="M 2106 1575 
Q 1756 1575 1579 1456 
Q 1403 1338 1403 1106 
Q 1403 894 1545 773 
Q 1688 653 1941 653 
Q 2256 653 2472 879 
Q 2688 1106 2688 1447 
L 2688 1575 
L 2106 1575 
z
M 3816 1997 
L 3816 0 
L 2688 0 
L 2688 519 
Q 2463 200 2181 54 
Q 1900 -91 1497 -91 
Q 953 -91 614 226 
Q 275 544 275 1050 
Q 275 1666 698 1953 
Q 1122 2241 2028 2241 
L 2688 2241 
L 2688 2328 
Q 2688 2594 2478 2717 
Q 2269 2841 1825 2841 
Q 1466 2841 1156 2769 
Q 847 2697 581 2553 
L 581 3406 
Q 941 3494 1303 3539 
Q 1666 3584 2028 3584 
Q 2975 3584 3395 3211 
Q 3816 2838 3816 1997 
z
" transform="scale(0.015625)"/>
     <path id="DejaVuSans-Bold-74" d="M 1759 4494 
L 1759 3500 
L 2913 3500 
L 2913 2700 
L 1759 2700 
L 1759 1216 
Q 1759 972 1856 886 
Q 1953 800 2241 800 
L 2816 800 
L 2816 0 
L 1856 0 
Q 1194 0 917 276 
Q 641 553 641 1216 
L 641 2700 
L 84 2700 
L 84 3500 
L 641 3500 
L 641 4494 
L 1759 4494 
z
" transform="scale(0.015625)"/>
     <path id="DejaVuSans-Bold-68" d="M 4056 2131 
L 4056 0 
L 2931 0 
L 2931 347 
L 2931 1625 
Q 2931 2084 2911 2256 
Q 2891 2428 2841 2509 
Q 2775 2619 2662 2680 
Q 2550 2741 2406 2741 
Q 2056 2741 1856 2470 
Q 1656 2200 1656 1722 
L 1656 0 
L 538 0 
L 538 4863 
L 1656 4863 
L 1656 2988 
Q 1909 3294 2193 3439 
Q 2478 3584 2822 3584 
Q 3428 3584 3742 3212 
Q 4056 2841 4056 2131 
z
" transform="scale(0.015625)"/>
     <path id="DejaVuSans-Bold-46" d="M 588 4666 
L 3834 4666 
L 3834 3756 
L 1791 3756 
L 1791 2888 
L 3713 2888 
L 3713 1978 
L 1791 1978 
L 1791 0 
L 588 0 
L 588 4666 
z
" transform="scale(0.015625)"/>
     <path id="DejaVuSans-Bold-63" d="M 3366 3391 
L 3366 2478 
Q 3138 2634 2908 2709 
Q 2678 2784 2431 2784 
Q 1963 2784 1702 2511 
Q 1441 2238 1441 1747 
Q 1441 1256 1702 982 
Q 1963 709 2431 709 
Q 2694 709 2930 787 
Q 3166 866 3366 1019 
L 3366 103 
Q 3103 6 2833 -42 
Q 2563 -91 2291 -91 
Q 1344 -91 809 395 
Q 275 881 275 1747 
Q 275 2613 809 3098 
Q 1344 3584 2291 3584 
Q 2566 3584 2833 3536 
Q 3100 3488 3366 3391 
z
" transform="scale(0.015625)"/>
     <path id="DejaVuSans-Bold-6f" d="M 2203 2784 
Q 1831 2784 1636 2517 
Q 1441 2250 1441 1747 
Q 1441 1244 1636 976 
Q 1831 709 2203 709 
Q 2569 709 2762 976 
Q 2956 1244 2956 1747 
Q 2956 2250 2762 2517 
Q 2569 2784 2203 2784 
z
M 2203 3584 
Q 3106 3584 3614 3096 
Q 4122 2609 4122 1747 
Q 4122 884 3614 396 
Q 3106 -91 2203 -91 
Q 1297 -91 786 396 
Q 275 884 275 1747 
Q 275 2609 786 3096 
Q 1297 3584 2203 3584 
z
" transform="scale(0.015625)"/>
     <path id="DejaVuSans-Bold-53" d="M 3834 4519 
L 3834 3531 
Q 3450 3703 3084 3790 
Q 2719 3878 2394 3878 
Q 1963 3878 1756 3759 
Q 1550 3641 1550 3391 
Q 1550 3203 1689 3098 
Q 1828 2994 2194 2919 
L 2706 2816 
Q 3484 2659 3812 2340 
Q 4141 2022 4141 1434 
Q 4141 663 3683 286 
Q 3225 -91 2284 -91 
Q 1841 -91 1394 -6 
Q 947 78 500 244 
L 500 1259 
Q 947 1022 1364 901 
Q 1781 781 2169 781 
Q 2563 781 2772 912 
Q 2981 1044 2981 1288 
Q 2981 1506 2839 1625 
Q 2697 1744 2272 1838 
L 1806 1941 
Q 1106 2091 782 2419 
Q 459 2747 459 3303 
Q 459 4000 909 4375 
Q 1359 4750 2203 4750 
Q 2588 4750 2994 4692 
Q 3400 4634 3834 4519 
z
" transform="scale(0.015625)"/>
    </defs>
    <use xlink:href="#DejaVuSans-Bold-45"/>
    <use xlink:href="#DejaVuSans-Bold-75" transform="translate(68.310547 0)"/>
    <use xlink:href="#DejaVuSans-Bold-6c" transform="translate(139.501953 0)"/>
    <use xlink:href="#DejaVuSans-Bold-65" transform="translate(173.779297 0)"/>
    <use xlink:href="#DejaVuSans-Bold-72" transform="translate(241.601562 0)"/>
    <use xlink:href="#DejaVuSans-Bold-27" transform="translate(290.917969 0)"/>
    <use xlink:href="#DejaVuSans-Bold-73" transform="translate(321.533203 0)"/>
    <use xlink:href="#DejaVuSans-Bold-20" transform="translate(381.054688 0)"/>
    <use xlink:href="#DejaVuSans-Bold-4e" transform="translate(415.869141 0)"/>
    <use xlink:href="#DejaVuSans-Bold-75" transform="translate(499.560547 0)"/>
    <use xlink:href="#DejaVuSans-Bold-6d" transform="translate(570.751953 0)"/>
    <use xlink:href="#DejaVuSans-Bold-62" transform="translate(674.951172 0)"/>
    <use xlink:href="#DejaVuSans-Bold-65" transform="translate(746.533203 0)"/>
    <use xlink:href="#DejaVuSans-Bold-72" transform="translate(814.355469 0)"/>
    <use xlink:href="#DejaVuSans-Bold-20" transform="translate(863.671875 0)"/>
    <use xlink:href="#DejaVuSans-Bold-76" transform="translate(898.486328 0)"/>
    <use xlink:href="#DejaVuSans-Bold-69" transform="translate(963.671875 0)"/>
    <use xlink:href="#DejaVuSans-Bold-61" transform="translate(997.949219 0)"/>
    <use xlink:href="#DejaVuSans-Bold-20" transform="translate(1065.429688 0)"/>
    <use xlink:href="#DejaVuSans-Bold-74" transform="translate(1100.244141 0)"/>
    <use xlink:href="#DejaVuSans-Bold-68" transform="translate(1148.046875 0)"/>
    <use xlink:href="#DejaVuSans-Bold-65" transform="translate(1219.238281 0)"/>
    <use xlink:href="#DejaVuSans-Bold-20" transform="translate(1287.060547 0)"/>
    <use xlink:href="#DejaVuSans-Bold-46" transform="translate(1321.875 0)"/>
    <use xlink:href="#DejaVuSans-Bold-61" transform="translate(1384.310547 0)"/>
    <use xlink:href="#DejaVuSans-Bold-63" transform="translate(1451.791016 0)"/>
    <use xlink:href="#DejaVuSans-Bold-74" transform="translate(1511.068359 0)"/>
    <use xlink:href="#DejaVuSans-Bold-6f" transform="translate(1558.871094 0)"/>
    <use xlink:href="#DejaVuSans-Bold-72" transform="translate(1627.572266 0)"/>
    <use xlink:href="#DejaVuSans-Bold-69" transform="translate(1676.888672 0)"/>
    <use xlink:href="#DejaVuSans-Bold-61" transform="translate(1711.166016 0)"/>
    <use xlink:href="#DejaVuSans-Bold-6c" transform="translate(1778.646484 0)"/>
    <use xlink:href="#DejaVuSans-Bold-20" transform="translate(1812.923828 0)"/>
    <use xlink:href="#DejaVuSans-Bold-53" transform="translate(1847.738281 0)"/>
    <use xlink:href="#DejaVuSans-Bold-65" transform="translate(1919.759766 0)"/>
    <use xlink:href="#DejaVuSans-Bold-72" transform="translate(1987.582031 0)"/>
    <use xlink:href="#DejaVuSans-Bold-69" transform="translate(2036.898438 0)"/>
    <use xlink:href="#DejaVuSans-Bold-65" transform="translate(2071.175781 0)"/>
    <use xlink:href="#DejaVuSans-Bold-73" transform="translate(2138.998047 0)"/>
   </g>
  </g>
 </g>
 <defs>
  <clipPath id="pa89d85749b">
   <rect x="48.8975" y="67.68" width="332.425532" height="332.64"/>
  </clipPath>
  <clipPath id="p1da6069546">
   <rect x="497.671968" y="67.68" width="332.425532" height="332.64"/>
  </clipPath>
 </defs>
</svg>
