<?xml version="1.0" encoding="utf-8" standalone="no"?>
<!DOCTYPE svg PUBLIC "-//W3C//DTD SVG 1.1//EN"
  "http://www.w3.org/Graphics/SVG/1.1/DTD/svg11.dtd">
<svg xmlns:xlink="http://www.w3.org/1999/xlink" width="896.91875pt" height="502.2275pt" viewBox="0 0 896.91875 502.2275" xmlns="http://www.w3.org/2000/svg" version="1.1">
 <metadata>
  <rdf:RDF xmlns:dc="http://purl.org/dc/elements/1.1/" xmlns:cc="http://creativecommons.org/ns#" xmlns:rdf="http://www.w3.org/1999/02/22-rdf-syntax-ns#">
   <cc:Work>
    <dc:type rdf:resource="http://purl.org/dc/dcmitype/StillImage"/>
    <dc:date>2026-03-18T22:57:19.957754</dc:date>
    <dc:format>image/svg+xml</dc:format>
    <dc:creator>
     <cc:Agent>
      <dc:title>Matplotlib v3.10.7, https://matplotlib.org/</dc:title>
     </cc:Agent>
    </dc:creator>
   </cc:Work>
  </rdf:RDF>
 </metadata>
 <defs>
  <style type="text/css">*{stroke-linejoin: round; stroke-linecap: butt}</style>
 </defs>
 <g id="figure_1">
  <g id="patch_1">
   <path d="M 0 502.2275 
L 896.91875 502.2275 
L 896.91875 0 
L 0 0 
z
" style="fill: #1a1a2e"/>
  </g>
  <g id="axes_1">
   <g id="patch_2">
    <path d="M 45.08375 460.8 
L 396.764422 460.8 
L 396.764422 72.72 
L 45.08375 72.72 
z
" style="fill: #16213e"/>
   </g>
   <g id="matplotlib.axis_1">
    <g id="xtick_1">
     <g id="line2d_1">
      <path d="M 45.08375 460.8 
L 45.08375 72.72 
" clip-path="url(#p6f0df07501)" style="fill: none; stroke: #2a2a4a; stroke-opacity: 0.3; stroke-width: 0.8; stroke-linecap: square"/>
     </g>
     <g id="line2d_2">
      <defs>
       <path id="m4857af8bfa" d="M 0 0 
L 0 3.5 
" style="stroke: #eaeaea; stroke-width: 0.8"/>
      </defs>
      <g>
       <use xlink:href="#m4857af8bfa" x="45.08375" y="460.8" style="fill: #eaeaea; stroke: #eaeaea; stroke-width: 0.8"/>
      </g>
     </g>
     <g id="text_1">
      <!-- 0 -->
      <g style="fill: #eaeaea" transform="translate(41.26625 476.918125) scale(0.12 -0.12)">
       <defs>
        <path id="DejaVuSans-30" d="M 2034 4250 
Q 1547 4250 1301 3770 
Q 1056 3291 1056 2328 
Q 1056 1369 1301 889 
Q 1547 409 2034 409 
Q 2525 409 2770 889 
Q 3016 1369 3016 2328 
Q 3016 3291 2770 3770 
Q 2525 4250 2034 4250 
z
M 2034 4750 
Q 2819 4750 3233 4129 
Q 3647 3509 3647 2328 
Q 3647 1150 3233 529 
Q 2819 -91 2034 -91 
Q 1250 -91 836 529 
Q 422 1150 422 2328 
Q 422 3509 836 4129 
Q 1250 4750 2034 4750 
z
" transform="scale(0.015625)"/>
       </defs>
       <use xlink:href="#DejaVuSans-30"/>
      </g>
     </g>
    </g>
    <g id="xtick_2">
     <g id="line2d_3">
      <path d="M 115.419884 460.8 
L 115.419884 72.72 
" clip-path="url(#p6f0df07501)" style="fill: none; stroke: #2a2a4a; stroke-opacity: 0.3; stroke-width: 0.8; stroke-linecap: square"/>
     </g>
     <g id="line2d_4">
      <g>
       <use xlink:href="#m4857af8bfa" x="115.419884" y="460.8" style="fill: #eaeaea; stroke: #eaeaea; stroke-width: 0.8"/>
      </g>
     </g>
     <g id="text_2">
      <!-- 2 -->
      <g style="fill: #eaeaea" transform="translate(111.602384 476.918125) scale(0.12 -0.12)">
       <defs>
        <path id="DejaVuSans-32" d="M 1228 531 
L 3431 531 
L 3431 0 
L 469 0 
L 469 531 
Q 828 903 1448 1529 
Q 2069 2156 2228 2338 
Q 2531 2678 2651 2914 
Q 2772 3150 2772 3378 
Q 2772 3750 2511 3984 
Q 2250 4219 1831 4219 
Q 1534 4219 1204 4116 
Q 875 4013 500 3803 
L 500 4441 
Q 881 4594 1212 4672 
Q 1544 4750 1819 4750 
Q 2544 4750 2975 4387 
Q 3406 4025 3406 3419 
Q 3406 3131 3298 2873 
Q 3191 2616 2906 2266 
Q 2828 2175 2409 1742 
Q 1991 1309 1228 531 
z
" transform="scale(0.015625)"/>
       </defs>
       <use xlink:href="#DejaVuSans-32"/>
      </g>
     </g>
    </g>
    <g id="xtick_3">
     <g id="line2d_5">
      <path d="M 185.756019 460.8 
L 185.756019 72.72 
" clip-path="url(#p6f0df07501)" style="fill: none; stroke: #2a2a4a; stroke-opacity: 0.3; stroke-width: 0.8; stroke-linecap: square"/>
     </g>
     <g id="line2d_6">
      <g>
       <use xlink:href="#m4857af8bfa" x="185.756019" y="460.8" style="fill: #eaeaea; stroke: #eaeaea; stroke-width: 0.8"/>
      </g>
     </g>
     <g id="text_3">
      <!-- 4 -->
      <g style="fill: #eaeaea" transform="translate(181.938519 476.918125) scale(0.12 -0.12)">
       <defs>
        <path id="DejaVuSans-34" d="M 2419 4116 
L 825 1625 
L 2419 1625 
L 2419 4116 
z
M 2253 4666 
L 3047 4666 
L 3047 1625 
L 3713 1625 
L 3713 1100 
L 3047 1100 
L 3047 0 
L 2419 0 
L 2419 1100 
L 313 1100 
L 313 1709 
L 2253 4666 
z
" transform="scale(0.015625)"/>
       </defs>
       <use xlink:href="#DejaVuSans-34"/>
      </g>
     </g>
    </g>
    <g id="xtick_4">
     <g id="line2d_7">
      <path d="M 256.092153 460.8 
L 256.092153 72.72 
" clip-path="url(#p6f0df07501)" style="fill: none; stroke: #2a2a4a; stroke-opacity: 0.3; stroke-width: 0.8; stroke-linecap: square"/>
     </g>
     <g id="line2d_8">
      <g>
       <use xlink:href="#m4857af8bfa" x="256.092153" y="460.8" style="fill: #eaeaea; stroke: #eaeaea; stroke-width: 0.8"/>
      </g>
     </g>
     <g id="text_4">
      <!-- 6 -->
      <g style="fill: #eaeaea" transform="translate(252.274653 476.918125) scale(0.12 -0.12)">
       <defs>
        <path id="DejaVuSans-36" d="M 2113 2584 
Q 1688 2584 1439 2293 
Q 1191 2003 1191 1497 
Q 1191 994 1439 701 
Q 1688 409 2113 409 
Q 2538 409 2786 701 
Q 3034 994 3034 1497 
Q 3034 2003 2786 2293 
Q 2538 2584 2113 2584 
z
M 3366 4563 
L 3366 3988 
Q 3128 4100 2886 4159 
Q 2644 4219 2406 4219 
Q 1781 4219 1451 3797 
Q 1122 3375 1075 2522 
Q 1259 2794 1537 2939 
Q 1816 3084 2150 3084 
Q 2853 3084 3261 2657 
Q 3669 2231 3669 1497 
Q 3669 778 3244 343 
Q 2819 -91 2113 -91 
Q 1303 -91 875 529 
Q 447 1150 447 2328 
Q 447 3434 972 4092 
Q 1497 4750 2381 4750 
Q 2619 4750 2861 4703 
Q 3103 4656 3366 4563 
z
" transform="scale(0.015625)"/>
       </defs>
       <use xlink:href="#DejaVuSans-36"/>
      </g>
     </g>
    </g>
    <g id="xtick_5">
     <g id="line2d_9">
      <path d="M 326.428288 460.8 
L 326.428288 72.72 
" clip-path="url(#p6f0df07501)" style="fill: none; stroke: #2a2a4a; stroke-opacity: 0.3; stroke-width: 0.8; stroke-linecap: square"/>
     </g>
     <g id="line2d_10">
      <g>
       <use xlink:href="#m4857af8bfa" x="326.428288" y="460.8" style="fill: #eaeaea; stroke: #eaeaea; stroke-width: 0.8"/>
      </g>
     </g>
     <g id="text_5">
      <!-- 8 -->
      <g style="fill: #eaeaea" transform="translate(322.610788 476.918125) scale(0.12 -0.12)">
       <defs>
        <path id="DejaVuSans-38" d="M 2034 2216 
Q 1584 2216 1326 1975 
Q 1069 1734 1069 1313 
Q 1069 891 1326 650 
Q 1584 409 2034 409 
Q 2484 409 2743 651 
Q 3003 894 3003 1313 
Q 3003 1734 2745 1975 
Q 2488 2216 2034 2216 
z
M 1403 2484 
Q 997 2584 770 2862 
Q 544 3141 544 3541 
Q 544 4100 942 4425 
Q 1341 4750 2034 4750 
Q 2731 4750 3128 4425 
Q 3525 4100 3525 3541 
Q 3525 3141 3298 2862 
Q 3072 2584 2669 2484 
Q 3125 2378 3379 2068 
Q 3634 1759 3634 1313 
Q 3634 634 3220 271 
Q 2806 -91 2034 -91 
Q 1263 -91 848 271 
Q 434 634 434 1313 
Q 434 1759 690 2068 
Q 947 2378 1403 2484 
z
M 1172 3481 
Q 1172 3119 1398 2916 
Q 1625 2713 2034 2713 
Q 2441 2713 2670 2916 
Q 2900 3119 2900 3481 
Q 2900 3844 2670 4047 
Q 2441 4250 2034 4250 
Q 1625 4250 1398 4047 
Q 1172 3844 1172 3481 
z
" transform="scale(0.015625)"/>
       </defs>
       <use xlink:href="#DejaVuSans-38"/>
      </g>
     </g>
    </g>
    <g id="xtick_6">
     <g id="line2d_11">
      <path d="M 396.764422 460.8 
L 396.764422 72.72 
" clip-path="url(#p6f0df07501)" style="fill: none; stroke: #2a2a4a; stroke-opacity: 0.3; stroke-width: 0.8; stroke-linecap: square"/>
     </g>
     <g id="line2d_12">
      <g>
       <use xlink:href="#m4857af8bfa" x="396.764422" y="460.8" style="fill: #eaeaea; stroke: #eaeaea; stroke-width: 0.8"/>
      </g>
     </g>
     <g id="text_6">
      <!-- 10 -->
      <g style="fill: #eaeaea" transform="translate(389.129422 476.918125) scale(0.12 -0.12)">
       <defs>
        <path id="DejaVuSans-31" d="M 794 531 
L 1825 531 
L 1825 4091 
L 703 3866 
L 703 4441 
L 1819 4666 
L 2450 4666 
L 2450 531 
L 3481 531 
L 3481 0 
L 794 0 
L 794 531 
z
" transform="scale(0.015625)"/>
       </defs>
       <use xlink:href="#DejaVuSans-31"/>
       <use xlink:href="#DejaVuSans-30" transform="translate(63.623047 0)"/>
      </g>
     </g>
    </g>
    <g id="text_7">
     <!-- Time (s) -->
     <g style="fill: #eaeaea" transform="translate(196.529399 492.531875) scale(0.12 -0.12)">
      <defs>
       <path id="DejaVuSans-54" d="M -19 4666 
L 3928 4666 
L 3928 4134 
L 2272 4134 
L 2272 0 
L 1638 0 
L 1638 4134 
L -19 4134 
L -19 4666 
z
" transform="scale(0.015625)"/>
       <path id="DejaVuSans-69" d="M 603 3500 
L 1178 3500 
L 1178 0 
L 603 0 
L 603 3500 
z
M 603 4863 
L 1178 4863 
L 1178 4134 
L 603 4134 
L 603 4863 
z
" transform="scale(0.015625)"/>
       <path id="DejaVuSans-6d" d="M 3328 2828 
Q 3544 3216 3844 3400 
Q 4144 3584 4550 3584 
Q 5097 3584 5394 3201 
Q 5691 2819 5691 2113 
L 5691 0 
L 5113 0 
L 5113 2094 
Q 5113 2597 4934 2840 
Q 4756 3084 4391 3084 
Q 3944 3084 3684 2787 
Q 3425 2491 3425 1978 
L 3425 0 
L 2847 0 
L 2847 2094 
Q 2847 2600 2669 2842 
Q 2491 3084 2119 3084 
Q 1678 3084 1418 2786 
Q 1159 2488 1159 1978 
L 1159 0 
L 581 0 
L 581 3500 
L 1159 3500 
L 1159 2956 
Q 1356 3278 1631 3431 
Q 1906 3584 2284 3584 
Q 2666 3584 2933 3390 
Q 3200 3197 3328 2828 
z
" transform="scale(0.015625)"/>
       <path id="DejaVuSans-65" d="M 3597 1894 
L 3597 1613 
L 953 1613 
Q 991 1019 1311 708 
Q 1631 397 2203 397 
Q 2534 397 2845 478 
Q 3156 559 3463 722 
L 3463 178 
Q 3153 47 2828 -22 
Q 2503 -91 2169 -91 
Q 1331 -91 842 396 
Q 353 884 353 1716 
Q 353 2575 817 3079 
Q 1281 3584 2069 3584 
Q 2775 3584 3186 3129 
Q 3597 2675 3597 1894 
z
M 3022 2063 
Q 3016 2534 2758 2815 
Q 2500 3097 2075 3097 
Q 1594 3097 1305 2825 
Q 1016 2553 972 2059 
L 3022 2063 
z
" transform="scale(0.015625)"/>
       <path id="DejaVuSans-20" transform="scale(0.015625)"/>
       <path id="DejaVuSans-28" d="M 1984 4856 
Q 1566 4138 1362 3434 
Q 1159 2731 1159 2009 
Q 1159 1288 1364 580 
Q 1569 -128 1984 -844 
L 1484 -844 
Q 1016 -109 783 600 
Q 550 1309 550 2009 
Q 550 2706 781 3412 
Q 1013 4119 1484 4856 
L 1984 4856 
z
" transform="scale(0.015625)"/>
       <path id="DejaVuSans-73" d="M 2834 3397 
L 2834 2853 
Q 2591 2978 2328 3040 
Q 2066 3103 1784 3103 
Q 1356 3103 1142 2972 
Q 928 2841 928 2578 
Q 928 2378 1081 2264 
Q 1234 2150 1697 2047 
L 1894 2003 
Q 2506 1872 2764 1633 
Q 3022 1394 3022 966 
Q 3022 478 2636 193 
Q 2250 -91 1575 -91 
Q 1294 -91 989 -36 
Q 684 19 347 128 
L 347 722 
Q 666 556 975 473 
Q 1284 391 1588 391 
Q 1994 391 2212 530 
Q 2431 669 2431 922 
Q 2431 1156 2273 1281 
Q 2116 1406 1581 1522 
L 1381 1569 
Q 847 1681 609 1914 
Q 372 2147 372 2553 
Q 372 3047 722 3315 
Q 1072 3584 1716 3584 
Q 2034 3584 2315 3537 
Q 2597 3491 2834 3397 
z
" transform="scale(0.015625)"/>
       <path id="DejaVuSans-29" d="M 513 4856 
L 1013 4856 
Q 1481 4119 1714 3412 
Q 1947 2706 1947 2009 
Q 1947 1309 1714 600 
Q 1481 -109 1013 -844 
L 513 -844 
Q 928 -128 1133 580 
Q 1338 1288 1338 2009 
Q 1338 2731 1133 3434 
Q 928 4138 513 4856 
z
" transform="scale(0.015625)"/>
      </defs>
      <use xlink:href="#DejaVuSans-54"/>
      <use xlink:href="#DejaVuSans-69" transform="translate(57.958984 0)"/>
      <use xlink:href="#DejaVuSans-6d" transform="translate(85.742188 0)"/>
      <use xlink:href="#DejaVuSans-65" transform="translate(183.154297 0)"/>
      <use xlink:href="#DejaVuSans-20" transform="translate(244.677734 0)"/>
      <use xlink:href="#DejaVuSans-28" transform="translate(276.464844 0)"/>
      <use xlink:href="#DejaVuSans-73" transform="translate(315.478516 0)"/>
      <use xlink:href="#DejaVuSans-29" transform="translate(367.578125 0)"/>
     </g>
    </g>
   </g>
   <g id="matplotlib.axis_2">
    <g id="ytick_1">
     <g id="line2d_13">
      <path d="M 45.08375 446.94 
L 396.764422 446.94 
" clip-path="url(#p6f0df07501)" style="fill: none; stroke: #2a2a4a; stroke-opacity: 0.3; stroke-width: 0.8; stroke-linecap: square"/>
     </g>
     <g id="line2d_14">
      <defs>
       <path id="m6e33512f5b" d="M 0 0 
L -3.5 0 
" style="stroke: #eaeaea; stroke-width: 0.8"/>
      </defs>
      <g>
       <use xlink:href="#m6e33512f5b" x="45.08375" y="446.94" style="fill: #eaeaea; stroke: #eaeaea; stroke-width: 0.8"/>
      </g>
     </g>
     <g id="text_8">
      <!-- 0 -->
      <g style="fill: #eaeaea" transform="translate(30.44875 451.499063) scale(0.12 -0.12)">
       <use xlink:href="#DejaVuSans-30"/>
      </g>
     </g>
    </g>
    <g id="ytick_2">
     <g id="line2d_15">
      <path d="M 45.08375 391.5 
L 396.764422 391.5 
" clip-path="url(#p6f0df07501)" style="fill: none; stroke: #2a2a4a; stroke-opacity: 0.3; stroke-width: 0.8; stroke-linecap: square"/>
     </g>
     <g id="line2d_16">
      <g>
       <use xlink:href="#m6e33512f5b" x="45.08375" y="391.5" style="fill: #eaeaea; stroke: #eaeaea; stroke-width: 0.8"/>
      </g>
     </g>
     <g id="text_9">
      <!-- 2 -->
      <g style="fill: #eaeaea" transform="translate(30.44875 396.059063) scale(0.12 -0.12)">
       <use xlink:href="#DejaVuSans-32"/>
      </g>
     </g>
    </g>
    <g id="ytick_3">
     <g id="line2d_17">
      <path d="M 45.08375 336.06 
L 396.764422 336.06 
" clip-path="url(#p6f0df07501)" style="fill: none; stroke: #2a2a4a; stroke-opacity: 0.3; stroke-width: 0.8; stroke-linecap: square"/>
     </g>
     <g id="line2d_18">
      <g>
       <use xlink:href="#m6e33512f5b" x="45.08375" y="336.06" style="fill: #eaeaea; stroke: #eaeaea; stroke-width: 0.8"/>
      </g>
     </g>
     <g id="text_10">
      <!-- 4 -->
      <g style="fill: #eaeaea" transform="translate(30.44875 340.619063) scale(0.12 -0.12)">
       <use xlink:href="#DejaVuSans-34"/>
      </g>
     </g>
    </g>
    <g id="ytick_4">
     <g id="line2d_19">
      <path d="M 45.08375 280.62 
L 396.764422 280.62 
" clip-path="url(#p6f0df07501)" style="fill: none; stroke: #2a2a4a; stroke-opacity: 0.3; stroke-width: 0.8; stroke-linecap: square"/>
     </g>
     <g id="line2d_20">
      <g>
       <use xlink:href="#m6e33512f5b" x="45.08375" y="280.62" style="fill: #eaeaea; stroke: #eaeaea; stroke-width: 0.8"/>
      </g>
     </g>
     <g id="text_11">
      <!-- 6 -->
      <g style="fill: #eaeaea" transform="translate(30.44875 285.179063) scale(0.12 -0.12)">
       <use xlink:href="#DejaVuSans-36"/>
      </g>
     </g>
    </g>
    <g id="ytick_5">
     <g id="line2d_21">
      <path d="M 45.08375 225.18 
L 396.764422 225.18 
" clip-path="url(#p6f0df07501)" style="fill: none; stroke: #2a2a4a; stroke-opacity: 0.3; stroke-width: 0.8; stroke-linecap: square"/>
     </g>
     <g id="line2d_22">
      <g>
       <use xlink:href="#m6e33512f5b" x="45.08375" y="225.18" style="fill: #eaeaea; stroke: #eaeaea; stroke-width: 0.8"/>
      </g>
     </g>
     <g id="text_12">
      <!-- 8 -->
      <g style="fill: #eaeaea" transform="translate(30.44875 229.739062) scale(0.12 -0.12)">
       <use xlink:href="#DejaVuSans-38"/>
      </g>
     </g>
    </g>
    <g id="ytick_6">
     <g id="line2d_23">
      <path d="M 45.08375 169.74 
L 396.764422 169.74 
" clip-path="url(#p6f0df07501)" style="fill: none; stroke: #2a2a4a; stroke-opacity: 0.3; stroke-width: 0.8; stroke-linecap: square"/>
     </g>
     <g id="line2d_24">
      <g>
       <use xlink:href="#m6e33512f5b" x="45.08375" y="169.74" style="fill: #eaeaea; stroke: #eaeaea; stroke-width: 0.8"/>
      </g>
     </g>
     <g id="text_13">
      <!-- 10 -->
      <g style="fill: #eaeaea" transform="translate(22.81375 174.299062) scale(0.12 -0.12)">
       <use xlink:href="#DejaVuSans-31"/>
       <use xlink:href="#DejaVuSans-30" transform="translate(63.623047 0)"/>
      </g>
     </g>
    </g>
    <g id="ytick_7">
     <g id="line2d_25">
      <path d="M 45.08375 114.3 
L 396.764422 114.3 
" clip-path="url(#p6f0df07501)" style="fill: none; stroke: #2a2a4a; stroke-opacity: 0.3; stroke-width: 0.8; stroke-linecap: square"/>
     </g>
     <g id="line2d_26">
      <g>
       <use xlink:href="#m6e33512f5b" x="45.08375" y="114.3" style="fill: #eaeaea; stroke: #eaeaea; stroke-width: 0.8"/>
      </g>
     </g>
     <g id="text_14">
      <!-- 12 -->
      <g style="fill: #eaeaea" transform="translate(22.81375 118.859062) scale(0.12 -0.12)">
       <use xlink:href="#DejaVuSans-31"/>
       <use xlink:href="#DejaVuSans-32" transform="translate(63.623047 0)"/>
      </g>
     </g>
    </g>
    <g id="text_15">
     <!-- Voltage (V) -->
     <g style="fill: #eaeaea" transform="translate(16.318125 299.960625) rotate(-90) scale(0.12 -0.12)">
      <defs>
       <path id="DejaVuSans-56" d="M 1831 0 
L 50 4666 
L 709 4666 
L 2188 738 
L 3669 4666 
L 4325 4666 
L 2547 0 
L 1831 0 
z
" transform="scale(0.015625)"/>
       <path id="DejaVuSans-6f" d="M 1959 3097 
Q 1497 3097 1228 2736 
Q 959 2375 959 1747 
Q 959 1119 1226 758 
Q 1494 397 1959 397 
Q 2419 397 2687 759 
Q 2956 1122 2956 1747 
Q 2956 2369 2687 2733 
Q 2419 3097 1959 3097 
z
M 1959 3584 
Q 2709 3584 3137 3096 
Q 3566 2609 3566 1747 
Q 3566 888 3137 398 
Q 2709 -91 1959 -91 
Q 1206 -91 779 398 
Q 353 888 353 1747 
Q 353 2609 779 3096 
Q 1206 3584 1959 3584 
z
" transform="scale(0.015625)"/>
       <path id="DejaVuSans-6c" d="M 603 4863 
L 1178 4863 
L 1178 0 
L 603 0 
L 603 4863 
z
" transform="scale(0.015625)"/>
       <path id="DejaVuSans-74" d="M 1172 4494 
L 1172 3500 
L 2356 3500 
L 2356 3053 
L 1172 3053 
L 1172 1153 
Q 1172 725 1289 603 
Q 1406 481 1766 481 
L 2356 481 
L 2356 0 
L 1766 0 
Q 1100 0 847 248 
Q 594 497 594 1153 
L 594 3053 
L 172 3053 
L 172 3500 
L 594 3500 
L 594 4494 
L 1172 4494 
z
" transform="scale(0.015625)"/>
       <path id="DejaVuSans-61" d="M 2194 1759 
Q 1497 1759 1228 1600 
Q 959 1441 959 1056 
Q 959 750 1161 570 
Q 1363 391 1709 391 
Q 2188 391 2477 730 
Q 2766 1069 2766 1631 
L 2766 1759 
L 2194 1759 
z
M 3341 1997 
L 3341 0 
L 2766 0 
L 2766 531 
Q 2569 213 2275 61 
Q 1981 -91 1556 -91 
Q 1019 -91 701 211 
Q 384 513 384 1019 
Q 384 1609 779 1909 
Q 1175 2209 1959 2209 
L 2766 2209 
L 2766 2266 
Q 2766 2663 2505 2880 
Q 2244 3097 1772 3097 
Q 1472 3097 1187 3025 
Q 903 2953 641 2809 
L 641 3341 
Q 956 3463 1253 3523 
Q 1550 3584 1831 3584 
Q 2591 3584 2966 3190 
Q 3341 2797 3341 1997 
z
" transform="scale(0.015625)"/>
       <path id="DejaVuSans-67" d="M 2906 1791 
Q 2906 2416 2648 2759 
Q 2391 3103 1925 3103 
Q 1463 3103 1205 2759 
Q 947 2416 947 1791 
Q 947 1169 1205 825 
Q 1463 481 1925 481 
Q 2391 481 2648 825 
Q 2906 1169 2906 1791 
z
M 3481 434 
Q 3481 -459 3084 -895 
Q 2688 -1331 1869 -1331 
Q 1566 -1331 1297 -1286 
Q 1028 -1241 775 -1147 
L 775 -588 
Q 1028 -725 1275 -790 
Q 1522 -856 1778 -856 
Q 2344 -856 2625 -561 
Q 2906 -266 2906 331 
L 2906 616 
Q 2728 306 2450 153 
Q 2172 0 1784 0 
Q 1141 0 747 490 
Q 353 981 353 1791 
Q 353 2603 747 3093 
Q 1141 3584 1784 3584 
Q 2172 3584 2450 3431 
Q 2728 3278 2906 2969 
L 2906 3500 
L 3481 3500 
L 3481 434 
z
" transform="scale(0.015625)"/>
      </defs>
      <use xlink:href="#DejaVuSans-56"/>
      <use xlink:href="#DejaVuSans-6f" transform="translate(60.658203 0)"/>
      <use xlink:href="#DejaVuSans-6c" transform="translate(121.839844 0)"/>
      <use xlink:href="#DejaVuSans-74" transform="translate(149.623047 0)"/>
      <use xlink:href="#DejaVuSans-61" transform="translate(188.832031 0)"/>
      <use xlink:href="#DejaVuSans-67" transform="translate(250.111328 0)"/>
      <use xlink:href="#DejaVuSans-65" transform="translate(313.587891 0)"/>
      <use xlink:href="#DejaVuSans-20" transform="translate(375.111328 0)"/>
      <use xlink:href="#DejaVuSans-28" transform="translate(406.898438 0)"/>
      <use xlink:href="#DejaVuSans-56" transform="translate(445.912109 0)"/>
      <use xlink:href="#DejaVuSans-29" transform="translate(514.320312 0)"/>
     </g>
    </g>
   </g>
   <g id="line2d_27">
    <path d="M 45.08375 446.94 
L 47.195946 409.289778 
L 49.308142 375.901037 
L 51.420339 346.291438 
L 53.532535 320.033233 
L 55.644731 296.747092 
L 57.756927 276.096618 
L 59.869124 257.783491 
L 61.98132 241.543155 
L 64.093516 227.140999 
L 66.205712 214.368967 
L 68.317909 203.042552 
L 70.430105 192.998129 
L 72.542301 184.090595 
L 74.654497 176.19127 
L 76.766693 169.186039 
L 78.87889 162.973703 
L 80.991086 157.464517 
L 83.103282 152.578894 
L 85.215478 148.246255 
L 87.327675 144.404011 
L 89.439871 140.996656 
L 91.552067 137.974965 
L 93.664263 135.295289 
L 96.128492 132.549869 
L 98.592721 130.163451 
L 101.05695 128.089089 
L 103.521179 126.285978 
L 106.337441 124.512141 
L 109.153702 123.000819 
L 112.321997 121.566226 
L 115.490291 120.368168 
L 119.010618 119.267202 
L 122.882978 118.285395 
L 127.459403 117.372145 
L 132.387861 116.621227 
L 138.020384 115.985017 
L 144.709006 115.45188 
L 153.15779 115.012422 
L 164.070804 114.683005 
L 179.560243 114.458724 
L 205.610663 114.336078 
L 277.425335 114.300608 
L 396.764422 114.300001 
L 396.764422 114.300001 
" clip-path="url(#p6f0df07501)" style="fill: none; stroke: #ffd700; stroke-width: 2.5; stroke-linecap: square"/>
   </g>
   <g id="line2d_28">
    <path d="M 45.08375 446.94 
L 47.900012 421.340833 
L 50.716273 397.711715 
L 53.532535 375.901037 
L 56.348797 355.768856 
L 59.165058 337.185999 
L 61.98132 320.033233 
L 64.797581 304.200502 
L 67.613843 289.58622 
L 70.430105 276.096618 
L 73.246366 263.645143 
L 76.062628 252.151903 
L 78.87889 241.543155 
L 81.695151 231.750831 
L 84.511413 222.7121 
L 87.327675 214.368967 
L 90.143936 206.667903 
L 92.960198 199.559493 
L 95.77646 192.998129 
L 98.592721 186.941712 
L 101.761016 180.683545 
L 104.92931 174.964527 
L 108.097604 169.738208 
L 111.265899 164.962143 
L 114.434193 160.597541 
L 117.602487 156.608955 
L 120.770782 152.96399 
L 123.939076 149.633043 
L 127.459403 146.267459 
L 130.97973 143.222458 
L 134.500057 140.467503 
L 138.020384 137.974965 
L 141.892744 135.506507 
L 145.765104 133.295421 
L 149.989496 131.145404 
L 154.213889 129.238738 
L 158.790314 127.415931 
L 163.718772 125.700845 
L 168.999262 124.111325 
L 174.631785 122.65932 
L 180.616341 121.351265 
L 187.304963 120.129999 
L 194.345617 119.072244 
L 202.442369 118.090835 
L 211.243187 117.251567 
L 221.452135 116.507909 
L 233.421247 115.870989 
L 247.502555 115.352644 
L 265.104191 114.938141 
L 288.338349 114.629606 
L 321.781456 114.427351 
L 381.274983 114.323459 
L 396.764422 114.315102 
L 396.764422 114.315102 
" clip-path="url(#p6f0df07501)" style="fill: none; stroke: #00d2ff; stroke-width: 2.5; stroke-linecap: square"/>
   </g>
   <g id="line2d_29">
    <path d="M 45.08375 446.94 
L 48.604077 425.466278 
L 52.124404 405.378801 
L 55.644731 386.58808 
L 59.165058 369.010403 
L 62.685385 352.56746 
L 66.205712 337.185999 
L 69.726039 322.797494 
L 73.246366 309.337846 
L 76.766693 296.747092 
L 80.28702 284.969139 
L 83.807348 273.951517 
L 87.327675 263.645143 
L 90.848002 254.004101 
L 94.368329 244.985441 
L 97.888656 236.548985 
L 101.408983 228.657147 
L 104.92931 221.274771 
L 108.449637 214.368967 
L 111.969964 207.908971 
L 115.842324 201.28359 
L 119.714683 195.127135 
L 123.587043 189.406417 
L 127.459403 184.090595 
L 131.331763 179.151012 
L 135.204122 174.561039 
L 139.076482 170.295932 
L 143.300875 165.986621 
L 147.525267 162.008944 
L 151.74966 158.337379 
L 155.974052 154.948369 
L 160.550477 151.570618 
L 165.126902 148.473548 
L 169.703328 145.633834 
L 174.631785 142.839004 
L 179.560243 140.293459 
L 184.840734 137.8175 
L 190.473257 135.435866 
L 196.10578 133.295421 
L 202.090336 131.258195 
L 208.426925 129.338763 
L 215.115547 127.547881 
L 222.156201 125.892644 
L 229.90092 124.309727 
L 237.997672 122.885464 
L 246.79849 121.566226 
L 256.303373 120.368168 
L 266.864354 119.267202 
L 278.481433 118.285395 
L 291.506643 117.413423 
L 306.292017 116.652415 
L 323.54162 115.996299 
L 343.959517 115.45188 
L 368.953839 115.017192 
L 396.764422 114.723329 
L 396.764422 114.723329 
" clip-path="url(#p6f0df07501)" style="fill: none; stroke: #2ecc71; stroke-width: 2.5; stroke-linecap: square"/>
   </g>
   <g id="line2d_30">
    <path d="M 45.08375 446.94 
L 48.95611 429.121487 
L 52.82847 412.257457 
L 57.052862 394.888913 
L 61.277254 378.532816 
L 65.501647 363.13015 
L 69.726039 348.625336 
L 73.950432 334.966037 
L 78.174824 322.102966 
L 82.399217 309.98971 
L 86.623609 298.58256 
L 90.848002 287.840356 
L 95.072394 277.724337 
L 99.296787 268.198001 
L 103.521179 259.226975 
L 107.745571 250.778888 
L 111.969964 242.823257 
L 116.194356 235.331375 
L 120.418749 228.276211 
L 124.643141 221.632307 
L 128.867534 215.375689 
L 133.443959 209.008577 
L 138.020384 203.042552 
L 142.596809 197.452348 
L 147.173234 192.21429 
L 151.74966 187.306196 
L 156.326085 182.707279 
L 161.254543 178.078055 
L 166.183001 173.762098 
L 171.111458 169.738208 
L 176.039916 165.986621 
L 181.320407 162.248326 
L 186.600897 158.780408 
L 192.233421 155.357303 
L 197.865944 152.197633 
L 203.8505 149.10648 
L 209.835056 146.267459 
L 216.171645 143.513426 
L 222.508233 140.996656 
L 229.196855 138.574908 
L 236.237509 136.262646 
L 243.630196 134.071431 
L 251.374915 132.009972 
L 259.471667 130.084253 
L 268.272485 128.227811 
L 277.425335 126.528356 
L 287.282251 124.929332 
L 297.843232 123.447378 
L 309.108279 122.093633 
L 321.429423 120.841274 
L 334.806666 119.708337 
L 349.59204 118.682992 
L 366.137577 117.76425 
L 384.79531 116.957089 
L 396.764422 116.541311 
L 396.764422 116.541311 
" clip-path="url(#p6f0df07501)" style="fill: none; stroke: #ff6b9d; stroke-width: 2.5; stroke-linecap: square"/>
   </g>
   <g id="line2d_31">
    <path d="M 45.08375 236.671417 
L 396.764422 236.671417 
" clip-path="url(#p6f0df07501)" style="fill: none; stroke-dasharray: 5.55,2.4; stroke-dashoffset: 0; stroke: #e74c3c; stroke-opacity: 0.85; stroke-width: 1.5"/>
   </g>
   <g id="line2d_32">
    <path d="M 80.251817 460.8 
L 80.251817 72.72 
" clip-path="url(#p6f0df07501)" style="fill: none; stroke-dasharray: 5.55,2.4; stroke-dashoffset: 0; stroke: #e74c3c; stroke-opacity: 0.85; stroke-width: 1.5"/>
   </g>
   <g id="line2d_33">
    <path d="M 45.08375 114.3 
L 396.764422 114.3 
" clip-path="url(#p6f0df07501)" style="fill: none; stroke-dasharray: 1,1.65; stroke-dashoffset: 0; stroke: #eaeaea; stroke-opacity: 0.5"/>
   </g>
   <g id="patch_3">
    <path d="M 45.08375 460.8 
L 45.08375 72.72 
" style="fill: none; stroke: #2a2a4a; stroke-width: 0.8; stroke-linejoin: miter; stroke-linecap: square"/>
   </g>
   <g id="patch_4">
    <path d="M 396.764422 460.8 
L 396.764422 72.72 
" style="fill: none; stroke: #2a2a4a; stroke-width: 0.8; stroke-linejoin: miter; stroke-linecap: square"/>
   </g>
   <g id="patch_5">
    <path d="M 45.08375 460.8 
L 396.764422 460.8 
" style="fill: none; stroke: #2a2a4a; stroke-width: 0.8; stroke-linejoin: miter; stroke-linecap: square"/>
   </g>
   <g id="patch_6">
    <path d="M 45.08375 72.72 
L 396.764422 72.72 
" style="fill: none; stroke: #2a2a4a; stroke-width: 0.8; stroke-linejoin: miter; stroke-linecap: square"/>
   </g>
   <g id="patch_7">
    <path d="M 128.364277 274.53907 
Q 105.093575 256.223505 83.140703 238.945159 
" style="fill: none; stroke: #e74c3c; stroke-width: 1.5; stroke-linecap: round"/>
    <path d="M 84.856331 242.586123 
L 83.140703 238.945159 
L 87.082851 239.757235 
" style="fill: none; stroke: #e74c3c; stroke-width: 1.5; stroke-linecap: round"/>
   </g>
   <g id="text_16">
    <g id="patch_8">
     <path d="M 122.453498 310.543136 
L 182.22756 310.543136 
Q 184.92756 310.543136 184.92756 307.843136 
L 184.92756 278.976761 
Q 184.92756 276.276761 182.22756 276.276761 
L 122.453498 276.276761 
Q 119.753498 276.276761 119.753498 278.976761 
L 119.753498 307.843136 
Q 119.753498 310.543136 122.453498 310.543136 
z
" style="fill: #1a1a2e; opacity: 0.8; stroke: #ffffff; stroke-linejoin: miter"/>
    </g>
    <!-- τ = RC = 1 s -->
    <g style="fill: #e74c3c" transform="translate(122.453498 285.815355) scale(0.09 -0.09)">
     <defs>
      <path id="DejaVuSans-3c4" d="M 2319 638 
Q 2431 488 2769 488 
L 3047 488 
L 3047 0 
L 2700 0 
Q 2138 0 1881 300 
Q 1625 606 1625 1269 
L 1625 2925 
L 313 2925 
L 313 3500 
L 3541 3500 
L 3541 2925 
L 2213 2925 
L 2213 1234 
Q 2213 781 2319 638 
z
" transform="scale(0.015625)"/>
      <path id="DejaVuSans-3d" d="M 678 2906 
L 4684 2906 
L 4684 2381 
L 678 2381 
L 678 2906 
z
M 678 1631 
L 4684 1631 
L 4684 1100 
L 678 1100 
L 678 1631 
z
" transform="scale(0.015625)"/>
      <path id="DejaVuSans-52" d="M 2841 2188 
Q 3044 2119 3236 1894 
Q 3428 1669 3622 1275 
L 4263 0 
L 3584 0 
L 2988 1197 
Q 2756 1666 2539 1819 
Q 2322 1972 1947 1972 
L 1259 1972 
L 1259 0 
L 628 0 
L 628 4666 
L 2053 4666 
Q 2853 4666 3247 4331 
Q 3641 3997 3641 3322 
Q 3641 2881 3436 2590 
Q 3231 2300 2841 2188 
z
M 1259 4147 
L 1259 2491 
L 2053 2491 
Q 2509 2491 2742 2702 
Q 2975 2913 2975 3322 
Q 2975 3731 2742 3939 
Q 2509 4147 2053 4147 
L 1259 4147 
z
" transform="scale(0.015625)"/>
      <path id="DejaVuSans-43" d="M 4122 4306 
L 4122 3641 
Q 3803 3938 3442 4084 
Q 3081 4231 2675 4231 
Q 1875 4231 1450 3742 
Q 1025 3253 1025 2328 
Q 1025 1406 1450 917 
Q 1875 428 2675 428 
Q 3081 428 3442 575 
Q 3803 722 4122 1019 
L 4122 359 
Q 3791 134 3420 21 
Q 3050 -91 2638 -91 
Q 1578 -91 968 557 
Q 359 1206 359 2328 
Q 359 3453 968 4101 
Q 1578 4750 2638 4750 
Q 3056 4750 3426 4639 
Q 3797 4528 4122 4306 
z
" transform="scale(0.015625)"/>
     </defs>
     <use xlink:href="#DejaVuSans-3c4"/>
     <use xlink:href="#DejaVuSans-20" transform="translate(60.205078 0)"/>
     <use xlink:href="#DejaVuSans-3d" transform="translate(91.992188 0)"/>
     <use xlink:href="#DejaVuSans-20" transform="translate(175.78125 0)"/>
     <use xlink:href="#DejaVuSans-52" transform="translate(207.568359 0)"/>
     <use xlink:href="#DejaVuSans-43" transform="translate(272.050781 0)"/>
     <use xlink:href="#DejaVuSans-20" transform="translate(341.875 0)"/>
     <use xlink:href="#DejaVuSans-3d" transform="translate(373.662109 0)"/>
     <use xlink:href="#DejaVuSans-20" transform="translate(457.451172 0)"/>
     <use xlink:href="#DejaVuSans-31" transform="translate(489.238281 0)"/>
     <use xlink:href="#DejaVuSans-20" transform="translate(552.861328 0)"/>
     <use xlink:href="#DejaVuSans-73" transform="translate(584.648438 0)"/>
    </g>
    <!-- V = 7.59 V -->
    <g style="fill: #e74c3c" transform="translate(122.453498 295.893386) scale(0.09 -0.09)">
     <defs>
      <path id="DejaVuSans-37" d="M 525 4666 
L 3525 4666 
L 3525 4397 
L 1831 0 
L 1172 0 
L 2766 4134 
L 525 4134 
L 525 4666 
z
" transform="scale(0.015625)"/>
      <path id="DejaVuSans-2e" d="M 684 794 
L 1344 794 
L 1344 0 
L 684 0 
L 684 794 
z
" transform="scale(0.015625)"/>
      <path id="DejaVuSans-35" d="M 691 4666 
L 3169 4666 
L 3169 4134 
L 1269 4134 
L 1269 2991 
Q 1406 3038 1543 3061 
Q 1681 3084 1819 3084 
Q 2600 3084 3056 2656 
Q 3513 2228 3513 1497 
Q 3513 744 3044 326 
Q 2575 -91 1722 -91 
Q 1428 -91 1123 -41 
Q 819 9 494 109 
L 494 744 
Q 775 591 1075 516 
Q 1375 441 1709 441 
Q 2250 441 2565 725 
Q 2881 1009 2881 1497 
Q 2881 1984 2565 2268 
Q 2250 2553 1709 2553 
Q 1456 2553 1204 2497 
Q 953 2441 691 2322 
L 691 4666 
z
" transform="scale(0.015625)"/>
      <path id="DejaVuSans-39" d="M 703 97 
L 703 672 
Q 941 559 1184 500 
Q 1428 441 1663 441 
Q 2288 441 2617 861 
Q 2947 1281 2994 2138 
Q 2813 1869 2534 1725 
Q 2256 1581 1919 1581 
Q 1219 1581 811 2004 
Q 403 2428 403 3163 
Q 403 3881 828 4315 
Q 1253 4750 1959 4750 
Q 2769 4750 3195 4129 
Q 3622 3509 3622 2328 
Q 3622 1225 3098 567 
Q 2575 -91 1691 -91 
Q 1453 -91 1209 -44 
Q 966 3 703 97 
z
M 1959 2075 
Q 2384 2075 2632 2365 
Q 2881 2656 2881 3163 
Q 2881 3666 2632 3958 
Q 2384 4250 1959 4250 
Q 1534 4250 1286 3958 
Q 1038 3666 1038 3163 
Q 1038 2656 1286 2365 
Q 1534 2075 1959 2075 
z
" transform="scale(0.015625)"/>
     </defs>
     <use xlink:href="#DejaVuSans-56"/>
     <use xlink:href="#DejaVuSans-20" transform="translate(68.408203 0)"/>
     <use xlink:href="#DejaVuSans-3d" transform="translate(100.195312 0)"/>
     <use xlink:href="#DejaVuSans-20" transform="translate(183.984375 0)"/>
     <use xlink:href="#DejaVuSans-37" transform="translate(215.771484 0)"/>
     <use xlink:href="#DejaVuSans-2e" transform="translate(279.394531 0)"/>
     <use xlink:href="#DejaVuSans-35" transform="translate(311.181641 0)"/>
     <use xlink:href="#DejaVuSans-39" transform="translate(374.804688 0)"/>
     <use xlink:href="#DejaVuSans-20" transform="translate(438.427734 0)"/>
     <use xlink:href="#DejaVuSans-56" transform="translate(470.214844 0)"/>
    </g>
    <!-- (63.2% of V₀) -->
    <g style="fill: #e74c3c" transform="translate(122.453498 305.971417) scale(0.09 -0.09)">
     <defs>
      <path id="DejaVuSans-33" d="M 2597 2516 
Q 3050 2419 3304 2112 
Q 3559 1806 3559 1356 
Q 3559 666 3084 287 
Q 2609 -91 1734 -91 
Q 1441 -91 1130 -33 
Q 819 25 488 141 
L 488 750 
Q 750 597 1062 519 
Q 1375 441 1716 441 
Q 2309 441 2620 675 
Q 2931 909 2931 1356 
Q 2931 1769 2642 2001 
Q 2353 2234 1838 2234 
L 1294 2234 
L 1294 2753 
L 1863 2753 
Q 2328 2753 2575 2939 
Q 2822 3125 2822 3475 
Q 2822 3834 2567 4026 
Q 2313 4219 1838 4219 
Q 1578 4219 1281 4162 
Q 984 4106 628 3988 
L 628 4550 
Q 988 4650 1302 4700 
Q 1616 4750 1894 4750 
Q 2613 4750 3031 4423 
Q 3450 4097 3450 3541 
Q 3450 3153 3228 2886 
Q 3006 2619 2597 2516 
z
" transform="scale(0.015625)"/>
      <path id="DejaVuSans-25" d="M 4653 2053 
Q 4381 2053 4226 1822 
Q 4072 1591 4072 1178 
Q 4072 772 4226 539 
Q 4381 306 4653 306 
Q 4919 306 5073 539 
Q 5228 772 5228 1178 
Q 5228 1588 5073 1820 
Q 4919 2053 4653 2053 
z
M 4653 2450 
Q 5147 2450 5437 2106 
Q 5728 1763 5728 1178 
Q 5728 594 5436 251 
Q 5144 -91 4653 -91 
Q 4153 -91 3862 251 
Q 3572 594 3572 1178 
Q 3572 1766 3864 2108 
Q 4156 2450 4653 2450 
z
M 1428 4353 
Q 1159 4353 1004 4120 
Q 850 3888 850 3481 
Q 850 3069 1003 2837 
Q 1156 2606 1428 2606 
Q 1700 2606 1854 2837 
Q 2009 3069 2009 3481 
Q 2009 3884 1853 4118 
Q 1697 4353 1428 4353 
z
M 4250 4750 
L 4750 4750 
L 1831 -91 
L 1331 -91 
L 4250 4750 
z
M 1428 4750 
Q 1922 4750 2215 4408 
Q 2509 4066 2509 3481 
Q 2509 2891 2217 2550 
Q 1925 2209 1428 2209 
Q 931 2209 642 2551 
Q 353 2894 353 3481 
Q 353 4063 643 4406 
Q 934 4750 1428 4750 
z
" transform="scale(0.015625)"/>
      <path id="DejaVuSans-66" d="M 2375 4863 
L 2375 4384 
L 1825 4384 
Q 1516 4384 1395 4259 
Q 1275 4134 1275 3809 
L 1275 3500 
L 2222 3500 
L 2222 3053 
L 1275 3053 
L 1275 0 
L 697 0 
L 697 3053 
L 147 3053 
L 147 3500 
L 697 3500 
L 697 3744 
Q 697 4328 969 4595 
Q 1241 4863 1831 4863 
L 2375 4863 
z
" transform="scale(0.015625)"/>
      <path id="DejaVuSans-2080" d="M 1781 2091 
Q 1625 2360 1309 2360 
Q 994 2360 838 2091 
Q 678 1822 678 1285 
Q 678 744 838 476 
Q 994 207 1309 207 
Q 1625 207 1781 476 
Q 1941 744 1941 1285 
Q 1941 1822 1781 2091 
z
M 1309 2638 
Q 1813 2638 2078 2291 
Q 2344 1944 2344 1285 
Q 2344 622 2078 275 
Q 1813 -71 1309 -71 
Q 803 -71 537 275 
Q 272 622 272 1285 
Q 272 1944 537 2291 
Q 803 2638 1309 2638 
z
" transform="scale(0.015625)"/>
     </defs>
     <use xlink:href="#DejaVuSans-28"/>
     <use xlink:href="#DejaVuSans-36" transform="translate(39.013672 0)"/>
     <use xlink:href="#DejaVuSans-33" transform="translate(102.636719 0)"/>
     <use xlink:href="#DejaVuSans-2e" transform="translate(166.259766 0)"/>
     <use xlink:href="#DejaVuSans-32" transform="translate(198.046875 0)"/>
     <use xlink:href="#DejaVuSans-25" transform="translate(261.669922 0)"/>
     <use xlink:href="#DejaVuSans-20" transform="translate(356.689453 0)"/>
     <use xlink:href="#DejaVuSans-6f" transform="translate(388.476562 0)"/>
     <use xlink:href="#DejaVuSans-66" transform="translate(449.658203 0)"/>
     <use xlink:href="#DejaVuSans-20" transform="translate(484.863281 0)"/>
     <use xlink:href="#DejaVuSans-56" transform="translate(516.650391 0)"/>
     <use xlink:href="#DejaVuSans-2080" transform="translate(585.058594 0)"/>
     <use xlink:href="#DejaVuSans-29" transform="translate(625.146484 0)"/>
    </g>
   </g>
   <g id="text_17">
    <!-- V₀ = 12.0 V -->
    <g style="fill: #eaeaea" transform="translate(52.117363 108.756) scale(0.09 -0.09)">
     <use xlink:href="#DejaVuSans-56"/>
     <use xlink:href="#DejaVuSans-2080" transform="translate(68.408203 0)"/>
     <use xlink:href="#DejaVuSans-20" transform="translate(108.496094 0)"/>
     <use xlink:href="#DejaVuSans-3d" transform="translate(140.283203 0)"/>
     <use xlink:href="#DejaVuSans-20" transform="translate(224.072266 0)"/>
     <use xlink:href="#DejaVuSans-31" transform="translate(255.859375 0)"/>
     <use xlink:href="#DejaVuSans-32" transform="translate(319.482422 0)"/>
     <use xlink:href="#DejaVuSans-2e" transform="translate(383.105469 0)"/>
     <use xlink:href="#DejaVuSans-30" transform="translate(414.892578 0)"/>
     <use xlink:href="#DejaVuSans-20" transform="translate(478.515625 0)"/>
     <use xlink:href="#DejaVuSans-56" transform="translate(510.302734 0)"/>
    </g>
   </g>
   <g id="text_18">
    <g id="patch_9">
     <path d="M 281.934002 445.796 
L 386.214002 445.796 
Q 390.614002 445.796 390.614002 441.396 
L 390.614002 429.406 
Q 390.614002 425.006 386.214002 425.006 
L 281.934002 425.006 
Q 277.534002 425.006 277.534002 429.406 
L 277.534002 441.396 
Q 277.534002 445.796 281.934002 445.796 
z
" style="fill: #1a1a2e; opacity: 0.8; stroke: #ffffff; stroke-linejoin: miter"/>
    </g>
    <!-- $V(t) = V_0\!\left(1 - e^{-t/RC}\right)$ -->
    <g style="fill: #ffd700" transform="translate(281.934002 439.108344) scale(0.11 -0.11)">
     <defs>
      <path id="DejaVuSans-Oblique-56" d="M 1319 0 
L 500 4666 
L 1119 4666 
L 1797 653 
L 4063 4666 
L 4750 4666 
L 2053 0 
L 1319 0 
z
" transform="scale(0.015625)"/>
      <path id="DejaVuSans-Oblique-74" d="M 2706 3500 
L 2619 3053 
L 1472 3053 
L 1100 1153 
Q 1081 1047 1072 975 
Q 1063 903 1063 863 
Q 1063 663 1183 572 
Q 1303 481 1569 481 
L 2150 481 
L 2053 0 
L 1503 0 
Q 991 0 739 200 
Q 488 400 488 806 
Q 488 878 497 964 
Q 506 1050 525 1153 
L 897 3053 
L 409 3053 
L 500 3500 
L 978 3500 
L 1172 4494 
L 1747 4494 
L 1556 3500 
L 2706 3500 
z
" transform="scale(0.015625)"/>
      <path id="DejaVuSans-2212" d="M 678 2272 
L 4684 2272 
L 4684 1741 
L 678 1741 
L 678 2272 
z
" transform="scale(0.015625)"/>
      <path id="DejaVuSans-Oblique-65" d="M 3078 2063 
Q 3088 2113 3092 2166 
Q 3097 2219 3097 2272 
Q 3097 2653 2873 2875 
Q 2650 3097 2266 3097 
Q 1838 3097 1509 2826 
Q 1181 2556 1013 2059 
L 3078 2063 
z
M 3578 1613 
L 903 1613 
Q 884 1494 878 1425 
Q 872 1356 872 1306 
Q 872 872 1139 634 
Q 1406 397 1894 397 
Q 2269 397 2603 481 
Q 2938 566 3225 728 
L 3116 159 
Q 2806 34 2476 -28 
Q 2147 -91 1806 -91 
Q 1078 -91 686 257 
Q 294 606 294 1247 
Q 294 1794 489 2264 
Q 684 2734 1063 3103 
Q 1306 3334 1642 3459 
Q 1978 3584 2356 3584 
Q 2950 3584 3301 3228 
Q 3653 2872 3653 2272 
Q 3653 2128 3634 1964 
Q 3616 1800 3578 1613 
z
" transform="scale(0.015625)"/>
      <path id="DejaVuSans-2f" d="M 1625 4666 
L 2156 4666 
L 531 -594 
L 0 -594 
L 1625 4666 
z
" transform="scale(0.015625)"/>
      <path id="DejaVuSans-Oblique-52" d="M 1613 4147 
L 1294 2491 
L 2106 2491 
Q 2584 2491 2879 2755 
Q 3175 3019 3175 3444 
Q 3175 3784 2976 3965 
Q 2778 4147 2406 4147 
L 1613 4147 
z
M 2772 2241 
Q 2972 2194 3105 2009 
Q 3238 1825 3413 1275 
L 3809 0 
L 3144 0 
L 2778 1197 
Q 2638 1659 2453 1815 
Q 2269 1972 1888 1972 
L 1191 1972 
L 806 0 
L 172 0 
L 1081 4666 
L 2503 4666 
Q 3150 4666 3495 4373 
Q 3841 4081 3841 3531 
Q 3841 3044 3547 2687 
Q 3253 2331 2772 2241 
z
" transform="scale(0.015625)"/>
      <path id="DejaVuSans-Oblique-43" d="M 4447 4306 
L 4319 3641 
Q 4019 3944 3683 4091 
Q 3347 4238 2956 4238 
Q 2422 4238 2017 3981 
Q 1613 3725 1319 3200 
Q 1131 2863 1032 2486 
Q 934 2109 934 1728 
Q 934 1091 1264 756 
Q 1594 422 2222 422 
Q 2656 422 3056 561 
Q 3456 700 3834 978 
L 3688 231 
Q 3316 72 2936 -9 
Q 2556 -91 2175 -91 
Q 1278 -91 773 396 
Q 269 884 269 1753 
Q 269 2309 461 2846 
Q 653 3384 1013 3828 
Q 1394 4300 1883 4525 
Q 2372 4750 3022 4750 
Q 3422 4750 3780 4639 
Q 4138 4528 4447 4306 
z
" transform="scale(0.015625)"/>
     </defs>
     <use xlink:href="#DejaVuSans-Oblique-56" transform="translate(0 0.765625)"/>
     <use xlink:href="#DejaVuSans-28" transform="translate(68.408203 0.765625)"/>
     <use xlink:href="#DejaVuSans-Oblique-74" transform="translate(107.421875 0.765625)"/>
     <use xlink:href="#DejaVuSans-29" transform="translate(146.630859 0.765625)"/>
     <use xlink:href="#DejaVuSans-3d" transform="translate(205.126953 0.765625)"/>
     <use xlink:href="#DejaVuSans-Oblique-56" transform="translate(308.398438 0.765625)"/>
     <use xlink:href="#DejaVuSans-30" transform="translate(376.806641 -15.640625) scale(0.7)"/>
     <use xlink:href="#DejaVuSans-28" transform="translate(407.841472 0.765625)"/>
     <use xlink:href="#DejaVuSans-31" transform="translate(446.855144 0.765625)"/>
     <use xlink:href="#DejaVuSans-2212" transform="translate(529.960613 0.765625)"/>
     <use xlink:href="#DejaVuSans-Oblique-65" transform="translate(633.232097 0.765625)"/>
     <use xlink:href="#DejaVuSans-2212" transform="translate(699.405431 39.046875) scale(0.7)"/>
     <use xlink:href="#DejaVuSans-Oblique-74" transform="translate(758.057774 39.046875) scale(0.7)"/>
     <use xlink:href="#DejaVuSans-2f" transform="translate(785.504063 39.046875) scale(0.7)"/>
     <use xlink:href="#DejaVuSans-Oblique-52" transform="translate(807.863048 39.046875) scale(0.7)"/>
     <use xlink:href="#DejaVuSans-Oblique-43" transform="translate(856.500743 39.046875) scale(0.7)"/>
     <use xlink:href="#DejaVuSans-29" transform="translate(908.112071 0.765625)"/>
    </g>
   </g>
   <g id="text_19">
    <!-- Capacitor Charging -->
    <g style="fill: #eaeaea" transform="translate(143.812836 62.72) scale(0.16 -0.16)">
     <defs>
      <path id="DejaVuSans-70" d="M 1159 525 
L 1159 -1331 
L 581 -1331 
L 581 3500 
L 1159 3500 
L 1159 2969 
Q 1341 3281 1617 3432 
Q 1894 3584 2278 3584 
Q 2916 3584 3314 3078 
Q 3713 2572 3713 1747 
Q 3713 922 3314 415 
Q 2916 -91 2278 -91 
Q 1894 -91 1617 61 
Q 1341 213 1159 525 
z
M 3116 1747 
Q 3116 2381 2855 2742 
Q 2594 3103 2138 3103 
Q 1681 3103 1420 2742 
Q 1159 2381 1159 1747 
Q 1159 1113 1420 752 
Q 1681 391 2138 391 
Q 2594 391 2855 752 
Q 3116 1113 3116 1747 
z
" transform="scale(0.015625)"/>
      <path id="DejaVuSans-63" d="M 3122 3366 
L 3122 2828 
Q 2878 2963 2633 3030 
Q 2388 3097 2138 3097 
Q 1578 3097 1268 2742 
Q 959 2388 959 1747 
Q 959 1106 1268 751 
Q 1578 397 2138 397 
Q 2388 397 2633 464 
Q 2878 531 3122 666 
L 3122 134 
Q 2881 22 2623 -34 
Q 2366 -91 2075 -91 
Q 1284 -91 818 406 
Q 353 903 353 1747 
Q 353 2603 823 3093 
Q 1294 3584 2113 3584 
Q 2378 3584 2631 3529 
Q 2884 3475 3122 3366 
z
" transform="scale(0.015625)"/>
      <path id="DejaVuSans-72" d="M 2631 2963 
Q 2534 3019 2420 3045 
Q 2306 3072 2169 3072 
Q 1681 3072 1420 2755 
Q 1159 2438 1159 1844 
L 1159 0 
L 581 0 
L 581 3500 
L 1159 3500 
L 1159 2956 
Q 1341 3275 1631 3429 
Q 1922 3584 2338 3584 
Q 2397 3584 2469 3576 
Q 2541 3569 2628 3553 
L 2631 2963 
z
" transform="scale(0.015625)"/>
      <path id="DejaVuSans-68" d="M 3513 2113 
L 3513 0 
L 2938 0 
L 2938 2094 
Q 2938 2591 2744 2837 
Q 2550 3084 2163 3084 
Q 1697 3084 1428 2787 
Q 1159 2491 1159 1978 
L 1159 0 
L 581 0 
L 581 4863 
L 1159 4863 
L 1159 2956 
Q 1366 3272 1645 3428 
Q 1925 3584 2291 3584 
Q 2894 3584 3203 3211 
Q 3513 2838 3513 2113 
z
" transform="scale(0.015625)"/>
      <path id="DejaVuSans-6e" d="M 3513 2113 
L 3513 0 
L 2938 0 
L 2938 2094 
Q 2938 2591 2744 2837 
Q 2550 3084 2163 3084 
Q 1697 3084 1428 2787 
Q 1159 2491 1159 1978 
L 1159 0 
L 581 0 
L 581 3500 
L 1159 3500 
L 1159 2956 
Q 1366 3272 1645 3428 
Q 1925 3584 2291 3584 
Q 2894 3584 3203 3211 
Q 3513 2838 3513 2113 
z
" transform="scale(0.015625)"/>
     </defs>
     <use xlink:href="#DejaVuSans-43"/>
     <use xlink:href="#DejaVuSans-61" transform="translate(69.824219 0)"/>
     <use xlink:href="#DejaVuSans-70" transform="translate(131.103516 0)"/>
     <use xlink:href="#DejaVuSans-61" transform="translate(194.580078 0)"/>
     <use xlink:href="#DejaVuSans-63" transform="translate(255.859375 0)"/>
     <use xlink:href="#DejaVuSans-69" transform="translate(310.839844 0)"/>
     <use xlink:href="#DejaVuSans-74" transform="translate(338.623047 0)"/>
     <use xlink:href="#DejaVuSans-6f" transform="translate(377.832031 0)"/>
     <use xlink:href="#DejaVuSans-72" transform="translate(439.013672 0)"/>
     <use xlink:href="#DejaVuSans-20" transform="translate(480.126953 0)"/>
     <use xlink:href="#DejaVuSans-43" transform="translate(511.914062 0)"/>
     <use xlink:href="#DejaVuSans-68" transform="translate(581.738281 0)"/>
     <use xlink:href="#DejaVuSans-61" transform="translate(645.117188 0)"/>
     <use xlink:href="#DejaVuSans-72" transform="translate(706.396484 0)"/>
     <use xlink:href="#DejaVuSans-67" transform="translate(745.759766 0)"/>
     <use xlink:href="#DejaVuSans-69" transform="translate(809.236328 0)"/>
     <use xlink:href="#DejaVuSans-6e" transform="translate(837.019531 0)"/>
     <use xlink:href="#DejaVuSans-67" transform="translate(900.398438 0)"/>
    </g>
   </g>
   <g id="legend_1">
    <g id="patch_10">
     <path d="M 178.69518 455.8 
L 263.152992 455.8 
Q 265.152992 455.8 265.152992 453.8 
L 265.152992 396.0875 
Q 265.152992 394.0875 263.152992 394.0875 
L 178.69518 394.0875 
Q 176.69518 394.0875 176.69518 396.0875 
L 176.69518 453.8 
Q 176.69518 455.8 178.69518 455.8 
z
" style="fill: #16213e; opacity: 0.8; stroke: #2a2a4a; stroke-linejoin: miter"/>
    </g>
    <g id="line2d_34">
     <path d="M 180.69518 402.185938 
L 190.69518 402.185938 
L 200.69518 402.185938 
" style="fill: none; stroke: #ffd700; stroke-width: 2.5; stroke-linecap: square"/>
    </g>
    <g id="text_20">
     <!-- RC = 0.5 s -->
     <g style="fill: #eaeaea" transform="translate(208.69518 405.685938) scale(0.1 -0.1)">
      <use xlink:href="#DejaVuSans-52"/>
      <use xlink:href="#DejaVuSans-43" transform="translate(64.482422 0)"/>
      <use xlink:href="#DejaVuSans-20" transform="translate(134.306641 0)"/>
      <use xlink:href="#DejaVuSans-3d" transform="translate(166.09375 0)"/>
      <use xlink:href="#DejaVuSans-20" transform="translate(249.882812 0)"/>
      <use xlink:href="#DejaVuSans-30" transform="translate(281.669922 0)"/>
      <use xlink:href="#DejaVuSans-2e" transform="translate(345.292969 0)"/>
      <use xlink:href="#DejaVuSans-35" transform="translate(377.080078 0)"/>
      <use xlink:href="#DejaVuSans-20" transform="translate(440.703125 0)"/>
      <use xlink:href="#DejaVuSans-73" transform="translate(472.490234 0)"/>
     </g>
    </g>
    <g id="line2d_35">
     <path d="M 180.69518 416.864063 
L 190.69518 416.864063 
L 200.69518 416.864063 
" style="fill: none; stroke: #00d2ff; stroke-width: 2.5; stroke-linecap: square"/>
    </g>
    <g id="text_21">
     <!-- RC = 1.0 s -->
     <g style="fill: #eaeaea" transform="translate(208.69518 420.364063) scale(0.1 -0.1)">
      <use xlink:href="#DejaVuSans-52"/>
      <use xlink:href="#DejaVuSans-43" transform="translate(64.482422 0)"/>
      <use xlink:href="#DejaVuSans-20" transform="translate(134.306641 0)"/>
      <use xlink:href="#DejaVuSans-3d" transform="translate(166.09375 0)"/>
      <use xlink:href="#DejaVuSans-20" transform="translate(249.882812 0)"/>
      <use xlink:href="#DejaVuSans-31" transform="translate(281.669922 0)"/>
      <use xlink:href="#DejaVuSans-2e" transform="translate(345.292969 0)"/>
      <use xlink:href="#DejaVuSans-30" transform="translate(377.080078 0)"/>
      <use xlink:href="#DejaVuSans-20" transform="translate(440.703125 0)"/>
      <use xlink:href="#DejaVuSans-73" transform="translate(472.490234 0)"/>
     </g>
    </g>
    <g id="line2d_36">
     <path d="M 180.69518 431.542188 
L 190.69518 431.542188 
L 200.69518 431.542188 
" style="fill: none; stroke: #2ecc71; stroke-width: 2.5; stroke-linecap: square"/>
    </g>
    <g id="text_22">
     <!-- RC = 1.5 s -->
     <g style="fill: #eaeaea" transform="translate(208.69518 435.042188) scale(0.1 -0.1)">
      <use xlink:href="#DejaVuSans-52"/>
      <use xlink:href="#DejaVuSans-43" transform="translate(64.482422 0)"/>
      <use xlink:href="#DejaVuSans-20" transform="translate(134.306641 0)"/>
      <use xlink:href="#DejaVuSans-3d" transform="translate(166.09375 0)"/>
      <use xlink:href="#DejaVuSans-20" transform="translate(249.882812 0)"/>
      <use xlink:href="#DejaVuSans-31" transform="translate(281.669922 0)"/>
      <use xlink:href="#DejaVuSans-2e" transform="translate(345.292969 0)"/>
      <use xlink:href="#DejaVuSans-35" transform="translate(377.080078 0)"/>
      <use xlink:href="#DejaVuSans-20" transform="translate(440.703125 0)"/>
      <use xlink:href="#DejaVuSans-73" transform="translate(472.490234 0)"/>
     </g>
    </g>
    <g id="line2d_37">
     <path d="M 180.69518 446.220313 
L 190.69518 446.220313 
L 200.69518 446.220313 
" style="fill: none; stroke: #ff6b9d; stroke-width: 2.5; stroke-linecap: square"/>
    </g>
    <g id="text_23">
     <!-- RC = 2.0 s -->
     <g style="fill: #eaeaea" transform="translate(208.69518 449.720313) scale(0.1 -0.1)">
      <use xlink:href="#DejaVuSans-52"/>
      <use xlink:href="#DejaVuSans-43" transform="translate(64.482422 0)"/>
      <use xlink:href="#DejaVuSans-20" transform="translate(134.306641 0)"/>
      <use xlink:href="#DejaVuSans-3d" transform="translate(166.09375 0)"/>
      <use xlink:href="#DejaVuSans-20" transform="translate(249.882812 0)"/>
      <use xlink:href="#DejaVuSans-32" transform="translate(281.669922 0)"/>
      <use xlink:href="#DejaVuSans-2e" transform="translate(345.292969 0)"/>
      <use xlink:href="#DejaVuSans-30" transform="translate(377.080078 0)"/>
      <use xlink:href="#DejaVuSans-20" transform="translate(440.703125 0)"/>
      <use xlink:href="#DejaVuSans-73" transform="translate(472.490234 0)"/>
     </g>
    </g>
   </g>
  </g>
  <g id="axes_2">
   <g id="patch_11">
    <path d="M 530.403078 460.8 
L 882.08375 460.8 
L 882.08375 72.72 
L 530.403078 72.72 
z
" style="fill: #16213e"/>
   </g>
   <g id="matplotlib.axis_3">
    <g id="xtick_7">
     <g id="line2d_38">
      <path d="M 530.403078 460.8 
L 530.403078 72.72 
" clip-path="url(#p405e60cbc7)" style="fill: none; stroke: #2a2a4a; stroke-opacity: 0.3; stroke-width: 0.8; stroke-linecap: square"/>
     </g>
     <g id="line2d_39">
      <g>
       <use xlink:href="#m4857af8bfa" x="530.403078" y="460.8" style="fill: #eaeaea; stroke: #eaeaea; stroke-width: 0.8"/>
      </g>
     </g>
     <g id="text_24">
      <!-- 0 -->
      <g style="fill: #eaeaea" transform="translate(526.585578 476.918125) scale(0.12 -0.12)">
       <use xlink:href="#DejaVuSans-30"/>
      </g>
     </g>
    </g>
    <g id="xtick_8">
     <g id="line2d_40">
      <path d="M 600.739212 460.8 
L 600.739212 72.72 
" clip-path="url(#p405e60cbc7)" style="fill: none; stroke: #2a2a4a; stroke-opacity: 0.3; stroke-width: 0.8; stroke-linecap: square"/>
     </g>
     <g id="line2d_41">
      <g>
       <use xlink:href="#m4857af8bfa" x="600.739212" y="460.8" style="fill: #eaeaea; stroke: #eaeaea; stroke-width: 0.8"/>
      </g>
     </g>
     <g id="text_25">
      <!-- 2 -->
      <g style="fill: #eaeaea" transform="translate(596.921712 476.918125) scale(0.12 -0.12)">
       <use xlink:href="#DejaVuSans-32"/>
      </g>
     </g>
    </g>
    <g id="xtick_9">
     <g id="line2d_42">
      <path d="M 671.075347 460.8 
L 671.075347 72.72 
" clip-path="url(#p405e60cbc7)" style="fill: none; stroke: #2a2a4a; stroke-opacity: 0.3; stroke-width: 0.8; stroke-linecap: square"/>
     </g>
     <g id="line2d_43">
      <g>
       <use xlink:href="#m4857af8bfa" x="671.075347" y="460.8" style="fill: #eaeaea; stroke: #eaeaea; stroke-width: 0.8"/>
      </g>
     </g>
     <g id="text_26">
      <!-- 4 -->
      <g style="fill: #eaeaea" transform="translate(667.257847 476.918125) scale(0.12 -0.12)">
       <use xlink:href="#DejaVuSans-34"/>
      </g>
     </g>
    </g>
    <g id="xtick_10">
     <g id="line2d_44">
      <path d="M 741.411481 460.8 
L 741.411481 72.72 
" clip-path="url(#p405e60cbc7)" style="fill: none; stroke: #2a2a4a; stroke-opacity: 0.3; stroke-width: 0.8; stroke-linecap: square"/>
     </g>
     <g id="line2d_45">
      <g>
       <use xlink:href="#m4857af8bfa" x="741.411481" y="460.8" style="fill: #eaeaea; stroke: #eaeaea; stroke-width: 0.8"/>
      </g>
     </g>
     <g id="text_27">
      <!-- 6 -->
      <g style="fill: #eaeaea" transform="translate(737.593981 476.918125) scale(0.12 -0.12)">
       <use xlink:href="#DejaVuSans-36"/>
      </g>
     </g>
    </g>
    <g id="xtick_11">
     <g id="line2d_46">
      <path d="M 811.747616 460.8 
L 811.747616 72.72 
" clip-path="url(#p405e60cbc7)" style="fill: none; stroke: #2a2a4a; stroke-opacity: 0.3; stroke-width: 0.8; stroke-linecap: square"/>
     </g>
     <g id="line2d_47">
      <g>
       <use xlink:href="#m4857af8bfa" x="811.747616" y="460.8" style="fill: #eaeaea; stroke: #eaeaea; stroke-width: 0.8"/>
      </g>
     </g>
     <g id="text_28">
      <!-- 8 -->
      <g style="fill: #eaeaea" transform="translate(807.930116 476.918125) scale(0.12 -0.12)">
       <use xlink:href="#DejaVuSans-38"/>
      </g>
     </g>
    </g>
    <g id="xtick_12">
     <g id="line2d_48">
      <path d="M 882.08375 460.8 
L 882.08375 72.72 
" clip-path="url(#p405e60cbc7)" style="fill: none; stroke: #2a2a4a; stroke-opacity: 0.3; stroke-width: 0.8; stroke-linecap: square"/>
     </g>
     <g id="line2d_49">
      <g>
       <use xlink:href="#m4857af8bfa" x="882.08375" y="460.8" style="fill: #eaeaea; stroke: #eaeaea; stroke-width: 0.8"/>
      </g>
     </g>
     <g id="text_29">
      <!-- 10 -->
      <g style="fill: #eaeaea" transform="translate(874.44875 476.918125) scale(0.12 -0.12)">
       <use xlink:href="#DejaVuSans-31"/>
       <use xlink:href="#DejaVuSans-30" transform="translate(63.623047 0)"/>
      </g>
     </g>
    </g>
    <g id="text_30">
     <!-- Time (s) -->
     <g style="fill: #eaeaea" transform="translate(681.848726 492.531875) scale(0.12 -0.12)">
      <use xlink:href="#DejaVuSans-54"/>
      <use xlink:href="#DejaVuSans-69" transform="translate(57.958984 0)"/>
      <use xlink:href="#DejaVuSans-6d" transform="translate(85.742188 0)"/>
      <use xlink:href="#DejaVuSans-65" transform="translate(183.154297 0)"/>
      <use xlink:href="#DejaVuSans-20" transform="translate(244.677734 0)"/>
      <use xlink:href="#DejaVuSans-28" transform="translate(276.464844 0)"/>
      <use xlink:href="#DejaVuSans-73" transform="translate(315.478516 0)"/>
      <use xlink:href="#DejaVuSans-29" transform="translate(367.578125 0)"/>
     </g>
    </g>
   </g>
   <g id="matplotlib.axis_4">
    <g id="ytick_8">
     <g id="line2d_50">
      <path d="M 530.403078 446.94 
L 882.08375 446.94 
" clip-path="url(#p405e60cbc7)" style="fill: none; stroke: #2a2a4a; stroke-opacity: 0.3; stroke-width: 0.8; stroke-linecap: square"/>
     </g>
     <g id="line2d_51">
      <g>
       <use xlink:href="#m6e33512f5b" x="530.403078" y="446.94" style="fill: #eaeaea; stroke: #eaeaea; stroke-width: 0.8"/>
      </g>
     </g>
     <g id="text_31">
      <!-- 0 -->
      <g style="fill: #eaeaea" transform="translate(515.768078 451.499063) scale(0.12 -0.12)">
       <use xlink:href="#DejaVuSans-30"/>
      </g>
     </g>
    </g>
    <g id="ytick_9">
     <g id="line2d_52">
      <path d="M 530.403078 391.5 
L 882.08375 391.5 
" clip-path="url(#p405e60cbc7)" style="fill: none; stroke: #2a2a4a; stroke-opacity: 0.3; stroke-width: 0.8; stroke-linecap: square"/>
     </g>
     <g id="line2d_53">
      <g>
       <use xlink:href="#m6e33512f5b" x="530.403078" y="391.5" style="fill: #eaeaea; stroke: #eaeaea; stroke-width: 0.8"/>
      </g>
     </g>
     <g id="text_32">
      <!-- 2 -->
      <g style="fill: #eaeaea" transform="translate(515.768078 396.059063) scale(0.12 -0.12)">
       <use xlink:href="#DejaVuSans-32"/>
      </g>
     </g>
    </g>
    <g id="ytick_10">
     <g id="line2d_54">
      <path d="M 530.403078 336.06 
L 882.08375 336.06 
" clip-path="url(#p405e60cbc7)" style="fill: none; stroke: #2a2a4a; stroke-opacity: 0.3; stroke-width: 0.8; stroke-linecap: square"/>
     </g>
     <g id="line2d_55">
      <g>
       <use xlink:href="#m6e33512f5b" x="530.403078" y="336.06" style="fill: #eaeaea; stroke: #eaeaea; stroke-width: 0.8"/>
      </g>
     </g>
     <g id="text_33">
      <!-- 4 -->
      <g style="fill: #eaeaea" transform="translate(515.768078 340.619063) scale(0.12 -0.12)">
       <use xlink:href="#DejaVuSans-34"/>
      </g>
     </g>
    </g>
    <g id="ytick_11">
     <g id="line2d_56">
      <path d="M 530.403078 280.62 
L 882.08375 280.62 
" clip-path="url(#p405e60cbc7)" style="fill: none; stroke: #2a2a4a; stroke-opacity: 0.3; stroke-width: 0.8; stroke-linecap: square"/>
     </g>
     <g id="line2d_57">
      <g>
       <use xlink:href="#m6e33512f5b" x="530.403078" y="280.62" style="fill: #eaeaea; stroke: #eaeaea; stroke-width: 0.8"/>
      </g>
     </g>
     <g id="text_34">
      <!-- 6 -->
      <g style="fill: #eaeaea" transform="translate(515.768078 285.179063) scale(0.12 -0.12)">
       <use xlink:href="#DejaVuSans-36"/>
      </g>
     </g>
    </g>
    <g id="ytick_12">
     <g id="line2d_58">
      <path d="M 530.403078 225.18 
L 882.08375 225.18 
" clip-path="url(#p405e60cbc7)" style="fill: none; stroke: #2a2a4a; stroke-opacity: 0.3; stroke-width: 0.8; stroke-linecap: square"/>
     </g>
     <g id="line2d_59">
      <g>
       <use xlink:href="#m6e33512f5b" x="530.403078" y="225.18" style="fill: #eaeaea; stroke: #eaeaea; stroke-width: 0.8"/>
      </g>
     </g>
     <g id="text_35">
      <!-- 8 -->
      <g style="fill: #eaeaea" transform="translate(515.768078 229.739062) scale(0.12 -0.12)">
       <use xlink:href="#DejaVuSans-38"/>
      </g>
     </g>
    </g>
    <g id="ytick_13">
     <g id="line2d_60">
      <path d="M 530.403078 169.74 
L 882.08375 169.74 
" clip-path="url(#p405e60cbc7)" style="fill: none; stroke: #2a2a4a; stroke-opacity: 0.3; stroke-width: 0.8; stroke-linecap: square"/>
     </g>
     <g id="line2d_61">
      <g>
       <use xlink:href="#m6e33512f5b" x="530.403078" y="169.74" style="fill: #eaeaea; stroke: #eaeaea; stroke-width: 0.8"/>
      </g>
     </g>
     <g id="text_36">
      <!-- 10 -->
      <g style="fill: #eaeaea" transform="translate(508.133078 174.299062) scale(0.12 -0.12)">
       <use xlink:href="#DejaVuSans-31"/>
       <use xlink:href="#DejaVuSans-30" transform="translate(63.623047 0)"/>
      </g>
     </g>
    </g>
    <g id="ytick_14">
     <g id="line2d_62">
      <path d="M 530.403078 114.3 
L 882.08375 114.3 
" clip-path="url(#p405e60cbc7)" style="fill: none; stroke: #2a2a4a; stroke-opacity: 0.3; stroke-width: 0.8; stroke-linecap: square"/>
     </g>
     <g id="line2d_63">
      <g>
       <use xlink:href="#m6e33512f5b" x="530.403078" y="114.3" style="fill: #eaeaea; stroke: #eaeaea; stroke-width: 0.8"/>
      </g>
     </g>
     <g id="text_37">
      <!-- 12 -->
      <g style="fill: #eaeaea" transform="translate(508.133078 118.859062) scale(0.12 -0.12)">
       <use xlink:href="#DejaVuSans-31"/>
       <use xlink:href="#DejaVuSans-32" transform="translate(63.623047 0)"/>
      </g>
     </g>
    </g>
    <g id="text_38">
     <!-- Voltage (V) -->
     <g style="fill: #eaeaea" transform="translate(501.637453 299.960625) rotate(-90) scale(0.12 -0.12)">
      <use xlink:href="#DejaVuSans-56"/>
      <use xlink:href="#DejaVuSans-6f" transform="translate(60.658203 0)"/>
      <use xlink:href="#DejaVuSans-6c" transform="translate(121.839844 0)"/>
      <use xlink:href="#DejaVuSans-74" transform="translate(149.623047 0)"/>
      <use xlink:href="#DejaVuSans-61" transform="translate(188.832031 0)"/>
      <use xlink:href="#DejaVuSans-67" transform="translate(250.111328 0)"/>
      <use xlink:href="#DejaVuSans-65" transform="translate(313.587891 0)"/>
      <use xlink:href="#DejaVuSans-20" transform="translate(375.111328 0)"/>
      <use xlink:href="#DejaVuSans-28" transform="translate(406.898438 0)"/>
      <use xlink:href="#DejaVuSans-56" transform="translate(445.912109 0)"/>
      <use xlink:href="#DejaVuSans-29" transform="translate(514.320312 0)"/>
     </g>
    </g>
   </g>
   <g id="line2d_64">
    <path d="M 530.403078 114.3 
L 532.515274 151.950222 
L 534.62747 185.338963 
L 536.739666 214.948562 
L 538.851863 241.206767 
L 540.964059 264.492908 
L 543.076255 285.143382 
L 545.188451 303.456509 
L 547.300648 319.696845 
L 549.412844 334.099001 
L 551.52504 346.871033 
L 553.637236 358.197448 
L 555.749432 368.241871 
L 557.861629 377.149405 
L 559.973825 385.04873 
L 562.086021 392.053961 
L 564.198217 398.266297 
L 566.310414 403.775483 
L 568.42261 408.661106 
L 570.534806 412.993745 
L 572.647002 416.835989 
L 574.759199 420.243344 
L 576.871395 423.265035 
L 578.983591 425.944711 
L 581.44782 428.690131 
L 583.912049 431.076549 
L 586.376278 433.150911 
L 588.840507 434.954022 
L 591.656768 436.727859 
L 594.47303 438.239181 
L 597.641324 439.673774 
L 600.809619 440.871832 
L 604.329946 441.972798 
L 608.202306 442.954605 
L 612.778731 443.867855 
L 617.707189 444.618773 
L 623.339712 445.254983 
L 630.028333 445.78812 
L 638.477118 446.227578 
L 649.390132 446.556995 
L 664.879571 446.781276 
L 690.929991 446.903922 
L 762.744663 446.939392 
L 882.08375 446.939999 
L 882.08375 446.939999 
" clip-path="url(#p405e60cbc7)" style="fill: none; stroke: #ffd700; stroke-width: 2.5; stroke-linecap: square"/>
   </g>
   <g id="line2d_65">
    <path d="M 530.403078 114.3 
L 533.219339 139.899167 
L 536.035601 163.528285 
L 538.851863 185.338963 
L 541.668124 205.471144 
L 544.484386 224.054001 
L 547.300648 241.206767 
L 550.116909 257.039498 
L 552.933171 271.65378 
L 555.749432 285.143382 
L 558.565694 297.594857 
L 561.381956 309.088097 
L 564.198217 319.696845 
L 567.014479 329.489169 
L 569.830741 338.5279 
L 572.647002 346.871033 
L 575.463264 354.572097 
L 578.279526 361.680507 
L 581.095787 368.241871 
L 583.912049 374.298288 
L 587.080343 380.556455 
L 590.248638 386.275473 
L 593.416932 391.501792 
L 596.585226 396.277857 
L 599.753521 400.642459 
L 602.921815 404.631045 
L 606.090109 408.27601 
L 609.258404 411.606957 
L 612.778731 414.972541 
L 616.299058 418.017542 
L 619.819385 420.772497 
L 623.339712 423.265035 
L 627.212072 425.733493 
L 631.084431 427.944579 
L 635.308824 430.094596 
L 639.533216 432.001262 
L 644.109641 433.824069 
L 649.038099 435.539155 
L 654.31859 437.128675 
L 659.951113 438.58068 
L 665.935669 439.888735 
L 672.624291 441.110001 
L 679.664945 442.167756 
L 687.761697 443.149165 
L 696.562514 443.988433 
L 706.771463 444.732091 
L 718.740575 445.369011 
L 732.821883 445.887356 
L 750.423518 446.301859 
L 773.657677 446.610394 
L 807.100784 446.812649 
L 866.594311 446.916541 
L 882.08375 446.924898 
L 882.08375 446.924898 
" clip-path="url(#p405e60cbc7)" style="fill: none; stroke: #00d2ff; stroke-width: 2.5; stroke-linecap: square"/>
   </g>
   <g id="line2d_66">
    <path d="M 530.403078 114.3 
L 533.923405 135.773722 
L 537.443732 155.861199 
L 540.964059 174.65192 
L 544.484386 192.229597 
L 548.004713 208.67254 
L 551.52504 224.054001 
L 555.045367 238.442506 
L 558.565694 251.902154 
L 562.086021 264.492908 
L 565.606348 276.270861 
L 569.126675 287.288483 
L 572.647002 297.594857 
L 576.167329 307.235899 
L 579.687656 316.254559 
L 583.207983 324.691015 
L 586.728311 332.582853 
L 590.248638 339.965229 
L 593.768965 346.871033 
L 597.289292 353.331029 
L 601.161651 359.95641 
L 605.034011 366.112865 
L 608.906371 371.833583 
L 612.778731 377.149405 
L 616.65109 382.088988 
L 620.52345 386.678961 
L 624.39581 390.944068 
L 628.620202 395.253379 
L 632.844595 399.231056 
L 637.068987 402.902621 
L 641.29338 406.291631 
L 645.869805 409.669382 
L 650.44623 412.766452 
L 655.022655 415.606166 
L 659.951113 418.400996 
L 664.879571 420.946541 
L 670.160062 423.4225 
L 675.792585 425.804134 
L 681.425108 427.944579 
L 687.409664 429.981805 
L 693.746253 431.901237 
L 700.434874 433.692119 
L 707.475528 435.347356 
L 715.220248 436.930273 
L 723.317 438.354536 
L 732.117818 439.673774 
L 741.622701 440.871832 
L 752.183682 441.972798 
L 763.800761 442.954605 
L 776.825971 443.826577 
L 791.611345 444.587585 
L 808.860947 445.243701 
L 829.278844 445.78812 
L 854.273166 446.222808 
L 882.08375 446.516671 
L 882.08375 446.516671 
" clip-path="url(#p405e60cbc7)" style="fill: none; stroke: #2ecc71; stroke-width: 2.5; stroke-linecap: square"/>
   </g>
   <g id="line2d_67">
    <path d="M 530.403078 114.3 
L 534.275437 132.118513 
L 538.147797 148.982543 
L 542.37219 166.351087 
L 546.596582 182.707184 
L 550.820975 198.10985 
L 555.045367 212.614664 
L 559.26976 226.273963 
L 563.494152 239.137034 
L 567.718544 251.25029 
L 571.942937 262.65744 
L 576.167329 273.399644 
L 580.391722 283.515663 
L 584.616114 293.041999 
L 588.840507 302.013025 
L 593.064899 310.461112 
L 597.289292 318.416743 
L 601.513684 325.908625 
L 605.738077 332.963789 
L 609.962469 339.607693 
L 614.186862 345.864311 
L 618.763287 352.231423 
L 623.339712 358.197448 
L 627.916137 363.787652 
L 632.492562 369.02571 
L 637.068987 373.933804 
L 641.645413 378.532721 
L 646.57387 383.161945 
L 651.502328 387.477902 
L 656.430786 391.501792 
L 661.359244 395.253379 
L 666.639735 398.991674 
L 671.920225 402.459592 
L 677.552748 405.882697 
L 683.185272 409.042367 
L 689.169828 412.13352 
L 695.154384 414.972541 
L 701.490972 417.726574 
L 707.827561 420.243344 
L 714.516182 422.665092 
L 721.556837 424.977354 
L 728.949523 427.168569 
L 736.694243 429.230028 
L 744.790995 431.155747 
L 753.591813 433.012189 
L 762.744663 434.711644 
L 772.601579 436.310668 
L 783.16256 437.792622 
L 794.427606 439.146367 
L 806.748751 440.398726 
L 820.125994 441.531663 
L 834.911368 442.557008 
L 851.456905 443.47575 
L 870.114638 444.282911 
L 882.08375 444.698689 
L 882.08375 444.698689 
" clip-path="url(#p405e60cbc7)" style="fill: none; stroke: #ff6b9d; stroke-width: 2.5; stroke-linecap: square"/>
   </g>
   <g id="line2d_68">
    <path d="M 530.403078 324.568583 
L 882.08375 324.568583 
" clip-path="url(#p405e60cbc7)" style="fill: none; stroke-dasharray: 5.55,2.4; stroke-dashoffset: 0; stroke: #e74c3c; stroke-opacity: 0.85; stroke-width: 1.5"/>
   </g>
   <g id="line2d_69">
    <path d="M 565.571145 460.8 
L 565.571145 72.72 
" clip-path="url(#p405e60cbc7)" style="fill: none; stroke-dasharray: 5.55,2.4; stroke-dashoffset: 0; stroke: #e74c3c; stroke-opacity: 0.85; stroke-width: 1.5"/>
   </g>
   <g id="patch_12">
    <path d="M 530.403078 460.8 
L 530.403078 72.72 
" style="fill: none; stroke: #2a2a4a; stroke-width: 0.8; stroke-linejoin: miter; stroke-linecap: square"/>
   </g>
   <g id="patch_13">
    <path d="M 882.08375 460.8 
L 882.08375 72.72 
" style="fill: none; stroke: #2a2a4a; stroke-width: 0.8; stroke-linejoin: miter; stroke-linecap: square"/>
   </g>
   <g id="patch_14">
    <path d="M 530.403078 460.8 
L 882.08375 460.8 
" style="fill: none; stroke: #2a2a4a; stroke-width: 0.8; stroke-linejoin: miter; stroke-linecap: square"/>
   </g>
   <g id="patch_15">
    <path d="M 530.403078 72.72 
L 882.08375 72.72 
" style="fill: none; stroke: #2a2a4a; stroke-width: 0.8; stroke-linejoin: miter; stroke-linecap: square"/>
   </g>
   <g id="patch_16">
    <path d="M 617.509912 275.574609 
Q 592.268064 299.38531 568.24615 322.045244 
" style="fill: none; stroke: #e74c3c; stroke-width: 1.5; stroke-linecap: round"/>
    <path d="M 572.100021 320.88435 
L 568.24615 322.045244 
L 569.629758 318.26561 
" style="fill: none; stroke: #e74c3c; stroke-width: 1.5; stroke-linecap: round"/>
   </g>
   <g id="text_39">
    <g id="patch_17">
     <path d="M 607.772826 273.700301 
L 667.546888 273.700301 
Q 670.246888 273.700301 670.246888 271.000301 
L 670.246888 242.133926 
Q 670.246888 239.433926 667.546888 239.433926 
L 607.772826 239.433926 
Q 605.072826 239.433926 605.072826 242.133926 
L 605.072826 271.000301 
Q 605.072826 273.700301 607.772826 273.700301 
z
" style="fill: #1a1a2e; opacity: 0.8; stroke: #ffffff; stroke-linejoin: miter"/>
    </g>
    <!-- τ = 1 s -->
    <g style="fill: #e74c3c" transform="translate(607.772826 248.97252) scale(0.09 -0.09)">
     <use xlink:href="#DejaVuSans-3c4"/>
     <use xlink:href="#DejaVuSans-20" transform="translate(60.205078 0)"/>
     <use xlink:href="#DejaVuSans-3d" transform="translate(91.992188 0)"/>
     <use xlink:href="#DejaVuSans-20" transform="translate(175.78125 0)"/>
     <use xlink:href="#DejaVuSans-31" transform="translate(207.568359 0)"/>
     <use xlink:href="#DejaVuSans-20" transform="translate(271.191406 0)"/>
     <use xlink:href="#DejaVuSans-73" transform="translate(302.978516 0)"/>
    </g>
    <!-- V = 4.41 V -->
    <g style="fill: #e74c3c" transform="translate(607.772826 259.050551) scale(0.09 -0.09)">
     <use xlink:href="#DejaVuSans-56"/>
     <use xlink:href="#DejaVuSans-20" transform="translate(68.408203 0)"/>
     <use xlink:href="#DejaVuSans-3d" transform="translate(100.195312 0)"/>
     <use xlink:href="#DejaVuSans-20" transform="translate(183.984375 0)"/>
     <use xlink:href="#DejaVuSans-34" transform="translate(215.771484 0)"/>
     <use xlink:href="#DejaVuSans-2e" transform="translate(279.394531 0)"/>
     <use xlink:href="#DejaVuSans-34" transform="translate(311.181641 0)"/>
     <use xlink:href="#DejaVuSans-31" transform="translate(374.804688 0)"/>
     <use xlink:href="#DejaVuSans-20" transform="translate(438.427734 0)"/>
     <use xlink:href="#DejaVuSans-56" transform="translate(470.214844 0)"/>
    </g>
    <!-- (36.8% of V₀) -->
    <g style="fill: #e74c3c" transform="translate(607.772826 269.128583) scale(0.09 -0.09)">
     <use xlink:href="#DejaVuSans-28"/>
     <use xlink:href="#DejaVuSans-33" transform="translate(39.013672 0)"/>
     <use xlink:href="#DejaVuSans-36" transform="translate(102.636719 0)"/>
     <use xlink:href="#DejaVuSans-2e" transform="translate(166.259766 0)"/>
     <use xlink:href="#DejaVuSans-38" transform="translate(198.046875 0)"/>
     <use xlink:href="#DejaVuSans-25" transform="translate(261.669922 0)"/>
     <use xlink:href="#DejaVuSans-20" transform="translate(356.689453 0)"/>
     <use xlink:href="#DejaVuSans-6f" transform="translate(388.476562 0)"/>
     <use xlink:href="#DejaVuSans-66" transform="translate(449.658203 0)"/>
     <use xlink:href="#DejaVuSans-20" transform="translate(484.863281 0)"/>
     <use xlink:href="#DejaVuSans-56" transform="translate(516.650391 0)"/>
     <use xlink:href="#DejaVuSans-2080" transform="translate(585.058594 0)"/>
     <use xlink:href="#DejaVuSans-29" transform="translate(625.146484 0)"/>
    </g>
   </g>
   <g id="text_40">
    <g id="patch_18">
     <path d="M 786.83333 108.514 
L 871.53333 108.514 
Q 875.93333 108.514 875.93333 104.114 
L 875.93333 92.124 
Q 875.93333 87.724 871.53333 87.724 
L 786.83333 87.724 
Q 782.43333 87.724 782.43333 92.124 
L 782.43333 104.114 
Q 782.43333 108.514 786.83333 108.514 
z
" style="fill: #1a1a2e; opacity: 0.8; stroke: #ffffff; stroke-linejoin: miter"/>
    </g>
    <!-- $V(t) = V_0 \cdot e^{-t/RC}$ -->
    <g style="fill: #ffd700" transform="translate(786.83333 101.826344) scale(0.11 -0.11)">
     <defs>
      <path id="DejaVuSans-22c5" d="M 684 2619 
L 1344 2619 
L 1344 1825 
L 684 1825 
L 684 2619 
z
" transform="scale(0.015625)"/>
     </defs>
     <use xlink:href="#DejaVuSans-Oblique-56" transform="translate(0 0.765625)"/>
     <use xlink:href="#DejaVuSans-28" transform="translate(68.408203 0.765625)"/>
     <use xlink:href="#DejaVuSans-Oblique-74" transform="translate(107.421875 0.765625)"/>
     <use xlink:href="#DejaVuSans-29" transform="translate(146.630859 0.765625)"/>
     <use xlink:href="#DejaVuSans-3d" transform="translate(205.126953 0.765625)"/>
     <use xlink:href="#DejaVuSans-Oblique-56" transform="translate(308.398438 0.765625)"/>
     <use xlink:href="#DejaVuSans-30" transform="translate(376.806641 -15.640625) scale(0.7)"/>
     <use xlink:href="#DejaVuSans-22c5" transform="translate(443.55957 0.765625)"/>
     <use xlink:href="#DejaVuSans-Oblique-65" transform="translate(494.829102 0.765625)"/>
     <use xlink:href="#DejaVuSans-2212" transform="translate(561.002435 39.046875) scale(0.7)"/>
     <use xlink:href="#DejaVuSans-Oblique-74" transform="translate(619.654779 39.046875) scale(0.7)"/>
     <use xlink:href="#DejaVuSans-2f" transform="translate(647.101068 39.046875) scale(0.7)"/>
     <use xlink:href="#DejaVuSans-Oblique-52" transform="translate(669.460052 39.046875) scale(0.7)"/>
     <use xlink:href="#DejaVuSans-Oblique-43" transform="translate(718.097747 39.046875) scale(0.7)"/>
    </g>
   </g>
   <g id="text_41">
    <!-- Capacitor Discharging -->
    <g style="fill: #eaeaea" transform="translate(617.769664 62.72) scale(0.16 -0.16)">
     <defs>
      <path id="DejaVuSans-44" d="M 1259 4147 
L 1259 519 
L 2022 519 
Q 2988 519 3436 956 
Q 3884 1394 3884 2338 
Q 3884 3275 3436 3711 
Q 2988 4147 2022 4147 
L 1259 4147 
z
M 628 4666 
L 1925 4666 
Q 3281 4666 3915 4102 
Q 4550 3538 4550 2338 
Q 4550 1131 3912 565 
Q 3275 0 1925 0 
L 628 0 
L 628 4666 
z
" transform="scale(0.015625)"/>
     </defs>
     <use xlink:href="#DejaVuSans-43"/>
     <use xlink:href="#DejaVuSans-61" transform="translate(69.824219 0)"/>
     <use xlink:href="#DejaVuSans-70" transform="translate(131.103516 0)"/>
     <use xlink:href="#DejaVuSans-61" transform="translate(194.580078 0)"/>
     <use xlink:href="#DejaVuSans-63" transform="translate(255.859375 0)"/>
     <use xlink:href="#DejaVuSans-69" transform="translate(310.839844 0)"/>
     <use xlink:href="#DejaVuSans-74" transform="translate(338.623047 0)"/>
     <use xlink:href="#DejaVuSans-6f" transform="translate(377.832031 0)"/>
     <use xlink:href="#DejaVuSans-72" transform="translate(439.013672 0)"/>
     <use xlink:href="#DejaVuSans-20" transform="translate(480.126953 0)"/>
     <use xlink:href="#DejaVuSans-44" transform="translate(511.914062 0)"/>
     <use xlink:href="#DejaVuSans-69" transform="translate(588.916016 0)"/>
     <use xlink:href="#DejaVuSans-73" transform="translate(616.699219 0)"/>
     <use xlink:href="#DejaVuSans-63" transform="translate(668.798828 0)"/>
     <use xlink:href="#DejaVuSans-68" transform="translate(723.779297 0)"/>
     <use xlink:href="#DejaVuSans-61" transform="translate(787.158203 0)"/>
     <use xlink:href="#DejaVuSans-72" transform="translate(848.4375 0)"/>
     <use xlink:href="#DejaVuSans-67" transform="translate(887.800781 0)"/>
     <use xlink:href="#DejaVuSans-69" transform="translate(951.277344 0)"/>
     <use xlink:href="#DejaVuSans-6e" transform="translate(979.060547 0)"/>
     <use xlink:href="#DejaVuSans-67" transform="translate(1042.439453 0)"/>
    </g>
   </g>
   <g id="legend_2">
    <g id="patch_19">
     <path d="M 790.625937 297.61625 
L 875.08375 297.61625 
Q 877.08375 297.61625 877.08375 295.61625 
L 877.08375 237.90375 
Q 877.08375 235.90375 875.08375 235.90375 
L 790.625937 235.90375 
Q 788.625937 235.90375 788.625937 237.90375 
L 788.625937 295.61625 
Q 788.625937 297.61625 790.625937 297.61625 
z
" style="fill: #16213e; opacity: 0.8; stroke: #2a2a4a; stroke-linejoin: miter"/>
    </g>
    <g id="line2d_70">
     <path d="M 792.625937 244.002188 
L 802.625937 244.002188 
L 812.625937 244.002188 
" style="fill: none; stroke: #ffd700; stroke-width: 2.5; stroke-linecap: square"/>
    </g>
    <g id="text_42">
     <!-- RC = 0.5 s -->
     <g style="fill: #eaeaea" transform="translate(820.625937 247.502188) scale(0.1 -0.1)">
      <use xlink:href="#DejaVuSans-52"/>
      <use xlink:href="#DejaVuSans-43" transform="translate(64.482422 0)"/>
      <use xlink:href="#DejaVuSans-20" transform="translate(134.306641 0)"/>
      <use xlink:href="#DejaVuSans-3d" transform="translate(166.09375 0)"/>
      <use xlink:href="#DejaVuSans-20" transform="translate(249.882812 0)"/>
      <use xlink:href="#DejaVuSans-30" transform="translate(281.669922 0)"/>
      <use xlink:href="#DejaVuSans-2e" transform="translate(345.292969 0)"/>
      <use xlink:href="#DejaVuSans-35" transform="translate(377.080078 0)"/>
      <use xlink:href="#DejaVuSans-20" transform="translate(440.703125 0)"/>
      <use xlink:href="#DejaVuSans-73" transform="translate(472.490234 0)"/>
     </g>
    </g>
    <g id="line2d_71">
     <path d="M 792.625937 258.680313 
L 802.625937 258.680313 
L 812.625937 258.680313 
" style="fill: none; stroke: #00d2ff; stroke-width: 2.5; stroke-linecap: square"/>
    </g>
    <g id="text_43">
     <!-- RC = 1.0 s -->
     <g style="fill: #eaeaea" transform="translate(820.625937 262.180313) scale(0.1 -0.1)">
      <use xlink:href="#DejaVuSans-52"/>
      <use xlink:href="#DejaVuSans-43" transform="translate(64.482422 0)"/>
      <use xlink:href="#DejaVuSans-20" transform="translate(134.306641 0)"/>
      <use xlink:href="#DejaVuSans-3d" transform="translate(166.09375 0)"/>
      <use xlink:href="#DejaVuSans-20" transform="translate(249.882812 0)"/>
      <use xlink:href="#DejaVuSans-31" transform="translate(281.669922 0)"/>
      <use xlink:href="#DejaVuSans-2e" transform="translate(345.292969 0)"/>
      <use xlink:href="#DejaVuSans-30" transform="translate(377.080078 0)"/>
      <use xlink:href="#DejaVuSans-20" transform="translate(440.703125 0)"/>
      <use xlink:href="#DejaVuSans-73" transform="translate(472.490234 0)"/>
     </g>
    </g>
    <g id="line2d_72">
     <path d="M 792.625937 273.358438 
L 802.625937 273.358438 
L 812.625937 273.358438 
" style="fill: none; stroke: #2ecc71; stroke-width: 2.5; stroke-linecap: square"/>
    </g>
    <g id="text_44">
     <!-- RC = 1.5 s -->
     <g style="fill: #eaeaea" transform="translate(820.625937 276.858438) scale(0.1 -0.1)">
      <use xlink:href="#DejaVuSans-52"/>
      <use xlink:href="#DejaVuSans-43" transform="translate(64.482422 0)"/>
      <use xlink:href="#DejaVuSans-20" transform="translate(134.306641 0)"/>
      <use xlink:href="#DejaVuSans-3d" transform="translate(166.09375 0)"/>
      <use xlink:href="#DejaVuSans-20" transform="translate(249.882812 0)"/>
      <use xlink:href="#DejaVuSans-31" transform="translate(281.669922 0)"/>
      <use xlink:href="#DejaVuSans-2e" transform="translate(345.292969 0)"/>
      <use xlink:href="#DejaVuSans-35" transform="translate(377.080078 0)"/>
      <use xlink:href="#DejaVuSans-20" transform="translate(440.703125 0)"/>
      <use xlink:href="#DejaVuSans-73" transform="translate(472.490234 0)"/>
     </g>
    </g>
    <g id="line2d_73">
     <path d="M 792.625937 288.036563 
L 802.625937 288.036563 
L 812.625937 288.036563 
" style="fill: none; stroke: #ff6b9d; stroke-width: 2.5; stroke-linecap: square"/>
    </g>
    <g id="text_45">
     <!-- RC = 2.0 s -->
     <g style="fill: #eaeaea" transform="translate(820.625937 291.536563) scale(0.1 -0.1)">
      <use xlink:href="#DejaVuSans-52"/>
      <use xlink:href="#DejaVuSans-43" transform="translate(64.482422 0)"/>
      <use xlink:href="#DejaVuSans-20" transform="translate(134.306641 0)"/>
      <use xlink:href="#DejaVuSans-3d" transform="translate(166.09375 0)"/>
      <use xlink:href="#DejaVuSans-20" transform="translate(249.882812 0)"/>
      <use xlink:href="#DejaVuSans-32" transform="translate(281.669922 0)"/>
      <use xlink:href="#DejaVuSans-2e" transform="translate(345.292969 0)"/>
      <use xlink:href="#DejaVuSans-30" transform="translate(377.080078 0)"/>
      <use xlink:href="#DejaVuSans-20" transform="translate(440.703125 0)"/>
      <use xlink:href="#DejaVuSans-73" transform="translate(472.490234 0)"/>
     </g>
    </g>
   </g>
  </g>
  <g id="text_46">
   <!-- RC Capacitor Charge &amp; Discharge  (V₀ = 12 V) -->
   <g style="fill: #ffd700" transform="translate(219.015781 20.877187) scale(0.18 -0.18)">
    <defs>
     <path id="DejaVuSans-Bold-52" d="M 2297 2597 
Q 2675 2597 2839 2737 
Q 3003 2878 3003 3200 
Q 3003 3519 2839 3656 
Q 2675 3794 2297 3794 
L 1791 3794 
L 1791 2597 
L 2297 2597 
z
M 1791 1766 
L 1791 0 
L 588 0 
L 588 4666 
L 2425 4666 
Q 3347 4666 3776 4356 
Q 4206 4047 4206 3378 
Q 4206 2916 3982 2619 
Q 3759 2322 3309 2181 
Q 3556 2125 3751 1926 
Q 3947 1728 4147 1325 
L 4800 0 
L 3519 0 
L 2950 1159 
Q 2778 1509 2601 1637 
Q 2425 1766 2131 1766 
L 1791 1766 
z
" transform="scale(0.015625)"/>
     <path id="DejaVuSans-Bold-43" d="M 4288 256 
Q 3956 84 3597 -3 
Q 3238 -91 2847 -91 
Q 1681 -91 1000 561 
Q 319 1213 319 2328 
Q 319 3447 1000 4098 
Q 1681 4750 2847 4750 
Q 3238 4750 3597 4662 
Q 3956 4575 4288 4403 
L 4288 3438 
Q 3953 3666 3628 3772 
Q 3303 3878 2944 3878 
Q 2300 3878 1931 3465 
Q 1563 3053 1563 2328 
Q 1563 1606 1931 1193 
Q 2300 781 2944 781 
Q 3303 781 3628 887 
Q 3953 994 4288 1222 
L 4288 256 
z
" transform="scale(0.015625)"/>
     <path id="DejaVuSans-Bold-20" transform="scale(0.015625)"/>
     <path id="DejaVuSans-Bold-61" d="M 2106 1575 
Q 1756 1575 1579 1456 
Q 1403 1338 1403 1106 
Q 1403 894 1545 773 
Q 1688 653 1941 653 
Q 2256 653 2472 879 
Q 2688 1106 2688 1447 
L 2688 1575 
L 2106 1575 
z
M 3816 1997 
L 3816 0 
L 2688 0 
L 2688 519 
Q 2463 200 2181 54 
Q 1900 -91 1497 -91 
Q 953 -91 614 226 
Q 275 544 275 1050 
Q 275 1666 698 1953 
Q 1122 2241 2028 2241 
L 2688 2241 
L 2688 2328 
Q 2688 2594 2478 2717 
Q 2269 2841 1825 2841 
Q 1466 2841 1156 2769 
Q 847 2697 581 2553 
L 581 3406 
Q 941 3494 1303 3539 
Q 1666 3584 2028 3584 
Q 2975 3584 3395 3211 
Q 3816 2838 3816 1997 
z
" transform="scale(0.015625)"/>
     <path id="DejaVuSans-Bold-70" d="M 1656 506 
L 1656 -1331 
L 538 -1331 
L 538 3500 
L 1656 3500 
L 1656 2988 
Q 1888 3294 2169 3439 
Q 2450 3584 2816 3584 
Q 3463 3584 3878 3070 
Q 4294 2556 4294 1747 
Q 4294 938 3878 423 
Q 3463 -91 2816 -91 
Q 2450 -91 2169 54 
Q 1888 200 1656 506 
z
M 2400 2772 
Q 2041 2772 1848 2508 
Q 1656 2244 1656 1747 
Q 1656 1250 1848 986 
Q 2041 722 2400 722 
Q 2759 722 2948 984 
Q 3138 1247 3138 1747 
Q 3138 2247 2948 2509 
Q 2759 2772 2400 2772 
z
" transform="scale(0.015625)"/>
     <path id="DejaVuSans-Bold-63" d="M 3366 3391 
L 3366 2478 
Q 3138 2634 2908 2709 
Q 2678 2784 2431 2784 
Q 1963 2784 1702 2511 
Q 1441 2238 1441 1747 
Q 1441 1256 1702 982 
Q 1963 709 2431 709 
Q 2694 709 2930 787 
Q 3166 866 3366 1019 
L 3366 103 
Q 3103 6 2833 -42 
Q 2563 -91 2291 -91 
Q 1344 -91 809 395 
Q 275 881 275 1747 
Q 275 2613 809 3098 
Q 1344 3584 2291 3584 
Q 2566 3584 2833 3536 
Q 3100 3488 3366 3391 
z
" transform="scale(0.015625)"/>
     <path id="DejaVuSans-Bold-69" d="M 538 3500 
L 1656 3500 
L 1656 0 
L 538 0 
L 538 3500 
z
M 538 4863 
L 1656 4863 
L 1656 3950 
L 538 3950 
L 538 4863 
z
" transform="scale(0.015625)"/>
     <path id="DejaVuSans-Bold-74" d="M 1759 4494 
L 1759 3500 
L 2913 3500 
L 2913 2700 
L 1759 2700 
L 1759 1216 
Q 1759 972 1856 886 
Q 1953 800 2241 800 
L 2816 800 
L 2816 0 
L 1856 0 
Q 1194 0 917 276 
Q 641 553 641 1216 
L 641 2700 
L 84 2700 
L 84 3500 
L 641 3500 
L 641 4494 
L 1759 4494 
z
" transform="scale(0.015625)"/>
     <path id="DejaVuSans-Bold-6f" d="M 2203 2784 
Q 1831 2784 1636 2517 
Q 1441 2250 1441 1747 
Q 1441 1244 1636 976 
Q 1831 709 2203 709 
Q 2569 709 2762 976 
Q 2956 1244 2956 1747 
Q 2956 2250 2762 2517 
Q 2569 2784 2203 2784 
z
M 2203 3584 
Q 3106 3584 3614 3096 
Q 4122 2609 4122 1747 
Q 4122 884 3614 396 
Q 3106 -91 2203 -91 
Q 1297 -91 786 396 
Q 275 884 275 1747 
Q 275 2609 786 3096 
Q 1297 3584 2203 3584 
z
" transform="scale(0.015625)"/>
     <path id="DejaVuSans-Bold-72" d="M 3138 2547 
Q 2991 2616 2845 2648 
Q 2700 2681 2553 2681 
Q 2122 2681 1889 2404 
Q 1656 2128 1656 1613 
L 1656 0 
L 538 0 
L 538 3500 
L 1656 3500 
L 1656 2925 
Q 1872 3269 2151 3426 
Q 2431 3584 2822 3584 
Q 2878 3584 2943 3579 
Q 3009 3575 3134 3559 
L 3138 2547 
z
" transform="scale(0.015625)"/>
     <path id="DejaVuSans-Bold-68" d="M 4056 2131 
L 4056 0 
L 2931 0 
L 2931 347 
L 2931 1625 
Q 2931 2084 2911 2256 
Q 2891 2428 2841 2509 
Q 2775 2619 2662 2680 
Q 2550 2741 2406 2741 
Q 2056 2741 1856 2470 
Q 1656 2200 1656 1722 
L 1656 0 
L 538 0 
L 538 4863 
L 1656 4863 
L 1656 2988 
Q 1909 3294 2193 3439 
Q 2478 3584 2822 3584 
Q 3428 3584 3742 3212 
Q 4056 2841 4056 2131 
z
" transform="scale(0.015625)"/>
     <path id="DejaVuSans-Bold-67" d="M 2919 594 
Q 2688 288 2409 144 
Q 2131 0 1766 0 
Q 1125 0 706 504 
Q 288 1009 288 1791 
Q 288 2575 706 3076 
Q 1125 3578 1766 3578 
Q 2131 3578 2409 3434 
Q 2688 3291 2919 2981 
L 2919 3500 
L 4044 3500 
L 4044 353 
Q 4044 -491 3511 -936 
Q 2978 -1381 1966 -1381 
Q 1638 -1381 1331 -1331 
Q 1025 -1281 716 -1178 
L 716 -306 
Q 1009 -475 1290 -558 
Q 1572 -641 1856 -641 
Q 2406 -641 2662 -400 
Q 2919 -159 2919 353 
L 2919 594 
z
M 2181 2772 
Q 1834 2772 1640 2515 
Q 1447 2259 1447 1791 
Q 1447 1309 1634 1061 
Q 1822 813 2181 813 
Q 2531 813 2725 1069 
Q 2919 1325 2919 1791 
Q 2919 2259 2725 2515 
Q 2531 2772 2181 2772 
z
" transform="scale(0.015625)"/>
     <path id="DejaVuSans-Bold-65" d="M 4031 1759 
L 4031 1441 
L 1416 1441 
Q 1456 1047 1700 850 
Q 1944 653 2381 653 
Q 2734 653 3104 758 
Q 3475 863 3866 1075 
L 3866 213 
Q 3469 63 3072 -14 
Q 2675 -91 2278 -91 
Q 1328 -91 801 392 
Q 275 875 275 1747 
Q 275 2603 792 3093 
Q 1309 3584 2216 3584 
Q 3041 3584 3536 3087 
Q 4031 2591 4031 1759 
z
M 2881 2131 
Q 2881 2450 2695 2645 
Q 2509 2841 2209 2841 
Q 1884 2841 1681 2658 
Q 1478 2475 1428 2131 
L 2881 2131 
z
" transform="scale(0.015625)"/>
     <path id="DejaVuSans-Bold-26" d="M 2497 3097 
L 3775 1691 
Q 3941 1909 4027 2181 
Q 4113 2453 4128 2797 
L 5100 2797 
Q 5053 2228 4879 1784 
Q 4706 1341 4397 1006 
L 5313 0 
L 3988 0 
L 3681 341 
Q 3353 122 2990 15 
Q 2628 -91 2222 -91 
Q 1400 -91 892 342 
Q 384 775 384 1459 
Q 384 1916 607 2267 
Q 831 2619 1338 2950 
Q 1206 3116 1143 3281 
Q 1081 3447 1081 3628 
Q 1081 4138 1478 4444 
Q 1875 4750 2534 4750 
Q 2819 4750 3126 4704 
Q 3434 4659 3769 4569 
L 3769 3700 
Q 3475 3850 3212 3922 
Q 2950 3994 2700 3994 
Q 2459 3994 2326 3901 
Q 2194 3809 2194 3641 
Q 2194 3534 2270 3398 
Q 2347 3263 2497 3097 
z
M 1875 2322 
Q 1672 2175 1569 1989 
Q 1466 1803 1466 1581 
Q 1466 1222 1731 969 
Q 1997 716 2369 716 
Q 2578 716 2759 780 
Q 2941 844 3097 972 
L 1875 2322 
z
" transform="scale(0.015625)"/>
     <path id="DejaVuSans-Bold-44" d="M 1791 3756 
L 1791 909 
L 2222 909 
Q 2959 909 3348 1275 
Q 3738 1641 3738 2338 
Q 3738 3031 3350 3393 
Q 2963 3756 2222 3756 
L 1791 3756 
z
M 588 4666 
L 1856 4666 
Q 2919 4666 3439 4514 
Q 3959 4363 4331 4000 
Q 4659 3684 4818 3271 
Q 4978 2859 4978 2338 
Q 4978 1809 4818 1395 
Q 4659 981 4331 666 
Q 3956 303 3431 151 
Q 2906 0 1856 0 
L 588 0 
L 588 4666 
z
" transform="scale(0.015625)"/>
     <path id="DejaVuSans-Bold-73" d="M 3272 3391 
L 3272 2541 
Q 2913 2691 2578 2766 
Q 2244 2841 1947 2841 
Q 1628 2841 1473 2761 
Q 1319 2681 1319 2516 
Q 1319 2381 1436 2309 
Q 1553 2238 1856 2203 
L 2053 2175 
Q 2913 2066 3209 1816 
Q 3506 1566 3506 1031 
Q 3506 472 3093 190 
Q 2681 -91 1863 -91 
Q 1516 -91 1145 -36 
Q 775 19 384 128 
L 384 978 
Q 719 816 1070 734 
Q 1422 653 1784 653 
Q 2113 653 2278 743 
Q 2444 834 2444 1013 
Q 2444 1163 2330 1236 
Q 2216 1309 1875 1350 
L 1678 1375 
Q 931 1469 631 1722 
Q 331 1975 331 2491 
Q 331 3047 712 3315 
Q 1094 3584 1881 3584 
Q 2191 3584 2531 3537 
Q 2872 3491 3272 3391 
z
" transform="scale(0.015625)"/>
     <path id="DejaVuSans-Bold-28" d="M 2413 -844 
L 1484 -844 
Q 1006 -72 778 623 
Q 550 1319 550 2003 
Q 550 2688 779 3389 
Q 1009 4091 1484 4856 
L 2413 4856 
Q 2013 4116 1813 3408 
Q 1613 2700 1613 2009 
Q 1613 1319 1811 609 
Q 2009 -100 2413 -844 
z
" transform="scale(0.015625)"/>
     <path id="DejaVuSans-Bold-56" d="M 31 4666 
L 1241 4666 
L 2478 1222 
L 3713 4666 
L 4922 4666 
L 3194 0 
L 1759 0 
L 31 4666 
z
" transform="scale(0.015625)"/>
     <path id="DejaVuSans-Bold-2080" d="M 1806 1288 
Q 1806 1779 1706 1979 
Q 1606 2179 1368 2179 
Q 1131 2179 1028 1979 
Q 928 1779 928 1288 
Q 928 791 1028 588 
Q 1131 385 1369 385 
Q 1603 385 1706 588 
Q 1806 791 1806 1288 
z
M 2547 1285 
Q 2547 626 2241 279 
Q 1931 -71 1369 -71 
Q 797 -71 494 279 
Q 188 632 188 1285 
Q 188 1935 494 2285 
Q 803 2638 1369 2638 
Q 1931 2638 2241 2285 
Q 2547 1935 2547 1285 
z
" transform="scale(0.015625)"/>
     <path id="DejaVuSans-Bold-3d" d="M 678 3084 
L 4684 3084 
L 4684 2350 
L 678 2350 
L 678 3084 
z
M 678 1663 
L 4684 1663 
L 4684 922 
L 678 922 
L 678 1663 
z
" transform="scale(0.015625)"/>
     <path id="DejaVuSans-Bold-31" d="M 750 831 
L 1813 831 
L 1813 3847 
L 722 3622 
L 722 4441 
L 1806 4666 
L 2950 4666 
L 2950 831 
L 4013 831 
L 4013 0 
L 750 0 
L 750 831 
z
" transform="scale(0.015625)"/>
     <path id="DejaVuSans-Bold-32" d="M 1844 884 
L 3897 884 
L 3897 0 
L 506 0 
L 506 884 
L 2209 2388 
Q 2438 2594 2547 2791 
Q 2656 2988 2656 3200 
Q 2656 3528 2436 3728 
Q 2216 3928 1850 3928 
Q 1569 3928 1234 3808 
Q 900 3688 519 3450 
L 519 4475 
Q 925 4609 1322 4679 
Q 1719 4750 2100 4750 
Q 2938 4750 3402 4381 
Q 3866 4013 3866 3353 
Q 3866 2972 3669 2642 
Q 3472 2313 2841 1759 
L 1844 884 
z
" transform="scale(0.015625)"/>
     <path id="DejaVuSans-Bold-29" d="M 513 -844 
Q 913 -100 1113 609 
Q 1313 1319 1313 2009 
Q 1313 2700 1113 3408 
Q 913 4116 513 4856 
L 1441 4856 
Q 1916 4091 2145 3389 
Q 2375 2688 2375 2003 
Q 2375 1319 2147 623 
Q 1919 -72 1441 -844 
L 513 -844 
z
" transform="scale(0.015625)"/>
    </defs>
    <use xlink:href="#DejaVuSans-Bold-52"/>
    <use xlink:href="#DejaVuSans-Bold-43" transform="translate(77.001953 0)"/>
    <use xlink:href="#DejaVuSans-Bold-20" transform="translate(150.390625 0)"/>
    <use xlink:href="#DejaVuSans-Bold-43" transform="translate(185.205078 0)"/>
    <use xlink:href="#DejaVuSans-Bold-61" transform="translate(258.59375 0)"/>
    <use xlink:href="#DejaVuSans-Bold-70" transform="translate(326.074219 0)"/>
    <use xlink:href="#DejaVuSans-Bold-61" transform="translate(397.65625 0)"/>
    <use xlink:href="#DejaVuSans-Bold-63" transform="translate(465.136719 0)"/>
    <use xlink:href="#DejaVuSans-Bold-69" transform="translate(524.414062 0)"/>
    <use xlink:href="#DejaVuSans-Bold-74" transform="translate(558.691406 0)"/>
    <use xlink:href="#DejaVuSans-Bold-6f" transform="translate(606.494141 0)"/>
    <use xlink:href="#DejaVuSans-Bold-72" transform="translate(675.195312 0)"/>
    <use xlink:href="#DejaVuSans-Bold-20" transform="translate(724.511719 0)"/>
    <use xlink:href="#DejaVuSans-Bold-43" transform="translate(759.326172 0)"/>
    <use xlink:href="#DejaVuSans-Bold-68" transform="translate(832.714844 0)"/>
    <use xlink:href="#DejaVuSans-Bold-61" transform="translate(903.90625 0)"/>
    <use xlink:href="#DejaVuSans-Bold-72" transform="translate(971.386719 0)"/>
    <use xlink:href="#DejaVuSans-Bold-67" transform="translate(1020.703125 0)"/>
    <use xlink:href="#DejaVuSans-Bold-65" transform="translate(1092.285156 0)"/>
    <use xlink:href="#DejaVuSans-Bold-20" transform="translate(1160.107422 0)"/>
    <use xlink:href="#DejaVuSans-Bold-26" transform="translate(1194.921875 0)"/>
    <use xlink:href="#DejaVuSans-Bold-20" transform="translate(1282.128906 0)"/>
    <use xlink:href="#DejaVuSans-Bold-44" transform="translate(1316.943359 0)"/>
    <use xlink:href="#DejaVuSans-Bold-69" transform="translate(1399.951172 0)"/>
    <use xlink:href="#DejaVuSans-Bold-73" transform="translate(1434.228516 0)"/>
    <use xlink:href="#DejaVuSans-Bold-63" transform="translate(1493.75 0)"/>
    <use xlink:href="#DejaVuSans-Bold-68" transform="translate(1553.027344 0)"/>
    <use xlink:href="#DejaVuSans-Bold-61" transform="translate(1624.21875 0)"/>
    <use xlink:href="#DejaVuSans-Bold-72" transform="translate(1691.699219 0)"/>
    <use xlink:href="#DejaVuSans-Bold-67" transform="translate(1741.015625 0)"/>
    <use xlink:href="#DejaVuSans-Bold-65" transform="translate(1812.597656 0)"/>
    <use xlink:href="#DejaVuSans-Bold-20" transform="translate(1880.419922 0)"/>
    <use xlink:href="#DejaVuSans-Bold-20" transform="translate(1915.234375 0)"/>
    <use xlink:href="#DejaVuSans-Bold-28" transform="translate(1950.048828 0)"/>
    <use xlink:href="#DejaVuSans-Bold-56" transform="translate(1995.751953 0)"/>
    <use xlink:href="#DejaVuSans-Bold-2080" transform="translate(2073.144531 0)"/>
    <use xlink:href="#DejaVuSans-Bold-20" transform="translate(2116.943359 0)"/>
    <use xlink:href="#DejaVuSans-Bold-3d" transform="translate(2151.757812 0)"/>
    <use xlink:href="#DejaVuSans-Bold-20" transform="translate(2235.546875 0)"/>
    <use xlink:href="#DejaVuSans-Bold-31" transform="translate(2270.361328 0)"/>
    <use xlink:href="#DejaVuSans-Bold-32" transform="translate(2339.941406 0)"/>
    <use xlink:href="#DejaVuSans-Bold-20" transform="translate(2409.521484 0)"/>
    <use xlink:href="#DejaVuSans-Bold-56" transform="translate(2444.335938 0)"/>
    <use xlink:href="#DejaVuSans-Bold-29" transform="translate(2521.728516 0)"/>
   </g>
  </g>
 </g>
 <defs>
  <clipPath id="p6f0df07501">
   <rect x="45.08375" y="72.72" width="351.680672" height="388.08"/>
  </clipPath>
  <clipPath id="p405e60cbc7">
   <rect x="530.403078" y="72.72" width="351.680672" height="388.08"/>
  </clipPath>
 </defs>
</svg>
