<?xml version="1.0" encoding="utf-8" standalone="no"?>
<!DOCTYPE svg PUBLIC "-//W3C//DTD SVG 1.1//EN"
  "http://www.w3.org/Graphics/SVG/1.1/DTD/svg11.dtd">
<svg xmlns:xlink="http://www.w3.org/1999/xlink" width="900.020765pt" height="502.2275pt" viewBox="0 0 900.020765 502.2275" xmlns="http://www.w3.org/2000/svg" version="1.1">
 <metadata>
  <rdf:RDF xmlns:dc="http://purl.org/dc/elements/1.1/" xmlns:cc="http://creativecommons.org/ns#" xmlns:rdf="http://www.w3.org/1999/02/22-rdf-syntax-ns#">
   <cc:Work>
    <dc:type rdf:resource="http://purl.org/dc/dcmitype/StillImage"/>
    <dc:date>2026-03-18T22:57:17.180753</dc:date>
    <dc:format>image/svg+xml</dc:format>
    <dc:creator>
     <cc:Agent>
      <dc:title>Matplotlib v3.10.7, https://matplotlib.org/</dc:title>
     </cc:Agent>
    </dc:creator>
   </cc:Work>
  </rdf:RDF>
 </metadata>
 <defs>
  <style type="text/css">*{stroke-linejoin: round; stroke-linecap: butt}</style>
 </defs>
 <g id="figure_1">
  <g id="patch_1">
   <path d="M 0 502.2275 
L 900.020765 502.2275 
L 900.020765 0 
L 0 0 
z
" style="fill: #1a1a2e"/>
  </g>
  <g id="axes_1">
   <g id="patch_2">
    <path d="M 52.71875 460.8 
L 404.399422 460.8 
L 404.399422 72.72 
L 52.71875 72.72 
z
" style="fill: #16213e"/>
   </g>
   <g id="matplotlib.axis_1">
    <g id="xtick_1">
     <g id="line2d_1">
      <path d="M 52.71875 460.8 
L 52.71875 72.72 
" clip-path="url(#p2679fb7501)" style="fill: none; stroke: #2a2a4a; stroke-opacity: 0.3; stroke-width: 0.8; stroke-linecap: square"/>
     </g>
     <g id="line2d_2">
      <defs>
       <path id="mf0a9a7ba9c" d="M 0 0 
L 0 3.5 
" style="stroke: #eaeaea; stroke-width: 0.8"/>
      </defs>
      <g>
       <use xlink:href="#mf0a9a7ba9c" x="52.71875" y="460.8" style="fill: #eaeaea; stroke: #eaeaea; stroke-width: 0.8"/>
      </g>
     </g>
     <g id="text_1">
      <!-- 0 -->
      <g style="fill: #eaeaea" transform="translate(48.90125 476.918125) scale(0.12 -0.12)">
       <defs>
        <path id="DejaVuSans-30" d="M 2034 4250 
Q 1547 4250 1301 3770 
Q 1056 3291 1056 2328 
Q 1056 1369 1301 889 
Q 1547 409 2034 409 
Q 2525 409 2770 889 
Q 3016 1369 3016 2328 
Q 3016 3291 2770 3770 
Q 2525 4250 2034 4250 
z
M 2034 4750 
Q 2819 4750 3233 4129 
Q 3647 3509 3647 2328 
Q 3647 1150 3233 529 
Q 2819 -91 2034 -91 
Q 1250 -91 836 529 
Q 422 1150 422 2328 
Q 422 3509 836 4129 
Q 1250 4750 2034 4750 
z
" transform="scale(0.015625)"/>
       </defs>
       <use xlink:href="#DejaVuSans-30"/>
      </g>
     </g>
    </g>
    <g id="xtick_2">
     <g id="line2d_3">
      <path d="M 111.332195 460.8 
L 111.332195 72.72 
" clip-path="url(#p2679fb7501)" style="fill: none; stroke: #2a2a4a; stroke-opacity: 0.3; stroke-width: 0.8; stroke-linecap: square"/>
     </g>
     <g id="line2d_4">
      <g>
       <use xlink:href="#mf0a9a7ba9c" x="111.332195" y="460.8" style="fill: #eaeaea; stroke: #eaeaea; stroke-width: 0.8"/>
      </g>
     </g>
     <g id="text_2">
      <!-- 1 -->
      <g style="fill: #eaeaea" transform="translate(107.514695 476.918125) scale(0.12 -0.12)">
       <defs>
        <path id="DejaVuSans-31" d="M 794 531 
L 1825 531 
L 1825 4091 
L 703 3866 
L 703 4441 
L 1819 4666 
L 2450 4666 
L 2450 531 
L 3481 531 
L 3481 0 
L 794 0 
L 794 531 
z
" transform="scale(0.015625)"/>
       </defs>
       <use xlink:href="#DejaVuSans-31"/>
      </g>
     </g>
    </g>
    <g id="xtick_3">
     <g id="line2d_5">
      <path d="M 169.945641 460.8 
L 169.945641 72.72 
" clip-path="url(#p2679fb7501)" style="fill: none; stroke: #2a2a4a; stroke-opacity: 0.3; stroke-width: 0.8; stroke-linecap: square"/>
     </g>
     <g id="line2d_6">
      <g>
       <use xlink:href="#mf0a9a7ba9c" x="169.945641" y="460.8" style="fill: #eaeaea; stroke: #eaeaea; stroke-width: 0.8"/>
      </g>
     </g>
     <g id="text_3">
      <!-- 2 -->
      <g style="fill: #eaeaea" transform="translate(166.128141 476.918125) scale(0.12 -0.12)">
       <defs>
        <path id="DejaVuSans-32" d="M 1228 531 
L 3431 531 
L 3431 0 
L 469 0 
L 469 531 
Q 828 903 1448 1529 
Q 2069 2156 2228 2338 
Q 2531 2678 2651 2914 
Q 2772 3150 2772 3378 
Q 2772 3750 2511 3984 
Q 2250 4219 1831 4219 
Q 1534 4219 1204 4116 
Q 875 4013 500 3803 
L 500 4441 
Q 881 4594 1212 4672 
Q 1544 4750 1819 4750 
Q 2544 4750 2975 4387 
Q 3406 4025 3406 3419 
Q 3406 3131 3298 2873 
Q 3191 2616 2906 2266 
Q 2828 2175 2409 1742 
Q 1991 1309 1228 531 
z
" transform="scale(0.015625)"/>
       </defs>
       <use xlink:href="#DejaVuSans-32"/>
      </g>
     </g>
    </g>
    <g id="xtick_4">
     <g id="line2d_7">
      <path d="M 228.559086 460.8 
L 228.559086 72.72 
" clip-path="url(#p2679fb7501)" style="fill: none; stroke: #2a2a4a; stroke-opacity: 0.3; stroke-width: 0.8; stroke-linecap: square"/>
     </g>
     <g id="line2d_8">
      <g>
       <use xlink:href="#mf0a9a7ba9c" x="228.559086" y="460.8" style="fill: #eaeaea; stroke: #eaeaea; stroke-width: 0.8"/>
      </g>
     </g>
     <g id="text_4">
      <!-- 3 -->
      <g style="fill: #eaeaea" transform="translate(224.741586 476.918125) scale(0.12 -0.12)">
       <defs>
        <path id="DejaVuSans-33" d="M 2597 2516 
Q 3050 2419 3304 2112 
Q 3559 1806 3559 1356 
Q 3559 666 3084 287 
Q 2609 -91 1734 -91 
Q 1441 -91 1130 -33 
Q 819 25 488 141 
L 488 750 
Q 750 597 1062 519 
Q 1375 441 1716 441 
Q 2309 441 2620 675 
Q 2931 909 2931 1356 
Q 2931 1769 2642 2001 
Q 2353 2234 1838 2234 
L 1294 2234 
L 1294 2753 
L 1863 2753 
Q 2328 2753 2575 2939 
Q 2822 3125 2822 3475 
Q 2822 3834 2567 4026 
Q 2313 4219 1838 4219 
Q 1578 4219 1281 4162 
Q 984 4106 628 3988 
L 628 4550 
Q 988 4650 1302 4700 
Q 1616 4750 1894 4750 
Q 2613 4750 3031 4423 
Q 3450 4097 3450 3541 
Q 3450 3153 3228 2886 
Q 3006 2619 2597 2516 
z
" transform="scale(0.015625)"/>
       </defs>
       <use xlink:href="#DejaVuSans-33"/>
      </g>
     </g>
    </g>
    <g id="xtick_5">
     <g id="line2d_9">
      <path d="M 287.172532 460.8 
L 287.172532 72.72 
" clip-path="url(#p2679fb7501)" style="fill: none; stroke: #2a2a4a; stroke-opacity: 0.3; stroke-width: 0.8; stroke-linecap: square"/>
     </g>
     <g id="line2d_10">
      <g>
       <use xlink:href="#mf0a9a7ba9c" x="287.172532" y="460.8" style="fill: #eaeaea; stroke: #eaeaea; stroke-width: 0.8"/>
      </g>
     </g>
     <g id="text_5">
      <!-- 4 -->
      <g style="fill: #eaeaea" transform="translate(283.355032 476.918125) scale(0.12 -0.12)">
       <defs>
        <path id="DejaVuSans-34" d="M 2419 4116 
L 825 1625 
L 2419 1625 
L 2419 4116 
z
M 2253 4666 
L 3047 4666 
L 3047 1625 
L 3713 1625 
L 3713 1100 
L 3047 1100 
L 3047 0 
L 2419 0 
L 2419 1100 
L 313 1100 
L 313 1709 
L 2253 4666 
z
" transform="scale(0.015625)"/>
       </defs>
       <use xlink:href="#DejaVuSans-34"/>
      </g>
     </g>
    </g>
    <g id="xtick_6">
     <g id="line2d_11">
      <path d="M 345.785977 460.8 
L 345.785977 72.72 
" clip-path="url(#p2679fb7501)" style="fill: none; stroke: #2a2a4a; stroke-opacity: 0.3; stroke-width: 0.8; stroke-linecap: square"/>
     </g>
     <g id="line2d_12">
      <g>
       <use xlink:href="#mf0a9a7ba9c" x="345.785977" y="460.8" style="fill: #eaeaea; stroke: #eaeaea; stroke-width: 0.8"/>
      </g>
     </g>
     <g id="text_6">
      <!-- 5 -->
      <g style="fill: #eaeaea" transform="translate(341.968477 476.918125) scale(0.12 -0.12)">
       <defs>
        <path id="DejaVuSans-35" d="M 691 4666 
L 3169 4666 
L 3169 4134 
L 1269 4134 
L 1269 2991 
Q 1406 3038 1543 3061 
Q 1681 3084 1819 3084 
Q 2600 3084 3056 2656 
Q 3513 2228 3513 1497 
Q 3513 744 3044 326 
Q 2575 -91 1722 -91 
Q 1428 -91 1123 -41 
Q 819 9 494 109 
L 494 744 
Q 775 591 1075 516 
Q 1375 441 1709 441 
Q 2250 441 2565 725 
Q 2881 1009 2881 1497 
Q 2881 1984 2565 2268 
Q 2250 2553 1709 2553 
Q 1456 2553 1204 2497 
Q 953 2441 691 2322 
L 691 4666 
z
" transform="scale(0.015625)"/>
       </defs>
       <use xlink:href="#DejaVuSans-35"/>
      </g>
     </g>
    </g>
    <g id="xtick_7">
     <g id="line2d_13">
      <path d="M 404.399422 460.8 
L 404.399422 72.72 
" clip-path="url(#p2679fb7501)" style="fill: none; stroke: #2a2a4a; stroke-opacity: 0.3; stroke-width: 0.8; stroke-linecap: square"/>
     </g>
     <g id="line2d_14">
      <g>
       <use xlink:href="#mf0a9a7ba9c" x="404.399422" y="460.8" style="fill: #eaeaea; stroke: #eaeaea; stroke-width: 0.8"/>
      </g>
     </g>
     <g id="text_7">
      <!-- 6 -->
      <g style="fill: #eaeaea" transform="translate(400.581922 476.918125) scale(0.12 -0.12)">
       <defs>
        <path id="DejaVuSans-36" d="M 2113 2584 
Q 1688 2584 1439 2293 
Q 1191 2003 1191 1497 
Q 1191 994 1439 701 
Q 1688 409 2113 409 
Q 2538 409 2786 701 
Q 3034 994 3034 1497 
Q 3034 2003 2786 2293 
Q 2538 2584 2113 2584 
z
M 3366 4563 
L 3366 3988 
Q 3128 4100 2886 4159 
Q 2644 4219 2406 4219 
Q 1781 4219 1451 3797 
Q 1122 3375 1075 2522 
Q 1259 2794 1537 2939 
Q 1816 3084 2150 3084 
Q 2853 3084 3261 2657 
Q 3669 2231 3669 1497 
Q 3669 778 3244 343 
Q 2819 -91 2113 -91 
Q 1303 -91 875 529 
Q 447 1150 447 2328 
Q 447 3434 972 4092 
Q 1497 4750 2381 4750 
Q 2619 4750 2861 4703 
Q 3103 4656 3366 4563 
z
" transform="scale(0.015625)"/>
       </defs>
       <use xlink:href="#DejaVuSans-36"/>
      </g>
     </g>
    </g>
    <g id="text_8">
     <!-- Number of Half-Lives -->
     <g style="fill: #eaeaea" transform="translate(165.677211 492.531875) scale(0.12 -0.12)">
      <defs>
       <path id="DejaVuSans-4e" d="M 628 4666 
L 1478 4666 
L 3547 763 
L 3547 4666 
L 4159 4666 
L 4159 0 
L 3309 0 
L 1241 3903 
L 1241 0 
L 628 0 
L 628 4666 
z
" transform="scale(0.015625)"/>
       <path id="DejaVuSans-75" d="M 544 1381 
L 544 3500 
L 1119 3500 
L 1119 1403 
Q 1119 906 1312 657 
Q 1506 409 1894 409 
Q 2359 409 2629 706 
Q 2900 1003 2900 1516 
L 2900 3500 
L 3475 3500 
L 3475 0 
L 2900 0 
L 2900 538 
Q 2691 219 2414 64 
Q 2138 -91 1772 -91 
Q 1169 -91 856 284 
Q 544 659 544 1381 
z
M 1991 3584 
L 1991 3584 
z
" transform="scale(0.015625)"/>
       <path id="DejaVuSans-6d" d="M 3328 2828 
Q 3544 3216 3844 3400 
Q 4144 3584 4550 3584 
Q 5097 3584 5394 3201 
Q 5691 2819 5691 2113 
L 5691 0 
L 5113 0 
L 5113 2094 
Q 5113 2597 4934 2840 
Q 4756 3084 4391 3084 
Q 3944 3084 3684 2787 
Q 3425 2491 3425 1978 
L 3425 0 
L 2847 0 
L 2847 2094 
Q 2847 2600 2669 2842 
Q 2491 3084 2119 3084 
Q 1678 3084 1418 2786 
Q 1159 2488 1159 1978 
L 1159 0 
L 581 0 
L 581 3500 
L 1159 3500 
L 1159 2956 
Q 1356 3278 1631 3431 
Q 1906 3584 2284 3584 
Q 2666 3584 2933 3390 
Q 3200 3197 3328 2828 
z
" transform="scale(0.015625)"/>
       <path id="DejaVuSans-62" d="M 3116 1747 
Q 3116 2381 2855 2742 
Q 2594 3103 2138 3103 
Q 1681 3103 1420 2742 
Q 1159 2381 1159 1747 
Q 1159 1113 1420 752 
Q 1681 391 2138 391 
Q 2594 391 2855 752 
Q 3116 1113 3116 1747 
z
M 1159 2969 
Q 1341 3281 1617 3432 
Q 1894 3584 2278 3584 
Q 2916 3584 3314 3078 
Q 3713 2572 3713 1747 
Q 3713 922 3314 415 
Q 2916 -91 2278 -91 
Q 1894 -91 1617 61 
Q 1341 213 1159 525 
L 1159 0 
L 581 0 
L 581 4863 
L 1159 4863 
L 1159 2969 
z
" transform="scale(0.015625)"/>
       <path id="DejaVuSans-65" d="M 3597 1894 
L 3597 1613 
L 953 1613 
Q 991 1019 1311 708 
Q 1631 397 2203 397 
Q 2534 397 2845 478 
Q 3156 559 3463 722 
L 3463 178 
Q 3153 47 2828 -22 
Q 2503 -91 2169 -91 
Q 1331 -91 842 396 
Q 353 884 353 1716 
Q 353 2575 817 3079 
Q 1281 3584 2069 3584 
Q 2775 3584 3186 3129 
Q 3597 2675 3597 1894 
z
M 3022 2063 
Q 3016 2534 2758 2815 
Q 2500 3097 2075 3097 
Q 1594 3097 1305 2825 
Q 1016 2553 972 2059 
L 3022 2063 
z
" transform="scale(0.015625)"/>
       <path id="DejaVuSans-72" d="M 2631 2963 
Q 2534 3019 2420 3045 
Q 2306 3072 2169 3072 
Q 1681 3072 1420 2755 
Q 1159 2438 1159 1844 
L 1159 0 
L 581 0 
L 581 3500 
L 1159 3500 
L 1159 2956 
Q 1341 3275 1631 3429 
Q 1922 3584 2338 3584 
Q 2397 3584 2469 3576 
Q 2541 3569 2628 3553 
L 2631 2963 
z
" transform="scale(0.015625)"/>
       <path id="DejaVuSans-20" transform="scale(0.015625)"/>
       <path id="DejaVuSans-6f" d="M 1959 3097 
Q 1497 3097 1228 2736 
Q 959 2375 959 1747 
Q 959 1119 1226 758 
Q 1494 397 1959 397 
Q 2419 397 2687 759 
Q 2956 1122 2956 1747 
Q 2956 2369 2687 2733 
Q 2419 3097 1959 3097 
z
M 1959 3584 
Q 2709 3584 3137 3096 
Q 3566 2609 3566 1747 
Q 3566 888 3137 398 
Q 2709 -91 1959 -91 
Q 1206 -91 779 398 
Q 353 888 353 1747 
Q 353 2609 779 3096 
Q 1206 3584 1959 3584 
z
" transform="scale(0.015625)"/>
       <path id="DejaVuSans-66" d="M 2375 4863 
L 2375 4384 
L 1825 4384 
Q 1516 4384 1395 4259 
Q 1275 4134 1275 3809 
L 1275 3500 
L 2222 3500 
L 2222 3053 
L 1275 3053 
L 1275 0 
L 697 0 
L 697 3053 
L 147 3053 
L 147 3500 
L 697 3500 
L 697 3744 
Q 697 4328 969 4595 
Q 1241 4863 1831 4863 
L 2375 4863 
z
" transform="scale(0.015625)"/>
       <path id="DejaVuSans-48" d="M 628 4666 
L 1259 4666 
L 1259 2753 
L 3553 2753 
L 3553 4666 
L 4184 4666 
L 4184 0 
L 3553 0 
L 3553 2222 
L 1259 2222 
L 1259 0 
L 628 0 
L 628 4666 
z
" transform="scale(0.015625)"/>
       <path id="DejaVuSans-61" d="M 2194 1759 
Q 1497 1759 1228 1600 
Q 959 1441 959 1056 
Q 959 750 1161 570 
Q 1363 391 1709 391 
Q 2188 391 2477 730 
Q 2766 1069 2766 1631 
L 2766 1759 
L 2194 1759 
z
M 3341 1997 
L 3341 0 
L 2766 0 
L 2766 531 
Q 2569 213 2275 61 
Q 1981 -91 1556 -91 
Q 1019 -91 701 211 
Q 384 513 384 1019 
Q 384 1609 779 1909 
Q 1175 2209 1959 2209 
L 2766 2209 
L 2766 2266 
Q 2766 2663 2505 2880 
Q 2244 3097 1772 3097 
Q 1472 3097 1187 3025 
Q 903 2953 641 2809 
L 641 3341 
Q 956 3463 1253 3523 
Q 1550 3584 1831 3584 
Q 2591 3584 2966 3190 
Q 3341 2797 3341 1997 
z
" transform="scale(0.015625)"/>
       <path id="DejaVuSans-6c" d="M 603 4863 
L 1178 4863 
L 1178 0 
L 603 0 
L 603 4863 
z
" transform="scale(0.015625)"/>
       <path id="DejaVuSans-2d" d="M 313 2009 
L 1997 2009 
L 1997 1497 
L 313 1497 
L 313 2009 
z
" transform="scale(0.015625)"/>
       <path id="DejaVuSans-4c" d="M 628 4666 
L 1259 4666 
L 1259 531 
L 3531 531 
L 3531 0 
L 628 0 
L 628 4666 
z
" transform="scale(0.015625)"/>
       <path id="DejaVuSans-69" d="M 603 3500 
L 1178 3500 
L 1178 0 
L 603 0 
L 603 3500 
z
M 603 4863 
L 1178 4863 
L 1178 4134 
L 603 4134 
L 603 4863 
z
" transform="scale(0.015625)"/>
       <path id="DejaVuSans-76" d="M 191 3500 
L 800 3500 
L 1894 563 
L 2988 3500 
L 3597 3500 
L 2284 0 
L 1503 0 
L 191 3500 
z
" transform="scale(0.015625)"/>
       <path id="DejaVuSans-73" d="M 2834 3397 
L 2834 2853 
Q 2591 2978 2328 3040 
Q 2066 3103 1784 3103 
Q 1356 3103 1142 2972 
Q 928 2841 928 2578 
Q 928 2378 1081 2264 
Q 1234 2150 1697 2047 
L 1894 2003 
Q 2506 1872 2764 1633 
Q 3022 1394 3022 966 
Q 3022 478 2636 193 
Q 2250 -91 1575 -91 
Q 1294 -91 989 -36 
Q 684 19 347 128 
L 347 722 
Q 666 556 975 473 
Q 1284 391 1588 391 
Q 1994 391 2212 530 
Q 2431 669 2431 922 
Q 2431 1156 2273 1281 
Q 2116 1406 1581 1522 
L 1381 1569 
Q 847 1681 609 1914 
Q 372 2147 372 2553 
Q 372 3047 722 3315 
Q 1072 3584 1716 3584 
Q 2034 3584 2315 3537 
Q 2597 3491 2834 3397 
z
" transform="scale(0.015625)"/>
      </defs>
      <use xlink:href="#DejaVuSans-4e"/>
      <use xlink:href="#DejaVuSans-75" transform="translate(74.804688 0)"/>
      <use xlink:href="#DejaVuSans-6d" transform="translate(138.183594 0)"/>
      <use xlink:href="#DejaVuSans-62" transform="translate(235.595703 0)"/>
      <use xlink:href="#DejaVuSans-65" transform="translate(299.072266 0)"/>
      <use xlink:href="#DejaVuSans-72" transform="translate(360.595703 0)"/>
      <use xlink:href="#DejaVuSans-20" transform="translate(401.708984 0)"/>
      <use xlink:href="#DejaVuSans-6f" transform="translate(433.496094 0)"/>
      <use xlink:href="#DejaVuSans-66" transform="translate(494.677734 0)"/>
      <use xlink:href="#DejaVuSans-20" transform="translate(529.882812 0)"/>
      <use xlink:href="#DejaVuSans-48" transform="translate(561.669922 0)"/>
      <use xlink:href="#DejaVuSans-61" transform="translate(636.865234 0)"/>
      <use xlink:href="#DejaVuSans-6c" transform="translate(698.144531 0)"/>
      <use xlink:href="#DejaVuSans-66" transform="translate(725.927734 0)"/>
      <use xlink:href="#DejaVuSans-2d" transform="translate(755.632812 0)"/>
      <use xlink:href="#DejaVuSans-4c" transform="translate(791.716797 0)"/>
      <use xlink:href="#DejaVuSans-69" transform="translate(847.429688 0)"/>
      <use xlink:href="#DejaVuSans-76" transform="translate(875.212891 0)"/>
      <use xlink:href="#DejaVuSans-65" transform="translate(934.392578 0)"/>
      <use xlink:href="#DejaVuSans-73" transform="translate(995.916016 0)"/>
     </g>
    </g>
   </g>
   <g id="matplotlib.axis_2">
    <g id="ytick_1">
     <g id="line2d_15">
      <path d="M 52.71875 460.8 
L 404.399422 460.8 
" clip-path="url(#p2679fb7501)" style="fill: none; stroke: #2a2a4a; stroke-opacity: 0.3; stroke-width: 0.8; stroke-linecap: square"/>
     </g>
     <g id="line2d_16">
      <defs>
       <path id="m40eb4fa3b8" d="M 0 0 
L -3.5 0 
" style="stroke: #eaeaea; stroke-width: 0.8"/>
      </defs>
      <g>
       <use xlink:href="#m40eb4fa3b8" x="52.71875" y="460.8" style="fill: #eaeaea; stroke: #eaeaea; stroke-width: 0.8"/>
      </g>
     </g>
     <g id="text_9">
      <!-- 0 -->
      <g style="fill: #eaeaea" transform="translate(38.08375 465.359063) scale(0.12 -0.12)">
       <use xlink:href="#DejaVuSans-30"/>
      </g>
     </g>
    </g>
    <g id="ytick_2">
     <g id="line2d_17">
      <path d="M 52.71875 386.88 
L 404.399422 386.88 
" clip-path="url(#p2679fb7501)" style="fill: none; stroke: #2a2a4a; stroke-opacity: 0.3; stroke-width: 0.8; stroke-linecap: square"/>
     </g>
     <g id="line2d_18">
      <g>
       <use xlink:href="#m40eb4fa3b8" x="52.71875" y="386.88" style="fill: #eaeaea; stroke: #eaeaea; stroke-width: 0.8"/>
      </g>
     </g>
     <g id="text_10">
      <!-- 20 -->
      <g style="fill: #eaeaea" transform="translate(30.44875 391.439063) scale(0.12 -0.12)">
       <use xlink:href="#DejaVuSans-32"/>
       <use xlink:href="#DejaVuSans-30" transform="translate(63.623047 0)"/>
      </g>
     </g>
    </g>
    <g id="ytick_3">
     <g id="line2d_19">
      <path d="M 52.71875 312.96 
L 404.399422 312.96 
" clip-path="url(#p2679fb7501)" style="fill: none; stroke: #2a2a4a; stroke-opacity: 0.3; stroke-width: 0.8; stroke-linecap: square"/>
     </g>
     <g id="line2d_20">
      <g>
       <use xlink:href="#m40eb4fa3b8" x="52.71875" y="312.96" style="fill: #eaeaea; stroke: #eaeaea; stroke-width: 0.8"/>
      </g>
     </g>
     <g id="text_11">
      <!-- 40 -->
      <g style="fill: #eaeaea" transform="translate(30.44875 317.519063) scale(0.12 -0.12)">
       <use xlink:href="#DejaVuSans-34"/>
       <use xlink:href="#DejaVuSans-30" transform="translate(63.623047 0)"/>
      </g>
     </g>
    </g>
    <g id="ytick_4">
     <g id="line2d_21">
      <path d="M 52.71875 239.04 
L 404.399422 239.04 
" clip-path="url(#p2679fb7501)" style="fill: none; stroke: #2a2a4a; stroke-opacity: 0.3; stroke-width: 0.8; stroke-linecap: square"/>
     </g>
     <g id="line2d_22">
      <g>
       <use xlink:href="#m40eb4fa3b8" x="52.71875" y="239.04" style="fill: #eaeaea; stroke: #eaeaea; stroke-width: 0.8"/>
      </g>
     </g>
     <g id="text_12">
      <!-- 60 -->
      <g style="fill: #eaeaea" transform="translate(30.44875 243.599063) scale(0.12 -0.12)">
       <use xlink:href="#DejaVuSans-36"/>
       <use xlink:href="#DejaVuSans-30" transform="translate(63.623047 0)"/>
      </g>
     </g>
    </g>
    <g id="ytick_5">
     <g id="line2d_23">
      <path d="M 52.71875 165.12 
L 404.399422 165.12 
" clip-path="url(#p2679fb7501)" style="fill: none; stroke: #2a2a4a; stroke-opacity: 0.3; stroke-width: 0.8; stroke-linecap: square"/>
     </g>
     <g id="line2d_24">
      <g>
       <use xlink:href="#m40eb4fa3b8" x="52.71875" y="165.12" style="fill: #eaeaea; stroke: #eaeaea; stroke-width: 0.8"/>
      </g>
     </g>
     <g id="text_13">
      <!-- 80 -->
      <g style="fill: #eaeaea" transform="translate(30.44875 169.679062) scale(0.12 -0.12)">
       <defs>
        <path id="DejaVuSans-38" d="M 2034 2216 
Q 1584 2216 1326 1975 
Q 1069 1734 1069 1313 
Q 1069 891 1326 650 
Q 1584 409 2034 409 
Q 2484 409 2743 651 
Q 3003 894 3003 1313 
Q 3003 1734 2745 1975 
Q 2488 2216 2034 2216 
z
M 1403 2484 
Q 997 2584 770 2862 
Q 544 3141 544 3541 
Q 544 4100 942 4425 
Q 1341 4750 2034 4750 
Q 2731 4750 3128 4425 
Q 3525 4100 3525 3541 
Q 3525 3141 3298 2862 
Q 3072 2584 2669 2484 
Q 3125 2378 3379 2068 
Q 3634 1759 3634 1313 
Q 3634 634 3220 271 
Q 2806 -91 2034 -91 
Q 1263 -91 848 271 
Q 434 634 434 1313 
Q 434 1759 690 2068 
Q 947 2378 1403 2484 
z
M 1172 3481 
Q 1172 3119 1398 2916 
Q 1625 2713 2034 2713 
Q 2441 2713 2670 2916 
Q 2900 3119 2900 3481 
Q 2900 3844 2670 4047 
Q 2441 4250 2034 4250 
Q 1625 4250 1398 4047 
Q 1172 3844 1172 3481 
z
" transform="scale(0.015625)"/>
       </defs>
       <use xlink:href="#DejaVuSans-38"/>
       <use xlink:href="#DejaVuSans-30" transform="translate(63.623047 0)"/>
      </g>
     </g>
    </g>
    <g id="ytick_6">
     <g id="line2d_25">
      <path d="M 52.71875 91.2 
L 404.399422 91.2 
" clip-path="url(#p2679fb7501)" style="fill: none; stroke: #2a2a4a; stroke-opacity: 0.3; stroke-width: 0.8; stroke-linecap: square"/>
     </g>
     <g id="line2d_26">
      <g>
       <use xlink:href="#m40eb4fa3b8" x="52.71875" y="91.2" style="fill: #eaeaea; stroke: #eaeaea; stroke-width: 0.8"/>
      </g>
     </g>
     <g id="text_14">
      <!-- 100 -->
      <g style="fill: #eaeaea" transform="translate(22.81375 95.759062) scale(0.12 -0.12)">
       <use xlink:href="#DejaVuSans-31"/>
       <use xlink:href="#DejaVuSans-30" transform="translate(63.623047 0)"/>
       <use xlink:href="#DejaVuSans-30" transform="translate(127.246094 0)"/>
      </g>
     </g>
    </g>
    <g id="text_15">
     <!-- Remaining Amount (%) -->
     <g style="fill: #eaeaea" transform="translate(16.318125 336.39375) rotate(-90) scale(0.12 -0.12)">
      <defs>
       <path id="DejaVuSans-52" d="M 2841 2188 
Q 3044 2119 3236 1894 
Q 3428 1669 3622 1275 
L 4263 0 
L 3584 0 
L 2988 1197 
Q 2756 1666 2539 1819 
Q 2322 1972 1947 1972 
L 1259 1972 
L 1259 0 
L 628 0 
L 628 4666 
L 2053 4666 
Q 2853 4666 3247 4331 
Q 3641 3997 3641 3322 
Q 3641 2881 3436 2590 
Q 3231 2300 2841 2188 
z
M 1259 4147 
L 1259 2491 
L 2053 2491 
Q 2509 2491 2742 2702 
Q 2975 2913 2975 3322 
Q 2975 3731 2742 3939 
Q 2509 4147 2053 4147 
L 1259 4147 
z
" transform="scale(0.015625)"/>
       <path id="DejaVuSans-6e" d="M 3513 2113 
L 3513 0 
L 2938 0 
L 2938 2094 
Q 2938 2591 2744 2837 
Q 2550 3084 2163 3084 
Q 1697 3084 1428 2787 
Q 1159 2491 1159 1978 
L 1159 0 
L 581 0 
L 581 3500 
L 1159 3500 
L 1159 2956 
Q 1366 3272 1645 3428 
Q 1925 3584 2291 3584 
Q 2894 3584 3203 3211 
Q 3513 2838 3513 2113 
z
" transform="scale(0.015625)"/>
       <path id="DejaVuSans-67" d="M 2906 1791 
Q 2906 2416 2648 2759 
Q 2391 3103 1925 3103 
Q 1463 3103 1205 2759 
Q 947 2416 947 1791 
Q 947 1169 1205 825 
Q 1463 481 1925 481 
Q 2391 481 2648 825 
Q 2906 1169 2906 1791 
z
M 3481 434 
Q 3481 -459 3084 -895 
Q 2688 -1331 1869 -1331 
Q 1566 -1331 1297 -1286 
Q 1028 -1241 775 -1147 
L 775 -588 
Q 1028 -725 1275 -790 
Q 1522 -856 1778 -856 
Q 2344 -856 2625 -561 
Q 2906 -266 2906 331 
L 2906 616 
Q 2728 306 2450 153 
Q 2172 0 1784 0 
Q 1141 0 747 490 
Q 353 981 353 1791 
Q 353 2603 747 3093 
Q 1141 3584 1784 3584 
Q 2172 3584 2450 3431 
Q 2728 3278 2906 2969 
L 2906 3500 
L 3481 3500 
L 3481 434 
z
" transform="scale(0.015625)"/>
       <path id="DejaVuSans-41" d="M 2188 4044 
L 1331 1722 
L 3047 1722 
L 2188 4044 
z
M 1831 4666 
L 2547 4666 
L 4325 0 
L 3669 0 
L 3244 1197 
L 1141 1197 
L 716 0 
L 50 0 
L 1831 4666 
z
" transform="scale(0.015625)"/>
       <path id="DejaVuSans-74" d="M 1172 4494 
L 1172 3500 
L 2356 3500 
L 2356 3053 
L 1172 3053 
L 1172 1153 
Q 1172 725 1289 603 
Q 1406 481 1766 481 
L 2356 481 
L 2356 0 
L 1766 0 
Q 1100 0 847 248 
Q 594 497 594 1153 
L 594 3053 
L 172 3053 
L 172 3500 
L 594 3500 
L 594 4494 
L 1172 4494 
z
" transform="scale(0.015625)"/>
       <path id="DejaVuSans-28" d="M 1984 4856 
Q 1566 4138 1362 3434 
Q 1159 2731 1159 2009 
Q 1159 1288 1364 580 
Q 1569 -128 1984 -844 
L 1484 -844 
Q 1016 -109 783 600 
Q 550 1309 550 2009 
Q 550 2706 781 3412 
Q 1013 4119 1484 4856 
L 1984 4856 
z
" transform="scale(0.015625)"/>
       <path id="DejaVuSans-25" d="M 4653 2053 
Q 4381 2053 4226 1822 
Q 4072 1591 4072 1178 
Q 4072 772 4226 539 
Q 4381 306 4653 306 
Q 4919 306 5073 539 
Q 5228 772 5228 1178 
Q 5228 1588 5073 1820 
Q 4919 2053 4653 2053 
z
M 4653 2450 
Q 5147 2450 5437 2106 
Q 5728 1763 5728 1178 
Q 5728 594 5436 251 
Q 5144 -91 4653 -91 
Q 4153 -91 3862 251 
Q 3572 594 3572 1178 
Q 3572 1766 3864 2108 
Q 4156 2450 4653 2450 
z
M 1428 4353 
Q 1159 4353 1004 4120 
Q 850 3888 850 3481 
Q 850 3069 1003 2837 
Q 1156 2606 1428 2606 
Q 1700 2606 1854 2837 
Q 2009 3069 2009 3481 
Q 2009 3884 1853 4118 
Q 1697 4353 1428 4353 
z
M 4250 4750 
L 4750 4750 
L 1831 -91 
L 1331 -91 
L 4250 4750 
z
M 1428 4750 
Q 1922 4750 2215 4408 
Q 2509 4066 2509 3481 
Q 2509 2891 2217 2550 
Q 1925 2209 1428 2209 
Q 931 2209 642 2551 
Q 353 2894 353 3481 
Q 353 4063 643 4406 
Q 934 4750 1428 4750 
z
" transform="scale(0.015625)"/>
       <path id="DejaVuSans-29" d="M 513 4856 
L 1013 4856 
Q 1481 4119 1714 3412 
Q 1947 2706 1947 2009 
Q 1947 1309 1714 600 
Q 1481 -109 1013 -844 
L 513 -844 
Q 928 -128 1133 580 
Q 1338 1288 1338 2009 
Q 1338 2731 1133 3434 
Q 928 4138 513 4856 
z
" transform="scale(0.015625)"/>
      </defs>
      <use xlink:href="#DejaVuSans-52"/>
      <use xlink:href="#DejaVuSans-65" transform="translate(64.982422 0)"/>
      <use xlink:href="#DejaVuSans-6d" transform="translate(126.505859 0)"/>
      <use xlink:href="#DejaVuSans-61" transform="translate(223.917969 0)"/>
      <use xlink:href="#DejaVuSans-69" transform="translate(285.197266 0)"/>
      <use xlink:href="#DejaVuSans-6e" transform="translate(312.980469 0)"/>
      <use xlink:href="#DejaVuSans-69" transform="translate(376.359375 0)"/>
      <use xlink:href="#DejaVuSans-6e" transform="translate(404.142578 0)"/>
      <use xlink:href="#DejaVuSans-67" transform="translate(467.521484 0)"/>
      <use xlink:href="#DejaVuSans-20" transform="translate(530.998047 0)"/>
      <use xlink:href="#DejaVuSans-41" transform="translate(562.785156 0)"/>
      <use xlink:href="#DejaVuSans-6d" transform="translate(631.193359 0)"/>
      <use xlink:href="#DejaVuSans-6f" transform="translate(728.605469 0)"/>
      <use xlink:href="#DejaVuSans-75" transform="translate(789.787109 0)"/>
      <use xlink:href="#DejaVuSans-6e" transform="translate(853.166016 0)"/>
      <use xlink:href="#DejaVuSans-74" transform="translate(916.544922 0)"/>
      <use xlink:href="#DejaVuSans-20" transform="translate(955.753906 0)"/>
      <use xlink:href="#DejaVuSans-28" transform="translate(987.541016 0)"/>
      <use xlink:href="#DejaVuSans-25" transform="translate(1026.554688 0)"/>
      <use xlink:href="#DejaVuSans-29" transform="translate(1121.574219 0)"/>
     </g>
    </g>
   </g>
   <g id="line2d_27">
    <path d="M 52.71875 91.2 
L 57.415654 111.169462 
L 62.112558 130.059975 
L 66.809461 147.929835 
L 71.506365 164.834188 
L 76.203269 180.8252 
L 80.900173 195.952219 
L 85.597077 210.261926 
L 90.29398 223.79848 
L 94.990884 236.603656 
L 99.687788 248.716968 
L 104.384692 260.1758 
L 109.081596 271.015511 
L 113.778499 281.269554 
L 118.475403 290.969571 
L 123.172307 300.145497 
L 127.869211 308.825649 
L 132.566115 317.036812 
L 137.263018 324.804327 
L 141.959922 332.152164 
L 146.656826 339.102997 
L 151.35373 345.678278 
L 156.050634 351.898296 
L 160.747537 357.782248 
L 166.031554 364.022557 
L 171.315571 369.88486 
L 176.599588 375.392053 
L 181.883605 380.565647 
L 187.167621 385.425851 
L 192.451638 389.991647 
L 197.735655 394.280869 
L 203.606785 398.742638 
L 209.477914 402.905134 
L 215.349044 406.78843 
L 221.220174 410.411255 
L 227.091304 413.791078 
L 233.549546 417.247638 
L 240.007789 420.450038 
L 246.466032 423.416966 
L 253.511388 426.40537 
L 260.556743 429.154881 
L 268.189212 431.886045 
L 275.821681 434.381493 
L 284.041262 436.828583 
L 292.260844 439.049003 
L 301.067539 441.200307 
L 310.461346 443.261031 
L 320.442267 445.213682 
L 331.0103 447.044776 
L 342.165447 448.744742 
L 353.907706 450.307717 
L 366.824192 451.793982 
L 380.32779 453.123198 
L 395.005615 454.346472 
L 404.399422 455.025 
L 404.399422 455.025 
" clip-path="url(#p2679fb7501)" style="fill: none; stroke: #ffd700; stroke-width: 2.5; stroke-linecap: square"/>
   </g>
   <g id="line2d_28">
    <path d="M 52.71875 91.2 
L 57.415654 111.169462 
L 62.112558 130.059975 
L 66.809461 147.929835 
L 71.506365 164.834188 
L 76.203269 180.8252 
L 80.900173 195.952219 
L 85.597077 210.261926 
L 90.29398 223.79848 
L 94.990884 236.603656 
L 99.687788 248.716968 
L 104.384692 260.1758 
L 109.081596 271.015511 
L 113.778499 281.269554 
L 118.475403 290.969571 
L 123.172307 300.145497 
L 127.869211 308.825649 
L 132.566115 317.036812 
L 137.263018 324.804327 
L 141.959922 332.152164 
L 146.656826 339.102997 
L 151.35373 345.678278 
L 156.050634 351.898296 
L 160.747537 357.782248 
L 166.031554 364.022557 
L 171.315571 369.88486 
L 176.599588 375.392053 
L 181.883605 380.565647 
L 187.167621 385.425851 
L 192.451638 389.991647 
L 197.735655 394.280869 
L 203.606785 398.742638 
L 209.477914 402.905134 
L 215.349044 406.78843 
L 221.220174 410.411255 
L 227.091304 413.791078 
L 233.549546 417.247638 
L 240.007789 420.450038 
L 246.466032 423.416966 
L 253.511388 426.40537 
L 260.556743 429.154881 
L 268.189212 431.886045 
L 275.821681 434.381493 
L 284.041262 436.828583 
L 292.260844 439.049003 
L 301.067539 441.200307 
L 310.461346 443.261031 
L 320.442267 445.213682 
L 331.0103 447.044776 
L 342.165447 448.744742 
L 353.907706 450.307717 
L 366.824192 451.793982 
L 380.32779 453.123198 
L 395.005615 454.346472 
L 404.399422 455.025 
L 404.399422 455.025 
" clip-path="url(#p2679fb7501)" style="fill: none; stroke: #00d2ff; stroke-width: 2.5; stroke-linecap: square"/>
   </g>
   <g id="line2d_29">
    <path d="M 52.71875 91.2 
L 57.415654 111.169462 
L 62.112558 130.059975 
L 66.809461 147.929835 
L 71.506365 164.834188 
L 76.203269 180.8252 
L 80.900173 195.952219 
L 85.597077 210.261926 
L 90.29398 223.79848 
L 94.990884 236.603656 
L 99.687788 248.716968 
L 104.384692 260.1758 
L 109.081596 271.015511 
L 113.778499 281.269554 
L 118.475403 290.969571 
L 123.172307 300.145497 
L 127.869211 308.825649 
L 132.566115 317.036812 
L 137.263018 324.804327 
L 141.959922 332.152164 
L 146.656826 339.102997 
L 151.35373 345.678278 
L 156.050634 351.898296 
L 160.747537 357.782248 
L 166.031554 364.022557 
L 171.315571 369.88486 
L 176.599588 375.392053 
L 181.883605 380.565647 
L 187.167621 385.425851 
L 192.451638 389.991647 
L 197.735655 394.280869 
L 203.606785 398.742638 
L 209.477914 402.905134 
L 215.349044 406.78843 
L 221.220174 410.411255 
L 227.091304 413.791078 
L 233.549546 417.247638 
L 240.007789 420.450038 
L 246.466032 423.416966 
L 253.511388 426.40537 
L 260.556743 429.154881 
L 268.189212 431.886045 
L 275.821681 434.381493 
L 284.041262 436.828583 
L 292.260844 439.049003 
L 301.067539 441.200307 
L 310.461346 443.261031 
L 320.442267 445.213682 
L 331.0103 447.044776 
L 342.165447 448.744742 
L 353.907706 450.307717 
L 366.824192 451.793982 
L 380.32779 453.123198 
L 395.005615 454.346472 
L 404.399422 455.025 
L 404.399422 455.025 
" clip-path="url(#p2679fb7501)" style="fill: none; stroke: #ff6b9d; stroke-width: 2.5; stroke-linecap: square"/>
   </g>
   <g id="line2d_30">
    <path d="M 111.332195 460.8 
L 111.332195 72.72 
" clip-path="url(#p2679fb7501)" style="fill: none; stroke-dasharray: 1,1.65; stroke-dashoffset: 0; stroke: #2a2a4a; stroke-opacity: 0.6"/>
   </g>
   <g id="line2d_31">
    <path d="M 169.945641 460.8 
L 169.945641 72.72 
" clip-path="url(#p2679fb7501)" style="fill: none; stroke-dasharray: 1,1.65; stroke-dashoffset: 0; stroke: #2a2a4a; stroke-opacity: 0.6"/>
   </g>
   <g id="line2d_32">
    <path d="M 228.559086 460.8 
L 228.559086 72.72 
" clip-path="url(#p2679fb7501)" style="fill: none; stroke-dasharray: 1,1.65; stroke-dashoffset: 0; stroke: #2a2a4a; stroke-opacity: 0.6"/>
   </g>
   <g id="line2d_33">
    <path d="M 287.172532 460.8 
L 287.172532 72.72 
" clip-path="url(#p2679fb7501)" style="fill: none; stroke-dasharray: 1,1.65; stroke-dashoffset: 0; stroke: #2a2a4a; stroke-opacity: 0.6"/>
   </g>
   <g id="line2d_34">
    <path d="M 345.785977 460.8 
L 345.785977 72.72 
" clip-path="url(#p2679fb7501)" style="fill: none; stroke-dasharray: 1,1.65; stroke-dashoffset: 0; stroke: #2a2a4a; stroke-opacity: 0.6"/>
   </g>
   <g id="line2d_35">
    <path d="M 404.399422 460.8 
L 404.399422 72.72 
" clip-path="url(#p2679fb7501)" style="fill: none; stroke-dasharray: 1,1.65; stroke-dashoffset: 0; stroke: #2a2a4a; stroke-opacity: 0.6"/>
   </g>
   <g id="line2d_36">
    <path d="M 52.71875 276 
L 404.399422 276 
" clip-path="url(#p2679fb7501)" style="fill: none; stroke-dasharray: 5.55,2.4; stroke-dashoffset: 0; stroke: #e74c3c; stroke-opacity: 0.8; stroke-width: 1.5"/>
   </g>
   <g id="patch_3">
    <path d="M 52.71875 460.8 
L 52.71875 72.72 
" style="fill: none; stroke: #2a2a4a; stroke-width: 0.8; stroke-linejoin: miter; stroke-linecap: square"/>
   </g>
   <g id="patch_4">
    <path d="M 404.399422 460.8 
L 404.399422 72.72 
" style="fill: none; stroke: #2a2a4a; stroke-width: 0.8; stroke-linejoin: miter; stroke-linecap: square"/>
   </g>
   <g id="patch_5">
    <path d="M 52.71875 460.8 
L 404.399422 460.8 
" style="fill: none; stroke: #2a2a4a; stroke-width: 0.8; stroke-linejoin: miter; stroke-linecap: square"/>
   </g>
   <g id="patch_6">
    <path d="M 52.71875 72.72 
L 404.399422 72.72 
" style="fill: none; stroke: #2a2a4a; stroke-width: 0.8; stroke-linejoin: miter; stroke-linecap: square"/>
   </g>
   <g id="text_16">
    <!-- $n=1$ -->
    <g style="fill: #eaeaea; opacity: 0.7" transform="translate(114.262868 109.68) scale(0.08 -0.08)">
     <defs>
      <path id="DejaVuSans-Oblique-6e" d="M 3566 2113 
L 3156 0 
L 2578 0 
L 2988 2091 
Q 3016 2238 3031 2350 
Q 3047 2463 3047 2528 
Q 3047 2791 2881 2937 
Q 2716 3084 2419 3084 
Q 1956 3084 1622 2776 
Q 1288 2469 1184 1941 
L 800 0 
L 225 0 
L 903 3500 
L 1478 3500 
L 1363 2950 
Q 1603 3253 1940 3418 
Q 2278 3584 2650 3584 
Q 3113 3584 3367 3334 
Q 3622 3084 3622 2631 
Q 3622 2519 3608 2391 
Q 3594 2263 3566 2113 
z
" transform="scale(0.015625)"/>
      <path id="DejaVuSans-3d" d="M 678 2906 
L 4684 2906 
L 4684 2381 
L 678 2381 
L 678 2906 
z
M 678 1631 
L 4684 1631 
L 4684 1100 
L 678 1100 
L 678 1631 
z
" transform="scale(0.015625)"/>
     </defs>
     <use xlink:href="#DejaVuSans-Oblique-6e" transform="translate(0 0.09375)"/>
     <use xlink:href="#DejaVuSans-3d" transform="translate(82.861328 0.09375)"/>
     <use xlink:href="#DejaVuSans-31" transform="translate(186.132812 0.09375)"/>
    </g>
   </g>
   <g id="text_17">
    <!-- $n=2$ -->
    <g style="fill: #eaeaea; opacity: 0.7" transform="translate(172.876313 109.68) scale(0.08 -0.08)">
     <use xlink:href="#DejaVuSans-Oblique-6e" transform="translate(0 0.78125)"/>
     <use xlink:href="#DejaVuSans-3d" transform="translate(82.861328 0.78125)"/>
     <use xlink:href="#DejaVuSans-32" transform="translate(186.132812 0.78125)"/>
    </g>
   </g>
   <g id="text_18">
    <!-- $n=3$ -->
    <g style="fill: #eaeaea; opacity: 0.7" transform="translate(231.489758 109.68) scale(0.08 -0.08)">
     <use xlink:href="#DejaVuSans-Oblique-6e" transform="translate(0 0.78125)"/>
     <use xlink:href="#DejaVuSans-3d" transform="translate(82.861328 0.78125)"/>
     <use xlink:href="#DejaVuSans-33" transform="translate(186.132812 0.78125)"/>
    </g>
   </g>
   <g id="text_19">
    <!-- $n=4$ -->
    <g style="fill: #eaeaea; opacity: 0.7" transform="translate(290.103204 109.68) scale(0.08 -0.08)">
     <use xlink:href="#DejaVuSans-Oblique-6e" transform="translate(0 0.09375)"/>
     <use xlink:href="#DejaVuSans-3d" transform="translate(82.861328 0.09375)"/>
     <use xlink:href="#DejaVuSans-34" transform="translate(186.132812 0.09375)"/>
    </g>
   </g>
   <g id="text_20">
    <!-- $n=5$ -->
    <g style="fill: #eaeaea; opacity: 0.7" transform="translate(348.716649 109.68) scale(0.08 -0.08)">
     <use xlink:href="#DejaVuSans-Oblique-6e" transform="translate(0 0.09375)"/>
     <use xlink:href="#DejaVuSans-3d" transform="translate(82.861328 0.09375)"/>
     <use xlink:href="#DejaVuSans-35" transform="translate(186.132812 0.09375)"/>
    </g>
   </g>
   <g id="text_21">
    <!-- $n=6$ -->
    <g style="fill: #eaeaea; opacity: 0.7" transform="translate(407.330095 109.68) scale(0.08 -0.08)">
     <use xlink:href="#DejaVuSans-Oblique-6e" transform="translate(0 0.78125)"/>
     <use xlink:href="#DejaVuSans-3d" transform="translate(82.861328 0.78125)"/>
     <use xlink:href="#DejaVuSans-36" transform="translate(186.132812 0.78125)"/>
    </g>
   </g>
   <g id="text_22">
    <!-- Decay in Half-Life Units -->
    <g style="fill: #eaeaea" transform="translate(135.246586 44.8035) scale(0.16 -0.16)">
     <defs>
      <path id="DejaVuSans-44" d="M 1259 4147 
L 1259 519 
L 2022 519 
Q 2988 519 3436 956 
Q 3884 1394 3884 2338 
Q 3884 3275 3436 3711 
Q 2988 4147 2022 4147 
L 1259 4147 
z
M 628 4666 
L 1925 4666 
Q 3281 4666 3915 4102 
Q 4550 3538 4550 2338 
Q 4550 1131 3912 565 
Q 3275 0 1925 0 
L 628 0 
L 628 4666 
z
" transform="scale(0.015625)"/>
      <path id="DejaVuSans-63" d="M 3122 3366 
L 3122 2828 
Q 2878 2963 2633 3030 
Q 2388 3097 2138 3097 
Q 1578 3097 1268 2742 
Q 959 2388 959 1747 
Q 959 1106 1268 751 
Q 1578 397 2138 397 
Q 2388 397 2633 464 
Q 2878 531 3122 666 
L 3122 134 
Q 2881 22 2623 -34 
Q 2366 -91 2075 -91 
Q 1284 -91 818 406 
Q 353 903 353 1747 
Q 353 2603 823 3093 
Q 1294 3584 2113 3584 
Q 2378 3584 2631 3529 
Q 2884 3475 3122 3366 
z
" transform="scale(0.015625)"/>
      <path id="DejaVuSans-79" d="M 2059 -325 
Q 1816 -950 1584 -1140 
Q 1353 -1331 966 -1331 
L 506 -1331 
L 506 -850 
L 844 -850 
Q 1081 -850 1212 -737 
Q 1344 -625 1503 -206 
L 1606 56 
L 191 3500 
L 800 3500 
L 1894 763 
L 2988 3500 
L 3597 3500 
L 2059 -325 
z
" transform="scale(0.015625)"/>
      <path id="DejaVuSans-55" d="M 556 4666 
L 1191 4666 
L 1191 1831 
Q 1191 1081 1462 751 
Q 1734 422 2344 422 
Q 2950 422 3222 751 
Q 3494 1081 3494 1831 
L 3494 4666 
L 4128 4666 
L 4128 1753 
Q 4128 841 3676 375 
Q 3225 -91 2344 -91 
Q 1459 -91 1007 375 
Q 556 841 556 1753 
L 556 4666 
z
" transform="scale(0.015625)"/>
     </defs>
     <use xlink:href="#DejaVuSans-44"/>
     <use xlink:href="#DejaVuSans-65" transform="translate(77.001953 0)"/>
     <use xlink:href="#DejaVuSans-63" transform="translate(138.525391 0)"/>
     <use xlink:href="#DejaVuSans-61" transform="translate(193.505859 0)"/>
     <use xlink:href="#DejaVuSans-79" transform="translate(254.785156 0)"/>
     <use xlink:href="#DejaVuSans-20" transform="translate(313.964844 0)"/>
     <use xlink:href="#DejaVuSans-69" transform="translate(345.751953 0)"/>
     <use xlink:href="#DejaVuSans-6e" transform="translate(373.535156 0)"/>
     <use xlink:href="#DejaVuSans-20" transform="translate(436.914062 0)"/>
     <use xlink:href="#DejaVuSans-48" transform="translate(468.701172 0)"/>
     <use xlink:href="#DejaVuSans-61" transform="translate(543.896484 0)"/>
     <use xlink:href="#DejaVuSans-6c" transform="translate(605.175781 0)"/>
     <use xlink:href="#DejaVuSans-66" transform="translate(632.958984 0)"/>
     <use xlink:href="#DejaVuSans-2d" transform="translate(662.664062 0)"/>
     <use xlink:href="#DejaVuSans-4c" transform="translate(698.748047 0)"/>
     <use xlink:href="#DejaVuSans-69" transform="translate(754.460938 0)"/>
     <use xlink:href="#DejaVuSans-66" transform="translate(782.244141 0)"/>
     <use xlink:href="#DejaVuSans-65" transform="translate(817.449219 0)"/>
     <use xlink:href="#DejaVuSans-20" transform="translate(878.972656 0)"/>
     <use xlink:href="#DejaVuSans-55" transform="translate(910.759766 0)"/>
     <use xlink:href="#DejaVuSans-6e" transform="translate(983.953125 0)"/>
     <use xlink:href="#DejaVuSans-69" transform="translate(1047.332031 0)"/>
     <use xlink:href="#DejaVuSans-74" transform="translate(1075.115234 0)"/>
     <use xlink:href="#DejaVuSans-73" transform="translate(1114.324219 0)"/>
    </g>
    <!-- (Universal Curve) -->
    <g style="fill: #eaeaea" transform="translate(158.785336 62.72) scale(0.16 -0.16)">
     <defs>
      <path id="DejaVuSans-43" d="M 4122 4306 
L 4122 3641 
Q 3803 3938 3442 4084 
Q 3081 4231 2675 4231 
Q 1875 4231 1450 3742 
Q 1025 3253 1025 2328 
Q 1025 1406 1450 917 
Q 1875 428 2675 428 
Q 3081 428 3442 575 
Q 3803 722 4122 1019 
L 4122 359 
Q 3791 134 3420 21 
Q 3050 -91 2638 -91 
Q 1578 -91 968 557 
Q 359 1206 359 2328 
Q 359 3453 968 4101 
Q 1578 4750 2638 4750 
Q 3056 4750 3426 4639 
Q 3797 4528 4122 4306 
z
" transform="scale(0.015625)"/>
     </defs>
     <use xlink:href="#DejaVuSans-28"/>
     <use xlink:href="#DejaVuSans-55" transform="translate(39.013672 0)"/>
     <use xlink:href="#DejaVuSans-6e" transform="translate(112.207031 0)"/>
     <use xlink:href="#DejaVuSans-69" transform="translate(175.585938 0)"/>
     <use xlink:href="#DejaVuSans-76" transform="translate(203.369141 0)"/>
     <use xlink:href="#DejaVuSans-65" transform="translate(262.548828 0)"/>
     <use xlink:href="#DejaVuSans-72" transform="translate(324.072266 0)"/>
     <use xlink:href="#DejaVuSans-73" transform="translate(365.185547 0)"/>
     <use xlink:href="#DejaVuSans-61" transform="translate(417.285156 0)"/>
     <use xlink:href="#DejaVuSans-6c" transform="translate(478.564453 0)"/>
     <use xlink:href="#DejaVuSans-20" transform="translate(506.347656 0)"/>
     <use xlink:href="#DejaVuSans-43" transform="translate(538.134766 0)"/>
     <use xlink:href="#DejaVuSans-75" transform="translate(607.958984 0)"/>
     <use xlink:href="#DejaVuSans-72" transform="translate(671.337891 0)"/>
     <use xlink:href="#DejaVuSans-76" transform="translate(712.451172 0)"/>
     <use xlink:href="#DejaVuSans-65" transform="translate(771.630859 0)"/>
     <use xlink:href="#DejaVuSans-29" transform="translate(833.154297 0)"/>
    </g>
   </g>
   <g id="legend_1">
    <g id="patch_7">
     <path d="M 59.71875 455.8 
L 167.610938 455.8 
Q 169.610938 455.8 169.610938 453.8 
L 169.610938 396.0875 
Q 169.610938 394.0875 167.610938 394.0875 
L 59.71875 394.0875 
Q 57.71875 394.0875 57.71875 396.0875 
L 57.71875 453.8 
Q 57.71875 455.8 59.71875 455.8 
z
" style="fill: #16213e; opacity: 0.8; stroke: #2a2a4a; stroke-linejoin: miter"/>
    </g>
    <g id="line2d_37">
     <path d="M 61.71875 402.185938 
L 71.71875 402.185938 
L 81.71875 402.185938 
" style="fill: none; stroke: #ffd700; stroke-width: 2.5; stroke-linecap: square"/>
    </g>
    <g id="text_23">
     <!-- C-14 -->
     <g style="fill: #eaeaea" transform="translate(89.71875 405.685938) scale(0.1 -0.1)">
      <use xlink:href="#DejaVuSans-43"/>
      <use xlink:href="#DejaVuSans-2d" transform="translate(69.824219 0)"/>
      <use xlink:href="#DejaVuSans-31" transform="translate(105.908203 0)"/>
      <use xlink:href="#DejaVuSans-34" transform="translate(169.53125 0)"/>
     </g>
    </g>
    <g id="line2d_38">
     <path d="M 61.71875 416.864063 
L 71.71875 416.864063 
L 81.71875 416.864063 
" style="fill: none; stroke: #00d2ff; stroke-width: 2.5; stroke-linecap: square"/>
    </g>
    <g id="text_24">
     <!-- Ra-226 -->
     <g style="fill: #eaeaea" transform="translate(89.71875 420.364063) scale(0.1 -0.1)">
      <use xlink:href="#DejaVuSans-52"/>
      <use xlink:href="#DejaVuSans-61" transform="translate(67.232422 0)"/>
      <use xlink:href="#DejaVuSans-2d" transform="translate(128.511719 0)"/>
      <use xlink:href="#DejaVuSans-32" transform="translate(164.595703 0)"/>
      <use xlink:href="#DejaVuSans-32" transform="translate(228.21875 0)"/>
      <use xlink:href="#DejaVuSans-36" transform="translate(291.841797 0)"/>
     </g>
    </g>
    <g id="line2d_39">
     <path d="M 61.71875 431.542188 
L 71.71875 431.542188 
L 81.71875 431.542188 
" style="fill: none; stroke: #ff6b9d; stroke-width: 2.5; stroke-linecap: square"/>
    </g>
    <g id="text_25">
     <!-- Cs-137 -->
     <g style="fill: #eaeaea" transform="translate(89.71875 435.042188) scale(0.1 -0.1)">
      <defs>
       <path id="DejaVuSans-37" d="M 525 4666 
L 3525 4666 
L 3525 4397 
L 1831 0 
L 1172 0 
L 2766 4134 
L 525 4134 
L 525 4666 
z
" transform="scale(0.015625)"/>
      </defs>
      <use xlink:href="#DejaVuSans-43"/>
      <use xlink:href="#DejaVuSans-73" transform="translate(69.824219 0)"/>
      <use xlink:href="#DejaVuSans-2d" transform="translate(121.923828 0)"/>
      <use xlink:href="#DejaVuSans-31" transform="translate(158.007812 0)"/>
      <use xlink:href="#DejaVuSans-33" transform="translate(221.630859 0)"/>
      <use xlink:href="#DejaVuSans-37" transform="translate(285.253906 0)"/>
     </g>
    </g>
    <g id="line2d_40">
     <path d="M 61.71875 446.220313 
L 71.71875 446.220313 
L 81.71875 446.220313 
" style="fill: none; stroke-dasharray: 5.55,2.4; stroke-dashoffset: 0; stroke: #e74c3c; stroke-opacity: 0.8; stroke-width: 1.5"/>
    </g>
    <g id="text_26">
     <!-- 50% remaining -->
     <g style="fill: #eaeaea" transform="translate(89.71875 449.720313) scale(0.1 -0.1)">
      <use xlink:href="#DejaVuSans-35"/>
      <use xlink:href="#DejaVuSans-30" transform="translate(63.623047 0)"/>
      <use xlink:href="#DejaVuSans-25" transform="translate(127.246094 0)"/>
      <use xlink:href="#DejaVuSans-20" transform="translate(222.265625 0)"/>
      <use xlink:href="#DejaVuSans-72" transform="translate(254.052734 0)"/>
      <use xlink:href="#DejaVuSans-65" transform="translate(292.916016 0)"/>
      <use xlink:href="#DejaVuSans-6d" transform="translate(354.439453 0)"/>
      <use xlink:href="#DejaVuSans-61" transform="translate(451.851562 0)"/>
      <use xlink:href="#DejaVuSans-69" transform="translate(513.130859 0)"/>
      <use xlink:href="#DejaVuSans-6e" transform="translate(540.914062 0)"/>
      <use xlink:href="#DejaVuSans-69" transform="translate(604.292969 0)"/>
      <use xlink:href="#DejaVuSans-6e" transform="translate(632.076172 0)"/>
      <use xlink:href="#DejaVuSans-67" transform="translate(695.455078 0)"/>
     </g>
    </g>
   </g>
  </g>
  <g id="axes_2">
   <g id="patch_8">
    <path d="M 538.038078 460.8 
L 889.71875 460.8 
L 889.71875 72.72 
L 538.038078 72.72 
z
" style="fill: #16213e"/>
   </g>
   <g id="matplotlib.axis_3">
    <g id="xtick_8">
     <g id="line2d_41">
      <path d="M 554.023563 460.8 
L 554.023563 72.72 
" clip-path="url(#p0cd3b8da18)" style="fill: none; stroke: #2a2a4a; stroke-opacity: 0.3; stroke-width: 0.8; stroke-linecap: square"/>
     </g>
     <g id="line2d_42">
      <g>
       <use xlink:href="#mf0a9a7ba9c" x="554.023563" y="460.8" style="fill: #eaeaea; stroke: #eaeaea; stroke-width: 0.8"/>
      </g>
     </g>
     <g id="text_27">
      <!-- 0 -->
      <g style="fill: #eaeaea" transform="translate(550.206063 476.918125) scale(0.12 -0.12)">
       <use xlink:href="#DejaVuSans-30"/>
      </g>
     </g>
    </g>
    <g id="xtick_9">
     <g id="line2d_43">
      <path d="M 607.308513 460.8 
L 607.308513 72.72 
" clip-path="url(#p0cd3b8da18)" style="fill: none; stroke: #2a2a4a; stroke-opacity: 0.3; stroke-width: 0.8; stroke-linecap: square"/>
     </g>
     <g id="line2d_44">
      <g>
       <use xlink:href="#mf0a9a7ba9c" x="607.308513" y="460.8" style="fill: #eaeaea; stroke: #eaeaea; stroke-width: 0.8"/>
      </g>
     </g>
     <g id="text_28">
      <!-- 5000 -->
      <g style="fill: #eaeaea" transform="translate(592.038513 476.918125) scale(0.12 -0.12)">
       <use xlink:href="#DejaVuSans-35"/>
       <use xlink:href="#DejaVuSans-30" transform="translate(63.623047 0)"/>
       <use xlink:href="#DejaVuSans-30" transform="translate(127.246094 0)"/>
       <use xlink:href="#DejaVuSans-30" transform="translate(190.869141 0)"/>
      </g>
     </g>
    </g>
    <g id="xtick_10">
     <g id="line2d_45">
      <path d="M 660.593464 460.8 
L 660.593464 72.72 
" clip-path="url(#p0cd3b8da18)" style="fill: none; stroke: #2a2a4a; stroke-opacity: 0.3; stroke-width: 0.8; stroke-linecap: square"/>
     </g>
     <g id="line2d_46">
      <g>
       <use xlink:href="#mf0a9a7ba9c" x="660.593464" y="460.8" style="fill: #eaeaea; stroke: #eaeaea; stroke-width: 0.8"/>
      </g>
     </g>
     <g id="text_29">
      <!-- 10000 -->
      <g style="fill: #eaeaea" transform="translate(641.505964 476.918125) scale(0.12 -0.12)">
       <use xlink:href="#DejaVuSans-31"/>
       <use xlink:href="#DejaVuSans-30" transform="translate(63.623047 0)"/>
       <use xlink:href="#DejaVuSans-30" transform="translate(127.246094 0)"/>
       <use xlink:href="#DejaVuSans-30" transform="translate(190.869141 0)"/>
       <use xlink:href="#DejaVuSans-30" transform="translate(254.492188 0)"/>
      </g>
     </g>
    </g>
    <g id="xtick_11">
     <g id="line2d_47">
      <path d="M 713.878414 460.8 
L 713.878414 72.72 
" clip-path="url(#p0cd3b8da18)" style="fill: none; stroke: #2a2a4a; stroke-opacity: 0.3; stroke-width: 0.8; stroke-linecap: square"/>
     </g>
     <g id="line2d_48">
      <g>
       <use xlink:href="#mf0a9a7ba9c" x="713.878414" y="460.8" style="fill: #eaeaea; stroke: #eaeaea; stroke-width: 0.8"/>
      </g>
     </g>
     <g id="text_30">
      <!-- 15000 -->
      <g style="fill: #eaeaea" transform="translate(694.790914 476.918125) scale(0.12 -0.12)">
       <use xlink:href="#DejaVuSans-31"/>
       <use xlink:href="#DejaVuSans-35" transform="translate(63.623047 0)"/>
       <use xlink:href="#DejaVuSans-30" transform="translate(127.246094 0)"/>
       <use xlink:href="#DejaVuSans-30" transform="translate(190.869141 0)"/>
       <use xlink:href="#DejaVuSans-30" transform="translate(254.492188 0)"/>
      </g>
     </g>
    </g>
    <g id="xtick_12">
     <g id="line2d_49">
      <path d="M 767.163364 460.8 
L 767.163364 72.72 
" clip-path="url(#p0cd3b8da18)" style="fill: none; stroke: #2a2a4a; stroke-opacity: 0.3; stroke-width: 0.8; stroke-linecap: square"/>
     </g>
     <g id="line2d_50">
      <g>
       <use xlink:href="#mf0a9a7ba9c" x="767.163364" y="460.8" style="fill: #eaeaea; stroke: #eaeaea; stroke-width: 0.8"/>
      </g>
     </g>
     <g id="text_31">
      <!-- 20000 -->
      <g style="fill: #eaeaea" transform="translate(748.075864 476.918125) scale(0.12 -0.12)">
       <use xlink:href="#DejaVuSans-32"/>
       <use xlink:href="#DejaVuSans-30" transform="translate(63.623047 0)"/>
       <use xlink:href="#DejaVuSans-30" transform="translate(127.246094 0)"/>
       <use xlink:href="#DejaVuSans-30" transform="translate(190.869141 0)"/>
       <use xlink:href="#DejaVuSans-30" transform="translate(254.492188 0)"/>
      </g>
     </g>
    </g>
    <g id="xtick_13">
     <g id="line2d_51">
      <path d="M 820.448315 460.8 
L 820.448315 72.72 
" clip-path="url(#p0cd3b8da18)" style="fill: none; stroke: #2a2a4a; stroke-opacity: 0.3; stroke-width: 0.8; stroke-linecap: square"/>
     </g>
     <g id="line2d_52">
      <g>
       <use xlink:href="#mf0a9a7ba9c" x="820.448315" y="460.8" style="fill: #eaeaea; stroke: #eaeaea; stroke-width: 0.8"/>
      </g>
     </g>
     <g id="text_32">
      <!-- 25000 -->
      <g style="fill: #eaeaea" transform="translate(801.360815 476.918125) scale(0.12 -0.12)">
       <use xlink:href="#DejaVuSans-32"/>
       <use xlink:href="#DejaVuSans-35" transform="translate(63.623047 0)"/>
       <use xlink:href="#DejaVuSans-30" transform="translate(127.246094 0)"/>
       <use xlink:href="#DejaVuSans-30" transform="translate(190.869141 0)"/>
       <use xlink:href="#DejaVuSans-30" transform="translate(254.492188 0)"/>
      </g>
     </g>
    </g>
    <g id="xtick_14">
     <g id="line2d_53">
      <path d="M 873.733265 460.8 
L 873.733265 72.72 
" clip-path="url(#p0cd3b8da18)" style="fill: none; stroke: #2a2a4a; stroke-opacity: 0.3; stroke-width: 0.8; stroke-linecap: square"/>
     </g>
     <g id="line2d_54">
      <g>
       <use xlink:href="#mf0a9a7ba9c" x="873.733265" y="460.8" style="fill: #eaeaea; stroke: #eaeaea; stroke-width: 0.8"/>
      </g>
     </g>
     <g id="text_33">
      <!-- 30000 -->
      <g style="fill: #eaeaea" transform="translate(854.645765 476.918125) scale(0.12 -0.12)">
       <use xlink:href="#DejaVuSans-33"/>
       <use xlink:href="#DejaVuSans-30" transform="translate(63.623047 0)"/>
       <use xlink:href="#DejaVuSans-30" transform="translate(127.246094 0)"/>
       <use xlink:href="#DejaVuSans-30" transform="translate(190.869141 0)"/>
       <use xlink:href="#DejaVuSans-30" transform="translate(254.492188 0)"/>
      </g>
     </g>
    </g>
    <g id="text_34">
     <!-- Time (years) -->
     <g style="fill: #eaeaea" transform="translate(676.097164 492.531875) scale(0.12 -0.12)">
      <defs>
       <path id="DejaVuSans-54" d="M -19 4666 
L 3928 4666 
L 3928 4134 
L 2272 4134 
L 2272 0 
L 1638 0 
L 1638 4134 
L -19 4134 
L -19 4666 
z
" transform="scale(0.015625)"/>
      </defs>
      <use xlink:href="#DejaVuSans-54"/>
      <use xlink:href="#DejaVuSans-69" transform="translate(57.958984 0)"/>
      <use xlink:href="#DejaVuSans-6d" transform="translate(85.742188 0)"/>
      <use xlink:href="#DejaVuSans-65" transform="translate(183.154297 0)"/>
      <use xlink:href="#DejaVuSans-20" transform="translate(244.677734 0)"/>
      <use xlink:href="#DejaVuSans-28" transform="translate(276.464844 0)"/>
      <use xlink:href="#DejaVuSans-79" transform="translate(315.478516 0)"/>
      <use xlink:href="#DejaVuSans-65" transform="translate(374.658203 0)"/>
      <use xlink:href="#DejaVuSans-61" transform="translate(436.181641 0)"/>
      <use xlink:href="#DejaVuSans-72" transform="translate(497.460938 0)"/>
      <use xlink:href="#DejaVuSans-73" transform="translate(538.574219 0)"/>
      <use xlink:href="#DejaVuSans-29" transform="translate(590.673828 0)"/>
     </g>
    </g>
   </g>
   <g id="matplotlib.axis_4">
    <g id="ytick_7">
     <g id="line2d_55">
      <path d="M 538.038078 460.8 
L 889.71875 460.8 
" clip-path="url(#p0cd3b8da18)" style="fill: none; stroke: #2a2a4a; stroke-opacity: 0.3; stroke-width: 0.8; stroke-linecap: square"/>
     </g>
     <g id="line2d_56">
      <g>
       <use xlink:href="#m40eb4fa3b8" x="538.038078" y="460.8" style="fill: #eaeaea; stroke: #eaeaea; stroke-width: 0.8"/>
      </g>
     </g>
     <g id="text_35">
      <!-- 0 -->
      <g style="fill: #eaeaea" transform="translate(523.403078 465.359063) scale(0.12 -0.12)">
       <use xlink:href="#DejaVuSans-30"/>
      </g>
     </g>
    </g>
    <g id="ytick_8">
     <g id="line2d_57">
      <path d="M 538.038078 386.88 
L 889.71875 386.88 
" clip-path="url(#p0cd3b8da18)" style="fill: none; stroke: #2a2a4a; stroke-opacity: 0.3; stroke-width: 0.8; stroke-linecap: square"/>
     </g>
     <g id="line2d_58">
      <g>
       <use xlink:href="#m40eb4fa3b8" x="538.038078" y="386.88" style="fill: #eaeaea; stroke: #eaeaea; stroke-width: 0.8"/>
      </g>
     </g>
     <g id="text_36">
      <!-- 20 -->
      <g style="fill: #eaeaea" transform="translate(515.768078 391.439063) scale(0.12 -0.12)">
       <use xlink:href="#DejaVuSans-32"/>
       <use xlink:href="#DejaVuSans-30" transform="translate(63.623047 0)"/>
      </g>
     </g>
    </g>
    <g id="ytick_9">
     <g id="line2d_59">
      <path d="M 538.038078 312.96 
L 889.71875 312.96 
" clip-path="url(#p0cd3b8da18)" style="fill: none; stroke: #2a2a4a; stroke-opacity: 0.3; stroke-width: 0.8; stroke-linecap: square"/>
     </g>
     <g id="line2d_60">
      <g>
       <use xlink:href="#m40eb4fa3b8" x="538.038078" y="312.96" style="fill: #eaeaea; stroke: #eaeaea; stroke-width: 0.8"/>
      </g>
     </g>
     <g id="text_37">
      <!-- 40 -->
      <g style="fill: #eaeaea" transform="translate(515.768078 317.519063) scale(0.12 -0.12)">
       <use xlink:href="#DejaVuSans-34"/>
       <use xlink:href="#DejaVuSans-30" transform="translate(63.623047 0)"/>
      </g>
     </g>
    </g>
    <g id="ytick_10">
     <g id="line2d_61">
      <path d="M 538.038078 239.04 
L 889.71875 239.04 
" clip-path="url(#p0cd3b8da18)" style="fill: none; stroke: #2a2a4a; stroke-opacity: 0.3; stroke-width: 0.8; stroke-linecap: square"/>
     </g>
     <g id="line2d_62">
      <g>
       <use xlink:href="#m40eb4fa3b8" x="538.038078" y="239.04" style="fill: #eaeaea; stroke: #eaeaea; stroke-width: 0.8"/>
      </g>
     </g>
     <g id="text_38">
      <!-- 60 -->
      <g style="fill: #eaeaea" transform="translate(515.768078 243.599063) scale(0.12 -0.12)">
       <use xlink:href="#DejaVuSans-36"/>
       <use xlink:href="#DejaVuSans-30" transform="translate(63.623047 0)"/>
      </g>
     </g>
    </g>
    <g id="ytick_11">
     <g id="line2d_63">
      <path d="M 538.038078 165.12 
L 889.71875 165.12 
" clip-path="url(#p0cd3b8da18)" style="fill: none; stroke: #2a2a4a; stroke-opacity: 0.3; stroke-width: 0.8; stroke-linecap: square"/>
     </g>
     <g id="line2d_64">
      <g>
       <use xlink:href="#m40eb4fa3b8" x="538.038078" y="165.12" style="fill: #eaeaea; stroke: #eaeaea; stroke-width: 0.8"/>
      </g>
     </g>
     <g id="text_39">
      <!-- 80 -->
      <g style="fill: #eaeaea" transform="translate(515.768078 169.679062) scale(0.12 -0.12)">
       <use xlink:href="#DejaVuSans-38"/>
       <use xlink:href="#DejaVuSans-30" transform="translate(63.623047 0)"/>
      </g>
     </g>
    </g>
    <g id="ytick_12">
     <g id="line2d_65">
      <path d="M 538.038078 91.2 
L 889.71875 91.2 
" clip-path="url(#p0cd3b8da18)" style="fill: none; stroke: #2a2a4a; stroke-opacity: 0.3; stroke-width: 0.8; stroke-linecap: square"/>
     </g>
     <g id="line2d_66">
      <g>
       <use xlink:href="#m40eb4fa3b8" x="538.038078" y="91.2" style="fill: #eaeaea; stroke: #eaeaea; stroke-width: 0.8"/>
      </g>
     </g>
     <g id="text_40">
      <!-- 100 -->
      <g style="fill: #eaeaea" transform="translate(508.133078 95.759062) scale(0.12 -0.12)">
       <use xlink:href="#DejaVuSans-31"/>
       <use xlink:href="#DejaVuSans-30" transform="translate(63.623047 0)"/>
       <use xlink:href="#DejaVuSans-30" transform="translate(127.246094 0)"/>
      </g>
     </g>
    </g>
    <g id="text_41">
     <!-- Remaining Amount (%) -->
     <g style="fill: #eaeaea" transform="translate(501.637453 336.39375) rotate(-90) scale(0.12 -0.12)">
      <use xlink:href="#DejaVuSans-52"/>
      <use xlink:href="#DejaVuSans-65" transform="translate(64.982422 0)"/>
      <use xlink:href="#DejaVuSans-6d" transform="translate(126.505859 0)"/>
      <use xlink:href="#DejaVuSans-61" transform="translate(223.917969 0)"/>
      <use xlink:href="#DejaVuSans-69" transform="translate(285.197266 0)"/>
      <use xlink:href="#DejaVuSans-6e" transform="translate(312.980469 0)"/>
      <use xlink:href="#DejaVuSans-69" transform="translate(376.359375 0)"/>
      <use xlink:href="#DejaVuSans-6e" transform="translate(404.142578 0)"/>
      <use xlink:href="#DejaVuSans-67" transform="translate(467.521484 0)"/>
      <use xlink:href="#DejaVuSans-20" transform="translate(530.998047 0)"/>
      <use xlink:href="#DejaVuSans-41" transform="translate(562.785156 0)"/>
      <use xlink:href="#DejaVuSans-6d" transform="translate(631.193359 0)"/>
      <use xlink:href="#DejaVuSans-6f" transform="translate(728.605469 0)"/>
      <use xlink:href="#DejaVuSans-75" transform="translate(789.787109 0)"/>
      <use xlink:href="#DejaVuSans-6e" transform="translate(853.166016 0)"/>
      <use xlink:href="#DejaVuSans-74" transform="translate(916.544922 0)"/>
      <use xlink:href="#DejaVuSans-20" transform="translate(955.753906 0)"/>
      <use xlink:href="#DejaVuSans-28" transform="translate(987.541016 0)"/>
      <use xlink:href="#DejaVuSans-25" transform="translate(1026.554688 0)"/>
      <use xlink:href="#DejaVuSans-29" transform="translate(1121.574219 0)"/>
     </g>
    </g>
   </g>
   <g id="line2d_67">
    <path d="M 554.023563 91.2 
L 558.503979 109.526935 
L 562.984395 126.945114 
L 567.464812 143.499597 
L 571.945228 159.233212 
L 576.425644 174.186662 
L 580.90606 188.398632 
L 585.386477 201.905889 
L 589.866893 214.743377 
L 594.347309 226.944308 
L 598.827725 238.540244 
L 603.308142 249.561186 
L 608.108588 260.763634 
L 612.909033 271.371992 
L 617.709479 281.417766 
L 622.509925 290.930791 
L 627.310371 299.93932 
L 632.110817 308.470107 
L 636.911263 316.548488 
L 641.711709 324.198456 
L 646.512155 331.442729 
L 651.312601 338.302823 
L 656.433077 345.21974 
L 661.553553 351.746088 
L 666.674028 357.903918 
L 671.794504 363.714042 
L 676.91498 369.196091 
L 682.035456 374.368591 
L 687.475961 379.544732 
L 692.916466 384.410888 
L 698.356972 388.985623 
L 704.117507 393.5312 
L 709.878042 397.78906 
L 715.638577 401.777413 
L 721.719142 405.713792 
L 727.799707 409.387644 
L 734.200302 412.990468 
L 740.600896 416.340818 
L 747.321521 419.6063 
L 754.362175 422.770337 
L 761.402829 425.691347 
L 768.763513 428.505528 
L 776.444226 431.20185 
L 784.44497 433.771416 
L 792.765743 436.207404 
L 801.406546 438.504984 
L 810.367378 440.661201 
L 819.96827 442.74057 
L 829.889192 444.663964 
L 840.450173 446.486878 
L 851.651213 448.195762 
L 863.812343 449.820922 
L 873.733265 450.990233 
L 873.733265 450.990233 
" clip-path="url(#p0cd3b8da18)" style="fill: none; stroke: #ffd700; stroke-width: 2.5; stroke-linecap: square"/>
   </g>
   <g id="line2d_68">
    <path d="M 615.088116 460.8 
L 615.088116 72.72 
" clip-path="url(#p0cd3b8da18)" style="fill: none; stroke-dasharray: 1,1.65; stroke-dashoffset: 0; stroke: #ffd700; stroke-opacity: 0.5"/>
   </g>
   <g id="line2d_69">
    <path d="M 676.152669 460.8 
L 676.152669 72.72 
" clip-path="url(#p0cd3b8da18)" style="fill: none; stroke-dasharray: 1,1.65; stroke-dashoffset: 0; stroke: #ffd700; stroke-opacity: 0.5"/>
   </g>
   <g id="line2d_70">
    <path d="M 737.217222 460.8 
L 737.217222 72.72 
" clip-path="url(#p0cd3b8da18)" style="fill: none; stroke-dasharray: 1,1.65; stroke-dashoffset: 0; stroke: #ffd700; stroke-opacity: 0.5"/>
   </g>
   <g id="line2d_71">
    <path d="M 798.281775 460.8 
L 798.281775 72.72 
" clip-path="url(#p0cd3b8da18)" style="fill: none; stroke-dasharray: 1,1.65; stroke-dashoffset: 0; stroke: #ffd700; stroke-opacity: 0.5"/>
   </g>
   <g id="line2d_72">
    <path d="M 859.346328 460.8 
L 859.346328 72.72 
" clip-path="url(#p0cd3b8da18)" style="fill: none; stroke-dasharray: 1,1.65; stroke-dashoffset: 0; stroke: #ffd700; stroke-opacity: 0.5"/>
   </g>
   <g id="line2d_73">
    <path d="M 554.023563 91.2 
L 556.370448 124.831233 
L 558.717332 155.40224 
L 561.064217 183.19148 
L 563.411102 208.452078 
L 565.757986 231.414123 
L 568.104871 252.286769 
L 570.451756 271.260138 
L 572.79864 288.507052 
L 575.145525 304.184607 
L 577.49241 318.435605 
L 579.839295 331.389853 
L 582.186179 343.165348 
L 584.639741 354.332049 
L 587.093302 364.43873 
L 589.546863 373.586014 
L 592.000424 381.864973 
L 594.453986 389.358037 
L 596.907547 396.139806 
L 599.361108 402.277803 
L 601.814669 407.833138 
L 604.268231 412.861122 
L 606.828469 417.59956 
L 609.388706 421.869635 
L 611.948944 425.717642 
L 614.615859 429.3221 
L 617.282773 432.556226 
L 620.056364 435.567726 
L 622.829955 438.258124 
L 625.710223 440.748799 
L 628.697167 443.041454 
L 631.790788 445.140024 
L 635.097762 447.109851 
L 638.511412 448.883687 
L 642.138416 450.517257 
L 645.978772 452.003509 
L 650.139159 453.372205 
L 654.619575 454.609005 
L 659.526698 455.728602 
L 660.593464 455.943823 
L 660.593464 455.943823 
" clip-path="url(#p0cd3b8da18)" style="fill: none; stroke: #00d2ff; stroke-width: 2.5; stroke-linecap: square"/>
   </g>
   <g id="line2d_74">
    <path d="M 571.074747 460.8 
L 571.074747 72.72 
" clip-path="url(#p0cd3b8da18)" style="fill: none; stroke-dasharray: 1,1.65; stroke-dashoffset: 0; stroke: #00d2ff; stroke-opacity: 0.5"/>
   </g>
   <g id="line2d_75">
    <path d="M 588.125931 460.8 
L 588.125931 72.72 
" clip-path="url(#p0cd3b8da18)" style="fill: none; stroke-dasharray: 1,1.65; stroke-dashoffset: 0; stroke: #00d2ff; stroke-opacity: 0.5"/>
   </g>
   <g id="line2d_76">
    <path d="M 605.177115 460.8 
L 605.177115 72.72 
" clip-path="url(#p0cd3b8da18)" style="fill: none; stroke-dasharray: 1,1.65; stroke-dashoffset: 0; stroke: #00d2ff; stroke-opacity: 0.5"/>
   </g>
   <g id="line2d_77">
    <path d="M 622.228299 460.8 
L 622.228299 72.72 
" clip-path="url(#p0cd3b8da18)" style="fill: none; stroke-dasharray: 1,1.65; stroke-dashoffset: 0; stroke: #00d2ff; stroke-opacity: 0.5"/>
   </g>
   <g id="line2d_78">
    <path d="M 639.279483 460.8 
L 639.279483 72.72 
" clip-path="url(#p0cd3b8da18)" style="fill: none; stroke-dasharray: 1,1.65; stroke-dashoffset: 0; stroke: #00d2ff; stroke-opacity: 0.5"/>
   </g>
   <g id="line2d_79">
    <path d="M 656.330667 460.8 
L 656.330667 72.72 
" clip-path="url(#p0cd3b8da18)" style="fill: none; stroke-dasharray: 1,1.65; stroke-dashoffset: 0; stroke: #00d2ff; stroke-opacity: 0.5"/>
   </g>
   <g id="line2d_80">
    <path d="M 538.038078 276 
L 889.71875 276 
" clip-path="url(#p0cd3b8da18)" style="fill: none; stroke-dasharray: 5.55,2.4; stroke-dashoffset: 0; stroke: #e74c3c; stroke-opacity: 0.8; stroke-width: 1.5"/>
   </g>
   <g id="patch_9">
    <path d="M 538.038078 460.8 
L 538.038078 72.72 
" style="fill: none; stroke: #2a2a4a; stroke-width: 0.8; stroke-linejoin: miter; stroke-linecap: square"/>
   </g>
   <g id="patch_10">
    <path d="M 889.71875 460.8 
L 889.71875 72.72 
" style="fill: none; stroke: #2a2a4a; stroke-width: 0.8; stroke-linejoin: miter; stroke-linecap: square"/>
   </g>
   <g id="patch_11">
    <path d="M 538.038078 460.8 
L 889.71875 460.8 
" style="fill: none; stroke: #2a2a4a; stroke-width: 0.8; stroke-linejoin: miter; stroke-linecap: square"/>
   </g>
   <g id="patch_12">
    <path d="M 538.038078 72.72 
L 889.71875 72.72 
" style="fill: none; stroke: #2a2a4a; stroke-width: 0.8; stroke-linejoin: miter; stroke-linecap: square"/>
   </g>
   <g id="text_42">
    <g id="patch_13">
     <path d="M 801.61833 121.186 
L 879.16833 121.186 
Q 883.56833 121.186 883.56833 116.786 
L 883.56833 92.366344 
Q 883.56833 87.966344 879.16833 87.966344 
L 801.61833 87.966344 
Q 797.21833 87.966344 797.21833 92.366344 
L 797.21833 116.786 
Q 797.21833 121.186 801.61833 121.186 
z
" style="fill: #1a1a2e; opacity: 0.8; stroke: #ffffff; stroke-linejoin: miter"/>
    </g>
    <!-- $N(t) = N_0 \cdot e^{-\lambda t}$ -->
    <g style="fill: #ffd700" transform="translate(801.61833 101.936344) scale(0.11 -0.11)">
     <defs>
      <path id="DejaVuSans-Oblique-4e" d="M 1081 4666 
L 1931 4666 
L 3219 666 
L 4000 4666 
L 4616 4666 
L 3706 0 
L 2853 0 
L 1569 4025 
L 788 0 
L 172 0 
L 1081 4666 
z
" transform="scale(0.015625)"/>
      <path id="DejaVuSans-Oblique-74" d="M 2706 3500 
L 2619 3053 
L 1472 3053 
L 1100 1153 
Q 1081 1047 1072 975 
Q 1063 903 1063 863 
Q 1063 663 1183 572 
Q 1303 481 1569 481 
L 2150 481 
L 2053 0 
L 1503 0 
Q 991 0 739 200 
Q 488 400 488 806 
Q 488 878 497 964 
Q 506 1050 525 1153 
L 897 3053 
L 409 3053 
L 500 3500 
L 978 3500 
L 1172 4494 
L 1747 4494 
L 1556 3500 
L 2706 3500 
z
" transform="scale(0.015625)"/>
      <path id="DejaVuSans-22c5" d="M 684 2619 
L 1344 2619 
L 1344 1825 
L 684 1825 
L 684 2619 
z
" transform="scale(0.015625)"/>
      <path id="DejaVuSans-Oblique-65" d="M 3078 2063 
Q 3088 2113 3092 2166 
Q 3097 2219 3097 2272 
Q 3097 2653 2873 2875 
Q 2650 3097 2266 3097 
Q 1838 3097 1509 2826 
Q 1181 2556 1013 2059 
L 3078 2063 
z
M 3578 1613 
L 903 1613 
Q 884 1494 878 1425 
Q 872 1356 872 1306 
Q 872 872 1139 634 
Q 1406 397 1894 397 
Q 2269 397 2603 481 
Q 2938 566 3225 728 
L 3116 159 
Q 2806 34 2476 -28 
Q 2147 -91 1806 -91 
Q 1078 -91 686 257 
Q 294 606 294 1247 
Q 294 1794 489 2264 
Q 684 2734 1063 3103 
Q 1306 3334 1642 3459 
Q 1978 3584 2356 3584 
Q 2950 3584 3301 3228 
Q 3653 2872 3653 2272 
Q 3653 2128 3634 1964 
Q 3616 1800 3578 1613 
z
" transform="scale(0.015625)"/>
      <path id="DejaVuSans-2212" d="M 678 2272 
L 4684 2272 
L 4684 1741 
L 678 1741 
L 678 2272 
z
" transform="scale(0.015625)"/>
      <path id="DejaVuSans-Oblique-3bb" d="M 2350 4316 
L 3125 0 
L 2516 0 
L 2038 2588 
L 328 0 
L -281 0 
L 1903 3356 
L 1794 3975 
Q 1725 4369 1391 4369 
L 1091 4369 
L 1184 4863 
L 1550 4856 
Q 2253 4847 2350 4316 
z
" transform="scale(0.015625)"/>
     </defs>
     <use xlink:href="#DejaVuSans-Oblique-4e" transform="translate(0 0.529687)"/>
     <use xlink:href="#DejaVuSans-28" transform="translate(74.804688 0.529687)"/>
     <use xlink:href="#DejaVuSans-Oblique-74" transform="translate(113.818359 0.529687)"/>
     <use xlink:href="#DejaVuSans-29" transform="translate(153.027344 0.529687)"/>
     <use xlink:href="#DejaVuSans-3d" transform="translate(211.523438 0.529687)"/>
     <use xlink:href="#DejaVuSans-Oblique-4e" transform="translate(314.794922 0.529687)"/>
     <use xlink:href="#DejaVuSans-30" transform="translate(389.599609 -15.876563) scale(0.7)"/>
     <use xlink:href="#DejaVuSans-22c5" transform="translate(456.352539 0.529687)"/>
     <use xlink:href="#DejaVuSans-Oblique-65" transform="translate(507.62207 0.529687)"/>
     <use xlink:href="#DejaVuSans-2212" transform="translate(573.795404 38.810937) scale(0.7)"/>
     <use xlink:href="#DejaVuSans-Oblique-3bb" transform="translate(632.447747 38.810937) scale(0.7)"/>
     <use xlink:href="#DejaVuSans-Oblique-74" transform="translate(673.873529 38.810937) scale(0.7)"/>
    </g>
    <!-- $\lambda = \ln 2 / t_{1/2}$ -->
    <g style="fill: #ffd700" transform="translate(819.87833 114.256) scale(0.11 -0.11)">
     <defs>
      <path id="DejaVuSans-2f" d="M 1625 4666 
L 2156 4666 
L 531 -594 
L 0 -594 
L 1625 4666 
z
" transform="scale(0.015625)"/>
     </defs>
     <use xlink:href="#DejaVuSans-Oblique-3bb" transform="translate(0 0.015625)"/>
     <use xlink:href="#DejaVuSans-3d" transform="translate(78.662109 0.015625)"/>
     <use xlink:href="#DejaVuSans-6c" transform="translate(181.933594 0.015625)"/>
     <use xlink:href="#DejaVuSans-6e" transform="translate(209.716797 0.015625)"/>
     <use xlink:href="#DejaVuSans-32" transform="translate(289.331379 0.015625)"/>
     <use xlink:href="#DejaVuSans-2f" transform="translate(352.954426 0.015625)"/>
     <use xlink:href="#DejaVuSans-Oblique-74" transform="translate(386.645833 0.015625)"/>
     <use xlink:href="#DejaVuSans-31" transform="translate(425.854817 -16.390625) scale(0.7)"/>
     <use xlink:href="#DejaVuSans-2f" transform="translate(470.39095 -16.390625) scale(0.7)"/>
     <use xlink:href="#DejaVuSans-32" transform="translate(491.437434 -16.390625) scale(0.7)"/>
    </g>
   </g>
   <g id="text_43">
    <!-- Actual Time Scale -->
    <g style="fill: #eaeaea" transform="translate(642.632164 62.72) scale(0.16 -0.16)">
     <defs>
      <path id="DejaVuSans-53" d="M 3425 4513 
L 3425 3897 
Q 3066 4069 2747 4153 
Q 2428 4238 2131 4238 
Q 1616 4238 1336 4038 
Q 1056 3838 1056 3469 
Q 1056 3159 1242 3001 
Q 1428 2844 1947 2747 
L 2328 2669 
Q 3034 2534 3370 2195 
Q 3706 1856 3706 1288 
Q 3706 609 3251 259 
Q 2797 -91 1919 -91 
Q 1588 -91 1214 -16 
Q 841 59 441 206 
L 441 856 
Q 825 641 1194 531 
Q 1563 422 1919 422 
Q 2459 422 2753 634 
Q 3047 847 3047 1241 
Q 3047 1584 2836 1778 
Q 2625 1972 2144 2069 
L 1759 2144 
Q 1053 2284 737 2584 
Q 422 2884 422 3419 
Q 422 4038 858 4394 
Q 1294 4750 2059 4750 
Q 2388 4750 2728 4690 
Q 3069 4631 3425 4513 
z
" transform="scale(0.015625)"/>
     </defs>
     <use xlink:href="#DejaVuSans-41"/>
     <use xlink:href="#DejaVuSans-63" transform="translate(66.658203 0)"/>
     <use xlink:href="#DejaVuSans-74" transform="translate(121.638672 0)"/>
     <use xlink:href="#DejaVuSans-75" transform="translate(160.847656 0)"/>
     <use xlink:href="#DejaVuSans-61" transform="translate(224.226562 0)"/>
     <use xlink:href="#DejaVuSans-6c" transform="translate(285.505859 0)"/>
     <use xlink:href="#DejaVuSans-20" transform="translate(313.289062 0)"/>
     <use xlink:href="#DejaVuSans-54" transform="translate(345.076172 0)"/>
     <use xlink:href="#DejaVuSans-69" transform="translate(403.035156 0)"/>
     <use xlink:href="#DejaVuSans-6d" transform="translate(430.818359 0)"/>
     <use xlink:href="#DejaVuSans-65" transform="translate(528.230469 0)"/>
     <use xlink:href="#DejaVuSans-20" transform="translate(589.753906 0)"/>
     <use xlink:href="#DejaVuSans-53" transform="translate(621.541016 0)"/>
     <use xlink:href="#DejaVuSans-63" transform="translate(685.017578 0)"/>
     <use xlink:href="#DejaVuSans-61" transform="translate(739.998047 0)"/>
     <use xlink:href="#DejaVuSans-6c" transform="translate(801.277344 0)"/>
     <use xlink:href="#DejaVuSans-65" transform="translate(829.060547 0)"/>
    </g>
   </g>
   <g id="legend_2">
    <g id="patch_14">
     <path d="M 730.828125 124.754375 
L 882.71875 124.754375 
Q 884.71875 124.754375 884.71875 122.754375 
L 884.71875 79.72 
Q 884.71875 77.72 882.71875 77.72 
L 730.828125 77.72 
Q 728.828125 77.72 728.828125 79.72 
L 728.828125 122.754375 
Q 728.828125 124.754375 730.828125 124.754375 
z
" style="fill: #16213e; opacity: 0.8; stroke: #2a2a4a; stroke-linejoin: miter"/>
    </g>
    <g id="line2d_81">
     <path d="M 732.828125 85.818438 
L 742.828125 85.818438 
L 752.828125 85.818438 
" style="fill: none; stroke: #ffd700; stroke-width: 2.5; stroke-linecap: square"/>
    </g>
    <g id="text_44">
     <!-- C-14  (t½ = 5 730 yr) -->
     <g style="fill: #eaeaea" transform="translate(760.828125 89.318438) scale(0.1 -0.1)">
      <defs>
       <path id="DejaVuSans-bd" d="M 488 2431 
L 1125 2431 
L 1125 4341 
L 428 4213 
L 428 4575 
L 1147 4697 
L 1575 4697 
L 1575 2431 
L 2216 2431 
L 2216 2088 
L 488 2088 
L 488 2431 
z
M 4470 332 
L 5795 332 
L 5795 -24 
L 3926 -24 
L 3926 319 
Q 4032 416 4229 591 
Q 5304 1544 5304 1838 
Q 5304 2044 5141 2170 
Q 4979 2297 4713 2297 
Q 4551 2297 4360 2242 
Q 4170 2188 3945 2079 
L 3945 2463 
Q 4185 2551 4393 2594 
Q 4601 2638 4779 2638 
Q 5232 2638 5504 2432 
Q 5776 2226 5776 1888 
Q 5776 1454 4741 566 
Q 4566 416 4470 332 
z
M 4309 4750 
L 4809 4750 
L 1896 -91 
L 1396 -91 
L 4309 4750 
z
" transform="scale(0.015625)"/>
      </defs>
      <use xlink:href="#DejaVuSans-43"/>
      <use xlink:href="#DejaVuSans-2d" transform="translate(69.824219 0)"/>
      <use xlink:href="#DejaVuSans-31" transform="translate(105.908203 0)"/>
      <use xlink:href="#DejaVuSans-34" transform="translate(169.53125 0)"/>
      <use xlink:href="#DejaVuSans-20" transform="translate(233.154297 0)"/>
      <use xlink:href="#DejaVuSans-20" transform="translate(264.941406 0)"/>
      <use xlink:href="#DejaVuSans-28" transform="translate(296.728516 0)"/>
      <use xlink:href="#DejaVuSans-74" transform="translate(335.742188 0)"/>
      <use xlink:href="#DejaVuSans-bd" transform="translate(374.951172 0)"/>
      <use xlink:href="#DejaVuSans-20" transform="translate(471.875 0)"/>
      <use xlink:href="#DejaVuSans-3d" transform="translate(503.662109 0)"/>
      <use xlink:href="#DejaVuSans-20" transform="translate(587.451172 0)"/>
      <use xlink:href="#DejaVuSans-35" transform="translate(619.238281 0)"/>
      <use xlink:href="#DejaVuSans-20" transform="translate(682.861328 0)"/>
      <use xlink:href="#DejaVuSans-37" transform="translate(714.648438 0)"/>
      <use xlink:href="#DejaVuSans-33" transform="translate(778.271484 0)"/>
      <use xlink:href="#DejaVuSans-30" transform="translate(841.894531 0)"/>
      <use xlink:href="#DejaVuSans-20" transform="translate(905.517578 0)"/>
      <use xlink:href="#DejaVuSans-79" transform="translate(937.304688 0)"/>
      <use xlink:href="#DejaVuSans-72" transform="translate(996.484375 0)"/>
      <use xlink:href="#DejaVuSans-29" transform="translate(1037.597656 0)"/>
     </g>
    </g>
    <g id="line2d_82">
     <path d="M 732.828125 100.496563 
L 742.828125 100.496563 
L 752.828125 100.496563 
" style="fill: none; stroke: #00d2ff; stroke-width: 2.5; stroke-linecap: square"/>
    </g>
    <g id="text_45">
     <!-- Ra-226  (t½ = 1 600 yr) -->
     <g style="fill: #eaeaea" transform="translate(760.828125 103.996563) scale(0.1 -0.1)">
      <use xlink:href="#DejaVuSans-52"/>
      <use xlink:href="#DejaVuSans-61" transform="translate(67.232422 0)"/>
      <use xlink:href="#DejaVuSans-2d" transform="translate(128.511719 0)"/>
      <use xlink:href="#DejaVuSans-32" transform="translate(164.595703 0)"/>
      <use xlink:href="#DejaVuSans-32" transform="translate(228.21875 0)"/>
      <use xlink:href="#DejaVuSans-36" transform="translate(291.841797 0)"/>
      <use xlink:href="#DejaVuSans-20" transform="translate(355.464844 0)"/>
      <use xlink:href="#DejaVuSans-20" transform="translate(387.251953 0)"/>
      <use xlink:href="#DejaVuSans-28" transform="translate(419.039062 0)"/>
      <use xlink:href="#DejaVuSans-74" transform="translate(458.052734 0)"/>
      <use xlink:href="#DejaVuSans-bd" transform="translate(497.261719 0)"/>
      <use xlink:href="#DejaVuSans-20" transform="translate(594.185547 0)"/>
      <use xlink:href="#DejaVuSans-3d" transform="translate(625.972656 0)"/>
      <use xlink:href="#DejaVuSans-20" transform="translate(709.761719 0)"/>
      <use xlink:href="#DejaVuSans-31" transform="translate(741.548828 0)"/>
      <use xlink:href="#DejaVuSans-20" transform="translate(805.171875 0)"/>
      <use xlink:href="#DejaVuSans-36" transform="translate(836.958984 0)"/>
      <use xlink:href="#DejaVuSans-30" transform="translate(900.582031 0)"/>
      <use xlink:href="#DejaVuSans-30" transform="translate(964.205078 0)"/>
      <use xlink:href="#DejaVuSans-20" transform="translate(1027.828125 0)"/>
      <use xlink:href="#DejaVuSans-79" transform="translate(1059.615234 0)"/>
      <use xlink:href="#DejaVuSans-72" transform="translate(1118.794922 0)"/>
      <use xlink:href="#DejaVuSans-29" transform="translate(1159.908203 0)"/>
     </g>
    </g>
    <g id="line2d_83">
     <path d="M 732.828125 115.174688 
L 742.828125 115.174688 
L 752.828125 115.174688 
" style="fill: none; stroke-dasharray: 5.55,2.4; stroke-dashoffset: 0; stroke: #e74c3c; stroke-opacity: 0.8; stroke-width: 1.5"/>
    </g>
    <g id="text_46">
     <!-- 50% (half-life) -->
     <g style="fill: #eaeaea" transform="translate(760.828125 118.674688) scale(0.1 -0.1)">
      <defs>
       <path id="DejaVuSans-68" d="M 3513 2113 
L 3513 0 
L 2938 0 
L 2938 2094 
Q 2938 2591 2744 2837 
Q 2550 3084 2163 3084 
Q 1697 3084 1428 2787 
Q 1159 2491 1159 1978 
L 1159 0 
L 581 0 
L 581 4863 
L 1159 4863 
L 1159 2956 
Q 1366 3272 1645 3428 
Q 1925 3584 2291 3584 
Q 2894 3584 3203 3211 
Q 3513 2838 3513 2113 
z
" transform="scale(0.015625)"/>
      </defs>
      <use xlink:href="#DejaVuSans-35"/>
      <use xlink:href="#DejaVuSans-30" transform="translate(63.623047 0)"/>
      <use xlink:href="#DejaVuSans-25" transform="translate(127.246094 0)"/>
      <use xlink:href="#DejaVuSans-20" transform="translate(222.265625 0)"/>
      <use xlink:href="#DejaVuSans-28" transform="translate(254.052734 0)"/>
      <use xlink:href="#DejaVuSans-68" transform="translate(293.066406 0)"/>
      <use xlink:href="#DejaVuSans-61" transform="translate(356.445312 0)"/>
      <use xlink:href="#DejaVuSans-6c" transform="translate(417.724609 0)"/>
      <use xlink:href="#DejaVuSans-66" transform="translate(445.507812 0)"/>
      <use xlink:href="#DejaVuSans-2d" transform="translate(475.212891 0)"/>
      <use xlink:href="#DejaVuSans-6c" transform="translate(511.296875 0)"/>
      <use xlink:href="#DejaVuSans-69" transform="translate(539.080078 0)"/>
      <use xlink:href="#DejaVuSans-66" transform="translate(566.863281 0)"/>
      <use xlink:href="#DejaVuSans-65" transform="translate(602.068359 0)"/>
      <use xlink:href="#DejaVuSans-29" transform="translate(663.591797 0)"/>
     </g>
    </g>
   </g>
  </g>
  <g id="text_47">
   <!-- Radioactive Decay  —  $N(t) = N_0 \cdot e^{-\lambda t}$ -->
   <g style="fill: #ffd700" transform="translate(279.33875 23.76) scale(0.18 -0.18)">
    <defs>
     <path id="DejaVuSans-Bold-52" d="M 2297 2597 
Q 2675 2597 2839 2737 
Q 3003 2878 3003 3200 
Q 3003 3519 2839 3656 
Q 2675 3794 2297 3794 
L 1791 3794 
L 1791 2597 
L 2297 2597 
z
M 1791 1766 
L 1791 0 
L 588 0 
L 588 4666 
L 2425 4666 
Q 3347 4666 3776 4356 
Q 4206 4047 4206 3378 
Q 4206 2916 3982 2619 
Q 3759 2322 3309 2181 
Q 3556 2125 3751 1926 
Q 3947 1728 4147 1325 
L 4800 0 
L 3519 0 
L 2950 1159 
Q 2778 1509 2601 1637 
Q 2425 1766 2131 1766 
L 1791 1766 
z
" transform="scale(0.015625)"/>
     <path id="DejaVuSans-Bold-61" d="M 2106 1575 
Q 1756 1575 1579 1456 
Q 1403 1338 1403 1106 
Q 1403 894 1545 773 
Q 1688 653 1941 653 
Q 2256 653 2472 879 
Q 2688 1106 2688 1447 
L 2688 1575 
L 2106 1575 
z
M 3816 1997 
L 3816 0 
L 2688 0 
L 2688 519 
Q 2463 200 2181 54 
Q 1900 -91 1497 -91 
Q 953 -91 614 226 
Q 275 544 275 1050 
Q 275 1666 698 1953 
Q 1122 2241 2028 2241 
L 2688 2241 
L 2688 2328 
Q 2688 2594 2478 2717 
Q 2269 2841 1825 2841 
Q 1466 2841 1156 2769 
Q 847 2697 581 2553 
L 581 3406 
Q 941 3494 1303 3539 
Q 1666 3584 2028 3584 
Q 2975 3584 3395 3211 
Q 3816 2838 3816 1997 
z
" transform="scale(0.015625)"/>
     <path id="DejaVuSans-Bold-64" d="M 2919 2988 
L 2919 4863 
L 4044 4863 
L 4044 0 
L 2919 0 
L 2919 506 
Q 2688 197 2409 53 
Q 2131 -91 1766 -91 
Q 1119 -91 703 423 
Q 288 938 288 1747 
Q 288 2556 703 3070 
Q 1119 3584 1766 3584 
Q 2128 3584 2408 3439 
Q 2688 3294 2919 2988 
z
M 2181 722 
Q 2541 722 2730 984 
Q 2919 1247 2919 1747 
Q 2919 2247 2730 2509 
Q 2541 2772 2181 2772 
Q 1825 2772 1636 2509 
Q 1447 2247 1447 1747 
Q 1447 1247 1636 984 
Q 1825 722 2181 722 
z
" transform="scale(0.015625)"/>
     <path id="DejaVuSans-Bold-69" d="M 538 3500 
L 1656 3500 
L 1656 0 
L 538 0 
L 538 3500 
z
M 538 4863 
L 1656 4863 
L 1656 3950 
L 538 3950 
L 538 4863 
z
" transform="scale(0.015625)"/>
     <path id="DejaVuSans-Bold-6f" d="M 2203 2784 
Q 1831 2784 1636 2517 
Q 1441 2250 1441 1747 
Q 1441 1244 1636 976 
Q 1831 709 2203 709 
Q 2569 709 2762 976 
Q 2956 1244 2956 1747 
Q 2956 2250 2762 2517 
Q 2569 2784 2203 2784 
z
M 2203 3584 
Q 3106 3584 3614 3096 
Q 4122 2609 4122 1747 
Q 4122 884 3614 396 
Q 3106 -91 2203 -91 
Q 1297 -91 786 396 
Q 275 884 275 1747 
Q 275 2609 786 3096 
Q 1297 3584 2203 3584 
z
" transform="scale(0.015625)"/>
     <path id="DejaVuSans-Bold-63" d="M 3366 3391 
L 3366 2478 
Q 3138 2634 2908 2709 
Q 2678 2784 2431 2784 
Q 1963 2784 1702 2511 
Q 1441 2238 1441 1747 
Q 1441 1256 1702 982 
Q 1963 709 2431 709 
Q 2694 709 2930 787 
Q 3166 866 3366 1019 
L 3366 103 
Q 3103 6 2833 -42 
Q 2563 -91 2291 -91 
Q 1344 -91 809 395 
Q 275 881 275 1747 
Q 275 2613 809 3098 
Q 1344 3584 2291 3584 
Q 2566 3584 2833 3536 
Q 3100 3488 3366 3391 
z
" transform="scale(0.015625)"/>
     <path id="DejaVuSans-Bold-74" d="M 1759 4494 
L 1759 3500 
L 2913 3500 
L 2913 2700 
L 1759 2700 
L 1759 1216 
Q 1759 972 1856 886 
Q 1953 800 2241 800 
L 2816 800 
L 2816 0 
L 1856 0 
Q 1194 0 917 276 
Q 641 553 641 1216 
L 641 2700 
L 84 2700 
L 84 3500 
L 641 3500 
L 641 4494 
L 1759 4494 
z
" transform="scale(0.015625)"/>
     <path id="DejaVuSans-Bold-76" d="M 97 3500 
L 1216 3500 
L 2088 1081 
L 2956 3500 
L 4078 3500 
L 2700 0 
L 1472 0 
L 97 3500 
z
" transform="scale(0.015625)"/>
     <path id="DejaVuSans-Bold-65" d="M 4031 1759 
L 4031 1441 
L 1416 1441 
Q 1456 1047 1700 850 
Q 1944 653 2381 653 
Q 2734 653 3104 758 
Q 3475 863 3866 1075 
L 3866 213 
Q 3469 63 3072 -14 
Q 2675 -91 2278 -91 
Q 1328 -91 801 392 
Q 275 875 275 1747 
Q 275 2603 792 3093 
Q 1309 3584 2216 3584 
Q 3041 3584 3536 3087 
Q 4031 2591 4031 1759 
z
M 2881 2131 
Q 2881 2450 2695 2645 
Q 2509 2841 2209 2841 
Q 1884 2841 1681 2658 
Q 1478 2475 1428 2131 
L 2881 2131 
z
" transform="scale(0.015625)"/>
     <path id="DejaVuSans-Bold-20" transform="scale(0.015625)"/>
     <path id="DejaVuSans-Bold-44" d="M 1791 3756 
L 1791 909 
L 2222 909 
Q 2959 909 3348 1275 
Q 3738 1641 3738 2338 
Q 3738 3031 3350 3393 
Q 2963 3756 2222 3756 
L 1791 3756 
z
M 588 4666 
L 1856 4666 
Q 2919 4666 3439 4514 
Q 3959 4363 4331 4000 
Q 4659 3684 4818 3271 
Q 4978 2859 4978 2338 
Q 4978 1809 4818 1395 
Q 4659 981 4331 666 
Q 3956 303 3431 151 
Q 2906 0 1856 0 
L 588 0 
L 588 4666 
z
" transform="scale(0.015625)"/>
     <path id="DejaVuSans-Bold-79" d="M 78 3500 
L 1197 3500 
L 2138 1125 
L 2938 3500 
L 4056 3500 
L 2584 -331 
Q 2363 -916 2067 -1148 
Q 1772 -1381 1288 -1381 
L 641 -1381 
L 641 -647 
L 991 -647 
Q 1275 -647 1404 -556 
Q 1534 -466 1606 -231 
L 1638 -134 
L 78 3500 
z
" transform="scale(0.015625)"/>
     <path id="DejaVuSansDisplay-2014" d="M 313 1978 
L 6088 1978 
L 6088 1528 
L 313 1528 
L 313 1978 
z
" transform="scale(0.015625)"/>
    </defs>
    <use xlink:href="#DejaVuSans-Bold-52" transform="translate(0 0.529687)"/>
    <use xlink:href="#DejaVuSans-Bold-61" transform="translate(77.001953 0.529687)"/>
    <use xlink:href="#DejaVuSans-Bold-64" transform="translate(144.482422 0.529687)"/>
    <use xlink:href="#DejaVuSans-Bold-69" transform="translate(216.064453 0.529687)"/>
    <use xlink:href="#DejaVuSans-Bold-6f" transform="translate(250.341797 0.529687)"/>
    <use xlink:href="#DejaVuSans-Bold-61" transform="translate(319.042969 0.529687)"/>
    <use xlink:href="#DejaVuSans-Bold-63" transform="translate(386.523438 0.529687)"/>
    <use xlink:href="#DejaVuSans-Bold-74" transform="translate(445.800781 0.529687)"/>
    <use xlink:href="#DejaVuSans-Bold-69" transform="translate(493.603516 0.529687)"/>
    <use xlink:href="#DejaVuSans-Bold-76" transform="translate(527.880859 0.529687)"/>
    <use xlink:href="#DejaVuSans-Bold-65" transform="translate(593.066406 0.529687)"/>
    <use xlink:href="#DejaVuSans-Bold-20" transform="translate(660.888672 0.529687)"/>
    <use xlink:href="#DejaVuSans-Bold-44" transform="translate(695.703125 0.529687)"/>
    <use xlink:href="#DejaVuSans-Bold-65" transform="translate(778.710938 0.529687)"/>
    <use xlink:href="#DejaVuSans-Bold-63" transform="translate(846.533203 0.529687)"/>
    <use xlink:href="#DejaVuSans-Bold-61" transform="translate(905.810547 0.529687)"/>
    <use xlink:href="#DejaVuSans-Bold-79" transform="translate(973.291016 0.529687)"/>
    <use xlink:href="#DejaVuSans-Bold-20" transform="translate(1038.476562 0.529687)"/>
    <use xlink:href="#DejaVuSans-Bold-20" transform="translate(1073.291016 0.529687)"/>
    <use xlink:href="#DejaVuSansDisplay-2014" transform="translate(1108.105469 0.529687)"/>
    <use xlink:href="#DejaVuSans-Bold-20" transform="translate(1208.105469 0.529687)"/>
    <use xlink:href="#DejaVuSans-Bold-20" transform="translate(1242.919922 0.529687)"/>
    <use xlink:href="#DejaVuSans-Oblique-4e" transform="translate(1277.734375 0.529687)"/>
    <use xlink:href="#DejaVuSans-28" transform="translate(1352.539062 0.529687)"/>
    <use xlink:href="#DejaVuSans-Oblique-74" transform="translate(1391.552734 0.529687)"/>
    <use xlink:href="#DejaVuSans-29" transform="translate(1430.761719 0.529687)"/>
    <use xlink:href="#DejaVuSans-3d" transform="translate(1489.257812 0.529687)"/>
    <use xlink:href="#DejaVuSans-Oblique-4e" transform="translate(1592.529297 0.529687)"/>
    <use xlink:href="#DejaVuSans-30" transform="translate(1667.333984 -15.876563) scale(0.7)"/>
    <use xlink:href="#DejaVuSans-22c5" transform="translate(1734.086914 0.529687)"/>
    <use xlink:href="#DejaVuSans-Oblique-65" transform="translate(1785.356445 0.529687)"/>
    <use xlink:href="#DejaVuSans-2212" transform="translate(1851.529779 38.810937) scale(0.7)"/>
    <use xlink:href="#DejaVuSans-Oblique-3bb" transform="translate(1910.182122 38.810937) scale(0.7)"/>
    <use xlink:href="#DejaVuSans-Oblique-74" transform="translate(1951.607904 38.810937) scale(0.7)"/>
   </g>
  </g>
 </g>
 <defs>
  <clipPath id="p2679fb7501">
   <rect x="52.71875" y="72.72" width="351.680672" height="388.08"/>
  </clipPath>
  <clipPath id="p0cd3b8da18">
   <rect x="538.038078" y="72.72" width="351.680672" height="388.08"/>
  </clipPath>
 </defs>
</svg>
