<?xml version="1.0" encoding="utf-8" standalone="no"?>
<!DOCTYPE svg PUBLIC "-//W3C//DTD SVG 1.1//EN"
  "http://www.w3.org/Graphics/SVG/1.1/DTD/svg11.dtd">
<svg xmlns:xlink="http://www.w3.org/1999/xlink" width="914.609375pt" height="502.2275pt" viewBox="0 0 914.609375 502.2275" xmlns="http://www.w3.org/2000/svg" version="1.1">
 <metadata>
  <rdf:RDF xmlns:dc="http://purl.org/dc/elements/1.1/" xmlns:cc="http://creativecommons.org/ns#" xmlns:rdf="http://www.w3.org/1999/02/22-rdf-syntax-ns#">
   <cc:Work>
    <dc:type rdf:resource="http://purl.org/dc/dcmitype/StillImage"/>
    <dc:date>2026-03-18T22:57:58.550974</dc:date>
    <dc:format>image/svg+xml</dc:format>
    <dc:creator>
     <cc:Agent>
      <dc:title>Matplotlib v3.10.7, https://matplotlib.org/</dc:title>
     </cc:Agent>
    </dc:creator>
   </cc:Work>
  </rdf:RDF>
 </metadata>
 <defs>
  <style type="text/css">*{stroke-linejoin: round; stroke-linecap: butt}</style>
 </defs>
 <g id="figure_1">
  <g id="patch_1">
   <path d="M 0 502.2275 
L 914.609375 502.2275 
L 914.609375 0 
L 0 0 
z
" style="fill: #1a1a2e"/>
  </g>
  <g id="axes_1">
   <g id="patch_2">
    <path d="M 55.139375 460.8 
L 403.889375 460.8 
L 403.889375 72.72 
L 55.139375 72.72 
z
" style="fill: #16213e"/>
   </g>
   <g id="matplotlib.axis_1">
    <g id="xtick_1">
     <g id="line2d_1">
      <path d="M 83.673466 460.8 
L 83.673466 72.72 
" clip-path="url(#p1da352dbbc)" style="fill: none; stroke: #2a2a4a; stroke-opacity: 0.3; stroke-width: 0.8; stroke-linecap: square"/>
     </g>
     <g id="line2d_2">
      <defs>
       <path id="m53fed63744" d="M 0 0 
L 0 3.5 
" style="stroke: #eaeaea; stroke-width: 0.8"/>
      </defs>
      <g>
       <use xlink:href="#m53fed63744" x="83.673466" y="460.8" style="fill: #eaeaea; stroke: #eaeaea; stroke-width: 0.8"/>
      </g>
     </g>
     <g id="text_1">
      <!-- 1 -->
      <g style="fill: #eaeaea" transform="translate(79.855966 476.918125) scale(0.12 -0.12)">
       <defs>
        <path id="DejaVuSans-31" d="M 794 531 
L 1825 531 
L 1825 4091 
L 703 3866 
L 703 4441 
L 1819 4666 
L 2450 4666 
L 2450 531 
L 3481 531 
L 3481 0 
L 794 0 
L 794 531 
z
" transform="scale(0.015625)"/>
       </defs>
       <use xlink:href="#DejaVuSans-31"/>
      </g>
     </g>
    </g>
    <g id="xtick_2">
     <g id="line2d_3">
      <path d="M 159.764375 460.8 
L 159.764375 72.72 
" clip-path="url(#p1da352dbbc)" style="fill: none; stroke: #2a2a4a; stroke-opacity: 0.3; stroke-width: 0.8; stroke-linecap: square"/>
     </g>
     <g id="line2d_4">
      <g>
       <use xlink:href="#m53fed63744" x="159.764375" y="460.8" style="fill: #eaeaea; stroke: #eaeaea; stroke-width: 0.8"/>
      </g>
     </g>
     <g id="text_2">
      <!-- 2 -->
      <g style="fill: #eaeaea" transform="translate(155.946875 476.918125) scale(0.12 -0.12)">
       <defs>
        <path id="DejaVuSans-32" d="M 1228 531 
L 3431 531 
L 3431 0 
L 469 0 
L 469 531 
Q 828 903 1448 1529 
Q 2069 2156 2228 2338 
Q 2531 2678 2651 2914 
Q 2772 3150 2772 3378 
Q 2772 3750 2511 3984 
Q 2250 4219 1831 4219 
Q 1534 4219 1204 4116 
Q 875 4013 500 3803 
L 500 4441 
Q 881 4594 1212 4672 
Q 1544 4750 1819 4750 
Q 2544 4750 2975 4387 
Q 3406 4025 3406 3419 
Q 3406 3131 3298 2873 
Q 3191 2616 2906 2266 
Q 2828 2175 2409 1742 
Q 1991 1309 1228 531 
z
" transform="scale(0.015625)"/>
       </defs>
       <use xlink:href="#DejaVuSans-32"/>
      </g>
     </g>
    </g>
    <g id="xtick_3">
     <g id="line2d_5">
      <path d="M 235.855284 460.8 
L 235.855284 72.72 
" clip-path="url(#p1da352dbbc)" style="fill: none; stroke: #2a2a4a; stroke-opacity: 0.3; stroke-width: 0.8; stroke-linecap: square"/>
     </g>
     <g id="line2d_6">
      <g>
       <use xlink:href="#m53fed63744" x="235.855284" y="460.8" style="fill: #eaeaea; stroke: #eaeaea; stroke-width: 0.8"/>
      </g>
     </g>
     <g id="text_3">
      <!-- 3 -->
      <g style="fill: #eaeaea" transform="translate(232.037784 476.918125) scale(0.12 -0.12)">
       <defs>
        <path id="DejaVuSans-33" d="M 2597 2516 
Q 3050 2419 3304 2112 
Q 3559 1806 3559 1356 
Q 3559 666 3084 287 
Q 2609 -91 1734 -91 
Q 1441 -91 1130 -33 
Q 819 25 488 141 
L 488 750 
Q 750 597 1062 519 
Q 1375 441 1716 441 
Q 2309 441 2620 675 
Q 2931 909 2931 1356 
Q 2931 1769 2642 2001 
Q 2353 2234 1838 2234 
L 1294 2234 
L 1294 2753 
L 1863 2753 
Q 2328 2753 2575 2939 
Q 2822 3125 2822 3475 
Q 2822 3834 2567 4026 
Q 2313 4219 1838 4219 
Q 1578 4219 1281 4162 
Q 984 4106 628 3988 
L 628 4550 
Q 988 4650 1302 4700 
Q 1616 4750 1894 4750 
Q 2613 4750 3031 4423 
Q 3450 4097 3450 3541 
Q 3450 3153 3228 2886 
Q 3006 2619 2597 2516 
z
" transform="scale(0.015625)"/>
       </defs>
       <use xlink:href="#DejaVuSans-33"/>
      </g>
     </g>
    </g>
    <g id="xtick_4">
     <g id="line2d_7">
      <path d="M 311.946193 460.8 
L 311.946193 72.72 
" clip-path="url(#p1da352dbbc)" style="fill: none; stroke: #2a2a4a; stroke-opacity: 0.3; stroke-width: 0.8; stroke-linecap: square"/>
     </g>
     <g id="line2d_8">
      <g>
       <use xlink:href="#m53fed63744" x="311.946193" y="460.8" style="fill: #eaeaea; stroke: #eaeaea; stroke-width: 0.8"/>
      </g>
     </g>
     <g id="text_4">
      <!-- 4 -->
      <g style="fill: #eaeaea" transform="translate(308.128693 476.918125) scale(0.12 -0.12)">
       <defs>
        <path id="DejaVuSans-34" d="M 2419 4116 
L 825 1625 
L 2419 1625 
L 2419 4116 
z
M 2253 4666 
L 3047 4666 
L 3047 1625 
L 3713 1625 
L 3713 1100 
L 3047 1100 
L 3047 0 
L 2419 0 
L 2419 1100 
L 313 1100 
L 313 1709 
L 2253 4666 
z
" transform="scale(0.015625)"/>
       </defs>
       <use xlink:href="#DejaVuSans-34"/>
      </g>
     </g>
    </g>
    <g id="xtick_5">
     <g id="line2d_9">
      <path d="M 388.037102 460.8 
L 388.037102 72.72 
" clip-path="url(#p1da352dbbc)" style="fill: none; stroke: #2a2a4a; stroke-opacity: 0.3; stroke-width: 0.8; stroke-linecap: square"/>
     </g>
     <g id="line2d_10">
      <g>
       <use xlink:href="#m53fed63744" x="388.037102" y="460.8" style="fill: #eaeaea; stroke: #eaeaea; stroke-width: 0.8"/>
      </g>
     </g>
     <g id="text_5">
      <!-- 5 -->
      <g style="fill: #eaeaea" transform="translate(384.219602 476.918125) scale(0.12 -0.12)">
       <defs>
        <path id="DejaVuSans-35" d="M 691 4666 
L 3169 4666 
L 3169 4134 
L 1269 4134 
L 1269 2991 
Q 1406 3038 1543 3061 
Q 1681 3084 1819 3084 
Q 2600 3084 3056 2656 
Q 3513 2228 3513 1497 
Q 3513 744 3044 326 
Q 2575 -91 1722 -91 
Q 1428 -91 1123 -41 
Q 819 9 494 109 
L 494 744 
Q 775 591 1075 516 
Q 1375 441 1709 441 
Q 2250 441 2565 725 
Q 2881 1009 2881 1497 
Q 2881 1984 2565 2268 
Q 2250 2553 1709 2553 
Q 1456 2553 1204 2497 
Q 953 2441 691 2322 
L 691 4666 
z
" transform="scale(0.015625)"/>
       </defs>
       <use xlink:href="#DejaVuSans-35"/>
      </g>
     </g>
    </g>
    <g id="text_6">
     <!-- 1/T  (×10⁻³ K⁻¹) -->
     <g style="fill: #eaeaea" transform="translate(181.865938 492.531875) scale(0.12 -0.12)">
      <defs>
       <path id="DejaVuSans-2f" d="M 1625 4666 
L 2156 4666 
L 531 -594 
L 0 -594 
L 1625 4666 
z
" transform="scale(0.015625)"/>
       <path id="DejaVuSans-54" d="M -19 4666 
L 3928 4666 
L 3928 4134 
L 2272 4134 
L 2272 0 
L 1638 0 
L 1638 4134 
L -19 4134 
L -19 4666 
z
" transform="scale(0.015625)"/>
       <path id="DejaVuSans-20" transform="scale(0.015625)"/>
       <path id="DejaVuSans-28" d="M 1984 4856 
Q 1566 4138 1362 3434 
Q 1159 2731 1159 2009 
Q 1159 1288 1364 580 
Q 1569 -128 1984 -844 
L 1484 -844 
Q 1016 -109 783 600 
Q 550 1309 550 2009 
Q 550 2706 781 3412 
Q 1013 4119 1484 4856 
L 1984 4856 
z
" transform="scale(0.015625)"/>
       <path id="DejaVuSans-d7" d="M 4488 3438 
L 3059 2003 
L 4488 575 
L 4116 197 
L 2681 1631 
L 1247 197 
L 878 575 
L 2303 2003 
L 878 3438 
L 1247 3816 
L 2681 2381 
L 4116 3816 
L 4488 3438 
z
" transform="scale(0.015625)"/>
       <path id="DejaVuSans-30" d="M 2034 4250 
Q 1547 4250 1301 3770 
Q 1056 3291 1056 2328 
Q 1056 1369 1301 889 
Q 1547 409 2034 409 
Q 2525 409 2770 889 
Q 3016 1369 3016 2328 
Q 3016 3291 2770 3770 
Q 2525 4250 2034 4250 
z
M 2034 4750 
Q 2819 4750 3233 4129 
Q 3647 3509 3647 2328 
Q 3647 1150 3233 529 
Q 2819 -91 2034 -91 
Q 1250 -91 836 529 
Q 422 1150 422 2328 
Q 422 3509 836 4129 
Q 1250 4750 2034 4750 
z
" transform="scale(0.015625)"/>
       <path id="DejaVuSans-207b" d="M 428 3359 
L 2950 3359 
L 2950 3063 
L 428 3063 
L 428 3359 
z
" transform="scale(0.015625)"/>
       <path id="DejaVuSans-b3" d="M 1638 3500 
Q 1925 3444 2083 3273 
Q 2241 3103 2241 2847 
Q 2241 2459 1944 2250 
Q 1647 2041 1094 2041 
Q 916 2041 720 2073 
Q 525 2106 306 2169 
L 306 2547 
Q 469 2463 655 2422 
Q 841 2381 1050 2381 
Q 1391 2381 1578 2504 
Q 1766 2628 1766 2847 
Q 1766 3078 1592 3197 
Q 1419 3316 1081 3316 
L 813 3316 
L 813 3653 
L 1106 3653 
Q 1400 3653 1551 3751 
Q 1703 3850 1703 4038 
Q 1703 4219 1547 4314 
Q 1391 4409 1094 4409 
Q 969 4409 809 4381 
Q 650 4353 397 4281 
L 397 4641 
Q 625 4694 825 4722 
Q 1025 4750 1197 4750 
Q 1647 4750 1911 4565 
Q 2175 4381 2175 4072 
Q 2175 3856 2034 3706 
Q 1894 3556 1638 3500 
z
" transform="scale(0.015625)"/>
       <path id="DejaVuSans-4b" d="M 628 4666 
L 1259 4666 
L 1259 2694 
L 3353 4666 
L 4166 4666 
L 1850 2491 
L 4331 0 
L 3500 0 
L 1259 2247 
L 1259 0 
L 628 0 
L 628 4666 
z
" transform="scale(0.015625)"/>
       <path id="DejaVuSans-b9" d="M 488 2431 
L 1125 2431 
L 1125 4341 
L 428 4213 
L 428 4575 
L 1147 4697 
L 1575 4697 
L 1575 2431 
L 2216 2431 
L 2216 2088 
L 488 2088 
L 488 2431 
z
" transform="scale(0.015625)"/>
       <path id="DejaVuSans-29" d="M 513 4856 
L 1013 4856 
Q 1481 4119 1714 3412 
Q 1947 2706 1947 2009 
Q 1947 1309 1714 600 
Q 1481 -109 1013 -844 
L 513 -844 
Q 928 -128 1133 580 
Q 1338 1288 1338 2009 
Q 1338 2731 1133 3434 
Q 928 4138 513 4856 
z
" transform="scale(0.015625)"/>
      </defs>
      <use xlink:href="#DejaVuSans-31"/>
      <use xlink:href="#DejaVuSans-2f" transform="translate(63.623047 0)"/>
      <use xlink:href="#DejaVuSans-54" transform="translate(97.314453 0)"/>
      <use xlink:href="#DejaVuSans-20" transform="translate(158.398438 0)"/>
      <use xlink:href="#DejaVuSans-20" transform="translate(190.185547 0)"/>
      <use xlink:href="#DejaVuSans-28" transform="translate(221.972656 0)"/>
      <use xlink:href="#DejaVuSans-d7" transform="translate(260.986328 0)"/>
      <use xlink:href="#DejaVuSans-31" transform="translate(344.775391 0)"/>
      <use xlink:href="#DejaVuSans-30" transform="translate(408.398438 0)"/>
      <use xlink:href="#DejaVuSans-207b" transform="translate(472.021484 0)"/>
      <use xlink:href="#DejaVuSans-b3" transform="translate(524.804688 0)"/>
      <use xlink:href="#DejaVuSans-20" transform="translate(564.892578 0)"/>
      <use xlink:href="#DejaVuSans-4b" transform="translate(596.679688 0)"/>
      <use xlink:href="#DejaVuSans-207b" transform="translate(662.255859 0)"/>
      <use xlink:href="#DejaVuSans-b9" transform="translate(715.039062 0)"/>
      <use xlink:href="#DejaVuSans-29" transform="translate(755.126953 0)"/>
     </g>
    </g>
   </g>
   <g id="matplotlib.axis_2">
    <g id="ytick_1">
     <g id="line2d_11">
      <path d="M 55.139375 441.91036 
L 403.889375 441.91036 
" clip-path="url(#p1da352dbbc)" style="fill: none; stroke: #2a2a4a; stroke-opacity: 0.3; stroke-width: 0.8; stroke-linecap: square"/>
     </g>
     <g id="line2d_12">
      <defs>
       <path id="mbbb6db6b81" d="M 0 0 
L -3.5 0 
" style="stroke: #eaeaea; stroke-width: 0.8"/>
      </defs>
      <g>
       <use xlink:href="#mbbb6db6b81" x="55.139375" y="441.91036" style="fill: #eaeaea; stroke: #eaeaea; stroke-width: 0.8"/>
      </g>
     </g>
     <g id="text_7">
      <!-- −30 -->
      <g style="fill: #eaeaea" transform="translate(22.81375 446.469422) scale(0.12 -0.12)">
       <defs>
        <path id="DejaVuSans-2212" d="M 678 2272 
L 4684 2272 
L 4684 1741 
L 678 1741 
L 678 2272 
z
" transform="scale(0.015625)"/>
       </defs>
       <use xlink:href="#DejaVuSans-2212"/>
       <use xlink:href="#DejaVuSans-33" transform="translate(83.789062 0)"/>
       <use xlink:href="#DejaVuSans-30" transform="translate(147.412109 0)"/>
      </g>
     </g>
    </g>
    <g id="ytick_2">
     <g id="line2d_13">
      <path d="M 55.139375 381.223893 
L 403.889375 381.223893 
" clip-path="url(#p1da352dbbc)" style="fill: none; stroke: #2a2a4a; stroke-opacity: 0.3; stroke-width: 0.8; stroke-linecap: square"/>
     </g>
     <g id="line2d_14">
      <g>
       <use xlink:href="#mbbb6db6b81" x="55.139375" y="381.223893" style="fill: #eaeaea; stroke: #eaeaea; stroke-width: 0.8"/>
      </g>
     </g>
     <g id="text_8">
      <!-- −20 -->
      <g style="fill: #eaeaea" transform="translate(22.81375 385.782956) scale(0.12 -0.12)">
       <use xlink:href="#DejaVuSans-2212"/>
       <use xlink:href="#DejaVuSans-32" transform="translate(83.789062 0)"/>
       <use xlink:href="#DejaVuSans-30" transform="translate(147.412109 0)"/>
      </g>
     </g>
    </g>
    <g id="ytick_3">
     <g id="line2d_15">
      <path d="M 55.139375 320.537427 
L 403.889375 320.537427 
" clip-path="url(#p1da352dbbc)" style="fill: none; stroke: #2a2a4a; stroke-opacity: 0.3; stroke-width: 0.8; stroke-linecap: square"/>
     </g>
     <g id="line2d_16">
      <g>
       <use xlink:href="#mbbb6db6b81" x="55.139375" y="320.537427" style="fill: #eaeaea; stroke: #eaeaea; stroke-width: 0.8"/>
      </g>
     </g>
     <g id="text_9">
      <!-- −10 -->
      <g style="fill: #eaeaea" transform="translate(22.81375 325.09649) scale(0.12 -0.12)">
       <use xlink:href="#DejaVuSans-2212"/>
       <use xlink:href="#DejaVuSans-31" transform="translate(83.789062 0)"/>
       <use xlink:href="#DejaVuSans-30" transform="translate(147.412109 0)"/>
      </g>
     </g>
    </g>
    <g id="ytick_4">
     <g id="line2d_17">
      <path d="M 55.139375 259.850961 
L 403.889375 259.850961 
" clip-path="url(#p1da352dbbc)" style="fill: none; stroke: #2a2a4a; stroke-opacity: 0.3; stroke-width: 0.8; stroke-linecap: square"/>
     </g>
     <g id="line2d_18">
      <g>
       <use xlink:href="#mbbb6db6b81" x="55.139375" y="259.850961" style="fill: #eaeaea; stroke: #eaeaea; stroke-width: 0.8"/>
      </g>
     </g>
     <g id="text_10">
      <!-- 0 -->
      <g style="fill: #eaeaea" transform="translate(40.504375 264.410023) scale(0.12 -0.12)">
       <use xlink:href="#DejaVuSans-30"/>
      </g>
     </g>
    </g>
    <g id="ytick_5">
     <g id="line2d_19">
      <path d="M 55.139375 199.164495 
L 403.889375 199.164495 
" clip-path="url(#p1da352dbbc)" style="fill: none; stroke: #2a2a4a; stroke-opacity: 0.3; stroke-width: 0.8; stroke-linecap: square"/>
     </g>
     <g id="line2d_20">
      <g>
       <use xlink:href="#mbbb6db6b81" x="55.139375" y="199.164495" style="fill: #eaeaea; stroke: #eaeaea; stroke-width: 0.8"/>
      </g>
     </g>
     <g id="text_11">
      <!-- 10 -->
      <g style="fill: #eaeaea" transform="translate(32.869375 203.723557) scale(0.12 -0.12)">
       <use xlink:href="#DejaVuSans-31"/>
       <use xlink:href="#DejaVuSans-30" transform="translate(63.623047 0)"/>
      </g>
     </g>
    </g>
    <g id="ytick_6">
     <g id="line2d_21">
      <path d="M 55.139375 138.478029 
L 403.889375 138.478029 
" clip-path="url(#p1da352dbbc)" style="fill: none; stroke: #2a2a4a; stroke-opacity: 0.3; stroke-width: 0.8; stroke-linecap: square"/>
     </g>
     <g id="line2d_22">
      <g>
       <use xlink:href="#mbbb6db6b81" x="55.139375" y="138.478029" style="fill: #eaeaea; stroke: #eaeaea; stroke-width: 0.8"/>
      </g>
     </g>
     <g id="text_12">
      <!-- 20 -->
      <g style="fill: #eaeaea" transform="translate(32.869375 143.037091) scale(0.12 -0.12)">
       <use xlink:href="#DejaVuSans-32"/>
       <use xlink:href="#DejaVuSans-30" transform="translate(63.623047 0)"/>
      </g>
     </g>
    </g>
    <g id="ytick_7">
     <g id="line2d_23">
      <path d="M 55.139375 77.791562 
L 403.889375 77.791562 
" clip-path="url(#p1da352dbbc)" style="fill: none; stroke: #2a2a4a; stroke-opacity: 0.3; stroke-width: 0.8; stroke-linecap: square"/>
     </g>
     <g id="line2d_24">
      <g>
       <use xlink:href="#mbbb6db6b81" x="55.139375" y="77.791562" style="fill: #eaeaea; stroke: #eaeaea; stroke-width: 0.8"/>
      </g>
     </g>
     <g id="text_13">
      <!-- 30 -->
      <g style="fill: #eaeaea" transform="translate(32.869375 82.350625) scale(0.12 -0.12)">
       <use xlink:href="#DejaVuSans-33"/>
       <use xlink:href="#DejaVuSans-30" transform="translate(63.623047 0)"/>
      </g>
     </g>
    </g>
    <g id="text_14">
     <!-- ln(k) -->
     <g style="fill: #eaeaea" transform="translate(16.318125 280.385625) rotate(-90) scale(0.12 -0.12)">
      <defs>
       <path id="DejaVuSans-6c" d="M 603 4863 
L 1178 4863 
L 1178 0 
L 603 0 
L 603 4863 
z
" transform="scale(0.015625)"/>
       <path id="DejaVuSans-6e" d="M 3513 2113 
L 3513 0 
L 2938 0 
L 2938 2094 
Q 2938 2591 2744 2837 
Q 2550 3084 2163 3084 
Q 1697 3084 1428 2787 
Q 1159 2491 1159 1978 
L 1159 0 
L 581 0 
L 581 3500 
L 1159 3500 
L 1159 2956 
Q 1366 3272 1645 3428 
Q 1925 3584 2291 3584 
Q 2894 3584 3203 3211 
Q 3513 2838 3513 2113 
z
" transform="scale(0.015625)"/>
       <path id="DejaVuSans-6b" d="M 581 4863 
L 1159 4863 
L 1159 1991 
L 2875 3500 
L 3609 3500 
L 1753 1863 
L 3688 0 
L 2938 0 
L 1159 1709 
L 1159 0 
L 581 0 
L 581 4863 
z
" transform="scale(0.015625)"/>
      </defs>
      <use xlink:href="#DejaVuSans-6c"/>
      <use xlink:href="#DejaVuSans-6e" transform="translate(27.783203 0)"/>
      <use xlink:href="#DejaVuSans-28" transform="translate(91.162109 0)"/>
      <use xlink:href="#DejaVuSans-6b" transform="translate(130.175781 0)"/>
      <use xlink:href="#DejaVuSans-29" transform="translate(188.085938 0)"/>
     </g>
    </g>
   </g>
   <g id="line2d_25">
    <path d="M 388.037102 151.187586 
L 70.991648 90.36 
L 70.991648 90.36 
" clip-path="url(#p1da352dbbc)" style="fill: none; stroke: #ffd700; stroke-width: 2.5; stroke-linecap: square"/>
   </g>
   <g id="line2d_26">
    <path d="M 388.037102 224.18069 
L 70.991648 102.525517 
L 70.991648 102.525517 
" clip-path="url(#p1da352dbbc)" style="fill: none; stroke: #00d2ff; stroke-width: 2.5; stroke-linecap: square"/>
   </g>
   <g id="line2d_27">
    <path d="M 388.037102 297.173793 
L 70.991648 114.691034 
L 70.991648 114.691034 
" clip-path="url(#p1da352dbbc)" style="fill: none; stroke: #2ecc71; stroke-width: 2.5; stroke-linecap: square"/>
   </g>
   <g id="line2d_28">
    <path d="M 388.037102 370.166897 
L 70.991648 126.856552 
L 70.991648 126.856552 
" clip-path="url(#p1da352dbbc)" style="fill: none; stroke: #ff6b9d; stroke-width: 2.5; stroke-linecap: square"/>
   </g>
   <g id="line2d_29">
    <path d="M 388.037102 443.16 
L 70.991648 139.022069 
L 70.991648 139.022069 
" clip-path="url(#p1da352dbbc)" style="fill: none; stroke: #f39c12; stroke-width: 2.5; stroke-linecap: square"/>
   </g>
   <g id="patch_3">
    <path d="M 55.139375 460.8 
L 55.139375 72.72 
" style="fill: none; stroke: #2a2a4a; stroke-width: 0.8; stroke-linejoin: miter; stroke-linecap: square"/>
   </g>
   <g id="patch_4">
    <path d="M 403.889375 460.8 
L 403.889375 72.72 
" style="fill: none; stroke: #2a2a4a; stroke-width: 0.8; stroke-linejoin: miter; stroke-linecap: square"/>
   </g>
   <g id="patch_5">
    <path d="M 55.139375 460.8 
L 403.889375 460.8 
" style="fill: none; stroke: #2a2a4a; stroke-width: 0.8; stroke-linejoin: miter; stroke-linecap: square"/>
   </g>
   <g id="patch_6">
    <path d="M 55.139375 72.72 
L 403.889375 72.72 
" style="fill: none; stroke: #2a2a4a; stroke-width: 0.8; stroke-linejoin: miter; stroke-linecap: square"/>
   </g>
   <g id="text_15">
    <g id="patch_7">
     <path d="M 307.926875 130.358025 
L 393.426875 130.358025 
Q 397.426875 130.358025 397.426875 126.358025 
L 397.426875 80.342088 
Q 397.426875 76.342088 393.426875 76.342088 
L 307.926875 76.342088 
Q 303.926875 76.342088 303.926875 80.342088 
L 303.926875 126.358025 
Q 303.926875 130.358025 307.926875 130.358025 
z
" style="fill: #1a1a2e; opacity: 0.8; stroke: #ffffff; stroke-linejoin: miter"/>
    </g>
    <!-- $\ln k = \ln A - \dfrac{E_a}{R} \cdot \dfrac{1}{T}$ -->
    <g style="fill: #ffd700" transform="translate(307.926875 97.8624) scale(0.1 -0.1)">
     <defs>
      <path id="DejaVuSans-Oblique-6b" d="M 1172 4863 
L 1747 4863 
L 1197 2028 
L 3169 3500 
L 3916 3500 
L 1716 1825 
L 3322 0 
L 2625 0 
L 1131 1709 
L 800 0 
L 225 0 
L 1172 4863 
z
" transform="scale(0.015625)"/>
      <path id="DejaVuSans-3d" d="M 678 2906 
L 4684 2906 
L 4684 2381 
L 678 2381 
L 678 2906 
z
M 678 1631 
L 4684 1631 
L 4684 1100 
L 678 1100 
L 678 1631 
z
" transform="scale(0.015625)"/>
      <path id="DejaVuSans-Oblique-41" d="M 2356 4666 
L 3072 4666 
L 3938 0 
L 3278 0 
L 3084 1197 
L 984 1197 
L 325 0 
L -341 0 
L 2356 4666 
z
M 2584 4044 
L 1275 1722 
L 2988 1722 
L 2584 4044 
z
" transform="scale(0.015625)"/>
      <path id="DejaVuSans-Oblique-45" d="M 1081 4666 
L 4031 4666 
L 3928 4134 
L 1606 4134 
L 1338 2753 
L 3566 2753 
L 3463 2222 
L 1234 2222 
L 909 531 
L 3284 531 
L 3181 0 
L 172 0 
L 1081 4666 
z
" transform="scale(0.015625)"/>
      <path id="DejaVuSans-Oblique-61" d="M 3438 1997 
L 3047 0 
L 2472 0 
L 2578 531 
Q 2325 219 2001 64 
Q 1678 -91 1281 -91 
Q 834 -91 548 182 
Q 263 456 263 884 
Q 263 1497 752 1853 
Q 1241 2209 2100 2209 
L 2900 2209 
L 2931 2363 
Q 2938 2388 2941 2417 
Q 2944 2447 2944 2509 
Q 2944 2788 2717 2942 
Q 2491 3097 2081 3097 
Q 1800 3097 1504 3025 
Q 1209 2953 897 2809 
L 997 3341 
Q 1322 3463 1633 3523 
Q 1944 3584 2234 3584 
Q 2853 3584 3176 3315 
Q 3500 3047 3500 2534 
Q 3500 2431 3484 2292 
Q 3469 2153 3438 1997 
z
M 2816 1759 
L 2241 1759 
Q 1534 1759 1195 1570 
Q 856 1381 856 984 
Q 856 709 1029 553 
Q 1203 397 1509 397 
Q 1978 397 2328 733 
Q 2678 1069 2791 1631 
L 2816 1759 
z
" transform="scale(0.015625)"/>
      <path id="DejaVuSans-Oblique-52" d="M 1613 4147 
L 1294 2491 
L 2106 2491 
Q 2584 2491 2879 2755 
Q 3175 3019 3175 3444 
Q 3175 3784 2976 3965 
Q 2778 4147 2406 4147 
L 1613 4147 
z
M 2772 2241 
Q 2972 2194 3105 2009 
Q 3238 1825 3413 1275 
L 3809 0 
L 3144 0 
L 2778 1197 
Q 2638 1659 2453 1815 
Q 2269 1972 1888 1972 
L 1191 1972 
L 806 0 
L 172 0 
L 1081 4666 
L 2503 4666 
Q 3150 4666 3495 4373 
Q 3841 4081 3841 3531 
Q 3841 3044 3547 2687 
Q 3253 2331 2772 2241 
z
" transform="scale(0.015625)"/>
      <path id="DejaVuSans-22c5" d="M 684 2619 
L 1344 2619 
L 1344 1825 
L 684 1825 
L 684 2619 
z
" transform="scale(0.015625)"/>
      <path id="DejaVuSans-Oblique-54" d="M 378 4666 
L 4325 4666 
L 4225 4134 
L 2559 4134 
L 1759 0 
L 1125 0 
L 1925 4134 
L 275 4134 
L 378 4666 
z
" transform="scale(0.015625)"/>
     </defs>
     <use xlink:href="#DejaVuSans-6c" transform="translate(0 0.895312)"/>
     <use xlink:href="#DejaVuSans-6e" transform="translate(27.783203 0.895312)"/>
     <use xlink:href="#DejaVuSans-Oblique-6b" transform="translate(107.397786 0.895312)"/>
     <use xlink:href="#DejaVuSans-3d" transform="translate(184.790364 0.895312)"/>
     <use xlink:href="#DejaVuSans-6c" transform="translate(288.061848 0.895312)"/>
     <use xlink:href="#DejaVuSans-6e" transform="translate(315.845051 0.895312)"/>
     <use xlink:href="#DejaVuSans-Oblique-41" transform="translate(395.459634 0.895312)"/>
     <use xlink:href="#DejaVuSans-2212" transform="translate(483.350259 0.895312)"/>
     <use xlink:href="#DejaVuSans-Oblique-45" transform="translate(586.621743 62.09375)"/>
     <use xlink:href="#DejaVuSans-Oblique-61" transform="translate(649.805337 45.6875) scale(0.7)"/>
     <use xlink:href="#DejaVuSans-Oblique-52" transform="translate(606.621743 -59.464063)"/>
     <use xlink:href="#DejaVuSans-22c5" transform="translate(727.417642 0.895312)"/>
     <use xlink:href="#DejaVuSans-31" transform="translate(778.687173 44.692187)"/>
     <use xlink:href="#DejaVuSans-Oblique-54" transform="translate(779.687173 -59.464063)"/>
     <path d="M 586.621743 19.692188 
L 586.621743 25.942188 
L 695.43522 25.942188 
L 695.43522 19.692188 
L 586.621743 19.692188 
z
"/>
     <path d="M 778.687173 19.692187 
L 778.687173 25.942187 
L 842.31022 25.942187 
L 842.31022 19.692187 
L 778.687173 19.692187 
z
"/>
    </g>
    <!--  -->
    <g style="fill: #ffd700" transform="translate(393.426875 113.080525) scale(0.1 -0.1)"/>
    <!-- Slope = −Eₐ/R -->
    <g style="fill: #ffd700" transform="translate(322.012812 124.278338) scale(0.1 -0.1)">
     <defs>
      <path id="DejaVuSans-53" d="M 3425 4513 
L 3425 3897 
Q 3066 4069 2747 4153 
Q 2428 4238 2131 4238 
Q 1616 4238 1336 4038 
Q 1056 3838 1056 3469 
Q 1056 3159 1242 3001 
Q 1428 2844 1947 2747 
L 2328 2669 
Q 3034 2534 3370 2195 
Q 3706 1856 3706 1288 
Q 3706 609 3251 259 
Q 2797 -91 1919 -91 
Q 1588 -91 1214 -16 
Q 841 59 441 206 
L 441 856 
Q 825 641 1194 531 
Q 1563 422 1919 422 
Q 2459 422 2753 634 
Q 3047 847 3047 1241 
Q 3047 1584 2836 1778 
Q 2625 1972 2144 2069 
L 1759 2144 
Q 1053 2284 737 2584 
Q 422 2884 422 3419 
Q 422 4038 858 4394 
Q 1294 4750 2059 4750 
Q 2388 4750 2728 4690 
Q 3069 4631 3425 4513 
z
" transform="scale(0.015625)"/>
      <path id="DejaVuSans-6f" d="M 1959 3097 
Q 1497 3097 1228 2736 
Q 959 2375 959 1747 
Q 959 1119 1226 758 
Q 1494 397 1959 397 
Q 2419 397 2687 759 
Q 2956 1122 2956 1747 
Q 2956 2369 2687 2733 
Q 2419 3097 1959 3097 
z
M 1959 3584 
Q 2709 3584 3137 3096 
Q 3566 2609 3566 1747 
Q 3566 888 3137 398 
Q 2709 -91 1959 -91 
Q 1206 -91 779 398 
Q 353 888 353 1747 
Q 353 2609 779 3096 
Q 1206 3584 1959 3584 
z
" transform="scale(0.015625)"/>
      <path id="DejaVuSans-70" d="M 1159 525 
L 1159 -1331 
L 581 -1331 
L 581 3500 
L 1159 3500 
L 1159 2969 
Q 1341 3281 1617 3432 
Q 1894 3584 2278 3584 
Q 2916 3584 3314 3078 
Q 3713 2572 3713 1747 
Q 3713 922 3314 415 
Q 2916 -91 2278 -91 
Q 1894 -91 1617 61 
Q 1341 213 1159 525 
z
M 3116 1747 
Q 3116 2381 2855 2742 
Q 2594 3103 2138 3103 
Q 1681 3103 1420 2742 
Q 1159 2381 1159 1747 
Q 1159 1113 1420 752 
Q 1681 391 2138 391 
Q 2594 391 2855 752 
Q 3116 1113 3116 1747 
z
" transform="scale(0.015625)"/>
      <path id="DejaVuSans-65" d="M 3597 1894 
L 3597 1613 
L 953 1613 
Q 991 1019 1311 708 
Q 1631 397 2203 397 
Q 2534 397 2845 478 
Q 3156 559 3463 722 
L 3463 178 
Q 3153 47 2828 -22 
Q 2503 -91 2169 -91 
Q 1331 -91 842 396 
Q 353 884 353 1716 
Q 353 2575 817 3079 
Q 1281 3584 2069 3584 
Q 2775 3584 3186 3129 
Q 3597 2675 3597 1894 
z
M 3022 2063 
Q 3016 2534 2758 2815 
Q 2500 3097 2075 3097 
Q 1594 3097 1305 2825 
Q 1016 2553 972 2059 
L 3022 2063 
z
" transform="scale(0.015625)"/>
      <path id="DejaVuSans-45" d="M 628 4666 
L 3578 4666 
L 3578 4134 
L 1259 4134 
L 1259 2753 
L 3481 2753 
L 3481 2222 
L 1259 2222 
L 1259 531 
L 3634 531 
L 3634 0 
L 628 0 
L 628 4666 
z
" transform="scale(0.015625)"/>
      <path id="DejaVuSans-2090" d="M 1381 960 
Q 944 960 775 872 
Q 603 782 603 566 
Q 603 394 731 294 
Q 859 194 1078 194 
Q 1378 194 1559 385 
Q 1744 576 1744 888 
L 1744 960 
L 1381 960 
z
M 2103 1094 
L 2103 -24 
L 1744 -24 
L 1744 272 
Q 1619 94 1434 10 
Q 1247 -74 981 -74 
Q 641 -74 441 94 
Q 241 263 241 547 
Q 241 876 491 1044 
Q 741 1213 1234 1213 
L 1744 1213 
L 1744 1244 
Q 1744 1466 1578 1588 
Q 1413 1710 1116 1710 
Q 928 1710 747 1669 
Q 569 1629 403 1547 
L 403 1847 
Q 603 1913 791 1947 
Q 975 1982 1153 1982 
Q 1631 1982 1869 1763 
Q 2103 1541 2103 1094 
z
" transform="scale(0.015625)"/>
      <path id="DejaVuSans-52" d="M 2841 2188 
Q 3044 2119 3236 1894 
Q 3428 1669 3622 1275 
L 4263 0 
L 3584 0 
L 2988 1197 
Q 2756 1666 2539 1819 
Q 2322 1972 1947 1972 
L 1259 1972 
L 1259 0 
L 628 0 
L 628 4666 
L 2053 4666 
Q 2853 4666 3247 4331 
Q 3641 3997 3641 3322 
Q 3641 2881 3436 2590 
Q 3231 2300 2841 2188 
z
M 1259 4147 
L 1259 2491 
L 2053 2491 
Q 2509 2491 2742 2702 
Q 2975 2913 2975 3322 
Q 2975 3731 2742 3939 
Q 2509 4147 2053 4147 
L 1259 4147 
z
" transform="scale(0.015625)"/>
     </defs>
     <use xlink:href="#DejaVuSans-53"/>
     <use xlink:href="#DejaVuSans-6c" transform="translate(63.476562 0)"/>
     <use xlink:href="#DejaVuSans-6f" transform="translate(91.259766 0)"/>
     <use xlink:href="#DejaVuSans-70" transform="translate(152.441406 0)"/>
     <use xlink:href="#DejaVuSans-65" transform="translate(215.917969 0)"/>
     <use xlink:href="#DejaVuSans-20" transform="translate(277.441406 0)"/>
     <use xlink:href="#DejaVuSans-3d" transform="translate(309.228516 0)"/>
     <use xlink:href="#DejaVuSans-20" transform="translate(393.017578 0)"/>
     <use xlink:href="#DejaVuSans-2212" transform="translate(424.804688 0)"/>
     <use xlink:href="#DejaVuSans-45" transform="translate(508.59375 0)"/>
     <use xlink:href="#DejaVuSans-2090" transform="translate(571.777344 0)"/>
     <use xlink:href="#DejaVuSans-2f" transform="translate(610.9375 0)"/>
     <use xlink:href="#DejaVuSans-52" transform="translate(644.628906 0)"/>
    </g>
   </g>
   <g id="text_16">
    <!-- Arrhenius Plot  —  ln(k) vs 1/T -->
    <g style="fill: #eaeaea" transform="translate(110.605625 62.72) scale(0.16 -0.16)">
     <defs>
      <path id="DejaVuSans-41" d="M 2188 4044 
L 1331 1722 
L 3047 1722 
L 2188 4044 
z
M 1831 4666 
L 2547 4666 
L 4325 0 
L 3669 0 
L 3244 1197 
L 1141 1197 
L 716 0 
L 50 0 
L 1831 4666 
z
" transform="scale(0.015625)"/>
      <path id="DejaVuSans-72" d="M 2631 2963 
Q 2534 3019 2420 3045 
Q 2306 3072 2169 3072 
Q 1681 3072 1420 2755 
Q 1159 2438 1159 1844 
L 1159 0 
L 581 0 
L 581 3500 
L 1159 3500 
L 1159 2956 
Q 1341 3275 1631 3429 
Q 1922 3584 2338 3584 
Q 2397 3584 2469 3576 
Q 2541 3569 2628 3553 
L 2631 2963 
z
" transform="scale(0.015625)"/>
      <path id="DejaVuSans-68" d="M 3513 2113 
L 3513 0 
L 2938 0 
L 2938 2094 
Q 2938 2591 2744 2837 
Q 2550 3084 2163 3084 
Q 1697 3084 1428 2787 
Q 1159 2491 1159 1978 
L 1159 0 
L 581 0 
L 581 4863 
L 1159 4863 
L 1159 2956 
Q 1366 3272 1645 3428 
Q 1925 3584 2291 3584 
Q 2894 3584 3203 3211 
Q 3513 2838 3513 2113 
z
" transform="scale(0.015625)"/>
      <path id="DejaVuSans-69" d="M 603 3500 
L 1178 3500 
L 1178 0 
L 603 0 
L 603 3500 
z
M 603 4863 
L 1178 4863 
L 1178 4134 
L 603 4134 
L 603 4863 
z
" transform="scale(0.015625)"/>
      <path id="DejaVuSans-75" d="M 544 1381 
L 544 3500 
L 1119 3500 
L 1119 1403 
Q 1119 906 1312 657 
Q 1506 409 1894 409 
Q 2359 409 2629 706 
Q 2900 1003 2900 1516 
L 2900 3500 
L 3475 3500 
L 3475 0 
L 2900 0 
L 2900 538 
Q 2691 219 2414 64 
Q 2138 -91 1772 -91 
Q 1169 -91 856 284 
Q 544 659 544 1381 
z
M 1991 3584 
L 1991 3584 
z
" transform="scale(0.015625)"/>
      <path id="DejaVuSans-73" d="M 2834 3397 
L 2834 2853 
Q 2591 2978 2328 3040 
Q 2066 3103 1784 3103 
Q 1356 3103 1142 2972 
Q 928 2841 928 2578 
Q 928 2378 1081 2264 
Q 1234 2150 1697 2047 
L 1894 2003 
Q 2506 1872 2764 1633 
Q 3022 1394 3022 966 
Q 3022 478 2636 193 
Q 2250 -91 1575 -91 
Q 1294 -91 989 -36 
Q 684 19 347 128 
L 347 722 
Q 666 556 975 473 
Q 1284 391 1588 391 
Q 1994 391 2212 530 
Q 2431 669 2431 922 
Q 2431 1156 2273 1281 
Q 2116 1406 1581 1522 
L 1381 1569 
Q 847 1681 609 1914 
Q 372 2147 372 2553 
Q 372 3047 722 3315 
Q 1072 3584 1716 3584 
Q 2034 3584 2315 3537 
Q 2597 3491 2834 3397 
z
" transform="scale(0.015625)"/>
      <path id="DejaVuSans-50" d="M 1259 4147 
L 1259 2394 
L 2053 2394 
Q 2494 2394 2734 2622 
Q 2975 2850 2975 3272 
Q 2975 3691 2734 3919 
Q 2494 4147 2053 4147 
L 1259 4147 
z
M 628 4666 
L 2053 4666 
Q 2838 4666 3239 4311 
Q 3641 3956 3641 3272 
Q 3641 2581 3239 2228 
Q 2838 1875 2053 1875 
L 1259 1875 
L 1259 0 
L 628 0 
L 628 4666 
z
" transform="scale(0.015625)"/>
      <path id="DejaVuSans-74" d="M 1172 4494 
L 1172 3500 
L 2356 3500 
L 2356 3053 
L 1172 3053 
L 1172 1153 
Q 1172 725 1289 603 
Q 1406 481 1766 481 
L 2356 481 
L 2356 0 
L 1766 0 
Q 1100 0 847 248 
Q 594 497 594 1153 
L 594 3053 
L 172 3053 
L 172 3500 
L 594 3500 
L 594 4494 
L 1172 4494 
z
" transform="scale(0.015625)"/>
      <path id="DejaVuSans-2014" d="M 313 1978 
L 6088 1978 
L 6088 1528 
L 313 1528 
L 313 1978 
z
" transform="scale(0.015625)"/>
      <path id="DejaVuSans-76" d="M 191 3500 
L 800 3500 
L 1894 563 
L 2988 3500 
L 3597 3500 
L 2284 0 
L 1503 0 
L 191 3500 
z
" transform="scale(0.015625)"/>
     </defs>
     <use xlink:href="#DejaVuSans-41"/>
     <use xlink:href="#DejaVuSans-72" transform="translate(68.408203 0)"/>
     <use xlink:href="#DejaVuSans-72" transform="translate(107.771484 0)"/>
     <use xlink:href="#DejaVuSans-68" transform="translate(147.134766 0)"/>
     <use xlink:href="#DejaVuSans-65" transform="translate(210.513672 0)"/>
     <use xlink:href="#DejaVuSans-6e" transform="translate(272.037109 0)"/>
     <use xlink:href="#DejaVuSans-69" transform="translate(335.416016 0)"/>
     <use xlink:href="#DejaVuSans-75" transform="translate(363.199219 0)"/>
     <use xlink:href="#DejaVuSans-73" transform="translate(426.578125 0)"/>
     <use xlink:href="#DejaVuSans-20" transform="translate(478.677734 0)"/>
     <use xlink:href="#DejaVuSans-50" transform="translate(510.464844 0)"/>
     <use xlink:href="#DejaVuSans-6c" transform="translate(570.767578 0)"/>
     <use xlink:href="#DejaVuSans-6f" transform="translate(598.550781 0)"/>
     <use xlink:href="#DejaVuSans-74" transform="translate(659.732422 0)"/>
     <use xlink:href="#DejaVuSans-20" transform="translate(698.941406 0)"/>
     <use xlink:href="#DejaVuSans-20" transform="translate(730.728516 0)"/>
     <use xlink:href="#DejaVuSans-2014" transform="translate(762.515625 0)"/>
     <use xlink:href="#DejaVuSans-20" transform="translate(862.515625 0)"/>
     <use xlink:href="#DejaVuSans-20" transform="translate(894.302734 0)"/>
     <use xlink:href="#DejaVuSans-6c" transform="translate(926.089844 0)"/>
     <use xlink:href="#DejaVuSans-6e" transform="translate(953.873047 0)"/>
     <use xlink:href="#DejaVuSans-28" transform="translate(1017.251953 0)"/>
     <use xlink:href="#DejaVuSans-6b" transform="translate(1056.265625 0)"/>
     <use xlink:href="#DejaVuSans-29" transform="translate(1114.175781 0)"/>
     <use xlink:href="#DejaVuSans-20" transform="translate(1153.189453 0)"/>
     <use xlink:href="#DejaVuSans-76" transform="translate(1184.976562 0)"/>
     <use xlink:href="#DejaVuSans-73" transform="translate(1244.15625 0)"/>
     <use xlink:href="#DejaVuSans-20" transform="translate(1296.255859 0)"/>
     <use xlink:href="#DejaVuSans-31" transform="translate(1328.042969 0)"/>
     <use xlink:href="#DejaVuSans-2f" transform="translate(1391.666016 0)"/>
     <use xlink:href="#DejaVuSans-54" transform="translate(1425.357422 0)"/>
    </g>
   </g>
   <g id="legend_1">
    <g id="patch_8">
     <path d="M 61.439375 456.3 
L 137.950625 456.3 
Q 139.750625 456.3 139.750625 454.5 
L 139.750625 377.105938 
Q 139.750625 375.305938 137.950625 375.305938 
L 61.439375 375.305938 
Q 59.639375 375.305938 59.639375 377.105938 
L 59.639375 454.5 
Q 59.639375 456.3 61.439375 456.3 
z
" style="fill: #16213e; opacity: 0.8; stroke: #2a2a4a; stroke-linejoin: miter"/>
    </g>
    <g id="text_17">
     <!-- Activation Energy -->
     <g style="fill: #eaeaea" transform="translate(64.393125 384.984688) scale(0.08 -0.08)">
      <defs>
       <path id="DejaVuSans-63" d="M 3122 3366 
L 3122 2828 
Q 2878 2963 2633 3030 
Q 2388 3097 2138 3097 
Q 1578 3097 1268 2742 
Q 959 2388 959 1747 
Q 959 1106 1268 751 
Q 1578 397 2138 397 
Q 2388 397 2633 464 
Q 2878 531 3122 666 
L 3122 134 
Q 2881 22 2623 -34 
Q 2366 -91 2075 -91 
Q 1284 -91 818 406 
Q 353 903 353 1747 
Q 353 2603 823 3093 
Q 1294 3584 2113 3584 
Q 2378 3584 2631 3529 
Q 2884 3475 3122 3366 
z
" transform="scale(0.015625)"/>
       <path id="DejaVuSans-61" d="M 2194 1759 
Q 1497 1759 1228 1600 
Q 959 1441 959 1056 
Q 959 750 1161 570 
Q 1363 391 1709 391 
Q 2188 391 2477 730 
Q 2766 1069 2766 1631 
L 2766 1759 
L 2194 1759 
z
M 3341 1997 
L 3341 0 
L 2766 0 
L 2766 531 
Q 2569 213 2275 61 
Q 1981 -91 1556 -91 
Q 1019 -91 701 211 
Q 384 513 384 1019 
Q 384 1609 779 1909 
Q 1175 2209 1959 2209 
L 2766 2209 
L 2766 2266 
Q 2766 2663 2505 2880 
Q 2244 3097 1772 3097 
Q 1472 3097 1187 3025 
Q 903 2953 641 2809 
L 641 3341 
Q 956 3463 1253 3523 
Q 1550 3584 1831 3584 
Q 2591 3584 2966 3190 
Q 3341 2797 3341 1997 
z
" transform="scale(0.015625)"/>
       <path id="DejaVuSans-67" d="M 2906 1791 
Q 2906 2416 2648 2759 
Q 2391 3103 1925 3103 
Q 1463 3103 1205 2759 
Q 947 2416 947 1791 
Q 947 1169 1205 825 
Q 1463 481 1925 481 
Q 2391 481 2648 825 
Q 2906 1169 2906 1791 
z
M 3481 434 
Q 3481 -459 3084 -895 
Q 2688 -1331 1869 -1331 
Q 1566 -1331 1297 -1286 
Q 1028 -1241 775 -1147 
L 775 -588 
Q 1028 -725 1275 -790 
Q 1522 -856 1778 -856 
Q 2344 -856 2625 -561 
Q 2906 -266 2906 331 
L 2906 616 
Q 2728 306 2450 153 
Q 2172 0 1784 0 
Q 1141 0 747 490 
Q 353 981 353 1791 
Q 353 2603 747 3093 
Q 1141 3584 1784 3584 
Q 2172 3584 2450 3431 
Q 2728 3278 2906 2969 
L 2906 3500 
L 3481 3500 
L 3481 434 
z
" transform="scale(0.015625)"/>
       <path id="DejaVuSans-79" d="M 2059 -325 
Q 1816 -950 1584 -1140 
Q 1353 -1331 966 -1331 
L 506 -1331 
L 506 -850 
L 844 -850 
Q 1081 -850 1212 -737 
Q 1344 -625 1503 -206 
L 1606 56 
L 191 3500 
L 800 3500 
L 1894 763 
L 2988 3500 
L 3597 3500 
L 2059 -325 
z
" transform="scale(0.015625)"/>
      </defs>
      <use xlink:href="#DejaVuSans-41"/>
      <use xlink:href="#DejaVuSans-63" transform="translate(66.658203 0)"/>
      <use xlink:href="#DejaVuSans-74" transform="translate(121.638672 0)"/>
      <use xlink:href="#DejaVuSans-69" transform="translate(160.847656 0)"/>
      <use xlink:href="#DejaVuSans-76" transform="translate(188.630859 0)"/>
      <use xlink:href="#DejaVuSans-61" transform="translate(247.810547 0)"/>
      <use xlink:href="#DejaVuSans-74" transform="translate(309.089844 0)"/>
      <use xlink:href="#DejaVuSans-69" transform="translate(348.298828 0)"/>
      <use xlink:href="#DejaVuSans-6f" transform="translate(376.082031 0)"/>
      <use xlink:href="#DejaVuSans-6e" transform="translate(437.263672 0)"/>
      <use xlink:href="#DejaVuSans-20" transform="translate(500.642578 0)"/>
      <use xlink:href="#DejaVuSans-45" transform="translate(532.429688 0)"/>
      <use xlink:href="#DejaVuSans-6e" transform="translate(595.613281 0)"/>
      <use xlink:href="#DejaVuSans-65" transform="translate(658.992188 0)"/>
      <use xlink:href="#DejaVuSans-72" transform="translate(720.515625 0)"/>
      <use xlink:href="#DejaVuSans-67" transform="translate(759.878906 0)"/>
      <use xlink:href="#DejaVuSans-79" transform="translate(823.355469 0)"/>
     </g>
    </g>
    <g id="line2d_30">
     <path d="M 63.239375 394.837031 
L 72.239375 394.837031 
L 81.239375 394.837031 
" style="fill: none; stroke: #ffd700; stroke-width: 2.5; stroke-linecap: square"/>
    </g>
    <g id="text_18">
     <!-- 20 kJ/mol -->
     <g style="fill: #eaeaea" transform="translate(88.439375 397.987031) scale(0.09 -0.09)">
      <defs>
       <path id="DejaVuSans-4a" d="M 628 4666 
L 1259 4666 
L 1259 325 
Q 1259 -519 939 -900 
Q 619 -1281 -91 -1281 
L -331 -1281 
L -331 -750 
L -134 -750 
Q 284 -750 456 -515 
Q 628 -281 628 325 
L 628 4666 
z
" transform="scale(0.015625)"/>
       <path id="DejaVuSans-6d" d="M 3328 2828 
Q 3544 3216 3844 3400 
Q 4144 3584 4550 3584 
Q 5097 3584 5394 3201 
Q 5691 2819 5691 2113 
L 5691 0 
L 5113 0 
L 5113 2094 
Q 5113 2597 4934 2840 
Q 4756 3084 4391 3084 
Q 3944 3084 3684 2787 
Q 3425 2491 3425 1978 
L 3425 0 
L 2847 0 
L 2847 2094 
Q 2847 2600 2669 2842 
Q 2491 3084 2119 3084 
Q 1678 3084 1418 2786 
Q 1159 2488 1159 1978 
L 1159 0 
L 581 0 
L 581 3500 
L 1159 3500 
L 1159 2956 
Q 1356 3278 1631 3431 
Q 1906 3584 2284 3584 
Q 2666 3584 2933 3390 
Q 3200 3197 3328 2828 
z
" transform="scale(0.015625)"/>
      </defs>
      <use xlink:href="#DejaVuSans-32"/>
      <use xlink:href="#DejaVuSans-30" transform="translate(63.623047 0)"/>
      <use xlink:href="#DejaVuSans-20" transform="translate(127.246094 0)"/>
      <use xlink:href="#DejaVuSans-6b" transform="translate(159.033203 0)"/>
      <use xlink:href="#DejaVuSans-4a" transform="translate(216.943359 0)"/>
      <use xlink:href="#DejaVuSans-2f" transform="translate(246.435547 0)"/>
      <use xlink:href="#DejaVuSans-6d" transform="translate(280.126953 0)"/>
      <use xlink:href="#DejaVuSans-6f" transform="translate(377.539062 0)"/>
      <use xlink:href="#DejaVuSans-6c" transform="translate(438.720703 0)"/>
     </g>
    </g>
    <g id="line2d_31">
     <path d="M 63.239375 408.047344 
L 72.239375 408.047344 
L 81.239375 408.047344 
" style="fill: none; stroke: #00d2ff; stroke-width: 2.5; stroke-linecap: square"/>
    </g>
    <g id="text_19">
     <!-- 40 kJ/mol -->
     <g style="fill: #eaeaea" transform="translate(88.439375 411.197344) scale(0.09 -0.09)">
      <use xlink:href="#DejaVuSans-34"/>
      <use xlink:href="#DejaVuSans-30" transform="translate(63.623047 0)"/>
      <use xlink:href="#DejaVuSans-20" transform="translate(127.246094 0)"/>
      <use xlink:href="#DejaVuSans-6b" transform="translate(159.033203 0)"/>
      <use xlink:href="#DejaVuSans-4a" transform="translate(216.943359 0)"/>
      <use xlink:href="#DejaVuSans-2f" transform="translate(246.435547 0)"/>
      <use xlink:href="#DejaVuSans-6d" transform="translate(280.126953 0)"/>
      <use xlink:href="#DejaVuSans-6f" transform="translate(377.539062 0)"/>
      <use xlink:href="#DejaVuSans-6c" transform="translate(438.720703 0)"/>
     </g>
    </g>
    <g id="line2d_32">
     <path d="M 63.239375 421.257656 
L 72.239375 421.257656 
L 81.239375 421.257656 
" style="fill: none; stroke: #2ecc71; stroke-width: 2.5; stroke-linecap: square"/>
    </g>
    <g id="text_20">
     <!-- 60 kJ/mol -->
     <g style="fill: #eaeaea" transform="translate(88.439375 424.407656) scale(0.09 -0.09)">
      <defs>
       <path id="DejaVuSans-36" d="M 2113 2584 
Q 1688 2584 1439 2293 
Q 1191 2003 1191 1497 
Q 1191 994 1439 701 
Q 1688 409 2113 409 
Q 2538 409 2786 701 
Q 3034 994 3034 1497 
Q 3034 2003 2786 2293 
Q 2538 2584 2113 2584 
z
M 3366 4563 
L 3366 3988 
Q 3128 4100 2886 4159 
Q 2644 4219 2406 4219 
Q 1781 4219 1451 3797 
Q 1122 3375 1075 2522 
Q 1259 2794 1537 2939 
Q 1816 3084 2150 3084 
Q 2853 3084 3261 2657 
Q 3669 2231 3669 1497 
Q 3669 778 3244 343 
Q 2819 -91 2113 -91 
Q 1303 -91 875 529 
Q 447 1150 447 2328 
Q 447 3434 972 4092 
Q 1497 4750 2381 4750 
Q 2619 4750 2861 4703 
Q 3103 4656 3366 4563 
z
" transform="scale(0.015625)"/>
      </defs>
      <use xlink:href="#DejaVuSans-36"/>
      <use xlink:href="#DejaVuSans-30" transform="translate(63.623047 0)"/>
      <use xlink:href="#DejaVuSans-20" transform="translate(127.246094 0)"/>
      <use xlink:href="#DejaVuSans-6b" transform="translate(159.033203 0)"/>
      <use xlink:href="#DejaVuSans-4a" transform="translate(216.943359 0)"/>
      <use xlink:href="#DejaVuSans-2f" transform="translate(246.435547 0)"/>
      <use xlink:href="#DejaVuSans-6d" transform="translate(280.126953 0)"/>
      <use xlink:href="#DejaVuSans-6f" transform="translate(377.539062 0)"/>
      <use xlink:href="#DejaVuSans-6c" transform="translate(438.720703 0)"/>
     </g>
    </g>
    <g id="line2d_33">
     <path d="M 63.239375 434.467969 
L 72.239375 434.467969 
L 81.239375 434.467969 
" style="fill: none; stroke: #ff6b9d; stroke-width: 2.5; stroke-linecap: square"/>
    </g>
    <g id="text_21">
     <!-- 80 kJ/mol -->
     <g style="fill: #eaeaea" transform="translate(88.439375 437.617969) scale(0.09 -0.09)">
      <defs>
       <path id="DejaVuSans-38" d="M 2034 2216 
Q 1584 2216 1326 1975 
Q 1069 1734 1069 1313 
Q 1069 891 1326 650 
Q 1584 409 2034 409 
Q 2484 409 2743 651 
Q 3003 894 3003 1313 
Q 3003 1734 2745 1975 
Q 2488 2216 2034 2216 
z
M 1403 2484 
Q 997 2584 770 2862 
Q 544 3141 544 3541 
Q 544 4100 942 4425 
Q 1341 4750 2034 4750 
Q 2731 4750 3128 4425 
Q 3525 4100 3525 3541 
Q 3525 3141 3298 2862 
Q 3072 2584 2669 2484 
Q 3125 2378 3379 2068 
Q 3634 1759 3634 1313 
Q 3634 634 3220 271 
Q 2806 -91 2034 -91 
Q 1263 -91 848 271 
Q 434 634 434 1313 
Q 434 1759 690 2068 
Q 947 2378 1403 2484 
z
M 1172 3481 
Q 1172 3119 1398 2916 
Q 1625 2713 2034 2713 
Q 2441 2713 2670 2916 
Q 2900 3119 2900 3481 
Q 2900 3844 2670 4047 
Q 2441 4250 2034 4250 
Q 1625 4250 1398 4047 
Q 1172 3844 1172 3481 
z
" transform="scale(0.015625)"/>
      </defs>
      <use xlink:href="#DejaVuSans-38"/>
      <use xlink:href="#DejaVuSans-30" transform="translate(63.623047 0)"/>
      <use xlink:href="#DejaVuSans-20" transform="translate(127.246094 0)"/>
      <use xlink:href="#DejaVuSans-6b" transform="translate(159.033203 0)"/>
      <use xlink:href="#DejaVuSans-4a" transform="translate(216.943359 0)"/>
      <use xlink:href="#DejaVuSans-2f" transform="translate(246.435547 0)"/>
      <use xlink:href="#DejaVuSans-6d" transform="translate(280.126953 0)"/>
      <use xlink:href="#DejaVuSans-6f" transform="translate(377.539062 0)"/>
      <use xlink:href="#DejaVuSans-6c" transform="translate(438.720703 0)"/>
     </g>
    </g>
    <g id="line2d_34">
     <path d="M 63.239375 447.678281 
L 72.239375 447.678281 
L 81.239375 447.678281 
" style="fill: none; stroke: #f39c12; stroke-width: 2.5; stroke-linecap: square"/>
    </g>
    <g id="text_22">
     <!-- 100 kJ/mol -->
     <g style="fill: #eaeaea" transform="translate(88.439375 450.828281) scale(0.09 -0.09)">
      <use xlink:href="#DejaVuSans-31"/>
      <use xlink:href="#DejaVuSans-30" transform="translate(63.623047 0)"/>
      <use xlink:href="#DejaVuSans-30" transform="translate(127.246094 0)"/>
      <use xlink:href="#DejaVuSans-20" transform="translate(190.869141 0)"/>
      <use xlink:href="#DejaVuSans-6b" transform="translate(222.65625 0)"/>
      <use xlink:href="#DejaVuSans-4a" transform="translate(280.566406 0)"/>
      <use xlink:href="#DejaVuSans-2f" transform="translate(310.058594 0)"/>
      <use xlink:href="#DejaVuSans-6d" transform="translate(343.75 0)"/>
      <use xlink:href="#DejaVuSans-6f" transform="translate(441.162109 0)"/>
      <use xlink:href="#DejaVuSans-6c" transform="translate(502.34375 0)"/>
     </g>
    </g>
   </g>
  </g>
  <g id="axes_2">
   <g id="patch_9">
    <path d="M 543.389375 460.8 
L 892.139375 460.8 
L 892.139375 72.72 
L 543.389375 72.72 
z
" style="fill: #16213e"/>
   </g>
   <g id="matplotlib.axis_3">
    <g id="xtick_6">
     <g id="line2d_35">
      <path d="M 543.389375 460.8 
L 543.389375 72.72 
" clip-path="url(#pa87c33294a)" style="fill: none; stroke: #2a2a4a; stroke-opacity: 0.3; stroke-width: 0.8; stroke-linecap: square"/>
     </g>
     <g id="line2d_36">
      <g>
       <use xlink:href="#m53fed63744" x="543.389375" y="460.8" style="fill: #eaeaea; stroke: #eaeaea; stroke-width: 0.8"/>
      </g>
     </g>
     <g id="text_23">
      <!-- 200 -->
      <g style="fill: #eaeaea" transform="translate(531.936875 476.918125) scale(0.12 -0.12)">
       <use xlink:href="#DejaVuSans-32"/>
       <use xlink:href="#DejaVuSans-30" transform="translate(63.623047 0)"/>
       <use xlink:href="#DejaVuSans-30" transform="translate(127.246094 0)"/>
      </g>
     </g>
    </g>
    <g id="xtick_7">
     <g id="line2d_37">
      <path d="M 613.139375 460.8 
L 613.139375 72.72 
" clip-path="url(#pa87c33294a)" style="fill: none; stroke: #2a2a4a; stroke-opacity: 0.3; stroke-width: 0.8; stroke-linecap: square"/>
     </g>
     <g id="line2d_38">
      <g>
       <use xlink:href="#m53fed63744" x="613.139375" y="460.8" style="fill: #eaeaea; stroke: #eaeaea; stroke-width: 0.8"/>
      </g>
     </g>
     <g id="text_24">
      <!-- 400 -->
      <g style="fill: #eaeaea" transform="translate(601.686875 476.918125) scale(0.12 -0.12)">
       <use xlink:href="#DejaVuSans-34"/>
       <use xlink:href="#DejaVuSans-30" transform="translate(63.623047 0)"/>
       <use xlink:href="#DejaVuSans-30" transform="translate(127.246094 0)"/>
      </g>
     </g>
    </g>
    <g id="xtick_8">
     <g id="line2d_39">
      <path d="M 682.889375 460.8 
L 682.889375 72.72 
" clip-path="url(#pa87c33294a)" style="fill: none; stroke: #2a2a4a; stroke-opacity: 0.3; stroke-width: 0.8; stroke-linecap: square"/>
     </g>
     <g id="line2d_40">
      <g>
       <use xlink:href="#m53fed63744" x="682.889375" y="460.8" style="fill: #eaeaea; stroke: #eaeaea; stroke-width: 0.8"/>
      </g>
     </g>
     <g id="text_25">
      <!-- 600 -->
      <g style="fill: #eaeaea" transform="translate(671.436875 476.918125) scale(0.12 -0.12)">
       <use xlink:href="#DejaVuSans-36"/>
       <use xlink:href="#DejaVuSans-30" transform="translate(63.623047 0)"/>
       <use xlink:href="#DejaVuSans-30" transform="translate(127.246094 0)"/>
      </g>
     </g>
    </g>
    <g id="xtick_9">
     <g id="line2d_41">
      <path d="M 752.639375 460.8 
L 752.639375 72.72 
" clip-path="url(#pa87c33294a)" style="fill: none; stroke: #2a2a4a; stroke-opacity: 0.3; stroke-width: 0.8; stroke-linecap: square"/>
     </g>
     <g id="line2d_42">
      <g>
       <use xlink:href="#m53fed63744" x="752.639375" y="460.8" style="fill: #eaeaea; stroke: #eaeaea; stroke-width: 0.8"/>
      </g>
     </g>
     <g id="text_26">
      <!-- 800 -->
      <g style="fill: #eaeaea" transform="translate(741.186875 476.918125) scale(0.12 -0.12)">
       <use xlink:href="#DejaVuSans-38"/>
       <use xlink:href="#DejaVuSans-30" transform="translate(63.623047 0)"/>
       <use xlink:href="#DejaVuSans-30" transform="translate(127.246094 0)"/>
      </g>
     </g>
    </g>
    <g id="xtick_10">
     <g id="line2d_43">
      <path d="M 822.389375 460.8 
L 822.389375 72.72 
" clip-path="url(#pa87c33294a)" style="fill: none; stroke: #2a2a4a; stroke-opacity: 0.3; stroke-width: 0.8; stroke-linecap: square"/>
     </g>
     <g id="line2d_44">
      <g>
       <use xlink:href="#m53fed63744" x="822.389375" y="460.8" style="fill: #eaeaea; stroke: #eaeaea; stroke-width: 0.8"/>
      </g>
     </g>
     <g id="text_27">
      <!-- 1000 -->
      <g style="fill: #eaeaea" transform="translate(807.119375 476.918125) scale(0.12 -0.12)">
       <use xlink:href="#DejaVuSans-31"/>
       <use xlink:href="#DejaVuSans-30" transform="translate(63.623047 0)"/>
       <use xlink:href="#DejaVuSans-30" transform="translate(127.246094 0)"/>
       <use xlink:href="#DejaVuSans-30" transform="translate(190.869141 0)"/>
      </g>
     </g>
    </g>
    <g id="xtick_11">
     <g id="line2d_45">
      <path d="M 892.139375 460.8 
L 892.139375 72.72 
" clip-path="url(#pa87c33294a)" style="fill: none; stroke: #2a2a4a; stroke-opacity: 0.3; stroke-width: 0.8; stroke-linecap: square"/>
     </g>
     <g id="line2d_46">
      <g>
       <use xlink:href="#m53fed63744" x="892.139375" y="460.8" style="fill: #eaeaea; stroke: #eaeaea; stroke-width: 0.8"/>
      </g>
     </g>
     <g id="text_28">
      <!-- 1200 -->
      <g style="fill: #eaeaea" transform="translate(876.869375 476.918125) scale(0.12 -0.12)">
       <use xlink:href="#DejaVuSans-31"/>
       <use xlink:href="#DejaVuSans-32" transform="translate(63.623047 0)"/>
       <use xlink:href="#DejaVuSans-30" transform="translate(127.246094 0)"/>
       <use xlink:href="#DejaVuSans-30" transform="translate(190.869141 0)"/>
      </g>
     </g>
    </g>
    <g id="text_29">
     <!-- Temperature (K) -->
     <g style="fill: #eaeaea" transform="translate(669.2375 492.531875) scale(0.12 -0.12)">
      <use xlink:href="#DejaVuSans-54"/>
      <use xlink:href="#DejaVuSans-65" transform="translate(44.083984 0)"/>
      <use xlink:href="#DejaVuSans-6d" transform="translate(105.607422 0)"/>
      <use xlink:href="#DejaVuSans-70" transform="translate(203.019531 0)"/>
      <use xlink:href="#DejaVuSans-65" transform="translate(266.496094 0)"/>
      <use xlink:href="#DejaVuSans-72" transform="translate(328.019531 0)"/>
      <use xlink:href="#DejaVuSans-61" transform="translate(369.132812 0)"/>
      <use xlink:href="#DejaVuSans-74" transform="translate(430.412109 0)"/>
      <use xlink:href="#DejaVuSans-75" transform="translate(469.621094 0)"/>
      <use xlink:href="#DejaVuSans-72" transform="translate(533 0)"/>
      <use xlink:href="#DejaVuSans-65" transform="translate(571.863281 0)"/>
      <use xlink:href="#DejaVuSans-20" transform="translate(633.386719 0)"/>
      <use xlink:href="#DejaVuSans-28" transform="translate(665.173828 0)"/>
      <use xlink:href="#DejaVuSans-4b" transform="translate(704.1875 0)"/>
      <use xlink:href="#DejaVuSans-29" transform="translate(769.763672 0)"/>
     </g>
    </g>
   </g>
   <g id="matplotlib.axis_4">
    <g id="ytick_8">
     <g id="line2d_47">
      <path d="M 543.389375 443.16 
L 892.139375 443.16 
" clip-path="url(#pa87c33294a)" style="fill: none; stroke: #2a2a4a; stroke-opacity: 0.3; stroke-width: 0.8; stroke-linecap: square"/>
     </g>
     <g id="line2d_48">
      <g>
       <use xlink:href="#mbbb6db6b81" x="543.389375" y="443.16" style="fill: #eaeaea; stroke: #eaeaea; stroke-width: 0.8"/>
      </g>
     </g>
     <g id="text_30">
      <!-- 0.0 -->
      <g style="fill: #eaeaea" transform="translate(517.305625 447.719063) scale(0.12 -0.12)">
       <defs>
        <path id="DejaVuSans-2e" d="M 684 794 
L 1344 794 
L 1344 0 
L 684 0 
L 684 794 
z
" transform="scale(0.015625)"/>
       </defs>
       <use xlink:href="#DejaVuSans-30"/>
       <use xlink:href="#DejaVuSans-2e" transform="translate(63.623047 0)"/>
       <use xlink:href="#DejaVuSans-30" transform="translate(95.410156 0)"/>
      </g>
     </g>
    </g>
    <g id="ytick_9">
     <g id="line2d_49">
      <path d="M 543.389375 372.6 
L 892.139375 372.6 
" clip-path="url(#pa87c33294a)" style="fill: none; stroke: #2a2a4a; stroke-opacity: 0.3; stroke-width: 0.8; stroke-linecap: square"/>
     </g>
     <g id="line2d_50">
      <g>
       <use xlink:href="#mbbb6db6b81" x="543.389375" y="372.6" style="fill: #eaeaea; stroke: #eaeaea; stroke-width: 0.8"/>
      </g>
     </g>
     <g id="text_31">
      <!-- 0.2 -->
      <g style="fill: #eaeaea" transform="translate(517.305625 377.159063) scale(0.12 -0.12)">
       <use xlink:href="#DejaVuSans-30"/>
       <use xlink:href="#DejaVuSans-2e" transform="translate(63.623047 0)"/>
       <use xlink:href="#DejaVuSans-32" transform="translate(95.410156 0)"/>
      </g>
     </g>
    </g>
    <g id="ytick_10">
     <g id="line2d_51">
      <path d="M 543.389375 302.04 
L 892.139375 302.04 
" clip-path="url(#pa87c33294a)" style="fill: none; stroke: #2a2a4a; stroke-opacity: 0.3; stroke-width: 0.8; stroke-linecap: square"/>
     </g>
     <g id="line2d_52">
      <g>
       <use xlink:href="#mbbb6db6b81" x="543.389375" y="302.04" style="fill: #eaeaea; stroke: #eaeaea; stroke-width: 0.8"/>
      </g>
     </g>
     <g id="text_32">
      <!-- 0.4 -->
      <g style="fill: #eaeaea" transform="translate(517.305625 306.599063) scale(0.12 -0.12)">
       <use xlink:href="#DejaVuSans-30"/>
       <use xlink:href="#DejaVuSans-2e" transform="translate(63.623047 0)"/>
       <use xlink:href="#DejaVuSans-34" transform="translate(95.410156 0)"/>
      </g>
     </g>
    </g>
    <g id="ytick_11">
     <g id="line2d_53">
      <path d="M 543.389375 231.48 
L 892.139375 231.48 
" clip-path="url(#pa87c33294a)" style="fill: none; stroke: #2a2a4a; stroke-opacity: 0.3; stroke-width: 0.8; stroke-linecap: square"/>
     </g>
     <g id="line2d_54">
      <g>
       <use xlink:href="#mbbb6db6b81" x="543.389375" y="231.48" style="fill: #eaeaea; stroke: #eaeaea; stroke-width: 0.8"/>
      </g>
     </g>
     <g id="text_33">
      <!-- 0.6 -->
      <g style="fill: #eaeaea" transform="translate(517.305625 236.039062) scale(0.12 -0.12)">
       <use xlink:href="#DejaVuSans-30"/>
       <use xlink:href="#DejaVuSans-2e" transform="translate(63.623047 0)"/>
       <use xlink:href="#DejaVuSans-36" transform="translate(95.410156 0)"/>
      </g>
     </g>
    </g>
    <g id="ytick_12">
     <g id="line2d_55">
      <path d="M 543.389375 160.92 
L 892.139375 160.92 
" clip-path="url(#pa87c33294a)" style="fill: none; stroke: #2a2a4a; stroke-opacity: 0.3; stroke-width: 0.8; stroke-linecap: square"/>
     </g>
     <g id="line2d_56">
      <g>
       <use xlink:href="#mbbb6db6b81" x="543.389375" y="160.92" style="fill: #eaeaea; stroke: #eaeaea; stroke-width: 0.8"/>
      </g>
     </g>
     <g id="text_34">
      <!-- 0.8 -->
      <g style="fill: #eaeaea" transform="translate(517.305625 165.479063) scale(0.12 -0.12)">
       <use xlink:href="#DejaVuSans-30"/>
       <use xlink:href="#DejaVuSans-2e" transform="translate(63.623047 0)"/>
       <use xlink:href="#DejaVuSans-38" transform="translate(95.410156 0)"/>
      </g>
     </g>
    </g>
    <g id="ytick_13">
     <g id="line2d_57">
      <path d="M 543.389375 90.36 
L 892.139375 90.36 
" clip-path="url(#pa87c33294a)" style="fill: none; stroke: #2a2a4a; stroke-opacity: 0.3; stroke-width: 0.8; stroke-linecap: square"/>
     </g>
     <g id="line2d_58">
      <g>
       <use xlink:href="#mbbb6db6b81" x="543.389375" y="90.36" style="fill: #eaeaea; stroke: #eaeaea; stroke-width: 0.8"/>
      </g>
     </g>
     <g id="text_35">
      <!-- 1.0 -->
      <g style="fill: #eaeaea" transform="translate(517.305625 94.919062) scale(0.12 -0.12)">
       <use xlink:href="#DejaVuSans-31"/>
       <use xlink:href="#DejaVuSans-2e" transform="translate(63.623047 0)"/>
       <use xlink:href="#DejaVuSans-30" transform="translate(95.410156 0)"/>
      </g>
     </g>
    </g>
    <g id="text_36">
     <!-- Normalised k  (k / k_max) -->
     <g style="fill: #eaeaea" transform="translate(510.47625 343.49625) rotate(-90) scale(0.12 -0.12)">
      <defs>
       <path id="DejaVuSans-4e" d="M 628 4666 
L 1478 4666 
L 3547 763 
L 3547 4666 
L 4159 4666 
L 4159 0 
L 3309 0 
L 1241 3903 
L 1241 0 
L 628 0 
L 628 4666 
z
" transform="scale(0.015625)"/>
       <path id="DejaVuSans-64" d="M 2906 2969 
L 2906 4863 
L 3481 4863 
L 3481 0 
L 2906 0 
L 2906 525 
Q 2725 213 2448 61 
Q 2172 -91 1784 -91 
Q 1150 -91 751 415 
Q 353 922 353 1747 
Q 353 2572 751 3078 
Q 1150 3584 1784 3584 
Q 2172 3584 2448 3432 
Q 2725 3281 2906 2969 
z
M 947 1747 
Q 947 1113 1208 752 
Q 1469 391 1925 391 
Q 2381 391 2643 752 
Q 2906 1113 2906 1747 
Q 2906 2381 2643 2742 
Q 2381 3103 1925 3103 
Q 1469 3103 1208 2742 
Q 947 2381 947 1747 
z
" transform="scale(0.015625)"/>
       <path id="DejaVuSans-5f" d="M 3263 -1063 
L 3263 -1509 
L -63 -1509 
L -63 -1063 
L 3263 -1063 
z
" transform="scale(0.015625)"/>
       <path id="DejaVuSans-78" d="M 3513 3500 
L 2247 1797 
L 3578 0 
L 2900 0 
L 1881 1375 
L 863 0 
L 184 0 
L 1544 1831 
L 300 3500 
L 978 3500 
L 1906 2253 
L 2834 3500 
L 3513 3500 
z
" transform="scale(0.015625)"/>
      </defs>
      <use xlink:href="#DejaVuSans-4e"/>
      <use xlink:href="#DejaVuSans-6f" transform="translate(74.804688 0)"/>
      <use xlink:href="#DejaVuSans-72" transform="translate(135.986328 0)"/>
      <use xlink:href="#DejaVuSans-6d" transform="translate(175.349609 0)"/>
      <use xlink:href="#DejaVuSans-61" transform="translate(272.761719 0)"/>
      <use xlink:href="#DejaVuSans-6c" transform="translate(334.041016 0)"/>
      <use xlink:href="#DejaVuSans-69" transform="translate(361.824219 0)"/>
      <use xlink:href="#DejaVuSans-73" transform="translate(389.607422 0)"/>
      <use xlink:href="#DejaVuSans-65" transform="translate(441.707031 0)"/>
      <use xlink:href="#DejaVuSans-64" transform="translate(503.230469 0)"/>
      <use xlink:href="#DejaVuSans-20" transform="translate(566.707031 0)"/>
      <use xlink:href="#DejaVuSans-6b" transform="translate(598.494141 0)"/>
      <use xlink:href="#DejaVuSans-20" transform="translate(656.404297 0)"/>
      <use xlink:href="#DejaVuSans-20" transform="translate(688.191406 0)"/>
      <use xlink:href="#DejaVuSans-28" transform="translate(719.978516 0)"/>
      <use xlink:href="#DejaVuSans-6b" transform="translate(758.992188 0)"/>
      <use xlink:href="#DejaVuSans-20" transform="translate(816.902344 0)"/>
      <use xlink:href="#DejaVuSans-2f" transform="translate(848.689453 0)"/>
      <use xlink:href="#DejaVuSans-20" transform="translate(882.380859 0)"/>
      <use xlink:href="#DejaVuSans-6b" transform="translate(914.167969 0)"/>
      <use xlink:href="#DejaVuSans-5f" transform="translate(972.078125 0)"/>
      <use xlink:href="#DejaVuSans-6d" transform="translate(1022.078125 0)"/>
      <use xlink:href="#DejaVuSans-61" transform="translate(1119.490234 0)"/>
      <use xlink:href="#DejaVuSans-78" transform="translate(1180.769531 0)"/>
      <use xlink:href="#DejaVuSans-29" transform="translate(1239.949219 0)"/>
     </g>
    </g>
   </g>
   <g id="line2d_59">
    <path d="M 543.389375 443.144351 
L 560.835598 442.986367 
L 571.12887 442.680472 
L 579.503057 442.212783 
L 586.656008 441.595853 
L 593.111111 440.824048 
L 599.217289 439.873352 
L 604.974543 438.755068 
L 610.557334 437.444471 
L 615.965663 435.945999 
L 621.19953 434.268472 
L 626.433397 432.35671 
L 631.667264 430.202145 
L 636.726669 427.88226 
L 641.786073 425.324684 
L 647.01994 422.425572 
L 652.253807 419.267045 
L 657.487674 415.848747 
L 662.896003 412.044642 
L 668.304332 407.966608 
L 673.887124 403.473539 
L 679.469915 398.697592 
L 685.227169 393.482677 
L 691.158885 387.810177 
L 697.265063 381.663093 
L 703.545703 375.026221 
L 710.175268 367.688997 
L 716.979295 359.820662 
L 724.132246 351.198542 
L 731.45966 342.014971 
L 739.135998 332.036894 
L 747.161261 321.241594 
L 755.70991 309.364974 
L 764.781946 296.372388 
L 774.377369 282.236888 
L 784.670641 266.673114 
L 795.836223 249.38059 
L 808.04858 230.049609 
L 821.656634 208.084609 
L 837.358234 182.302856 
L 856.200155 150.919592 
L 882.718415 106.277282 
L 892.139375 90.36 
L 892.139375 90.36 
" clip-path="url(#pa87c33294a)" style="fill: none; stroke: #ffd700; stroke-width: 2.5; stroke-linecap: square"/>
   </g>
   <g id="line2d_60">
    <path d="M 543.389375 443.159999 
L 612.476419 443.050314 
L 628.003557 442.790091 
L 639.16914 442.389949 
L 648.415638 441.843508 
L 656.440901 441.153413 
L 663.768314 440.301841 
L 670.397879 439.312101 
L 676.67852 438.150605 
L 682.610235 436.826274 
L 688.193027 435.354604 
L 693.601356 433.699742 
L 698.835223 431.864692 
L 703.894628 429.855473 
L 708.77957 427.680897 
L 713.664513 425.261526 
L 718.374993 422.683807 
L 723.085473 419.853581 
L 727.795953 416.759161 
L 732.506434 413.38927 
L 737.042452 409.873712 
L 741.57847 406.083399 
L 746.114488 402.009501 
L 750.650506 397.643637 
L 755.186524 392.97789 
L 759.897004 387.807314 
L 764.607484 382.297538 
L 769.317964 376.441347 
L 774.028445 370.232097 
L 778.913387 363.413469 
L 783.798329 356.202484 
L 788.683272 348.593663 
L 793.742677 340.288534 
L 798.802081 331.546785 
L 803.861486 322.36445 
L 809.095353 312.398367 
L 814.32922 301.954409 
L 819.737549 290.658019 
L 825.145878 278.847518 
L 830.72867 266.115943 
L 836.311461 252.835666 
L 842.068715 238.566491 
L 848.000431 223.257196 
L 853.932146 207.333803 
L 860.038324 190.304379 
L 866.318965 172.118455 
L 872.774067 152.725778 
L 879.22917 132.629394 
L 885.858735 111.266225 
L 892.139375 90.36 
L 892.139375 90.36 
" clip-path="url(#pa87c33294a)" style="fill: none; stroke: #00d2ff; stroke-width: 2.5; stroke-linecap: square"/>
   </g>
   <g id="line2d_61">
    <path d="M 543.389375 443.16 
L 652.428269 443.048897 
L 669.002181 442.793239 
L 680.691151 442.400996 
L 690.112111 441.871773 
L 698.311836 441.190864 
L 705.464788 440.377807 
L 711.91989 439.426489 
L 717.851606 438.334552 
L 723.434398 437.08467 
L 728.668264 435.689106 
L 733.727669 434.107965 
L 738.438149 432.407584 
L 742.974167 430.540985 
L 747.335723 428.51471 
L 751.697279 426.242289 
L 755.884372 423.811022 
L 760.071466 421.11706 
L 764.084097 418.271969 
L 768.096729 415.152478 
L 772.10936 411.741901 
L 775.947529 408.191608 
L 779.785698 404.344465 
L 783.623867 400.185289 
L 787.462036 395.698768 
L 791.300205 390.869487 
L 795.138374 385.681958 
L 798.976544 380.120644 
L 802.814713 374.169988 
L 806.652882 367.814442 
L 810.491051 361.038488 
L 814.503682 353.488248 
L 818.516313 345.444043 
L 822.528945 336.888426 
L 826.541576 327.804103 
L 830.554207 318.173961 
L 834.566839 307.981088 
L 838.753932 296.727043 
L 842.941026 284.823445 
L 847.128119 272.251953 
L 851.315213 258.994574 
L 855.676769 244.436455 
L 860.038324 229.09551 
L 864.39988 212.952752 
L 868.935898 195.293858 
L 873.471916 176.727546 
L 878.007934 157.234257 
L 882.718415 135.989825 
L 887.428895 113.704946 
L 892.139375 90.36 
L 892.139375 90.36 
" clip-path="url(#pa87c33294a)" style="fill: none; stroke: #2ecc71; stroke-width: 2.5; stroke-linecap: square"/>
   </g>
   <g id="line2d_62">
    <path d="M 543.389375 443.16 
L 682.261311 443.049306 
L 698.835223 442.798367 
L 710.34973 442.413421 
L 719.596228 441.887851 
L 727.272567 441.237467 
L 734.076594 440.443606 
L 740.182772 439.510868 
L 745.765563 438.435418 
L 750.99943 437.197544 
L 755.884372 435.808637 
L 760.420391 434.287613 
L 764.781946 432.587641 
L 768.96904 430.71077 
L 772.981671 428.662507 
L 776.81984 426.451836 
L 780.483547 424.091149 
L 784.147254 421.464688 
L 787.636499 418.696264 
L 791.125743 415.647299 
L 794.614988 412.297249 
L 798.104232 408.624736 
L 801.419015 404.816953 
L 804.733797 400.678393 
L 808.04858 396.188679 
L 811.363362 391.32679 
L 814.678144 386.071069 
L 817.992927 380.399238 
L 821.307709 374.288413 
L 824.622492 367.715117 
L 827.937274 360.655301 
L 831.252056 353.084353 
L 834.566839 344.977127 
L 838.056083 335.835618 
L 841.545328 326.040909 
L 845.034573 315.561872 
L 848.523817 304.36682 
L 852.013062 292.423536 
L 855.502306 279.699296 
L 858.991551 266.160904 
L 862.655258 251.03255 
L 866.318965 234.930071 
L 869.982672 217.813574 
L 873.646379 199.642742 
L 877.310085 180.376874 
L 881.148254 158.974364 
L 884.986424 136.27745 
L 888.824593 112.238269 
L 892.139375 90.36 
L 892.139375 90.36 
" clip-path="url(#pa87c33294a)" style="fill: none; stroke: #ff6b9d; stroke-width: 2.5; stroke-linecap: square"/>
   </g>
   <g id="line2d_63">
    <path d="M 543.389375 443.16 
L 705.464788 443.049772 
L 721.689775 442.799999 
L 732.855358 442.414146 
L 741.57847 441.896844 
L 748.905883 441.243782 
L 755.186524 440.467973 
L 760.769315 439.563434 
L 765.82872 438.528204 
L 770.5392 437.343412 
L 774.900756 436.023229 
L 779.087849 434.522359 
L 782.926018 432.917427 
L 786.589725 431.154917 
L 790.253432 429.14073 
L 793.742677 426.962632 
L 797.057459 424.634324 
L 800.372241 422.028996 
L 803.512562 419.281935 
L 806.652882 416.239877 
L 809.793202 412.878183 
L 812.75906 409.386303 
L 815.724918 405.562981 
L 818.690776 401.383931 
L 821.656634 396.823681 
L 824.622492 391.855544 
L 827.588349 386.451606 
L 830.554207 380.582704 
L 833.520065 374.218411 
L 836.485923 367.327019 
L 839.451781 359.875528 
L 842.417639 351.829635 
L 845.383497 343.153718 
L 848.349355 333.810836 
L 851.315213 323.762714 
L 854.455533 312.3108 
L 857.595853 299.97516 
L 860.736173 286.705454 
L 863.876494 272.449655 
L 867.016814 257.154049 
L 870.157134 240.763245 
L 873.297454 223.220174 
L 876.612236 203.387497 
L 879.927019 182.134434 
L 883.241801 159.38787 
L 886.556584 135.072673 
L 889.871366 109.111713 
L 892.139375 90.36 
L 892.139375 90.36 
" clip-path="url(#pa87c33294a)" style="fill: none; stroke: #f39c12; stroke-width: 2.5; stroke-linecap: square"/>
   </g>
   <g id="patch_10">
    <path d="M 543.389375 460.8 
L 543.389375 72.72 
" style="fill: none; stroke: #2a2a4a; stroke-width: 0.8; stroke-linejoin: miter; stroke-linecap: square"/>
   </g>
   <g id="patch_11">
    <path d="M 892.139375 460.8 
L 892.139375 72.72 
" style="fill: none; stroke: #2a2a4a; stroke-width: 0.8; stroke-linejoin: miter; stroke-linecap: square"/>
   </g>
   <g id="patch_12">
    <path d="M 543.389375 460.8 
L 892.139375 460.8 
" style="fill: none; stroke: #2a2a4a; stroke-width: 0.8; stroke-linejoin: miter; stroke-linecap: square"/>
   </g>
   <g id="patch_13">
    <path d="M 543.389375 72.72 
L 892.139375 72.72 
" style="fill: none; stroke: #2a2a4a; stroke-width: 0.8; stroke-linejoin: miter; stroke-linecap: square"/>
   </g>
   <g id="text_37">
    <g id="patch_14">
     <path d="M 553.851875 100.2024 
L 639.321875 100.2024 
Q 643.721875 100.2024 643.721875 95.8024 
L 643.721875 84.3624 
Q 643.721875 79.9624 639.321875 79.9624 
L 553.851875 79.9624 
Q 549.451875 79.9624 549.451875 84.3624 
L 549.451875 95.8024 
Q 549.451875 100.2024 553.851875 100.2024 
z
" style="fill: #1a1a2e; opacity: 0.8; stroke: #ffffff; stroke-linejoin: miter"/>
    </g>
    <!-- $k(T) = A \cdot e^{-E_a/RT}$ -->
    <g style="fill: #ffd700" transform="translate(553.851875 93.514744) scale(0.11 -0.11)">
     <defs>
      <path id="DejaVuSans-Oblique-65" d="M 3078 2063 
Q 3088 2113 3092 2166 
Q 3097 2219 3097 2272 
Q 3097 2653 2873 2875 
Q 2650 3097 2266 3097 
Q 1838 3097 1509 2826 
Q 1181 2556 1013 2059 
L 3078 2063 
z
M 3578 1613 
L 903 1613 
Q 884 1494 878 1425 
Q 872 1356 872 1306 
Q 872 872 1139 634 
Q 1406 397 1894 397 
Q 2269 397 2603 481 
Q 2938 566 3225 728 
L 3116 159 
Q 2806 34 2476 -28 
Q 2147 -91 1806 -91 
Q 1078 -91 686 257 
Q 294 606 294 1247 
Q 294 1794 489 2264 
Q 684 2734 1063 3103 
Q 1306 3334 1642 3459 
Q 1978 3584 2356 3584 
Q 2950 3584 3301 3228 
Q 3653 2872 3653 2272 
Q 3653 2128 3634 1964 
Q 3616 1800 3578 1613 
z
" transform="scale(0.015625)"/>
     </defs>
     <use xlink:href="#DejaVuSans-Oblique-6b" transform="translate(0 0.684375)"/>
     <use xlink:href="#DejaVuSans-28" transform="translate(57.910156 0.684375)"/>
     <use xlink:href="#DejaVuSans-Oblique-54" transform="translate(96.923828 0.684375)"/>
     <use xlink:href="#DejaVuSans-29" transform="translate(158.007812 0.684375)"/>
     <use xlink:href="#DejaVuSans-3d" transform="translate(216.503906 0.684375)"/>
     <use xlink:href="#DejaVuSans-Oblique-41" transform="translate(319.775391 0.684375)"/>
     <use xlink:href="#DejaVuSans-22c5" transform="translate(407.666016 0.684375)"/>
     <use xlink:href="#DejaVuSans-Oblique-65" transform="translate(458.935547 0.684375)"/>
     <use xlink:href="#DejaVuSans-2212" transform="translate(525.10888 38.965625) scale(0.7)"/>
     <use xlink:href="#DejaVuSans-Oblique-45" transform="translate(583.761224 38.965625) scale(0.7)"/>
     <use xlink:href="#DejaVuSans-Oblique-61" transform="translate(627.98974 27.48125) scale(0.49)"/>
     <use xlink:href="#DejaVuSans-2f" transform="translate(659.930658 38.965625) scale(0.7)"/>
     <use xlink:href="#DejaVuSans-Oblique-52" transform="translate(682.289642 38.965625) scale(0.7)"/>
     <use xlink:href="#DejaVuSans-Oblique-54" transform="translate(730.927337 38.965625) scale(0.7)"/>
    </g>
   </g>
   <g id="text_38">
    <g id="patch_15">
     <path d="M 744.17375 405.288 
L 881.676875 405.288 
Q 884.376875 405.288 884.376875 402.588 
L 884.376875 383.799656 
Q 884.376875 381.099656 881.676875 381.099656 
L 744.17375 381.099656 
Q 741.47375 381.099656 741.47375 383.799656 
L 741.47375 402.588 
Q 741.47375 405.288 744.17375 405.288 
z
" style="fill: #1a1a2e; opacity: 0.8; stroke: #ffffff; stroke-linejoin: miter"/>
    </g>
    <!-- Higher Ea → reaction rate -->
    <g style="fill: #00d2ff" transform="translate(766.548594 390.63825) scale(0.09 -0.09)">
     <defs>
      <path id="DejaVuSans-48" d="M 628 4666 
L 1259 4666 
L 1259 2753 
L 3553 2753 
L 3553 4666 
L 4184 4666 
L 4184 0 
L 3553 0 
L 3553 2222 
L 1259 2222 
L 1259 0 
L 628 0 
L 628 4666 
z
" transform="scale(0.015625)"/>
      <path id="DejaVuSans-2192" d="M 5050 2147 
L 5050 1866 
L 3822 638 
L 3447 1013 
L 4175 1741 
L 366 1741 
L 366 2272 
L 4175 2272 
L 3447 3000 
L 3822 3375 
L 5050 2147 
z
" transform="scale(0.015625)"/>
     </defs>
     <use xlink:href="#DejaVuSans-48"/>
     <use xlink:href="#DejaVuSans-69" transform="translate(75.195312 0)"/>
     <use xlink:href="#DejaVuSans-67" transform="translate(102.978516 0)"/>
     <use xlink:href="#DejaVuSans-68" transform="translate(166.455078 0)"/>
     <use xlink:href="#DejaVuSans-65" transform="translate(229.833984 0)"/>
     <use xlink:href="#DejaVuSans-72" transform="translate(291.357422 0)"/>
     <use xlink:href="#DejaVuSans-20" transform="translate(332.470703 0)"/>
     <use xlink:href="#DejaVuSans-45" transform="translate(364.257812 0)"/>
     <use xlink:href="#DejaVuSans-61" transform="translate(427.441406 0)"/>
     <use xlink:href="#DejaVuSans-20" transform="translate(488.720703 0)"/>
     <use xlink:href="#DejaVuSans-2192" transform="translate(520.507812 0)"/>
     <use xlink:href="#DejaVuSans-20" transform="translate(604.296875 0)"/>
     <use xlink:href="#DejaVuSans-72" transform="translate(636.083984 0)"/>
     <use xlink:href="#DejaVuSans-65" transform="translate(674.947266 0)"/>
     <use xlink:href="#DejaVuSans-61" transform="translate(736.470703 0)"/>
     <use xlink:href="#DejaVuSans-63" transform="translate(797.75 0)"/>
     <use xlink:href="#DejaVuSans-74" transform="translate(852.730469 0)"/>
     <use xlink:href="#DejaVuSans-69" transform="translate(891.939453 0)"/>
     <use xlink:href="#DejaVuSans-6f" transform="translate(919.722656 0)"/>
     <use xlink:href="#DejaVuSans-6e" transform="translate(980.904297 0)"/>
     <use xlink:href="#DejaVuSans-20" transform="translate(1044.283203 0)"/>
     <use xlink:href="#DejaVuSans-72" transform="translate(1076.070312 0)"/>
     <use xlink:href="#DejaVuSans-61" transform="translate(1117.183594 0)"/>
     <use xlink:href="#DejaVuSans-74" transform="translate(1178.462891 0)"/>
     <use xlink:href="#DejaVuSans-65" transform="translate(1217.671875 0)"/>
    </g>
    <!-- more sensitive to temperature -->
    <g style="fill: #00d2ff" transform="translate(744.17375 400.716281) scale(0.09 -0.09)">
     <use xlink:href="#DejaVuSans-6d"/>
     <use xlink:href="#DejaVuSans-6f" transform="translate(97.412109 0)"/>
     <use xlink:href="#DejaVuSans-72" transform="translate(158.59375 0)"/>
     <use xlink:href="#DejaVuSans-65" transform="translate(197.457031 0)"/>
     <use xlink:href="#DejaVuSans-20" transform="translate(258.980469 0)"/>
     <use xlink:href="#DejaVuSans-73" transform="translate(290.767578 0)"/>
     <use xlink:href="#DejaVuSans-65" transform="translate(342.867188 0)"/>
     <use xlink:href="#DejaVuSans-6e" transform="translate(404.390625 0)"/>
     <use xlink:href="#DejaVuSans-73" transform="translate(467.769531 0)"/>
     <use xlink:href="#DejaVuSans-69" transform="translate(519.869141 0)"/>
     <use xlink:href="#DejaVuSans-74" transform="translate(547.652344 0)"/>
     <use xlink:href="#DejaVuSans-69" transform="translate(586.861328 0)"/>
     <use xlink:href="#DejaVuSans-76" transform="translate(614.644531 0)"/>
     <use xlink:href="#DejaVuSans-65" transform="translate(673.824219 0)"/>
     <use xlink:href="#DejaVuSans-20" transform="translate(735.347656 0)"/>
     <use xlink:href="#DejaVuSans-74" transform="translate(767.134766 0)"/>
     <use xlink:href="#DejaVuSans-6f" transform="translate(806.34375 0)"/>
     <use xlink:href="#DejaVuSans-20" transform="translate(867.525391 0)"/>
     <use xlink:href="#DejaVuSans-74" transform="translate(899.3125 0)"/>
     <use xlink:href="#DejaVuSans-65" transform="translate(938.521484 0)"/>
     <use xlink:href="#DejaVuSans-6d" transform="translate(1000.044922 0)"/>
     <use xlink:href="#DejaVuSans-70" transform="translate(1097.457031 0)"/>
     <use xlink:href="#DejaVuSans-65" transform="translate(1160.933594 0)"/>
     <use xlink:href="#DejaVuSans-72" transform="translate(1222.457031 0)"/>
     <use xlink:href="#DejaVuSans-61" transform="translate(1263.570312 0)"/>
     <use xlink:href="#DejaVuSans-74" transform="translate(1324.849609 0)"/>
     <use xlink:href="#DejaVuSans-75" transform="translate(1364.058594 0)"/>
     <use xlink:href="#DejaVuSans-72" transform="translate(1427.4375 0)"/>
     <use xlink:href="#DejaVuSans-65" transform="translate(1466.300781 0)"/>
    </g>
   </g>
   <g id="text_39">
    <!-- Rate Constant vs Temperature -->
    <g style="fill: #eaeaea" transform="translate(596.259375 62.72) scale(0.16 -0.16)">
     <defs>
      <path id="DejaVuSans-43" d="M 4122 4306 
L 4122 3641 
Q 3803 3938 3442 4084 
Q 3081 4231 2675 4231 
Q 1875 4231 1450 3742 
Q 1025 3253 1025 2328 
Q 1025 1406 1450 917 
Q 1875 428 2675 428 
Q 3081 428 3442 575 
Q 3803 722 4122 1019 
L 4122 359 
Q 3791 134 3420 21 
Q 3050 -91 2638 -91 
Q 1578 -91 968 557 
Q 359 1206 359 2328 
Q 359 3453 968 4101 
Q 1578 4750 2638 4750 
Q 3056 4750 3426 4639 
Q 3797 4528 4122 4306 
z
" transform="scale(0.015625)"/>
     </defs>
     <use xlink:href="#DejaVuSans-52"/>
     <use xlink:href="#DejaVuSans-61" transform="translate(67.232422 0)"/>
     <use xlink:href="#DejaVuSans-74" transform="translate(128.511719 0)"/>
     <use xlink:href="#DejaVuSans-65" transform="translate(167.720703 0)"/>
     <use xlink:href="#DejaVuSans-20" transform="translate(229.244141 0)"/>
     <use xlink:href="#DejaVuSans-43" transform="translate(261.03125 0)"/>
     <use xlink:href="#DejaVuSans-6f" transform="translate(330.855469 0)"/>
     <use xlink:href="#DejaVuSans-6e" transform="translate(392.037109 0)"/>
     <use xlink:href="#DejaVuSans-73" transform="translate(455.416016 0)"/>
     <use xlink:href="#DejaVuSans-74" transform="translate(507.515625 0)"/>
     <use xlink:href="#DejaVuSans-61" transform="translate(546.724609 0)"/>
     <use xlink:href="#DejaVuSans-6e" transform="translate(608.003906 0)"/>
     <use xlink:href="#DejaVuSans-74" transform="translate(671.382812 0)"/>
     <use xlink:href="#DejaVuSans-20" transform="translate(710.591797 0)"/>
     <use xlink:href="#DejaVuSans-76" transform="translate(742.378906 0)"/>
     <use xlink:href="#DejaVuSans-73" transform="translate(801.558594 0)"/>
     <use xlink:href="#DejaVuSans-20" transform="translate(853.658203 0)"/>
     <use xlink:href="#DejaVuSans-54" transform="translate(885.445312 0)"/>
     <use xlink:href="#DejaVuSans-65" transform="translate(929.529297 0)"/>
     <use xlink:href="#DejaVuSans-6d" transform="translate(991.052734 0)"/>
     <use xlink:href="#DejaVuSans-70" transform="translate(1088.464844 0)"/>
     <use xlink:href="#DejaVuSans-65" transform="translate(1151.941406 0)"/>
     <use xlink:href="#DejaVuSans-72" transform="translate(1213.464844 0)"/>
     <use xlink:href="#DejaVuSans-61" transform="translate(1254.578125 0)"/>
     <use xlink:href="#DejaVuSans-74" transform="translate(1315.857422 0)"/>
     <use xlink:href="#DejaVuSans-75" transform="translate(1355.066406 0)"/>
     <use xlink:href="#DejaVuSans-72" transform="translate(1418.445312 0)"/>
     <use xlink:href="#DejaVuSans-65" transform="translate(1457.308594 0)"/>
    </g>
   </g>
   <g id="legend_2">
    <g id="patch_16">
     <path d="M 549.689375 307.257031 
L 626.200625 307.257031 
Q 628.000625 307.257031 628.000625 305.457031 
L 628.000625 228.062969 
Q 628.000625 226.262969 626.200625 226.262969 
L 549.689375 226.262969 
Q 547.889375 226.262969 547.889375 228.062969 
L 547.889375 305.457031 
Q 547.889375 307.257031 549.689375 307.257031 
z
" style="fill: #16213e; opacity: 0.8; stroke: #2a2a4a; stroke-linejoin: miter"/>
    </g>
    <g id="text_40">
     <!-- Activation Energy -->
     <g style="fill: #eaeaea" transform="translate(552.643125 235.941719) scale(0.08 -0.08)">
      <use xlink:href="#DejaVuSans-41"/>
      <use xlink:href="#DejaVuSans-63" transform="translate(66.658203 0)"/>
      <use xlink:href="#DejaVuSans-74" transform="translate(121.638672 0)"/>
      <use xlink:href="#DejaVuSans-69" transform="translate(160.847656 0)"/>
      <use xlink:href="#DejaVuSans-76" transform="translate(188.630859 0)"/>
      <use xlink:href="#DejaVuSans-61" transform="translate(247.810547 0)"/>
      <use xlink:href="#DejaVuSans-74" transform="translate(309.089844 0)"/>
      <use xlink:href="#DejaVuSans-69" transform="translate(348.298828 0)"/>
      <use xlink:href="#DejaVuSans-6f" transform="translate(376.082031 0)"/>
      <use xlink:href="#DejaVuSans-6e" transform="translate(437.263672 0)"/>
      <use xlink:href="#DejaVuSans-20" transform="translate(500.642578 0)"/>
      <use xlink:href="#DejaVuSans-45" transform="translate(532.429688 0)"/>
      <use xlink:href="#DejaVuSans-6e" transform="translate(595.613281 0)"/>
      <use xlink:href="#DejaVuSans-65" transform="translate(658.992188 0)"/>
      <use xlink:href="#DejaVuSans-72" transform="translate(720.515625 0)"/>
      <use xlink:href="#DejaVuSans-67" transform="translate(759.878906 0)"/>
      <use xlink:href="#DejaVuSans-79" transform="translate(823.355469 0)"/>
     </g>
    </g>
    <g id="line2d_64">
     <path d="M 551.489375 245.794062 
L 560.489375 245.794062 
L 569.489375 245.794062 
" style="fill: none; stroke: #ffd700; stroke-width: 2.5; stroke-linecap: square"/>
    </g>
    <g id="text_41">
     <!-- 20 kJ/mol -->
     <g style="fill: #eaeaea" transform="translate(576.689375 248.944063) scale(0.09 -0.09)">
      <use xlink:href="#DejaVuSans-32"/>
      <use xlink:href="#DejaVuSans-30" transform="translate(63.623047 0)"/>
      <use xlink:href="#DejaVuSans-20" transform="translate(127.246094 0)"/>
      <use xlink:href="#DejaVuSans-6b" transform="translate(159.033203 0)"/>
      <use xlink:href="#DejaVuSans-4a" transform="translate(216.943359 0)"/>
      <use xlink:href="#DejaVuSans-2f" transform="translate(246.435547 0)"/>
      <use xlink:href="#DejaVuSans-6d" transform="translate(280.126953 0)"/>
      <use xlink:href="#DejaVuSans-6f" transform="translate(377.539062 0)"/>
      <use xlink:href="#DejaVuSans-6c" transform="translate(438.720703 0)"/>
     </g>
    </g>
    <g id="line2d_65">
     <path d="M 551.489375 259.004375 
L 560.489375 259.004375 
L 569.489375 259.004375 
" style="fill: none; stroke: #00d2ff; stroke-width: 2.5; stroke-linecap: square"/>
    </g>
    <g id="text_42">
     <!-- 40 kJ/mol -->
     <g style="fill: #eaeaea" transform="translate(576.689375 262.154375) scale(0.09 -0.09)">
      <use xlink:href="#DejaVuSans-34"/>
      <use xlink:href="#DejaVuSans-30" transform="translate(63.623047 0)"/>
      <use xlink:href="#DejaVuSans-20" transform="translate(127.246094 0)"/>
      <use xlink:href="#DejaVuSans-6b" transform="translate(159.033203 0)"/>
      <use xlink:href="#DejaVuSans-4a" transform="translate(216.943359 0)"/>
      <use xlink:href="#DejaVuSans-2f" transform="translate(246.435547 0)"/>
      <use xlink:href="#DejaVuSans-6d" transform="translate(280.126953 0)"/>
      <use xlink:href="#DejaVuSans-6f" transform="translate(377.539062 0)"/>
      <use xlink:href="#DejaVuSans-6c" transform="translate(438.720703 0)"/>
     </g>
    </g>
    <g id="line2d_66">
     <path d="M 551.489375 272.214688 
L 560.489375 272.214688 
L 569.489375 272.214688 
" style="fill: none; stroke: #2ecc71; stroke-width: 2.5; stroke-linecap: square"/>
    </g>
    <g id="text_43">
     <!-- 60 kJ/mol -->
     <g style="fill: #eaeaea" transform="translate(576.689375 275.364688) scale(0.09 -0.09)">
      <use xlink:href="#DejaVuSans-36"/>
      <use xlink:href="#DejaVuSans-30" transform="translate(63.623047 0)"/>
      <use xlink:href="#DejaVuSans-20" transform="translate(127.246094 0)"/>
      <use xlink:href="#DejaVuSans-6b" transform="translate(159.033203 0)"/>
      <use xlink:href="#DejaVuSans-4a" transform="translate(216.943359 0)"/>
      <use xlink:href="#DejaVuSans-2f" transform="translate(246.435547 0)"/>
      <use xlink:href="#DejaVuSans-6d" transform="translate(280.126953 0)"/>
      <use xlink:href="#DejaVuSans-6f" transform="translate(377.539062 0)"/>
      <use xlink:href="#DejaVuSans-6c" transform="translate(438.720703 0)"/>
     </g>
    </g>
    <g id="line2d_67">
     <path d="M 551.489375 285.425 
L 560.489375 285.425 
L 569.489375 285.425 
" style="fill: none; stroke: #ff6b9d; stroke-width: 2.5; stroke-linecap: square"/>
    </g>
    <g id="text_44">
     <!-- 80 kJ/mol -->
     <g style="fill: #eaeaea" transform="translate(576.689375 288.575) scale(0.09 -0.09)">
      <use xlink:href="#DejaVuSans-38"/>
      <use xlink:href="#DejaVuSans-30" transform="translate(63.623047 0)"/>
      <use xlink:href="#DejaVuSans-20" transform="translate(127.246094 0)"/>
      <use xlink:href="#DejaVuSans-6b" transform="translate(159.033203 0)"/>
      <use xlink:href="#DejaVuSans-4a" transform="translate(216.943359 0)"/>
      <use xlink:href="#DejaVuSans-2f" transform="translate(246.435547 0)"/>
      <use xlink:href="#DejaVuSans-6d" transform="translate(280.126953 0)"/>
      <use xlink:href="#DejaVuSans-6f" transform="translate(377.539062 0)"/>
      <use xlink:href="#DejaVuSans-6c" transform="translate(438.720703 0)"/>
     </g>
    </g>
    <g id="line2d_68">
     <path d="M 551.489375 298.635313 
L 560.489375 298.635313 
L 569.489375 298.635313 
" style="fill: none; stroke: #f39c12; stroke-width: 2.5; stroke-linecap: square"/>
    </g>
    <g id="text_45">
     <!-- 100 kJ/mol -->
     <g style="fill: #eaeaea" transform="translate(576.689375 301.785313) scale(0.09 -0.09)">
      <use xlink:href="#DejaVuSans-31"/>
      <use xlink:href="#DejaVuSans-30" transform="translate(63.623047 0)"/>
      <use xlink:href="#DejaVuSans-30" transform="translate(127.246094 0)"/>
      <use xlink:href="#DejaVuSans-20" transform="translate(190.869141 0)"/>
      <use xlink:href="#DejaVuSans-6b" transform="translate(222.65625 0)"/>
      <use xlink:href="#DejaVuSans-4a" transform="translate(280.566406 0)"/>
      <use xlink:href="#DejaVuSans-2f" transform="translate(310.058594 0)"/>
      <use xlink:href="#DejaVuSans-6d" transform="translate(343.75 0)"/>
      <use xlink:href="#DejaVuSans-6f" transform="translate(441.162109 0)"/>
      <use xlink:href="#DejaVuSans-6c" transform="translate(502.34375 0)"/>
     </g>
    </g>
   </g>
  </g>
  <g id="text_46">
   <!-- Arrhenius Equation  —  $k = A\,e^{-E_a/RT}$ -->
   <g style="fill: #ffd700" transform="translate(297.874375 22.5) scale(0.17 -0.17)">
    <defs>
     <path id="DejaVuSans-Bold-41" d="M 3419 850 
L 1538 850 
L 1241 0 
L 31 0 
L 1759 4666 
L 3194 4666 
L 4922 0 
L 3713 0 
L 3419 850 
z
M 1838 1716 
L 3116 1716 
L 2478 3572 
L 1838 1716 
z
" transform="scale(0.015625)"/>
     <path id="DejaVuSans-Bold-72" d="M 3138 2547 
Q 2991 2616 2845 2648 
Q 2700 2681 2553 2681 
Q 2122 2681 1889 2404 
Q 1656 2128 1656 1613 
L 1656 0 
L 538 0 
L 538 3500 
L 1656 3500 
L 1656 2925 
Q 1872 3269 2151 3426 
Q 2431 3584 2822 3584 
Q 2878 3584 2943 3579 
Q 3009 3575 3134 3559 
L 3138 2547 
z
" transform="scale(0.015625)"/>
     <path id="DejaVuSans-Bold-68" d="M 4056 2131 
L 4056 0 
L 2931 0 
L 2931 347 
L 2931 1625 
Q 2931 2084 2911 2256 
Q 2891 2428 2841 2509 
Q 2775 2619 2662 2680 
Q 2550 2741 2406 2741 
Q 2056 2741 1856 2470 
Q 1656 2200 1656 1722 
L 1656 0 
L 538 0 
L 538 4863 
L 1656 4863 
L 1656 2988 
Q 1909 3294 2193 3439 
Q 2478 3584 2822 3584 
Q 3428 3584 3742 3212 
Q 4056 2841 4056 2131 
z
" transform="scale(0.015625)"/>
     <path id="DejaVuSans-Bold-65" d="M 4031 1759 
L 4031 1441 
L 1416 1441 
Q 1456 1047 1700 850 
Q 1944 653 2381 653 
Q 2734 653 3104 758 
Q 3475 863 3866 1075 
L 3866 213 
Q 3469 63 3072 -14 
Q 2675 -91 2278 -91 
Q 1328 -91 801 392 
Q 275 875 275 1747 
Q 275 2603 792 3093 
Q 1309 3584 2216 3584 
Q 3041 3584 3536 3087 
Q 4031 2591 4031 1759 
z
M 2881 2131 
Q 2881 2450 2695 2645 
Q 2509 2841 2209 2841 
Q 1884 2841 1681 2658 
Q 1478 2475 1428 2131 
L 2881 2131 
z
" transform="scale(0.015625)"/>
     <path id="DejaVuSans-Bold-6e" d="M 4056 2131 
L 4056 0 
L 2931 0 
L 2931 347 
L 2931 1631 
Q 2931 2084 2911 2256 
Q 2891 2428 2841 2509 
Q 2775 2619 2662 2680 
Q 2550 2741 2406 2741 
Q 2056 2741 1856 2470 
Q 1656 2200 1656 1722 
L 1656 0 
L 538 0 
L 538 3500 
L 1656 3500 
L 1656 2988 
Q 1909 3294 2193 3439 
Q 2478 3584 2822 3584 
Q 3428 3584 3742 3212 
Q 4056 2841 4056 2131 
z
" transform="scale(0.015625)"/>
     <path id="DejaVuSans-Bold-69" d="M 538 3500 
L 1656 3500 
L 1656 0 
L 538 0 
L 538 3500 
z
M 538 4863 
L 1656 4863 
L 1656 3950 
L 538 3950 
L 538 4863 
z
" transform="scale(0.015625)"/>
     <path id="DejaVuSans-Bold-75" d="M 500 1363 
L 500 3500 
L 1625 3500 
L 1625 3150 
Q 1625 2866 1622 2436 
Q 1619 2006 1619 1863 
Q 1619 1441 1641 1255 
Q 1663 1069 1716 984 
Q 1784 875 1895 815 
Q 2006 756 2150 756 
Q 2500 756 2700 1025 
Q 2900 1294 2900 1772 
L 2900 3500 
L 4019 3500 
L 4019 0 
L 2900 0 
L 2900 506 
Q 2647 200 2364 54 
Q 2081 -91 1741 -91 
Q 1134 -91 817 281 
Q 500 653 500 1363 
z
" transform="scale(0.015625)"/>
     <path id="DejaVuSans-Bold-73" d="M 3272 3391 
L 3272 2541 
Q 2913 2691 2578 2766 
Q 2244 2841 1947 2841 
Q 1628 2841 1473 2761 
Q 1319 2681 1319 2516 
Q 1319 2381 1436 2309 
Q 1553 2238 1856 2203 
L 2053 2175 
Q 2913 2066 3209 1816 
Q 3506 1566 3506 1031 
Q 3506 472 3093 190 
Q 2681 -91 1863 -91 
Q 1516 -91 1145 -36 
Q 775 19 384 128 
L 384 978 
Q 719 816 1070 734 
Q 1422 653 1784 653 
Q 2113 653 2278 743 
Q 2444 834 2444 1013 
Q 2444 1163 2330 1236 
Q 2216 1309 1875 1350 
L 1678 1375 
Q 931 1469 631 1722 
Q 331 1975 331 2491 
Q 331 3047 712 3315 
Q 1094 3584 1881 3584 
Q 2191 3584 2531 3537 
Q 2872 3491 3272 3391 
z
" transform="scale(0.015625)"/>
     <path id="DejaVuSans-Bold-20" transform="scale(0.015625)"/>
     <path id="DejaVuSans-Bold-45" d="M 588 4666 
L 3834 4666 
L 3834 3756 
L 1791 3756 
L 1791 2888 
L 3713 2888 
L 3713 1978 
L 1791 1978 
L 1791 909 
L 3903 909 
L 3903 0 
L 588 0 
L 588 4666 
z
" transform="scale(0.015625)"/>
     <path id="DejaVuSans-Bold-71" d="M 2181 2772 
Q 1825 2772 1636 2509 
Q 1447 2247 1447 1747 
Q 1447 1247 1636 984 
Q 1825 722 2181 722 
Q 2541 722 2730 984 
Q 2919 1247 2919 1747 
Q 2919 2247 2730 2509 
Q 2541 2772 2181 2772 
z
M 2919 506 
Q 2688 197 2409 53 
Q 2131 -91 1766 -91 
Q 1119 -91 703 423 
Q 288 938 288 1747 
Q 288 2556 703 3067 
Q 1119 3578 1766 3578 
Q 2131 3578 2409 3434 
Q 2688 3291 2919 2981 
L 2919 3500 
L 4044 3500 
L 4044 -1331 
L 2919 -1331 
L 2919 506 
z
" transform="scale(0.015625)"/>
     <path id="DejaVuSans-Bold-61" d="M 2106 1575 
Q 1756 1575 1579 1456 
Q 1403 1338 1403 1106 
Q 1403 894 1545 773 
Q 1688 653 1941 653 
Q 2256 653 2472 879 
Q 2688 1106 2688 1447 
L 2688 1575 
L 2106 1575 
z
M 3816 1997 
L 3816 0 
L 2688 0 
L 2688 519 
Q 2463 200 2181 54 
Q 1900 -91 1497 -91 
Q 953 -91 614 226 
Q 275 544 275 1050 
Q 275 1666 698 1953 
Q 1122 2241 2028 2241 
L 2688 2241 
L 2688 2328 
Q 2688 2594 2478 2717 
Q 2269 2841 1825 2841 
Q 1466 2841 1156 2769 
Q 847 2697 581 2553 
L 581 3406 
Q 941 3494 1303 3539 
Q 1666 3584 2028 3584 
Q 2975 3584 3395 3211 
Q 3816 2838 3816 1997 
z
" transform="scale(0.015625)"/>
     <path id="DejaVuSans-Bold-74" d="M 1759 4494 
L 1759 3500 
L 2913 3500 
L 2913 2700 
L 1759 2700 
L 1759 1216 
Q 1759 972 1856 886 
Q 1953 800 2241 800 
L 2816 800 
L 2816 0 
L 1856 0 
Q 1194 0 917 276 
Q 641 553 641 1216 
L 641 2700 
L 84 2700 
L 84 3500 
L 641 3500 
L 641 4494 
L 1759 4494 
z
" transform="scale(0.015625)"/>
     <path id="DejaVuSans-Bold-6f" d="M 2203 2784 
Q 1831 2784 1636 2517 
Q 1441 2250 1441 1747 
Q 1441 1244 1636 976 
Q 1831 709 2203 709 
Q 2569 709 2762 976 
Q 2956 1244 2956 1747 
Q 2956 2250 2762 2517 
Q 2569 2784 2203 2784 
z
M 2203 3584 
Q 3106 3584 3614 3096 
Q 4122 2609 4122 1747 
Q 4122 884 3614 396 
Q 3106 -91 2203 -91 
Q 1297 -91 786 396 
Q 275 884 275 1747 
Q 275 2609 786 3096 
Q 1297 3584 2203 3584 
z
" transform="scale(0.015625)"/>
     <path id="DejaVuSansDisplay-2014" d="M 313 1978 
L 6088 1978 
L 6088 1528 
L 313 1528 
L 313 1978 
z
" transform="scale(0.015625)"/>
    </defs>
    <use xlink:href="#DejaVuSans-Bold-41" transform="translate(0 0.684375)"/>
    <use xlink:href="#DejaVuSans-Bold-72" transform="translate(77.392578 0.684375)"/>
    <use xlink:href="#DejaVuSans-Bold-72" transform="translate(126.708984 0.684375)"/>
    <use xlink:href="#DejaVuSans-Bold-68" transform="translate(176.025391 0.684375)"/>
    <use xlink:href="#DejaVuSans-Bold-65" transform="translate(247.216797 0.684375)"/>
    <use xlink:href="#DejaVuSans-Bold-6e" transform="translate(315.039062 0.684375)"/>
    <use xlink:href="#DejaVuSans-Bold-69" transform="translate(386.230469 0.684375)"/>
    <use xlink:href="#DejaVuSans-Bold-75" transform="translate(420.507812 0.684375)"/>
    <use xlink:href="#DejaVuSans-Bold-73" transform="translate(491.699219 0.684375)"/>
    <use xlink:href="#DejaVuSans-Bold-20" transform="translate(551.220703 0.684375)"/>
    <use xlink:href="#DejaVuSans-Bold-45" transform="translate(586.035156 0.684375)"/>
    <use xlink:href="#DejaVuSans-Bold-71" transform="translate(654.345703 0.684375)"/>
    <use xlink:href="#DejaVuSans-Bold-75" transform="translate(725.927734 0.684375)"/>
    <use xlink:href="#DejaVuSans-Bold-61" transform="translate(797.119141 0.684375)"/>
    <use xlink:href="#DejaVuSans-Bold-74" transform="translate(864.599609 0.684375)"/>
    <use xlink:href="#DejaVuSans-Bold-69" transform="translate(912.402344 0.684375)"/>
    <use xlink:href="#DejaVuSans-Bold-6f" transform="translate(946.679688 0.684375)"/>
    <use xlink:href="#DejaVuSans-Bold-6e" transform="translate(1015.380859 0.684375)"/>
    <use xlink:href="#DejaVuSans-Bold-20" transform="translate(1086.572266 0.684375)"/>
    <use xlink:href="#DejaVuSans-Bold-20" transform="translate(1121.386719 0.684375)"/>
    <use xlink:href="#DejaVuSansDisplay-2014" transform="translate(1156.201172 0.684375)"/>
    <use xlink:href="#DejaVuSans-Bold-20" transform="translate(1256.201172 0.684375)"/>
    <use xlink:href="#DejaVuSans-Bold-20" transform="translate(1291.015625 0.684375)"/>
    <use xlink:href="#DejaVuSans-Oblique-6b" transform="translate(1325.830078 0.684375)"/>
    <use xlink:href="#DejaVuSans-3d" transform="translate(1403.222656 0.684375)"/>
    <use xlink:href="#DejaVuSans-Oblique-41" transform="translate(1506.494141 0.684375)"/>
    <use xlink:href="#DejaVuSans-Oblique-65" transform="translate(1591.13802 0.684375)"/>
    <use xlink:href="#DejaVuSans-2212" transform="translate(1657.311353 38.965625) scale(0.7)"/>
    <use xlink:href="#DejaVuSans-Oblique-45" transform="translate(1715.963697 38.965625) scale(0.7)"/>
    <use xlink:href="#DejaVuSans-Oblique-61" transform="translate(1760.192213 27.48125) scale(0.49)"/>
    <use xlink:href="#DejaVuSans-2f" transform="translate(1792.133131 38.965625) scale(0.7)"/>
    <use xlink:href="#DejaVuSans-Oblique-52" transform="translate(1814.492115 38.965625) scale(0.7)"/>
    <use xlink:href="#DejaVuSans-Oblique-54" transform="translate(1863.12981 38.965625) scale(0.7)"/>
   </g>
  </g>
 </g>
 <defs>
  <clipPath id="p1da352dbbc">
   <rect x="55.139375" y="72.72" width="348.75" height="388.08"/>
  </clipPath>
  <clipPath id="pa87c33294a">
   <rect x="543.389375" y="72.72" width="348.75" height="388.08"/>
  </clipPath>
 </defs>
</svg>
